G75*
%MOIN*%
%OFA0B0*%
%FSLAX25Y25*%
%IPPOS*%
%LPD*%
%AMOC8*
5,1,8,0,0,1.08239X$1,22.5*
%
%ADD10C,0.01000*%
%ADD11C,0.00000*%
%ADD12C,0.06024*%
%ADD13C,0.06000*%
%ADD14C,0.09449*%
%ADD15C,0.02500*%
%ADD16C,0.02775*%
%ADD17C,0.03750*%
%ADD18C,0.03169*%
%ADD19C,0.01200*%
%ADD20C,0.02578*%
%ADD21C,0.02972*%
D10*
X0023254Y0014828D02*
X0192545Y0014828D01*
X0192783Y0014831D01*
X0193021Y0014839D01*
X0193258Y0014854D01*
X0193495Y0014874D01*
X0193731Y0014900D01*
X0193967Y0014931D01*
X0194202Y0014968D01*
X0194436Y0015011D01*
X0194669Y0015060D01*
X0194901Y0015114D01*
X0195131Y0015174D01*
X0195360Y0015239D01*
X0195587Y0015310D01*
X0195812Y0015386D01*
X0196035Y0015468D01*
X0196257Y0015555D01*
X0196476Y0015647D01*
X0196693Y0015745D01*
X0196907Y0015847D01*
X0197119Y0015955D01*
X0197329Y0016069D01*
X0197535Y0016187D01*
X0197739Y0016310D01*
X0197939Y0016438D01*
X0198136Y0016570D01*
X0198331Y0016708D01*
X0198521Y0016850D01*
X0198709Y0016997D01*
X0198892Y0017148D01*
X0199072Y0017303D01*
X0199248Y0017463D01*
X0199420Y0017627D01*
X0199589Y0017796D01*
X0199753Y0017968D01*
X0199913Y0018144D01*
X0200068Y0018324D01*
X0200219Y0018507D01*
X0200366Y0018695D01*
X0200508Y0018885D01*
X0200646Y0019080D01*
X0200778Y0019277D01*
X0200906Y0019477D01*
X0201029Y0019681D01*
X0201147Y0019887D01*
X0201261Y0020097D01*
X0201369Y0020309D01*
X0201471Y0020523D01*
X0201569Y0020740D01*
X0201661Y0020959D01*
X0201748Y0021181D01*
X0201830Y0021404D01*
X0201906Y0021629D01*
X0201977Y0021856D01*
X0202042Y0022085D01*
X0202102Y0022315D01*
X0202156Y0022547D01*
X0202205Y0022780D01*
X0202248Y0023014D01*
X0202285Y0023249D01*
X0202316Y0023485D01*
X0202342Y0023721D01*
X0202362Y0023958D01*
X0202377Y0024195D01*
X0202385Y0024433D01*
X0202388Y0024671D01*
X0202387Y0024671D02*
X0202387Y0176246D01*
X0202388Y0176246D02*
X0202385Y0176484D01*
X0202377Y0176722D01*
X0202362Y0176959D01*
X0202342Y0177196D01*
X0202316Y0177432D01*
X0202285Y0177668D01*
X0202248Y0177903D01*
X0202205Y0178137D01*
X0202156Y0178370D01*
X0202102Y0178602D01*
X0202042Y0178832D01*
X0201977Y0179061D01*
X0201906Y0179288D01*
X0201830Y0179513D01*
X0201748Y0179736D01*
X0201661Y0179958D01*
X0201569Y0180177D01*
X0201471Y0180394D01*
X0201369Y0180608D01*
X0201261Y0180820D01*
X0201147Y0181030D01*
X0201029Y0181236D01*
X0200906Y0181440D01*
X0200778Y0181640D01*
X0200646Y0181837D01*
X0200508Y0182032D01*
X0200366Y0182222D01*
X0200219Y0182410D01*
X0200068Y0182593D01*
X0199913Y0182773D01*
X0199753Y0182949D01*
X0199589Y0183121D01*
X0199420Y0183290D01*
X0199248Y0183454D01*
X0199072Y0183614D01*
X0198892Y0183769D01*
X0198709Y0183920D01*
X0198521Y0184067D01*
X0198331Y0184209D01*
X0198136Y0184347D01*
X0197939Y0184479D01*
X0197739Y0184607D01*
X0197535Y0184730D01*
X0197329Y0184848D01*
X0197119Y0184962D01*
X0196907Y0185070D01*
X0196693Y0185172D01*
X0196476Y0185270D01*
X0196257Y0185362D01*
X0196035Y0185449D01*
X0195812Y0185531D01*
X0195587Y0185607D01*
X0195360Y0185678D01*
X0195131Y0185743D01*
X0194901Y0185803D01*
X0194669Y0185857D01*
X0194436Y0185906D01*
X0194202Y0185949D01*
X0193967Y0185986D01*
X0193731Y0186017D01*
X0193495Y0186043D01*
X0193258Y0186063D01*
X0193021Y0186078D01*
X0192783Y0186086D01*
X0192545Y0186089D01*
X0192545Y0186088D02*
X0023254Y0186088D01*
X0013411Y0178214D02*
X0013411Y0026639D01*
X0013412Y0026639D02*
X0013391Y0026373D01*
X0013376Y0026107D01*
X0013369Y0025840D01*
X0013367Y0025573D01*
X0013373Y0025307D01*
X0013384Y0025040D01*
X0013403Y0024774D01*
X0013428Y0024508D01*
X0013459Y0024243D01*
X0013497Y0023979D01*
X0013541Y0023716D01*
X0013592Y0023454D01*
X0013649Y0023194D01*
X0013713Y0022934D01*
X0013783Y0022677D01*
X0013859Y0022421D01*
X0013942Y0022167D01*
X0014030Y0021916D01*
X0014125Y0021666D01*
X0014226Y0021419D01*
X0014333Y0021175D01*
X0014446Y0020933D01*
X0014565Y0020694D01*
X0014689Y0020459D01*
X0014820Y0020226D01*
X0014956Y0019996D01*
X0015098Y0019770D01*
X0015245Y0019548D01*
X0015397Y0019329D01*
X0015555Y0019114D01*
X0015718Y0018903D01*
X0015887Y0018696D01*
X0016060Y0018493D01*
X0016238Y0018294D01*
X0016421Y0018100D01*
X0016609Y0017910D01*
X0016801Y0017726D01*
X0016998Y0017545D01*
X0017199Y0017370D01*
X0017405Y0017200D01*
X0017614Y0017035D01*
X0017828Y0016875D01*
X0018045Y0016720D01*
X0018266Y0016571D01*
X0018491Y0016427D01*
X0018719Y0016289D01*
X0018951Y0016156D01*
X0019186Y0016029D01*
X0019423Y0015908D01*
X0019664Y0015793D01*
X0019907Y0015684D01*
X0020153Y0015581D01*
X0020402Y0015483D01*
X0020653Y0015392D01*
X0020906Y0015307D01*
X0021161Y0015229D01*
X0021417Y0015156D01*
X0021676Y0015090D01*
X0021936Y0015031D01*
X0022197Y0014977D01*
X0022460Y0014930D01*
X0022724Y0014890D01*
X0022988Y0014856D01*
X0023254Y0014829D01*
X0013411Y0178214D02*
X0013437Y0178428D01*
X0013468Y0178641D01*
X0013505Y0178853D01*
X0013547Y0179065D01*
X0013594Y0179275D01*
X0013646Y0179484D01*
X0013703Y0179692D01*
X0013765Y0179898D01*
X0013832Y0180103D01*
X0013903Y0180306D01*
X0013980Y0180507D01*
X0014062Y0180706D01*
X0014148Y0180904D01*
X0014239Y0181099D01*
X0014335Y0181292D01*
X0014436Y0181482D01*
X0014541Y0181670D01*
X0014650Y0181856D01*
X0014764Y0182038D01*
X0014883Y0182218D01*
X0015005Y0182395D01*
X0015132Y0182569D01*
X0015263Y0182740D01*
X0015399Y0182908D01*
X0015538Y0183072D01*
X0015681Y0183233D01*
X0015828Y0183391D01*
X0015979Y0183544D01*
X0016133Y0183695D01*
X0016291Y0183841D01*
X0016453Y0183984D01*
X0016617Y0184122D01*
X0016786Y0184257D01*
X0016957Y0184387D01*
X0017131Y0184513D01*
X0017309Y0184635D01*
X0017489Y0184753D01*
X0017673Y0184866D01*
X0017858Y0184975D01*
X0018047Y0185080D01*
X0018238Y0185179D01*
X0018431Y0185274D01*
X0018627Y0185365D01*
X0018824Y0185450D01*
X0019024Y0185531D01*
X0019225Y0185607D01*
X0019429Y0185678D01*
X0019634Y0185744D01*
X0019840Y0185806D01*
X0020048Y0185862D01*
X0020257Y0185913D01*
X0020468Y0185959D01*
X0020679Y0186000D01*
X0020892Y0186036D01*
X0021105Y0186067D01*
X0021319Y0186092D01*
X0021533Y0186113D01*
X0021748Y0186128D01*
X0021963Y0186138D01*
X0022178Y0186143D01*
X0022394Y0186142D01*
X0022609Y0186137D01*
X0022824Y0186126D01*
X0023039Y0186110D01*
X0023253Y0186088D01*
D11*
X0018293Y0077761D02*
X0018295Y0077925D01*
X0018301Y0078089D01*
X0018311Y0078253D01*
X0018325Y0078417D01*
X0018343Y0078580D01*
X0018365Y0078743D01*
X0018392Y0078905D01*
X0018422Y0079067D01*
X0018456Y0079227D01*
X0018494Y0079387D01*
X0018535Y0079546D01*
X0018581Y0079704D01*
X0018631Y0079860D01*
X0018684Y0080016D01*
X0018741Y0080170D01*
X0018802Y0080322D01*
X0018867Y0080473D01*
X0018936Y0080623D01*
X0019008Y0080770D01*
X0019083Y0080916D01*
X0019163Y0081060D01*
X0019245Y0081202D01*
X0019331Y0081342D01*
X0019421Y0081479D01*
X0019514Y0081615D01*
X0019610Y0081748D01*
X0019710Y0081879D01*
X0019812Y0082007D01*
X0019918Y0082133D01*
X0020027Y0082256D01*
X0020139Y0082376D01*
X0020253Y0082494D01*
X0020371Y0082608D01*
X0020491Y0082720D01*
X0020614Y0082829D01*
X0020740Y0082935D01*
X0020868Y0083037D01*
X0020999Y0083137D01*
X0021132Y0083233D01*
X0021268Y0083326D01*
X0021405Y0083416D01*
X0021545Y0083502D01*
X0021687Y0083584D01*
X0021831Y0083664D01*
X0021977Y0083739D01*
X0022124Y0083811D01*
X0022274Y0083880D01*
X0022425Y0083945D01*
X0022577Y0084006D01*
X0022731Y0084063D01*
X0022887Y0084116D01*
X0023043Y0084166D01*
X0023201Y0084212D01*
X0023360Y0084253D01*
X0023520Y0084291D01*
X0023680Y0084325D01*
X0023842Y0084355D01*
X0024004Y0084382D01*
X0024167Y0084404D01*
X0024330Y0084422D01*
X0024494Y0084436D01*
X0024658Y0084446D01*
X0024822Y0084452D01*
X0024986Y0084454D01*
X0025150Y0084452D01*
X0025314Y0084446D01*
X0025478Y0084436D01*
X0025642Y0084422D01*
X0025805Y0084404D01*
X0025968Y0084382D01*
X0026130Y0084355D01*
X0026292Y0084325D01*
X0026452Y0084291D01*
X0026612Y0084253D01*
X0026771Y0084212D01*
X0026929Y0084166D01*
X0027085Y0084116D01*
X0027241Y0084063D01*
X0027395Y0084006D01*
X0027547Y0083945D01*
X0027698Y0083880D01*
X0027848Y0083811D01*
X0027995Y0083739D01*
X0028141Y0083664D01*
X0028285Y0083584D01*
X0028427Y0083502D01*
X0028567Y0083416D01*
X0028704Y0083326D01*
X0028840Y0083233D01*
X0028973Y0083137D01*
X0029104Y0083037D01*
X0029232Y0082935D01*
X0029358Y0082829D01*
X0029481Y0082720D01*
X0029601Y0082608D01*
X0029719Y0082494D01*
X0029833Y0082376D01*
X0029945Y0082256D01*
X0030054Y0082133D01*
X0030160Y0082007D01*
X0030262Y0081879D01*
X0030362Y0081748D01*
X0030458Y0081615D01*
X0030551Y0081479D01*
X0030641Y0081342D01*
X0030727Y0081202D01*
X0030809Y0081060D01*
X0030889Y0080916D01*
X0030964Y0080770D01*
X0031036Y0080623D01*
X0031105Y0080473D01*
X0031170Y0080322D01*
X0031231Y0080170D01*
X0031288Y0080016D01*
X0031341Y0079860D01*
X0031391Y0079704D01*
X0031437Y0079546D01*
X0031478Y0079387D01*
X0031516Y0079227D01*
X0031550Y0079067D01*
X0031580Y0078905D01*
X0031607Y0078743D01*
X0031629Y0078580D01*
X0031647Y0078417D01*
X0031661Y0078253D01*
X0031671Y0078089D01*
X0031677Y0077925D01*
X0031679Y0077761D01*
X0031677Y0077597D01*
X0031671Y0077433D01*
X0031661Y0077269D01*
X0031647Y0077105D01*
X0031629Y0076942D01*
X0031607Y0076779D01*
X0031580Y0076617D01*
X0031550Y0076455D01*
X0031516Y0076295D01*
X0031478Y0076135D01*
X0031437Y0075976D01*
X0031391Y0075818D01*
X0031341Y0075662D01*
X0031288Y0075506D01*
X0031231Y0075352D01*
X0031170Y0075200D01*
X0031105Y0075049D01*
X0031036Y0074899D01*
X0030964Y0074752D01*
X0030889Y0074606D01*
X0030809Y0074462D01*
X0030727Y0074320D01*
X0030641Y0074180D01*
X0030551Y0074043D01*
X0030458Y0073907D01*
X0030362Y0073774D01*
X0030262Y0073643D01*
X0030160Y0073515D01*
X0030054Y0073389D01*
X0029945Y0073266D01*
X0029833Y0073146D01*
X0029719Y0073028D01*
X0029601Y0072914D01*
X0029481Y0072802D01*
X0029358Y0072693D01*
X0029232Y0072587D01*
X0029104Y0072485D01*
X0028973Y0072385D01*
X0028840Y0072289D01*
X0028704Y0072196D01*
X0028567Y0072106D01*
X0028427Y0072020D01*
X0028285Y0071938D01*
X0028141Y0071858D01*
X0027995Y0071783D01*
X0027848Y0071711D01*
X0027698Y0071642D01*
X0027547Y0071577D01*
X0027395Y0071516D01*
X0027241Y0071459D01*
X0027085Y0071406D01*
X0026929Y0071356D01*
X0026771Y0071310D01*
X0026612Y0071269D01*
X0026452Y0071231D01*
X0026292Y0071197D01*
X0026130Y0071167D01*
X0025968Y0071140D01*
X0025805Y0071118D01*
X0025642Y0071100D01*
X0025478Y0071086D01*
X0025314Y0071076D01*
X0025150Y0071070D01*
X0024986Y0071068D01*
X0024822Y0071070D01*
X0024658Y0071076D01*
X0024494Y0071086D01*
X0024330Y0071100D01*
X0024167Y0071118D01*
X0024004Y0071140D01*
X0023842Y0071167D01*
X0023680Y0071197D01*
X0023520Y0071231D01*
X0023360Y0071269D01*
X0023201Y0071310D01*
X0023043Y0071356D01*
X0022887Y0071406D01*
X0022731Y0071459D01*
X0022577Y0071516D01*
X0022425Y0071577D01*
X0022274Y0071642D01*
X0022124Y0071711D01*
X0021977Y0071783D01*
X0021831Y0071858D01*
X0021687Y0071938D01*
X0021545Y0072020D01*
X0021405Y0072106D01*
X0021268Y0072196D01*
X0021132Y0072289D01*
X0020999Y0072385D01*
X0020868Y0072485D01*
X0020740Y0072587D01*
X0020614Y0072693D01*
X0020491Y0072802D01*
X0020371Y0072914D01*
X0020253Y0073028D01*
X0020139Y0073146D01*
X0020027Y0073266D01*
X0019918Y0073389D01*
X0019812Y0073515D01*
X0019710Y0073643D01*
X0019610Y0073774D01*
X0019514Y0073907D01*
X0019421Y0074043D01*
X0019331Y0074180D01*
X0019245Y0074320D01*
X0019163Y0074462D01*
X0019083Y0074606D01*
X0019008Y0074752D01*
X0018936Y0074899D01*
X0018867Y0075049D01*
X0018802Y0075200D01*
X0018741Y0075352D01*
X0018684Y0075506D01*
X0018631Y0075662D01*
X0018581Y0075818D01*
X0018535Y0075976D01*
X0018494Y0076135D01*
X0018456Y0076295D01*
X0018422Y0076455D01*
X0018392Y0076617D01*
X0018365Y0076779D01*
X0018343Y0076942D01*
X0018325Y0077105D01*
X0018311Y0077269D01*
X0018301Y0077433D01*
X0018295Y0077597D01*
X0018293Y0077761D01*
X0103333Y0051521D02*
X0103335Y0051658D01*
X0103341Y0051796D01*
X0103351Y0051933D01*
X0103365Y0052069D01*
X0103383Y0052206D01*
X0103405Y0052341D01*
X0103431Y0052476D01*
X0103460Y0052610D01*
X0103494Y0052744D01*
X0103531Y0052876D01*
X0103573Y0053007D01*
X0103618Y0053137D01*
X0103667Y0053265D01*
X0103719Y0053392D01*
X0103776Y0053517D01*
X0103835Y0053641D01*
X0103899Y0053763D01*
X0103966Y0053883D01*
X0104036Y0054001D01*
X0104110Y0054117D01*
X0104187Y0054231D01*
X0104268Y0054342D01*
X0104351Y0054451D01*
X0104438Y0054558D01*
X0104528Y0054661D01*
X0104621Y0054763D01*
X0104717Y0054861D01*
X0104815Y0054957D01*
X0104917Y0055050D01*
X0105020Y0055140D01*
X0105127Y0055227D01*
X0105236Y0055310D01*
X0105347Y0055391D01*
X0105461Y0055468D01*
X0105577Y0055542D01*
X0105695Y0055612D01*
X0105815Y0055679D01*
X0105937Y0055743D01*
X0106061Y0055802D01*
X0106186Y0055859D01*
X0106313Y0055911D01*
X0106441Y0055960D01*
X0106571Y0056005D01*
X0106702Y0056047D01*
X0106834Y0056084D01*
X0106968Y0056118D01*
X0107102Y0056147D01*
X0107237Y0056173D01*
X0107372Y0056195D01*
X0107509Y0056213D01*
X0107645Y0056227D01*
X0107782Y0056237D01*
X0107920Y0056243D01*
X0108057Y0056245D01*
X0108194Y0056243D01*
X0108332Y0056237D01*
X0108469Y0056227D01*
X0108605Y0056213D01*
X0108742Y0056195D01*
X0108877Y0056173D01*
X0109012Y0056147D01*
X0109146Y0056118D01*
X0109280Y0056084D01*
X0109412Y0056047D01*
X0109543Y0056005D01*
X0109673Y0055960D01*
X0109801Y0055911D01*
X0109928Y0055859D01*
X0110053Y0055802D01*
X0110177Y0055743D01*
X0110299Y0055679D01*
X0110419Y0055612D01*
X0110537Y0055542D01*
X0110653Y0055468D01*
X0110767Y0055391D01*
X0110878Y0055310D01*
X0110987Y0055227D01*
X0111094Y0055140D01*
X0111197Y0055050D01*
X0111299Y0054957D01*
X0111397Y0054861D01*
X0111493Y0054763D01*
X0111586Y0054661D01*
X0111676Y0054558D01*
X0111763Y0054451D01*
X0111846Y0054342D01*
X0111927Y0054231D01*
X0112004Y0054117D01*
X0112078Y0054001D01*
X0112148Y0053883D01*
X0112215Y0053763D01*
X0112279Y0053641D01*
X0112338Y0053517D01*
X0112395Y0053392D01*
X0112447Y0053265D01*
X0112496Y0053137D01*
X0112541Y0053007D01*
X0112583Y0052876D01*
X0112620Y0052744D01*
X0112654Y0052610D01*
X0112683Y0052476D01*
X0112709Y0052341D01*
X0112731Y0052206D01*
X0112749Y0052069D01*
X0112763Y0051933D01*
X0112773Y0051796D01*
X0112779Y0051658D01*
X0112781Y0051521D01*
X0112779Y0051384D01*
X0112773Y0051246D01*
X0112763Y0051109D01*
X0112749Y0050973D01*
X0112731Y0050836D01*
X0112709Y0050701D01*
X0112683Y0050566D01*
X0112654Y0050432D01*
X0112620Y0050298D01*
X0112583Y0050166D01*
X0112541Y0050035D01*
X0112496Y0049905D01*
X0112447Y0049777D01*
X0112395Y0049650D01*
X0112338Y0049525D01*
X0112279Y0049401D01*
X0112215Y0049279D01*
X0112148Y0049159D01*
X0112078Y0049041D01*
X0112004Y0048925D01*
X0111927Y0048811D01*
X0111846Y0048700D01*
X0111763Y0048591D01*
X0111676Y0048484D01*
X0111586Y0048381D01*
X0111493Y0048279D01*
X0111397Y0048181D01*
X0111299Y0048085D01*
X0111197Y0047992D01*
X0111094Y0047902D01*
X0110987Y0047815D01*
X0110878Y0047732D01*
X0110767Y0047651D01*
X0110653Y0047574D01*
X0110537Y0047500D01*
X0110419Y0047430D01*
X0110299Y0047363D01*
X0110177Y0047299D01*
X0110053Y0047240D01*
X0109928Y0047183D01*
X0109801Y0047131D01*
X0109673Y0047082D01*
X0109543Y0047037D01*
X0109412Y0046995D01*
X0109280Y0046958D01*
X0109146Y0046924D01*
X0109012Y0046895D01*
X0108877Y0046869D01*
X0108742Y0046847D01*
X0108605Y0046829D01*
X0108469Y0046815D01*
X0108332Y0046805D01*
X0108194Y0046799D01*
X0108057Y0046797D01*
X0107920Y0046799D01*
X0107782Y0046805D01*
X0107645Y0046815D01*
X0107509Y0046829D01*
X0107372Y0046847D01*
X0107237Y0046869D01*
X0107102Y0046895D01*
X0106968Y0046924D01*
X0106834Y0046958D01*
X0106702Y0046995D01*
X0106571Y0047037D01*
X0106441Y0047082D01*
X0106313Y0047131D01*
X0106186Y0047183D01*
X0106061Y0047240D01*
X0105937Y0047299D01*
X0105815Y0047363D01*
X0105695Y0047430D01*
X0105577Y0047500D01*
X0105461Y0047574D01*
X0105347Y0047651D01*
X0105236Y0047732D01*
X0105127Y0047815D01*
X0105020Y0047902D01*
X0104917Y0047992D01*
X0104815Y0048085D01*
X0104717Y0048181D01*
X0104621Y0048279D01*
X0104528Y0048381D01*
X0104438Y0048484D01*
X0104351Y0048591D01*
X0104268Y0048700D01*
X0104187Y0048811D01*
X0104110Y0048925D01*
X0104036Y0049041D01*
X0103966Y0049159D01*
X0103899Y0049279D01*
X0103835Y0049401D01*
X0103776Y0049525D01*
X0103719Y0049650D01*
X0103667Y0049777D01*
X0103618Y0049905D01*
X0103573Y0050035D01*
X0103531Y0050166D01*
X0103494Y0050298D01*
X0103460Y0050432D01*
X0103431Y0050566D01*
X0103405Y0050701D01*
X0103383Y0050836D01*
X0103365Y0050973D01*
X0103351Y0051109D01*
X0103341Y0051246D01*
X0103335Y0051384D01*
X0103333Y0051521D01*
X0118923Y0051521D02*
X0118925Y0051658D01*
X0118931Y0051796D01*
X0118941Y0051933D01*
X0118955Y0052069D01*
X0118973Y0052206D01*
X0118995Y0052341D01*
X0119021Y0052476D01*
X0119050Y0052610D01*
X0119084Y0052744D01*
X0119121Y0052876D01*
X0119163Y0053007D01*
X0119208Y0053137D01*
X0119257Y0053265D01*
X0119309Y0053392D01*
X0119366Y0053517D01*
X0119425Y0053641D01*
X0119489Y0053763D01*
X0119556Y0053883D01*
X0119626Y0054001D01*
X0119700Y0054117D01*
X0119777Y0054231D01*
X0119858Y0054342D01*
X0119941Y0054451D01*
X0120028Y0054558D01*
X0120118Y0054661D01*
X0120211Y0054763D01*
X0120307Y0054861D01*
X0120405Y0054957D01*
X0120507Y0055050D01*
X0120610Y0055140D01*
X0120717Y0055227D01*
X0120826Y0055310D01*
X0120937Y0055391D01*
X0121051Y0055468D01*
X0121167Y0055542D01*
X0121285Y0055612D01*
X0121405Y0055679D01*
X0121527Y0055743D01*
X0121651Y0055802D01*
X0121776Y0055859D01*
X0121903Y0055911D01*
X0122031Y0055960D01*
X0122161Y0056005D01*
X0122292Y0056047D01*
X0122424Y0056084D01*
X0122558Y0056118D01*
X0122692Y0056147D01*
X0122827Y0056173D01*
X0122962Y0056195D01*
X0123099Y0056213D01*
X0123235Y0056227D01*
X0123372Y0056237D01*
X0123510Y0056243D01*
X0123647Y0056245D01*
X0123784Y0056243D01*
X0123922Y0056237D01*
X0124059Y0056227D01*
X0124195Y0056213D01*
X0124332Y0056195D01*
X0124467Y0056173D01*
X0124602Y0056147D01*
X0124736Y0056118D01*
X0124870Y0056084D01*
X0125002Y0056047D01*
X0125133Y0056005D01*
X0125263Y0055960D01*
X0125391Y0055911D01*
X0125518Y0055859D01*
X0125643Y0055802D01*
X0125767Y0055743D01*
X0125889Y0055679D01*
X0126009Y0055612D01*
X0126127Y0055542D01*
X0126243Y0055468D01*
X0126357Y0055391D01*
X0126468Y0055310D01*
X0126577Y0055227D01*
X0126684Y0055140D01*
X0126787Y0055050D01*
X0126889Y0054957D01*
X0126987Y0054861D01*
X0127083Y0054763D01*
X0127176Y0054661D01*
X0127266Y0054558D01*
X0127353Y0054451D01*
X0127436Y0054342D01*
X0127517Y0054231D01*
X0127594Y0054117D01*
X0127668Y0054001D01*
X0127738Y0053883D01*
X0127805Y0053763D01*
X0127869Y0053641D01*
X0127928Y0053517D01*
X0127985Y0053392D01*
X0128037Y0053265D01*
X0128086Y0053137D01*
X0128131Y0053007D01*
X0128173Y0052876D01*
X0128210Y0052744D01*
X0128244Y0052610D01*
X0128273Y0052476D01*
X0128299Y0052341D01*
X0128321Y0052206D01*
X0128339Y0052069D01*
X0128353Y0051933D01*
X0128363Y0051796D01*
X0128369Y0051658D01*
X0128371Y0051521D01*
X0128369Y0051384D01*
X0128363Y0051246D01*
X0128353Y0051109D01*
X0128339Y0050973D01*
X0128321Y0050836D01*
X0128299Y0050701D01*
X0128273Y0050566D01*
X0128244Y0050432D01*
X0128210Y0050298D01*
X0128173Y0050166D01*
X0128131Y0050035D01*
X0128086Y0049905D01*
X0128037Y0049777D01*
X0127985Y0049650D01*
X0127928Y0049525D01*
X0127869Y0049401D01*
X0127805Y0049279D01*
X0127738Y0049159D01*
X0127668Y0049041D01*
X0127594Y0048925D01*
X0127517Y0048811D01*
X0127436Y0048700D01*
X0127353Y0048591D01*
X0127266Y0048484D01*
X0127176Y0048381D01*
X0127083Y0048279D01*
X0126987Y0048181D01*
X0126889Y0048085D01*
X0126787Y0047992D01*
X0126684Y0047902D01*
X0126577Y0047815D01*
X0126468Y0047732D01*
X0126357Y0047651D01*
X0126243Y0047574D01*
X0126127Y0047500D01*
X0126009Y0047430D01*
X0125889Y0047363D01*
X0125767Y0047299D01*
X0125643Y0047240D01*
X0125518Y0047183D01*
X0125391Y0047131D01*
X0125263Y0047082D01*
X0125133Y0047037D01*
X0125002Y0046995D01*
X0124870Y0046958D01*
X0124736Y0046924D01*
X0124602Y0046895D01*
X0124467Y0046869D01*
X0124332Y0046847D01*
X0124195Y0046829D01*
X0124059Y0046815D01*
X0123922Y0046805D01*
X0123784Y0046799D01*
X0123647Y0046797D01*
X0123510Y0046799D01*
X0123372Y0046805D01*
X0123235Y0046815D01*
X0123099Y0046829D01*
X0122962Y0046847D01*
X0122827Y0046869D01*
X0122692Y0046895D01*
X0122558Y0046924D01*
X0122424Y0046958D01*
X0122292Y0046995D01*
X0122161Y0047037D01*
X0122031Y0047082D01*
X0121903Y0047131D01*
X0121776Y0047183D01*
X0121651Y0047240D01*
X0121527Y0047299D01*
X0121405Y0047363D01*
X0121285Y0047430D01*
X0121167Y0047500D01*
X0121051Y0047574D01*
X0120937Y0047651D01*
X0120826Y0047732D01*
X0120717Y0047815D01*
X0120610Y0047902D01*
X0120507Y0047992D01*
X0120405Y0048085D01*
X0120307Y0048181D01*
X0120211Y0048279D01*
X0120118Y0048381D01*
X0120028Y0048484D01*
X0119941Y0048591D01*
X0119858Y0048700D01*
X0119777Y0048811D01*
X0119700Y0048925D01*
X0119626Y0049041D01*
X0119556Y0049159D01*
X0119489Y0049279D01*
X0119425Y0049401D01*
X0119366Y0049525D01*
X0119309Y0049650D01*
X0119257Y0049777D01*
X0119208Y0049905D01*
X0119163Y0050035D01*
X0119121Y0050166D01*
X0119084Y0050298D01*
X0119050Y0050432D01*
X0119021Y0050566D01*
X0118995Y0050701D01*
X0118973Y0050836D01*
X0118955Y0050973D01*
X0118941Y0051109D01*
X0118931Y0051246D01*
X0118925Y0051384D01*
X0118923Y0051521D01*
X0134514Y0051521D02*
X0134516Y0051658D01*
X0134522Y0051796D01*
X0134532Y0051933D01*
X0134546Y0052069D01*
X0134564Y0052206D01*
X0134586Y0052341D01*
X0134612Y0052476D01*
X0134641Y0052610D01*
X0134675Y0052744D01*
X0134712Y0052876D01*
X0134754Y0053007D01*
X0134799Y0053137D01*
X0134848Y0053265D01*
X0134900Y0053392D01*
X0134957Y0053517D01*
X0135016Y0053641D01*
X0135080Y0053763D01*
X0135147Y0053883D01*
X0135217Y0054001D01*
X0135291Y0054117D01*
X0135368Y0054231D01*
X0135449Y0054342D01*
X0135532Y0054451D01*
X0135619Y0054558D01*
X0135709Y0054661D01*
X0135802Y0054763D01*
X0135898Y0054861D01*
X0135996Y0054957D01*
X0136098Y0055050D01*
X0136201Y0055140D01*
X0136308Y0055227D01*
X0136417Y0055310D01*
X0136528Y0055391D01*
X0136642Y0055468D01*
X0136758Y0055542D01*
X0136876Y0055612D01*
X0136996Y0055679D01*
X0137118Y0055743D01*
X0137242Y0055802D01*
X0137367Y0055859D01*
X0137494Y0055911D01*
X0137622Y0055960D01*
X0137752Y0056005D01*
X0137883Y0056047D01*
X0138015Y0056084D01*
X0138149Y0056118D01*
X0138283Y0056147D01*
X0138418Y0056173D01*
X0138553Y0056195D01*
X0138690Y0056213D01*
X0138826Y0056227D01*
X0138963Y0056237D01*
X0139101Y0056243D01*
X0139238Y0056245D01*
X0139375Y0056243D01*
X0139513Y0056237D01*
X0139650Y0056227D01*
X0139786Y0056213D01*
X0139923Y0056195D01*
X0140058Y0056173D01*
X0140193Y0056147D01*
X0140327Y0056118D01*
X0140461Y0056084D01*
X0140593Y0056047D01*
X0140724Y0056005D01*
X0140854Y0055960D01*
X0140982Y0055911D01*
X0141109Y0055859D01*
X0141234Y0055802D01*
X0141358Y0055743D01*
X0141480Y0055679D01*
X0141600Y0055612D01*
X0141718Y0055542D01*
X0141834Y0055468D01*
X0141948Y0055391D01*
X0142059Y0055310D01*
X0142168Y0055227D01*
X0142275Y0055140D01*
X0142378Y0055050D01*
X0142480Y0054957D01*
X0142578Y0054861D01*
X0142674Y0054763D01*
X0142767Y0054661D01*
X0142857Y0054558D01*
X0142944Y0054451D01*
X0143027Y0054342D01*
X0143108Y0054231D01*
X0143185Y0054117D01*
X0143259Y0054001D01*
X0143329Y0053883D01*
X0143396Y0053763D01*
X0143460Y0053641D01*
X0143519Y0053517D01*
X0143576Y0053392D01*
X0143628Y0053265D01*
X0143677Y0053137D01*
X0143722Y0053007D01*
X0143764Y0052876D01*
X0143801Y0052744D01*
X0143835Y0052610D01*
X0143864Y0052476D01*
X0143890Y0052341D01*
X0143912Y0052206D01*
X0143930Y0052069D01*
X0143944Y0051933D01*
X0143954Y0051796D01*
X0143960Y0051658D01*
X0143962Y0051521D01*
X0143960Y0051384D01*
X0143954Y0051246D01*
X0143944Y0051109D01*
X0143930Y0050973D01*
X0143912Y0050836D01*
X0143890Y0050701D01*
X0143864Y0050566D01*
X0143835Y0050432D01*
X0143801Y0050298D01*
X0143764Y0050166D01*
X0143722Y0050035D01*
X0143677Y0049905D01*
X0143628Y0049777D01*
X0143576Y0049650D01*
X0143519Y0049525D01*
X0143460Y0049401D01*
X0143396Y0049279D01*
X0143329Y0049159D01*
X0143259Y0049041D01*
X0143185Y0048925D01*
X0143108Y0048811D01*
X0143027Y0048700D01*
X0142944Y0048591D01*
X0142857Y0048484D01*
X0142767Y0048381D01*
X0142674Y0048279D01*
X0142578Y0048181D01*
X0142480Y0048085D01*
X0142378Y0047992D01*
X0142275Y0047902D01*
X0142168Y0047815D01*
X0142059Y0047732D01*
X0141948Y0047651D01*
X0141834Y0047574D01*
X0141718Y0047500D01*
X0141600Y0047430D01*
X0141480Y0047363D01*
X0141358Y0047299D01*
X0141234Y0047240D01*
X0141109Y0047183D01*
X0140982Y0047131D01*
X0140854Y0047082D01*
X0140724Y0047037D01*
X0140593Y0046995D01*
X0140461Y0046958D01*
X0140327Y0046924D01*
X0140193Y0046895D01*
X0140058Y0046869D01*
X0139923Y0046847D01*
X0139786Y0046829D01*
X0139650Y0046815D01*
X0139513Y0046805D01*
X0139375Y0046799D01*
X0139238Y0046797D01*
X0139101Y0046799D01*
X0138963Y0046805D01*
X0138826Y0046815D01*
X0138690Y0046829D01*
X0138553Y0046847D01*
X0138418Y0046869D01*
X0138283Y0046895D01*
X0138149Y0046924D01*
X0138015Y0046958D01*
X0137883Y0046995D01*
X0137752Y0047037D01*
X0137622Y0047082D01*
X0137494Y0047131D01*
X0137367Y0047183D01*
X0137242Y0047240D01*
X0137118Y0047299D01*
X0136996Y0047363D01*
X0136876Y0047430D01*
X0136758Y0047500D01*
X0136642Y0047574D01*
X0136528Y0047651D01*
X0136417Y0047732D01*
X0136308Y0047815D01*
X0136201Y0047902D01*
X0136098Y0047992D01*
X0135996Y0048085D01*
X0135898Y0048181D01*
X0135802Y0048279D01*
X0135709Y0048381D01*
X0135619Y0048484D01*
X0135532Y0048591D01*
X0135449Y0048700D01*
X0135368Y0048811D01*
X0135291Y0048925D01*
X0135217Y0049041D01*
X0135147Y0049159D01*
X0135080Y0049279D01*
X0135016Y0049401D01*
X0134957Y0049525D01*
X0134900Y0049650D01*
X0134848Y0049777D01*
X0134799Y0049905D01*
X0134754Y0050035D01*
X0134712Y0050166D01*
X0134675Y0050298D01*
X0134641Y0050432D01*
X0134612Y0050566D01*
X0134586Y0050701D01*
X0134564Y0050836D01*
X0134546Y0050973D01*
X0134532Y0051109D01*
X0134522Y0051246D01*
X0134516Y0051384D01*
X0134514Y0051521D01*
X0150104Y0051521D02*
X0150106Y0051658D01*
X0150112Y0051796D01*
X0150122Y0051933D01*
X0150136Y0052069D01*
X0150154Y0052206D01*
X0150176Y0052341D01*
X0150202Y0052476D01*
X0150231Y0052610D01*
X0150265Y0052744D01*
X0150302Y0052876D01*
X0150344Y0053007D01*
X0150389Y0053137D01*
X0150438Y0053265D01*
X0150490Y0053392D01*
X0150547Y0053517D01*
X0150606Y0053641D01*
X0150670Y0053763D01*
X0150737Y0053883D01*
X0150807Y0054001D01*
X0150881Y0054117D01*
X0150958Y0054231D01*
X0151039Y0054342D01*
X0151122Y0054451D01*
X0151209Y0054558D01*
X0151299Y0054661D01*
X0151392Y0054763D01*
X0151488Y0054861D01*
X0151586Y0054957D01*
X0151688Y0055050D01*
X0151791Y0055140D01*
X0151898Y0055227D01*
X0152007Y0055310D01*
X0152118Y0055391D01*
X0152232Y0055468D01*
X0152348Y0055542D01*
X0152466Y0055612D01*
X0152586Y0055679D01*
X0152708Y0055743D01*
X0152832Y0055802D01*
X0152957Y0055859D01*
X0153084Y0055911D01*
X0153212Y0055960D01*
X0153342Y0056005D01*
X0153473Y0056047D01*
X0153605Y0056084D01*
X0153739Y0056118D01*
X0153873Y0056147D01*
X0154008Y0056173D01*
X0154143Y0056195D01*
X0154280Y0056213D01*
X0154416Y0056227D01*
X0154553Y0056237D01*
X0154691Y0056243D01*
X0154828Y0056245D01*
X0154965Y0056243D01*
X0155103Y0056237D01*
X0155240Y0056227D01*
X0155376Y0056213D01*
X0155513Y0056195D01*
X0155648Y0056173D01*
X0155783Y0056147D01*
X0155917Y0056118D01*
X0156051Y0056084D01*
X0156183Y0056047D01*
X0156314Y0056005D01*
X0156444Y0055960D01*
X0156572Y0055911D01*
X0156699Y0055859D01*
X0156824Y0055802D01*
X0156948Y0055743D01*
X0157070Y0055679D01*
X0157190Y0055612D01*
X0157308Y0055542D01*
X0157424Y0055468D01*
X0157538Y0055391D01*
X0157649Y0055310D01*
X0157758Y0055227D01*
X0157865Y0055140D01*
X0157968Y0055050D01*
X0158070Y0054957D01*
X0158168Y0054861D01*
X0158264Y0054763D01*
X0158357Y0054661D01*
X0158447Y0054558D01*
X0158534Y0054451D01*
X0158617Y0054342D01*
X0158698Y0054231D01*
X0158775Y0054117D01*
X0158849Y0054001D01*
X0158919Y0053883D01*
X0158986Y0053763D01*
X0159050Y0053641D01*
X0159109Y0053517D01*
X0159166Y0053392D01*
X0159218Y0053265D01*
X0159267Y0053137D01*
X0159312Y0053007D01*
X0159354Y0052876D01*
X0159391Y0052744D01*
X0159425Y0052610D01*
X0159454Y0052476D01*
X0159480Y0052341D01*
X0159502Y0052206D01*
X0159520Y0052069D01*
X0159534Y0051933D01*
X0159544Y0051796D01*
X0159550Y0051658D01*
X0159552Y0051521D01*
X0159550Y0051384D01*
X0159544Y0051246D01*
X0159534Y0051109D01*
X0159520Y0050973D01*
X0159502Y0050836D01*
X0159480Y0050701D01*
X0159454Y0050566D01*
X0159425Y0050432D01*
X0159391Y0050298D01*
X0159354Y0050166D01*
X0159312Y0050035D01*
X0159267Y0049905D01*
X0159218Y0049777D01*
X0159166Y0049650D01*
X0159109Y0049525D01*
X0159050Y0049401D01*
X0158986Y0049279D01*
X0158919Y0049159D01*
X0158849Y0049041D01*
X0158775Y0048925D01*
X0158698Y0048811D01*
X0158617Y0048700D01*
X0158534Y0048591D01*
X0158447Y0048484D01*
X0158357Y0048381D01*
X0158264Y0048279D01*
X0158168Y0048181D01*
X0158070Y0048085D01*
X0157968Y0047992D01*
X0157865Y0047902D01*
X0157758Y0047815D01*
X0157649Y0047732D01*
X0157538Y0047651D01*
X0157424Y0047574D01*
X0157308Y0047500D01*
X0157190Y0047430D01*
X0157070Y0047363D01*
X0156948Y0047299D01*
X0156824Y0047240D01*
X0156699Y0047183D01*
X0156572Y0047131D01*
X0156444Y0047082D01*
X0156314Y0047037D01*
X0156183Y0046995D01*
X0156051Y0046958D01*
X0155917Y0046924D01*
X0155783Y0046895D01*
X0155648Y0046869D01*
X0155513Y0046847D01*
X0155376Y0046829D01*
X0155240Y0046815D01*
X0155103Y0046805D01*
X0154965Y0046799D01*
X0154828Y0046797D01*
X0154691Y0046799D01*
X0154553Y0046805D01*
X0154416Y0046815D01*
X0154280Y0046829D01*
X0154143Y0046847D01*
X0154008Y0046869D01*
X0153873Y0046895D01*
X0153739Y0046924D01*
X0153605Y0046958D01*
X0153473Y0046995D01*
X0153342Y0047037D01*
X0153212Y0047082D01*
X0153084Y0047131D01*
X0152957Y0047183D01*
X0152832Y0047240D01*
X0152708Y0047299D01*
X0152586Y0047363D01*
X0152466Y0047430D01*
X0152348Y0047500D01*
X0152232Y0047574D01*
X0152118Y0047651D01*
X0152007Y0047732D01*
X0151898Y0047815D01*
X0151791Y0047902D01*
X0151688Y0047992D01*
X0151586Y0048085D01*
X0151488Y0048181D01*
X0151392Y0048279D01*
X0151299Y0048381D01*
X0151209Y0048484D01*
X0151122Y0048591D01*
X0151039Y0048700D01*
X0150958Y0048811D01*
X0150881Y0048925D01*
X0150807Y0049041D01*
X0150737Y0049159D01*
X0150670Y0049279D01*
X0150606Y0049401D01*
X0150547Y0049525D01*
X0150490Y0049650D01*
X0150438Y0049777D01*
X0150389Y0049905D01*
X0150344Y0050035D01*
X0150302Y0050166D01*
X0150265Y0050298D01*
X0150231Y0050432D01*
X0150202Y0050566D01*
X0150176Y0050701D01*
X0150154Y0050836D01*
X0150136Y0050973D01*
X0150122Y0051109D01*
X0150112Y0051246D01*
X0150106Y0051384D01*
X0150104Y0051521D01*
X0165695Y0051521D02*
X0165697Y0051658D01*
X0165703Y0051796D01*
X0165713Y0051933D01*
X0165727Y0052069D01*
X0165745Y0052206D01*
X0165767Y0052341D01*
X0165793Y0052476D01*
X0165822Y0052610D01*
X0165856Y0052744D01*
X0165893Y0052876D01*
X0165935Y0053007D01*
X0165980Y0053137D01*
X0166029Y0053265D01*
X0166081Y0053392D01*
X0166138Y0053517D01*
X0166197Y0053641D01*
X0166261Y0053763D01*
X0166328Y0053883D01*
X0166398Y0054001D01*
X0166472Y0054117D01*
X0166549Y0054231D01*
X0166630Y0054342D01*
X0166713Y0054451D01*
X0166800Y0054558D01*
X0166890Y0054661D01*
X0166983Y0054763D01*
X0167079Y0054861D01*
X0167177Y0054957D01*
X0167279Y0055050D01*
X0167382Y0055140D01*
X0167489Y0055227D01*
X0167598Y0055310D01*
X0167709Y0055391D01*
X0167823Y0055468D01*
X0167939Y0055542D01*
X0168057Y0055612D01*
X0168177Y0055679D01*
X0168299Y0055743D01*
X0168423Y0055802D01*
X0168548Y0055859D01*
X0168675Y0055911D01*
X0168803Y0055960D01*
X0168933Y0056005D01*
X0169064Y0056047D01*
X0169196Y0056084D01*
X0169330Y0056118D01*
X0169464Y0056147D01*
X0169599Y0056173D01*
X0169734Y0056195D01*
X0169871Y0056213D01*
X0170007Y0056227D01*
X0170144Y0056237D01*
X0170282Y0056243D01*
X0170419Y0056245D01*
X0170556Y0056243D01*
X0170694Y0056237D01*
X0170831Y0056227D01*
X0170967Y0056213D01*
X0171104Y0056195D01*
X0171239Y0056173D01*
X0171374Y0056147D01*
X0171508Y0056118D01*
X0171642Y0056084D01*
X0171774Y0056047D01*
X0171905Y0056005D01*
X0172035Y0055960D01*
X0172163Y0055911D01*
X0172290Y0055859D01*
X0172415Y0055802D01*
X0172539Y0055743D01*
X0172661Y0055679D01*
X0172781Y0055612D01*
X0172899Y0055542D01*
X0173015Y0055468D01*
X0173129Y0055391D01*
X0173240Y0055310D01*
X0173349Y0055227D01*
X0173456Y0055140D01*
X0173559Y0055050D01*
X0173661Y0054957D01*
X0173759Y0054861D01*
X0173855Y0054763D01*
X0173948Y0054661D01*
X0174038Y0054558D01*
X0174125Y0054451D01*
X0174208Y0054342D01*
X0174289Y0054231D01*
X0174366Y0054117D01*
X0174440Y0054001D01*
X0174510Y0053883D01*
X0174577Y0053763D01*
X0174641Y0053641D01*
X0174700Y0053517D01*
X0174757Y0053392D01*
X0174809Y0053265D01*
X0174858Y0053137D01*
X0174903Y0053007D01*
X0174945Y0052876D01*
X0174982Y0052744D01*
X0175016Y0052610D01*
X0175045Y0052476D01*
X0175071Y0052341D01*
X0175093Y0052206D01*
X0175111Y0052069D01*
X0175125Y0051933D01*
X0175135Y0051796D01*
X0175141Y0051658D01*
X0175143Y0051521D01*
X0175141Y0051384D01*
X0175135Y0051246D01*
X0175125Y0051109D01*
X0175111Y0050973D01*
X0175093Y0050836D01*
X0175071Y0050701D01*
X0175045Y0050566D01*
X0175016Y0050432D01*
X0174982Y0050298D01*
X0174945Y0050166D01*
X0174903Y0050035D01*
X0174858Y0049905D01*
X0174809Y0049777D01*
X0174757Y0049650D01*
X0174700Y0049525D01*
X0174641Y0049401D01*
X0174577Y0049279D01*
X0174510Y0049159D01*
X0174440Y0049041D01*
X0174366Y0048925D01*
X0174289Y0048811D01*
X0174208Y0048700D01*
X0174125Y0048591D01*
X0174038Y0048484D01*
X0173948Y0048381D01*
X0173855Y0048279D01*
X0173759Y0048181D01*
X0173661Y0048085D01*
X0173559Y0047992D01*
X0173456Y0047902D01*
X0173349Y0047815D01*
X0173240Y0047732D01*
X0173129Y0047651D01*
X0173015Y0047574D01*
X0172899Y0047500D01*
X0172781Y0047430D01*
X0172661Y0047363D01*
X0172539Y0047299D01*
X0172415Y0047240D01*
X0172290Y0047183D01*
X0172163Y0047131D01*
X0172035Y0047082D01*
X0171905Y0047037D01*
X0171774Y0046995D01*
X0171642Y0046958D01*
X0171508Y0046924D01*
X0171374Y0046895D01*
X0171239Y0046869D01*
X0171104Y0046847D01*
X0170967Y0046829D01*
X0170831Y0046815D01*
X0170694Y0046805D01*
X0170556Y0046799D01*
X0170419Y0046797D01*
X0170282Y0046799D01*
X0170144Y0046805D01*
X0170007Y0046815D01*
X0169871Y0046829D01*
X0169734Y0046847D01*
X0169599Y0046869D01*
X0169464Y0046895D01*
X0169330Y0046924D01*
X0169196Y0046958D01*
X0169064Y0046995D01*
X0168933Y0047037D01*
X0168803Y0047082D01*
X0168675Y0047131D01*
X0168548Y0047183D01*
X0168423Y0047240D01*
X0168299Y0047299D01*
X0168177Y0047363D01*
X0168057Y0047430D01*
X0167939Y0047500D01*
X0167823Y0047574D01*
X0167709Y0047651D01*
X0167598Y0047732D01*
X0167489Y0047815D01*
X0167382Y0047902D01*
X0167279Y0047992D01*
X0167177Y0048085D01*
X0167079Y0048181D01*
X0166983Y0048279D01*
X0166890Y0048381D01*
X0166800Y0048484D01*
X0166713Y0048591D01*
X0166630Y0048700D01*
X0166549Y0048811D01*
X0166472Y0048925D01*
X0166398Y0049041D01*
X0166328Y0049159D01*
X0166261Y0049279D01*
X0166197Y0049401D01*
X0166138Y0049525D01*
X0166081Y0049650D01*
X0166029Y0049777D01*
X0165980Y0049905D01*
X0165935Y0050035D01*
X0165893Y0050166D01*
X0165856Y0050298D01*
X0165822Y0050432D01*
X0165793Y0050566D01*
X0165767Y0050701D01*
X0165745Y0050836D01*
X0165727Y0050973D01*
X0165713Y0051109D01*
X0165703Y0051246D01*
X0165697Y0051384D01*
X0165695Y0051521D01*
X0181285Y0051521D02*
X0181287Y0051658D01*
X0181293Y0051796D01*
X0181303Y0051933D01*
X0181317Y0052069D01*
X0181335Y0052206D01*
X0181357Y0052341D01*
X0181383Y0052476D01*
X0181412Y0052610D01*
X0181446Y0052744D01*
X0181483Y0052876D01*
X0181525Y0053007D01*
X0181570Y0053137D01*
X0181619Y0053265D01*
X0181671Y0053392D01*
X0181728Y0053517D01*
X0181787Y0053641D01*
X0181851Y0053763D01*
X0181918Y0053883D01*
X0181988Y0054001D01*
X0182062Y0054117D01*
X0182139Y0054231D01*
X0182220Y0054342D01*
X0182303Y0054451D01*
X0182390Y0054558D01*
X0182480Y0054661D01*
X0182573Y0054763D01*
X0182669Y0054861D01*
X0182767Y0054957D01*
X0182869Y0055050D01*
X0182972Y0055140D01*
X0183079Y0055227D01*
X0183188Y0055310D01*
X0183299Y0055391D01*
X0183413Y0055468D01*
X0183529Y0055542D01*
X0183647Y0055612D01*
X0183767Y0055679D01*
X0183889Y0055743D01*
X0184013Y0055802D01*
X0184138Y0055859D01*
X0184265Y0055911D01*
X0184393Y0055960D01*
X0184523Y0056005D01*
X0184654Y0056047D01*
X0184786Y0056084D01*
X0184920Y0056118D01*
X0185054Y0056147D01*
X0185189Y0056173D01*
X0185324Y0056195D01*
X0185461Y0056213D01*
X0185597Y0056227D01*
X0185734Y0056237D01*
X0185872Y0056243D01*
X0186009Y0056245D01*
X0186146Y0056243D01*
X0186284Y0056237D01*
X0186421Y0056227D01*
X0186557Y0056213D01*
X0186694Y0056195D01*
X0186829Y0056173D01*
X0186964Y0056147D01*
X0187098Y0056118D01*
X0187232Y0056084D01*
X0187364Y0056047D01*
X0187495Y0056005D01*
X0187625Y0055960D01*
X0187753Y0055911D01*
X0187880Y0055859D01*
X0188005Y0055802D01*
X0188129Y0055743D01*
X0188251Y0055679D01*
X0188371Y0055612D01*
X0188489Y0055542D01*
X0188605Y0055468D01*
X0188719Y0055391D01*
X0188830Y0055310D01*
X0188939Y0055227D01*
X0189046Y0055140D01*
X0189149Y0055050D01*
X0189251Y0054957D01*
X0189349Y0054861D01*
X0189445Y0054763D01*
X0189538Y0054661D01*
X0189628Y0054558D01*
X0189715Y0054451D01*
X0189798Y0054342D01*
X0189879Y0054231D01*
X0189956Y0054117D01*
X0190030Y0054001D01*
X0190100Y0053883D01*
X0190167Y0053763D01*
X0190231Y0053641D01*
X0190290Y0053517D01*
X0190347Y0053392D01*
X0190399Y0053265D01*
X0190448Y0053137D01*
X0190493Y0053007D01*
X0190535Y0052876D01*
X0190572Y0052744D01*
X0190606Y0052610D01*
X0190635Y0052476D01*
X0190661Y0052341D01*
X0190683Y0052206D01*
X0190701Y0052069D01*
X0190715Y0051933D01*
X0190725Y0051796D01*
X0190731Y0051658D01*
X0190733Y0051521D01*
X0190731Y0051384D01*
X0190725Y0051246D01*
X0190715Y0051109D01*
X0190701Y0050973D01*
X0190683Y0050836D01*
X0190661Y0050701D01*
X0190635Y0050566D01*
X0190606Y0050432D01*
X0190572Y0050298D01*
X0190535Y0050166D01*
X0190493Y0050035D01*
X0190448Y0049905D01*
X0190399Y0049777D01*
X0190347Y0049650D01*
X0190290Y0049525D01*
X0190231Y0049401D01*
X0190167Y0049279D01*
X0190100Y0049159D01*
X0190030Y0049041D01*
X0189956Y0048925D01*
X0189879Y0048811D01*
X0189798Y0048700D01*
X0189715Y0048591D01*
X0189628Y0048484D01*
X0189538Y0048381D01*
X0189445Y0048279D01*
X0189349Y0048181D01*
X0189251Y0048085D01*
X0189149Y0047992D01*
X0189046Y0047902D01*
X0188939Y0047815D01*
X0188830Y0047732D01*
X0188719Y0047651D01*
X0188605Y0047574D01*
X0188489Y0047500D01*
X0188371Y0047430D01*
X0188251Y0047363D01*
X0188129Y0047299D01*
X0188005Y0047240D01*
X0187880Y0047183D01*
X0187753Y0047131D01*
X0187625Y0047082D01*
X0187495Y0047037D01*
X0187364Y0046995D01*
X0187232Y0046958D01*
X0187098Y0046924D01*
X0186964Y0046895D01*
X0186829Y0046869D01*
X0186694Y0046847D01*
X0186557Y0046829D01*
X0186421Y0046815D01*
X0186284Y0046805D01*
X0186146Y0046799D01*
X0186009Y0046797D01*
X0185872Y0046799D01*
X0185734Y0046805D01*
X0185597Y0046815D01*
X0185461Y0046829D01*
X0185324Y0046847D01*
X0185189Y0046869D01*
X0185054Y0046895D01*
X0184920Y0046924D01*
X0184786Y0046958D01*
X0184654Y0046995D01*
X0184523Y0047037D01*
X0184393Y0047082D01*
X0184265Y0047131D01*
X0184138Y0047183D01*
X0184013Y0047240D01*
X0183889Y0047299D01*
X0183767Y0047363D01*
X0183647Y0047430D01*
X0183529Y0047500D01*
X0183413Y0047574D01*
X0183299Y0047651D01*
X0183188Y0047732D01*
X0183079Y0047815D01*
X0182972Y0047902D01*
X0182869Y0047992D01*
X0182767Y0048085D01*
X0182669Y0048181D01*
X0182573Y0048279D01*
X0182480Y0048381D01*
X0182390Y0048484D01*
X0182303Y0048591D01*
X0182220Y0048700D01*
X0182139Y0048811D01*
X0182062Y0048925D01*
X0181988Y0049041D01*
X0181918Y0049159D01*
X0181851Y0049279D01*
X0181787Y0049401D01*
X0181728Y0049525D01*
X0181671Y0049650D01*
X0181619Y0049777D01*
X0181570Y0049905D01*
X0181525Y0050035D01*
X0181483Y0050166D01*
X0181446Y0050298D01*
X0181412Y0050432D01*
X0181383Y0050566D01*
X0181357Y0050701D01*
X0181335Y0050836D01*
X0181317Y0050973D01*
X0181303Y0051109D01*
X0181293Y0051246D01*
X0181287Y0051384D01*
X0181285Y0051521D01*
D12*
X0185970Y0038332D03*
X0170380Y0038332D03*
X0154789Y0038332D03*
X0139238Y0038332D03*
X0123647Y0038332D03*
X0108057Y0038332D03*
D13*
X0188608Y0076757D03*
X0188608Y0086757D03*
X0188608Y0102348D03*
X0188608Y0112348D03*
X0188608Y0127939D03*
X0188608Y0137939D03*
X0188608Y0153529D03*
X0188608Y0163529D03*
D14*
X0100340Y0160261D03*
X0084750Y0160261D03*
X0061624Y0159801D03*
X0030443Y0159801D03*
D15*
X0058687Y0086876D03*
X0058687Y0083923D03*
X0061443Y0083923D03*
X0064198Y0083923D03*
X0064198Y0086876D03*
X0061443Y0086876D03*
X0061443Y0080970D03*
X0064198Y0080970D03*
X0058687Y0080970D03*
X0139789Y0127033D03*
X0142545Y0127033D03*
X0145301Y0127033D03*
X0145301Y0129986D03*
X0142545Y0129986D03*
X0139789Y0129986D03*
X0139789Y0132939D03*
X0142545Y0132939D03*
X0145301Y0132939D03*
D16*
X0162860Y0089474D03*
X0162860Y0083569D03*
X0162860Y0079631D03*
X0162860Y0073726D03*
X0162466Y0061718D03*
X0154986Y0063096D03*
X0146836Y0061797D03*
X0137387Y0065931D03*
X0146836Y0044080D03*
X0146757Y0035222D03*
X0144080Y0028765D03*
X0143332Y0020301D03*
X0129553Y0020301D03*
X0128490Y0028765D03*
X0115773Y0020301D03*
X0114868Y0028765D03*
X0101246Y0028765D03*
X0101994Y0020301D03*
X0088214Y0020301D03*
X0074435Y0020301D03*
X0060655Y0020301D03*
X0046876Y0020301D03*
X0033096Y0020301D03*
X0019513Y0022860D03*
X0019513Y0036639D03*
X0019513Y0050419D03*
X0019513Y0064198D03*
X0019513Y0091757D03*
X0019513Y0105537D03*
X0019513Y0119317D03*
X0019513Y0133096D03*
X0019513Y0146876D03*
X0019513Y0160655D03*
X0019513Y0170498D03*
X0019513Y0180340D03*
X0033293Y0180340D03*
X0047072Y0180340D03*
X0060852Y0180340D03*
X0074631Y0180340D03*
X0088411Y0180340D03*
X0102191Y0180340D03*
X0115970Y0180340D03*
X0129750Y0180340D03*
X0143529Y0180340D03*
X0157309Y0180340D03*
X0171088Y0180340D03*
X0184868Y0180340D03*
X0195301Y0180340D03*
X0198057Y0172860D03*
X0198057Y0164592D03*
X0198057Y0150813D03*
X0198057Y0137033D03*
X0198057Y0123254D03*
X0198057Y0109474D03*
X0198057Y0095694D03*
X0198057Y0081915D03*
X0198057Y0068135D03*
X0198057Y0054356D03*
X0198057Y0040576D03*
X0198057Y0026797D03*
X0184671Y0020301D03*
X0170891Y0020301D03*
X0163450Y0028765D03*
X0162348Y0035143D03*
X0162466Y0044002D03*
X0173923Y0033883D03*
X0157112Y0020301D03*
X0067230Y0105458D03*
X0053175Y0107545D03*
X0049852Y0124734D03*
X0049852Y0129458D03*
X0038041Y0129458D03*
X0038041Y0124734D03*
X0061663Y0124734D03*
X0061663Y0129458D03*
X0073474Y0129458D03*
X0073474Y0124340D03*
X0085285Y0124340D03*
X0085285Y0129458D03*
X0049750Y0155576D03*
D17*
X0047663Y0092151D03*
X0042151Y0092151D03*
X0042151Y0086246D03*
X0047663Y0086246D03*
X0047663Y0080340D03*
X0042151Y0080340D03*
X0036246Y0080340D03*
X0036246Y0074435D03*
X0042151Y0074435D03*
X0047663Y0074435D03*
X0053765Y0078962D03*
X0053765Y0083883D03*
X0053765Y0088805D03*
X0069120Y0088805D03*
X0069120Y0083883D03*
X0069120Y0078962D03*
X0080931Y0086443D03*
X0080931Y0091167D03*
X0086443Y0091167D03*
X0086443Y0086443D03*
X0091561Y0086443D03*
X0091561Y0091167D03*
X0117348Y0119710D03*
X0123254Y0119710D03*
X0128765Y0119710D03*
X0128765Y0125616D03*
X0134671Y0125065D03*
X0134671Y0129986D03*
X0128765Y0131521D03*
X0134671Y0135104D03*
X0128765Y0137427D03*
X0123254Y0137427D03*
X0123254Y0131521D03*
X0123254Y0125616D03*
X0117348Y0125616D03*
X0117348Y0131521D03*
X0117348Y0137427D03*
X0150419Y0135104D03*
X0150419Y0129986D03*
X0150419Y0125065D03*
X0157112Y0134277D03*
X0162624Y0134277D03*
X0162624Y0139002D03*
X0157112Y0139002D03*
X0167742Y0139002D03*
X0167742Y0134277D03*
X0036246Y0092151D03*
X0036246Y0086246D03*
D18*
X0073126Y0097111D03*
X0083096Y0097269D03*
X0115680Y0084277D03*
X0115680Y0079946D03*
X0121679Y0072860D03*
X0120498Y0065773D03*
X0116167Y0065773D03*
X0116167Y0061049D03*
X0120498Y0061049D03*
X0126009Y0061049D03*
X0130340Y0061049D03*
X0130340Y0065773D03*
X0126009Y0065773D03*
X0129553Y0072860D03*
X0130734Y0040970D03*
X0130734Y0036246D03*
X0116561Y0036246D03*
X0116561Y0040970D03*
X0052156Y0041729D03*
X0051959Y0046847D03*
X0046053Y0046847D03*
X0040738Y0046847D03*
X0035423Y0046847D03*
X0030108Y0046847D03*
X0052156Y0036611D03*
X0052156Y0031493D03*
X0166167Y0128372D03*
D19*
X0020097Y0019079D02*
X0018268Y0020680D01*
X0017022Y0022768D01*
X0016484Y0025139D01*
X0016494Y0025981D01*
X0016511Y0026023D01*
X0016511Y0026499D01*
X0016554Y0026973D01*
X0016511Y0027111D01*
X0016511Y0073938D01*
X0017108Y0072497D01*
X0019722Y0069883D01*
X0023137Y0068469D01*
X0026834Y0068469D01*
X0030250Y0069883D01*
X0032864Y0072497D01*
X0034279Y0075913D01*
X0034279Y0079610D01*
X0032864Y0083025D01*
X0030250Y0085640D01*
X0026834Y0087054D01*
X0023137Y0087054D01*
X0019722Y0085640D01*
X0017108Y0083025D01*
X0016511Y0081585D01*
X0016511Y0177971D01*
X0016664Y0178768D01*
X0017413Y0180425D01*
X0018638Y0181769D01*
X0020218Y0182669D01*
X0022000Y0183036D01*
X0022564Y0183018D01*
X0022637Y0182988D01*
X0023082Y0182988D01*
X0023524Y0182939D01*
X0023694Y0182988D01*
X0192545Y0182988D01*
X0193600Y0182905D01*
X0195606Y0182253D01*
X0197313Y0181013D01*
X0198553Y0179307D01*
X0199204Y0177300D01*
X0199287Y0176246D01*
X0199287Y0024671D01*
X0199204Y0023616D01*
X0198553Y0021610D01*
X0197313Y0019903D01*
X0195606Y0018663D01*
X0193600Y0018011D01*
X0192545Y0017928D01*
X0023460Y0017928D01*
X0022332Y0018121D01*
X0020097Y0019079D01*
X0020828Y0018765D02*
X0195746Y0018765D01*
X0197357Y0019964D02*
X0019086Y0019964D01*
X0017980Y0021162D02*
X0198227Y0021162D01*
X0198797Y0022361D02*
X0017265Y0022361D01*
X0016843Y0023559D02*
X0199186Y0023559D01*
X0199287Y0024758D02*
X0016570Y0024758D01*
X0016493Y0025956D02*
X0199287Y0025956D01*
X0199287Y0027155D02*
X0016511Y0027155D01*
X0016511Y0028353D02*
X0199287Y0028353D01*
X0199287Y0029552D02*
X0138151Y0029552D01*
X0137852Y0029254D02*
X0138553Y0029954D01*
X0138931Y0030869D01*
X0138931Y0031859D01*
X0138553Y0032774D01*
X0137852Y0033474D01*
X0136938Y0033853D01*
X0135947Y0033853D01*
X0135033Y0033474D01*
X0134332Y0032774D01*
X0133954Y0031859D01*
X0133954Y0030869D01*
X0134332Y0029954D01*
X0135033Y0029254D01*
X0135947Y0028875D01*
X0136938Y0028875D01*
X0137852Y0029254D01*
X0138883Y0030750D02*
X0199287Y0030750D01*
X0199287Y0031949D02*
X0138894Y0031949D01*
X0138179Y0033147D02*
X0199287Y0033147D01*
X0199287Y0034346D02*
X0187352Y0034346D01*
X0186808Y0034120D02*
X0188356Y0034762D01*
X0189541Y0035946D01*
X0190182Y0037494D01*
X0190182Y0039170D01*
X0189541Y0040718D01*
X0188356Y0041903D01*
X0186808Y0042544D01*
X0185132Y0042544D01*
X0183584Y0041903D01*
X0182399Y0040718D01*
X0181758Y0039170D01*
X0181758Y0037494D01*
X0182399Y0035946D01*
X0183584Y0034762D01*
X0185132Y0034120D01*
X0186808Y0034120D01*
X0184588Y0034346D02*
X0172714Y0034346D01*
X0172797Y0034388D02*
X0173384Y0034815D01*
X0173897Y0035328D01*
X0174324Y0035915D01*
X0174653Y0036562D01*
X0174878Y0037252D01*
X0174985Y0037928D01*
X0170784Y0037928D01*
X0170784Y0038736D01*
X0174985Y0038736D01*
X0174878Y0039412D01*
X0174653Y0040103D01*
X0174324Y0040749D01*
X0173897Y0041337D01*
X0173384Y0041850D01*
X0172797Y0042277D01*
X0172150Y0042606D01*
X0171459Y0042831D01*
X0170783Y0042938D01*
X0170783Y0038736D01*
X0169976Y0038736D01*
X0169976Y0042938D01*
X0169300Y0042831D01*
X0168609Y0042606D01*
X0167962Y0042277D01*
X0167375Y0041850D01*
X0166862Y0041337D01*
X0166435Y0040749D01*
X0166106Y0040103D01*
X0165881Y0039412D01*
X0165774Y0038736D01*
X0169976Y0038736D01*
X0169976Y0037928D01*
X0170783Y0037928D01*
X0170783Y0033727D01*
X0171459Y0033834D01*
X0172150Y0034058D01*
X0172797Y0034388D01*
X0174055Y0035545D02*
X0182801Y0035545D01*
X0182070Y0036743D02*
X0174712Y0036743D01*
X0174921Y0039140D02*
X0181758Y0039140D01*
X0181758Y0037942D02*
X0170784Y0037942D01*
X0169976Y0037942D02*
X0155193Y0037942D01*
X0155193Y0037928D02*
X0155193Y0038736D01*
X0159394Y0038736D01*
X0159287Y0039412D01*
X0159063Y0040103D01*
X0158733Y0040749D01*
X0158307Y0041337D01*
X0157793Y0041850D01*
X0157206Y0042277D01*
X0156559Y0042606D01*
X0155869Y0042831D01*
X0155193Y0042938D01*
X0155193Y0038736D01*
X0154385Y0038736D01*
X0154385Y0037928D01*
X0155193Y0037928D01*
X0155193Y0033727D01*
X0155869Y0033834D01*
X0156559Y0034058D01*
X0157206Y0034388D01*
X0157793Y0034815D01*
X0158307Y0035328D01*
X0158733Y0035915D01*
X0159063Y0036562D01*
X0159287Y0037252D01*
X0159394Y0037928D01*
X0155193Y0037928D01*
X0154385Y0037928D02*
X0154385Y0033727D01*
X0153709Y0033834D01*
X0153019Y0034058D01*
X0152372Y0034388D01*
X0151785Y0034815D01*
X0151271Y0035328D01*
X0150845Y0035915D01*
X0150515Y0036562D01*
X0150291Y0037252D01*
X0150184Y0037928D01*
X0154385Y0037928D01*
X0154385Y0037942D02*
X0139642Y0037942D01*
X0139642Y0037928D02*
X0139642Y0038736D01*
X0143843Y0038736D01*
X0143736Y0039412D01*
X0143512Y0040103D01*
X0143182Y0040749D01*
X0142755Y0041337D01*
X0142242Y0041850D01*
X0141655Y0042277D01*
X0141008Y0042606D01*
X0140318Y0042831D01*
X0139642Y0042938D01*
X0139642Y0038736D01*
X0138834Y0038736D01*
X0138834Y0037928D01*
X0139642Y0037928D01*
X0143843Y0037928D01*
X0143736Y0037252D01*
X0143512Y0036562D01*
X0143182Y0035915D01*
X0142755Y0035328D01*
X0142242Y0034815D01*
X0141655Y0034388D01*
X0141008Y0034058D01*
X0140318Y0033834D01*
X0139642Y0033727D01*
X0139642Y0037928D01*
X0138834Y0037928D02*
X0138834Y0033727D01*
X0138158Y0033834D01*
X0137467Y0034058D01*
X0136821Y0034388D01*
X0136233Y0034815D01*
X0135720Y0035328D01*
X0135293Y0035915D01*
X0134964Y0036562D01*
X0134740Y0037252D01*
X0134632Y0037928D01*
X0138834Y0037928D01*
X0138834Y0037942D02*
X0132975Y0037942D01*
X0133094Y0037823D02*
X0132311Y0038606D01*
X0132307Y0038608D01*
X0132311Y0038610D01*
X0133094Y0039393D01*
X0133518Y0040416D01*
X0133518Y0041524D01*
X0133094Y0042547D01*
X0132311Y0043330D01*
X0131288Y0043754D01*
X0130180Y0043754D01*
X0129157Y0043330D01*
X0128373Y0042547D01*
X0127950Y0041524D01*
X0127950Y0040416D01*
X0128373Y0039393D01*
X0129157Y0038610D01*
X0129161Y0038608D01*
X0129157Y0038606D01*
X0128373Y0037823D01*
X0127950Y0036799D01*
X0127950Y0035692D01*
X0128373Y0034669D01*
X0129157Y0033885D01*
X0130180Y0033461D01*
X0131288Y0033461D01*
X0132311Y0033885D01*
X0133094Y0034669D01*
X0133518Y0035692D01*
X0133518Y0036799D01*
X0133094Y0037823D01*
X0133518Y0036743D02*
X0134905Y0036743D01*
X0135563Y0035545D02*
X0133457Y0035545D01*
X0132772Y0034346D02*
X0136903Y0034346D01*
X0138834Y0034346D02*
X0139642Y0034346D01*
X0139642Y0035545D02*
X0138834Y0035545D01*
X0138834Y0036743D02*
X0139642Y0036743D01*
X0138834Y0038736D02*
X0134632Y0038736D01*
X0134740Y0039412D01*
X0134964Y0040103D01*
X0135293Y0040749D01*
X0135720Y0041337D01*
X0136233Y0041850D01*
X0136821Y0042277D01*
X0137467Y0042606D01*
X0138158Y0042831D01*
X0138834Y0042938D01*
X0138834Y0038736D01*
X0138834Y0039140D02*
X0139642Y0039140D01*
X0139642Y0040339D02*
X0138834Y0040339D01*
X0138834Y0041537D02*
X0139642Y0041537D01*
X0139642Y0042736D02*
X0138834Y0042736D01*
X0137866Y0042736D02*
X0132906Y0042736D01*
X0133513Y0041537D02*
X0135921Y0041537D01*
X0135084Y0040339D02*
X0133486Y0040339D01*
X0132841Y0039140D02*
X0134696Y0039140D01*
X0137781Y0044197D02*
X0140695Y0044197D01*
X0143387Y0045312D01*
X0145447Y0047372D01*
X0146562Y0050064D01*
X0146562Y0052978D01*
X0145447Y0055670D01*
X0143387Y0057731D01*
X0140695Y0058846D01*
X0137781Y0058846D01*
X0135089Y0057731D01*
X0133028Y0055670D01*
X0131913Y0052978D01*
X0131913Y0050064D01*
X0133028Y0047372D01*
X0135089Y0045312D01*
X0137781Y0044197D01*
X0135522Y0045133D02*
X0127363Y0045133D01*
X0127796Y0045312D02*
X0129857Y0047372D01*
X0130972Y0050064D01*
X0130972Y0052978D01*
X0129857Y0055670D01*
X0127796Y0057731D01*
X0126507Y0058265D01*
X0126563Y0058265D01*
X0127587Y0058688D01*
X0128175Y0059277D01*
X0128763Y0058688D01*
X0129786Y0058265D01*
X0130894Y0058265D01*
X0131917Y0058688D01*
X0132701Y0059472D01*
X0133124Y0060495D01*
X0133124Y0061603D01*
X0132701Y0062626D01*
X0131917Y0063409D01*
X0131913Y0063411D01*
X0131917Y0063413D01*
X0132701Y0064196D01*
X0133124Y0065219D01*
X0133124Y0066327D01*
X0132701Y0067350D01*
X0131917Y0068134D01*
X0130894Y0068557D01*
X0129786Y0068557D01*
X0128763Y0068134D01*
X0128175Y0067545D01*
X0127587Y0068134D01*
X0126563Y0068557D01*
X0125456Y0068557D01*
X0124432Y0068134D01*
X0123649Y0067350D01*
X0123254Y0066395D01*
X0122858Y0067350D01*
X0122075Y0068134D01*
X0121051Y0068557D01*
X0119944Y0068557D01*
X0118920Y0068134D01*
X0118332Y0067545D01*
X0117744Y0068134D01*
X0116721Y0068557D01*
X0115613Y0068557D01*
X0114590Y0068134D01*
X0113807Y0067350D01*
X0113383Y0066327D01*
X0113383Y0065219D01*
X0113807Y0064196D01*
X0114590Y0063413D01*
X0114594Y0063411D01*
X0114590Y0063409D01*
X0113807Y0062626D01*
X0113383Y0061603D01*
X0113383Y0060495D01*
X0113807Y0059472D01*
X0114590Y0058688D01*
X0115613Y0058265D01*
X0116721Y0058265D01*
X0117744Y0058688D01*
X0118332Y0059277D01*
X0118920Y0058688D01*
X0119944Y0058265D01*
X0120787Y0058265D01*
X0119498Y0057731D01*
X0117438Y0055670D01*
X0116323Y0052978D01*
X0116323Y0050064D01*
X0117438Y0047372D01*
X0119498Y0045312D01*
X0122190Y0044197D01*
X0125104Y0044197D01*
X0127796Y0045312D01*
X0128815Y0046331D02*
X0134070Y0046331D01*
X0132963Y0047530D02*
X0129922Y0047530D01*
X0130418Y0048728D02*
X0132467Y0048728D01*
X0131970Y0049927D02*
X0130915Y0049927D01*
X0130972Y0051125D02*
X0131913Y0051125D01*
X0131913Y0052324D02*
X0130972Y0052324D01*
X0130746Y0053522D02*
X0132139Y0053522D01*
X0132635Y0054721D02*
X0130250Y0054721D01*
X0129608Y0055919D02*
X0133277Y0055919D01*
X0134476Y0057118D02*
X0128409Y0057118D01*
X0129662Y0058316D02*
X0126688Y0058316D01*
X0131019Y0058316D02*
X0136503Y0058316D01*
X0133124Y0060713D02*
X0199287Y0060713D01*
X0199287Y0059515D02*
X0132718Y0059515D01*
X0132996Y0061912D02*
X0199287Y0061912D01*
X0199287Y0063110D02*
X0132216Y0063110D01*
X0132747Y0064309D02*
X0199287Y0064309D01*
X0199287Y0065507D02*
X0133124Y0065507D01*
X0132968Y0066706D02*
X0199287Y0066706D01*
X0199287Y0067904D02*
X0132147Y0067904D01*
X0131130Y0070499D02*
X0130107Y0070076D01*
X0128999Y0070076D01*
X0127976Y0070499D01*
X0127192Y0071283D01*
X0126769Y0072306D01*
X0126769Y0073414D01*
X0127192Y0074437D01*
X0127976Y0075220D01*
X0128999Y0075644D01*
X0130107Y0075644D01*
X0131130Y0075220D01*
X0131913Y0074437D01*
X0132337Y0073414D01*
X0132337Y0072306D01*
X0131913Y0071283D01*
X0131130Y0070499D01*
X0130652Y0070301D02*
X0199287Y0070301D01*
X0199287Y0069103D02*
X0071610Y0069103D01*
X0071427Y0069545D02*
X0071805Y0068631D01*
X0071805Y0067640D01*
X0071427Y0066726D01*
X0071065Y0066364D01*
X0071427Y0066002D01*
X0071805Y0065087D01*
X0071805Y0064097D01*
X0071427Y0063182D01*
X0071065Y0062820D01*
X0071427Y0062459D01*
X0071805Y0061544D01*
X0071805Y0060554D01*
X0071427Y0059639D01*
X0071065Y0059277D01*
X0071427Y0058915D01*
X0071805Y0058001D01*
X0071805Y0057010D01*
X0071427Y0056096D01*
X0071065Y0055734D01*
X0071427Y0055372D01*
X0071805Y0054457D01*
X0071805Y0053467D01*
X0071427Y0052552D01*
X0070726Y0051852D01*
X0069812Y0051473D01*
X0068821Y0051473D01*
X0067907Y0051852D01*
X0067206Y0052552D01*
X0066828Y0053467D01*
X0066828Y0054457D01*
X0067206Y0055372D01*
X0067568Y0055734D01*
X0067206Y0056096D01*
X0066828Y0057010D01*
X0066828Y0058001D01*
X0067206Y0058915D01*
X0067568Y0059277D01*
X0067206Y0059639D01*
X0066828Y0060554D01*
X0066828Y0061544D01*
X0067206Y0062459D01*
X0067568Y0062820D01*
X0067206Y0063182D01*
X0066828Y0064097D01*
X0066828Y0065087D01*
X0067206Y0066002D01*
X0067568Y0066364D01*
X0067206Y0066726D01*
X0066828Y0067640D01*
X0066828Y0068631D01*
X0067206Y0069545D01*
X0067907Y0070245D01*
X0068821Y0070624D01*
X0069812Y0070624D01*
X0070726Y0070245D01*
X0071427Y0069545D01*
X0070592Y0070301D02*
X0120580Y0070301D01*
X0120102Y0070499D02*
X0121125Y0070076D01*
X0122233Y0070076D01*
X0123256Y0070499D01*
X0124039Y0071283D01*
X0124463Y0072306D01*
X0124463Y0073414D01*
X0124039Y0074437D01*
X0123256Y0075220D01*
X0122233Y0075644D01*
X0121125Y0075644D01*
X0120102Y0075220D01*
X0119318Y0074437D01*
X0118894Y0073414D01*
X0118894Y0072306D01*
X0119318Y0071283D01*
X0120102Y0070499D01*
X0119228Y0071500D02*
X0031866Y0071500D01*
X0032947Y0072698D02*
X0118894Y0072698D01*
X0119095Y0073897D02*
X0033444Y0073897D01*
X0033940Y0075095D02*
X0119977Y0075095D01*
X0123381Y0075095D02*
X0127851Y0075095D01*
X0126969Y0073897D02*
X0124263Y0073897D01*
X0124463Y0072698D02*
X0126769Y0072698D01*
X0127102Y0071500D02*
X0124129Y0071500D01*
X0122778Y0070301D02*
X0128454Y0070301D01*
X0128534Y0067904D02*
X0127816Y0067904D01*
X0124203Y0067904D02*
X0122304Y0067904D01*
X0123125Y0066706D02*
X0123382Y0066706D01*
X0118691Y0067904D02*
X0117973Y0067904D01*
X0114361Y0067904D02*
X0071805Y0067904D01*
X0071407Y0066706D02*
X0113540Y0066706D01*
X0113383Y0065507D02*
X0071631Y0065507D01*
X0071805Y0064309D02*
X0113760Y0064309D01*
X0114291Y0063110D02*
X0071355Y0063110D01*
X0071653Y0061912D02*
X0113511Y0061912D01*
X0113383Y0060713D02*
X0093206Y0060713D01*
X0093040Y0060782D02*
X0092050Y0060782D01*
X0091135Y0060403D01*
X0090435Y0059703D01*
X0090183Y0059094D01*
X0089931Y0059703D01*
X0089230Y0060403D01*
X0088316Y0060782D01*
X0087325Y0060782D01*
X0086411Y0060403D01*
X0085710Y0059703D01*
X0085458Y0059094D01*
X0085206Y0059703D01*
X0084506Y0060403D01*
X0083591Y0060782D01*
X0082601Y0060782D01*
X0081686Y0060403D01*
X0080986Y0059703D01*
X0080607Y0058788D01*
X0080607Y0057798D01*
X0080986Y0056883D01*
X0081348Y0056521D01*
X0080986Y0056159D01*
X0080607Y0055245D01*
X0080607Y0054255D01*
X0080986Y0053340D01*
X0081686Y0052640D01*
X0082601Y0052261D01*
X0083591Y0052261D01*
X0084506Y0052640D01*
X0085206Y0053340D01*
X0085458Y0053948D01*
X0085710Y0053340D01*
X0086411Y0052640D01*
X0087325Y0052261D01*
X0088316Y0052261D01*
X0089230Y0052640D01*
X0089931Y0053340D01*
X0090183Y0053948D01*
X0090435Y0053340D01*
X0091135Y0052640D01*
X0092050Y0052261D01*
X0093040Y0052261D01*
X0093955Y0052640D01*
X0094655Y0053340D01*
X0095034Y0054255D01*
X0095034Y0055245D01*
X0094655Y0056159D01*
X0094293Y0056521D01*
X0094655Y0056883D01*
X0095034Y0057798D01*
X0095034Y0058788D01*
X0094655Y0059703D01*
X0093955Y0060403D01*
X0093040Y0060782D01*
X0091884Y0060713D02*
X0088481Y0060713D01*
X0087160Y0060713D02*
X0083757Y0060713D01*
X0082435Y0060713D02*
X0071805Y0060713D01*
X0071302Y0059515D02*
X0080908Y0059515D01*
X0080607Y0058316D02*
X0071675Y0058316D01*
X0071805Y0057118D02*
X0080889Y0057118D01*
X0080886Y0055919D02*
X0071250Y0055919D01*
X0071696Y0054721D02*
X0080607Y0054721D01*
X0080910Y0053522D02*
X0071805Y0053522D01*
X0071198Y0052324D02*
X0082449Y0052324D01*
X0083743Y0052324D02*
X0087173Y0052324D01*
X0088468Y0052324D02*
X0091898Y0052324D01*
X0093192Y0052324D02*
X0100732Y0052324D01*
X0100732Y0052978D02*
X0100732Y0050064D01*
X0101847Y0047372D01*
X0103908Y0045312D01*
X0106600Y0044197D01*
X0109514Y0044197D01*
X0112206Y0045312D01*
X0114266Y0047372D01*
X0115381Y0050064D01*
X0115381Y0052978D01*
X0114266Y0055670D01*
X0112206Y0057731D01*
X0109514Y0058846D01*
X0106600Y0058846D01*
X0103908Y0057731D01*
X0101847Y0055670D01*
X0100732Y0052978D01*
X0100958Y0053522D02*
X0094730Y0053522D01*
X0095034Y0054721D02*
X0101454Y0054721D01*
X0102096Y0055919D02*
X0094754Y0055919D01*
X0094752Y0057118D02*
X0103295Y0057118D01*
X0105322Y0058316D02*
X0095034Y0058316D01*
X0094733Y0059515D02*
X0113789Y0059515D01*
X0115488Y0058316D02*
X0110792Y0058316D01*
X0112819Y0057118D02*
X0118885Y0057118D01*
X0119819Y0058316D02*
X0116845Y0058316D01*
X0117687Y0055919D02*
X0114017Y0055919D01*
X0114659Y0054721D02*
X0117045Y0054721D01*
X0116548Y0053522D02*
X0115156Y0053522D01*
X0115381Y0052324D02*
X0116323Y0052324D01*
X0116323Y0051125D02*
X0115381Y0051125D01*
X0115324Y0049927D02*
X0116380Y0049927D01*
X0116876Y0048728D02*
X0114828Y0048728D01*
X0114331Y0047530D02*
X0117373Y0047530D01*
X0118479Y0046331D02*
X0113225Y0046331D01*
X0111773Y0045133D02*
X0119931Y0045133D01*
X0118138Y0043330D02*
X0117114Y0043754D01*
X0116007Y0043754D01*
X0114983Y0043330D01*
X0114200Y0042547D01*
X0113776Y0041524D01*
X0113776Y0040416D01*
X0114200Y0039393D01*
X0114983Y0038610D01*
X0114988Y0038608D01*
X0114983Y0038606D01*
X0114200Y0037823D01*
X0113776Y0036799D01*
X0113776Y0035692D01*
X0114200Y0034669D01*
X0114983Y0033885D01*
X0116007Y0033461D01*
X0117114Y0033461D01*
X0118138Y0033885D01*
X0118921Y0034669D01*
X0119345Y0035692D01*
X0119345Y0036799D01*
X0118921Y0037823D01*
X0118138Y0038606D01*
X0118133Y0038608D01*
X0118138Y0038610D01*
X0118921Y0039393D01*
X0119345Y0040416D01*
X0119345Y0041524D01*
X0118921Y0042547D01*
X0118138Y0043330D01*
X0118733Y0042736D02*
X0128562Y0042736D01*
X0127955Y0041537D02*
X0126399Y0041537D01*
X0126033Y0041903D02*
X0127218Y0040718D01*
X0127859Y0039170D01*
X0127859Y0037494D01*
X0127218Y0035946D01*
X0126033Y0034762D01*
X0124485Y0034120D01*
X0122809Y0034120D01*
X0121261Y0034762D01*
X0120077Y0035946D01*
X0119435Y0037494D01*
X0119435Y0039170D01*
X0120077Y0040718D01*
X0121261Y0041903D01*
X0122809Y0042544D01*
X0124485Y0042544D01*
X0126033Y0041903D01*
X0127375Y0040339D02*
X0127982Y0040339D01*
X0127859Y0039140D02*
X0128626Y0039140D01*
X0128492Y0037942D02*
X0127859Y0037942D01*
X0127950Y0036743D02*
X0127548Y0036743D01*
X0128011Y0035545D02*
X0126816Y0035545D01*
X0125030Y0034346D02*
X0128696Y0034346D01*
X0133991Y0031949D02*
X0054940Y0031949D01*
X0054940Y0032046D02*
X0054516Y0033070D01*
X0053733Y0033853D01*
X0053253Y0034052D01*
X0053733Y0034250D01*
X0054516Y0035033D01*
X0054940Y0036057D01*
X0054940Y0037164D01*
X0054516Y0038188D01*
X0053733Y0038971D01*
X0053253Y0039170D01*
X0053733Y0039368D01*
X0054516Y0040152D01*
X0054940Y0041175D01*
X0054940Y0042283D01*
X0054516Y0043306D01*
X0053733Y0044089D01*
X0053155Y0044329D01*
X0053536Y0044486D01*
X0054319Y0045270D01*
X0054743Y0046293D01*
X0054743Y0047401D01*
X0054319Y0048424D01*
X0053536Y0049207D01*
X0052512Y0049631D01*
X0051405Y0049631D01*
X0050382Y0049207D01*
X0049598Y0048424D01*
X0049174Y0047401D01*
X0049174Y0046293D01*
X0049598Y0045270D01*
X0050382Y0044486D01*
X0050960Y0044247D01*
X0050578Y0044089D01*
X0049795Y0043306D01*
X0049371Y0042283D01*
X0049371Y0041175D01*
X0049795Y0040152D01*
X0050578Y0039368D01*
X0051058Y0039170D01*
X0050578Y0038971D01*
X0049795Y0038188D01*
X0049371Y0037164D01*
X0049371Y0036057D01*
X0049795Y0035033D01*
X0050578Y0034250D01*
X0051058Y0034052D01*
X0050578Y0033853D01*
X0049795Y0033070D01*
X0049371Y0032046D01*
X0049371Y0030939D01*
X0049795Y0029915D01*
X0050578Y0029132D01*
X0051602Y0028708D01*
X0052709Y0028708D01*
X0053733Y0029132D01*
X0054516Y0029915D01*
X0054940Y0030939D01*
X0054940Y0032046D01*
X0054438Y0033147D02*
X0134706Y0033147D01*
X0134002Y0030750D02*
X0054862Y0030750D01*
X0054152Y0029552D02*
X0134734Y0029552D01*
X0141573Y0034346D02*
X0152454Y0034346D01*
X0151114Y0035545D02*
X0142913Y0035545D01*
X0143571Y0036743D02*
X0150456Y0036743D01*
X0150184Y0038736D02*
X0150291Y0039412D01*
X0150515Y0040103D01*
X0150845Y0040749D01*
X0151271Y0041337D01*
X0151785Y0041850D01*
X0152372Y0042277D01*
X0153019Y0042606D01*
X0153709Y0042831D01*
X0154385Y0042938D01*
X0154385Y0038736D01*
X0150184Y0038736D01*
X0150248Y0039140D02*
X0143779Y0039140D01*
X0143391Y0040339D02*
X0150635Y0040339D01*
X0151472Y0041537D02*
X0142555Y0041537D01*
X0140610Y0042736D02*
X0153417Y0042736D01*
X0154385Y0042736D02*
X0155193Y0042736D01*
X0156161Y0042736D02*
X0169007Y0042736D01*
X0169976Y0042736D02*
X0170783Y0042736D01*
X0171752Y0042736D02*
X0199287Y0042736D01*
X0199287Y0043934D02*
X0053888Y0043934D01*
X0054182Y0045133D02*
X0104341Y0045133D01*
X0102889Y0046331D02*
X0054743Y0046331D01*
X0054689Y0047530D02*
X0101782Y0047530D01*
X0101286Y0048728D02*
X0054015Y0048728D01*
X0049902Y0048728D02*
X0048109Y0048728D01*
X0048414Y0048424D02*
X0047630Y0049207D01*
X0046607Y0049631D01*
X0045499Y0049631D01*
X0044476Y0049207D01*
X0043693Y0048424D01*
X0043396Y0047707D01*
X0043099Y0048424D01*
X0042315Y0049207D01*
X0041292Y0049631D01*
X0040184Y0049631D01*
X0039161Y0049207D01*
X0038378Y0048424D01*
X0038081Y0047707D01*
X0037784Y0048424D01*
X0037000Y0049207D01*
X0035977Y0049631D01*
X0034869Y0049631D01*
X0033846Y0049207D01*
X0033063Y0048424D01*
X0032766Y0047707D01*
X0032469Y0048424D01*
X0031685Y0049207D01*
X0030662Y0049631D01*
X0029554Y0049631D01*
X0028531Y0049207D01*
X0027748Y0048424D01*
X0027324Y0047401D01*
X0027324Y0046293D01*
X0027748Y0045270D01*
X0028531Y0044486D01*
X0029554Y0044063D01*
X0030662Y0044063D01*
X0031685Y0044486D01*
X0032469Y0045270D01*
X0032766Y0045987D01*
X0033063Y0045270D01*
X0033846Y0044486D01*
X0034869Y0044063D01*
X0035977Y0044063D01*
X0037000Y0044486D01*
X0037784Y0045270D01*
X0038081Y0045987D01*
X0038378Y0045270D01*
X0039161Y0044486D01*
X0040184Y0044063D01*
X0041292Y0044063D01*
X0042315Y0044486D01*
X0043099Y0045270D01*
X0043396Y0045987D01*
X0043693Y0045270D01*
X0044476Y0044486D01*
X0045499Y0044063D01*
X0046607Y0044063D01*
X0047630Y0044486D01*
X0048414Y0045270D01*
X0048837Y0046293D01*
X0048837Y0047401D01*
X0048414Y0048424D01*
X0048784Y0047530D02*
X0049228Y0047530D01*
X0049174Y0046331D02*
X0048837Y0046331D01*
X0048276Y0045133D02*
X0049735Y0045133D01*
X0050423Y0043934D02*
X0016511Y0043934D01*
X0016511Y0042736D02*
X0049559Y0042736D01*
X0049371Y0041537D02*
X0016511Y0041537D01*
X0016511Y0040339D02*
X0049718Y0040339D01*
X0050987Y0039140D02*
X0016511Y0039140D01*
X0016511Y0037942D02*
X0049693Y0037942D01*
X0049371Y0036743D02*
X0016511Y0036743D01*
X0016511Y0035545D02*
X0049583Y0035545D01*
X0050483Y0034346D02*
X0016511Y0034346D01*
X0016511Y0033147D02*
X0049873Y0033147D01*
X0049371Y0031949D02*
X0016511Y0031949D01*
X0016511Y0030750D02*
X0049449Y0030750D01*
X0050159Y0029552D02*
X0016511Y0029552D01*
X0016511Y0045133D02*
X0027885Y0045133D01*
X0027324Y0046331D02*
X0016511Y0046331D01*
X0016511Y0047530D02*
X0027377Y0047530D01*
X0028052Y0048728D02*
X0016511Y0048728D01*
X0016511Y0049927D02*
X0100789Y0049927D01*
X0100732Y0051125D02*
X0016511Y0051125D01*
X0016511Y0052324D02*
X0067435Y0052324D01*
X0066828Y0053522D02*
X0016511Y0053522D01*
X0016511Y0054721D02*
X0066937Y0054721D01*
X0067383Y0055919D02*
X0016511Y0055919D01*
X0016511Y0057118D02*
X0066828Y0057118D01*
X0066958Y0058316D02*
X0016511Y0058316D01*
X0016511Y0059515D02*
X0067331Y0059515D01*
X0066828Y0060713D02*
X0016511Y0060713D01*
X0016511Y0061912D02*
X0066980Y0061912D01*
X0067278Y0063110D02*
X0016511Y0063110D01*
X0016511Y0064309D02*
X0066828Y0064309D01*
X0067002Y0065507D02*
X0016511Y0065507D01*
X0016511Y0066706D02*
X0067226Y0066706D01*
X0066828Y0067904D02*
X0016511Y0067904D01*
X0016511Y0069103D02*
X0021606Y0069103D01*
X0019304Y0070301D02*
X0016511Y0070301D01*
X0016511Y0071500D02*
X0018105Y0071500D01*
X0017024Y0072698D02*
X0016511Y0072698D01*
X0016511Y0073897D02*
X0016528Y0073897D01*
X0016511Y0082286D02*
X0016802Y0082286D01*
X0016511Y0083485D02*
X0017567Y0083485D01*
X0016511Y0084683D02*
X0018766Y0084683D01*
X0020307Y0085882D02*
X0016511Y0085882D01*
X0016511Y0087080D02*
X0188208Y0087080D01*
X0188208Y0087157D02*
X0188208Y0086357D01*
X0189008Y0086357D01*
X0189008Y0082163D01*
X0189685Y0082271D01*
X0190374Y0082494D01*
X0191019Y0082823D01*
X0191605Y0083249D01*
X0192117Y0083761D01*
X0192542Y0084347D01*
X0192871Y0084992D01*
X0193095Y0085680D01*
X0193202Y0086357D01*
X0189008Y0086357D01*
X0189008Y0087157D01*
X0193202Y0087157D01*
X0193095Y0087835D01*
X0192871Y0088523D01*
X0192542Y0089168D01*
X0192117Y0089754D01*
X0191605Y0090266D01*
X0191019Y0090692D01*
X0190374Y0091020D01*
X0189685Y0091244D01*
X0189008Y0091351D01*
X0189008Y0087158D01*
X0188208Y0087158D01*
X0188208Y0091351D01*
X0187531Y0091244D01*
X0186842Y0091020D01*
X0186197Y0090692D01*
X0185611Y0090266D01*
X0185099Y0089754D01*
X0184674Y0089168D01*
X0184345Y0088523D01*
X0184121Y0087835D01*
X0184014Y0087157D01*
X0188208Y0087157D01*
X0188208Y0086357D02*
X0184014Y0086357D01*
X0184121Y0085680D01*
X0184345Y0084992D01*
X0184674Y0084347D01*
X0185099Y0083761D01*
X0185611Y0083249D01*
X0186197Y0082823D01*
X0186842Y0082494D01*
X0187531Y0082271D01*
X0188208Y0082163D01*
X0188208Y0086357D01*
X0188208Y0085882D02*
X0189008Y0085882D01*
X0189008Y0087080D02*
X0199287Y0087080D01*
X0199287Y0085882D02*
X0193127Y0085882D01*
X0192714Y0084683D02*
X0199287Y0084683D01*
X0199287Y0083485D02*
X0191841Y0083485D01*
X0189733Y0082286D02*
X0199287Y0082286D01*
X0199287Y0081088D02*
X0118220Y0081088D01*
X0118040Y0081524D02*
X0117452Y0082112D01*
X0118040Y0082700D01*
X0118464Y0083723D01*
X0118464Y0084831D01*
X0118040Y0085854D01*
X0117257Y0086638D01*
X0116233Y0087061D01*
X0115126Y0087061D01*
X0114102Y0086638D01*
X0113319Y0085854D01*
X0112895Y0084831D01*
X0112895Y0083723D01*
X0113319Y0082700D01*
X0113907Y0082112D01*
X0113319Y0081524D01*
X0112895Y0080500D01*
X0112895Y0079393D01*
X0113319Y0078369D01*
X0114102Y0077586D01*
X0115126Y0077162D01*
X0116233Y0077162D01*
X0117257Y0077586D01*
X0118040Y0078369D01*
X0118464Y0079393D01*
X0118464Y0080500D01*
X0118040Y0081524D01*
X0117626Y0082286D02*
X0187482Y0082286D01*
X0188208Y0082286D02*
X0189008Y0082286D01*
X0189008Y0083485D02*
X0188208Y0083485D01*
X0188208Y0084683D02*
X0189008Y0084683D01*
X0185375Y0083485D02*
X0118365Y0083485D01*
X0118464Y0084683D02*
X0184502Y0084683D01*
X0184089Y0085882D02*
X0118012Y0085882D01*
X0113347Y0085882D02*
X0029665Y0085882D01*
X0031206Y0084683D02*
X0112895Y0084683D01*
X0112994Y0083485D02*
X0032404Y0083485D01*
X0033170Y0082286D02*
X0113733Y0082286D01*
X0113139Y0081088D02*
X0033666Y0081088D01*
X0034163Y0079889D02*
X0112895Y0079889D01*
X0113186Y0078691D02*
X0034279Y0078691D01*
X0034279Y0077492D02*
X0114329Y0077492D01*
X0117031Y0077492D02*
X0184408Y0077492D01*
X0184408Y0077593D02*
X0184408Y0075922D01*
X0185047Y0074378D01*
X0186229Y0073197D01*
X0187772Y0072557D01*
X0189443Y0072557D01*
X0190987Y0073197D01*
X0192168Y0074378D01*
X0192808Y0075922D01*
X0192808Y0077593D01*
X0192168Y0079137D01*
X0190987Y0080318D01*
X0189443Y0080957D01*
X0187772Y0080957D01*
X0186229Y0080318D01*
X0185047Y0079137D01*
X0184408Y0077593D01*
X0184863Y0078691D02*
X0118173Y0078691D01*
X0118464Y0079889D02*
X0185800Y0079889D01*
X0184408Y0076294D02*
X0034279Y0076294D01*
X0030668Y0070301D02*
X0068042Y0070301D01*
X0067023Y0069103D02*
X0028366Y0069103D01*
X0032164Y0048728D02*
X0033367Y0048728D01*
X0033200Y0045133D02*
X0032332Y0045133D01*
X0037646Y0045133D02*
X0038515Y0045133D01*
X0038682Y0048728D02*
X0037479Y0048728D01*
X0042794Y0048728D02*
X0043997Y0048728D01*
X0043830Y0045133D02*
X0042961Y0045133D01*
X0053325Y0039140D02*
X0103845Y0039140D01*
X0103845Y0039170D02*
X0103845Y0037494D01*
X0104486Y0035946D01*
X0105671Y0034762D01*
X0107219Y0034120D01*
X0108894Y0034120D01*
X0110442Y0034762D01*
X0111627Y0035946D01*
X0112268Y0037494D01*
X0112268Y0039170D01*
X0111627Y0040718D01*
X0110442Y0041903D01*
X0108894Y0042544D01*
X0107219Y0042544D01*
X0105671Y0041903D01*
X0104486Y0040718D01*
X0103845Y0039170D01*
X0103845Y0037942D02*
X0054618Y0037942D01*
X0054940Y0036743D02*
X0104156Y0036743D01*
X0104888Y0035545D02*
X0054728Y0035545D01*
X0053828Y0034346D02*
X0106674Y0034346D01*
X0109439Y0034346D02*
X0114523Y0034346D01*
X0113837Y0035545D02*
X0111225Y0035545D01*
X0111957Y0036743D02*
X0113776Y0036743D01*
X0114319Y0037942D02*
X0112268Y0037942D01*
X0112268Y0039140D02*
X0114453Y0039140D01*
X0113809Y0040339D02*
X0111784Y0040339D01*
X0110808Y0041537D02*
X0113782Y0041537D01*
X0114389Y0042736D02*
X0054752Y0042736D01*
X0054940Y0041537D02*
X0105305Y0041537D01*
X0104329Y0040339D02*
X0054593Y0040339D01*
X0085282Y0053522D02*
X0085635Y0053522D01*
X0090006Y0053522D02*
X0090359Y0053522D01*
X0090357Y0059515D02*
X0090008Y0059515D01*
X0085633Y0059515D02*
X0085284Y0059515D01*
X0119339Y0041537D02*
X0120896Y0041537D01*
X0119919Y0040339D02*
X0119313Y0040339D01*
X0119435Y0039140D02*
X0118668Y0039140D01*
X0118802Y0037942D02*
X0119435Y0037942D01*
X0119345Y0036743D02*
X0119747Y0036743D01*
X0119284Y0035545D02*
X0120479Y0035545D01*
X0122265Y0034346D02*
X0118598Y0034346D01*
X0142954Y0045133D02*
X0151112Y0045133D01*
X0150679Y0045312D02*
X0153371Y0044197D01*
X0156285Y0044197D01*
X0158977Y0045312D01*
X0161038Y0047372D01*
X0162153Y0050064D01*
X0162153Y0052978D01*
X0161038Y0055670D01*
X0158977Y0057731D01*
X0156285Y0058846D01*
X0153371Y0058846D01*
X0150679Y0057731D01*
X0148619Y0055670D01*
X0147504Y0052978D01*
X0147504Y0050064D01*
X0148619Y0047372D01*
X0150679Y0045312D01*
X0149660Y0046331D02*
X0144406Y0046331D01*
X0145512Y0047530D02*
X0148554Y0047530D01*
X0148057Y0048728D02*
X0146009Y0048728D01*
X0146505Y0049927D02*
X0147561Y0049927D01*
X0147504Y0051125D02*
X0146562Y0051125D01*
X0146562Y0052324D02*
X0147504Y0052324D01*
X0147729Y0053522D02*
X0146337Y0053522D01*
X0145840Y0054721D02*
X0148226Y0054721D01*
X0148868Y0055919D02*
X0145198Y0055919D01*
X0144000Y0057118D02*
X0150067Y0057118D01*
X0152093Y0058316D02*
X0141973Y0058316D01*
X0157563Y0058316D02*
X0167684Y0058316D01*
X0168962Y0058846D02*
X0166270Y0057731D01*
X0164210Y0055670D01*
X0163094Y0052978D01*
X0163094Y0050064D01*
X0164210Y0047372D01*
X0166270Y0045312D01*
X0168962Y0044197D01*
X0171876Y0044197D01*
X0174568Y0045312D01*
X0176628Y0047372D01*
X0177743Y0050064D01*
X0177743Y0052978D01*
X0176628Y0055670D01*
X0174568Y0057731D01*
X0171876Y0058846D01*
X0168962Y0058846D01*
X0165657Y0057118D02*
X0159590Y0057118D01*
X0160789Y0055919D02*
X0164459Y0055919D01*
X0163816Y0054721D02*
X0161431Y0054721D01*
X0161927Y0053522D02*
X0163320Y0053522D01*
X0163094Y0052324D02*
X0162153Y0052324D01*
X0162153Y0051125D02*
X0163094Y0051125D01*
X0163152Y0049927D02*
X0162096Y0049927D01*
X0161599Y0048728D02*
X0163648Y0048728D01*
X0164144Y0047530D02*
X0161103Y0047530D01*
X0159996Y0046331D02*
X0165251Y0046331D01*
X0166703Y0045133D02*
X0158544Y0045133D01*
X0158106Y0041537D02*
X0167062Y0041537D01*
X0166226Y0040339D02*
X0158943Y0040339D01*
X0159330Y0039140D02*
X0165838Y0039140D01*
X0165774Y0037928D02*
X0165881Y0037252D01*
X0166106Y0036562D01*
X0166435Y0035915D01*
X0166862Y0035328D01*
X0167375Y0034815D01*
X0167962Y0034388D01*
X0168609Y0034058D01*
X0169300Y0033834D01*
X0169976Y0033727D01*
X0169976Y0037928D01*
X0165774Y0037928D01*
X0166047Y0036743D02*
X0159122Y0036743D01*
X0158464Y0035545D02*
X0166704Y0035545D01*
X0168045Y0034346D02*
X0157124Y0034346D01*
X0155193Y0034346D02*
X0154385Y0034346D01*
X0154385Y0035545D02*
X0155193Y0035545D01*
X0155193Y0036743D02*
X0154385Y0036743D01*
X0154385Y0039140D02*
X0155193Y0039140D01*
X0155193Y0040339D02*
X0154385Y0040339D01*
X0154385Y0041537D02*
X0155193Y0041537D01*
X0169976Y0041537D02*
X0170783Y0041537D01*
X0170783Y0040339D02*
X0169976Y0040339D01*
X0169976Y0039140D02*
X0170783Y0039140D01*
X0170783Y0036743D02*
X0169976Y0036743D01*
X0169976Y0035545D02*
X0170783Y0035545D01*
X0170783Y0034346D02*
X0169976Y0034346D01*
X0174533Y0040339D02*
X0182242Y0040339D01*
X0183218Y0041537D02*
X0173697Y0041537D01*
X0174135Y0045133D02*
X0182293Y0045133D01*
X0181860Y0045312D02*
X0184553Y0044197D01*
X0187466Y0044197D01*
X0190158Y0045312D01*
X0192219Y0047372D01*
X0193334Y0050064D01*
X0193334Y0052978D01*
X0192219Y0055670D01*
X0190158Y0057731D01*
X0187466Y0058846D01*
X0184553Y0058846D01*
X0181860Y0057731D01*
X0179800Y0055670D01*
X0178685Y0052978D01*
X0178685Y0050064D01*
X0179800Y0047372D01*
X0181860Y0045312D01*
X0180841Y0046331D02*
X0175587Y0046331D01*
X0176693Y0047530D02*
X0179735Y0047530D01*
X0179238Y0048728D02*
X0177190Y0048728D01*
X0177686Y0049927D02*
X0178742Y0049927D01*
X0178685Y0051125D02*
X0177743Y0051125D01*
X0177743Y0052324D02*
X0178685Y0052324D01*
X0178910Y0053522D02*
X0177518Y0053522D01*
X0177022Y0054721D02*
X0179407Y0054721D01*
X0180049Y0055919D02*
X0176379Y0055919D01*
X0175181Y0057118D02*
X0181248Y0057118D01*
X0183274Y0058316D02*
X0173154Y0058316D01*
X0188745Y0058316D02*
X0199287Y0058316D01*
X0199287Y0057118D02*
X0190771Y0057118D01*
X0191970Y0055919D02*
X0199287Y0055919D01*
X0199287Y0054721D02*
X0192612Y0054721D01*
X0193109Y0053522D02*
X0199287Y0053522D01*
X0199287Y0052324D02*
X0193334Y0052324D01*
X0193334Y0051125D02*
X0199287Y0051125D01*
X0199287Y0049927D02*
X0193277Y0049927D01*
X0192780Y0048728D02*
X0199287Y0048728D01*
X0199287Y0047530D02*
X0192284Y0047530D01*
X0191178Y0046331D02*
X0199287Y0046331D01*
X0199287Y0045133D02*
X0189725Y0045133D01*
X0188722Y0041537D02*
X0199287Y0041537D01*
X0199287Y0040339D02*
X0189698Y0040339D01*
X0190182Y0039140D02*
X0199287Y0039140D01*
X0199287Y0037942D02*
X0190182Y0037942D01*
X0189871Y0036743D02*
X0199287Y0036743D01*
X0199287Y0035545D02*
X0189139Y0035545D01*
X0189783Y0072698D02*
X0199287Y0072698D01*
X0199287Y0071500D02*
X0132003Y0071500D01*
X0132337Y0072698D02*
X0187432Y0072698D01*
X0185529Y0073897D02*
X0132137Y0073897D01*
X0131255Y0075095D02*
X0184750Y0075095D01*
X0191416Y0079889D02*
X0199287Y0079889D01*
X0199287Y0078691D02*
X0192353Y0078691D01*
X0192808Y0077492D02*
X0199287Y0077492D01*
X0199287Y0076294D02*
X0192808Y0076294D01*
X0192465Y0075095D02*
X0199287Y0075095D01*
X0199287Y0073897D02*
X0191687Y0073897D01*
X0192950Y0088279D02*
X0199287Y0088279D01*
X0199287Y0089478D02*
X0192318Y0089478D01*
X0191040Y0090676D02*
X0199287Y0090676D01*
X0199287Y0091875D02*
X0016511Y0091875D01*
X0016511Y0093073D02*
X0199287Y0093073D01*
X0199287Y0094272D02*
X0016511Y0094272D01*
X0016511Y0095470D02*
X0070830Y0095470D01*
X0070766Y0095534D02*
X0071549Y0094751D01*
X0072572Y0094327D01*
X0073680Y0094327D01*
X0074703Y0094751D01*
X0075486Y0095534D01*
X0075910Y0096558D01*
X0075910Y0097665D01*
X0075486Y0098689D01*
X0074703Y0099472D01*
X0073680Y0099896D01*
X0072572Y0099896D01*
X0071549Y0099472D01*
X0070766Y0098689D01*
X0070342Y0097665D01*
X0070342Y0096558D01*
X0070766Y0095534D01*
X0070342Y0096669D02*
X0016511Y0096669D01*
X0016511Y0097867D02*
X0070425Y0097867D01*
X0071143Y0099066D02*
X0039954Y0099066D01*
X0039931Y0099009D02*
X0040309Y0099924D01*
X0040309Y0100914D01*
X0039931Y0101829D01*
X0039230Y0102529D01*
X0038316Y0102908D01*
X0037325Y0102908D01*
X0036411Y0102529D01*
X0035710Y0101829D01*
X0035331Y0100914D01*
X0035331Y0099924D01*
X0035710Y0099009D01*
X0036411Y0098309D01*
X0037325Y0097930D01*
X0038316Y0097930D01*
X0039230Y0098309D01*
X0039931Y0099009D01*
X0040309Y0100264D02*
X0184925Y0100264D01*
X0185047Y0099969D02*
X0186229Y0098787D01*
X0187772Y0098148D01*
X0189443Y0098148D01*
X0190987Y0098787D01*
X0192168Y0099969D01*
X0192808Y0101513D01*
X0192808Y0103183D01*
X0192168Y0104727D01*
X0190987Y0105909D01*
X0189443Y0106548D01*
X0187772Y0106548D01*
X0186229Y0105909D01*
X0185047Y0104727D01*
X0184408Y0103183D01*
X0184408Y0101513D01*
X0185047Y0099969D01*
X0185951Y0099066D02*
X0085237Y0099066D01*
X0085456Y0098846D02*
X0084673Y0099630D01*
X0083650Y0100054D01*
X0082542Y0100054D01*
X0081519Y0099630D01*
X0080736Y0098846D01*
X0080312Y0097823D01*
X0080312Y0096715D01*
X0080736Y0095692D01*
X0081519Y0094909D01*
X0082542Y0094485D01*
X0083650Y0094485D01*
X0084673Y0094909D01*
X0085456Y0095692D01*
X0085880Y0096715D01*
X0085880Y0097823D01*
X0085456Y0098846D01*
X0085862Y0097867D02*
X0199287Y0097867D01*
X0199287Y0096669D02*
X0085861Y0096669D01*
X0085234Y0095470D02*
X0199287Y0095470D01*
X0199287Y0099066D02*
X0191265Y0099066D01*
X0192291Y0100264D02*
X0199287Y0100264D01*
X0199287Y0101463D02*
X0192787Y0101463D01*
X0192808Y0102661D02*
X0199287Y0102661D01*
X0199287Y0103860D02*
X0192528Y0103860D01*
X0191837Y0105058D02*
X0199287Y0105058D01*
X0199287Y0106257D02*
X0190147Y0106257D01*
X0189685Y0107861D02*
X0190374Y0108085D01*
X0191019Y0108414D01*
X0191605Y0108839D01*
X0192117Y0109351D01*
X0192542Y0109937D01*
X0192871Y0110582D01*
X0193095Y0111271D01*
X0193202Y0111948D01*
X0189008Y0111948D01*
X0189008Y0112748D01*
X0193202Y0112748D01*
X0193095Y0113425D01*
X0192871Y0114114D01*
X0192542Y0114759D01*
X0192117Y0115345D01*
X0191605Y0115857D01*
X0191019Y0116282D01*
X0190374Y0116611D01*
X0189685Y0116835D01*
X0189008Y0116942D01*
X0189008Y0112748D01*
X0188208Y0112748D01*
X0188208Y0116942D01*
X0187531Y0116835D01*
X0186842Y0116611D01*
X0186197Y0116282D01*
X0185611Y0115857D01*
X0185099Y0115345D01*
X0184674Y0114759D01*
X0184345Y0114114D01*
X0184121Y0113425D01*
X0184014Y0112748D01*
X0188208Y0112748D01*
X0188208Y0111948D01*
X0189008Y0111948D01*
X0189008Y0107754D01*
X0189685Y0107861D01*
X0189008Y0108654D02*
X0188208Y0108654D01*
X0188208Y0107754D02*
X0188208Y0111948D01*
X0184014Y0111948D01*
X0184121Y0111271D01*
X0184345Y0110582D01*
X0184674Y0109937D01*
X0185099Y0109351D01*
X0185611Y0108839D01*
X0186197Y0108414D01*
X0186842Y0108085D01*
X0187531Y0107861D01*
X0188208Y0107754D01*
X0187069Y0106257D02*
X0163341Y0106257D01*
X0163341Y0106465D02*
X0162932Y0107452D01*
X0162485Y0107899D01*
X0162932Y0108346D01*
X0163341Y0109333D01*
X0163341Y0110402D01*
X0162932Y0111389D01*
X0162177Y0112145D01*
X0161189Y0112554D01*
X0160121Y0112554D01*
X0159134Y0112145D01*
X0158687Y0111698D01*
X0158240Y0112145D01*
X0157252Y0112554D01*
X0156184Y0112554D01*
X0155197Y0112145D01*
X0154553Y0111501D01*
X0154217Y0111836D01*
X0154664Y0112283D01*
X0155073Y0113270D01*
X0155073Y0114339D01*
X0154664Y0115326D01*
X0153909Y0116082D01*
X0152922Y0116491D01*
X0151853Y0116491D01*
X0150866Y0116082D01*
X0150419Y0115635D01*
X0149972Y0116082D01*
X0148985Y0116491D01*
X0147916Y0116491D01*
X0146929Y0116082D01*
X0146173Y0115326D01*
X0145765Y0114339D01*
X0145765Y0113270D01*
X0146173Y0112283D01*
X0146929Y0111528D01*
X0147916Y0111119D01*
X0148985Y0111119D01*
X0149972Y0111528D01*
X0150419Y0111975D01*
X0150558Y0111836D01*
X0150110Y0111389D01*
X0149702Y0110402D01*
X0149702Y0109333D01*
X0150110Y0108346D01*
X0150558Y0107899D01*
X0150110Y0107452D01*
X0149702Y0106465D01*
X0149702Y0105396D01*
X0150110Y0104409D01*
X0150866Y0103654D01*
X0151853Y0103245D01*
X0152922Y0103245D01*
X0153909Y0103654D01*
X0154553Y0104298D01*
X0155197Y0103654D01*
X0156184Y0103245D01*
X0157252Y0103245D01*
X0158240Y0103654D01*
X0158687Y0104101D01*
X0159134Y0103654D01*
X0160121Y0103245D01*
X0161189Y0103245D01*
X0162177Y0103654D01*
X0162932Y0104409D01*
X0163341Y0105396D01*
X0163341Y0106465D01*
X0162929Y0107455D02*
X0199287Y0107455D01*
X0199287Y0108654D02*
X0191349Y0108654D01*
X0192480Y0109852D02*
X0199287Y0109852D01*
X0199287Y0111051D02*
X0193023Y0111051D01*
X0193087Y0113448D02*
X0199287Y0113448D01*
X0199287Y0114646D02*
X0192600Y0114646D01*
X0191616Y0115845D02*
X0199287Y0115845D01*
X0199287Y0117043D02*
X0016511Y0117043D01*
X0016511Y0115845D02*
X0146692Y0115845D01*
X0145892Y0114646D02*
X0016511Y0114646D01*
X0016511Y0113448D02*
X0145765Y0113448D01*
X0146208Y0112249D02*
X0016511Y0112249D01*
X0016511Y0111051D02*
X0149970Y0111051D01*
X0149702Y0109852D02*
X0054366Y0109852D01*
X0054640Y0109738D02*
X0053689Y0110132D01*
X0052660Y0110132D01*
X0051709Y0109738D01*
X0050981Y0109011D01*
X0050587Y0108060D01*
X0050587Y0107030D01*
X0050981Y0106079D01*
X0051709Y0105351D01*
X0052660Y0104957D01*
X0053689Y0104957D01*
X0054640Y0105351D01*
X0055368Y0106079D01*
X0055762Y0107030D01*
X0055762Y0108060D01*
X0055368Y0109011D01*
X0054640Y0109738D01*
X0055516Y0108654D02*
X0149983Y0108654D01*
X0150114Y0107455D02*
X0068892Y0107455D01*
X0068696Y0107652D02*
X0067745Y0108046D01*
X0066715Y0108046D01*
X0065764Y0107652D01*
X0065036Y0106924D01*
X0064643Y0105973D01*
X0064643Y0104944D01*
X0065036Y0103993D01*
X0065764Y0103265D01*
X0066715Y0102871D01*
X0067745Y0102871D01*
X0068696Y0103265D01*
X0069423Y0103993D01*
X0069817Y0104944D01*
X0069817Y0105973D01*
X0069423Y0106924D01*
X0068696Y0107652D01*
X0069700Y0106257D02*
X0149702Y0106257D01*
X0149842Y0105058D02*
X0069817Y0105058D01*
X0069290Y0103860D02*
X0150660Y0103860D01*
X0154115Y0103860D02*
X0154991Y0103860D01*
X0158445Y0103860D02*
X0158928Y0103860D01*
X0162382Y0103860D02*
X0184688Y0103860D01*
X0184408Y0102661D02*
X0038911Y0102661D01*
X0040082Y0101463D02*
X0184429Y0101463D01*
X0185378Y0105058D02*
X0163201Y0105058D01*
X0163059Y0108654D02*
X0185867Y0108654D01*
X0184735Y0109852D02*
X0163341Y0109852D01*
X0163072Y0111051D02*
X0184193Y0111051D01*
X0184128Y0113448D02*
X0155073Y0113448D01*
X0154946Y0114646D02*
X0184616Y0114646D01*
X0185599Y0115845D02*
X0154146Y0115845D01*
X0150629Y0115845D02*
X0150209Y0115845D01*
X0154630Y0112249D02*
X0155449Y0112249D01*
X0157987Y0112249D02*
X0159386Y0112249D01*
X0161924Y0112249D02*
X0188208Y0112249D01*
X0189008Y0112249D02*
X0199287Y0112249D01*
X0199287Y0118242D02*
X0016511Y0118242D01*
X0016511Y0119440D02*
X0199287Y0119440D01*
X0199287Y0120639D02*
X0016511Y0120639D01*
X0016511Y0121837D02*
X0199287Y0121837D01*
X0199287Y0123036D02*
X0016511Y0123036D01*
X0016511Y0124234D02*
X0186576Y0124234D01*
X0186229Y0124378D02*
X0187772Y0123739D01*
X0189443Y0123739D01*
X0190987Y0124378D01*
X0192168Y0125559D01*
X0192808Y0127103D01*
X0192808Y0128774D01*
X0192168Y0130318D01*
X0190987Y0131499D01*
X0189443Y0132139D01*
X0187772Y0132139D01*
X0186229Y0131499D01*
X0185047Y0130318D01*
X0184408Y0128774D01*
X0184408Y0127103D01*
X0185047Y0125559D01*
X0186229Y0124378D01*
X0185174Y0125433D02*
X0016511Y0125433D01*
X0016511Y0126631D02*
X0184603Y0126631D01*
X0184408Y0127830D02*
X0016511Y0127830D01*
X0016511Y0129028D02*
X0184513Y0129028D01*
X0185010Y0130227D02*
X0016511Y0130227D01*
X0016511Y0131425D02*
X0186155Y0131425D01*
X0186842Y0133676D02*
X0187531Y0133452D01*
X0188208Y0133345D01*
X0188208Y0137538D01*
X0189008Y0137538D01*
X0189008Y0133345D01*
X0189685Y0133452D01*
X0190374Y0133676D01*
X0191019Y0134004D01*
X0191605Y0134430D01*
X0192117Y0134942D01*
X0192542Y0135528D01*
X0192871Y0136173D01*
X0193095Y0136861D01*
X0193202Y0137539D01*
X0189008Y0137539D01*
X0189008Y0138339D01*
X0188208Y0138339D01*
X0188208Y0142533D01*
X0187531Y0142425D01*
X0186842Y0142202D01*
X0186197Y0141873D01*
X0185611Y0141447D01*
X0185099Y0140935D01*
X0184674Y0140349D01*
X0184345Y0139704D01*
X0184121Y0139016D01*
X0184014Y0138339D01*
X0188208Y0138339D01*
X0188208Y0137539D01*
X0184014Y0137539D01*
X0184121Y0136861D01*
X0184345Y0136173D01*
X0184674Y0135528D01*
X0185099Y0134942D01*
X0185611Y0134430D01*
X0186197Y0134004D01*
X0186842Y0133676D01*
X0186554Y0133822D02*
X0016511Y0133822D01*
X0016511Y0132624D02*
X0199287Y0132624D01*
X0199287Y0133822D02*
X0190662Y0133822D01*
X0189008Y0133822D02*
X0188208Y0133822D01*
X0188208Y0135021D02*
X0189008Y0135021D01*
X0189008Y0136219D02*
X0188208Y0136219D01*
X0188208Y0137418D02*
X0189008Y0137418D01*
X0189008Y0138339D02*
X0193202Y0138339D01*
X0193095Y0139016D01*
X0192871Y0139704D01*
X0192542Y0140349D01*
X0192117Y0140935D01*
X0191605Y0141447D01*
X0191019Y0141873D01*
X0190374Y0142202D01*
X0189685Y0142425D01*
X0189008Y0142533D01*
X0189008Y0138339D01*
X0189008Y0138616D02*
X0188208Y0138616D01*
X0188208Y0139815D02*
X0189008Y0139815D01*
X0189008Y0141014D02*
X0188208Y0141014D01*
X0188208Y0142212D02*
X0189008Y0142212D01*
X0190341Y0142212D02*
X0199287Y0142212D01*
X0199287Y0141014D02*
X0192038Y0141014D01*
X0192814Y0139815D02*
X0199287Y0139815D01*
X0199287Y0138616D02*
X0193158Y0138616D01*
X0193183Y0137418D02*
X0199287Y0137418D01*
X0199287Y0136219D02*
X0192886Y0136219D01*
X0192174Y0135021D02*
X0199287Y0135021D01*
X0199287Y0131425D02*
X0191061Y0131425D01*
X0192206Y0130227D02*
X0199287Y0130227D01*
X0199287Y0129028D02*
X0192702Y0129028D01*
X0192808Y0127830D02*
X0199287Y0127830D01*
X0199287Y0126631D02*
X0192612Y0126631D01*
X0192042Y0125433D02*
X0199287Y0125433D01*
X0199287Y0124234D02*
X0190640Y0124234D01*
X0189008Y0115845D02*
X0188208Y0115845D01*
X0188208Y0114646D02*
X0189008Y0114646D01*
X0189008Y0113448D02*
X0188208Y0113448D01*
X0188208Y0111051D02*
X0189008Y0111051D01*
X0189008Y0109852D02*
X0188208Y0109852D01*
X0188208Y0090676D02*
X0189008Y0090676D01*
X0189008Y0089478D02*
X0188208Y0089478D01*
X0188208Y0088279D02*
X0189008Y0088279D01*
X0186175Y0090676D02*
X0016511Y0090676D01*
X0016511Y0089478D02*
X0184898Y0089478D01*
X0184266Y0088279D02*
X0016511Y0088279D01*
X0016511Y0099066D02*
X0035687Y0099066D01*
X0035331Y0100264D02*
X0016511Y0100264D01*
X0016511Y0101463D02*
X0035559Y0101463D01*
X0036730Y0102661D02*
X0016511Y0102661D01*
X0016511Y0103860D02*
X0065169Y0103860D01*
X0064643Y0105058D02*
X0053933Y0105058D01*
X0052417Y0105058D02*
X0016511Y0105058D01*
X0016511Y0106257D02*
X0050908Y0106257D01*
X0050587Y0107455D02*
X0016511Y0107455D01*
X0016511Y0108654D02*
X0050834Y0108654D01*
X0051984Y0109852D02*
X0016511Y0109852D01*
X0016511Y0135021D02*
X0185042Y0135021D01*
X0184330Y0136219D02*
X0016511Y0136219D01*
X0016511Y0137418D02*
X0184033Y0137418D01*
X0184058Y0138616D02*
X0016511Y0138616D01*
X0016511Y0139815D02*
X0184401Y0139815D01*
X0185177Y0141014D02*
X0016511Y0141014D01*
X0016511Y0142212D02*
X0186874Y0142212D01*
X0187772Y0149329D02*
X0186229Y0149969D01*
X0185047Y0151150D01*
X0184408Y0152694D01*
X0184408Y0154365D01*
X0185047Y0155908D01*
X0186229Y0157090D01*
X0187772Y0157729D01*
X0189443Y0157729D01*
X0190987Y0157090D01*
X0192168Y0155908D01*
X0192808Y0154365D01*
X0192808Y0152694D01*
X0192168Y0151150D01*
X0190987Y0149969D01*
X0189443Y0149329D01*
X0187772Y0149329D01*
X0187594Y0149403D02*
X0149758Y0149403D01*
X0149758Y0149136D02*
X0149379Y0148222D01*
X0148679Y0147521D01*
X0147764Y0147143D01*
X0146774Y0147143D01*
X0145859Y0147521D01*
X0145159Y0148222D01*
X0144780Y0149136D01*
X0144780Y0150127D01*
X0145159Y0151041D01*
X0145859Y0151742D01*
X0146774Y0152120D01*
X0147764Y0152120D01*
X0148679Y0151742D01*
X0149379Y0151041D01*
X0149758Y0150127D01*
X0149758Y0149136D01*
X0149362Y0148205D02*
X0199287Y0148205D01*
X0199287Y0149403D02*
X0189622Y0149403D01*
X0191620Y0150602D02*
X0199287Y0150602D01*
X0199287Y0151800D02*
X0192438Y0151800D01*
X0192808Y0152999D02*
X0199287Y0152999D01*
X0199287Y0154197D02*
X0192808Y0154197D01*
X0192381Y0155396D02*
X0199287Y0155396D01*
X0199287Y0156594D02*
X0191483Y0156594D01*
X0190374Y0159266D02*
X0189685Y0159042D01*
X0189008Y0158935D01*
X0189008Y0163129D01*
X0189008Y0163929D01*
X0193202Y0163929D01*
X0193095Y0164606D01*
X0192871Y0165295D01*
X0192542Y0165940D01*
X0192117Y0166526D01*
X0191605Y0167038D01*
X0191019Y0167463D01*
X0190374Y0167792D01*
X0189685Y0168016D01*
X0189008Y0168123D01*
X0189008Y0163929D01*
X0188208Y0163929D01*
X0188208Y0163129D01*
X0189008Y0163129D01*
X0193202Y0163129D01*
X0193095Y0162452D01*
X0192871Y0161763D01*
X0192542Y0161118D01*
X0192117Y0160532D01*
X0191605Y0160020D01*
X0191019Y0159595D01*
X0190374Y0159266D01*
X0189362Y0158991D02*
X0199287Y0158991D01*
X0199287Y0157793D02*
X0106180Y0157793D01*
X0106201Y0157834D02*
X0106509Y0158780D01*
X0106648Y0159661D01*
X0100940Y0159661D01*
X0100940Y0153953D01*
X0101821Y0154093D01*
X0102768Y0154400D01*
X0103655Y0154852D01*
X0104460Y0155437D01*
X0105164Y0156141D01*
X0105749Y0156947D01*
X0106201Y0157834D01*
X0106542Y0158991D02*
X0187854Y0158991D01*
X0187531Y0159042D02*
X0188208Y0158935D01*
X0188208Y0163129D01*
X0184014Y0163129D01*
X0184121Y0162452D01*
X0184345Y0161763D01*
X0184674Y0161118D01*
X0185099Y0160532D01*
X0185611Y0160020D01*
X0186197Y0159595D01*
X0186842Y0159266D01*
X0187531Y0159042D01*
X0188208Y0158991D02*
X0189008Y0158991D01*
X0189008Y0160190D02*
X0188208Y0160190D01*
X0188208Y0161388D02*
X0189008Y0161388D01*
X0189008Y0162587D02*
X0188208Y0162587D01*
X0188208Y0163785D02*
X0105597Y0163785D01*
X0105749Y0163576D02*
X0105164Y0164381D01*
X0104460Y0165085D01*
X0103655Y0165671D01*
X0102768Y0166122D01*
X0101821Y0166430D01*
X0100940Y0166570D01*
X0100940Y0160861D01*
X0106648Y0160861D01*
X0106509Y0161742D01*
X0106201Y0162689D01*
X0105749Y0163576D01*
X0106234Y0162587D02*
X0184100Y0162587D01*
X0184536Y0161388D02*
X0106565Y0161388D01*
X0104562Y0164984D02*
X0184244Y0164984D01*
X0184345Y0165295D02*
X0184121Y0164606D01*
X0184014Y0163929D01*
X0188208Y0163929D01*
X0188208Y0168123D01*
X0187531Y0168016D01*
X0186842Y0167792D01*
X0186197Y0167463D01*
X0185611Y0167038D01*
X0185099Y0166526D01*
X0184674Y0165940D01*
X0184345Y0165295D01*
X0184850Y0166182D02*
X0102584Y0166182D01*
X0100940Y0166182D02*
X0099740Y0166182D01*
X0099740Y0166570D02*
X0098859Y0166430D01*
X0097912Y0166122D01*
X0097025Y0165671D01*
X0096220Y0165085D01*
X0095516Y0164381D01*
X0094931Y0163576D01*
X0094479Y0162689D01*
X0094171Y0161742D01*
X0094032Y0160861D01*
X0099740Y0160861D01*
X0099740Y0159661D01*
X0100940Y0159661D01*
X0100940Y0160861D01*
X0099740Y0160861D01*
X0099740Y0166570D01*
X0099740Y0164984D02*
X0100940Y0164984D01*
X0100940Y0163785D02*
X0099740Y0163785D01*
X0099740Y0162587D02*
X0100940Y0162587D01*
X0100940Y0161388D02*
X0099740Y0161388D01*
X0099740Y0160190D02*
X0090674Y0160190D01*
X0090674Y0159083D02*
X0089772Y0156905D01*
X0088106Y0155239D01*
X0085928Y0154337D01*
X0083571Y0154337D01*
X0081394Y0155239D01*
X0079727Y0156905D01*
X0078825Y0159083D01*
X0078825Y0161440D01*
X0079727Y0163617D01*
X0081394Y0165284D01*
X0083571Y0166186D01*
X0085928Y0166186D01*
X0088106Y0165284D01*
X0089772Y0163617D01*
X0090674Y0161440D01*
X0090674Y0159083D01*
X0090636Y0158991D02*
X0094138Y0158991D01*
X0094171Y0158780D02*
X0094479Y0157834D01*
X0094931Y0156947D01*
X0095516Y0156141D01*
X0096220Y0155437D01*
X0097025Y0154852D01*
X0097912Y0154400D01*
X0098859Y0154093D01*
X0099740Y0153953D01*
X0099740Y0159661D01*
X0094032Y0159661D01*
X0094171Y0158780D01*
X0094500Y0157793D02*
X0090140Y0157793D01*
X0089461Y0156594D02*
X0095187Y0156594D01*
X0096278Y0155396D02*
X0088262Y0155396D01*
X0090674Y0161388D02*
X0094115Y0161388D01*
X0094446Y0162587D02*
X0090199Y0162587D01*
X0089604Y0163785D02*
X0095083Y0163785D01*
X0096118Y0164984D02*
X0088406Y0164984D01*
X0085937Y0166182D02*
X0098096Y0166182D01*
X0100940Y0160190D02*
X0185442Y0160190D01*
X0185733Y0156594D02*
X0105493Y0156594D01*
X0104403Y0155396D02*
X0184835Y0155396D01*
X0184408Y0154197D02*
X0135987Y0154197D01*
X0135884Y0154301D02*
X0134969Y0154680D01*
X0133979Y0154680D01*
X0133064Y0154301D01*
X0132364Y0153600D01*
X0131985Y0152686D01*
X0131985Y0151695D01*
X0132364Y0150781D01*
X0133064Y0150080D01*
X0133979Y0149702D01*
X0134969Y0149702D01*
X0135884Y0150080D01*
X0136584Y0150781D01*
X0136963Y0151695D01*
X0136963Y0152686D01*
X0136584Y0153600D01*
X0135884Y0154301D01*
X0136833Y0152999D02*
X0184408Y0152999D01*
X0184778Y0151800D02*
X0148538Y0151800D01*
X0149562Y0150602D02*
X0185596Y0150602D01*
X0191774Y0160190D02*
X0199287Y0160190D01*
X0199287Y0161388D02*
X0192680Y0161388D01*
X0193116Y0162587D02*
X0199287Y0162587D01*
X0199287Y0163785D02*
X0189008Y0163785D01*
X0189008Y0164984D02*
X0188208Y0164984D01*
X0188208Y0166182D02*
X0189008Y0166182D01*
X0189008Y0167381D02*
X0188208Y0167381D01*
X0186083Y0167381D02*
X0016511Y0167381D01*
X0016511Y0168579D02*
X0199287Y0168579D01*
X0199287Y0167381D02*
X0191133Y0167381D01*
X0192366Y0166182D02*
X0199287Y0166182D01*
X0199287Y0164984D02*
X0192972Y0164984D01*
X0199287Y0169778D02*
X0016511Y0169778D01*
X0016511Y0170976D02*
X0199287Y0170976D01*
X0199287Y0172175D02*
X0016511Y0172175D01*
X0016511Y0173373D02*
X0199287Y0173373D01*
X0199287Y0174572D02*
X0016511Y0174572D01*
X0016511Y0175770D02*
X0199287Y0175770D01*
X0199230Y0176969D02*
X0016511Y0176969D01*
X0016549Y0178167D02*
X0198923Y0178167D01*
X0198510Y0179366D02*
X0016934Y0179366D01*
X0017540Y0180564D02*
X0197639Y0180564D01*
X0196281Y0181763D02*
X0018633Y0181763D01*
X0021636Y0182961D02*
X0023323Y0182961D01*
X0023601Y0182961D02*
X0192885Y0182961D01*
X0199287Y0147006D02*
X0120612Y0147006D01*
X0120624Y0146977D02*
X0120245Y0147892D01*
X0119545Y0148592D01*
X0118631Y0148971D01*
X0117640Y0148971D01*
X0116726Y0148592D01*
X0116025Y0147892D01*
X0115646Y0146977D01*
X0115646Y0145987D01*
X0116025Y0145072D01*
X0116726Y0144372D01*
X0117640Y0143993D01*
X0118631Y0143993D01*
X0119545Y0144372D01*
X0120245Y0145072D01*
X0120624Y0145987D01*
X0120624Y0146977D01*
X0120550Y0145808D02*
X0199287Y0145808D01*
X0199287Y0144609D02*
X0119783Y0144609D01*
X0116488Y0144609D02*
X0016511Y0144609D01*
X0016511Y0143411D02*
X0199287Y0143411D01*
X0146001Y0151800D02*
X0136963Y0151800D01*
X0136405Y0150602D02*
X0144977Y0150602D01*
X0144780Y0149403D02*
X0016511Y0149403D01*
X0016511Y0148205D02*
X0116338Y0148205D01*
X0115659Y0147006D02*
X0016511Y0147006D01*
X0016511Y0145808D02*
X0115721Y0145808D01*
X0119933Y0148205D02*
X0145176Y0148205D01*
X0132961Y0154197D02*
X0102142Y0154197D01*
X0100940Y0154197D02*
X0099740Y0154197D01*
X0099740Y0155396D02*
X0100940Y0155396D01*
X0100940Y0156594D02*
X0099740Y0156594D01*
X0099740Y0157793D02*
X0100940Y0157793D01*
X0100940Y0158991D02*
X0099740Y0158991D01*
X0098538Y0154197D02*
X0063576Y0154197D01*
X0062802Y0153876D02*
X0064980Y0154778D01*
X0066646Y0156445D01*
X0067548Y0158622D01*
X0067548Y0160979D01*
X0066646Y0163157D01*
X0064980Y0164823D01*
X0062802Y0165725D01*
X0060445Y0165725D01*
X0058268Y0164823D01*
X0056601Y0163157D01*
X0055699Y0160979D01*
X0055699Y0158622D01*
X0056601Y0156445D01*
X0058268Y0154778D01*
X0060445Y0153876D01*
X0062802Y0153876D01*
X0059671Y0154197D02*
X0032395Y0154197D01*
X0031621Y0153876D02*
X0033798Y0154778D01*
X0035465Y0156445D01*
X0036367Y0158622D01*
X0036367Y0160979D01*
X0035465Y0163157D01*
X0033798Y0164823D01*
X0031621Y0165725D01*
X0029264Y0165725D01*
X0027087Y0164823D01*
X0025420Y0163157D01*
X0024518Y0160979D01*
X0024518Y0158622D01*
X0025420Y0156445D01*
X0027087Y0154778D01*
X0029264Y0153876D01*
X0031621Y0153876D01*
X0028490Y0154197D02*
X0016511Y0154197D01*
X0016511Y0152999D02*
X0132115Y0152999D01*
X0131985Y0151800D02*
X0016511Y0151800D01*
X0016511Y0150602D02*
X0132543Y0150602D01*
X0083563Y0166182D02*
X0016511Y0166182D01*
X0016511Y0164984D02*
X0027474Y0164984D01*
X0026049Y0163785D02*
X0016511Y0163785D01*
X0016511Y0162587D02*
X0025184Y0162587D01*
X0024688Y0161388D02*
X0016511Y0161388D01*
X0016511Y0160190D02*
X0024518Y0160190D01*
X0024518Y0158991D02*
X0016511Y0158991D01*
X0016511Y0157793D02*
X0024862Y0157793D01*
X0025358Y0156594D02*
X0016511Y0156594D01*
X0016511Y0155396D02*
X0026469Y0155396D01*
X0034416Y0155396D02*
X0057650Y0155396D01*
X0056539Y0156594D02*
X0035527Y0156594D01*
X0036023Y0157793D02*
X0056043Y0157793D01*
X0055699Y0158991D02*
X0036367Y0158991D01*
X0036367Y0160190D02*
X0055699Y0160190D01*
X0055869Y0161388D02*
X0036198Y0161388D01*
X0035701Y0162587D02*
X0056365Y0162587D01*
X0057230Y0163785D02*
X0034836Y0163785D01*
X0033411Y0164984D02*
X0058655Y0164984D01*
X0064592Y0164984D02*
X0081094Y0164984D01*
X0079895Y0163785D02*
X0066018Y0163785D01*
X0066882Y0162587D02*
X0079300Y0162587D01*
X0078825Y0161388D02*
X0067379Y0161388D01*
X0067548Y0160190D02*
X0078825Y0160190D01*
X0078863Y0158991D02*
X0067548Y0158991D01*
X0067204Y0157793D02*
X0079360Y0157793D01*
X0080038Y0156594D02*
X0066708Y0156594D01*
X0065597Y0155396D02*
X0081237Y0155396D01*
X0065568Y0107455D02*
X0055762Y0107455D01*
X0055442Y0106257D02*
X0064760Y0106257D01*
X0075109Y0099066D02*
X0080955Y0099066D01*
X0080330Y0097867D02*
X0075827Y0097867D01*
X0075910Y0096669D02*
X0080331Y0096669D01*
X0080958Y0095470D02*
X0075422Y0095470D01*
D20*
X0069317Y0068135D03*
X0069317Y0064592D03*
X0069317Y0061049D03*
X0069317Y0057506D03*
X0069317Y0053962D03*
X0083096Y0054750D03*
X0083096Y0058293D03*
X0087820Y0058293D03*
X0087820Y0054750D03*
X0092545Y0054750D03*
X0092545Y0058293D03*
X0136443Y0031364D03*
X0037820Y0100419D03*
X0118135Y0146482D03*
X0134474Y0152191D03*
X0147269Y0149631D03*
D21*
X0148450Y0113805D03*
X0152387Y0113805D03*
X0152387Y0109868D03*
X0152387Y0105931D03*
X0156718Y0105931D03*
X0156718Y0109868D03*
X0160655Y0109868D03*
X0160655Y0105931D03*
M02*
