G75*
%MOIN*%
%OFA0B0*%
%FSLAX25Y25*%
%IPPOS*%
%LPD*%
%AMOC8*
5,1,8,0,0,1.08239X$1,22.5*
%
%ADD10C,0.01000*%
%ADD11C,0.00000*%
%ADD12C,0.00394*%
D10*
X0023254Y0014828D02*
X0192545Y0014828D01*
X0192783Y0014831D01*
X0193021Y0014839D01*
X0193258Y0014854D01*
X0193495Y0014874D01*
X0193731Y0014900D01*
X0193967Y0014931D01*
X0194202Y0014968D01*
X0194436Y0015011D01*
X0194669Y0015060D01*
X0194901Y0015114D01*
X0195131Y0015174D01*
X0195360Y0015239D01*
X0195587Y0015310D01*
X0195812Y0015386D01*
X0196035Y0015468D01*
X0196257Y0015555D01*
X0196476Y0015647D01*
X0196693Y0015745D01*
X0196907Y0015847D01*
X0197119Y0015955D01*
X0197329Y0016069D01*
X0197535Y0016187D01*
X0197739Y0016310D01*
X0197939Y0016438D01*
X0198136Y0016570D01*
X0198331Y0016708D01*
X0198521Y0016850D01*
X0198709Y0016997D01*
X0198892Y0017148D01*
X0199072Y0017303D01*
X0199248Y0017463D01*
X0199420Y0017627D01*
X0199589Y0017796D01*
X0199753Y0017968D01*
X0199913Y0018144D01*
X0200068Y0018324D01*
X0200219Y0018507D01*
X0200366Y0018695D01*
X0200508Y0018885D01*
X0200646Y0019080D01*
X0200778Y0019277D01*
X0200906Y0019477D01*
X0201029Y0019681D01*
X0201147Y0019887D01*
X0201261Y0020097D01*
X0201369Y0020309D01*
X0201471Y0020523D01*
X0201569Y0020740D01*
X0201661Y0020959D01*
X0201748Y0021181D01*
X0201830Y0021404D01*
X0201906Y0021629D01*
X0201977Y0021856D01*
X0202042Y0022085D01*
X0202102Y0022315D01*
X0202156Y0022547D01*
X0202205Y0022780D01*
X0202248Y0023014D01*
X0202285Y0023249D01*
X0202316Y0023485D01*
X0202342Y0023721D01*
X0202362Y0023958D01*
X0202377Y0024195D01*
X0202385Y0024433D01*
X0202388Y0024671D01*
X0202387Y0024671D02*
X0202387Y0176246D01*
X0202388Y0176246D02*
X0202385Y0176484D01*
X0202377Y0176722D01*
X0202362Y0176959D01*
X0202342Y0177196D01*
X0202316Y0177432D01*
X0202285Y0177668D01*
X0202248Y0177903D01*
X0202205Y0178137D01*
X0202156Y0178370D01*
X0202102Y0178602D01*
X0202042Y0178832D01*
X0201977Y0179061D01*
X0201906Y0179288D01*
X0201830Y0179513D01*
X0201748Y0179736D01*
X0201661Y0179958D01*
X0201569Y0180177D01*
X0201471Y0180394D01*
X0201369Y0180608D01*
X0201261Y0180820D01*
X0201147Y0181030D01*
X0201029Y0181236D01*
X0200906Y0181440D01*
X0200778Y0181640D01*
X0200646Y0181837D01*
X0200508Y0182032D01*
X0200366Y0182222D01*
X0200219Y0182410D01*
X0200068Y0182593D01*
X0199913Y0182773D01*
X0199753Y0182949D01*
X0199589Y0183121D01*
X0199420Y0183290D01*
X0199248Y0183454D01*
X0199072Y0183614D01*
X0198892Y0183769D01*
X0198709Y0183920D01*
X0198521Y0184067D01*
X0198331Y0184209D01*
X0198136Y0184347D01*
X0197939Y0184479D01*
X0197739Y0184607D01*
X0197535Y0184730D01*
X0197329Y0184848D01*
X0197119Y0184962D01*
X0196907Y0185070D01*
X0196693Y0185172D01*
X0196476Y0185270D01*
X0196257Y0185362D01*
X0196035Y0185449D01*
X0195812Y0185531D01*
X0195587Y0185607D01*
X0195360Y0185678D01*
X0195131Y0185743D01*
X0194901Y0185803D01*
X0194669Y0185857D01*
X0194436Y0185906D01*
X0194202Y0185949D01*
X0193967Y0185986D01*
X0193731Y0186017D01*
X0193495Y0186043D01*
X0193258Y0186063D01*
X0193021Y0186078D01*
X0192783Y0186086D01*
X0192545Y0186089D01*
X0192545Y0186088D02*
X0023254Y0186088D01*
X0013411Y0178214D02*
X0013411Y0026639D01*
X0013412Y0026639D02*
X0013391Y0026373D01*
X0013376Y0026107D01*
X0013369Y0025840D01*
X0013367Y0025573D01*
X0013373Y0025307D01*
X0013384Y0025040D01*
X0013403Y0024774D01*
X0013428Y0024508D01*
X0013459Y0024243D01*
X0013497Y0023979D01*
X0013541Y0023716D01*
X0013592Y0023454D01*
X0013649Y0023194D01*
X0013713Y0022934D01*
X0013783Y0022677D01*
X0013859Y0022421D01*
X0013942Y0022167D01*
X0014030Y0021916D01*
X0014125Y0021666D01*
X0014226Y0021419D01*
X0014333Y0021175D01*
X0014446Y0020933D01*
X0014565Y0020694D01*
X0014689Y0020459D01*
X0014820Y0020226D01*
X0014956Y0019996D01*
X0015098Y0019770D01*
X0015245Y0019548D01*
X0015397Y0019329D01*
X0015555Y0019114D01*
X0015718Y0018903D01*
X0015887Y0018696D01*
X0016060Y0018493D01*
X0016238Y0018294D01*
X0016421Y0018100D01*
X0016609Y0017910D01*
X0016801Y0017726D01*
X0016998Y0017545D01*
X0017199Y0017370D01*
X0017405Y0017200D01*
X0017614Y0017035D01*
X0017828Y0016875D01*
X0018045Y0016720D01*
X0018266Y0016571D01*
X0018491Y0016427D01*
X0018719Y0016289D01*
X0018951Y0016156D01*
X0019186Y0016029D01*
X0019423Y0015908D01*
X0019664Y0015793D01*
X0019907Y0015684D01*
X0020153Y0015581D01*
X0020402Y0015483D01*
X0020653Y0015392D01*
X0020906Y0015307D01*
X0021161Y0015229D01*
X0021417Y0015156D01*
X0021676Y0015090D01*
X0021936Y0015031D01*
X0022197Y0014977D01*
X0022460Y0014930D01*
X0022724Y0014890D01*
X0022988Y0014856D01*
X0023254Y0014829D01*
X0013411Y0178214D02*
X0013437Y0178428D01*
X0013468Y0178641D01*
X0013505Y0178853D01*
X0013547Y0179065D01*
X0013594Y0179275D01*
X0013646Y0179484D01*
X0013703Y0179692D01*
X0013765Y0179898D01*
X0013832Y0180103D01*
X0013903Y0180306D01*
X0013980Y0180507D01*
X0014062Y0180706D01*
X0014148Y0180904D01*
X0014239Y0181099D01*
X0014335Y0181292D01*
X0014436Y0181482D01*
X0014541Y0181670D01*
X0014650Y0181856D01*
X0014764Y0182038D01*
X0014883Y0182218D01*
X0015005Y0182395D01*
X0015132Y0182569D01*
X0015263Y0182740D01*
X0015399Y0182908D01*
X0015538Y0183072D01*
X0015681Y0183233D01*
X0015828Y0183391D01*
X0015979Y0183544D01*
X0016133Y0183695D01*
X0016291Y0183841D01*
X0016453Y0183984D01*
X0016617Y0184122D01*
X0016786Y0184257D01*
X0016957Y0184387D01*
X0017131Y0184513D01*
X0017309Y0184635D01*
X0017489Y0184753D01*
X0017673Y0184866D01*
X0017858Y0184975D01*
X0018047Y0185080D01*
X0018238Y0185179D01*
X0018431Y0185274D01*
X0018627Y0185365D01*
X0018824Y0185450D01*
X0019024Y0185531D01*
X0019225Y0185607D01*
X0019429Y0185678D01*
X0019634Y0185744D01*
X0019840Y0185806D01*
X0020048Y0185862D01*
X0020257Y0185913D01*
X0020468Y0185959D01*
X0020679Y0186000D01*
X0020892Y0186036D01*
X0021105Y0186067D01*
X0021319Y0186092D01*
X0021533Y0186113D01*
X0021748Y0186128D01*
X0021963Y0186138D01*
X0022178Y0186143D01*
X0022394Y0186142D01*
X0022609Y0186137D01*
X0022824Y0186126D01*
X0023039Y0186110D01*
X0023253Y0186088D01*
D11*
X0018293Y0077761D02*
X0018295Y0077925D01*
X0018301Y0078089D01*
X0018311Y0078253D01*
X0018325Y0078417D01*
X0018343Y0078580D01*
X0018365Y0078743D01*
X0018392Y0078905D01*
X0018422Y0079067D01*
X0018456Y0079227D01*
X0018494Y0079387D01*
X0018535Y0079546D01*
X0018581Y0079704D01*
X0018631Y0079860D01*
X0018684Y0080016D01*
X0018741Y0080170D01*
X0018802Y0080322D01*
X0018867Y0080473D01*
X0018936Y0080623D01*
X0019008Y0080770D01*
X0019083Y0080916D01*
X0019163Y0081060D01*
X0019245Y0081202D01*
X0019331Y0081342D01*
X0019421Y0081479D01*
X0019514Y0081615D01*
X0019610Y0081748D01*
X0019710Y0081879D01*
X0019812Y0082007D01*
X0019918Y0082133D01*
X0020027Y0082256D01*
X0020139Y0082376D01*
X0020253Y0082494D01*
X0020371Y0082608D01*
X0020491Y0082720D01*
X0020614Y0082829D01*
X0020740Y0082935D01*
X0020868Y0083037D01*
X0020999Y0083137D01*
X0021132Y0083233D01*
X0021268Y0083326D01*
X0021405Y0083416D01*
X0021545Y0083502D01*
X0021687Y0083584D01*
X0021831Y0083664D01*
X0021977Y0083739D01*
X0022124Y0083811D01*
X0022274Y0083880D01*
X0022425Y0083945D01*
X0022577Y0084006D01*
X0022731Y0084063D01*
X0022887Y0084116D01*
X0023043Y0084166D01*
X0023201Y0084212D01*
X0023360Y0084253D01*
X0023520Y0084291D01*
X0023680Y0084325D01*
X0023842Y0084355D01*
X0024004Y0084382D01*
X0024167Y0084404D01*
X0024330Y0084422D01*
X0024494Y0084436D01*
X0024658Y0084446D01*
X0024822Y0084452D01*
X0024986Y0084454D01*
X0025150Y0084452D01*
X0025314Y0084446D01*
X0025478Y0084436D01*
X0025642Y0084422D01*
X0025805Y0084404D01*
X0025968Y0084382D01*
X0026130Y0084355D01*
X0026292Y0084325D01*
X0026452Y0084291D01*
X0026612Y0084253D01*
X0026771Y0084212D01*
X0026929Y0084166D01*
X0027085Y0084116D01*
X0027241Y0084063D01*
X0027395Y0084006D01*
X0027547Y0083945D01*
X0027698Y0083880D01*
X0027848Y0083811D01*
X0027995Y0083739D01*
X0028141Y0083664D01*
X0028285Y0083584D01*
X0028427Y0083502D01*
X0028567Y0083416D01*
X0028704Y0083326D01*
X0028840Y0083233D01*
X0028973Y0083137D01*
X0029104Y0083037D01*
X0029232Y0082935D01*
X0029358Y0082829D01*
X0029481Y0082720D01*
X0029601Y0082608D01*
X0029719Y0082494D01*
X0029833Y0082376D01*
X0029945Y0082256D01*
X0030054Y0082133D01*
X0030160Y0082007D01*
X0030262Y0081879D01*
X0030362Y0081748D01*
X0030458Y0081615D01*
X0030551Y0081479D01*
X0030641Y0081342D01*
X0030727Y0081202D01*
X0030809Y0081060D01*
X0030889Y0080916D01*
X0030964Y0080770D01*
X0031036Y0080623D01*
X0031105Y0080473D01*
X0031170Y0080322D01*
X0031231Y0080170D01*
X0031288Y0080016D01*
X0031341Y0079860D01*
X0031391Y0079704D01*
X0031437Y0079546D01*
X0031478Y0079387D01*
X0031516Y0079227D01*
X0031550Y0079067D01*
X0031580Y0078905D01*
X0031607Y0078743D01*
X0031629Y0078580D01*
X0031647Y0078417D01*
X0031661Y0078253D01*
X0031671Y0078089D01*
X0031677Y0077925D01*
X0031679Y0077761D01*
X0031677Y0077597D01*
X0031671Y0077433D01*
X0031661Y0077269D01*
X0031647Y0077105D01*
X0031629Y0076942D01*
X0031607Y0076779D01*
X0031580Y0076617D01*
X0031550Y0076455D01*
X0031516Y0076295D01*
X0031478Y0076135D01*
X0031437Y0075976D01*
X0031391Y0075818D01*
X0031341Y0075662D01*
X0031288Y0075506D01*
X0031231Y0075352D01*
X0031170Y0075200D01*
X0031105Y0075049D01*
X0031036Y0074899D01*
X0030964Y0074752D01*
X0030889Y0074606D01*
X0030809Y0074462D01*
X0030727Y0074320D01*
X0030641Y0074180D01*
X0030551Y0074043D01*
X0030458Y0073907D01*
X0030362Y0073774D01*
X0030262Y0073643D01*
X0030160Y0073515D01*
X0030054Y0073389D01*
X0029945Y0073266D01*
X0029833Y0073146D01*
X0029719Y0073028D01*
X0029601Y0072914D01*
X0029481Y0072802D01*
X0029358Y0072693D01*
X0029232Y0072587D01*
X0029104Y0072485D01*
X0028973Y0072385D01*
X0028840Y0072289D01*
X0028704Y0072196D01*
X0028567Y0072106D01*
X0028427Y0072020D01*
X0028285Y0071938D01*
X0028141Y0071858D01*
X0027995Y0071783D01*
X0027848Y0071711D01*
X0027698Y0071642D01*
X0027547Y0071577D01*
X0027395Y0071516D01*
X0027241Y0071459D01*
X0027085Y0071406D01*
X0026929Y0071356D01*
X0026771Y0071310D01*
X0026612Y0071269D01*
X0026452Y0071231D01*
X0026292Y0071197D01*
X0026130Y0071167D01*
X0025968Y0071140D01*
X0025805Y0071118D01*
X0025642Y0071100D01*
X0025478Y0071086D01*
X0025314Y0071076D01*
X0025150Y0071070D01*
X0024986Y0071068D01*
X0024822Y0071070D01*
X0024658Y0071076D01*
X0024494Y0071086D01*
X0024330Y0071100D01*
X0024167Y0071118D01*
X0024004Y0071140D01*
X0023842Y0071167D01*
X0023680Y0071197D01*
X0023520Y0071231D01*
X0023360Y0071269D01*
X0023201Y0071310D01*
X0023043Y0071356D01*
X0022887Y0071406D01*
X0022731Y0071459D01*
X0022577Y0071516D01*
X0022425Y0071577D01*
X0022274Y0071642D01*
X0022124Y0071711D01*
X0021977Y0071783D01*
X0021831Y0071858D01*
X0021687Y0071938D01*
X0021545Y0072020D01*
X0021405Y0072106D01*
X0021268Y0072196D01*
X0021132Y0072289D01*
X0020999Y0072385D01*
X0020868Y0072485D01*
X0020740Y0072587D01*
X0020614Y0072693D01*
X0020491Y0072802D01*
X0020371Y0072914D01*
X0020253Y0073028D01*
X0020139Y0073146D01*
X0020027Y0073266D01*
X0019918Y0073389D01*
X0019812Y0073515D01*
X0019710Y0073643D01*
X0019610Y0073774D01*
X0019514Y0073907D01*
X0019421Y0074043D01*
X0019331Y0074180D01*
X0019245Y0074320D01*
X0019163Y0074462D01*
X0019083Y0074606D01*
X0019008Y0074752D01*
X0018936Y0074899D01*
X0018867Y0075049D01*
X0018802Y0075200D01*
X0018741Y0075352D01*
X0018684Y0075506D01*
X0018631Y0075662D01*
X0018581Y0075818D01*
X0018535Y0075976D01*
X0018494Y0076135D01*
X0018456Y0076295D01*
X0018422Y0076455D01*
X0018392Y0076617D01*
X0018365Y0076779D01*
X0018343Y0076942D01*
X0018325Y0077105D01*
X0018311Y0077269D01*
X0018301Y0077433D01*
X0018295Y0077597D01*
X0018293Y0077761D01*
X0103333Y0051521D02*
X0103335Y0051658D01*
X0103341Y0051796D01*
X0103351Y0051933D01*
X0103365Y0052069D01*
X0103383Y0052206D01*
X0103405Y0052341D01*
X0103431Y0052476D01*
X0103460Y0052610D01*
X0103494Y0052744D01*
X0103531Y0052876D01*
X0103573Y0053007D01*
X0103618Y0053137D01*
X0103667Y0053265D01*
X0103719Y0053392D01*
X0103776Y0053517D01*
X0103835Y0053641D01*
X0103899Y0053763D01*
X0103966Y0053883D01*
X0104036Y0054001D01*
X0104110Y0054117D01*
X0104187Y0054231D01*
X0104268Y0054342D01*
X0104351Y0054451D01*
X0104438Y0054558D01*
X0104528Y0054661D01*
X0104621Y0054763D01*
X0104717Y0054861D01*
X0104815Y0054957D01*
X0104917Y0055050D01*
X0105020Y0055140D01*
X0105127Y0055227D01*
X0105236Y0055310D01*
X0105347Y0055391D01*
X0105461Y0055468D01*
X0105577Y0055542D01*
X0105695Y0055612D01*
X0105815Y0055679D01*
X0105937Y0055743D01*
X0106061Y0055802D01*
X0106186Y0055859D01*
X0106313Y0055911D01*
X0106441Y0055960D01*
X0106571Y0056005D01*
X0106702Y0056047D01*
X0106834Y0056084D01*
X0106968Y0056118D01*
X0107102Y0056147D01*
X0107237Y0056173D01*
X0107372Y0056195D01*
X0107509Y0056213D01*
X0107645Y0056227D01*
X0107782Y0056237D01*
X0107920Y0056243D01*
X0108057Y0056245D01*
X0108194Y0056243D01*
X0108332Y0056237D01*
X0108469Y0056227D01*
X0108605Y0056213D01*
X0108742Y0056195D01*
X0108877Y0056173D01*
X0109012Y0056147D01*
X0109146Y0056118D01*
X0109280Y0056084D01*
X0109412Y0056047D01*
X0109543Y0056005D01*
X0109673Y0055960D01*
X0109801Y0055911D01*
X0109928Y0055859D01*
X0110053Y0055802D01*
X0110177Y0055743D01*
X0110299Y0055679D01*
X0110419Y0055612D01*
X0110537Y0055542D01*
X0110653Y0055468D01*
X0110767Y0055391D01*
X0110878Y0055310D01*
X0110987Y0055227D01*
X0111094Y0055140D01*
X0111197Y0055050D01*
X0111299Y0054957D01*
X0111397Y0054861D01*
X0111493Y0054763D01*
X0111586Y0054661D01*
X0111676Y0054558D01*
X0111763Y0054451D01*
X0111846Y0054342D01*
X0111927Y0054231D01*
X0112004Y0054117D01*
X0112078Y0054001D01*
X0112148Y0053883D01*
X0112215Y0053763D01*
X0112279Y0053641D01*
X0112338Y0053517D01*
X0112395Y0053392D01*
X0112447Y0053265D01*
X0112496Y0053137D01*
X0112541Y0053007D01*
X0112583Y0052876D01*
X0112620Y0052744D01*
X0112654Y0052610D01*
X0112683Y0052476D01*
X0112709Y0052341D01*
X0112731Y0052206D01*
X0112749Y0052069D01*
X0112763Y0051933D01*
X0112773Y0051796D01*
X0112779Y0051658D01*
X0112781Y0051521D01*
X0112779Y0051384D01*
X0112773Y0051246D01*
X0112763Y0051109D01*
X0112749Y0050973D01*
X0112731Y0050836D01*
X0112709Y0050701D01*
X0112683Y0050566D01*
X0112654Y0050432D01*
X0112620Y0050298D01*
X0112583Y0050166D01*
X0112541Y0050035D01*
X0112496Y0049905D01*
X0112447Y0049777D01*
X0112395Y0049650D01*
X0112338Y0049525D01*
X0112279Y0049401D01*
X0112215Y0049279D01*
X0112148Y0049159D01*
X0112078Y0049041D01*
X0112004Y0048925D01*
X0111927Y0048811D01*
X0111846Y0048700D01*
X0111763Y0048591D01*
X0111676Y0048484D01*
X0111586Y0048381D01*
X0111493Y0048279D01*
X0111397Y0048181D01*
X0111299Y0048085D01*
X0111197Y0047992D01*
X0111094Y0047902D01*
X0110987Y0047815D01*
X0110878Y0047732D01*
X0110767Y0047651D01*
X0110653Y0047574D01*
X0110537Y0047500D01*
X0110419Y0047430D01*
X0110299Y0047363D01*
X0110177Y0047299D01*
X0110053Y0047240D01*
X0109928Y0047183D01*
X0109801Y0047131D01*
X0109673Y0047082D01*
X0109543Y0047037D01*
X0109412Y0046995D01*
X0109280Y0046958D01*
X0109146Y0046924D01*
X0109012Y0046895D01*
X0108877Y0046869D01*
X0108742Y0046847D01*
X0108605Y0046829D01*
X0108469Y0046815D01*
X0108332Y0046805D01*
X0108194Y0046799D01*
X0108057Y0046797D01*
X0107920Y0046799D01*
X0107782Y0046805D01*
X0107645Y0046815D01*
X0107509Y0046829D01*
X0107372Y0046847D01*
X0107237Y0046869D01*
X0107102Y0046895D01*
X0106968Y0046924D01*
X0106834Y0046958D01*
X0106702Y0046995D01*
X0106571Y0047037D01*
X0106441Y0047082D01*
X0106313Y0047131D01*
X0106186Y0047183D01*
X0106061Y0047240D01*
X0105937Y0047299D01*
X0105815Y0047363D01*
X0105695Y0047430D01*
X0105577Y0047500D01*
X0105461Y0047574D01*
X0105347Y0047651D01*
X0105236Y0047732D01*
X0105127Y0047815D01*
X0105020Y0047902D01*
X0104917Y0047992D01*
X0104815Y0048085D01*
X0104717Y0048181D01*
X0104621Y0048279D01*
X0104528Y0048381D01*
X0104438Y0048484D01*
X0104351Y0048591D01*
X0104268Y0048700D01*
X0104187Y0048811D01*
X0104110Y0048925D01*
X0104036Y0049041D01*
X0103966Y0049159D01*
X0103899Y0049279D01*
X0103835Y0049401D01*
X0103776Y0049525D01*
X0103719Y0049650D01*
X0103667Y0049777D01*
X0103618Y0049905D01*
X0103573Y0050035D01*
X0103531Y0050166D01*
X0103494Y0050298D01*
X0103460Y0050432D01*
X0103431Y0050566D01*
X0103405Y0050701D01*
X0103383Y0050836D01*
X0103365Y0050973D01*
X0103351Y0051109D01*
X0103341Y0051246D01*
X0103335Y0051384D01*
X0103333Y0051521D01*
X0118923Y0051521D02*
X0118925Y0051658D01*
X0118931Y0051796D01*
X0118941Y0051933D01*
X0118955Y0052069D01*
X0118973Y0052206D01*
X0118995Y0052341D01*
X0119021Y0052476D01*
X0119050Y0052610D01*
X0119084Y0052744D01*
X0119121Y0052876D01*
X0119163Y0053007D01*
X0119208Y0053137D01*
X0119257Y0053265D01*
X0119309Y0053392D01*
X0119366Y0053517D01*
X0119425Y0053641D01*
X0119489Y0053763D01*
X0119556Y0053883D01*
X0119626Y0054001D01*
X0119700Y0054117D01*
X0119777Y0054231D01*
X0119858Y0054342D01*
X0119941Y0054451D01*
X0120028Y0054558D01*
X0120118Y0054661D01*
X0120211Y0054763D01*
X0120307Y0054861D01*
X0120405Y0054957D01*
X0120507Y0055050D01*
X0120610Y0055140D01*
X0120717Y0055227D01*
X0120826Y0055310D01*
X0120937Y0055391D01*
X0121051Y0055468D01*
X0121167Y0055542D01*
X0121285Y0055612D01*
X0121405Y0055679D01*
X0121527Y0055743D01*
X0121651Y0055802D01*
X0121776Y0055859D01*
X0121903Y0055911D01*
X0122031Y0055960D01*
X0122161Y0056005D01*
X0122292Y0056047D01*
X0122424Y0056084D01*
X0122558Y0056118D01*
X0122692Y0056147D01*
X0122827Y0056173D01*
X0122962Y0056195D01*
X0123099Y0056213D01*
X0123235Y0056227D01*
X0123372Y0056237D01*
X0123510Y0056243D01*
X0123647Y0056245D01*
X0123784Y0056243D01*
X0123922Y0056237D01*
X0124059Y0056227D01*
X0124195Y0056213D01*
X0124332Y0056195D01*
X0124467Y0056173D01*
X0124602Y0056147D01*
X0124736Y0056118D01*
X0124870Y0056084D01*
X0125002Y0056047D01*
X0125133Y0056005D01*
X0125263Y0055960D01*
X0125391Y0055911D01*
X0125518Y0055859D01*
X0125643Y0055802D01*
X0125767Y0055743D01*
X0125889Y0055679D01*
X0126009Y0055612D01*
X0126127Y0055542D01*
X0126243Y0055468D01*
X0126357Y0055391D01*
X0126468Y0055310D01*
X0126577Y0055227D01*
X0126684Y0055140D01*
X0126787Y0055050D01*
X0126889Y0054957D01*
X0126987Y0054861D01*
X0127083Y0054763D01*
X0127176Y0054661D01*
X0127266Y0054558D01*
X0127353Y0054451D01*
X0127436Y0054342D01*
X0127517Y0054231D01*
X0127594Y0054117D01*
X0127668Y0054001D01*
X0127738Y0053883D01*
X0127805Y0053763D01*
X0127869Y0053641D01*
X0127928Y0053517D01*
X0127985Y0053392D01*
X0128037Y0053265D01*
X0128086Y0053137D01*
X0128131Y0053007D01*
X0128173Y0052876D01*
X0128210Y0052744D01*
X0128244Y0052610D01*
X0128273Y0052476D01*
X0128299Y0052341D01*
X0128321Y0052206D01*
X0128339Y0052069D01*
X0128353Y0051933D01*
X0128363Y0051796D01*
X0128369Y0051658D01*
X0128371Y0051521D01*
X0128369Y0051384D01*
X0128363Y0051246D01*
X0128353Y0051109D01*
X0128339Y0050973D01*
X0128321Y0050836D01*
X0128299Y0050701D01*
X0128273Y0050566D01*
X0128244Y0050432D01*
X0128210Y0050298D01*
X0128173Y0050166D01*
X0128131Y0050035D01*
X0128086Y0049905D01*
X0128037Y0049777D01*
X0127985Y0049650D01*
X0127928Y0049525D01*
X0127869Y0049401D01*
X0127805Y0049279D01*
X0127738Y0049159D01*
X0127668Y0049041D01*
X0127594Y0048925D01*
X0127517Y0048811D01*
X0127436Y0048700D01*
X0127353Y0048591D01*
X0127266Y0048484D01*
X0127176Y0048381D01*
X0127083Y0048279D01*
X0126987Y0048181D01*
X0126889Y0048085D01*
X0126787Y0047992D01*
X0126684Y0047902D01*
X0126577Y0047815D01*
X0126468Y0047732D01*
X0126357Y0047651D01*
X0126243Y0047574D01*
X0126127Y0047500D01*
X0126009Y0047430D01*
X0125889Y0047363D01*
X0125767Y0047299D01*
X0125643Y0047240D01*
X0125518Y0047183D01*
X0125391Y0047131D01*
X0125263Y0047082D01*
X0125133Y0047037D01*
X0125002Y0046995D01*
X0124870Y0046958D01*
X0124736Y0046924D01*
X0124602Y0046895D01*
X0124467Y0046869D01*
X0124332Y0046847D01*
X0124195Y0046829D01*
X0124059Y0046815D01*
X0123922Y0046805D01*
X0123784Y0046799D01*
X0123647Y0046797D01*
X0123510Y0046799D01*
X0123372Y0046805D01*
X0123235Y0046815D01*
X0123099Y0046829D01*
X0122962Y0046847D01*
X0122827Y0046869D01*
X0122692Y0046895D01*
X0122558Y0046924D01*
X0122424Y0046958D01*
X0122292Y0046995D01*
X0122161Y0047037D01*
X0122031Y0047082D01*
X0121903Y0047131D01*
X0121776Y0047183D01*
X0121651Y0047240D01*
X0121527Y0047299D01*
X0121405Y0047363D01*
X0121285Y0047430D01*
X0121167Y0047500D01*
X0121051Y0047574D01*
X0120937Y0047651D01*
X0120826Y0047732D01*
X0120717Y0047815D01*
X0120610Y0047902D01*
X0120507Y0047992D01*
X0120405Y0048085D01*
X0120307Y0048181D01*
X0120211Y0048279D01*
X0120118Y0048381D01*
X0120028Y0048484D01*
X0119941Y0048591D01*
X0119858Y0048700D01*
X0119777Y0048811D01*
X0119700Y0048925D01*
X0119626Y0049041D01*
X0119556Y0049159D01*
X0119489Y0049279D01*
X0119425Y0049401D01*
X0119366Y0049525D01*
X0119309Y0049650D01*
X0119257Y0049777D01*
X0119208Y0049905D01*
X0119163Y0050035D01*
X0119121Y0050166D01*
X0119084Y0050298D01*
X0119050Y0050432D01*
X0119021Y0050566D01*
X0118995Y0050701D01*
X0118973Y0050836D01*
X0118955Y0050973D01*
X0118941Y0051109D01*
X0118931Y0051246D01*
X0118925Y0051384D01*
X0118923Y0051521D01*
X0134514Y0051521D02*
X0134516Y0051658D01*
X0134522Y0051796D01*
X0134532Y0051933D01*
X0134546Y0052069D01*
X0134564Y0052206D01*
X0134586Y0052341D01*
X0134612Y0052476D01*
X0134641Y0052610D01*
X0134675Y0052744D01*
X0134712Y0052876D01*
X0134754Y0053007D01*
X0134799Y0053137D01*
X0134848Y0053265D01*
X0134900Y0053392D01*
X0134957Y0053517D01*
X0135016Y0053641D01*
X0135080Y0053763D01*
X0135147Y0053883D01*
X0135217Y0054001D01*
X0135291Y0054117D01*
X0135368Y0054231D01*
X0135449Y0054342D01*
X0135532Y0054451D01*
X0135619Y0054558D01*
X0135709Y0054661D01*
X0135802Y0054763D01*
X0135898Y0054861D01*
X0135996Y0054957D01*
X0136098Y0055050D01*
X0136201Y0055140D01*
X0136308Y0055227D01*
X0136417Y0055310D01*
X0136528Y0055391D01*
X0136642Y0055468D01*
X0136758Y0055542D01*
X0136876Y0055612D01*
X0136996Y0055679D01*
X0137118Y0055743D01*
X0137242Y0055802D01*
X0137367Y0055859D01*
X0137494Y0055911D01*
X0137622Y0055960D01*
X0137752Y0056005D01*
X0137883Y0056047D01*
X0138015Y0056084D01*
X0138149Y0056118D01*
X0138283Y0056147D01*
X0138418Y0056173D01*
X0138553Y0056195D01*
X0138690Y0056213D01*
X0138826Y0056227D01*
X0138963Y0056237D01*
X0139101Y0056243D01*
X0139238Y0056245D01*
X0139375Y0056243D01*
X0139513Y0056237D01*
X0139650Y0056227D01*
X0139786Y0056213D01*
X0139923Y0056195D01*
X0140058Y0056173D01*
X0140193Y0056147D01*
X0140327Y0056118D01*
X0140461Y0056084D01*
X0140593Y0056047D01*
X0140724Y0056005D01*
X0140854Y0055960D01*
X0140982Y0055911D01*
X0141109Y0055859D01*
X0141234Y0055802D01*
X0141358Y0055743D01*
X0141480Y0055679D01*
X0141600Y0055612D01*
X0141718Y0055542D01*
X0141834Y0055468D01*
X0141948Y0055391D01*
X0142059Y0055310D01*
X0142168Y0055227D01*
X0142275Y0055140D01*
X0142378Y0055050D01*
X0142480Y0054957D01*
X0142578Y0054861D01*
X0142674Y0054763D01*
X0142767Y0054661D01*
X0142857Y0054558D01*
X0142944Y0054451D01*
X0143027Y0054342D01*
X0143108Y0054231D01*
X0143185Y0054117D01*
X0143259Y0054001D01*
X0143329Y0053883D01*
X0143396Y0053763D01*
X0143460Y0053641D01*
X0143519Y0053517D01*
X0143576Y0053392D01*
X0143628Y0053265D01*
X0143677Y0053137D01*
X0143722Y0053007D01*
X0143764Y0052876D01*
X0143801Y0052744D01*
X0143835Y0052610D01*
X0143864Y0052476D01*
X0143890Y0052341D01*
X0143912Y0052206D01*
X0143930Y0052069D01*
X0143944Y0051933D01*
X0143954Y0051796D01*
X0143960Y0051658D01*
X0143962Y0051521D01*
X0143960Y0051384D01*
X0143954Y0051246D01*
X0143944Y0051109D01*
X0143930Y0050973D01*
X0143912Y0050836D01*
X0143890Y0050701D01*
X0143864Y0050566D01*
X0143835Y0050432D01*
X0143801Y0050298D01*
X0143764Y0050166D01*
X0143722Y0050035D01*
X0143677Y0049905D01*
X0143628Y0049777D01*
X0143576Y0049650D01*
X0143519Y0049525D01*
X0143460Y0049401D01*
X0143396Y0049279D01*
X0143329Y0049159D01*
X0143259Y0049041D01*
X0143185Y0048925D01*
X0143108Y0048811D01*
X0143027Y0048700D01*
X0142944Y0048591D01*
X0142857Y0048484D01*
X0142767Y0048381D01*
X0142674Y0048279D01*
X0142578Y0048181D01*
X0142480Y0048085D01*
X0142378Y0047992D01*
X0142275Y0047902D01*
X0142168Y0047815D01*
X0142059Y0047732D01*
X0141948Y0047651D01*
X0141834Y0047574D01*
X0141718Y0047500D01*
X0141600Y0047430D01*
X0141480Y0047363D01*
X0141358Y0047299D01*
X0141234Y0047240D01*
X0141109Y0047183D01*
X0140982Y0047131D01*
X0140854Y0047082D01*
X0140724Y0047037D01*
X0140593Y0046995D01*
X0140461Y0046958D01*
X0140327Y0046924D01*
X0140193Y0046895D01*
X0140058Y0046869D01*
X0139923Y0046847D01*
X0139786Y0046829D01*
X0139650Y0046815D01*
X0139513Y0046805D01*
X0139375Y0046799D01*
X0139238Y0046797D01*
X0139101Y0046799D01*
X0138963Y0046805D01*
X0138826Y0046815D01*
X0138690Y0046829D01*
X0138553Y0046847D01*
X0138418Y0046869D01*
X0138283Y0046895D01*
X0138149Y0046924D01*
X0138015Y0046958D01*
X0137883Y0046995D01*
X0137752Y0047037D01*
X0137622Y0047082D01*
X0137494Y0047131D01*
X0137367Y0047183D01*
X0137242Y0047240D01*
X0137118Y0047299D01*
X0136996Y0047363D01*
X0136876Y0047430D01*
X0136758Y0047500D01*
X0136642Y0047574D01*
X0136528Y0047651D01*
X0136417Y0047732D01*
X0136308Y0047815D01*
X0136201Y0047902D01*
X0136098Y0047992D01*
X0135996Y0048085D01*
X0135898Y0048181D01*
X0135802Y0048279D01*
X0135709Y0048381D01*
X0135619Y0048484D01*
X0135532Y0048591D01*
X0135449Y0048700D01*
X0135368Y0048811D01*
X0135291Y0048925D01*
X0135217Y0049041D01*
X0135147Y0049159D01*
X0135080Y0049279D01*
X0135016Y0049401D01*
X0134957Y0049525D01*
X0134900Y0049650D01*
X0134848Y0049777D01*
X0134799Y0049905D01*
X0134754Y0050035D01*
X0134712Y0050166D01*
X0134675Y0050298D01*
X0134641Y0050432D01*
X0134612Y0050566D01*
X0134586Y0050701D01*
X0134564Y0050836D01*
X0134546Y0050973D01*
X0134532Y0051109D01*
X0134522Y0051246D01*
X0134516Y0051384D01*
X0134514Y0051521D01*
X0150104Y0051521D02*
X0150106Y0051658D01*
X0150112Y0051796D01*
X0150122Y0051933D01*
X0150136Y0052069D01*
X0150154Y0052206D01*
X0150176Y0052341D01*
X0150202Y0052476D01*
X0150231Y0052610D01*
X0150265Y0052744D01*
X0150302Y0052876D01*
X0150344Y0053007D01*
X0150389Y0053137D01*
X0150438Y0053265D01*
X0150490Y0053392D01*
X0150547Y0053517D01*
X0150606Y0053641D01*
X0150670Y0053763D01*
X0150737Y0053883D01*
X0150807Y0054001D01*
X0150881Y0054117D01*
X0150958Y0054231D01*
X0151039Y0054342D01*
X0151122Y0054451D01*
X0151209Y0054558D01*
X0151299Y0054661D01*
X0151392Y0054763D01*
X0151488Y0054861D01*
X0151586Y0054957D01*
X0151688Y0055050D01*
X0151791Y0055140D01*
X0151898Y0055227D01*
X0152007Y0055310D01*
X0152118Y0055391D01*
X0152232Y0055468D01*
X0152348Y0055542D01*
X0152466Y0055612D01*
X0152586Y0055679D01*
X0152708Y0055743D01*
X0152832Y0055802D01*
X0152957Y0055859D01*
X0153084Y0055911D01*
X0153212Y0055960D01*
X0153342Y0056005D01*
X0153473Y0056047D01*
X0153605Y0056084D01*
X0153739Y0056118D01*
X0153873Y0056147D01*
X0154008Y0056173D01*
X0154143Y0056195D01*
X0154280Y0056213D01*
X0154416Y0056227D01*
X0154553Y0056237D01*
X0154691Y0056243D01*
X0154828Y0056245D01*
X0154965Y0056243D01*
X0155103Y0056237D01*
X0155240Y0056227D01*
X0155376Y0056213D01*
X0155513Y0056195D01*
X0155648Y0056173D01*
X0155783Y0056147D01*
X0155917Y0056118D01*
X0156051Y0056084D01*
X0156183Y0056047D01*
X0156314Y0056005D01*
X0156444Y0055960D01*
X0156572Y0055911D01*
X0156699Y0055859D01*
X0156824Y0055802D01*
X0156948Y0055743D01*
X0157070Y0055679D01*
X0157190Y0055612D01*
X0157308Y0055542D01*
X0157424Y0055468D01*
X0157538Y0055391D01*
X0157649Y0055310D01*
X0157758Y0055227D01*
X0157865Y0055140D01*
X0157968Y0055050D01*
X0158070Y0054957D01*
X0158168Y0054861D01*
X0158264Y0054763D01*
X0158357Y0054661D01*
X0158447Y0054558D01*
X0158534Y0054451D01*
X0158617Y0054342D01*
X0158698Y0054231D01*
X0158775Y0054117D01*
X0158849Y0054001D01*
X0158919Y0053883D01*
X0158986Y0053763D01*
X0159050Y0053641D01*
X0159109Y0053517D01*
X0159166Y0053392D01*
X0159218Y0053265D01*
X0159267Y0053137D01*
X0159312Y0053007D01*
X0159354Y0052876D01*
X0159391Y0052744D01*
X0159425Y0052610D01*
X0159454Y0052476D01*
X0159480Y0052341D01*
X0159502Y0052206D01*
X0159520Y0052069D01*
X0159534Y0051933D01*
X0159544Y0051796D01*
X0159550Y0051658D01*
X0159552Y0051521D01*
X0159550Y0051384D01*
X0159544Y0051246D01*
X0159534Y0051109D01*
X0159520Y0050973D01*
X0159502Y0050836D01*
X0159480Y0050701D01*
X0159454Y0050566D01*
X0159425Y0050432D01*
X0159391Y0050298D01*
X0159354Y0050166D01*
X0159312Y0050035D01*
X0159267Y0049905D01*
X0159218Y0049777D01*
X0159166Y0049650D01*
X0159109Y0049525D01*
X0159050Y0049401D01*
X0158986Y0049279D01*
X0158919Y0049159D01*
X0158849Y0049041D01*
X0158775Y0048925D01*
X0158698Y0048811D01*
X0158617Y0048700D01*
X0158534Y0048591D01*
X0158447Y0048484D01*
X0158357Y0048381D01*
X0158264Y0048279D01*
X0158168Y0048181D01*
X0158070Y0048085D01*
X0157968Y0047992D01*
X0157865Y0047902D01*
X0157758Y0047815D01*
X0157649Y0047732D01*
X0157538Y0047651D01*
X0157424Y0047574D01*
X0157308Y0047500D01*
X0157190Y0047430D01*
X0157070Y0047363D01*
X0156948Y0047299D01*
X0156824Y0047240D01*
X0156699Y0047183D01*
X0156572Y0047131D01*
X0156444Y0047082D01*
X0156314Y0047037D01*
X0156183Y0046995D01*
X0156051Y0046958D01*
X0155917Y0046924D01*
X0155783Y0046895D01*
X0155648Y0046869D01*
X0155513Y0046847D01*
X0155376Y0046829D01*
X0155240Y0046815D01*
X0155103Y0046805D01*
X0154965Y0046799D01*
X0154828Y0046797D01*
X0154691Y0046799D01*
X0154553Y0046805D01*
X0154416Y0046815D01*
X0154280Y0046829D01*
X0154143Y0046847D01*
X0154008Y0046869D01*
X0153873Y0046895D01*
X0153739Y0046924D01*
X0153605Y0046958D01*
X0153473Y0046995D01*
X0153342Y0047037D01*
X0153212Y0047082D01*
X0153084Y0047131D01*
X0152957Y0047183D01*
X0152832Y0047240D01*
X0152708Y0047299D01*
X0152586Y0047363D01*
X0152466Y0047430D01*
X0152348Y0047500D01*
X0152232Y0047574D01*
X0152118Y0047651D01*
X0152007Y0047732D01*
X0151898Y0047815D01*
X0151791Y0047902D01*
X0151688Y0047992D01*
X0151586Y0048085D01*
X0151488Y0048181D01*
X0151392Y0048279D01*
X0151299Y0048381D01*
X0151209Y0048484D01*
X0151122Y0048591D01*
X0151039Y0048700D01*
X0150958Y0048811D01*
X0150881Y0048925D01*
X0150807Y0049041D01*
X0150737Y0049159D01*
X0150670Y0049279D01*
X0150606Y0049401D01*
X0150547Y0049525D01*
X0150490Y0049650D01*
X0150438Y0049777D01*
X0150389Y0049905D01*
X0150344Y0050035D01*
X0150302Y0050166D01*
X0150265Y0050298D01*
X0150231Y0050432D01*
X0150202Y0050566D01*
X0150176Y0050701D01*
X0150154Y0050836D01*
X0150136Y0050973D01*
X0150122Y0051109D01*
X0150112Y0051246D01*
X0150106Y0051384D01*
X0150104Y0051521D01*
X0165695Y0051521D02*
X0165697Y0051658D01*
X0165703Y0051796D01*
X0165713Y0051933D01*
X0165727Y0052069D01*
X0165745Y0052206D01*
X0165767Y0052341D01*
X0165793Y0052476D01*
X0165822Y0052610D01*
X0165856Y0052744D01*
X0165893Y0052876D01*
X0165935Y0053007D01*
X0165980Y0053137D01*
X0166029Y0053265D01*
X0166081Y0053392D01*
X0166138Y0053517D01*
X0166197Y0053641D01*
X0166261Y0053763D01*
X0166328Y0053883D01*
X0166398Y0054001D01*
X0166472Y0054117D01*
X0166549Y0054231D01*
X0166630Y0054342D01*
X0166713Y0054451D01*
X0166800Y0054558D01*
X0166890Y0054661D01*
X0166983Y0054763D01*
X0167079Y0054861D01*
X0167177Y0054957D01*
X0167279Y0055050D01*
X0167382Y0055140D01*
X0167489Y0055227D01*
X0167598Y0055310D01*
X0167709Y0055391D01*
X0167823Y0055468D01*
X0167939Y0055542D01*
X0168057Y0055612D01*
X0168177Y0055679D01*
X0168299Y0055743D01*
X0168423Y0055802D01*
X0168548Y0055859D01*
X0168675Y0055911D01*
X0168803Y0055960D01*
X0168933Y0056005D01*
X0169064Y0056047D01*
X0169196Y0056084D01*
X0169330Y0056118D01*
X0169464Y0056147D01*
X0169599Y0056173D01*
X0169734Y0056195D01*
X0169871Y0056213D01*
X0170007Y0056227D01*
X0170144Y0056237D01*
X0170282Y0056243D01*
X0170419Y0056245D01*
X0170556Y0056243D01*
X0170694Y0056237D01*
X0170831Y0056227D01*
X0170967Y0056213D01*
X0171104Y0056195D01*
X0171239Y0056173D01*
X0171374Y0056147D01*
X0171508Y0056118D01*
X0171642Y0056084D01*
X0171774Y0056047D01*
X0171905Y0056005D01*
X0172035Y0055960D01*
X0172163Y0055911D01*
X0172290Y0055859D01*
X0172415Y0055802D01*
X0172539Y0055743D01*
X0172661Y0055679D01*
X0172781Y0055612D01*
X0172899Y0055542D01*
X0173015Y0055468D01*
X0173129Y0055391D01*
X0173240Y0055310D01*
X0173349Y0055227D01*
X0173456Y0055140D01*
X0173559Y0055050D01*
X0173661Y0054957D01*
X0173759Y0054861D01*
X0173855Y0054763D01*
X0173948Y0054661D01*
X0174038Y0054558D01*
X0174125Y0054451D01*
X0174208Y0054342D01*
X0174289Y0054231D01*
X0174366Y0054117D01*
X0174440Y0054001D01*
X0174510Y0053883D01*
X0174577Y0053763D01*
X0174641Y0053641D01*
X0174700Y0053517D01*
X0174757Y0053392D01*
X0174809Y0053265D01*
X0174858Y0053137D01*
X0174903Y0053007D01*
X0174945Y0052876D01*
X0174982Y0052744D01*
X0175016Y0052610D01*
X0175045Y0052476D01*
X0175071Y0052341D01*
X0175093Y0052206D01*
X0175111Y0052069D01*
X0175125Y0051933D01*
X0175135Y0051796D01*
X0175141Y0051658D01*
X0175143Y0051521D01*
X0175141Y0051384D01*
X0175135Y0051246D01*
X0175125Y0051109D01*
X0175111Y0050973D01*
X0175093Y0050836D01*
X0175071Y0050701D01*
X0175045Y0050566D01*
X0175016Y0050432D01*
X0174982Y0050298D01*
X0174945Y0050166D01*
X0174903Y0050035D01*
X0174858Y0049905D01*
X0174809Y0049777D01*
X0174757Y0049650D01*
X0174700Y0049525D01*
X0174641Y0049401D01*
X0174577Y0049279D01*
X0174510Y0049159D01*
X0174440Y0049041D01*
X0174366Y0048925D01*
X0174289Y0048811D01*
X0174208Y0048700D01*
X0174125Y0048591D01*
X0174038Y0048484D01*
X0173948Y0048381D01*
X0173855Y0048279D01*
X0173759Y0048181D01*
X0173661Y0048085D01*
X0173559Y0047992D01*
X0173456Y0047902D01*
X0173349Y0047815D01*
X0173240Y0047732D01*
X0173129Y0047651D01*
X0173015Y0047574D01*
X0172899Y0047500D01*
X0172781Y0047430D01*
X0172661Y0047363D01*
X0172539Y0047299D01*
X0172415Y0047240D01*
X0172290Y0047183D01*
X0172163Y0047131D01*
X0172035Y0047082D01*
X0171905Y0047037D01*
X0171774Y0046995D01*
X0171642Y0046958D01*
X0171508Y0046924D01*
X0171374Y0046895D01*
X0171239Y0046869D01*
X0171104Y0046847D01*
X0170967Y0046829D01*
X0170831Y0046815D01*
X0170694Y0046805D01*
X0170556Y0046799D01*
X0170419Y0046797D01*
X0170282Y0046799D01*
X0170144Y0046805D01*
X0170007Y0046815D01*
X0169871Y0046829D01*
X0169734Y0046847D01*
X0169599Y0046869D01*
X0169464Y0046895D01*
X0169330Y0046924D01*
X0169196Y0046958D01*
X0169064Y0046995D01*
X0168933Y0047037D01*
X0168803Y0047082D01*
X0168675Y0047131D01*
X0168548Y0047183D01*
X0168423Y0047240D01*
X0168299Y0047299D01*
X0168177Y0047363D01*
X0168057Y0047430D01*
X0167939Y0047500D01*
X0167823Y0047574D01*
X0167709Y0047651D01*
X0167598Y0047732D01*
X0167489Y0047815D01*
X0167382Y0047902D01*
X0167279Y0047992D01*
X0167177Y0048085D01*
X0167079Y0048181D01*
X0166983Y0048279D01*
X0166890Y0048381D01*
X0166800Y0048484D01*
X0166713Y0048591D01*
X0166630Y0048700D01*
X0166549Y0048811D01*
X0166472Y0048925D01*
X0166398Y0049041D01*
X0166328Y0049159D01*
X0166261Y0049279D01*
X0166197Y0049401D01*
X0166138Y0049525D01*
X0166081Y0049650D01*
X0166029Y0049777D01*
X0165980Y0049905D01*
X0165935Y0050035D01*
X0165893Y0050166D01*
X0165856Y0050298D01*
X0165822Y0050432D01*
X0165793Y0050566D01*
X0165767Y0050701D01*
X0165745Y0050836D01*
X0165727Y0050973D01*
X0165713Y0051109D01*
X0165703Y0051246D01*
X0165697Y0051384D01*
X0165695Y0051521D01*
X0181285Y0051521D02*
X0181287Y0051658D01*
X0181293Y0051796D01*
X0181303Y0051933D01*
X0181317Y0052069D01*
X0181335Y0052206D01*
X0181357Y0052341D01*
X0181383Y0052476D01*
X0181412Y0052610D01*
X0181446Y0052744D01*
X0181483Y0052876D01*
X0181525Y0053007D01*
X0181570Y0053137D01*
X0181619Y0053265D01*
X0181671Y0053392D01*
X0181728Y0053517D01*
X0181787Y0053641D01*
X0181851Y0053763D01*
X0181918Y0053883D01*
X0181988Y0054001D01*
X0182062Y0054117D01*
X0182139Y0054231D01*
X0182220Y0054342D01*
X0182303Y0054451D01*
X0182390Y0054558D01*
X0182480Y0054661D01*
X0182573Y0054763D01*
X0182669Y0054861D01*
X0182767Y0054957D01*
X0182869Y0055050D01*
X0182972Y0055140D01*
X0183079Y0055227D01*
X0183188Y0055310D01*
X0183299Y0055391D01*
X0183413Y0055468D01*
X0183529Y0055542D01*
X0183647Y0055612D01*
X0183767Y0055679D01*
X0183889Y0055743D01*
X0184013Y0055802D01*
X0184138Y0055859D01*
X0184265Y0055911D01*
X0184393Y0055960D01*
X0184523Y0056005D01*
X0184654Y0056047D01*
X0184786Y0056084D01*
X0184920Y0056118D01*
X0185054Y0056147D01*
X0185189Y0056173D01*
X0185324Y0056195D01*
X0185461Y0056213D01*
X0185597Y0056227D01*
X0185734Y0056237D01*
X0185872Y0056243D01*
X0186009Y0056245D01*
X0186146Y0056243D01*
X0186284Y0056237D01*
X0186421Y0056227D01*
X0186557Y0056213D01*
X0186694Y0056195D01*
X0186829Y0056173D01*
X0186964Y0056147D01*
X0187098Y0056118D01*
X0187232Y0056084D01*
X0187364Y0056047D01*
X0187495Y0056005D01*
X0187625Y0055960D01*
X0187753Y0055911D01*
X0187880Y0055859D01*
X0188005Y0055802D01*
X0188129Y0055743D01*
X0188251Y0055679D01*
X0188371Y0055612D01*
X0188489Y0055542D01*
X0188605Y0055468D01*
X0188719Y0055391D01*
X0188830Y0055310D01*
X0188939Y0055227D01*
X0189046Y0055140D01*
X0189149Y0055050D01*
X0189251Y0054957D01*
X0189349Y0054861D01*
X0189445Y0054763D01*
X0189538Y0054661D01*
X0189628Y0054558D01*
X0189715Y0054451D01*
X0189798Y0054342D01*
X0189879Y0054231D01*
X0189956Y0054117D01*
X0190030Y0054001D01*
X0190100Y0053883D01*
X0190167Y0053763D01*
X0190231Y0053641D01*
X0190290Y0053517D01*
X0190347Y0053392D01*
X0190399Y0053265D01*
X0190448Y0053137D01*
X0190493Y0053007D01*
X0190535Y0052876D01*
X0190572Y0052744D01*
X0190606Y0052610D01*
X0190635Y0052476D01*
X0190661Y0052341D01*
X0190683Y0052206D01*
X0190701Y0052069D01*
X0190715Y0051933D01*
X0190725Y0051796D01*
X0190731Y0051658D01*
X0190733Y0051521D01*
X0190731Y0051384D01*
X0190725Y0051246D01*
X0190715Y0051109D01*
X0190701Y0050973D01*
X0190683Y0050836D01*
X0190661Y0050701D01*
X0190635Y0050566D01*
X0190606Y0050432D01*
X0190572Y0050298D01*
X0190535Y0050166D01*
X0190493Y0050035D01*
X0190448Y0049905D01*
X0190399Y0049777D01*
X0190347Y0049650D01*
X0190290Y0049525D01*
X0190231Y0049401D01*
X0190167Y0049279D01*
X0190100Y0049159D01*
X0190030Y0049041D01*
X0189956Y0048925D01*
X0189879Y0048811D01*
X0189798Y0048700D01*
X0189715Y0048591D01*
X0189628Y0048484D01*
X0189538Y0048381D01*
X0189445Y0048279D01*
X0189349Y0048181D01*
X0189251Y0048085D01*
X0189149Y0047992D01*
X0189046Y0047902D01*
X0188939Y0047815D01*
X0188830Y0047732D01*
X0188719Y0047651D01*
X0188605Y0047574D01*
X0188489Y0047500D01*
X0188371Y0047430D01*
X0188251Y0047363D01*
X0188129Y0047299D01*
X0188005Y0047240D01*
X0187880Y0047183D01*
X0187753Y0047131D01*
X0187625Y0047082D01*
X0187495Y0047037D01*
X0187364Y0046995D01*
X0187232Y0046958D01*
X0187098Y0046924D01*
X0186964Y0046895D01*
X0186829Y0046869D01*
X0186694Y0046847D01*
X0186557Y0046829D01*
X0186421Y0046815D01*
X0186284Y0046805D01*
X0186146Y0046799D01*
X0186009Y0046797D01*
X0185872Y0046799D01*
X0185734Y0046805D01*
X0185597Y0046815D01*
X0185461Y0046829D01*
X0185324Y0046847D01*
X0185189Y0046869D01*
X0185054Y0046895D01*
X0184920Y0046924D01*
X0184786Y0046958D01*
X0184654Y0046995D01*
X0184523Y0047037D01*
X0184393Y0047082D01*
X0184265Y0047131D01*
X0184138Y0047183D01*
X0184013Y0047240D01*
X0183889Y0047299D01*
X0183767Y0047363D01*
X0183647Y0047430D01*
X0183529Y0047500D01*
X0183413Y0047574D01*
X0183299Y0047651D01*
X0183188Y0047732D01*
X0183079Y0047815D01*
X0182972Y0047902D01*
X0182869Y0047992D01*
X0182767Y0048085D01*
X0182669Y0048181D01*
X0182573Y0048279D01*
X0182480Y0048381D01*
X0182390Y0048484D01*
X0182303Y0048591D01*
X0182220Y0048700D01*
X0182139Y0048811D01*
X0182062Y0048925D01*
X0181988Y0049041D01*
X0181918Y0049159D01*
X0181851Y0049279D01*
X0181787Y0049401D01*
X0181728Y0049525D01*
X0181671Y0049650D01*
X0181619Y0049777D01*
X0181570Y0049905D01*
X0181525Y0050035D01*
X0181483Y0050166D01*
X0181446Y0050298D01*
X0181412Y0050432D01*
X0181383Y0050566D01*
X0181357Y0050701D01*
X0181335Y0050836D01*
X0181317Y0050973D01*
X0181303Y0051109D01*
X0181293Y0051246D01*
X0181287Y0051384D01*
X0181285Y0051521D01*
D12*
X0175426Y0067003D02*
X0175175Y0067003D01*
X0174867Y0067003D01*
X0174517Y0067002D01*
X0174167Y0067002D01*
X0173775Y0067001D01*
X0173357Y0067000D01*
X0172938Y0067000D01*
X0172494Y0066999D01*
X0172038Y0066998D01*
X0171850Y0066997D01*
X0171659Y0066997D01*
X0171469Y0066996D01*
X0171406Y0069216D01*
X0171406Y0087414D01*
X0171177Y0087454D01*
X0170950Y0087489D01*
X0170723Y0087521D01*
X0170496Y0087554D01*
X0170269Y0087582D01*
X0170044Y0087606D01*
X0169818Y0087631D01*
X0169592Y0087652D01*
X0169367Y0087670D01*
X0169142Y0087687D01*
X0168917Y0087702D01*
X0168466Y0087723D01*
X0168241Y0087731D01*
X0168016Y0087735D01*
X0167790Y0087739D01*
X0167565Y0087740D01*
X0167339Y0087739D01*
X0167112Y0087737D01*
X0166886Y0087732D01*
X0166658Y0087724D01*
X0166431Y0087716D01*
X0166202Y0087705D01*
X0165973Y0087692D01*
X0165534Y0087666D01*
X0165078Y0087617D01*
X0164617Y0087536D01*
X0164156Y0087456D01*
X0163689Y0087344D01*
X0163228Y0087193D01*
X0162766Y0087041D01*
X0162311Y0086851D01*
X0161871Y0086612D01*
X0161432Y0086373D01*
X0161009Y0086086D01*
X0160216Y0085401D01*
X0159848Y0085002D01*
X0159186Y0084075D01*
X0158894Y0083548D01*
X0158406Y0082348D01*
X0158211Y0081675D01*
X0158076Y0080922D01*
X0157942Y0080168D01*
X0157866Y0079334D01*
X0157862Y0078411D01*
X0157858Y0077437D01*
X0157945Y0076564D01*
X0158106Y0075783D01*
X0158266Y0075002D01*
X0158499Y0074313D01*
X0158786Y0073703D01*
X0159072Y0073094D01*
X0159411Y0072565D01*
X0160157Y0071647D01*
X0160563Y0071258D01*
X0160984Y0070928D01*
X0161404Y0070597D01*
X0161838Y0070326D01*
X0162696Y0069880D01*
X0163118Y0069705D01*
X0163516Y0069567D01*
X0163914Y0069429D01*
X0164286Y0069329D01*
X0164614Y0069255D01*
X0164942Y0069182D01*
X0165224Y0069135D01*
X0165443Y0069104D01*
X0165668Y0069071D01*
X0165897Y0069044D01*
X0166129Y0069023D01*
X0166360Y0069001D01*
X0166595Y0068984D01*
X0166832Y0068972D01*
X0167070Y0068960D01*
X0167310Y0068953D01*
X0167796Y0068948D01*
X0168042Y0068949D01*
X0168291Y0068956D01*
X0168539Y0068962D01*
X0168791Y0068972D01*
X0169045Y0068986D01*
X0169299Y0069000D01*
X0169556Y0069018D01*
X0169816Y0069040D01*
X0170076Y0069062D01*
X0170338Y0069087D01*
X0170868Y0069144D01*
X0170929Y0069176D01*
X0171199Y0069211D01*
X0171344Y0069216D01*
X0171407Y0066996D01*
X0171135Y0066996D01*
X0170924Y0066995D01*
X0170651Y0066995D01*
X0170188Y0066994D01*
X0169729Y0066992D01*
X0169290Y0066991D01*
X0168850Y0066990D01*
X0168430Y0066990D01*
X0168045Y0066989D01*
X0167659Y0066988D01*
X0167309Y0066987D01*
X0167008Y0066987D01*
X0166707Y0066986D01*
X0166456Y0066986D01*
X0165426Y0066986D01*
X0164608Y0067062D01*
X0163825Y0067207D01*
X0163041Y0067352D01*
X0162292Y0067567D01*
X0161583Y0067845D01*
X0160873Y0068123D01*
X0160205Y0068464D01*
X0159582Y0068862D01*
X0158960Y0069261D01*
X0158384Y0069716D01*
X0157861Y0070222D01*
X0157338Y0070728D01*
X0156868Y0071285D01*
X0156456Y0071887D01*
X0156045Y0072488D01*
X0155693Y0073134D01*
X0155407Y0073819D01*
X0155120Y0074503D01*
X0154899Y0075226D01*
X0154749Y0075981D01*
X0154600Y0076736D01*
X0154522Y0077523D01*
X0154522Y0079432D01*
X0154632Y0080431D01*
X0154835Y0081341D01*
X0155037Y0082250D01*
X0155331Y0083071D01*
X0156067Y0084547D01*
X0156508Y0085202D01*
X0157501Y0086363D01*
X0158052Y0086868D01*
X0158640Y0087304D01*
X0159228Y0087740D01*
X0159853Y0088108D01*
X0161138Y0088721D01*
X0161799Y0088966D01*
X0163120Y0089346D01*
X0163780Y0089482D01*
X0164422Y0089570D01*
X0165063Y0089659D01*
X0165686Y0089699D01*
X0166526Y0089699D01*
X0166822Y0089699D01*
X0167151Y0089700D01*
X0167480Y0089700D01*
X0167841Y0089701D01*
X0168224Y0089701D01*
X0168607Y0089702D01*
X0169012Y0089703D01*
X0169845Y0089705D01*
X0170273Y0089705D01*
X0170702Y0089706D01*
X0171131Y0089707D01*
X0171561Y0089708D01*
X0171982Y0089709D01*
X0172404Y0089710D01*
X0172816Y0089711D01*
X0173209Y0089711D01*
X0173602Y0089712D01*
X0173976Y0089713D01*
X0174320Y0089713D01*
X0174664Y0089713D01*
X0174979Y0089714D01*
X0175254Y0089714D01*
X0175212Y0089662D01*
X0175173Y0089601D01*
X0175137Y0089533D01*
X0175101Y0089465D01*
X0175068Y0089390D01*
X0175037Y0089309D01*
X0175007Y0089228D01*
X0174979Y0089141D01*
X0174954Y0089050D01*
X0174930Y0088959D01*
X0174907Y0088863D01*
X0174888Y0088765D01*
X0174868Y0088667D01*
X0174852Y0088566D01*
X0174837Y0088464D01*
X0174823Y0088362D01*
X0174811Y0088259D01*
X0174802Y0088156D01*
X0174792Y0088053D01*
X0174785Y0087951D01*
X0174781Y0087850D01*
X0174776Y0087750D01*
X0174774Y0087651D01*
X0174774Y0087556D01*
X0174774Y0069508D01*
X0174777Y0069402D01*
X0174785Y0069295D01*
X0174792Y0069187D01*
X0174803Y0069077D01*
X0174818Y0068966D01*
X0174832Y0068854D01*
X0174850Y0068741D01*
X0174893Y0068514D01*
X0174917Y0068400D01*
X0174945Y0068286D01*
X0174973Y0068172D01*
X0175004Y0068059D01*
X0175038Y0067947D01*
X0175073Y0067835D01*
X0175110Y0067725D01*
X0175190Y0067508D01*
X0175234Y0067403D01*
X0175280Y0067300D01*
X0175326Y0067197D01*
X0175374Y0067098D01*
X0175426Y0067003D01*
X0175424Y0067007D02*
X0171468Y0067007D01*
X0171406Y0067007D02*
X0165195Y0067007D01*
X0162876Y0067400D02*
X0171395Y0067400D01*
X0171457Y0067400D02*
X0175235Y0067400D01*
X0175087Y0067792D02*
X0171446Y0067792D01*
X0171384Y0067792D02*
X0161718Y0067792D01*
X0160753Y0068184D02*
X0171373Y0068184D01*
X0171435Y0068184D02*
X0174970Y0068184D01*
X0174881Y0068576D02*
X0171424Y0068576D01*
X0171362Y0068576D02*
X0160029Y0068576D01*
X0159416Y0068969D02*
X0166902Y0068969D01*
X0168708Y0068969D02*
X0171351Y0068969D01*
X0171413Y0068969D02*
X0174817Y0068969D01*
X0174780Y0069361D02*
X0171406Y0069361D01*
X0171406Y0069753D02*
X0174774Y0069753D01*
X0174774Y0070145D02*
X0171406Y0070145D01*
X0171406Y0070537D02*
X0174774Y0070537D01*
X0174774Y0070930D02*
X0171406Y0070930D01*
X0171406Y0071322D02*
X0174774Y0071322D01*
X0174774Y0071714D02*
X0171406Y0071714D01*
X0171406Y0072106D02*
X0174774Y0072106D01*
X0174774Y0072498D02*
X0171406Y0072498D01*
X0171406Y0072891D02*
X0174774Y0072891D01*
X0174774Y0073283D02*
X0171406Y0073283D01*
X0171406Y0073675D02*
X0174774Y0073675D01*
X0174774Y0074067D02*
X0171406Y0074067D01*
X0171406Y0074459D02*
X0174774Y0074459D01*
X0174774Y0074852D02*
X0171406Y0074852D01*
X0171406Y0075244D02*
X0174774Y0075244D01*
X0174774Y0075636D02*
X0171406Y0075636D01*
X0171406Y0076028D02*
X0174774Y0076028D01*
X0174774Y0076421D02*
X0171406Y0076421D01*
X0171406Y0076813D02*
X0174774Y0076813D01*
X0174774Y0077205D02*
X0171406Y0077205D01*
X0171406Y0077597D02*
X0174774Y0077597D01*
X0174774Y0077989D02*
X0171406Y0077989D01*
X0171406Y0078382D02*
X0174774Y0078382D01*
X0174774Y0078774D02*
X0171406Y0078774D01*
X0171406Y0079166D02*
X0174774Y0079166D01*
X0174774Y0079558D02*
X0171406Y0079558D01*
X0171406Y0079950D02*
X0174774Y0079950D01*
X0174774Y0080343D02*
X0171406Y0080343D01*
X0171406Y0080735D02*
X0174774Y0080735D01*
X0174774Y0081127D02*
X0171406Y0081127D01*
X0171406Y0081519D02*
X0174774Y0081519D01*
X0174774Y0081912D02*
X0171406Y0081912D01*
X0171406Y0082304D02*
X0174774Y0082304D01*
X0174774Y0082696D02*
X0171406Y0082696D01*
X0171406Y0083088D02*
X0174774Y0083088D01*
X0174774Y0083480D02*
X0171406Y0083480D01*
X0171406Y0083873D02*
X0174774Y0083873D01*
X0174774Y0084265D02*
X0171406Y0084265D01*
X0171406Y0084657D02*
X0174774Y0084657D01*
X0174774Y0085049D02*
X0171406Y0085049D01*
X0171406Y0085441D02*
X0174774Y0085441D01*
X0174774Y0085834D02*
X0171406Y0085834D01*
X0171406Y0086226D02*
X0174774Y0086226D01*
X0174774Y0086618D02*
X0171406Y0086618D01*
X0171406Y0087010D02*
X0174774Y0087010D01*
X0174774Y0087402D02*
X0171406Y0087402D01*
X0174774Y0087556D02*
X0174774Y0087556D01*
X0174778Y0087795D02*
X0159320Y0087795D01*
X0158773Y0087402D02*
X0163932Y0087402D01*
X0162692Y0087010D02*
X0158244Y0087010D01*
X0157780Y0086618D02*
X0161883Y0086618D01*
X0161215Y0086226D02*
X0157384Y0086226D01*
X0157048Y0085834D02*
X0160717Y0085834D01*
X0160264Y0085441D02*
X0156713Y0085441D01*
X0156405Y0085049D02*
X0159892Y0085049D01*
X0159601Y0084657D02*
X0156141Y0084657D01*
X0155926Y0084265D02*
X0159321Y0084265D01*
X0159074Y0083873D02*
X0155731Y0083873D01*
X0155535Y0083480D02*
X0158866Y0083480D01*
X0158707Y0083088D02*
X0155340Y0083088D01*
X0155197Y0082696D02*
X0158548Y0082696D01*
X0158393Y0082304D02*
X0155056Y0082304D01*
X0154962Y0081912D02*
X0158280Y0081912D01*
X0158183Y0081519D02*
X0154874Y0081519D01*
X0154787Y0081127D02*
X0158113Y0081127D01*
X0158043Y0080735D02*
X0154700Y0080735D01*
X0154622Y0080343D02*
X0157973Y0080343D01*
X0157922Y0079950D02*
X0154579Y0079950D01*
X0154536Y0079558D02*
X0157887Y0079558D01*
X0157866Y0079166D02*
X0154522Y0079166D01*
X0154522Y0078774D02*
X0157864Y0078774D01*
X0157862Y0078382D02*
X0154522Y0078382D01*
X0154522Y0077989D02*
X0157860Y0077989D01*
X0157858Y0077597D02*
X0154522Y0077597D01*
X0154553Y0077205D02*
X0157881Y0077205D01*
X0157920Y0076813D02*
X0154592Y0076813D01*
X0154662Y0076421D02*
X0157975Y0076421D01*
X0158055Y0076028D02*
X0154740Y0076028D01*
X0154818Y0075636D02*
X0158136Y0075636D01*
X0158217Y0075244D02*
X0154895Y0075244D01*
X0155014Y0074852D02*
X0158317Y0074852D01*
X0158450Y0074459D02*
X0155138Y0074459D01*
X0155303Y0074067D02*
X0158615Y0074067D01*
X0158799Y0073675D02*
X0155467Y0073675D01*
X0155631Y0073283D02*
X0158983Y0073283D01*
X0159202Y0072891D02*
X0155826Y0072891D01*
X0156040Y0072498D02*
X0159466Y0072498D01*
X0159784Y0072106D02*
X0156306Y0072106D01*
X0156574Y0071714D02*
X0160103Y0071714D01*
X0160497Y0071322D02*
X0156843Y0071322D01*
X0157168Y0070930D02*
X0160981Y0070930D01*
X0161500Y0070537D02*
X0157535Y0070537D01*
X0157940Y0070145D02*
X0162186Y0070145D01*
X0163002Y0069753D02*
X0158346Y0069753D01*
X0158833Y0069361D02*
X0164169Y0069361D01*
X0152412Y0066992D02*
X0152368Y0067046D01*
X0152327Y0067107D01*
X0152288Y0067172D01*
X0152250Y0067237D01*
X0152215Y0067306D01*
X0152182Y0067379D01*
X0152150Y0067451D01*
X0152120Y0067526D01*
X0152093Y0067603D01*
X0152067Y0067679D01*
X0152043Y0067757D01*
X0152021Y0067834D01*
X0152000Y0067911D01*
X0151982Y0067988D01*
X0151966Y0068063D01*
X0151950Y0068138D01*
X0151937Y0068210D01*
X0151927Y0068279D01*
X0151916Y0068348D01*
X0151909Y0068413D01*
X0151903Y0068473D01*
X0151898Y0068533D01*
X0151896Y0068588D01*
X0151896Y0080287D01*
X0151898Y0080399D01*
X0151910Y0080632D01*
X0151918Y0080753D01*
X0151931Y0080876D01*
X0151943Y0080998D01*
X0151958Y0081123D01*
X0151977Y0081248D01*
X0151997Y0081372D01*
X0152020Y0081495D01*
X0152047Y0081616D01*
X0152074Y0081736D01*
X0152105Y0081853D01*
X0152141Y0081964D01*
X0152176Y0082075D01*
X0152216Y0082180D01*
X0152306Y0082374D01*
X0152356Y0082462D01*
X0152411Y0082539D01*
X0152466Y0082616D01*
X0152526Y0082682D01*
X0152592Y0082734D01*
X0152171Y0082800D01*
X0151751Y0082866D01*
X0151330Y0082931D01*
X0150909Y0082997D01*
X0150489Y0083063D01*
X0150068Y0083129D01*
X0149227Y0083260D01*
X0149227Y0080297D01*
X0149119Y0080564D01*
X0148983Y0080824D01*
X0148819Y0081072D01*
X0148656Y0081320D01*
X0148465Y0081556D01*
X0148249Y0081775D01*
X0148032Y0081993D01*
X0147790Y0082195D01*
X0147523Y0082373D01*
X0147257Y0082551D01*
X0146966Y0082707D01*
X0146338Y0082962D01*
X0146000Y0083061D01*
X0145641Y0083126D01*
X0145283Y0083192D01*
X0144902Y0083223D01*
X0144501Y0083216D01*
X0144100Y0083209D01*
X0143679Y0083162D01*
X0143238Y0083071D01*
X0142798Y0082980D01*
X0142338Y0082844D01*
X0141861Y0082659D01*
X0141973Y0082366D01*
X0142085Y0082073D01*
X0142197Y0081780D01*
X0142309Y0081487D01*
X0142420Y0081194D01*
X0142532Y0080902D01*
X0142644Y0080609D01*
X0142756Y0080316D01*
X0143193Y0080523D01*
X0143621Y0080682D01*
X0144453Y0080904D01*
X0144856Y0080968D01*
X0145241Y0080986D01*
X0145626Y0081004D01*
X0145994Y0080977D01*
X0146684Y0080832D01*
X0147006Y0080715D01*
X0147301Y0080554D01*
X0147597Y0080394D01*
X0147865Y0080190D01*
X0148101Y0079945D01*
X0148336Y0079699D01*
X0148540Y0079412D01*
X0148874Y0078756D01*
X0149004Y0078388D01*
X0149180Y0077572D01*
X0149227Y0077125D01*
X0149227Y0068588D01*
X0149226Y0068534D01*
X0149220Y0068417D01*
X0149216Y0068354D01*
X0149210Y0068287D01*
X0149205Y0068221D01*
X0149198Y0068151D01*
X0149189Y0068078D01*
X0149180Y0068006D01*
X0149169Y0067931D01*
X0149145Y0067781D01*
X0149131Y0067704D01*
X0149115Y0067628D01*
X0149099Y0067553D01*
X0149081Y0067477D01*
X0149061Y0067403D01*
X0149041Y0067330D01*
X0149019Y0067258D01*
X0148971Y0067120D01*
X0148945Y0067054D01*
X0148916Y0066992D01*
X0152412Y0066992D01*
X0152400Y0067007D02*
X0148923Y0067007D01*
X0149060Y0067400D02*
X0152173Y0067400D01*
X0152033Y0067792D02*
X0149147Y0067792D01*
X0149201Y0068184D02*
X0151942Y0068184D01*
X0151896Y0068576D02*
X0149227Y0068576D01*
X0149227Y0068969D02*
X0151896Y0068969D01*
X0151896Y0069361D02*
X0149227Y0069361D01*
X0149227Y0069753D02*
X0151896Y0069753D01*
X0151896Y0070145D02*
X0149227Y0070145D01*
X0149227Y0070537D02*
X0151896Y0070537D01*
X0151896Y0070930D02*
X0149227Y0070930D01*
X0149227Y0071322D02*
X0151896Y0071322D01*
X0151896Y0071714D02*
X0149227Y0071714D01*
X0149227Y0072106D02*
X0151896Y0072106D01*
X0151896Y0072498D02*
X0149227Y0072498D01*
X0149227Y0072891D02*
X0151896Y0072891D01*
X0151896Y0073283D02*
X0149227Y0073283D01*
X0149227Y0073675D02*
X0151896Y0073675D01*
X0151896Y0074067D02*
X0149227Y0074067D01*
X0149227Y0074459D02*
X0151896Y0074459D01*
X0151896Y0074852D02*
X0149227Y0074852D01*
X0149227Y0075244D02*
X0151896Y0075244D01*
X0151896Y0075636D02*
X0149227Y0075636D01*
X0149227Y0076028D02*
X0151896Y0076028D01*
X0151896Y0076421D02*
X0149227Y0076421D01*
X0149227Y0076813D02*
X0151896Y0076813D01*
X0151896Y0077205D02*
X0149219Y0077205D01*
X0149175Y0077597D02*
X0151896Y0077597D01*
X0151896Y0077989D02*
X0149090Y0077989D01*
X0149005Y0078382D02*
X0151896Y0078382D01*
X0151896Y0078774D02*
X0148865Y0078774D01*
X0148665Y0079166D02*
X0151896Y0079166D01*
X0151896Y0079558D02*
X0148436Y0079558D01*
X0148095Y0079950D02*
X0151896Y0079950D01*
X0151897Y0080343D02*
X0149227Y0080343D01*
X0149208Y0080343D02*
X0147664Y0080343D01*
X0146950Y0080735D02*
X0149029Y0080735D01*
X0149227Y0080735D02*
X0151917Y0080735D01*
X0151959Y0081127D02*
X0149227Y0081127D01*
X0149227Y0081519D02*
X0152025Y0081519D01*
X0152124Y0081912D02*
X0149227Y0081912D01*
X0149227Y0082304D02*
X0152274Y0082304D01*
X0152544Y0082696D02*
X0149227Y0082696D01*
X0149227Y0083088D02*
X0150327Y0083088D01*
X0148494Y0081519D02*
X0142296Y0081519D01*
X0142446Y0081127D02*
X0148783Y0081127D01*
X0148113Y0081912D02*
X0142146Y0081912D01*
X0141997Y0082304D02*
X0147627Y0082304D01*
X0146987Y0082696D02*
X0141957Y0082696D01*
X0143321Y0083088D02*
X0145851Y0083088D01*
X0143820Y0080735D02*
X0142596Y0080735D01*
X0142746Y0080343D02*
X0142812Y0080343D01*
X0141416Y0079558D02*
X0138636Y0079558D01*
X0138614Y0079591D02*
X0138459Y0079794D01*
X0138304Y0079996D01*
X0138133Y0080188D01*
X0137950Y0080365D01*
X0137766Y0080542D01*
X0137569Y0080705D01*
X0137360Y0080849D01*
X0137152Y0080993D01*
X0136932Y0081119D01*
X0136703Y0081222D01*
X0136474Y0081326D01*
X0136236Y0081408D01*
X0135990Y0081463D01*
X0135744Y0081519D01*
X0135491Y0081549D01*
X0134838Y0081549D01*
X0134478Y0081510D01*
X0133824Y0081370D01*
X0133529Y0081269D01*
X0133264Y0081143D01*
X0132999Y0081017D01*
X0132764Y0080867D01*
X0132556Y0080700D01*
X0132349Y0080533D01*
X0132168Y0080348D01*
X0132012Y0080153D01*
X0131856Y0079959D01*
X0131725Y0079754D01*
X0131616Y0079546D01*
X0131507Y0079338D01*
X0131420Y0079126D01*
X0131285Y0078712D01*
X0131237Y0078509D01*
X0131206Y0078317D01*
X0131175Y0078124D01*
X0131160Y0077943D01*
X0131160Y0077780D01*
X0131160Y0077780D01*
X0131289Y0077780D01*
X0131514Y0077780D01*
X0131739Y0077780D01*
X0132061Y0077780D01*
X0132446Y0077780D01*
X0132832Y0077780D01*
X0133282Y0077780D01*
X0133764Y0077779D01*
X0134246Y0077779D01*
X0134760Y0077779D01*
X0135274Y0077779D01*
X0135789Y0077779D01*
X0136303Y0077779D01*
X0136785Y0077779D01*
X0137267Y0077779D01*
X0137717Y0077779D01*
X0138103Y0077779D01*
X0138488Y0077779D01*
X0138810Y0077779D01*
X0139035Y0077780D01*
X0139211Y0077780D01*
X0139306Y0077780D01*
X0139349Y0077781D01*
X0139692Y0076080D01*
X0128583Y0076080D01*
X0128583Y0076559D01*
X0128613Y0077030D01*
X0128674Y0077487D01*
X0128736Y0077944D01*
X0128828Y0078388D01*
X0128954Y0078812D01*
X0129079Y0079236D01*
X0129237Y0079640D01*
X0129622Y0080401D01*
X0129848Y0080756D01*
X0130110Y0081082D01*
X0130372Y0081407D01*
X0130669Y0081703D01*
X0131004Y0081963D01*
X0131338Y0082223D01*
X0131709Y0082448D01*
X0132528Y0082817D01*
X0132976Y0082960D01*
X0133463Y0083058D01*
X0133951Y0083155D01*
X0134478Y0083207D01*
X0135636Y0083207D01*
X0136195Y0083149D01*
X0136723Y0083039D01*
X0137251Y0082929D01*
X0137748Y0082766D01*
X0138211Y0082557D01*
X0138674Y0082347D01*
X0139103Y0082090D01*
X0139498Y0081791D01*
X0139892Y0081492D01*
X0140251Y0081151D01*
X0140574Y0080774D01*
X0140896Y0080396D01*
X0141182Y0079982D01*
X0141429Y0079536D01*
X0141676Y0079090D01*
X0141884Y0078613D01*
X0142052Y0078109D01*
X0142220Y0077605D01*
X0142348Y0077075D01*
X0142434Y0076524D01*
X0142520Y0075973D01*
X0142563Y0075400D01*
X0142563Y0074280D01*
X0142515Y0073755D01*
X0142419Y0073244D01*
X0142323Y0072733D01*
X0142181Y0072235D01*
X0141993Y0071758D01*
X0141805Y0071280D01*
X0141572Y0070823D01*
X0141019Y0069962D01*
X0140699Y0069558D01*
X0140337Y0069188D01*
X0139975Y0068817D01*
X0139572Y0068480D01*
X0138685Y0067885D01*
X0138202Y0067627D01*
X0137680Y0067416D01*
X0137158Y0067204D01*
X0136598Y0067039D01*
X0135406Y0066815D01*
X0134773Y0066755D01*
X0133895Y0066755D01*
X0133688Y0066762D01*
X0133485Y0066774D01*
X0133282Y0066787D01*
X0133082Y0066805D01*
X0132688Y0066852D01*
X0132494Y0066881D01*
X0132111Y0066949D01*
X0131921Y0066987D01*
X0131732Y0067030D01*
X0131543Y0067073D01*
X0131356Y0067119D01*
X0130983Y0067220D01*
X0130796Y0067274D01*
X0130610Y0067331D01*
X0130423Y0067388D01*
X0130237Y0067448D01*
X0130049Y0067510D01*
X0129861Y0067573D01*
X0129672Y0067638D01*
X0129482Y0067704D01*
X0129415Y0068044D01*
X0129348Y0068384D01*
X0129281Y0068724D01*
X0129214Y0069064D01*
X0129147Y0069404D01*
X0129080Y0069744D01*
X0129013Y0070084D01*
X0128946Y0070425D01*
X0129109Y0070290D01*
X0129284Y0070163D01*
X0129470Y0070043D01*
X0129656Y0069923D01*
X0129853Y0069810D01*
X0130058Y0069705D01*
X0130263Y0069600D01*
X0130477Y0069502D01*
X0130698Y0069413D01*
X0130918Y0069323D01*
X0131145Y0069241D01*
X0131609Y0069095D01*
X0131845Y0069030D01*
X0132085Y0068974D01*
X0132324Y0068918D01*
X0132566Y0068871D01*
X0132808Y0068832D01*
X0133051Y0068794D01*
X0133294Y0068765D01*
X0133536Y0068746D01*
X0133778Y0068726D01*
X0134019Y0068716D01*
X0134257Y0068716D01*
X0134684Y0068717D01*
X0135092Y0068755D01*
X0135479Y0068830D01*
X0135865Y0068905D01*
X0136231Y0069017D01*
X0136573Y0069162D01*
X0136915Y0069308D01*
X0137235Y0069487D01*
X0137529Y0069699D01*
X0137823Y0069910D01*
X0138093Y0070153D01*
X0138335Y0070425D01*
X0138578Y0070698D01*
X0138794Y0071000D01*
X0139168Y0071658D01*
X0139326Y0072014D01*
X0139581Y0072776D01*
X0139679Y0073182D01*
X0139743Y0073610D01*
X0139808Y0074039D01*
X0139840Y0074490D01*
X0139838Y0074961D01*
X0139838Y0075010D01*
X0139837Y0075058D01*
X0139834Y0075154D01*
X0139832Y0075202D01*
X0139829Y0075250D01*
X0139826Y0075297D01*
X0139822Y0075344D01*
X0139815Y0075438D01*
X0139810Y0075485D01*
X0139806Y0075532D01*
X0139801Y0075578D01*
X0139796Y0075625D01*
X0139791Y0075671D01*
X0139785Y0075717D01*
X0139780Y0075763D01*
X0139775Y0075808D01*
X0139769Y0075854D01*
X0139763Y0075899D01*
X0139752Y0075990D01*
X0139746Y0076035D01*
X0139741Y0076080D01*
X0139734Y0076080D01*
X0139390Y0077781D01*
X0139402Y0077781D01*
X0139388Y0077781D01*
X0139343Y0078014D01*
X0139276Y0078248D01*
X0139190Y0078479D01*
X0139104Y0078710D01*
X0138999Y0078937D01*
X0138754Y0079378D01*
X0138614Y0079591D01*
X0138339Y0079950D02*
X0141199Y0079950D01*
X0140933Y0080343D02*
X0137973Y0080343D01*
X0137525Y0080735D02*
X0140607Y0080735D01*
X0140272Y0081127D02*
X0136914Y0081127D01*
X0135741Y0081519D02*
X0139856Y0081519D01*
X0139339Y0081912D02*
X0130938Y0081912D01*
X0130485Y0081519D02*
X0134564Y0081519D01*
X0133230Y0081127D02*
X0130147Y0081127D01*
X0129835Y0080735D02*
X0132599Y0080735D01*
X0132164Y0080343D02*
X0129593Y0080343D01*
X0129394Y0079950D02*
X0131851Y0079950D01*
X0131623Y0079558D02*
X0129205Y0079558D01*
X0129059Y0079166D02*
X0131436Y0079166D01*
X0131305Y0078774D02*
X0128943Y0078774D01*
X0128827Y0078382D02*
X0131216Y0078382D01*
X0131164Y0077989D02*
X0128745Y0077989D01*
X0128689Y0077597D02*
X0139386Y0077597D01*
X0139427Y0077597D02*
X0142222Y0077597D01*
X0142317Y0077205D02*
X0139506Y0077205D01*
X0139465Y0077205D02*
X0128637Y0077205D01*
X0128599Y0076813D02*
X0139544Y0076813D01*
X0139585Y0076813D02*
X0142389Y0076813D01*
X0142450Y0076421D02*
X0139665Y0076421D01*
X0139623Y0076421D02*
X0128583Y0076421D01*
X0126179Y0074567D02*
X0126425Y0074201D01*
X0126671Y0073835D01*
X0126870Y0073410D01*
X0127146Y0072422D01*
X0127222Y0071859D01*
X0127222Y0071037D01*
X0127207Y0070833D01*
X0127172Y0070613D01*
X0127138Y0070393D01*
X0127083Y0070158D01*
X0126925Y0069675D01*
X0126821Y0069427D01*
X0126688Y0069181D01*
X0126555Y0068935D01*
X0126392Y0068692D01*
X0126195Y0068459D01*
X0125998Y0068227D01*
X0125767Y0068006D01*
X0125497Y0067805D01*
X0125227Y0067604D01*
X0124918Y0067424D01*
X0124565Y0067272D01*
X0124212Y0067120D01*
X0123815Y0066998D01*
X0123369Y0066913D01*
X0122923Y0066828D01*
X0122429Y0066782D01*
X0121603Y0066782D01*
X0121340Y0066791D01*
X0121089Y0066812D01*
X0120838Y0066832D01*
X0120601Y0066862D01*
X0120374Y0066903D01*
X0120148Y0066943D01*
X0119934Y0066995D01*
X0119729Y0067056D01*
X0119525Y0067118D01*
X0119331Y0067191D01*
X0119145Y0067275D01*
X0118960Y0067359D01*
X0118783Y0067453D01*
X0118614Y0067560D01*
X0118444Y0067666D01*
X0118283Y0067783D01*
X0117971Y0068041D01*
X0117821Y0068182D01*
X0117676Y0068335D01*
X0117543Y0068475D01*
X0117496Y0068544D01*
X0117369Y0068705D01*
X0117285Y0071908D01*
X0117357Y0071643D01*
X0117430Y0071374D01*
X0117524Y0071108D01*
X0117643Y0070853D01*
X0117763Y0070597D01*
X0117907Y0070351D01*
X0118080Y0070122D01*
X0118253Y0069893D01*
X0118455Y0069679D01*
X0118688Y0069489D01*
X0118922Y0069298D01*
X0119187Y0069130D01*
X0119488Y0068990D01*
X0119789Y0068850D01*
X0120125Y0068740D01*
X0120500Y0068664D01*
X0120875Y0068587D01*
X0121289Y0068546D01*
X0121917Y0068546D01*
X0122095Y0068566D01*
X0122275Y0068603D01*
X0122454Y0068641D01*
X0122635Y0068696D01*
X0122813Y0068768D01*
X0122992Y0068839D01*
X0123168Y0068926D01*
X0123506Y0069130D01*
X0123669Y0069246D01*
X0123820Y0069374D01*
X0123972Y0069502D01*
X0124113Y0069643D01*
X0124239Y0069795D01*
X0124365Y0069946D01*
X0124476Y0070108D01*
X0124569Y0070279D01*
X0124661Y0070450D01*
X0124734Y0070630D01*
X0124784Y0070817D01*
X0124835Y0071004D01*
X0124862Y0071199D01*
X0124862Y0071734D01*
X0124824Y0072036D01*
X0124754Y0072306D01*
X0124683Y0072577D01*
X0124579Y0072817D01*
X0124445Y0073030D01*
X0124311Y0073244D01*
X0124148Y0073431D01*
X0123959Y0073596D01*
X0123771Y0073760D01*
X0123556Y0073902D01*
X0123321Y0074026D01*
X0123085Y0074151D01*
X0122827Y0074256D01*
X0122278Y0074440D01*
X0121985Y0074518D01*
X0121679Y0074586D01*
X0121372Y0074654D01*
X0121052Y0074712D01*
X0120723Y0074765D01*
X0120393Y0074817D01*
X0120054Y0074864D01*
X0119709Y0074909D01*
X0119577Y0074926D01*
X0119446Y0074947D01*
X0119317Y0074971D01*
X0119187Y0074994D01*
X0119060Y0075021D01*
X0118934Y0075051D01*
X0118809Y0075081D01*
X0118686Y0075114D01*
X0118566Y0075150D01*
X0118447Y0075185D01*
X0118331Y0075224D01*
X0118219Y0075264D01*
X0118107Y0075305D01*
X0118000Y0075349D01*
X0117898Y0075394D01*
X0117796Y0075440D01*
X0117700Y0075488D01*
X0117610Y0075537D01*
X0117519Y0075587D01*
X0117436Y0075639D01*
X0117359Y0075693D01*
X0117283Y0075747D01*
X0117214Y0075802D01*
X0117153Y0075859D01*
X0117152Y0075859D01*
X0117152Y0072994D01*
X0117167Y0072726D01*
X0117200Y0072456D01*
X0117201Y0072452D01*
X0117265Y0068815D01*
X0117254Y0068829D01*
X0117241Y0068601D01*
X0117228Y0068373D01*
X0117202Y0067918D01*
X0117189Y0067690D01*
X0117176Y0067462D01*
X0117150Y0067007D01*
X0114257Y0067007D01*
X0114314Y0067114D01*
X0114364Y0067226D01*
X0114409Y0067343D01*
X0114453Y0067461D01*
X0114491Y0067583D01*
X0114524Y0067710D01*
X0114557Y0067837D01*
X0114585Y0067969D01*
X0114609Y0068104D01*
X0114632Y0068239D01*
X0114651Y0068379D01*
X0114667Y0068521D01*
X0114682Y0068664D01*
X0114694Y0068810D01*
X0114703Y0068959D01*
X0114712Y0069108D01*
X0114719Y0069259D01*
X0114723Y0069413D01*
X0114728Y0069567D01*
X0114730Y0069723D01*
X0114733Y0070038D01*
X0114733Y0070198D01*
X0114733Y0077805D01*
X0114771Y0078290D01*
X0114843Y0078739D01*
X0114916Y0079187D01*
X0115023Y0079600D01*
X0115163Y0079978D01*
X0115304Y0080356D01*
X0115476Y0080699D01*
X0115883Y0081317D01*
X0116117Y0081593D01*
X0116379Y0081836D01*
X0116641Y0082078D01*
X0116931Y0082289D01*
X0117247Y0082467D01*
X0117563Y0082646D01*
X0117904Y0082794D01*
X0118270Y0082910D01*
X0118635Y0083027D01*
X0119023Y0083114D01*
X0119843Y0083229D01*
X0120274Y0083257D01*
X0120900Y0083257D01*
X0121089Y0083253D01*
X0121288Y0083245D01*
X0121487Y0083237D01*
X0121696Y0083224D01*
X0121912Y0083208D01*
X0122127Y0083192D01*
X0122349Y0083171D01*
X0122574Y0083146D01*
X0122799Y0083121D01*
X0123027Y0083092D01*
X0123255Y0083059D01*
X0123483Y0083025D01*
X0123711Y0082988D01*
X0123935Y0082945D01*
X0124160Y0082903D01*
X0124381Y0082856D01*
X0124595Y0082805D01*
X0124810Y0082754D01*
X0125017Y0082698D01*
X0125412Y0082577D01*
X0125600Y0082512D01*
X0125774Y0082442D01*
X0125774Y0080111D01*
X0125607Y0080211D01*
X0125436Y0080308D01*
X0125260Y0080401D01*
X0125085Y0080493D01*
X0124905Y0080582D01*
X0124721Y0080666D01*
X0124537Y0080750D01*
X0124348Y0080830D01*
X0124155Y0080903D01*
X0123961Y0080977D01*
X0123763Y0081046D01*
X0123561Y0081108D01*
X0123358Y0081170D01*
X0123150Y0081226D01*
X0122938Y0081274D01*
X0122725Y0081323D01*
X0122508Y0081365D01*
X0122285Y0081399D01*
X0122062Y0081433D01*
X0121834Y0081460D01*
X0121601Y0081477D01*
X0121368Y0081495D01*
X0121129Y0081504D01*
X0120552Y0081504D01*
X0120241Y0081483D01*
X0119951Y0081442D01*
X0119662Y0081401D01*
X0119394Y0081341D01*
X0119149Y0081263D01*
X0118904Y0081184D01*
X0118681Y0081088D01*
X0118481Y0080976D01*
X0118281Y0080864D01*
X0118105Y0080736D01*
X0117952Y0080594D01*
X0117799Y0080451D01*
X0117670Y0080295D01*
X0117565Y0080126D01*
X0117460Y0079957D01*
X0117380Y0079775D01*
X0117324Y0079583D01*
X0117269Y0079391D01*
X0117238Y0079188D01*
X0117234Y0078977D01*
X0117229Y0078765D01*
X0117249Y0078544D01*
X0117296Y0078317D01*
X0117325Y0078179D01*
X0117373Y0078053D01*
X0117438Y0077938D01*
X0117504Y0077824D01*
X0117586Y0077720D01*
X0117682Y0077625D01*
X0117778Y0077531D01*
X0117888Y0077446D01*
X0118128Y0077294D01*
X0118259Y0077227D01*
X0118536Y0077106D01*
X0118682Y0077053D01*
X0118832Y0077006D01*
X0118981Y0076959D01*
X0119136Y0076918D01*
X0119291Y0076882D01*
X0119446Y0076846D01*
X0119602Y0076815D01*
X0119757Y0076788D01*
X0119911Y0076761D01*
X0120063Y0076737D01*
X0120210Y0076717D01*
X0120475Y0076679D01*
X0120784Y0076645D01*
X0121121Y0076604D01*
X0121457Y0076564D01*
X0121823Y0076516D01*
X0122201Y0076452D01*
X0122579Y0076388D01*
X0122971Y0076307D01*
X0123361Y0076198D01*
X0123752Y0076090D01*
X0124140Y0075954D01*
X0124512Y0075780D01*
X0124884Y0075606D01*
X0125239Y0075395D01*
X0125563Y0075135D01*
X0125887Y0074875D01*
X0126179Y0074567D01*
X0126252Y0074459D02*
X0122205Y0074459D01*
X0123243Y0074067D02*
X0126515Y0074067D01*
X0126745Y0073675D02*
X0123868Y0073675D01*
X0124277Y0073283D02*
X0126905Y0073283D01*
X0127015Y0072891D02*
X0124532Y0072891D01*
X0124703Y0072498D02*
X0127124Y0072498D01*
X0127188Y0072106D02*
X0124806Y0072106D01*
X0124862Y0071714D02*
X0127222Y0071714D01*
X0127222Y0071322D02*
X0124862Y0071322D01*
X0124814Y0070930D02*
X0127214Y0070930D01*
X0127160Y0070537D02*
X0124696Y0070537D01*
X0124496Y0070145D02*
X0127079Y0070145D01*
X0126950Y0069753D02*
X0124204Y0069753D01*
X0123805Y0069361D02*
X0126785Y0069361D01*
X0126573Y0068969D02*
X0123238Y0068969D01*
X0122145Y0068576D02*
X0126294Y0068576D01*
X0125953Y0068184D02*
X0117819Y0068184D01*
X0117470Y0068576D02*
X0120987Y0068576D01*
X0119534Y0068969D02*
X0117362Y0068969D01*
X0117262Y0068969D02*
X0114704Y0068969D01*
X0114722Y0069361D02*
X0117255Y0069361D01*
X0117352Y0069361D02*
X0118845Y0069361D01*
X0118385Y0069753D02*
X0117342Y0069753D01*
X0117248Y0069753D02*
X0114731Y0069753D01*
X0114733Y0070145D02*
X0117241Y0070145D01*
X0117331Y0070145D02*
X0118063Y0070145D01*
X0117798Y0070537D02*
X0117321Y0070537D01*
X0117234Y0070537D02*
X0114733Y0070537D01*
X0114733Y0070930D02*
X0117227Y0070930D01*
X0117311Y0070930D02*
X0117607Y0070930D01*
X0117448Y0071322D02*
X0117301Y0071322D01*
X0117221Y0071322D02*
X0114733Y0071322D01*
X0114733Y0071714D02*
X0117214Y0071714D01*
X0117290Y0071714D02*
X0117338Y0071714D01*
X0117207Y0072106D02*
X0114733Y0072106D01*
X0114733Y0072498D02*
X0117195Y0072498D01*
X0117158Y0072891D02*
X0114733Y0072891D01*
X0114733Y0073283D02*
X0117152Y0073283D01*
X0117152Y0073675D02*
X0114733Y0073675D01*
X0114733Y0074067D02*
X0117152Y0074067D01*
X0117152Y0074459D02*
X0114733Y0074459D01*
X0114733Y0074852D02*
X0117152Y0074852D01*
X0117152Y0075244D02*
X0114733Y0075244D01*
X0114733Y0075636D02*
X0117152Y0075636D01*
X0117441Y0075636D02*
X0124820Y0075636D01*
X0125427Y0075244D02*
X0118275Y0075244D01*
X0120141Y0074852D02*
X0125909Y0074852D01*
X0123927Y0076028D02*
X0114733Y0076028D01*
X0114733Y0076421D02*
X0122388Y0076421D01*
X0119617Y0076813D02*
X0114733Y0076813D01*
X0114733Y0077205D02*
X0118309Y0077205D01*
X0117711Y0077597D02*
X0114733Y0077597D01*
X0114748Y0077989D02*
X0117409Y0077989D01*
X0117283Y0078382D02*
X0114786Y0078382D01*
X0114849Y0078774D02*
X0117229Y0078774D01*
X0117238Y0079166D02*
X0114912Y0079166D01*
X0115012Y0079558D02*
X0117317Y0079558D01*
X0117458Y0079950D02*
X0115153Y0079950D01*
X0115299Y0080343D02*
X0117709Y0080343D01*
X0118104Y0080735D02*
X0115500Y0080735D01*
X0115758Y0081127D02*
X0118771Y0081127D01*
X0117678Y0082696D02*
X0125024Y0082696D01*
X0125774Y0082304D02*
X0116957Y0082304D01*
X0116461Y0081912D02*
X0125774Y0081912D01*
X0125774Y0081519D02*
X0116055Y0081519D01*
X0118908Y0083088D02*
X0123056Y0083088D01*
X0123497Y0081127D02*
X0125774Y0081127D01*
X0125774Y0080735D02*
X0124570Y0080735D01*
X0125370Y0080343D02*
X0125774Y0080343D01*
X0131471Y0082304D02*
X0138746Y0082304D01*
X0137903Y0082696D02*
X0132260Y0082696D01*
X0133616Y0083088D02*
X0136487Y0083088D01*
X0138872Y0079166D02*
X0141634Y0079166D01*
X0141814Y0078774D02*
X0139075Y0078774D01*
X0139227Y0078382D02*
X0141961Y0078382D01*
X0142092Y0077989D02*
X0139348Y0077989D01*
X0139388Y0077781D02*
X0139388Y0077781D01*
X0139747Y0076028D02*
X0142511Y0076028D01*
X0142545Y0075636D02*
X0139795Y0075636D01*
X0139829Y0075244D02*
X0142563Y0075244D01*
X0142563Y0074852D02*
X0139839Y0074852D01*
X0139838Y0074459D02*
X0142563Y0074459D01*
X0142544Y0074067D02*
X0139810Y0074067D01*
X0139753Y0073675D02*
X0142500Y0073675D01*
X0142426Y0073283D02*
X0139694Y0073283D01*
X0139609Y0072891D02*
X0142353Y0072891D01*
X0142256Y0072498D02*
X0139488Y0072498D01*
X0139357Y0072106D02*
X0142130Y0072106D01*
X0141976Y0071714D02*
X0139193Y0071714D01*
X0138977Y0071322D02*
X0141821Y0071322D01*
X0141626Y0070930D02*
X0138744Y0070930D01*
X0138435Y0070537D02*
X0141388Y0070537D01*
X0141136Y0070145D02*
X0138084Y0070145D01*
X0137605Y0069753D02*
X0140853Y0069753D01*
X0140506Y0069361D02*
X0137010Y0069361D01*
X0136072Y0068969D02*
X0140123Y0068969D01*
X0139687Y0068576D02*
X0129310Y0068576D01*
X0129387Y0068184D02*
X0139131Y0068184D01*
X0138511Y0067792D02*
X0129465Y0067792D01*
X0130387Y0067400D02*
X0137640Y0067400D01*
X0136430Y0067007D02*
X0131831Y0067007D01*
X0132108Y0068969D02*
X0129233Y0068969D01*
X0129156Y0069361D02*
X0130825Y0069361D01*
X0129965Y0069753D02*
X0129078Y0069753D01*
X0129001Y0070145D02*
X0129312Y0070145D01*
X0125479Y0067792D02*
X0118272Y0067792D01*
X0118883Y0067400D02*
X0124862Y0067400D01*
X0123846Y0067007D02*
X0119891Y0067007D01*
X0117150Y0067007D02*
X0114257Y0067007D01*
X0114430Y0067400D02*
X0117173Y0067400D01*
X0117195Y0067792D02*
X0114545Y0067792D01*
X0114623Y0068184D02*
X0117217Y0068184D01*
X0117240Y0068576D02*
X0114673Y0068576D01*
X0111919Y0067897D02*
X0111940Y0067814D01*
X0111964Y0067730D01*
X0111991Y0067648D01*
X0112018Y0067566D01*
X0112048Y0067485D01*
X0112080Y0067408D01*
X0112113Y0067332D01*
X0112148Y0067258D01*
X0112186Y0067191D01*
X0112224Y0067123D01*
X0112266Y0067061D01*
X0112310Y0067006D01*
X0108595Y0067006D01*
X0108639Y0067061D01*
X0108680Y0067123D01*
X0108719Y0067191D01*
X0108757Y0067258D01*
X0108792Y0067332D01*
X0108825Y0067408D01*
X0108857Y0067485D01*
X0108887Y0067566D01*
X0108914Y0067648D01*
X0108941Y0067730D01*
X0108965Y0067814D01*
X0108986Y0067897D01*
X0109007Y0067980D01*
X0109025Y0068063D01*
X0109041Y0068143D01*
X0109057Y0068224D01*
X0109070Y0068302D01*
X0109091Y0068448D01*
X0109099Y0068517D01*
X0109104Y0068580D01*
X0109109Y0068643D01*
X0109111Y0068699D01*
X0109111Y0077531D01*
X0109082Y0077884D01*
X0108970Y0078531D01*
X0108889Y0078825D01*
X0108785Y0079091D01*
X0108681Y0079358D01*
X0108555Y0079597D01*
X0108265Y0080023D01*
X0108102Y0080210D01*
X0107924Y0080373D01*
X0107746Y0080537D01*
X0107554Y0080676D01*
X0107350Y0080793D01*
X0107146Y0080910D01*
X0106931Y0081005D01*
X0106709Y0081079D01*
X0106487Y0081154D01*
X0106257Y0081208D01*
X0106024Y0081243D01*
X0105791Y0081279D01*
X0105555Y0081295D01*
X0105104Y0081295D01*
X0104892Y0081284D01*
X0104686Y0081257D01*
X0104480Y0081230D01*
X0104279Y0081188D01*
X0103893Y0081065D01*
X0103708Y0080985D01*
X0103534Y0080881D01*
X0103359Y0080778D01*
X0103196Y0080652D01*
X0103046Y0080499D01*
X0102895Y0080346D01*
X0102758Y0080167D01*
X0102638Y0079957D01*
X0102517Y0079747D01*
X0102412Y0079507D01*
X0102326Y0079232D01*
X0102240Y0078958D01*
X0102173Y0078650D01*
X0102127Y0078303D01*
X0102082Y0077957D01*
X0102058Y0077573D01*
X0102058Y0068699D01*
X0102060Y0068643D01*
X0102065Y0068580D01*
X0102070Y0068517D01*
X0102078Y0068448D01*
X0102099Y0068302D01*
X0102112Y0068224D01*
X0102128Y0068143D01*
X0102144Y0068063D01*
X0102162Y0067980D01*
X0102183Y0067897D01*
X0102205Y0067814D01*
X0102229Y0067730D01*
X0102256Y0067648D01*
X0102282Y0067566D01*
X0102312Y0067485D01*
X0102344Y0067408D01*
X0102377Y0067332D01*
X0102412Y0067258D01*
X0102450Y0067191D01*
X0102489Y0067123D01*
X0102530Y0067061D01*
X0102574Y0067006D01*
X0098971Y0067006D01*
X0099015Y0067061D01*
X0099057Y0067123D01*
X0099095Y0067191D01*
X0099133Y0067258D01*
X0099169Y0067332D01*
X0099201Y0067408D01*
X0099234Y0067485D01*
X0099263Y0067566D01*
X0099290Y0067648D01*
X0099317Y0067730D01*
X0099341Y0067814D01*
X0099362Y0067897D01*
X0099383Y0067980D01*
X0099402Y0068063D01*
X0099417Y0068143D01*
X0099433Y0068224D01*
X0099446Y0068302D01*
X0099467Y0068448D01*
X0099475Y0068517D01*
X0099480Y0068580D01*
X0099485Y0068643D01*
X0099488Y0068699D01*
X0099488Y0077573D01*
X0099455Y0077957D01*
X0099394Y0078303D01*
X0099333Y0078650D01*
X0099244Y0078958D01*
X0099132Y0079232D01*
X0099020Y0079507D01*
X0098884Y0079747D01*
X0098577Y0080167D01*
X0098406Y0080346D01*
X0098220Y0080499D01*
X0098035Y0080652D01*
X0097837Y0080778D01*
X0097630Y0080881D01*
X0097422Y0080984D01*
X0097207Y0081065D01*
X0096768Y0081188D01*
X0096545Y0081230D01*
X0096324Y0081257D01*
X0096102Y0081284D01*
X0095882Y0081295D01*
X0095453Y0081295D01*
X0095238Y0081279D01*
X0094812Y0081208D01*
X0094602Y0081154D01*
X0094398Y0081079D01*
X0094193Y0081005D01*
X0093995Y0080910D01*
X0093618Y0080676D01*
X0093439Y0080537D01*
X0093273Y0080374D01*
X0093108Y0080210D01*
X0092956Y0080023D01*
X0092821Y0079810D01*
X0092686Y0079597D01*
X0092568Y0079358D01*
X0092470Y0079092D01*
X0092373Y0078825D01*
X0092296Y0078531D01*
X0092244Y0078207D01*
X0092191Y0077884D01*
X0092163Y0077531D01*
X0092163Y0068699D01*
X0092166Y0068643D01*
X0092171Y0068580D01*
X0092176Y0068517D01*
X0092184Y0068448D01*
X0092194Y0068375D01*
X0092205Y0068302D01*
X0092218Y0068224D01*
X0092234Y0068143D01*
X0092249Y0068063D01*
X0092268Y0067980D01*
X0092289Y0067897D01*
X0092310Y0067814D01*
X0092334Y0067730D01*
X0092361Y0067648D01*
X0092388Y0067566D01*
X0092417Y0067485D01*
X0092450Y0067408D01*
X0092482Y0067332D01*
X0092518Y0067258D01*
X0092556Y0067191D01*
X0092594Y0067123D01*
X0092636Y0067061D01*
X0092680Y0067006D01*
X0089212Y0067006D01*
X0089256Y0067061D01*
X0089297Y0067123D01*
X0089335Y0067191D01*
X0089374Y0067258D01*
X0089409Y0067332D01*
X0089441Y0067408D01*
X0089474Y0067485D01*
X0089504Y0067566D01*
X0089530Y0067648D01*
X0089557Y0067730D01*
X0089581Y0067814D01*
X0089602Y0067897D01*
X0089624Y0067980D01*
X0089642Y0068063D01*
X0089658Y0068143D01*
X0089674Y0068224D01*
X0089687Y0068302D01*
X0089697Y0068375D01*
X0089707Y0068448D01*
X0089715Y0068517D01*
X0089720Y0068580D01*
X0089725Y0068643D01*
X0089728Y0068699D01*
X0089728Y0078954D01*
X0089755Y0079183D01*
X0089811Y0079421D01*
X0089866Y0079658D01*
X0089950Y0079905D01*
X0090063Y0080152D01*
X0090176Y0080400D01*
X0090319Y0080649D01*
X0090492Y0080892D01*
X0090665Y0081135D01*
X0090869Y0081372D01*
X0091104Y0081596D01*
X0091339Y0081820D01*
X0091607Y0082030D01*
X0091907Y0082220D01*
X0092207Y0082410D01*
X0092539Y0082579D01*
X0092906Y0082721D01*
X0093273Y0082862D01*
X0093674Y0082975D01*
X0094110Y0083053D01*
X0094546Y0083131D01*
X0095017Y0083174D01*
X0095820Y0083174D01*
X0096099Y0083157D01*
X0096630Y0083096D01*
X0096881Y0083052D01*
X0097357Y0082939D01*
X0097582Y0082871D01*
X0097795Y0082794D01*
X0098009Y0082716D01*
X0098210Y0082630D01*
X0098402Y0082536D01*
X0098593Y0082442D01*
X0098774Y0082341D01*
X0098946Y0082235D01*
X0099118Y0082129D01*
X0099281Y0082019D01*
X0099436Y0081906D01*
X0099591Y0081794D01*
X0099738Y0081678D01*
X0099879Y0081563D01*
X0100020Y0081448D01*
X0100155Y0081333D01*
X0100284Y0081220D01*
X0100394Y0081348D01*
X0100513Y0081475D01*
X0100641Y0081600D01*
X0100769Y0081725D01*
X0100906Y0081847D01*
X0101053Y0081964D01*
X0101200Y0082082D01*
X0101357Y0082195D01*
X0101525Y0082301D01*
X0101692Y0082408D01*
X0101870Y0082508D01*
X0102059Y0082601D01*
X0102248Y0082693D01*
X0102449Y0082777D01*
X0102661Y0082852D01*
X0102872Y0082927D01*
X0103096Y0082991D01*
X0103332Y0083044D01*
X0103568Y0083098D01*
X0103816Y0083139D01*
X0104339Y0083196D01*
X0104613Y0083211D01*
X0105182Y0083211D01*
X0105448Y0083191D01*
X0105701Y0083153D01*
X0105953Y0083116D01*
X0106192Y0083061D01*
X0106642Y0082925D01*
X0106853Y0082844D01*
X0107251Y0082662D01*
X0107436Y0082561D01*
X0107783Y0082347D01*
X0107943Y0082233D01*
X0108241Y0082001D01*
X0108378Y0081882D01*
X0108628Y0081646D01*
X0108742Y0081529D01*
X0108844Y0081417D01*
X0108947Y0081304D01*
X0109038Y0081196D01*
X0109119Y0081096D01*
X0109119Y0081120D01*
X0109119Y0081166D01*
X0109119Y0081230D01*
X0109119Y0081294D01*
X0109119Y0081376D01*
X0109118Y0081469D01*
X0109118Y0081562D01*
X0109117Y0081667D01*
X0109117Y0081778D01*
X0109117Y0081888D01*
X0109116Y0082005D01*
X0109116Y0082122D01*
X0109115Y0082239D01*
X0109115Y0082356D01*
X0109114Y0082468D01*
X0109114Y0082580D01*
X0109114Y0082686D01*
X0109113Y0082876D01*
X0109113Y0082959D01*
X0109112Y0083026D01*
X0109112Y0083093D01*
X0109112Y0083142D01*
X0109112Y0083169D01*
X0109538Y0083103D01*
X0109964Y0083037D01*
X0110390Y0082971D01*
X0110815Y0082906D01*
X0111241Y0082840D01*
X0111667Y0082774D01*
X0112519Y0082642D01*
X0112468Y0082588D01*
X0112418Y0082520D01*
X0112370Y0082441D01*
X0112322Y0082361D01*
X0112276Y0082269D01*
X0112233Y0082169D01*
X0112189Y0082068D01*
X0112148Y0081958D01*
X0112071Y0081725D01*
X0112035Y0081602D01*
X0112002Y0081475D01*
X0111970Y0081347D01*
X0111941Y0081216D01*
X0111915Y0081083D01*
X0111889Y0080950D01*
X0111867Y0080815D01*
X0111849Y0080681D01*
X0111831Y0080548D01*
X0111817Y0080415D01*
X0111808Y0080286D01*
X0111798Y0080156D01*
X0111793Y0080030D01*
X0111793Y0068699D01*
X0111796Y0068643D01*
X0111801Y0068580D01*
X0111806Y0068517D01*
X0111814Y0068448D01*
X0111835Y0068302D01*
X0111848Y0068224D01*
X0111864Y0068143D01*
X0111879Y0068063D01*
X0111898Y0067980D01*
X0111919Y0067897D01*
X0111947Y0067792D02*
X0108958Y0067792D01*
X0109049Y0068184D02*
X0111856Y0068184D01*
X0111801Y0068576D02*
X0109103Y0068576D01*
X0109111Y0068969D02*
X0111793Y0068969D01*
X0111793Y0069361D02*
X0109111Y0069361D01*
X0109111Y0069753D02*
X0111793Y0069753D01*
X0111793Y0070145D02*
X0109111Y0070145D01*
X0109111Y0070537D02*
X0111793Y0070537D01*
X0111793Y0070930D02*
X0109111Y0070930D01*
X0109111Y0071322D02*
X0111793Y0071322D01*
X0111793Y0071714D02*
X0109111Y0071714D01*
X0109111Y0072106D02*
X0111793Y0072106D01*
X0111793Y0072498D02*
X0109111Y0072498D01*
X0109111Y0072891D02*
X0111793Y0072891D01*
X0111793Y0073283D02*
X0109111Y0073283D01*
X0109111Y0073675D02*
X0111793Y0073675D01*
X0111793Y0074067D02*
X0109111Y0074067D01*
X0109111Y0074459D02*
X0111793Y0074459D01*
X0111793Y0074852D02*
X0109111Y0074852D01*
X0109111Y0075244D02*
X0111793Y0075244D01*
X0111793Y0075636D02*
X0109111Y0075636D01*
X0109111Y0076028D02*
X0111793Y0076028D01*
X0111793Y0076421D02*
X0109111Y0076421D01*
X0109111Y0076813D02*
X0111793Y0076813D01*
X0111793Y0077205D02*
X0109111Y0077205D01*
X0109106Y0077597D02*
X0111793Y0077597D01*
X0111793Y0077989D02*
X0109063Y0077989D01*
X0108996Y0078382D02*
X0111793Y0078382D01*
X0111793Y0078774D02*
X0108903Y0078774D01*
X0108756Y0079166D02*
X0111793Y0079166D01*
X0111793Y0079558D02*
X0108575Y0079558D01*
X0108315Y0079950D02*
X0111793Y0079950D01*
X0111812Y0080343D02*
X0107958Y0080343D01*
X0107451Y0080735D02*
X0111856Y0080735D01*
X0111923Y0081127D02*
X0109119Y0081127D01*
X0109094Y0081127D02*
X0106566Y0081127D01*
X0107176Y0082696D02*
X0102255Y0082696D01*
X0101529Y0082304D02*
X0107843Y0082304D01*
X0108344Y0081912D02*
X0100987Y0081912D01*
X0100558Y0081519D02*
X0108751Y0081519D01*
X0109118Y0081519D02*
X0112014Y0081519D01*
X0112132Y0081912D02*
X0109116Y0081912D01*
X0109115Y0082304D02*
X0112293Y0082304D01*
X0112171Y0082696D02*
X0109113Y0082696D01*
X0109112Y0083088D02*
X0109635Y0083088D01*
X0106073Y0083088D02*
X0103526Y0083088D01*
X0104088Y0081127D02*
X0096985Y0081127D01*
X0097904Y0080735D02*
X0103304Y0080735D01*
X0102893Y0080343D02*
X0098409Y0080343D01*
X0098736Y0079950D02*
X0102634Y0079950D01*
X0102435Y0079558D02*
X0098991Y0079558D01*
X0099159Y0079166D02*
X0102305Y0079166D01*
X0102200Y0078774D02*
X0099297Y0078774D01*
X0099380Y0078382D02*
X0102138Y0078382D01*
X0102086Y0077989D02*
X0099449Y0077989D01*
X0099485Y0077597D02*
X0102059Y0077597D01*
X0102058Y0077205D02*
X0099488Y0077205D01*
X0099488Y0076813D02*
X0102058Y0076813D01*
X0102058Y0076421D02*
X0099488Y0076421D01*
X0099488Y0076028D02*
X0102058Y0076028D01*
X0102058Y0075636D02*
X0099488Y0075636D01*
X0099488Y0075244D02*
X0102058Y0075244D01*
X0102058Y0074852D02*
X0099488Y0074852D01*
X0099488Y0074459D02*
X0102058Y0074459D01*
X0102058Y0074067D02*
X0099488Y0074067D01*
X0099488Y0073675D02*
X0102058Y0073675D01*
X0102058Y0073283D02*
X0099488Y0073283D01*
X0099488Y0072891D02*
X0102058Y0072891D01*
X0102058Y0072498D02*
X0099488Y0072498D01*
X0099488Y0072106D02*
X0102058Y0072106D01*
X0102058Y0071714D02*
X0099488Y0071714D01*
X0099488Y0071322D02*
X0102058Y0071322D01*
X0102058Y0070930D02*
X0099488Y0070930D01*
X0099488Y0070537D02*
X0102058Y0070537D01*
X0102058Y0070145D02*
X0099488Y0070145D01*
X0099488Y0069753D02*
X0102058Y0069753D01*
X0102058Y0069361D02*
X0099488Y0069361D01*
X0099488Y0068969D02*
X0102058Y0068969D01*
X0102066Y0068576D02*
X0099480Y0068576D01*
X0099425Y0068184D02*
X0102120Y0068184D01*
X0102211Y0067792D02*
X0099334Y0067792D01*
X0099197Y0067400D02*
X0102348Y0067400D01*
X0102573Y0067007D02*
X0098972Y0067007D01*
X0092679Y0067007D02*
X0089212Y0067007D01*
X0089438Y0067400D02*
X0092454Y0067400D01*
X0092316Y0067792D02*
X0089575Y0067792D01*
X0089666Y0068184D02*
X0092226Y0068184D01*
X0092171Y0068576D02*
X0089720Y0068576D01*
X0089728Y0068969D02*
X0092163Y0068969D01*
X0092163Y0069361D02*
X0089728Y0069361D01*
X0089728Y0069753D02*
X0092163Y0069753D01*
X0092163Y0070145D02*
X0089728Y0070145D01*
X0089728Y0070537D02*
X0092163Y0070537D01*
X0092163Y0070930D02*
X0089728Y0070930D01*
X0089728Y0071322D02*
X0092163Y0071322D01*
X0092163Y0071714D02*
X0089728Y0071714D01*
X0089728Y0072106D02*
X0092163Y0072106D01*
X0092163Y0072498D02*
X0089728Y0072498D01*
X0089728Y0072891D02*
X0092163Y0072891D01*
X0092163Y0073283D02*
X0089728Y0073283D01*
X0089728Y0073675D02*
X0092163Y0073675D01*
X0092163Y0074067D02*
X0089728Y0074067D01*
X0089728Y0074459D02*
X0092163Y0074459D01*
X0092163Y0074852D02*
X0089728Y0074852D01*
X0089728Y0075244D02*
X0092163Y0075244D01*
X0092163Y0075636D02*
X0089728Y0075636D01*
X0089728Y0076028D02*
X0092163Y0076028D01*
X0092163Y0076421D02*
X0089728Y0076421D01*
X0089728Y0076813D02*
X0092163Y0076813D01*
X0092163Y0077205D02*
X0089728Y0077205D01*
X0089728Y0077597D02*
X0092169Y0077597D01*
X0092208Y0077989D02*
X0089728Y0077989D01*
X0089728Y0078382D02*
X0092272Y0078382D01*
X0092359Y0078774D02*
X0089728Y0078774D01*
X0089753Y0079166D02*
X0092497Y0079166D01*
X0092666Y0079558D02*
X0089843Y0079558D01*
X0089971Y0079950D02*
X0092910Y0079950D01*
X0093242Y0080343D02*
X0090150Y0080343D01*
X0090380Y0080735D02*
X0093712Y0080735D01*
X0094528Y0081127D02*
X0090659Y0081127D01*
X0091023Y0081519D02*
X0099933Y0081519D01*
X0099429Y0081912D02*
X0091456Y0081912D01*
X0092038Y0082304D02*
X0098834Y0082304D01*
X0098056Y0082696D02*
X0092842Y0082696D01*
X0094307Y0083088D02*
X0096676Y0083088D01*
X0087316Y0083088D02*
X0084083Y0083088D01*
X0084083Y0082696D02*
X0087316Y0082696D01*
X0087316Y0082304D02*
X0084083Y0082304D01*
X0084083Y0081912D02*
X0087316Y0081912D01*
X0087316Y0081519D02*
X0084083Y0081519D01*
X0084083Y0081127D02*
X0087316Y0081127D01*
X0087316Y0080735D02*
X0084083Y0080735D01*
X0084083Y0080343D02*
X0087316Y0080343D01*
X0087316Y0079950D02*
X0084083Y0079950D01*
X0083934Y0079950D02*
X0083633Y0079950D01*
X0083655Y0079960D02*
X0083700Y0079981D01*
X0083746Y0080002D01*
X0083793Y0080025D01*
X0083840Y0080047D01*
X0083888Y0080070D01*
X0083936Y0080095D01*
X0083908Y0078359D01*
X0083850Y0078331D01*
X0083793Y0078304D01*
X0083737Y0078278D01*
X0083681Y0078252D01*
X0083625Y0078227D01*
X0083570Y0078204D01*
X0083515Y0078180D01*
X0083461Y0078158D01*
X0083408Y0078136D01*
X0083354Y0078115D01*
X0083301Y0078095D01*
X0083249Y0078076D01*
X0083197Y0078057D01*
X0083145Y0078039D01*
X0083095Y0078022D01*
X0083044Y0078005D01*
X0082994Y0077989D01*
X0082945Y0077975D01*
X0082895Y0077960D01*
X0082847Y0077947D01*
X0082799Y0077935D01*
X0082731Y0077918D01*
X0082660Y0077901D01*
X0082586Y0077886D01*
X0082513Y0077871D01*
X0082437Y0077857D01*
X0082358Y0077844D01*
X0082279Y0077831D01*
X0082198Y0077819D01*
X0082114Y0077808D01*
X0082030Y0077798D01*
X0081943Y0077788D01*
X0081854Y0077779D01*
X0081764Y0077771D01*
X0081672Y0077763D01*
X0081577Y0077757D01*
X0081481Y0077751D01*
X0081383Y0077745D01*
X0081282Y0077741D01*
X0081181Y0077737D01*
X0081077Y0077733D01*
X0080970Y0077731D01*
X0080863Y0077729D01*
X0080753Y0077728D01*
X0080386Y0077728D01*
X0080137Y0077738D01*
X0079651Y0077775D01*
X0079414Y0077803D01*
X0079182Y0077841D01*
X0078950Y0077878D01*
X0078723Y0077925D01*
X0078503Y0077981D01*
X0078282Y0078038D01*
X0078067Y0078103D01*
X0077857Y0078178D01*
X0077648Y0078253D01*
X0077444Y0078337D01*
X0077246Y0078430D01*
X0077048Y0078523D01*
X0076856Y0078626D01*
X0076670Y0078738D01*
X0076483Y0078850D01*
X0076303Y0078971D01*
X0076129Y0079101D01*
X0075954Y0079231D01*
X0075786Y0079370D01*
X0075624Y0079519D01*
X0075460Y0079669D01*
X0075307Y0079824D01*
X0075163Y0079984D01*
X0075020Y0080144D01*
X0074887Y0080309D01*
X0074764Y0080479D01*
X0074641Y0080649D01*
X0074528Y0080825D01*
X0074425Y0081005D01*
X0074322Y0081185D01*
X0074230Y0081370D01*
X0074147Y0081560D01*
X0074065Y0081750D01*
X0073993Y0081945D01*
X0073931Y0082145D01*
X0073869Y0082344D01*
X0073817Y0082549D01*
X0073735Y0082967D01*
X0073704Y0083181D01*
X0073683Y0083399D01*
X0073662Y0083618D01*
X0073652Y0083841D01*
X0073652Y0084305D01*
X0073663Y0084536D01*
X0073684Y0084763D01*
X0073706Y0084990D01*
X0073738Y0085211D01*
X0073781Y0085428D01*
X0073824Y0085645D01*
X0073878Y0085857D01*
X0073942Y0086063D01*
X0074006Y0086270D01*
X0074081Y0086472D01*
X0074167Y0086668D01*
X0074253Y0086865D01*
X0074349Y0087056D01*
X0074456Y0087243D01*
X0074563Y0087429D01*
X0074680Y0087610D01*
X0074808Y0087785D01*
X0074936Y0087961D01*
X0075075Y0088131D01*
X0075224Y0088296D01*
X0075373Y0088461D01*
X0075533Y0088621D01*
X0075703Y0088775D01*
X0075872Y0088928D01*
X0076045Y0089071D01*
X0076223Y0089205D01*
X0076400Y0089339D01*
X0076582Y0089463D01*
X0076768Y0089578D01*
X0076954Y0089693D01*
X0077145Y0089798D01*
X0077534Y0089990D01*
X0077733Y0090077D01*
X0077936Y0090154D01*
X0078139Y0090230D01*
X0078346Y0090298D01*
X0078557Y0090356D01*
X0078768Y0090413D01*
X0078983Y0090462D01*
X0079202Y0090500D01*
X0079421Y0090539D01*
X0079644Y0090568D01*
X0079870Y0090587D01*
X0080097Y0090606D01*
X0080327Y0090616D01*
X0088289Y0090616D01*
X0088225Y0090533D01*
X0088160Y0090449D01*
X0088096Y0090366D01*
X0088031Y0090283D01*
X0087967Y0090200D01*
X0087902Y0090116D01*
X0087838Y0090033D01*
X0087773Y0089950D01*
X0087750Y0089920D01*
X0087728Y0089890D01*
X0087706Y0089860D01*
X0087684Y0089829D01*
X0087663Y0089798D01*
X0087643Y0089767D01*
X0087622Y0089736D01*
X0087603Y0089704D01*
X0087583Y0089672D01*
X0087564Y0089640D01*
X0087546Y0089608D01*
X0087510Y0089543D01*
X0087493Y0089509D01*
X0087476Y0089476D01*
X0087459Y0089443D01*
X0087444Y0089409D01*
X0087428Y0089375D01*
X0087413Y0089341D01*
X0087398Y0089307D01*
X0087385Y0089272D01*
X0087371Y0089237D01*
X0087357Y0089202D01*
X0087345Y0089167D01*
X0087344Y0089163D01*
X0087342Y0089158D01*
X0087339Y0089146D01*
X0087338Y0089139D01*
X0087336Y0089131D01*
X0087335Y0089123D01*
X0087333Y0089114D01*
X0087332Y0089104D01*
X0087330Y0089094D01*
X0087328Y0089083D01*
X0087327Y0089070D01*
X0087325Y0089058D01*
X0087324Y0089044D01*
X0087323Y0089029D01*
X0087321Y0089014D01*
X0087320Y0088998D01*
X0087319Y0088980D01*
X0087318Y0088963D01*
X0087318Y0088944D01*
X0087317Y0088923D01*
X0087317Y0088902D01*
X0087316Y0088880D01*
X0087316Y0069977D01*
X0087318Y0069946D01*
X0087320Y0069914D01*
X0087324Y0069849D01*
X0087326Y0069816D01*
X0087329Y0069748D01*
X0087331Y0069713D01*
X0087332Y0069678D01*
X0087333Y0069642D01*
X0087335Y0069606D01*
X0087336Y0069569D01*
X0087337Y0069532D01*
X0087338Y0069494D01*
X0087339Y0069416D01*
X0087340Y0069377D01*
X0087341Y0069336D01*
X0087341Y0069296D01*
X0087341Y0069254D01*
X0087342Y0069212D01*
X0087342Y0069170D01*
X0087342Y0069126D01*
X0087342Y0069033D01*
X0087342Y0068987D01*
X0087344Y0068900D01*
X0087345Y0068860D01*
X0087346Y0068822D01*
X0087347Y0068784D01*
X0087349Y0068748D01*
X0087351Y0068716D01*
X0087352Y0068683D01*
X0087354Y0068652D01*
X0087357Y0068624D01*
X0087359Y0068596D01*
X0087361Y0068571D01*
X0087363Y0068547D01*
X0087366Y0068523D01*
X0087368Y0068502D01*
X0087371Y0068482D01*
X0087373Y0068463D01*
X0087376Y0068445D01*
X0087378Y0068429D01*
X0087381Y0068413D01*
X0087383Y0068399D01*
X0087386Y0068387D01*
X0087389Y0068372D01*
X0087392Y0068357D01*
X0087400Y0068327D01*
X0087404Y0068312D01*
X0087409Y0068298D01*
X0087413Y0068283D01*
X0087418Y0068269D01*
X0087423Y0068254D01*
X0087428Y0068240D01*
X0087434Y0068226D01*
X0087446Y0068197D01*
X0087453Y0068183D01*
X0087459Y0068169D01*
X0087466Y0068155D01*
X0087473Y0068141D01*
X0087481Y0068127D01*
X0087489Y0068113D01*
X0087497Y0068099D01*
X0087505Y0068085D01*
X0087514Y0068071D01*
X0087522Y0068057D01*
X0087532Y0068043D01*
X0087539Y0068032D01*
X0087554Y0068009D01*
X0087562Y0067998D01*
X0087570Y0067986D01*
X0087585Y0067963D01*
X0087593Y0067952D01*
X0087598Y0067945D01*
X0087603Y0067938D01*
X0087609Y0067930D01*
X0087616Y0067922D01*
X0087622Y0067913D01*
X0087630Y0067904D01*
X0087637Y0067894D01*
X0087645Y0067884D01*
X0087654Y0067873D01*
X0087663Y0067862D01*
X0087672Y0067850D01*
X0087682Y0067837D01*
X0087693Y0067824D01*
X0087704Y0067810D01*
X0087715Y0067795D01*
X0087727Y0067780D01*
X0087740Y0067765D01*
X0087767Y0067731D01*
X0087781Y0067713D01*
X0087812Y0067676D01*
X0087828Y0067656D01*
X0087845Y0067635D01*
X0087913Y0067550D01*
X0087982Y0067466D01*
X0088050Y0067382D01*
X0088119Y0067298D01*
X0088187Y0067213D01*
X0088324Y0067045D01*
X0088392Y0066961D01*
X0083407Y0066961D01*
X0083437Y0067033D01*
X0083468Y0067104D01*
X0083498Y0067176D01*
X0083528Y0067248D01*
X0083559Y0067320D01*
X0083589Y0067391D01*
X0083619Y0067463D01*
X0083649Y0067535D01*
X0083667Y0067576D01*
X0083683Y0067615D01*
X0083698Y0067651D01*
X0083713Y0067686D01*
X0083727Y0067719D01*
X0083740Y0067749D01*
X0083753Y0067779D01*
X0083764Y0067806D01*
X0083775Y0067831D01*
X0083786Y0067856D01*
X0083795Y0067878D01*
X0083804Y0067899D01*
X0083813Y0067919D01*
X0083820Y0067937D01*
X0083827Y0067953D01*
X0083834Y0067970D01*
X0083840Y0067984D01*
X0083846Y0067997D01*
X0083851Y0068009D01*
X0083856Y0068020D01*
X0083860Y0068030D01*
X0083865Y0068039D01*
X0083868Y0068047D01*
X0083871Y0068054D01*
X0083875Y0068070D01*
X0083879Y0068087D01*
X0083887Y0068122D01*
X0083891Y0068140D01*
X0083896Y0068159D01*
X0083900Y0068178D01*
X0083904Y0068198D01*
X0083909Y0068218D01*
X0083914Y0068239D01*
X0083918Y0068261D01*
X0083923Y0068283D01*
X0083928Y0068305D01*
X0083933Y0068329D01*
X0083938Y0068353D01*
X0083943Y0068377D01*
X0083948Y0068402D01*
X0083954Y0068428D01*
X0083959Y0068454D01*
X0083964Y0068480D01*
X0083970Y0068508D01*
X0083976Y0068536D01*
X0083981Y0068564D01*
X0083987Y0068594D01*
X0083993Y0068624D01*
X0083999Y0068653D01*
X0084004Y0068681D01*
X0084010Y0068710D01*
X0084015Y0068738D01*
X0084019Y0068765D01*
X0084024Y0068792D01*
X0084028Y0068819D01*
X0084033Y0068845D01*
X0084037Y0068870D01*
X0084040Y0068896D01*
X0084047Y0068945D01*
X0084051Y0068968D01*
X0084053Y0068992D01*
X0084056Y0069015D01*
X0084059Y0069037D01*
X0084063Y0069080D01*
X0084065Y0069101D01*
X0084067Y0069122D01*
X0084068Y0069142D01*
X0084069Y0069162D01*
X0084070Y0069180D01*
X0084071Y0069201D01*
X0084072Y0069221D01*
X0084073Y0069243D01*
X0084074Y0069264D01*
X0084075Y0069285D01*
X0084076Y0069307D01*
X0084077Y0069329D01*
X0084077Y0069352D01*
X0084078Y0069374D01*
X0084079Y0069397D01*
X0084079Y0069421D01*
X0084080Y0069445D01*
X0084080Y0069468D01*
X0084081Y0069493D01*
X0084081Y0069518D01*
X0084081Y0069542D01*
X0084082Y0069568D01*
X0084082Y0069594D01*
X0084082Y0069619D01*
X0084082Y0069646D01*
X0084083Y0069673D01*
X0084083Y0069700D01*
X0084083Y0069727D01*
X0084083Y0088064D01*
X0084039Y0088077D01*
X0083995Y0088090D01*
X0083909Y0088114D01*
X0083866Y0088125D01*
X0083824Y0088136D01*
X0083781Y0088147D01*
X0083739Y0088157D01*
X0083698Y0088166D01*
X0083656Y0088176D01*
X0083615Y0088185D01*
X0083574Y0088193D01*
X0083533Y0088201D01*
X0083493Y0088209D01*
X0083453Y0088216D01*
X0083413Y0088223D01*
X0083374Y0088229D01*
X0083335Y0088235D01*
X0083296Y0088241D01*
X0083257Y0088246D01*
X0083219Y0088251D01*
X0083181Y0088255D01*
X0083144Y0088259D01*
X0083106Y0088262D01*
X0081515Y0088262D01*
X0081310Y0088257D01*
X0081113Y0088246D01*
X0080916Y0088234D01*
X0080726Y0088217D01*
X0080543Y0088195D01*
X0080360Y0088172D01*
X0080185Y0088144D01*
X0079848Y0088077D01*
X0079687Y0088037D01*
X0079534Y0087992D01*
X0079380Y0087947D01*
X0079234Y0087897D01*
X0079096Y0087841D01*
X0078957Y0087785D01*
X0078826Y0087723D01*
X0078703Y0087656D01*
X0078579Y0087589D01*
X0078463Y0087516D01*
X0078355Y0087438D01*
X0078246Y0087360D01*
X0078145Y0087276D01*
X0078052Y0087187D01*
X0077966Y0087104D01*
X0077885Y0087016D01*
X0077810Y0086923D01*
X0077735Y0086829D01*
X0077664Y0086729D01*
X0077600Y0086624D01*
X0077535Y0086518D01*
X0077476Y0086407D01*
X0077421Y0086290D01*
X0077367Y0086174D01*
X0077319Y0086051D01*
X0077275Y0085923D01*
X0077232Y0085795D01*
X0077194Y0085661D01*
X0077162Y0085522D01*
X0077129Y0085383D01*
X0077102Y0085238D01*
X0077080Y0085088D01*
X0077058Y0084937D01*
X0077042Y0084782D01*
X0077031Y0084620D01*
X0077020Y0084459D01*
X0077015Y0084292D01*
X0077015Y0083956D01*
X0077021Y0083795D01*
X0077034Y0083639D01*
X0077047Y0083482D01*
X0077066Y0083329D01*
X0077117Y0083031D01*
X0077149Y0082885D01*
X0077188Y0082744D01*
X0077226Y0082602D01*
X0077271Y0082464D01*
X0077323Y0082329D01*
X0077374Y0082195D01*
X0077432Y0082063D01*
X0077497Y0081936D01*
X0077562Y0081808D01*
X0077633Y0081684D01*
X0077789Y0081441D01*
X0077873Y0081324D01*
X0077965Y0081209D01*
X0078056Y0081094D01*
X0078154Y0080983D01*
X0078258Y0080874D01*
X0078362Y0080766D01*
X0078471Y0080665D01*
X0078584Y0080571D01*
X0078697Y0080477D01*
X0078814Y0080389D01*
X0079059Y0080228D01*
X0079186Y0080155D01*
X0079450Y0080021D01*
X0079587Y0079961D01*
X0079728Y0079908D01*
X0079870Y0079855D01*
X0080017Y0079808D01*
X0080168Y0079768D01*
X0080320Y0079729D01*
X0080477Y0079695D01*
X0080639Y0079669D01*
X0080801Y0079643D01*
X0080968Y0079623D01*
X0081141Y0079610D01*
X0081313Y0079596D01*
X0081491Y0079590D01*
X0081743Y0079590D01*
X0081810Y0079591D01*
X0081876Y0079592D01*
X0081941Y0079594D01*
X0082006Y0079596D01*
X0082068Y0079599D01*
X0082131Y0079602D01*
X0082192Y0079605D01*
X0082252Y0079610D01*
X0082311Y0079614D01*
X0082370Y0079619D01*
X0082426Y0079625D01*
X0082483Y0079631D01*
X0082538Y0079638D01*
X0082592Y0079645D01*
X0082645Y0079653D01*
X0082697Y0079661D01*
X0082747Y0079670D01*
X0082798Y0079678D01*
X0082847Y0079688D01*
X0082894Y0079698D01*
X0082941Y0079708D01*
X0082987Y0079719D01*
X0083031Y0079731D01*
X0083068Y0079741D01*
X0083107Y0079752D01*
X0083185Y0079777D01*
X0083225Y0079790D01*
X0083266Y0079804D01*
X0083307Y0079818D01*
X0083349Y0079834D01*
X0083391Y0079850D01*
X0083434Y0079866D01*
X0083477Y0079884D01*
X0083565Y0079920D01*
X0083609Y0079940D01*
X0083655Y0079960D01*
X0083927Y0079558D02*
X0075581Y0079558D01*
X0075193Y0079950D02*
X0079615Y0079950D01*
X0078885Y0080343D02*
X0074862Y0080343D01*
X0074585Y0080735D02*
X0078396Y0080735D01*
X0078029Y0081127D02*
X0074355Y0081127D01*
X0074165Y0081519D02*
X0077739Y0081519D01*
X0077509Y0081912D02*
X0074005Y0081912D01*
X0073882Y0082304D02*
X0077333Y0082304D01*
X0077201Y0082696D02*
X0073788Y0082696D01*
X0073717Y0083088D02*
X0077107Y0083088D01*
X0077047Y0083480D02*
X0073675Y0083480D01*
X0073652Y0083873D02*
X0077018Y0083873D01*
X0077015Y0084265D02*
X0073652Y0084265D01*
X0073674Y0084657D02*
X0077034Y0084657D01*
X0077075Y0085049D02*
X0073714Y0085049D01*
X0073784Y0085441D02*
X0077143Y0085441D01*
X0077245Y0085834D02*
X0073872Y0085834D01*
X0073993Y0086226D02*
X0077392Y0086226D01*
X0077596Y0086618D02*
X0074145Y0086618D01*
X0074326Y0087010D02*
X0077880Y0087010D01*
X0078305Y0087402D02*
X0074548Y0087402D01*
X0074815Y0087795D02*
X0078982Y0087795D01*
X0080479Y0088187D02*
X0075125Y0088187D01*
X0075491Y0088579D02*
X0087316Y0088579D01*
X0087316Y0088187D02*
X0083604Y0088187D01*
X0084083Y0087795D02*
X0087316Y0087795D01*
X0087316Y0087402D02*
X0084083Y0087402D01*
X0084083Y0087010D02*
X0087316Y0087010D01*
X0087316Y0086618D02*
X0084083Y0086618D01*
X0084083Y0086226D02*
X0087316Y0086226D01*
X0087316Y0085834D02*
X0084083Y0085834D01*
X0084083Y0085441D02*
X0087316Y0085441D01*
X0087316Y0085049D02*
X0084083Y0085049D01*
X0084083Y0084657D02*
X0087316Y0084657D01*
X0087316Y0084265D02*
X0084083Y0084265D01*
X0084083Y0083873D02*
X0087316Y0083873D01*
X0087316Y0083480D02*
X0084083Y0083480D01*
X0084083Y0079558D02*
X0087316Y0079558D01*
X0087316Y0079166D02*
X0084083Y0079166D01*
X0083921Y0079166D02*
X0076041Y0079166D01*
X0076610Y0078774D02*
X0083915Y0078774D01*
X0084083Y0078774D02*
X0087316Y0078774D01*
X0087316Y0078382D02*
X0084083Y0078382D01*
X0083908Y0078382D02*
X0077349Y0078382D01*
X0078471Y0077989D02*
X0082994Y0077989D01*
X0084083Y0077989D02*
X0087316Y0077989D01*
X0087316Y0077597D02*
X0084083Y0077597D01*
X0084083Y0077205D02*
X0087316Y0077205D01*
X0087316Y0076813D02*
X0084083Y0076813D01*
X0084083Y0076421D02*
X0087316Y0076421D01*
X0087316Y0076028D02*
X0084083Y0076028D01*
X0084083Y0075636D02*
X0087316Y0075636D01*
X0087316Y0075244D02*
X0084083Y0075244D01*
X0084083Y0074852D02*
X0087316Y0074852D01*
X0087316Y0074459D02*
X0084083Y0074459D01*
X0084083Y0074067D02*
X0087316Y0074067D01*
X0087316Y0073675D02*
X0084083Y0073675D01*
X0084083Y0073283D02*
X0087316Y0073283D01*
X0087316Y0072891D02*
X0084083Y0072891D01*
X0084083Y0072498D02*
X0087316Y0072498D01*
X0087316Y0072106D02*
X0084083Y0072106D01*
X0084083Y0071714D02*
X0087316Y0071714D01*
X0087316Y0071322D02*
X0084083Y0071322D01*
X0084083Y0070930D02*
X0087316Y0070930D01*
X0087316Y0070537D02*
X0084083Y0070537D01*
X0084083Y0070145D02*
X0087316Y0070145D01*
X0087329Y0069753D02*
X0084083Y0069753D01*
X0084078Y0069361D02*
X0087340Y0069361D01*
X0087343Y0068969D02*
X0084051Y0068969D01*
X0083984Y0068576D02*
X0087360Y0068576D01*
X0087452Y0068184D02*
X0083901Y0068184D01*
X0083758Y0067792D02*
X0087718Y0067792D01*
X0088036Y0067400D02*
X0083592Y0067400D01*
X0083427Y0067007D02*
X0088354Y0067007D01*
X0072615Y0067407D02*
X0072583Y0067394D01*
X0072551Y0067381D01*
X0072487Y0067355D01*
X0072454Y0067342D01*
X0072390Y0067315D01*
X0072358Y0067302D01*
X0072260Y0067262D01*
X0072162Y0067223D01*
X0072065Y0067187D01*
X0071968Y0067150D01*
X0071872Y0067115D01*
X0071681Y0067049D01*
X0071587Y0067018D01*
X0071493Y0066989D01*
X0071400Y0066960D01*
X0071308Y0066932D01*
X0071216Y0066907D01*
X0071125Y0066881D01*
X0071034Y0066858D01*
X0070945Y0066836D01*
X0070855Y0066814D01*
X0070767Y0066794D01*
X0070680Y0066777D01*
X0070592Y0066759D01*
X0070506Y0066743D01*
X0070336Y0066715D01*
X0070252Y0066702D01*
X0070169Y0066692D01*
X0070088Y0066682D01*
X0070005Y0066673D01*
X0069920Y0066664D01*
X0069835Y0066656D01*
X0069748Y0066648D01*
X0069658Y0066640D01*
X0069568Y0066633D01*
X0069476Y0066626D01*
X0069382Y0066620D01*
X0069287Y0066613D01*
X0069191Y0066608D01*
X0068993Y0066598D01*
X0068892Y0066593D01*
X0068789Y0066590D01*
X0068685Y0066586D01*
X0068580Y0066583D01*
X0068472Y0066580D01*
X0068365Y0066578D01*
X0068255Y0066576D01*
X0068143Y0066575D01*
X0068031Y0066573D01*
X0067918Y0066573D01*
X0066759Y0066573D01*
X0066448Y0066579D01*
X0066145Y0066593D01*
X0065842Y0066607D01*
X0065546Y0066627D01*
X0065257Y0066654D01*
X0064969Y0066681D01*
X0064688Y0066715D01*
X0064414Y0066756D01*
X0064141Y0066796D01*
X0063875Y0066844D01*
X0063359Y0066952D01*
X0063109Y0067013D01*
X0062866Y0067080D01*
X0062624Y0067148D01*
X0062389Y0067222D01*
X0062162Y0067303D01*
X0061936Y0067384D01*
X0061717Y0067471D01*
X0061295Y0067659D01*
X0061093Y0067760D01*
X0060898Y0067868D01*
X0060640Y0068011D01*
X0060398Y0068164D01*
X0060172Y0068328D01*
X0059945Y0068492D01*
X0059735Y0068666D01*
X0059541Y0068851D01*
X0059346Y0069035D01*
X0059168Y0069230D01*
X0058844Y0069639D01*
X0058698Y0069854D01*
X0058568Y0070079D01*
X0058438Y0070304D01*
X0058324Y0070539D01*
X0058226Y0070784D01*
X0058128Y0071030D01*
X0058047Y0071284D01*
X0057982Y0071549D01*
X0057917Y0071814D01*
X0057868Y0072089D01*
X0057802Y0072658D01*
X0057786Y0072952D01*
X0057786Y0073418D01*
X0057790Y0073576D01*
X0057798Y0073732D01*
X0057806Y0073887D01*
X0057819Y0074040D01*
X0057835Y0074189D01*
X0057852Y0074338D01*
X0057872Y0074483D01*
X0057921Y0074768D01*
X0057950Y0074907D01*
X0057982Y0075042D01*
X0058015Y0075178D01*
X0058052Y0075310D01*
X0058093Y0075438D01*
X0058133Y0075567D01*
X0058178Y0075692D01*
X0058227Y0075814D01*
X0058276Y0075935D01*
X0058329Y0076053D01*
X0058443Y0076282D01*
X0058503Y0076393D01*
X0058568Y0076500D01*
X0058620Y0076586D01*
X0058675Y0076672D01*
X0058735Y0076757D01*
X0058794Y0076842D01*
X0058858Y0076927D01*
X0058926Y0077011D01*
X0058994Y0077095D01*
X0059066Y0077178D01*
X0059142Y0077261D01*
X0059218Y0077343D01*
X0059298Y0077425D01*
X0059382Y0077507D01*
X0059467Y0077588D01*
X0059555Y0077669D01*
X0059647Y0077748D01*
X0059739Y0077828D01*
X0059836Y0077908D01*
X0060036Y0078064D01*
X0060140Y0078142D01*
X0060357Y0078296D01*
X0060469Y0078372D01*
X0060585Y0078447D01*
X0060586Y0078448D01*
X0060587Y0078449D01*
X0060589Y0078450D01*
X0060590Y0078451D01*
X0060593Y0078453D01*
X0060594Y0078453D01*
X0060596Y0078454D01*
X0060599Y0078456D01*
X0060600Y0078457D01*
X0060606Y0078460D01*
X0060607Y0078461D01*
X0060715Y0078521D01*
X0060822Y0078582D01*
X0060929Y0078642D01*
X0061037Y0078703D01*
X0061144Y0078764D01*
X0061251Y0078825D01*
X0061358Y0078886D01*
X0061465Y0078947D01*
X0061679Y0079070D01*
X0061786Y0079131D01*
X0061999Y0079254D01*
X0062105Y0079315D01*
X0062211Y0079377D01*
X0062317Y0079439D01*
X0062423Y0079500D01*
X0062529Y0079562D01*
X0062634Y0079624D01*
X0062739Y0079686D01*
X0062949Y0079809D01*
X0063053Y0079871D01*
X0063158Y0079933D01*
X0063158Y0079933D01*
X0063158Y0079933D01*
X0063158Y0079933D01*
X0063159Y0079933D01*
X0063159Y0079934D02*
X0063159Y0079934D01*
X0063159Y0079934D01*
X0063160Y0079934D01*
X0063160Y0079934D01*
X0063160Y0079934D01*
X0063160Y0079934D01*
X0063161Y0079935D01*
X0063162Y0079935D01*
X0064533Y0080727D01*
X0064990Y0080991D01*
X0065446Y0081255D01*
X0066360Y0081783D01*
X0066817Y0082047D01*
X0066916Y0082104D01*
X0067011Y0082161D01*
X0067103Y0082218D01*
X0067195Y0082274D01*
X0067284Y0082330D01*
X0067455Y0082442D01*
X0067538Y0082497D01*
X0067696Y0082607D01*
X0067772Y0082662D01*
X0067845Y0082716D01*
X0067918Y0082770D01*
X0067987Y0082823D01*
X0068053Y0082876D01*
X0068120Y0082929D01*
X0068182Y0082982D01*
X0068301Y0083086D01*
X0068358Y0083138D01*
X0068463Y0083240D01*
X0068513Y0083290D01*
X0068558Y0083340D01*
X0068613Y0083400D01*
X0068665Y0083462D01*
X0068713Y0083525D01*
X0068762Y0083587D01*
X0068808Y0083651D01*
X0068850Y0083716D01*
X0068893Y0083782D01*
X0068933Y0083848D01*
X0068969Y0083916D01*
X0069006Y0083984D01*
X0069040Y0084054D01*
X0069071Y0084124D01*
X0069102Y0084195D01*
X0069130Y0084267D01*
X0069155Y0084341D01*
X0069180Y0084415D01*
X0069202Y0084490D01*
X0069222Y0084566D01*
X0069241Y0084643D01*
X0069258Y0084721D01*
X0069271Y0084801D01*
X0069285Y0084881D01*
X0069296Y0084963D01*
X0069304Y0085046D01*
X0069303Y0085177D01*
X0069296Y0085305D01*
X0069281Y0085430D01*
X0069267Y0085555D01*
X0069245Y0085677D01*
X0069217Y0085795D01*
X0069189Y0085914D01*
X0069153Y0086029D01*
X0069111Y0086141D01*
X0069069Y0086254D01*
X0069020Y0086363D01*
X0068963Y0086469D01*
X0068907Y0086575D01*
X0068843Y0086678D01*
X0068773Y0086778D01*
X0068702Y0086879D01*
X0068625Y0086976D01*
X0068540Y0087071D01*
X0068455Y0087165D01*
X0068363Y0087257D01*
X0068264Y0087346D01*
X0068165Y0087435D01*
X0068058Y0087522D01*
X0067945Y0087605D01*
X0067827Y0087692D01*
X0067707Y0087774D01*
X0067462Y0087926D01*
X0067337Y0087996D01*
X0067209Y0088061D01*
X0067082Y0088127D01*
X0066952Y0088187D01*
X0066820Y0088241D01*
X0066688Y0088295D01*
X0066553Y0088345D01*
X0066417Y0088388D01*
X0066280Y0088432D01*
X0066141Y0088470D01*
X0066000Y0088503D01*
X0065858Y0088536D01*
X0065715Y0088563D01*
X0065569Y0088585D01*
X0065423Y0088607D01*
X0065276Y0088623D01*
X0065126Y0088634D01*
X0064976Y0088645D01*
X0064824Y0088651D01*
X0064560Y0088651D01*
X0064451Y0088649D01*
X0064345Y0088646D01*
X0064238Y0088642D01*
X0064133Y0088637D01*
X0064030Y0088630D01*
X0063927Y0088623D01*
X0063826Y0088615D01*
X0063726Y0088604D01*
X0063627Y0088594D01*
X0063530Y0088582D01*
X0063434Y0088569D01*
X0063339Y0088555D01*
X0063245Y0088540D01*
X0063154Y0088522D01*
X0063062Y0088505D01*
X0062972Y0088487D01*
X0062885Y0088466D01*
X0062797Y0088446D01*
X0062711Y0088424D01*
X0062628Y0088400D01*
X0062544Y0088376D01*
X0062463Y0088351D01*
X0062383Y0088324D01*
X0062306Y0088297D01*
X0062229Y0088268D01*
X0062075Y0088204D01*
X0061999Y0088170D01*
X0061923Y0088133D01*
X0061847Y0088096D01*
X0061772Y0088056D01*
X0061622Y0087972D01*
X0061547Y0087927D01*
X0061473Y0087880D01*
X0061399Y0087832D01*
X0061325Y0087782D01*
X0061252Y0087730D01*
X0061179Y0087677D01*
X0061107Y0087622D01*
X0060963Y0087507D01*
X0060891Y0087447D01*
X0060820Y0087384D01*
X0060749Y0087321D01*
X0060679Y0087256D01*
X0060609Y0087189D01*
X0060522Y0087104D01*
X0060259Y0086848D01*
X0060171Y0086763D01*
X0059908Y0086508D01*
X0059908Y0090116D01*
X0059940Y0090129D01*
X0059972Y0090142D01*
X0060130Y0090208D01*
X0060162Y0090222D01*
X0060286Y0090273D01*
X0060409Y0090322D01*
X0060533Y0090368D01*
X0060656Y0090414D01*
X0060779Y0090458D01*
X0060903Y0090498D01*
X0061026Y0090539D01*
X0061149Y0090577D01*
X0061272Y0090612D01*
X0061395Y0090647D01*
X0061517Y0090679D01*
X0061762Y0090738D01*
X0061884Y0090764D01*
X0062128Y0090812D01*
X0062250Y0090833D01*
X0062371Y0090851D01*
X0062492Y0090869D01*
X0062613Y0090885D01*
X0062733Y0090897D01*
X0062854Y0090910D01*
X0062974Y0090919D01*
X0063093Y0090926D01*
X0063095Y0090926D01*
X0063096Y0090926D01*
X0063098Y0090926D01*
X0063099Y0090926D01*
X0063101Y0090926D01*
X0063102Y0090926D01*
X0063104Y0090927D01*
X0063105Y0090927D01*
X0065171Y0090927D01*
X0065435Y0090919D01*
X0065951Y0090887D01*
X0066203Y0090863D01*
X0066450Y0090831D01*
X0066698Y0090799D01*
X0066939Y0090759D01*
X0067176Y0090711D01*
X0067412Y0090663D01*
X0067643Y0090607D01*
X0067868Y0090543D01*
X0068093Y0090480D01*
X0068312Y0090408D01*
X0068526Y0090329D01*
X0068740Y0090249D01*
X0068948Y0090162D01*
X0069150Y0090066D01*
X0069352Y0089971D01*
X0069549Y0089868D01*
X0069739Y0089757D01*
X0069929Y0089646D01*
X0070114Y0089528D01*
X0070292Y0089401D01*
X0070491Y0089260D01*
X0070678Y0089113D01*
X0071027Y0088806D01*
X0071190Y0088647D01*
X0071489Y0088317D01*
X0071627Y0088146D01*
X0071752Y0087970D01*
X0071877Y0087793D01*
X0071990Y0087611D01*
X0072090Y0087423D01*
X0072190Y0087234D01*
X0072278Y0087041D01*
X0072353Y0086841D01*
X0072428Y0086642D01*
X0072491Y0086437D01*
X0072542Y0086226D01*
X0069079Y0086226D01*
X0069208Y0085834D02*
X0072624Y0085834D01*
X0072630Y0085799D02*
X0072655Y0085578D01*
X0072680Y0085356D01*
X0072693Y0085129D01*
X0072693Y0084737D01*
X0072687Y0084580D01*
X0072676Y0084426D01*
X0072665Y0084271D01*
X0072649Y0084119D01*
X0072627Y0083970D01*
X0072605Y0083820D01*
X0072578Y0083674D01*
X0072546Y0083529D01*
X0072513Y0083385D01*
X0072475Y0083244D01*
X0072432Y0083105D01*
X0072388Y0082966D01*
X0072340Y0082830D01*
X0072285Y0082696D01*
X0067818Y0082696D01*
X0068303Y0083088D02*
X0072427Y0083088D01*
X0072535Y0083480D02*
X0068679Y0083480D01*
X0068946Y0083873D02*
X0072613Y0083873D01*
X0072665Y0084265D02*
X0069129Y0084265D01*
X0069244Y0084657D02*
X0072690Y0084657D01*
X0072693Y0085049D02*
X0069304Y0085049D01*
X0069280Y0085441D02*
X0072670Y0085441D01*
X0072630Y0085799D02*
X0072592Y0086016D01*
X0072542Y0086226D01*
X0072436Y0086618D02*
X0068880Y0086618D01*
X0068594Y0087010D02*
X0072289Y0087010D01*
X0072100Y0087402D02*
X0068201Y0087402D01*
X0067673Y0087795D02*
X0071876Y0087795D01*
X0071594Y0088187D02*
X0066951Y0088187D01*
X0065608Y0088579D02*
X0071251Y0088579D01*
X0070839Y0088971D02*
X0059908Y0088971D01*
X0059908Y0088579D02*
X0063508Y0088579D01*
X0062037Y0088187D02*
X0059908Y0088187D01*
X0059908Y0087795D02*
X0061344Y0087795D01*
X0060841Y0087402D02*
X0059908Y0087402D01*
X0059908Y0087010D02*
X0060426Y0087010D01*
X0060021Y0086618D02*
X0059908Y0086618D01*
X0059908Y0089364D02*
X0070345Y0089364D01*
X0069741Y0089756D02*
X0059908Y0089756D01*
X0059986Y0090148D02*
X0068977Y0090148D01*
X0067879Y0090540D02*
X0061030Y0090540D01*
X0057012Y0090642D02*
X0056990Y0090574D01*
X0056967Y0090506D01*
X0056944Y0090438D01*
X0056922Y0090370D01*
X0056899Y0090302D01*
X0056876Y0090234D01*
X0056831Y0090098D01*
X0056822Y0090070D01*
X0056813Y0090043D01*
X0056804Y0090018D01*
X0056796Y0089992D01*
X0056788Y0089967D01*
X0056780Y0089944D01*
X0056772Y0089921D01*
X0056765Y0089899D01*
X0056758Y0089878D01*
X0056751Y0089857D01*
X0056745Y0089838D01*
X0056732Y0089801D01*
X0056727Y0089784D01*
X0056721Y0089768D01*
X0056716Y0089752D01*
X0056711Y0089737D01*
X0056707Y0089724D01*
X0056702Y0089711D01*
X0056698Y0089698D01*
X0056691Y0089676D01*
X0056687Y0089666D01*
X0056684Y0089658D01*
X0056683Y0089648D01*
X0056680Y0089637D01*
X0056675Y0089610D01*
X0056673Y0089595D01*
X0056666Y0089560D01*
X0056663Y0089540D01*
X0056659Y0089518D01*
X0056655Y0089496D01*
X0056650Y0089472D01*
X0056646Y0089445D01*
X0056641Y0089417D01*
X0056635Y0089388D01*
X0056629Y0089355D01*
X0056624Y0089322D01*
X0056617Y0089286D01*
X0056610Y0089247D01*
X0056603Y0089208D01*
X0056596Y0089165D01*
X0056588Y0089119D01*
X0056580Y0089073D01*
X0056571Y0089024D01*
X0056562Y0088971D01*
X0053219Y0088971D01*
X0053219Y0088977D02*
X0053217Y0089007D01*
X0053214Y0089037D01*
X0053209Y0089098D01*
X0053207Y0089127D01*
X0053204Y0089157D01*
X0053201Y0089187D01*
X0053198Y0089216D01*
X0053194Y0089245D01*
X0053191Y0089274D01*
X0053187Y0089303D01*
X0053183Y0089331D01*
X0053179Y0089357D01*
X0053175Y0089383D01*
X0053170Y0089409D01*
X0053165Y0089436D01*
X0053159Y0089463D01*
X0053145Y0089519D01*
X0053137Y0089547D01*
X0053128Y0089575D01*
X0053120Y0089604D01*
X0053111Y0089633D01*
X0053100Y0089663D01*
X0053090Y0089693D01*
X0053079Y0089723D01*
X0053055Y0089785D01*
X0053042Y0089816D01*
X0053029Y0089848D01*
X0053015Y0089879D01*
X0053001Y0089912D01*
X0052986Y0089944D01*
X0052971Y0089977D01*
X0052955Y0090010D01*
X0052900Y0090119D01*
X0052863Y0090193D01*
X0052826Y0090268D01*
X0052788Y0090343D01*
X0052751Y0090418D01*
X0052714Y0090492D01*
X0052676Y0090567D01*
X0052639Y0090642D01*
X0057012Y0090642D01*
X0056978Y0090540D02*
X0052690Y0090540D01*
X0052886Y0090148D02*
X0056848Y0090148D01*
X0056717Y0089756D02*
X0053066Y0089756D01*
X0053178Y0089364D02*
X0056631Y0089364D01*
X0056562Y0088971D02*
X0056561Y0088963D01*
X0056560Y0088956D01*
X0056557Y0088938D01*
X0056556Y0088929D01*
X0056555Y0088918D01*
X0056554Y0088908D01*
X0056553Y0088896D01*
X0056552Y0088884D01*
X0056550Y0088872D01*
X0056549Y0088859D01*
X0056548Y0088845D01*
X0056547Y0088831D01*
X0056547Y0088816D01*
X0056546Y0088799D01*
X0056545Y0088783D01*
X0056544Y0088766D01*
X0056544Y0088748D01*
X0056543Y0088730D01*
X0056543Y0088711D01*
X0056542Y0088670D01*
X0056542Y0088648D01*
X0056542Y0074568D01*
X0056527Y0074271D01*
X0056469Y0073691D01*
X0056425Y0073407D01*
X0056367Y0073131D01*
X0056309Y0072854D01*
X0056236Y0072585D01*
X0056149Y0072322D01*
X0056062Y0072059D01*
X0055960Y0071803D01*
X0055844Y0071555D01*
X0055728Y0071306D01*
X0055598Y0071064D01*
X0055453Y0070830D01*
X0055309Y0070596D01*
X0055149Y0070368D01*
X0054803Y0069928D01*
X0054615Y0069716D01*
X0054413Y0069510D01*
X0054211Y0069305D01*
X0053995Y0069107D01*
X0053765Y0068917D01*
X0053537Y0068729D01*
X0053303Y0068552D01*
X0052820Y0068223D01*
X0052571Y0068070D01*
X0052315Y0067928D01*
X0052060Y0067787D01*
X0051797Y0067657D01*
X0051528Y0067539D01*
X0051258Y0067421D01*
X0050982Y0067314D01*
X0050417Y0067125D01*
X0050127Y0067042D01*
X0049831Y0066971D01*
X0049535Y0066900D01*
X0049232Y0066840D01*
X0048923Y0066793D01*
X0048614Y0066745D01*
X0048298Y0066710D01*
X0047976Y0066686D01*
X0047655Y0066662D01*
X0047326Y0066650D01*
X0046683Y0066650D01*
X0046379Y0066662D01*
X0046081Y0066687D01*
X0045782Y0066711D01*
X0045490Y0066747D01*
X0044916Y0066843D01*
X0044635Y0066904D01*
X0044085Y0067048D01*
X0043815Y0067133D01*
X0043552Y0067229D01*
X0043289Y0067325D01*
X0043031Y0067433D01*
X0042780Y0067553D01*
X0042529Y0067673D01*
X0042284Y0067805D01*
X0042045Y0067949D01*
X0041806Y0068092D01*
X0041573Y0068248D01*
X0041346Y0068415D01*
X0041120Y0068583D01*
X0040900Y0068762D01*
X0040686Y0068953D01*
X0040471Y0069145D01*
X0040268Y0069344D01*
X0040080Y0069550D01*
X0039891Y0069755D01*
X0039715Y0069967D01*
X0039391Y0070403D01*
X0039242Y0070628D01*
X0039107Y0070858D01*
X0038972Y0071089D01*
X0038850Y0071326D01*
X0038741Y0071568D01*
X0038633Y0071811D01*
X0038538Y0072060D01*
X0038457Y0072315D01*
X0038375Y0072570D01*
X0038307Y0072831D01*
X0038253Y0073098D01*
X0038198Y0073365D01*
X0038157Y0073637D01*
X0038103Y0074194D01*
X0038089Y0074478D01*
X0038089Y0088916D01*
X0038089Y0088923D01*
X0038089Y0088931D01*
X0038089Y0088938D01*
X0038089Y0088947D01*
X0038088Y0088956D01*
X0038088Y0088965D01*
X0038087Y0088975D01*
X0038087Y0088986D01*
X0038086Y0088997D01*
X0038086Y0089009D01*
X0038085Y0089022D01*
X0038084Y0089034D01*
X0038083Y0089048D01*
X0038081Y0089078D01*
X0038079Y0089094D01*
X0038078Y0089111D01*
X0038076Y0089128D01*
X0038074Y0089146D01*
X0038072Y0089165D01*
X0038070Y0089184D01*
X0038068Y0089204D01*
X0038066Y0089226D01*
X0038064Y0089242D01*
X0038062Y0089259D01*
X0038060Y0089275D01*
X0038058Y0089291D01*
X0038056Y0089306D01*
X0038052Y0089337D01*
X0038049Y0089352D01*
X0038047Y0089367D01*
X0038044Y0089382D01*
X0038042Y0089397D01*
X0038036Y0089426D01*
X0038034Y0089440D01*
X0038031Y0089454D01*
X0038028Y0089468D01*
X0038025Y0089481D01*
X0038022Y0089494D01*
X0038019Y0089508D01*
X0038015Y0089521D01*
X0038012Y0089534D01*
X0038009Y0089546D01*
X0038005Y0089559D01*
X0038002Y0089571D01*
X0037999Y0089581D01*
X0037996Y0089592D01*
X0037992Y0089604D01*
X0037988Y0089617D01*
X0037984Y0089630D01*
X0037980Y0089645D01*
X0037975Y0089660D01*
X0037970Y0089677D01*
X0037964Y0089695D01*
X0037958Y0089713D01*
X0037952Y0089732D01*
X0037945Y0089753D01*
X0037938Y0089774D01*
X0037931Y0089797D01*
X0037922Y0089821D01*
X0037914Y0089845D01*
X0037905Y0089871D01*
X0037896Y0089899D01*
X0037886Y0089927D01*
X0037876Y0089957D01*
X0037853Y0090020D01*
X0037842Y0090054D01*
X0037829Y0090089D01*
X0037804Y0090158D01*
X0037779Y0090227D01*
X0037754Y0090296D01*
X0037730Y0090366D01*
X0037705Y0090435D01*
X0037680Y0090504D01*
X0037655Y0090573D01*
X0037631Y0090642D01*
X0042010Y0090642D01*
X0041954Y0090500D01*
X0041926Y0090430D01*
X0041841Y0090218D01*
X0041813Y0090147D01*
X0041785Y0090076D01*
X0041781Y0090066D01*
X0041777Y0090055D01*
X0041768Y0090032D01*
X0041763Y0090020D01*
X0041758Y0090008D01*
X0041753Y0089995D01*
X0041748Y0089982D01*
X0041742Y0089968D01*
X0041737Y0089954D01*
X0041731Y0089940D01*
X0041725Y0089925D01*
X0041719Y0089910D01*
X0041713Y0089895D01*
X0041700Y0089862D01*
X0041693Y0089845D01*
X0041679Y0089811D01*
X0041672Y0089793D01*
X0041665Y0089774D01*
X0041657Y0089756D01*
X0037944Y0089756D01*
X0038047Y0089364D02*
X0041573Y0089364D01*
X0041572Y0089356D02*
X0041566Y0089322D01*
X0041559Y0089283D01*
X0041552Y0089245D01*
X0041544Y0089204D01*
X0041536Y0089160D01*
X0041529Y0089121D01*
X0041523Y0089083D01*
X0041517Y0089046D01*
X0041510Y0089008D01*
X0041505Y0088971D01*
X0038088Y0088971D01*
X0038089Y0088579D02*
X0041460Y0088579D01*
X0041459Y0088568D02*
X0041457Y0088538D01*
X0041456Y0088508D01*
X0041454Y0088479D01*
X0041453Y0088451D01*
X0041453Y0088422D01*
X0041452Y0088394D01*
X0041452Y0074780D01*
X0041460Y0074587D01*
X0041476Y0074399D01*
X0041492Y0074211D01*
X0041516Y0074028D01*
X0041580Y0073669D01*
X0041620Y0073493D01*
X0041668Y0073322D01*
X0041716Y0073151D01*
X0041772Y0072983D01*
X0041901Y0072657D01*
X0041974Y0072497D01*
X0042054Y0072342D01*
X0042135Y0072186D01*
X0042224Y0072034D01*
X0042321Y0071886D01*
X0042419Y0071737D01*
X0042524Y0071592D01*
X0042752Y0071310D01*
X0042874Y0071172D01*
X0043005Y0071038D01*
X0043135Y0070904D01*
X0043269Y0070778D01*
X0043408Y0070661D01*
X0043546Y0070544D01*
X0043689Y0070436D01*
X0043836Y0070336D01*
X0043984Y0070236D01*
X0044135Y0070145D01*
X0044291Y0070062D01*
X0044447Y0069979D01*
X0044608Y0069905D01*
X0044773Y0069838D01*
X0044939Y0069772D01*
X0045109Y0069715D01*
X0045284Y0069665D01*
X0045459Y0069616D01*
X0045638Y0069575D01*
X0045823Y0069542D01*
X0046008Y0069509D01*
X0046197Y0069485D01*
X0046392Y0069468D01*
X0046587Y0069452D01*
X0046787Y0069444D01*
X0047200Y0069444D01*
X0047405Y0069453D01*
X0047607Y0069470D01*
X0047809Y0069488D01*
X0048008Y0069514D01*
X0048204Y0069549D01*
X0048400Y0069585D01*
X0048593Y0069628D01*
X0048782Y0069681D01*
X0048972Y0069734D01*
X0049158Y0069795D01*
X0049341Y0069865D01*
X0049524Y0069935D01*
X0049704Y0070014D01*
X0049880Y0070102D01*
X0050057Y0070189D01*
X0050230Y0070285D01*
X0050400Y0070390D01*
X0050569Y0070495D01*
X0050735Y0070608D01*
X0051061Y0070852D01*
X0051220Y0070983D01*
X0051375Y0071122D01*
X0051531Y0071262D01*
X0051677Y0071404D01*
X0051813Y0071551D01*
X0051950Y0071697D01*
X0052076Y0071846D01*
X0052192Y0071999D01*
X0052308Y0072152D01*
X0052415Y0072308D01*
X0052608Y0072628D01*
X0052694Y0072792D01*
X0052771Y0072959D01*
X0052848Y0073127D01*
X0052915Y0073298D01*
X0053030Y0073648D01*
X0053078Y0073827D01*
X0053155Y0074193D01*
X0053183Y0074380D01*
X0053221Y0074762D01*
X0053231Y0074958D01*
X0053231Y0088632D01*
X0053230Y0088664D01*
X0053229Y0088728D01*
X0053229Y0088759D01*
X0053228Y0088791D01*
X0053227Y0088822D01*
X0053225Y0088853D01*
X0053222Y0088915D01*
X0053221Y0088946D01*
X0053219Y0088977D01*
X0053231Y0088579D02*
X0056542Y0088579D01*
X0056542Y0088187D02*
X0053231Y0088187D01*
X0053231Y0087795D02*
X0056542Y0087795D01*
X0056542Y0087402D02*
X0053231Y0087402D01*
X0053231Y0087010D02*
X0056542Y0087010D01*
X0056542Y0086618D02*
X0053231Y0086618D01*
X0053231Y0086226D02*
X0056542Y0086226D01*
X0056542Y0085834D02*
X0053231Y0085834D01*
X0053231Y0085441D02*
X0056542Y0085441D01*
X0056542Y0085049D02*
X0053231Y0085049D01*
X0053231Y0084657D02*
X0056542Y0084657D01*
X0056542Y0084265D02*
X0053231Y0084265D01*
X0053231Y0083873D02*
X0056542Y0083873D01*
X0056542Y0083480D02*
X0053231Y0083480D01*
X0053231Y0083088D02*
X0056542Y0083088D01*
X0056542Y0082696D02*
X0053231Y0082696D01*
X0053231Y0082304D02*
X0056542Y0082304D01*
X0056542Y0081912D02*
X0053231Y0081912D01*
X0053231Y0081519D02*
X0056542Y0081519D01*
X0056542Y0081127D02*
X0053231Y0081127D01*
X0053231Y0080735D02*
X0056542Y0080735D01*
X0056542Y0080343D02*
X0053231Y0080343D01*
X0053231Y0079950D02*
X0056542Y0079950D01*
X0056542Y0079558D02*
X0053231Y0079558D01*
X0053231Y0079166D02*
X0056542Y0079166D01*
X0056542Y0078774D02*
X0053231Y0078774D01*
X0053231Y0078382D02*
X0056542Y0078382D01*
X0056542Y0077989D02*
X0053231Y0077989D01*
X0053231Y0077597D02*
X0056542Y0077597D01*
X0056542Y0077205D02*
X0053231Y0077205D01*
X0053231Y0076813D02*
X0056542Y0076813D01*
X0056542Y0076421D02*
X0053231Y0076421D01*
X0053231Y0076028D02*
X0056542Y0076028D01*
X0056542Y0075636D02*
X0053231Y0075636D01*
X0053231Y0075244D02*
X0056542Y0075244D01*
X0056542Y0074852D02*
X0053226Y0074852D01*
X0053191Y0074459D02*
X0056537Y0074459D01*
X0056507Y0074067D02*
X0053128Y0074067D01*
X0053038Y0073675D02*
X0056467Y0073675D01*
X0056399Y0073283D02*
X0052910Y0073283D01*
X0052740Y0072891D02*
X0056317Y0072891D01*
X0056208Y0072498D02*
X0052529Y0072498D01*
X0052273Y0072106D02*
X0056078Y0072106D01*
X0055919Y0071714D02*
X0051964Y0071714D01*
X0051593Y0071322D02*
X0055736Y0071322D01*
X0055515Y0070930D02*
X0051155Y0070930D01*
X0050632Y0070537D02*
X0055268Y0070537D01*
X0054974Y0070145D02*
X0049968Y0070145D01*
X0049030Y0069753D02*
X0054648Y0069753D01*
X0054266Y0069361D02*
X0040254Y0069361D01*
X0039893Y0069753D02*
X0044996Y0069753D01*
X0044135Y0070145D02*
X0039583Y0070145D01*
X0039302Y0070537D02*
X0043556Y0070537D01*
X0043110Y0070930D02*
X0039065Y0070930D01*
X0038852Y0071322D02*
X0042742Y0071322D01*
X0042436Y0071714D02*
X0038676Y0071714D01*
X0038523Y0072106D02*
X0042182Y0072106D01*
X0041973Y0072498D02*
X0038398Y0072498D01*
X0038295Y0072891D02*
X0041809Y0072891D01*
X0041679Y0073283D02*
X0038215Y0073283D01*
X0038154Y0073675D02*
X0041579Y0073675D01*
X0041511Y0074067D02*
X0038115Y0074067D01*
X0038090Y0074459D02*
X0041471Y0074459D01*
X0041452Y0074852D02*
X0038089Y0074852D01*
X0038089Y0075244D02*
X0041452Y0075244D01*
X0041452Y0075636D02*
X0038089Y0075636D01*
X0038089Y0076028D02*
X0041452Y0076028D01*
X0041452Y0076421D02*
X0038089Y0076421D01*
X0038089Y0076813D02*
X0041452Y0076813D01*
X0041452Y0077205D02*
X0038089Y0077205D01*
X0038089Y0077597D02*
X0041452Y0077597D01*
X0041452Y0077989D02*
X0038089Y0077989D01*
X0038089Y0078382D02*
X0041452Y0078382D01*
X0041452Y0078774D02*
X0038089Y0078774D01*
X0038089Y0079166D02*
X0041452Y0079166D01*
X0041452Y0079558D02*
X0038089Y0079558D01*
X0038089Y0079950D02*
X0041452Y0079950D01*
X0041452Y0080343D02*
X0038089Y0080343D01*
X0038089Y0080735D02*
X0041452Y0080735D01*
X0041452Y0081127D02*
X0038089Y0081127D01*
X0038089Y0081519D02*
X0041452Y0081519D01*
X0041452Y0081912D02*
X0038089Y0081912D01*
X0038089Y0082304D02*
X0041452Y0082304D01*
X0041452Y0082696D02*
X0038089Y0082696D01*
X0038089Y0083088D02*
X0041452Y0083088D01*
X0041452Y0083480D02*
X0038089Y0083480D01*
X0038089Y0083873D02*
X0041452Y0083873D01*
X0041452Y0084265D02*
X0038089Y0084265D01*
X0038089Y0084657D02*
X0041452Y0084657D01*
X0041452Y0085049D02*
X0038089Y0085049D01*
X0038089Y0085441D02*
X0041452Y0085441D01*
X0041452Y0085834D02*
X0038089Y0085834D01*
X0038089Y0086226D02*
X0041452Y0086226D01*
X0041452Y0086618D02*
X0038089Y0086618D01*
X0038089Y0087010D02*
X0041452Y0087010D01*
X0041452Y0087402D02*
X0038089Y0087402D01*
X0038089Y0087795D02*
X0041452Y0087795D01*
X0041452Y0088187D02*
X0038089Y0088187D01*
X0037808Y0090148D02*
X0041814Y0090148D01*
X0041970Y0090540D02*
X0037667Y0090540D01*
X0041638Y0089701D02*
X0041634Y0089681D01*
X0041631Y0089669D01*
X0041629Y0089655D01*
X0041626Y0089642D01*
X0041623Y0089626D01*
X0041620Y0089609D01*
X0041616Y0089591D01*
X0041612Y0089572D01*
X0041604Y0089528D01*
X0041599Y0089504D01*
X0041594Y0089477D01*
X0041589Y0089450D01*
X0041584Y0089421D01*
X0041578Y0089389D01*
X0041572Y0089356D01*
X0041638Y0089701D02*
X0041640Y0089710D01*
X0041641Y0089717D01*
X0041649Y0089737D01*
X0041657Y0089756D01*
X0041505Y0088971D02*
X0041499Y0088935D01*
X0041494Y0088899D01*
X0041489Y0088864D01*
X0041485Y0088829D01*
X0041481Y0088795D01*
X0041477Y0088761D01*
X0041470Y0088695D01*
X0041467Y0088662D01*
X0041464Y0088631D01*
X0041461Y0088599D01*
X0041459Y0088568D01*
X0058774Y0076813D02*
X0064630Y0076813D01*
X0064606Y0076799D02*
X0064476Y0076725D01*
X0064225Y0076578D01*
X0064103Y0076504D01*
X0063987Y0076431D01*
X0063870Y0076358D01*
X0063758Y0076286D01*
X0063651Y0076214D01*
X0063543Y0076142D01*
X0063440Y0076070D01*
X0063342Y0075999D01*
X0063244Y0075928D01*
X0063150Y0075857D01*
X0062972Y0075717D01*
X0062888Y0075648D01*
X0062808Y0075579D01*
X0062728Y0075510D01*
X0062654Y0075441D01*
X0062513Y0075306D01*
X0062448Y0075238D01*
X0062387Y0075172D01*
X0062387Y0075171D01*
X0062387Y0075171D01*
X0062387Y0075171D01*
X0062386Y0075171D01*
X0062386Y0075170D01*
X0062386Y0075170D01*
X0062385Y0075169D01*
X0062385Y0075169D01*
X0062385Y0075169D01*
X0062384Y0075168D01*
X0062306Y0075085D01*
X0062234Y0075000D01*
X0062166Y0074913D01*
X0062098Y0074827D01*
X0062035Y0074739D01*
X0061977Y0074650D01*
X0061919Y0074560D01*
X0061866Y0074469D01*
X0061818Y0074377D01*
X0061770Y0074285D01*
X0061727Y0074191D01*
X0061688Y0074095D01*
X0061650Y0073999D01*
X0061617Y0073902D01*
X0061588Y0073803D01*
X0061559Y0073704D01*
X0061535Y0073603D01*
X0061516Y0073500D01*
X0061497Y0073397D01*
X0061483Y0073293D01*
X0061474Y0073186D01*
X0061464Y0073080D01*
X0061459Y0072972D01*
X0061459Y0072703D01*
X0061466Y0072549D01*
X0061495Y0072252D01*
X0061516Y0072108D01*
X0061544Y0071969D01*
X0061572Y0071830D01*
X0061607Y0071696D01*
X0061650Y0071567D01*
X0061692Y0071438D01*
X0061742Y0071314D01*
X0061799Y0071194D01*
X0061856Y0071074D01*
X0061920Y0070959D01*
X0061991Y0070848D01*
X0062062Y0070738D01*
X0062141Y0070631D01*
X0062313Y0070428D01*
X0062406Y0070331D01*
X0062607Y0070145D01*
X0058530Y0070145D01*
X0058325Y0070537D02*
X0062220Y0070537D01*
X0061939Y0070930D02*
X0058168Y0070930D01*
X0058038Y0071322D02*
X0061739Y0071322D01*
X0061603Y0071714D02*
X0057941Y0071714D01*
X0057866Y0072106D02*
X0061516Y0072106D01*
X0061471Y0072498D02*
X0057821Y0072498D01*
X0057789Y0072891D02*
X0061459Y0072891D01*
X0061482Y0073283D02*
X0057786Y0073283D01*
X0057795Y0073675D02*
X0061552Y0073675D01*
X0061677Y0074067D02*
X0057822Y0074067D01*
X0057869Y0074459D02*
X0061861Y0074459D01*
X0062118Y0074852D02*
X0057938Y0074852D01*
X0058033Y0075244D02*
X0062453Y0075244D01*
X0062384Y0075168D02*
X0062384Y0075168D01*
X0062874Y0075636D02*
X0058158Y0075636D01*
X0058318Y0076028D02*
X0063382Y0076028D01*
X0063969Y0076421D02*
X0058520Y0076421D01*
X0059091Y0077205D02*
X0065314Y0077205D01*
X0065789Y0077480D02*
X0064747Y0076878D01*
X0064747Y0076877D01*
X0064746Y0076877D01*
X0064745Y0076876D01*
X0064744Y0076876D01*
X0064743Y0076876D01*
X0064743Y0076875D01*
X0064742Y0076875D01*
X0064742Y0076875D01*
X0064741Y0076874D01*
X0064741Y0076874D01*
X0064606Y0076799D01*
X0064744Y0076876D02*
X0064744Y0076876D01*
X0064746Y0076877D02*
X0064746Y0076877D01*
X0065789Y0077480D02*
X0066310Y0077780D01*
X0066831Y0078081D01*
X0067352Y0078382D01*
X0067873Y0078683D01*
X0068394Y0078984D01*
X0068915Y0079285D01*
X0069069Y0079375D01*
X0069219Y0079465D01*
X0069363Y0079556D01*
X0069508Y0079647D01*
X0069648Y0079739D01*
X0069782Y0079832D01*
X0069917Y0079924D01*
X0070046Y0080018D01*
X0070171Y0080112D01*
X0070296Y0080206D01*
X0070415Y0080301D01*
X0070644Y0080492D01*
X0070753Y0080588D01*
X0070857Y0080685D01*
X0070962Y0080782D01*
X0071061Y0080879D01*
X0071154Y0080977D01*
X0071248Y0081075D01*
X0071337Y0081173D01*
X0071503Y0081371D01*
X0071581Y0081471D01*
X0071654Y0081571D01*
X0071740Y0081687D01*
X0071821Y0081807D01*
X0071896Y0081929D01*
X0071972Y0082051D01*
X0072042Y0082176D01*
X0072172Y0082432D01*
X0072231Y0082563D01*
X0072285Y0082696D01*
X0072107Y0082304D02*
X0067242Y0082304D01*
X0066583Y0081912D02*
X0071886Y0081912D01*
X0071616Y0081519D02*
X0065904Y0081519D01*
X0065225Y0081127D02*
X0071295Y0081127D01*
X0070911Y0080735D02*
X0064546Y0080735D01*
X0063867Y0080343D02*
X0070465Y0080343D01*
X0069953Y0079950D02*
X0063188Y0079950D01*
X0063161Y0079935D02*
X0063161Y0079935D01*
X0063161Y0079935D01*
X0063159Y0079933D02*
X0063159Y0079934D01*
X0062522Y0079558D02*
X0069367Y0079558D01*
X0068709Y0079166D02*
X0061847Y0079166D01*
X0061162Y0078774D02*
X0068030Y0078774D01*
X0067351Y0078382D02*
X0060484Y0078382D01*
X0059940Y0077989D02*
X0066672Y0077989D01*
X0065993Y0077597D02*
X0059477Y0077597D01*
X0058766Y0069753D02*
X0063162Y0069753D01*
X0063074Y0069804D02*
X0063336Y0069652D01*
X0063474Y0069581D01*
X0063617Y0069516D01*
X0063760Y0069451D01*
X0063910Y0069391D01*
X0064066Y0069336D01*
X0064221Y0069282D01*
X0064383Y0069233D01*
X0064551Y0069189D01*
X0064718Y0069145D01*
X0064892Y0069107D01*
X0065071Y0069074D01*
X0065251Y0069041D01*
X0065436Y0069014D01*
X0065627Y0068992D01*
X0065819Y0068970D01*
X0066016Y0068954D01*
X0066218Y0068943D01*
X0066421Y0068932D01*
X0066630Y0068926D01*
X0066988Y0068926D01*
X0067129Y0068928D01*
X0067405Y0068934D01*
X0067540Y0068939D01*
X0067673Y0068945D01*
X0067805Y0068951D01*
X0067934Y0068959D01*
X0068061Y0068968D01*
X0068187Y0068978D01*
X0068311Y0068988D01*
X0068432Y0069001D01*
X0068552Y0069013D01*
X0068670Y0069027D01*
X0068784Y0069043D01*
X0068899Y0069058D01*
X0069010Y0069075D01*
X0069118Y0069094D01*
X0069227Y0069112D01*
X0069332Y0069133D01*
X0069434Y0069154D01*
X0069536Y0069176D01*
X0069635Y0069199D01*
X0069730Y0069224D01*
X0069823Y0069247D01*
X0069915Y0069275D01*
X0070100Y0069335D01*
X0070193Y0069369D01*
X0070286Y0069406D01*
X0070378Y0069443D01*
X0070471Y0069483D01*
X0070563Y0069526D01*
X0070655Y0069569D01*
X0070748Y0069615D01*
X0070840Y0069665D01*
X0070932Y0069715D01*
X0071025Y0069767D01*
X0071117Y0069823D01*
X0071209Y0069879D01*
X0071300Y0069938D01*
X0071392Y0070000D01*
X0071484Y0070063D01*
X0071575Y0070128D01*
X0071666Y0070196D01*
X0071758Y0070265D01*
X0071849Y0070336D01*
X0071939Y0070411D01*
X0072024Y0070480D01*
X0072108Y0070550D01*
X0072193Y0070619D01*
X0072277Y0070689D01*
X0072362Y0070758D01*
X0072446Y0070828D01*
X0072530Y0070897D01*
X0072615Y0070967D01*
X0072615Y0067407D01*
X0072596Y0067400D02*
X0061896Y0067400D01*
X0061036Y0067792D02*
X0072615Y0067792D01*
X0072615Y0068184D02*
X0060370Y0068184D01*
X0059843Y0068576D02*
X0072615Y0068576D01*
X0072615Y0068969D02*
X0068065Y0068969D01*
X0070170Y0069361D02*
X0072615Y0069361D01*
X0072615Y0069753D02*
X0070999Y0069753D01*
X0071598Y0070145D02*
X0072615Y0070145D01*
X0072615Y0070537D02*
X0072093Y0070537D01*
X0072570Y0070930D02*
X0072615Y0070930D01*
X0071553Y0067007D02*
X0063131Y0067007D01*
X0065837Y0068969D02*
X0059416Y0068969D01*
X0059064Y0069361D02*
X0063996Y0069361D01*
X0063074Y0069804D02*
X0062949Y0069886D01*
X0062830Y0069972D01*
X0062715Y0070057D01*
X0062607Y0070145D01*
X0065717Y0066615D02*
X0069317Y0066615D01*
X0053827Y0068969D02*
X0040669Y0068969D01*
X0041129Y0068576D02*
X0053335Y0068576D01*
X0052757Y0068184D02*
X0041668Y0068184D01*
X0042308Y0067792D02*
X0052069Y0067792D01*
X0051204Y0067400D02*
X0043111Y0067400D01*
X0044240Y0067007D02*
X0049983Y0067007D01*
X0075925Y0088971D02*
X0087319Y0088971D01*
X0087423Y0089364D02*
X0076437Y0089364D01*
X0077068Y0089756D02*
X0087636Y0089756D01*
X0087927Y0090148D02*
X0077921Y0090148D01*
X0079432Y0090540D02*
X0088231Y0090540D01*
X0091572Y0095666D02*
X0093326Y0094781D01*
X0096991Y0093335D01*
X0098902Y0092776D01*
X0100867Y0092397D01*
X0102832Y0092018D01*
X0104851Y0091820D01*
X0108945Y0091820D01*
X0110951Y0092018D01*
X0112895Y0092397D01*
X0114839Y0092776D01*
X0116720Y0093335D01*
X0118518Y0094058D01*
X0120316Y0094781D01*
X0122029Y0095666D01*
X0123636Y0096698D01*
X0125244Y0097729D01*
X0126745Y0098906D01*
X0128119Y0100211D01*
X0129492Y0101515D01*
X0130738Y0102948D01*
X0131833Y0104491D01*
X0132929Y0106034D01*
X0133875Y0107688D01*
X0134650Y0109434D01*
X0135424Y0111180D01*
X0136027Y0113019D01*
X0136845Y0116848D01*
X0137060Y0118837D01*
X0137060Y0122047D01*
X0136987Y0123190D01*
X0136844Y0124311D01*
X0136702Y0125433D01*
X0136490Y0126532D01*
X0136214Y0127607D01*
X0135939Y0128681D01*
X0135599Y0129731D01*
X0134799Y0131773D01*
X0134339Y0132766D01*
X0133310Y0134689D01*
X0132740Y0135619D01*
X0132120Y0136515D01*
X0131500Y0137410D01*
X0130829Y0138271D01*
X0130112Y0139094D01*
X0129396Y0139918D01*
X0128633Y0140703D01*
X0127829Y0141448D01*
X0127026Y0142192D01*
X0126180Y0142896D01*
X0125299Y0143555D01*
X0125090Y0143711D01*
X0124856Y0143856D01*
X0124602Y0143987D01*
X0124348Y0144118D01*
X0124076Y0144235D01*
X0123507Y0144437D01*
X0123211Y0144521D01*
X0122910Y0144586D01*
X0122610Y0144651D01*
X0122304Y0144697D01*
X0122001Y0144720D01*
X0121699Y0144744D01*
X0121398Y0144745D01*
X0121108Y0144722D01*
X0120817Y0144698D01*
X0120536Y0144650D01*
X0120008Y0144497D01*
X0119761Y0144392D01*
X0119538Y0144257D01*
X0119315Y0144123D01*
X0119116Y0143957D01*
X0118949Y0143758D01*
X0118845Y0143635D01*
X0118750Y0143510D01*
X0118663Y0143381D01*
X0118575Y0143253D01*
X0118496Y0143122D01*
X0118351Y0142855D01*
X0118285Y0142720D01*
X0118227Y0142583D01*
X0118168Y0142446D01*
X0118117Y0142308D01*
X0118071Y0142168D01*
X0118025Y0142028D01*
X0117986Y0141888D01*
X0117952Y0141746D01*
X0117919Y0141605D01*
X0117891Y0141463D01*
X0117868Y0141321D01*
X0117845Y0141179D01*
X0117828Y0141037D01*
X0117815Y0140895D01*
X0117803Y0140754D01*
X0117795Y0140613D01*
X0117791Y0140472D01*
X0117782Y0140212D01*
X0117809Y0139944D01*
X0117864Y0139673D01*
X0117920Y0139402D01*
X0118004Y0139127D01*
X0118112Y0138850D01*
X0118220Y0138574D01*
X0118351Y0138297D01*
X0118501Y0138022D01*
X0118650Y0137746D01*
X0118817Y0137473D01*
X0118996Y0137204D01*
X0119175Y0136936D01*
X0119366Y0136672D01*
X0119564Y0136416D01*
X0119761Y0136161D01*
X0119965Y0135913D01*
X0120170Y0135675D01*
X0120375Y0135438D01*
X0120581Y0135212D01*
X0120782Y0134999D01*
X0120982Y0134786D01*
X0121178Y0134587D01*
X0121364Y0134405D01*
X0121806Y0133969D01*
X0122227Y0133514D01*
X0122627Y0133040D01*
X0123026Y0132567D01*
X0123403Y0132075D01*
X0124110Y0131058D01*
X0124439Y0130533D01*
X0124743Y0129992D01*
X0125046Y0129451D01*
X0125324Y0128894D01*
X0125824Y0127752D01*
X0126046Y0127166D01*
X0126239Y0126567D01*
X0126432Y0125968D01*
X0126595Y0125356D01*
X0126727Y0124732D01*
X0126860Y0124108D01*
X0126961Y0123472D01*
X0127028Y0122825D01*
X0127096Y0122178D01*
X0127131Y0121520D01*
X0127131Y0119456D01*
X0126990Y0118102D01*
X0126720Y0116801D01*
X0126451Y0115500D01*
X0126054Y0114253D01*
X0125542Y0113070D01*
X0125030Y0111888D01*
X0124404Y0110770D01*
X0123678Y0109728D01*
X0122951Y0108686D01*
X0122123Y0107720D01*
X0121208Y0106842D01*
X0120293Y0105963D01*
X0119291Y0105172D01*
X0118215Y0104479D01*
X0117139Y0103787D01*
X0115989Y0103193D01*
X0114779Y0102708D01*
X0113569Y0102224D01*
X0112299Y0101850D01*
X0109665Y0101343D01*
X0108302Y0101210D01*
X0105508Y0101210D01*
X0104143Y0101343D01*
X0102826Y0101596D01*
X0101508Y0101850D01*
X0100237Y0102224D01*
X0097816Y0103193D01*
X0096666Y0103787D01*
X0095589Y0104479D01*
X0094512Y0105172D01*
X0093509Y0105963D01*
X0092594Y0106842D01*
X0091679Y0107720D01*
X0090850Y0108686D01*
X0090123Y0109728D01*
X0089396Y0110770D01*
X0088770Y0111888D01*
X0088258Y0113070D01*
X0087746Y0114253D01*
X0087348Y0115500D01*
X0086809Y0118102D01*
X0086668Y0119456D01*
X0086668Y0121565D01*
X0086702Y0122266D01*
X0086768Y0122954D01*
X0086835Y0123643D01*
X0086934Y0124319D01*
X0087194Y0125644D01*
X0087356Y0126293D01*
X0087546Y0126926D01*
X0087737Y0127559D01*
X0087958Y0128177D01*
X0088207Y0128778D01*
X0088456Y0129379D01*
X0088733Y0129963D01*
X0089036Y0130529D01*
X0089340Y0131095D01*
X0089670Y0131642D01*
X0090026Y0132170D01*
X0090382Y0132697D01*
X0090763Y0133205D01*
X0091168Y0133691D01*
X0091573Y0134178D01*
X0092001Y0134642D01*
X0092453Y0135084D01*
X0092638Y0135266D01*
X0092832Y0135465D01*
X0093029Y0135678D01*
X0093225Y0135892D01*
X0093424Y0136120D01*
X0093621Y0136359D01*
X0093817Y0136597D01*
X0094010Y0136847D01*
X0094380Y0137363D01*
X0094557Y0137629D01*
X0094719Y0137899D01*
X0094881Y0138170D01*
X0095029Y0138445D01*
X0095286Y0138998D01*
X0095395Y0139276D01*
X0095478Y0139553D01*
X0095561Y0139829D01*
X0095619Y0140104D01*
X0095646Y0140373D01*
X0095673Y0140643D01*
X0095669Y0140908D01*
X0095628Y0141164D01*
X0095605Y0141313D01*
X0095577Y0141461D01*
X0095543Y0141609D01*
X0095509Y0141757D01*
X0095470Y0141904D01*
X0095424Y0142049D01*
X0095378Y0142194D01*
X0095326Y0142338D01*
X0095267Y0142480D01*
X0095208Y0142622D01*
X0095143Y0142762D01*
X0095070Y0142899D01*
X0094997Y0143036D01*
X0094916Y0143171D01*
X0094740Y0143433D01*
X0094644Y0143561D01*
X0094539Y0143685D01*
X0094435Y0143809D01*
X0094322Y0143929D01*
X0094201Y0144044D01*
X0094079Y0144159D01*
X0093948Y0144270D01*
X0093808Y0144376D01*
X0093601Y0144532D01*
X0093367Y0144655D01*
X0093114Y0144748D01*
X0092861Y0144841D01*
X0092588Y0144903D01*
X0092303Y0144939D01*
X0092018Y0144975D01*
X0091719Y0144985D01*
X0091415Y0144971D01*
X0091110Y0144957D01*
X0090799Y0144920D01*
X0090177Y0144807D01*
X0089867Y0144731D01*
X0089258Y0144545D01*
X0088961Y0144436D01*
X0088677Y0144314D01*
X0088393Y0144192D01*
X0088122Y0144058D01*
X0087870Y0143914D01*
X0087619Y0143770D01*
X0087388Y0143616D01*
X0087182Y0143457D01*
X0086336Y0142797D01*
X0085526Y0142094D01*
X0084757Y0141351D01*
X0083989Y0140607D01*
X0083261Y0139823D01*
X0082578Y0139002D01*
X0081895Y0138181D01*
X0081256Y0137323D01*
X0080667Y0136431D01*
X0080078Y0135539D01*
X0079537Y0134612D01*
X0079050Y0133655D01*
X0078562Y0132698D01*
X0078128Y0131710D01*
X0077750Y0130694D01*
X0077373Y0129678D01*
X0077052Y0128634D01*
X0076792Y0127565D01*
X0076532Y0126497D01*
X0076333Y0125404D01*
X0076199Y0124290D01*
X0076066Y0123175D01*
X0075997Y0122039D01*
X0075997Y0118837D01*
X0076223Y0116848D01*
X0077081Y0113019D01*
X0077713Y0111180D01*
X0078521Y0109434D01*
X0079330Y0107688D01*
X0080316Y0106034D01*
X0082593Y0102948D01*
X0083885Y0101515D01*
X0085304Y0100211D01*
X0086724Y0098906D01*
X0088271Y0097729D01*
X0089922Y0096698D01*
X0091572Y0095666D01*
X0091627Y0095639D02*
X0121976Y0095639D01*
X0122597Y0096031D02*
X0090989Y0096031D01*
X0090361Y0096423D02*
X0123209Y0096423D01*
X0123820Y0096816D02*
X0089733Y0096816D01*
X0089105Y0097208D02*
X0124431Y0097208D01*
X0125043Y0097600D02*
X0088478Y0097600D01*
X0087925Y0097992D02*
X0125579Y0097992D01*
X0126080Y0098384D02*
X0087409Y0098384D01*
X0086894Y0098777D02*
X0126580Y0098777D01*
X0127022Y0099169D02*
X0086438Y0099169D01*
X0086011Y0099561D02*
X0127435Y0099561D01*
X0127848Y0099953D02*
X0085584Y0099953D01*
X0085158Y0100345D02*
X0128261Y0100345D01*
X0128673Y0100738D02*
X0084731Y0100738D01*
X0084304Y0101130D02*
X0129086Y0101130D01*
X0129498Y0101522D02*
X0110597Y0101522D01*
X0112518Y0101914D02*
X0129839Y0101914D01*
X0130180Y0102307D02*
X0113775Y0102307D01*
X0114755Y0102699D02*
X0130521Y0102699D01*
X0130839Y0103091D02*
X0115735Y0103091D01*
X0116551Y0103483D02*
X0131118Y0103483D01*
X0131396Y0103875D02*
X0117276Y0103875D01*
X0117886Y0104268D02*
X0131675Y0104268D01*
X0131953Y0104660D02*
X0118495Y0104660D01*
X0119104Y0105052D02*
X0132232Y0105052D01*
X0132510Y0105444D02*
X0119635Y0105444D01*
X0120132Y0105836D02*
X0132789Y0105836D01*
X0133041Y0106229D02*
X0120569Y0106229D01*
X0120978Y0106621D02*
X0133265Y0106621D01*
X0133489Y0107013D02*
X0121386Y0107013D01*
X0121795Y0107405D02*
X0133714Y0107405D01*
X0133924Y0107798D02*
X0122189Y0107798D01*
X0122525Y0108190D02*
X0134098Y0108190D01*
X0134272Y0108582D02*
X0122861Y0108582D01*
X0123152Y0108974D02*
X0134446Y0108974D01*
X0134620Y0109366D02*
X0123425Y0109366D01*
X0123699Y0109759D02*
X0134794Y0109759D01*
X0134967Y0110151D02*
X0123973Y0110151D01*
X0124246Y0110543D02*
X0135141Y0110543D01*
X0135315Y0110935D02*
X0124497Y0110935D01*
X0124717Y0111327D02*
X0135472Y0111327D01*
X0135601Y0111720D02*
X0124936Y0111720D01*
X0125127Y0112112D02*
X0135729Y0112112D01*
X0135858Y0112504D02*
X0125297Y0112504D01*
X0125467Y0112896D02*
X0135986Y0112896D01*
X0136084Y0113288D02*
X0125636Y0113288D01*
X0125806Y0113681D02*
X0136168Y0113681D01*
X0136252Y0114073D02*
X0125976Y0114073D01*
X0126121Y0114465D02*
X0136335Y0114465D01*
X0136419Y0114857D02*
X0126246Y0114857D01*
X0126371Y0115250D02*
X0136503Y0115250D01*
X0136587Y0115642D02*
X0126480Y0115642D01*
X0126562Y0116034D02*
X0136671Y0116034D01*
X0136755Y0116426D02*
X0126643Y0116426D01*
X0126724Y0116818D02*
X0136838Y0116818D01*
X0136884Y0117211D02*
X0126805Y0117211D01*
X0126886Y0117603D02*
X0136926Y0117603D01*
X0136969Y0117995D02*
X0126968Y0117995D01*
X0127020Y0118387D02*
X0137011Y0118387D01*
X0137054Y0118779D02*
X0127061Y0118779D01*
X0127102Y0119172D02*
X0137060Y0119172D01*
X0137060Y0119564D02*
X0127131Y0119564D01*
X0127131Y0119956D02*
X0137060Y0119956D01*
X0137060Y0120348D02*
X0127131Y0120348D01*
X0127131Y0120741D02*
X0137060Y0120741D01*
X0137060Y0121133D02*
X0127131Y0121133D01*
X0127131Y0121525D02*
X0137060Y0121525D01*
X0137060Y0121917D02*
X0127110Y0121917D01*
X0127083Y0122309D02*
X0137043Y0122309D01*
X0137018Y0122702D02*
X0127041Y0122702D01*
X0127000Y0123094D02*
X0136993Y0123094D01*
X0136949Y0123486D02*
X0126958Y0123486D01*
X0126896Y0123878D02*
X0136899Y0123878D01*
X0136849Y0124270D02*
X0126825Y0124270D01*
X0126742Y0124663D02*
X0136799Y0124663D01*
X0136750Y0125055D02*
X0126659Y0125055D01*
X0126571Y0125447D02*
X0136699Y0125447D01*
X0136623Y0125839D02*
X0126466Y0125839D01*
X0126347Y0126231D02*
X0136548Y0126231D01*
X0136467Y0126624D02*
X0126221Y0126624D01*
X0126094Y0127016D02*
X0136366Y0127016D01*
X0136265Y0127408D02*
X0125954Y0127408D01*
X0125802Y0127800D02*
X0136165Y0127800D01*
X0136064Y0128193D02*
X0125631Y0128193D01*
X0125459Y0128585D02*
X0135963Y0128585D01*
X0135843Y0128977D02*
X0125282Y0128977D01*
X0125087Y0129369D02*
X0135716Y0129369D01*
X0135587Y0129761D02*
X0124872Y0129761D01*
X0124652Y0130154D02*
X0135433Y0130154D01*
X0135279Y0130546D02*
X0124431Y0130546D01*
X0124185Y0130938D02*
X0135126Y0130938D01*
X0134972Y0131330D02*
X0123921Y0131330D01*
X0123648Y0131722D02*
X0134819Y0131722D01*
X0134641Y0132115D02*
X0123373Y0132115D01*
X0123072Y0132507D02*
X0134459Y0132507D01*
X0134268Y0132899D02*
X0122746Y0132899D01*
X0122415Y0133291D02*
X0134058Y0133291D01*
X0133848Y0133684D02*
X0122070Y0133684D01*
X0121697Y0134076D02*
X0133638Y0134076D01*
X0133428Y0134468D02*
X0121299Y0134468D01*
X0120913Y0134860D02*
X0133205Y0134860D01*
X0132965Y0135252D02*
X0120544Y0135252D01*
X0120197Y0135645D02*
X0132723Y0135645D01*
X0132451Y0136037D02*
X0119863Y0136037D01*
X0119554Y0136429D02*
X0132179Y0136429D01*
X0131908Y0136821D02*
X0119258Y0136821D01*
X0118990Y0137213D02*
X0131636Y0137213D01*
X0131348Y0137606D02*
X0118736Y0137606D01*
X0118514Y0137998D02*
X0131042Y0137998D01*
X0130726Y0138390D02*
X0118307Y0138390D01*
X0118139Y0138782D02*
X0130384Y0138782D01*
X0130043Y0139174D02*
X0117989Y0139174D01*
X0117886Y0139567D02*
X0129701Y0139567D01*
X0129356Y0139959D02*
X0117807Y0139959D01*
X0117787Y0140351D02*
X0128975Y0140351D01*
X0128590Y0140743D02*
X0117802Y0140743D01*
X0117840Y0141136D02*
X0128166Y0141136D01*
X0127743Y0141528D02*
X0117903Y0141528D01*
X0117995Y0141920D02*
X0127319Y0141920D01*
X0126881Y0142312D02*
X0118118Y0142312D01*
X0118279Y0142704D02*
X0126410Y0142704D01*
X0125912Y0143097D02*
X0118482Y0143097D01*
X0118736Y0143489D02*
X0125388Y0143489D01*
X0124806Y0143881D02*
X0119053Y0143881D01*
X0119564Y0144273D02*
X0123968Y0144273D01*
X0122514Y0144665D02*
X0120628Y0144665D01*
X0111190Y0144665D02*
X0101721Y0144665D01*
X0101721Y0144273D02*
X0111190Y0144273D01*
X0111190Y0143881D02*
X0101721Y0143881D01*
X0101721Y0143489D02*
X0111190Y0143489D01*
X0111190Y0143097D02*
X0101721Y0143097D01*
X0101721Y0142704D02*
X0111190Y0142704D01*
X0111190Y0142312D02*
X0101721Y0142312D01*
X0101721Y0141920D02*
X0111190Y0141920D01*
X0111190Y0141528D02*
X0101721Y0141528D01*
X0101721Y0141136D02*
X0111190Y0141136D01*
X0111190Y0140743D02*
X0101721Y0140743D01*
X0101721Y0140351D02*
X0111190Y0140351D01*
X0111190Y0139959D02*
X0101721Y0139959D01*
X0101721Y0139567D02*
X0111190Y0139567D01*
X0111190Y0139174D02*
X0101721Y0139174D01*
X0101721Y0138782D02*
X0111190Y0138782D01*
X0111190Y0138390D02*
X0101721Y0138390D01*
X0101721Y0137998D02*
X0111190Y0137998D01*
X0111190Y0137606D02*
X0101721Y0137606D01*
X0101721Y0137213D02*
X0111190Y0137213D01*
X0111190Y0136821D02*
X0101721Y0136821D01*
X0101721Y0136429D02*
X0111190Y0136429D01*
X0111190Y0136037D02*
X0101721Y0136037D01*
X0101721Y0135645D02*
X0111190Y0135645D01*
X0111190Y0135252D02*
X0101721Y0135252D01*
X0101721Y0134860D02*
X0111190Y0134860D01*
X0111190Y0134468D02*
X0101721Y0134468D01*
X0101721Y0134076D02*
X0111190Y0134076D01*
X0111190Y0133684D02*
X0101721Y0133684D01*
X0101721Y0133291D02*
X0111190Y0133291D01*
X0111190Y0132899D02*
X0101721Y0132899D01*
X0101721Y0132507D02*
X0111190Y0132507D01*
X0111190Y0132115D02*
X0101721Y0132115D01*
X0101721Y0131722D02*
X0111190Y0131722D01*
X0111190Y0131330D02*
X0101721Y0131330D01*
X0101721Y0130938D02*
X0111190Y0130938D01*
X0111190Y0130546D02*
X0101721Y0130546D01*
X0101721Y0130154D02*
X0111190Y0130154D01*
X0111190Y0129761D02*
X0101721Y0129761D01*
X0101721Y0129369D02*
X0111190Y0129369D01*
X0111190Y0128977D02*
X0101721Y0128977D01*
X0101721Y0128585D02*
X0111190Y0128585D01*
X0111190Y0128193D02*
X0101721Y0128193D01*
X0101721Y0127800D02*
X0111190Y0127800D01*
X0111190Y0127408D02*
X0101721Y0127408D01*
X0101721Y0127016D02*
X0111190Y0127016D01*
X0111190Y0126624D02*
X0101721Y0126624D01*
X0101721Y0126231D02*
X0111190Y0126231D01*
X0111190Y0125839D02*
X0101721Y0125839D01*
X0101721Y0125447D02*
X0111190Y0125447D01*
X0111190Y0125055D02*
X0101721Y0125055D01*
X0101721Y0124663D02*
X0111190Y0124663D01*
X0111190Y0124270D02*
X0101721Y0124270D01*
X0101721Y0123878D02*
X0111190Y0123878D01*
X0111190Y0123486D02*
X0101721Y0123486D01*
X0101721Y0123094D02*
X0111190Y0123094D01*
X0111190Y0122702D02*
X0101721Y0122702D01*
X0101721Y0122309D02*
X0111190Y0122309D01*
X0111190Y0122001D02*
X0111190Y0150762D01*
X0111189Y0150861D01*
X0111179Y0151006D01*
X0111169Y0151151D01*
X0111149Y0151343D01*
X0111110Y0151565D01*
X0111071Y0151787D01*
X0111014Y0152039D01*
X0110929Y0152305D01*
X0110844Y0152572D01*
X0110731Y0152852D01*
X0110582Y0153130D01*
X0110433Y0153408D01*
X0110247Y0153683D01*
X0110015Y0153940D01*
X0109784Y0154198D01*
X0109507Y0154436D01*
X0108843Y0154844D01*
X0108457Y0155013D01*
X0108007Y0155131D01*
X0107557Y0155250D01*
X0107044Y0155317D01*
X0106202Y0155317D01*
X0105936Y0155300D01*
X0105666Y0155264D01*
X0105397Y0155228D01*
X0105124Y0155172D01*
X0104854Y0155094D01*
X0104584Y0155016D01*
X0104317Y0154917D01*
X0104059Y0154792D01*
X0103802Y0154667D01*
X0103554Y0154518D01*
X0103321Y0154341D01*
X0103089Y0154164D01*
X0102873Y0153959D01*
X0102680Y0153724D01*
X0102486Y0153490D01*
X0102315Y0153225D01*
X0102173Y0152927D01*
X0102031Y0152630D01*
X0101918Y0152299D01*
X0101840Y0151933D01*
X0101763Y0151567D01*
X0101721Y0151166D01*
X0101721Y0122001D01*
X0101760Y0121740D01*
X0101834Y0121479D01*
X0101907Y0121218D01*
X0102014Y0120956D01*
X0102149Y0120700D01*
X0102284Y0120444D01*
X0102447Y0120194D01*
X0102632Y0119954D01*
X0102817Y0119714D01*
X0103023Y0119484D01*
X0103246Y0119271D01*
X0103469Y0119058D01*
X0103707Y0118860D01*
X0103956Y0118684D01*
X0104205Y0118508D01*
X0104464Y0118354D01*
X0104991Y0118098D01*
X0105258Y0117996D01*
X0105790Y0117858D01*
X0106054Y0117820D01*
X0106565Y0117820D01*
X0106833Y0117858D01*
X0107106Y0117927D01*
X0107379Y0117996D01*
X0107657Y0118098D01*
X0107934Y0118226D01*
X0108210Y0118354D01*
X0108485Y0118508D01*
X0108751Y0118684D01*
X0109017Y0118860D01*
X0109274Y0119058D01*
X0109516Y0119271D01*
X0109757Y0119484D01*
X0109982Y0119714D01*
X0110184Y0119954D01*
X0110386Y0120194D01*
X0110566Y0120444D01*
X0110715Y0120700D01*
X0110864Y0120956D01*
X0110982Y0121218D01*
X0111064Y0121479D01*
X0111146Y0121740D01*
X0111190Y0122001D01*
X0111176Y0121917D02*
X0101734Y0121917D01*
X0101821Y0121525D02*
X0111078Y0121525D01*
X0110944Y0121133D02*
X0101942Y0121133D01*
X0102128Y0120741D02*
X0110738Y0120741D01*
X0110497Y0120348D02*
X0102347Y0120348D01*
X0102630Y0119956D02*
X0110186Y0119956D01*
X0109835Y0119564D02*
X0102952Y0119564D01*
X0103350Y0119172D02*
X0109403Y0119172D01*
X0108895Y0118779D02*
X0103822Y0118779D01*
X0104408Y0118387D02*
X0108270Y0118387D01*
X0107374Y0117995D02*
X0105263Y0117995D01*
X0095918Y0104268D02*
X0081620Y0104268D01*
X0081330Y0104660D02*
X0095309Y0104660D01*
X0094699Y0105052D02*
X0081041Y0105052D01*
X0080751Y0105444D02*
X0094167Y0105444D01*
X0093670Y0105836D02*
X0080462Y0105836D01*
X0080200Y0106229D02*
X0093233Y0106229D01*
X0092824Y0106621D02*
X0079966Y0106621D01*
X0079732Y0107013D02*
X0092416Y0107013D01*
X0092007Y0107405D02*
X0079498Y0107405D01*
X0079279Y0107798D02*
X0091612Y0107798D01*
X0091276Y0108190D02*
X0079097Y0108190D01*
X0078916Y0108582D02*
X0090940Y0108582D01*
X0090649Y0108974D02*
X0078734Y0108974D01*
X0078553Y0109366D02*
X0090376Y0109366D01*
X0090102Y0109759D02*
X0078371Y0109759D01*
X0078189Y0110151D02*
X0089828Y0110151D01*
X0089554Y0110543D02*
X0078008Y0110543D01*
X0077826Y0110935D02*
X0089303Y0110935D01*
X0089083Y0111327D02*
X0077662Y0111327D01*
X0077527Y0111720D02*
X0088864Y0111720D01*
X0088672Y0112112D02*
X0077393Y0112112D01*
X0077258Y0112504D02*
X0088503Y0112504D01*
X0088333Y0112896D02*
X0077124Y0112896D01*
X0077021Y0113288D02*
X0088163Y0113288D01*
X0087993Y0113681D02*
X0076933Y0113681D01*
X0076845Y0114073D02*
X0087824Y0114073D01*
X0087678Y0114465D02*
X0076757Y0114465D01*
X0076670Y0114857D02*
X0087553Y0114857D01*
X0087428Y0115250D02*
X0076582Y0115250D01*
X0076494Y0115642D02*
X0087319Y0115642D01*
X0087238Y0116034D02*
X0076406Y0116034D01*
X0076318Y0116426D02*
X0087156Y0116426D01*
X0087075Y0116818D02*
X0076230Y0116818D01*
X0076182Y0117211D02*
X0086994Y0117211D01*
X0086913Y0117603D02*
X0076137Y0117603D01*
X0076093Y0117995D02*
X0086831Y0117995D01*
X0086779Y0118387D02*
X0076048Y0118387D01*
X0076003Y0118779D02*
X0086738Y0118779D01*
X0086697Y0119172D02*
X0075997Y0119172D01*
X0075997Y0119564D02*
X0086668Y0119564D01*
X0086668Y0119956D02*
X0075997Y0119956D01*
X0075997Y0120348D02*
X0086668Y0120348D01*
X0086668Y0120741D02*
X0075997Y0120741D01*
X0075997Y0121133D02*
X0086668Y0121133D01*
X0086668Y0121525D02*
X0075997Y0121525D01*
X0075997Y0121917D02*
X0086685Y0121917D01*
X0086706Y0122309D02*
X0076013Y0122309D01*
X0076037Y0122702D02*
X0086744Y0122702D01*
X0086782Y0123094D02*
X0076061Y0123094D01*
X0076103Y0123486D02*
X0086820Y0123486D01*
X0086869Y0123878D02*
X0076150Y0123878D01*
X0076197Y0124270D02*
X0086927Y0124270D01*
X0087001Y0124663D02*
X0076244Y0124663D01*
X0076291Y0125055D02*
X0087078Y0125055D01*
X0087155Y0125447D02*
X0076341Y0125447D01*
X0076413Y0125839D02*
X0087243Y0125839D01*
X0087340Y0126231D02*
X0076484Y0126231D01*
X0076563Y0126624D02*
X0087455Y0126624D01*
X0087574Y0127016D02*
X0076658Y0127016D01*
X0076754Y0127408D02*
X0087692Y0127408D01*
X0087823Y0127800D02*
X0076849Y0127800D01*
X0076945Y0128193D02*
X0087964Y0128193D01*
X0088127Y0128585D02*
X0077040Y0128585D01*
X0077157Y0128977D02*
X0088289Y0128977D01*
X0088451Y0129369D02*
X0077278Y0129369D01*
X0077404Y0129761D02*
X0088637Y0129761D01*
X0088835Y0130154D02*
X0077549Y0130154D01*
X0077695Y0130546D02*
X0089045Y0130546D01*
X0089256Y0130938D02*
X0077841Y0130938D01*
X0077987Y0131330D02*
X0089482Y0131330D01*
X0089724Y0131722D02*
X0078134Y0131722D01*
X0078306Y0132115D02*
X0089989Y0132115D01*
X0090253Y0132507D02*
X0078478Y0132507D01*
X0078665Y0132899D02*
X0090533Y0132899D01*
X0090835Y0133291D02*
X0078865Y0133291D01*
X0079064Y0133684D02*
X0091161Y0133684D01*
X0091488Y0134076D02*
X0079264Y0134076D01*
X0079464Y0134468D02*
X0091841Y0134468D01*
X0092224Y0134860D02*
X0079682Y0134860D01*
X0079911Y0135252D02*
X0092624Y0135252D01*
X0092997Y0135645D02*
X0080148Y0135645D01*
X0080407Y0136037D02*
X0093352Y0136037D01*
X0093679Y0136429D02*
X0080666Y0136429D01*
X0080925Y0136821D02*
X0093990Y0136821D01*
X0094273Y0137213D02*
X0081184Y0137213D01*
X0081466Y0137606D02*
X0094541Y0137606D01*
X0094778Y0137998D02*
X0081758Y0137998D01*
X0082068Y0138390D02*
X0095000Y0138390D01*
X0095186Y0138782D02*
X0082394Y0138782D01*
X0082721Y0139174D02*
X0095355Y0139174D01*
X0095482Y0139567D02*
X0083047Y0139567D01*
X0083387Y0139959D02*
X0095588Y0139959D01*
X0095644Y0140351D02*
X0083751Y0140351D01*
X0084129Y0140743D02*
X0095671Y0140743D01*
X0095633Y0141136D02*
X0084535Y0141136D01*
X0084941Y0141528D02*
X0095562Y0141528D01*
X0095465Y0141920D02*
X0085346Y0141920D01*
X0085777Y0142312D02*
X0095335Y0142312D01*
X0095170Y0142704D02*
X0086229Y0142704D01*
X0086720Y0143097D02*
X0094960Y0143097D01*
X0094698Y0143489D02*
X0087224Y0143489D01*
X0087814Y0143881D02*
X0094367Y0143881D01*
X0093944Y0144273D02*
X0088581Y0144273D01*
X0089653Y0144665D02*
X0093339Y0144665D01*
X0101721Y0145058D02*
X0111190Y0145058D01*
X0111190Y0145450D02*
X0101721Y0145450D01*
X0101721Y0145842D02*
X0111190Y0145842D01*
X0111190Y0146234D02*
X0101721Y0146234D01*
X0101721Y0146627D02*
X0111190Y0146627D01*
X0111190Y0147019D02*
X0101721Y0147019D01*
X0101721Y0147411D02*
X0111190Y0147411D01*
X0111190Y0147803D02*
X0101721Y0147803D01*
X0101721Y0148195D02*
X0111190Y0148195D01*
X0111190Y0148588D02*
X0101721Y0148588D01*
X0101721Y0148980D02*
X0111190Y0148980D01*
X0111190Y0149372D02*
X0101721Y0149372D01*
X0101721Y0149764D02*
X0111190Y0149764D01*
X0111190Y0150156D02*
X0101721Y0150156D01*
X0101721Y0150549D02*
X0111190Y0150549D01*
X0111184Y0150941D02*
X0101721Y0150941D01*
X0101738Y0151333D02*
X0111150Y0151333D01*
X0111082Y0151725D02*
X0101796Y0151725D01*
X0101879Y0152117D02*
X0110989Y0152117D01*
X0110864Y0152510D02*
X0101990Y0152510D01*
X0102161Y0152902D02*
X0110704Y0152902D01*
X0110494Y0153294D02*
X0102360Y0153294D01*
X0102648Y0153686D02*
X0110244Y0153686D01*
X0109891Y0154079D02*
X0103000Y0154079D01*
X0103492Y0154471D02*
X0109451Y0154471D01*
X0108800Y0154863D02*
X0104206Y0154863D01*
X0105601Y0155255D02*
X0107515Y0155255D01*
X0096528Y0103875D02*
X0081909Y0103875D01*
X0082198Y0103483D02*
X0097253Y0103483D01*
X0098070Y0103091D02*
X0082488Y0103091D01*
X0082818Y0102699D02*
X0099051Y0102699D01*
X0100031Y0102307D02*
X0083172Y0102307D01*
X0083525Y0101914D02*
X0101288Y0101914D01*
X0103211Y0101522D02*
X0083879Y0101522D01*
X0092404Y0095247D02*
X0121217Y0095247D01*
X0120458Y0094855D02*
X0093180Y0094855D01*
X0094134Y0094462D02*
X0119523Y0094462D01*
X0118548Y0094070D02*
X0095128Y0094070D01*
X0096123Y0093678D02*
X0117572Y0093678D01*
X0116553Y0093286D02*
X0097161Y0093286D01*
X0098501Y0092893D02*
X0115234Y0092893D01*
X0113430Y0092501D02*
X0100326Y0092501D01*
X0102360Y0092109D02*
X0111418Y0092109D01*
X0112084Y0067400D02*
X0108821Y0067400D01*
X0108596Y0067007D02*
X0112309Y0067007D01*
X0160018Y0088187D02*
X0174804Y0088187D01*
X0174854Y0088579D02*
X0160841Y0088579D01*
X0161818Y0088971D02*
X0174933Y0088971D01*
X0175058Y0089364D02*
X0163203Y0089364D01*
M02*
