G75*
%MOIN*%
%OFA0B0*%
%FSLAX25Y25*%
%IPPOS*%
%LPD*%
%AMOC8*
5,1,8,0,0,1.08239X$1,22.5*
%
%ADD10C,0.01000*%
%ADD11C,0.00000*%
%ADD12C,0.06024*%
%ADD13C,0.06000*%
%ADD14C,0.09449*%
%ADD15C,0.02500*%
%ADD16C,0.02775*%
%ADD17C,0.03750*%
%ADD18C,0.03169*%
%ADD19C,0.02578*%
%ADD20C,0.01200*%
%ADD21C,0.02972*%
%ADD22C,0.01378*%
%ADD23C,0.10000*%
D10*
X0023254Y0014828D02*
X0192545Y0014828D01*
X0192783Y0014831D01*
X0193021Y0014839D01*
X0193258Y0014854D01*
X0193495Y0014874D01*
X0193731Y0014900D01*
X0193967Y0014931D01*
X0194202Y0014968D01*
X0194436Y0015011D01*
X0194669Y0015060D01*
X0194901Y0015114D01*
X0195131Y0015174D01*
X0195360Y0015239D01*
X0195587Y0015310D01*
X0195812Y0015386D01*
X0196035Y0015468D01*
X0196257Y0015555D01*
X0196476Y0015647D01*
X0196693Y0015745D01*
X0196907Y0015847D01*
X0197119Y0015955D01*
X0197329Y0016069D01*
X0197535Y0016187D01*
X0197739Y0016310D01*
X0197939Y0016438D01*
X0198136Y0016570D01*
X0198331Y0016708D01*
X0198521Y0016850D01*
X0198709Y0016997D01*
X0198892Y0017148D01*
X0199072Y0017303D01*
X0199248Y0017463D01*
X0199420Y0017627D01*
X0199589Y0017796D01*
X0199753Y0017968D01*
X0199913Y0018144D01*
X0200068Y0018324D01*
X0200219Y0018507D01*
X0200366Y0018695D01*
X0200508Y0018885D01*
X0200646Y0019080D01*
X0200778Y0019277D01*
X0200906Y0019477D01*
X0201029Y0019681D01*
X0201147Y0019887D01*
X0201261Y0020097D01*
X0201369Y0020309D01*
X0201471Y0020523D01*
X0201569Y0020740D01*
X0201661Y0020959D01*
X0201748Y0021181D01*
X0201830Y0021404D01*
X0201906Y0021629D01*
X0201977Y0021856D01*
X0202042Y0022085D01*
X0202102Y0022315D01*
X0202156Y0022547D01*
X0202205Y0022780D01*
X0202248Y0023014D01*
X0202285Y0023249D01*
X0202316Y0023485D01*
X0202342Y0023721D01*
X0202362Y0023958D01*
X0202377Y0024195D01*
X0202385Y0024433D01*
X0202388Y0024671D01*
X0202387Y0024671D02*
X0202387Y0176246D01*
X0202388Y0176246D02*
X0202385Y0176484D01*
X0202377Y0176722D01*
X0202362Y0176959D01*
X0202342Y0177196D01*
X0202316Y0177432D01*
X0202285Y0177668D01*
X0202248Y0177903D01*
X0202205Y0178137D01*
X0202156Y0178370D01*
X0202102Y0178602D01*
X0202042Y0178832D01*
X0201977Y0179061D01*
X0201906Y0179288D01*
X0201830Y0179513D01*
X0201748Y0179736D01*
X0201661Y0179958D01*
X0201569Y0180177D01*
X0201471Y0180394D01*
X0201369Y0180608D01*
X0201261Y0180820D01*
X0201147Y0181030D01*
X0201029Y0181236D01*
X0200906Y0181440D01*
X0200778Y0181640D01*
X0200646Y0181837D01*
X0200508Y0182032D01*
X0200366Y0182222D01*
X0200219Y0182410D01*
X0200068Y0182593D01*
X0199913Y0182773D01*
X0199753Y0182949D01*
X0199589Y0183121D01*
X0199420Y0183290D01*
X0199248Y0183454D01*
X0199072Y0183614D01*
X0198892Y0183769D01*
X0198709Y0183920D01*
X0198521Y0184067D01*
X0198331Y0184209D01*
X0198136Y0184347D01*
X0197939Y0184479D01*
X0197739Y0184607D01*
X0197535Y0184730D01*
X0197329Y0184848D01*
X0197119Y0184962D01*
X0196907Y0185070D01*
X0196693Y0185172D01*
X0196476Y0185270D01*
X0196257Y0185362D01*
X0196035Y0185449D01*
X0195812Y0185531D01*
X0195587Y0185607D01*
X0195360Y0185678D01*
X0195131Y0185743D01*
X0194901Y0185803D01*
X0194669Y0185857D01*
X0194436Y0185906D01*
X0194202Y0185949D01*
X0193967Y0185986D01*
X0193731Y0186017D01*
X0193495Y0186043D01*
X0193258Y0186063D01*
X0193021Y0186078D01*
X0192783Y0186086D01*
X0192545Y0186089D01*
X0192545Y0186088D02*
X0023254Y0186088D01*
X0013411Y0178214D02*
X0013411Y0026639D01*
X0013412Y0026639D02*
X0013391Y0026373D01*
X0013376Y0026107D01*
X0013369Y0025840D01*
X0013367Y0025573D01*
X0013373Y0025307D01*
X0013384Y0025040D01*
X0013403Y0024774D01*
X0013428Y0024508D01*
X0013459Y0024243D01*
X0013497Y0023979D01*
X0013541Y0023716D01*
X0013592Y0023454D01*
X0013649Y0023194D01*
X0013713Y0022934D01*
X0013783Y0022677D01*
X0013859Y0022421D01*
X0013942Y0022167D01*
X0014030Y0021916D01*
X0014125Y0021666D01*
X0014226Y0021419D01*
X0014333Y0021175D01*
X0014446Y0020933D01*
X0014565Y0020694D01*
X0014689Y0020459D01*
X0014820Y0020226D01*
X0014956Y0019996D01*
X0015098Y0019770D01*
X0015245Y0019548D01*
X0015397Y0019329D01*
X0015555Y0019114D01*
X0015718Y0018903D01*
X0015887Y0018696D01*
X0016060Y0018493D01*
X0016238Y0018294D01*
X0016421Y0018100D01*
X0016609Y0017910D01*
X0016801Y0017726D01*
X0016998Y0017545D01*
X0017199Y0017370D01*
X0017405Y0017200D01*
X0017614Y0017035D01*
X0017828Y0016875D01*
X0018045Y0016720D01*
X0018266Y0016571D01*
X0018491Y0016427D01*
X0018719Y0016289D01*
X0018951Y0016156D01*
X0019186Y0016029D01*
X0019423Y0015908D01*
X0019664Y0015793D01*
X0019907Y0015684D01*
X0020153Y0015581D01*
X0020402Y0015483D01*
X0020653Y0015392D01*
X0020906Y0015307D01*
X0021161Y0015229D01*
X0021417Y0015156D01*
X0021676Y0015090D01*
X0021936Y0015031D01*
X0022197Y0014977D01*
X0022460Y0014930D01*
X0022724Y0014890D01*
X0022988Y0014856D01*
X0023254Y0014829D01*
X0013411Y0178214D02*
X0013437Y0178428D01*
X0013468Y0178641D01*
X0013505Y0178853D01*
X0013547Y0179065D01*
X0013594Y0179275D01*
X0013646Y0179484D01*
X0013703Y0179692D01*
X0013765Y0179898D01*
X0013832Y0180103D01*
X0013903Y0180306D01*
X0013980Y0180507D01*
X0014062Y0180706D01*
X0014148Y0180904D01*
X0014239Y0181099D01*
X0014335Y0181292D01*
X0014436Y0181482D01*
X0014541Y0181670D01*
X0014650Y0181856D01*
X0014764Y0182038D01*
X0014883Y0182218D01*
X0015005Y0182395D01*
X0015132Y0182569D01*
X0015263Y0182740D01*
X0015399Y0182908D01*
X0015538Y0183072D01*
X0015681Y0183233D01*
X0015828Y0183391D01*
X0015979Y0183544D01*
X0016133Y0183695D01*
X0016291Y0183841D01*
X0016453Y0183984D01*
X0016617Y0184122D01*
X0016786Y0184257D01*
X0016957Y0184387D01*
X0017131Y0184513D01*
X0017309Y0184635D01*
X0017489Y0184753D01*
X0017673Y0184866D01*
X0017858Y0184975D01*
X0018047Y0185080D01*
X0018238Y0185179D01*
X0018431Y0185274D01*
X0018627Y0185365D01*
X0018824Y0185450D01*
X0019024Y0185531D01*
X0019225Y0185607D01*
X0019429Y0185678D01*
X0019634Y0185744D01*
X0019840Y0185806D01*
X0020048Y0185862D01*
X0020257Y0185913D01*
X0020468Y0185959D01*
X0020679Y0186000D01*
X0020892Y0186036D01*
X0021105Y0186067D01*
X0021319Y0186092D01*
X0021533Y0186113D01*
X0021748Y0186128D01*
X0021963Y0186138D01*
X0022178Y0186143D01*
X0022394Y0186142D01*
X0022609Y0186137D01*
X0022824Y0186126D01*
X0023039Y0186110D01*
X0023253Y0186088D01*
D11*
X0018293Y0077761D02*
X0018295Y0077925D01*
X0018301Y0078089D01*
X0018311Y0078253D01*
X0018325Y0078417D01*
X0018343Y0078580D01*
X0018365Y0078743D01*
X0018392Y0078905D01*
X0018422Y0079067D01*
X0018456Y0079227D01*
X0018494Y0079387D01*
X0018535Y0079546D01*
X0018581Y0079704D01*
X0018631Y0079860D01*
X0018684Y0080016D01*
X0018741Y0080170D01*
X0018802Y0080322D01*
X0018867Y0080473D01*
X0018936Y0080623D01*
X0019008Y0080770D01*
X0019083Y0080916D01*
X0019163Y0081060D01*
X0019245Y0081202D01*
X0019331Y0081342D01*
X0019421Y0081479D01*
X0019514Y0081615D01*
X0019610Y0081748D01*
X0019710Y0081879D01*
X0019812Y0082007D01*
X0019918Y0082133D01*
X0020027Y0082256D01*
X0020139Y0082376D01*
X0020253Y0082494D01*
X0020371Y0082608D01*
X0020491Y0082720D01*
X0020614Y0082829D01*
X0020740Y0082935D01*
X0020868Y0083037D01*
X0020999Y0083137D01*
X0021132Y0083233D01*
X0021268Y0083326D01*
X0021405Y0083416D01*
X0021545Y0083502D01*
X0021687Y0083584D01*
X0021831Y0083664D01*
X0021977Y0083739D01*
X0022124Y0083811D01*
X0022274Y0083880D01*
X0022425Y0083945D01*
X0022577Y0084006D01*
X0022731Y0084063D01*
X0022887Y0084116D01*
X0023043Y0084166D01*
X0023201Y0084212D01*
X0023360Y0084253D01*
X0023520Y0084291D01*
X0023680Y0084325D01*
X0023842Y0084355D01*
X0024004Y0084382D01*
X0024167Y0084404D01*
X0024330Y0084422D01*
X0024494Y0084436D01*
X0024658Y0084446D01*
X0024822Y0084452D01*
X0024986Y0084454D01*
X0025150Y0084452D01*
X0025314Y0084446D01*
X0025478Y0084436D01*
X0025642Y0084422D01*
X0025805Y0084404D01*
X0025968Y0084382D01*
X0026130Y0084355D01*
X0026292Y0084325D01*
X0026452Y0084291D01*
X0026612Y0084253D01*
X0026771Y0084212D01*
X0026929Y0084166D01*
X0027085Y0084116D01*
X0027241Y0084063D01*
X0027395Y0084006D01*
X0027547Y0083945D01*
X0027698Y0083880D01*
X0027848Y0083811D01*
X0027995Y0083739D01*
X0028141Y0083664D01*
X0028285Y0083584D01*
X0028427Y0083502D01*
X0028567Y0083416D01*
X0028704Y0083326D01*
X0028840Y0083233D01*
X0028973Y0083137D01*
X0029104Y0083037D01*
X0029232Y0082935D01*
X0029358Y0082829D01*
X0029481Y0082720D01*
X0029601Y0082608D01*
X0029719Y0082494D01*
X0029833Y0082376D01*
X0029945Y0082256D01*
X0030054Y0082133D01*
X0030160Y0082007D01*
X0030262Y0081879D01*
X0030362Y0081748D01*
X0030458Y0081615D01*
X0030551Y0081479D01*
X0030641Y0081342D01*
X0030727Y0081202D01*
X0030809Y0081060D01*
X0030889Y0080916D01*
X0030964Y0080770D01*
X0031036Y0080623D01*
X0031105Y0080473D01*
X0031170Y0080322D01*
X0031231Y0080170D01*
X0031288Y0080016D01*
X0031341Y0079860D01*
X0031391Y0079704D01*
X0031437Y0079546D01*
X0031478Y0079387D01*
X0031516Y0079227D01*
X0031550Y0079067D01*
X0031580Y0078905D01*
X0031607Y0078743D01*
X0031629Y0078580D01*
X0031647Y0078417D01*
X0031661Y0078253D01*
X0031671Y0078089D01*
X0031677Y0077925D01*
X0031679Y0077761D01*
X0031677Y0077597D01*
X0031671Y0077433D01*
X0031661Y0077269D01*
X0031647Y0077105D01*
X0031629Y0076942D01*
X0031607Y0076779D01*
X0031580Y0076617D01*
X0031550Y0076455D01*
X0031516Y0076295D01*
X0031478Y0076135D01*
X0031437Y0075976D01*
X0031391Y0075818D01*
X0031341Y0075662D01*
X0031288Y0075506D01*
X0031231Y0075352D01*
X0031170Y0075200D01*
X0031105Y0075049D01*
X0031036Y0074899D01*
X0030964Y0074752D01*
X0030889Y0074606D01*
X0030809Y0074462D01*
X0030727Y0074320D01*
X0030641Y0074180D01*
X0030551Y0074043D01*
X0030458Y0073907D01*
X0030362Y0073774D01*
X0030262Y0073643D01*
X0030160Y0073515D01*
X0030054Y0073389D01*
X0029945Y0073266D01*
X0029833Y0073146D01*
X0029719Y0073028D01*
X0029601Y0072914D01*
X0029481Y0072802D01*
X0029358Y0072693D01*
X0029232Y0072587D01*
X0029104Y0072485D01*
X0028973Y0072385D01*
X0028840Y0072289D01*
X0028704Y0072196D01*
X0028567Y0072106D01*
X0028427Y0072020D01*
X0028285Y0071938D01*
X0028141Y0071858D01*
X0027995Y0071783D01*
X0027848Y0071711D01*
X0027698Y0071642D01*
X0027547Y0071577D01*
X0027395Y0071516D01*
X0027241Y0071459D01*
X0027085Y0071406D01*
X0026929Y0071356D01*
X0026771Y0071310D01*
X0026612Y0071269D01*
X0026452Y0071231D01*
X0026292Y0071197D01*
X0026130Y0071167D01*
X0025968Y0071140D01*
X0025805Y0071118D01*
X0025642Y0071100D01*
X0025478Y0071086D01*
X0025314Y0071076D01*
X0025150Y0071070D01*
X0024986Y0071068D01*
X0024822Y0071070D01*
X0024658Y0071076D01*
X0024494Y0071086D01*
X0024330Y0071100D01*
X0024167Y0071118D01*
X0024004Y0071140D01*
X0023842Y0071167D01*
X0023680Y0071197D01*
X0023520Y0071231D01*
X0023360Y0071269D01*
X0023201Y0071310D01*
X0023043Y0071356D01*
X0022887Y0071406D01*
X0022731Y0071459D01*
X0022577Y0071516D01*
X0022425Y0071577D01*
X0022274Y0071642D01*
X0022124Y0071711D01*
X0021977Y0071783D01*
X0021831Y0071858D01*
X0021687Y0071938D01*
X0021545Y0072020D01*
X0021405Y0072106D01*
X0021268Y0072196D01*
X0021132Y0072289D01*
X0020999Y0072385D01*
X0020868Y0072485D01*
X0020740Y0072587D01*
X0020614Y0072693D01*
X0020491Y0072802D01*
X0020371Y0072914D01*
X0020253Y0073028D01*
X0020139Y0073146D01*
X0020027Y0073266D01*
X0019918Y0073389D01*
X0019812Y0073515D01*
X0019710Y0073643D01*
X0019610Y0073774D01*
X0019514Y0073907D01*
X0019421Y0074043D01*
X0019331Y0074180D01*
X0019245Y0074320D01*
X0019163Y0074462D01*
X0019083Y0074606D01*
X0019008Y0074752D01*
X0018936Y0074899D01*
X0018867Y0075049D01*
X0018802Y0075200D01*
X0018741Y0075352D01*
X0018684Y0075506D01*
X0018631Y0075662D01*
X0018581Y0075818D01*
X0018535Y0075976D01*
X0018494Y0076135D01*
X0018456Y0076295D01*
X0018422Y0076455D01*
X0018392Y0076617D01*
X0018365Y0076779D01*
X0018343Y0076942D01*
X0018325Y0077105D01*
X0018311Y0077269D01*
X0018301Y0077433D01*
X0018295Y0077597D01*
X0018293Y0077761D01*
X0103333Y0051521D02*
X0103335Y0051658D01*
X0103341Y0051796D01*
X0103351Y0051933D01*
X0103365Y0052069D01*
X0103383Y0052206D01*
X0103405Y0052341D01*
X0103431Y0052476D01*
X0103460Y0052610D01*
X0103494Y0052744D01*
X0103531Y0052876D01*
X0103573Y0053007D01*
X0103618Y0053137D01*
X0103667Y0053265D01*
X0103719Y0053392D01*
X0103776Y0053517D01*
X0103835Y0053641D01*
X0103899Y0053763D01*
X0103966Y0053883D01*
X0104036Y0054001D01*
X0104110Y0054117D01*
X0104187Y0054231D01*
X0104268Y0054342D01*
X0104351Y0054451D01*
X0104438Y0054558D01*
X0104528Y0054661D01*
X0104621Y0054763D01*
X0104717Y0054861D01*
X0104815Y0054957D01*
X0104917Y0055050D01*
X0105020Y0055140D01*
X0105127Y0055227D01*
X0105236Y0055310D01*
X0105347Y0055391D01*
X0105461Y0055468D01*
X0105577Y0055542D01*
X0105695Y0055612D01*
X0105815Y0055679D01*
X0105937Y0055743D01*
X0106061Y0055802D01*
X0106186Y0055859D01*
X0106313Y0055911D01*
X0106441Y0055960D01*
X0106571Y0056005D01*
X0106702Y0056047D01*
X0106834Y0056084D01*
X0106968Y0056118D01*
X0107102Y0056147D01*
X0107237Y0056173D01*
X0107372Y0056195D01*
X0107509Y0056213D01*
X0107645Y0056227D01*
X0107782Y0056237D01*
X0107920Y0056243D01*
X0108057Y0056245D01*
X0108194Y0056243D01*
X0108332Y0056237D01*
X0108469Y0056227D01*
X0108605Y0056213D01*
X0108742Y0056195D01*
X0108877Y0056173D01*
X0109012Y0056147D01*
X0109146Y0056118D01*
X0109280Y0056084D01*
X0109412Y0056047D01*
X0109543Y0056005D01*
X0109673Y0055960D01*
X0109801Y0055911D01*
X0109928Y0055859D01*
X0110053Y0055802D01*
X0110177Y0055743D01*
X0110299Y0055679D01*
X0110419Y0055612D01*
X0110537Y0055542D01*
X0110653Y0055468D01*
X0110767Y0055391D01*
X0110878Y0055310D01*
X0110987Y0055227D01*
X0111094Y0055140D01*
X0111197Y0055050D01*
X0111299Y0054957D01*
X0111397Y0054861D01*
X0111493Y0054763D01*
X0111586Y0054661D01*
X0111676Y0054558D01*
X0111763Y0054451D01*
X0111846Y0054342D01*
X0111927Y0054231D01*
X0112004Y0054117D01*
X0112078Y0054001D01*
X0112148Y0053883D01*
X0112215Y0053763D01*
X0112279Y0053641D01*
X0112338Y0053517D01*
X0112395Y0053392D01*
X0112447Y0053265D01*
X0112496Y0053137D01*
X0112541Y0053007D01*
X0112583Y0052876D01*
X0112620Y0052744D01*
X0112654Y0052610D01*
X0112683Y0052476D01*
X0112709Y0052341D01*
X0112731Y0052206D01*
X0112749Y0052069D01*
X0112763Y0051933D01*
X0112773Y0051796D01*
X0112779Y0051658D01*
X0112781Y0051521D01*
X0112779Y0051384D01*
X0112773Y0051246D01*
X0112763Y0051109D01*
X0112749Y0050973D01*
X0112731Y0050836D01*
X0112709Y0050701D01*
X0112683Y0050566D01*
X0112654Y0050432D01*
X0112620Y0050298D01*
X0112583Y0050166D01*
X0112541Y0050035D01*
X0112496Y0049905D01*
X0112447Y0049777D01*
X0112395Y0049650D01*
X0112338Y0049525D01*
X0112279Y0049401D01*
X0112215Y0049279D01*
X0112148Y0049159D01*
X0112078Y0049041D01*
X0112004Y0048925D01*
X0111927Y0048811D01*
X0111846Y0048700D01*
X0111763Y0048591D01*
X0111676Y0048484D01*
X0111586Y0048381D01*
X0111493Y0048279D01*
X0111397Y0048181D01*
X0111299Y0048085D01*
X0111197Y0047992D01*
X0111094Y0047902D01*
X0110987Y0047815D01*
X0110878Y0047732D01*
X0110767Y0047651D01*
X0110653Y0047574D01*
X0110537Y0047500D01*
X0110419Y0047430D01*
X0110299Y0047363D01*
X0110177Y0047299D01*
X0110053Y0047240D01*
X0109928Y0047183D01*
X0109801Y0047131D01*
X0109673Y0047082D01*
X0109543Y0047037D01*
X0109412Y0046995D01*
X0109280Y0046958D01*
X0109146Y0046924D01*
X0109012Y0046895D01*
X0108877Y0046869D01*
X0108742Y0046847D01*
X0108605Y0046829D01*
X0108469Y0046815D01*
X0108332Y0046805D01*
X0108194Y0046799D01*
X0108057Y0046797D01*
X0107920Y0046799D01*
X0107782Y0046805D01*
X0107645Y0046815D01*
X0107509Y0046829D01*
X0107372Y0046847D01*
X0107237Y0046869D01*
X0107102Y0046895D01*
X0106968Y0046924D01*
X0106834Y0046958D01*
X0106702Y0046995D01*
X0106571Y0047037D01*
X0106441Y0047082D01*
X0106313Y0047131D01*
X0106186Y0047183D01*
X0106061Y0047240D01*
X0105937Y0047299D01*
X0105815Y0047363D01*
X0105695Y0047430D01*
X0105577Y0047500D01*
X0105461Y0047574D01*
X0105347Y0047651D01*
X0105236Y0047732D01*
X0105127Y0047815D01*
X0105020Y0047902D01*
X0104917Y0047992D01*
X0104815Y0048085D01*
X0104717Y0048181D01*
X0104621Y0048279D01*
X0104528Y0048381D01*
X0104438Y0048484D01*
X0104351Y0048591D01*
X0104268Y0048700D01*
X0104187Y0048811D01*
X0104110Y0048925D01*
X0104036Y0049041D01*
X0103966Y0049159D01*
X0103899Y0049279D01*
X0103835Y0049401D01*
X0103776Y0049525D01*
X0103719Y0049650D01*
X0103667Y0049777D01*
X0103618Y0049905D01*
X0103573Y0050035D01*
X0103531Y0050166D01*
X0103494Y0050298D01*
X0103460Y0050432D01*
X0103431Y0050566D01*
X0103405Y0050701D01*
X0103383Y0050836D01*
X0103365Y0050973D01*
X0103351Y0051109D01*
X0103341Y0051246D01*
X0103335Y0051384D01*
X0103333Y0051521D01*
X0118923Y0051521D02*
X0118925Y0051658D01*
X0118931Y0051796D01*
X0118941Y0051933D01*
X0118955Y0052069D01*
X0118973Y0052206D01*
X0118995Y0052341D01*
X0119021Y0052476D01*
X0119050Y0052610D01*
X0119084Y0052744D01*
X0119121Y0052876D01*
X0119163Y0053007D01*
X0119208Y0053137D01*
X0119257Y0053265D01*
X0119309Y0053392D01*
X0119366Y0053517D01*
X0119425Y0053641D01*
X0119489Y0053763D01*
X0119556Y0053883D01*
X0119626Y0054001D01*
X0119700Y0054117D01*
X0119777Y0054231D01*
X0119858Y0054342D01*
X0119941Y0054451D01*
X0120028Y0054558D01*
X0120118Y0054661D01*
X0120211Y0054763D01*
X0120307Y0054861D01*
X0120405Y0054957D01*
X0120507Y0055050D01*
X0120610Y0055140D01*
X0120717Y0055227D01*
X0120826Y0055310D01*
X0120937Y0055391D01*
X0121051Y0055468D01*
X0121167Y0055542D01*
X0121285Y0055612D01*
X0121405Y0055679D01*
X0121527Y0055743D01*
X0121651Y0055802D01*
X0121776Y0055859D01*
X0121903Y0055911D01*
X0122031Y0055960D01*
X0122161Y0056005D01*
X0122292Y0056047D01*
X0122424Y0056084D01*
X0122558Y0056118D01*
X0122692Y0056147D01*
X0122827Y0056173D01*
X0122962Y0056195D01*
X0123099Y0056213D01*
X0123235Y0056227D01*
X0123372Y0056237D01*
X0123510Y0056243D01*
X0123647Y0056245D01*
X0123784Y0056243D01*
X0123922Y0056237D01*
X0124059Y0056227D01*
X0124195Y0056213D01*
X0124332Y0056195D01*
X0124467Y0056173D01*
X0124602Y0056147D01*
X0124736Y0056118D01*
X0124870Y0056084D01*
X0125002Y0056047D01*
X0125133Y0056005D01*
X0125263Y0055960D01*
X0125391Y0055911D01*
X0125518Y0055859D01*
X0125643Y0055802D01*
X0125767Y0055743D01*
X0125889Y0055679D01*
X0126009Y0055612D01*
X0126127Y0055542D01*
X0126243Y0055468D01*
X0126357Y0055391D01*
X0126468Y0055310D01*
X0126577Y0055227D01*
X0126684Y0055140D01*
X0126787Y0055050D01*
X0126889Y0054957D01*
X0126987Y0054861D01*
X0127083Y0054763D01*
X0127176Y0054661D01*
X0127266Y0054558D01*
X0127353Y0054451D01*
X0127436Y0054342D01*
X0127517Y0054231D01*
X0127594Y0054117D01*
X0127668Y0054001D01*
X0127738Y0053883D01*
X0127805Y0053763D01*
X0127869Y0053641D01*
X0127928Y0053517D01*
X0127985Y0053392D01*
X0128037Y0053265D01*
X0128086Y0053137D01*
X0128131Y0053007D01*
X0128173Y0052876D01*
X0128210Y0052744D01*
X0128244Y0052610D01*
X0128273Y0052476D01*
X0128299Y0052341D01*
X0128321Y0052206D01*
X0128339Y0052069D01*
X0128353Y0051933D01*
X0128363Y0051796D01*
X0128369Y0051658D01*
X0128371Y0051521D01*
X0128369Y0051384D01*
X0128363Y0051246D01*
X0128353Y0051109D01*
X0128339Y0050973D01*
X0128321Y0050836D01*
X0128299Y0050701D01*
X0128273Y0050566D01*
X0128244Y0050432D01*
X0128210Y0050298D01*
X0128173Y0050166D01*
X0128131Y0050035D01*
X0128086Y0049905D01*
X0128037Y0049777D01*
X0127985Y0049650D01*
X0127928Y0049525D01*
X0127869Y0049401D01*
X0127805Y0049279D01*
X0127738Y0049159D01*
X0127668Y0049041D01*
X0127594Y0048925D01*
X0127517Y0048811D01*
X0127436Y0048700D01*
X0127353Y0048591D01*
X0127266Y0048484D01*
X0127176Y0048381D01*
X0127083Y0048279D01*
X0126987Y0048181D01*
X0126889Y0048085D01*
X0126787Y0047992D01*
X0126684Y0047902D01*
X0126577Y0047815D01*
X0126468Y0047732D01*
X0126357Y0047651D01*
X0126243Y0047574D01*
X0126127Y0047500D01*
X0126009Y0047430D01*
X0125889Y0047363D01*
X0125767Y0047299D01*
X0125643Y0047240D01*
X0125518Y0047183D01*
X0125391Y0047131D01*
X0125263Y0047082D01*
X0125133Y0047037D01*
X0125002Y0046995D01*
X0124870Y0046958D01*
X0124736Y0046924D01*
X0124602Y0046895D01*
X0124467Y0046869D01*
X0124332Y0046847D01*
X0124195Y0046829D01*
X0124059Y0046815D01*
X0123922Y0046805D01*
X0123784Y0046799D01*
X0123647Y0046797D01*
X0123510Y0046799D01*
X0123372Y0046805D01*
X0123235Y0046815D01*
X0123099Y0046829D01*
X0122962Y0046847D01*
X0122827Y0046869D01*
X0122692Y0046895D01*
X0122558Y0046924D01*
X0122424Y0046958D01*
X0122292Y0046995D01*
X0122161Y0047037D01*
X0122031Y0047082D01*
X0121903Y0047131D01*
X0121776Y0047183D01*
X0121651Y0047240D01*
X0121527Y0047299D01*
X0121405Y0047363D01*
X0121285Y0047430D01*
X0121167Y0047500D01*
X0121051Y0047574D01*
X0120937Y0047651D01*
X0120826Y0047732D01*
X0120717Y0047815D01*
X0120610Y0047902D01*
X0120507Y0047992D01*
X0120405Y0048085D01*
X0120307Y0048181D01*
X0120211Y0048279D01*
X0120118Y0048381D01*
X0120028Y0048484D01*
X0119941Y0048591D01*
X0119858Y0048700D01*
X0119777Y0048811D01*
X0119700Y0048925D01*
X0119626Y0049041D01*
X0119556Y0049159D01*
X0119489Y0049279D01*
X0119425Y0049401D01*
X0119366Y0049525D01*
X0119309Y0049650D01*
X0119257Y0049777D01*
X0119208Y0049905D01*
X0119163Y0050035D01*
X0119121Y0050166D01*
X0119084Y0050298D01*
X0119050Y0050432D01*
X0119021Y0050566D01*
X0118995Y0050701D01*
X0118973Y0050836D01*
X0118955Y0050973D01*
X0118941Y0051109D01*
X0118931Y0051246D01*
X0118925Y0051384D01*
X0118923Y0051521D01*
X0134514Y0051521D02*
X0134516Y0051658D01*
X0134522Y0051796D01*
X0134532Y0051933D01*
X0134546Y0052069D01*
X0134564Y0052206D01*
X0134586Y0052341D01*
X0134612Y0052476D01*
X0134641Y0052610D01*
X0134675Y0052744D01*
X0134712Y0052876D01*
X0134754Y0053007D01*
X0134799Y0053137D01*
X0134848Y0053265D01*
X0134900Y0053392D01*
X0134957Y0053517D01*
X0135016Y0053641D01*
X0135080Y0053763D01*
X0135147Y0053883D01*
X0135217Y0054001D01*
X0135291Y0054117D01*
X0135368Y0054231D01*
X0135449Y0054342D01*
X0135532Y0054451D01*
X0135619Y0054558D01*
X0135709Y0054661D01*
X0135802Y0054763D01*
X0135898Y0054861D01*
X0135996Y0054957D01*
X0136098Y0055050D01*
X0136201Y0055140D01*
X0136308Y0055227D01*
X0136417Y0055310D01*
X0136528Y0055391D01*
X0136642Y0055468D01*
X0136758Y0055542D01*
X0136876Y0055612D01*
X0136996Y0055679D01*
X0137118Y0055743D01*
X0137242Y0055802D01*
X0137367Y0055859D01*
X0137494Y0055911D01*
X0137622Y0055960D01*
X0137752Y0056005D01*
X0137883Y0056047D01*
X0138015Y0056084D01*
X0138149Y0056118D01*
X0138283Y0056147D01*
X0138418Y0056173D01*
X0138553Y0056195D01*
X0138690Y0056213D01*
X0138826Y0056227D01*
X0138963Y0056237D01*
X0139101Y0056243D01*
X0139238Y0056245D01*
X0139375Y0056243D01*
X0139513Y0056237D01*
X0139650Y0056227D01*
X0139786Y0056213D01*
X0139923Y0056195D01*
X0140058Y0056173D01*
X0140193Y0056147D01*
X0140327Y0056118D01*
X0140461Y0056084D01*
X0140593Y0056047D01*
X0140724Y0056005D01*
X0140854Y0055960D01*
X0140982Y0055911D01*
X0141109Y0055859D01*
X0141234Y0055802D01*
X0141358Y0055743D01*
X0141480Y0055679D01*
X0141600Y0055612D01*
X0141718Y0055542D01*
X0141834Y0055468D01*
X0141948Y0055391D01*
X0142059Y0055310D01*
X0142168Y0055227D01*
X0142275Y0055140D01*
X0142378Y0055050D01*
X0142480Y0054957D01*
X0142578Y0054861D01*
X0142674Y0054763D01*
X0142767Y0054661D01*
X0142857Y0054558D01*
X0142944Y0054451D01*
X0143027Y0054342D01*
X0143108Y0054231D01*
X0143185Y0054117D01*
X0143259Y0054001D01*
X0143329Y0053883D01*
X0143396Y0053763D01*
X0143460Y0053641D01*
X0143519Y0053517D01*
X0143576Y0053392D01*
X0143628Y0053265D01*
X0143677Y0053137D01*
X0143722Y0053007D01*
X0143764Y0052876D01*
X0143801Y0052744D01*
X0143835Y0052610D01*
X0143864Y0052476D01*
X0143890Y0052341D01*
X0143912Y0052206D01*
X0143930Y0052069D01*
X0143944Y0051933D01*
X0143954Y0051796D01*
X0143960Y0051658D01*
X0143962Y0051521D01*
X0143960Y0051384D01*
X0143954Y0051246D01*
X0143944Y0051109D01*
X0143930Y0050973D01*
X0143912Y0050836D01*
X0143890Y0050701D01*
X0143864Y0050566D01*
X0143835Y0050432D01*
X0143801Y0050298D01*
X0143764Y0050166D01*
X0143722Y0050035D01*
X0143677Y0049905D01*
X0143628Y0049777D01*
X0143576Y0049650D01*
X0143519Y0049525D01*
X0143460Y0049401D01*
X0143396Y0049279D01*
X0143329Y0049159D01*
X0143259Y0049041D01*
X0143185Y0048925D01*
X0143108Y0048811D01*
X0143027Y0048700D01*
X0142944Y0048591D01*
X0142857Y0048484D01*
X0142767Y0048381D01*
X0142674Y0048279D01*
X0142578Y0048181D01*
X0142480Y0048085D01*
X0142378Y0047992D01*
X0142275Y0047902D01*
X0142168Y0047815D01*
X0142059Y0047732D01*
X0141948Y0047651D01*
X0141834Y0047574D01*
X0141718Y0047500D01*
X0141600Y0047430D01*
X0141480Y0047363D01*
X0141358Y0047299D01*
X0141234Y0047240D01*
X0141109Y0047183D01*
X0140982Y0047131D01*
X0140854Y0047082D01*
X0140724Y0047037D01*
X0140593Y0046995D01*
X0140461Y0046958D01*
X0140327Y0046924D01*
X0140193Y0046895D01*
X0140058Y0046869D01*
X0139923Y0046847D01*
X0139786Y0046829D01*
X0139650Y0046815D01*
X0139513Y0046805D01*
X0139375Y0046799D01*
X0139238Y0046797D01*
X0139101Y0046799D01*
X0138963Y0046805D01*
X0138826Y0046815D01*
X0138690Y0046829D01*
X0138553Y0046847D01*
X0138418Y0046869D01*
X0138283Y0046895D01*
X0138149Y0046924D01*
X0138015Y0046958D01*
X0137883Y0046995D01*
X0137752Y0047037D01*
X0137622Y0047082D01*
X0137494Y0047131D01*
X0137367Y0047183D01*
X0137242Y0047240D01*
X0137118Y0047299D01*
X0136996Y0047363D01*
X0136876Y0047430D01*
X0136758Y0047500D01*
X0136642Y0047574D01*
X0136528Y0047651D01*
X0136417Y0047732D01*
X0136308Y0047815D01*
X0136201Y0047902D01*
X0136098Y0047992D01*
X0135996Y0048085D01*
X0135898Y0048181D01*
X0135802Y0048279D01*
X0135709Y0048381D01*
X0135619Y0048484D01*
X0135532Y0048591D01*
X0135449Y0048700D01*
X0135368Y0048811D01*
X0135291Y0048925D01*
X0135217Y0049041D01*
X0135147Y0049159D01*
X0135080Y0049279D01*
X0135016Y0049401D01*
X0134957Y0049525D01*
X0134900Y0049650D01*
X0134848Y0049777D01*
X0134799Y0049905D01*
X0134754Y0050035D01*
X0134712Y0050166D01*
X0134675Y0050298D01*
X0134641Y0050432D01*
X0134612Y0050566D01*
X0134586Y0050701D01*
X0134564Y0050836D01*
X0134546Y0050973D01*
X0134532Y0051109D01*
X0134522Y0051246D01*
X0134516Y0051384D01*
X0134514Y0051521D01*
X0150104Y0051521D02*
X0150106Y0051658D01*
X0150112Y0051796D01*
X0150122Y0051933D01*
X0150136Y0052069D01*
X0150154Y0052206D01*
X0150176Y0052341D01*
X0150202Y0052476D01*
X0150231Y0052610D01*
X0150265Y0052744D01*
X0150302Y0052876D01*
X0150344Y0053007D01*
X0150389Y0053137D01*
X0150438Y0053265D01*
X0150490Y0053392D01*
X0150547Y0053517D01*
X0150606Y0053641D01*
X0150670Y0053763D01*
X0150737Y0053883D01*
X0150807Y0054001D01*
X0150881Y0054117D01*
X0150958Y0054231D01*
X0151039Y0054342D01*
X0151122Y0054451D01*
X0151209Y0054558D01*
X0151299Y0054661D01*
X0151392Y0054763D01*
X0151488Y0054861D01*
X0151586Y0054957D01*
X0151688Y0055050D01*
X0151791Y0055140D01*
X0151898Y0055227D01*
X0152007Y0055310D01*
X0152118Y0055391D01*
X0152232Y0055468D01*
X0152348Y0055542D01*
X0152466Y0055612D01*
X0152586Y0055679D01*
X0152708Y0055743D01*
X0152832Y0055802D01*
X0152957Y0055859D01*
X0153084Y0055911D01*
X0153212Y0055960D01*
X0153342Y0056005D01*
X0153473Y0056047D01*
X0153605Y0056084D01*
X0153739Y0056118D01*
X0153873Y0056147D01*
X0154008Y0056173D01*
X0154143Y0056195D01*
X0154280Y0056213D01*
X0154416Y0056227D01*
X0154553Y0056237D01*
X0154691Y0056243D01*
X0154828Y0056245D01*
X0154965Y0056243D01*
X0155103Y0056237D01*
X0155240Y0056227D01*
X0155376Y0056213D01*
X0155513Y0056195D01*
X0155648Y0056173D01*
X0155783Y0056147D01*
X0155917Y0056118D01*
X0156051Y0056084D01*
X0156183Y0056047D01*
X0156314Y0056005D01*
X0156444Y0055960D01*
X0156572Y0055911D01*
X0156699Y0055859D01*
X0156824Y0055802D01*
X0156948Y0055743D01*
X0157070Y0055679D01*
X0157190Y0055612D01*
X0157308Y0055542D01*
X0157424Y0055468D01*
X0157538Y0055391D01*
X0157649Y0055310D01*
X0157758Y0055227D01*
X0157865Y0055140D01*
X0157968Y0055050D01*
X0158070Y0054957D01*
X0158168Y0054861D01*
X0158264Y0054763D01*
X0158357Y0054661D01*
X0158447Y0054558D01*
X0158534Y0054451D01*
X0158617Y0054342D01*
X0158698Y0054231D01*
X0158775Y0054117D01*
X0158849Y0054001D01*
X0158919Y0053883D01*
X0158986Y0053763D01*
X0159050Y0053641D01*
X0159109Y0053517D01*
X0159166Y0053392D01*
X0159218Y0053265D01*
X0159267Y0053137D01*
X0159312Y0053007D01*
X0159354Y0052876D01*
X0159391Y0052744D01*
X0159425Y0052610D01*
X0159454Y0052476D01*
X0159480Y0052341D01*
X0159502Y0052206D01*
X0159520Y0052069D01*
X0159534Y0051933D01*
X0159544Y0051796D01*
X0159550Y0051658D01*
X0159552Y0051521D01*
X0159550Y0051384D01*
X0159544Y0051246D01*
X0159534Y0051109D01*
X0159520Y0050973D01*
X0159502Y0050836D01*
X0159480Y0050701D01*
X0159454Y0050566D01*
X0159425Y0050432D01*
X0159391Y0050298D01*
X0159354Y0050166D01*
X0159312Y0050035D01*
X0159267Y0049905D01*
X0159218Y0049777D01*
X0159166Y0049650D01*
X0159109Y0049525D01*
X0159050Y0049401D01*
X0158986Y0049279D01*
X0158919Y0049159D01*
X0158849Y0049041D01*
X0158775Y0048925D01*
X0158698Y0048811D01*
X0158617Y0048700D01*
X0158534Y0048591D01*
X0158447Y0048484D01*
X0158357Y0048381D01*
X0158264Y0048279D01*
X0158168Y0048181D01*
X0158070Y0048085D01*
X0157968Y0047992D01*
X0157865Y0047902D01*
X0157758Y0047815D01*
X0157649Y0047732D01*
X0157538Y0047651D01*
X0157424Y0047574D01*
X0157308Y0047500D01*
X0157190Y0047430D01*
X0157070Y0047363D01*
X0156948Y0047299D01*
X0156824Y0047240D01*
X0156699Y0047183D01*
X0156572Y0047131D01*
X0156444Y0047082D01*
X0156314Y0047037D01*
X0156183Y0046995D01*
X0156051Y0046958D01*
X0155917Y0046924D01*
X0155783Y0046895D01*
X0155648Y0046869D01*
X0155513Y0046847D01*
X0155376Y0046829D01*
X0155240Y0046815D01*
X0155103Y0046805D01*
X0154965Y0046799D01*
X0154828Y0046797D01*
X0154691Y0046799D01*
X0154553Y0046805D01*
X0154416Y0046815D01*
X0154280Y0046829D01*
X0154143Y0046847D01*
X0154008Y0046869D01*
X0153873Y0046895D01*
X0153739Y0046924D01*
X0153605Y0046958D01*
X0153473Y0046995D01*
X0153342Y0047037D01*
X0153212Y0047082D01*
X0153084Y0047131D01*
X0152957Y0047183D01*
X0152832Y0047240D01*
X0152708Y0047299D01*
X0152586Y0047363D01*
X0152466Y0047430D01*
X0152348Y0047500D01*
X0152232Y0047574D01*
X0152118Y0047651D01*
X0152007Y0047732D01*
X0151898Y0047815D01*
X0151791Y0047902D01*
X0151688Y0047992D01*
X0151586Y0048085D01*
X0151488Y0048181D01*
X0151392Y0048279D01*
X0151299Y0048381D01*
X0151209Y0048484D01*
X0151122Y0048591D01*
X0151039Y0048700D01*
X0150958Y0048811D01*
X0150881Y0048925D01*
X0150807Y0049041D01*
X0150737Y0049159D01*
X0150670Y0049279D01*
X0150606Y0049401D01*
X0150547Y0049525D01*
X0150490Y0049650D01*
X0150438Y0049777D01*
X0150389Y0049905D01*
X0150344Y0050035D01*
X0150302Y0050166D01*
X0150265Y0050298D01*
X0150231Y0050432D01*
X0150202Y0050566D01*
X0150176Y0050701D01*
X0150154Y0050836D01*
X0150136Y0050973D01*
X0150122Y0051109D01*
X0150112Y0051246D01*
X0150106Y0051384D01*
X0150104Y0051521D01*
X0165695Y0051521D02*
X0165697Y0051658D01*
X0165703Y0051796D01*
X0165713Y0051933D01*
X0165727Y0052069D01*
X0165745Y0052206D01*
X0165767Y0052341D01*
X0165793Y0052476D01*
X0165822Y0052610D01*
X0165856Y0052744D01*
X0165893Y0052876D01*
X0165935Y0053007D01*
X0165980Y0053137D01*
X0166029Y0053265D01*
X0166081Y0053392D01*
X0166138Y0053517D01*
X0166197Y0053641D01*
X0166261Y0053763D01*
X0166328Y0053883D01*
X0166398Y0054001D01*
X0166472Y0054117D01*
X0166549Y0054231D01*
X0166630Y0054342D01*
X0166713Y0054451D01*
X0166800Y0054558D01*
X0166890Y0054661D01*
X0166983Y0054763D01*
X0167079Y0054861D01*
X0167177Y0054957D01*
X0167279Y0055050D01*
X0167382Y0055140D01*
X0167489Y0055227D01*
X0167598Y0055310D01*
X0167709Y0055391D01*
X0167823Y0055468D01*
X0167939Y0055542D01*
X0168057Y0055612D01*
X0168177Y0055679D01*
X0168299Y0055743D01*
X0168423Y0055802D01*
X0168548Y0055859D01*
X0168675Y0055911D01*
X0168803Y0055960D01*
X0168933Y0056005D01*
X0169064Y0056047D01*
X0169196Y0056084D01*
X0169330Y0056118D01*
X0169464Y0056147D01*
X0169599Y0056173D01*
X0169734Y0056195D01*
X0169871Y0056213D01*
X0170007Y0056227D01*
X0170144Y0056237D01*
X0170282Y0056243D01*
X0170419Y0056245D01*
X0170556Y0056243D01*
X0170694Y0056237D01*
X0170831Y0056227D01*
X0170967Y0056213D01*
X0171104Y0056195D01*
X0171239Y0056173D01*
X0171374Y0056147D01*
X0171508Y0056118D01*
X0171642Y0056084D01*
X0171774Y0056047D01*
X0171905Y0056005D01*
X0172035Y0055960D01*
X0172163Y0055911D01*
X0172290Y0055859D01*
X0172415Y0055802D01*
X0172539Y0055743D01*
X0172661Y0055679D01*
X0172781Y0055612D01*
X0172899Y0055542D01*
X0173015Y0055468D01*
X0173129Y0055391D01*
X0173240Y0055310D01*
X0173349Y0055227D01*
X0173456Y0055140D01*
X0173559Y0055050D01*
X0173661Y0054957D01*
X0173759Y0054861D01*
X0173855Y0054763D01*
X0173948Y0054661D01*
X0174038Y0054558D01*
X0174125Y0054451D01*
X0174208Y0054342D01*
X0174289Y0054231D01*
X0174366Y0054117D01*
X0174440Y0054001D01*
X0174510Y0053883D01*
X0174577Y0053763D01*
X0174641Y0053641D01*
X0174700Y0053517D01*
X0174757Y0053392D01*
X0174809Y0053265D01*
X0174858Y0053137D01*
X0174903Y0053007D01*
X0174945Y0052876D01*
X0174982Y0052744D01*
X0175016Y0052610D01*
X0175045Y0052476D01*
X0175071Y0052341D01*
X0175093Y0052206D01*
X0175111Y0052069D01*
X0175125Y0051933D01*
X0175135Y0051796D01*
X0175141Y0051658D01*
X0175143Y0051521D01*
X0175141Y0051384D01*
X0175135Y0051246D01*
X0175125Y0051109D01*
X0175111Y0050973D01*
X0175093Y0050836D01*
X0175071Y0050701D01*
X0175045Y0050566D01*
X0175016Y0050432D01*
X0174982Y0050298D01*
X0174945Y0050166D01*
X0174903Y0050035D01*
X0174858Y0049905D01*
X0174809Y0049777D01*
X0174757Y0049650D01*
X0174700Y0049525D01*
X0174641Y0049401D01*
X0174577Y0049279D01*
X0174510Y0049159D01*
X0174440Y0049041D01*
X0174366Y0048925D01*
X0174289Y0048811D01*
X0174208Y0048700D01*
X0174125Y0048591D01*
X0174038Y0048484D01*
X0173948Y0048381D01*
X0173855Y0048279D01*
X0173759Y0048181D01*
X0173661Y0048085D01*
X0173559Y0047992D01*
X0173456Y0047902D01*
X0173349Y0047815D01*
X0173240Y0047732D01*
X0173129Y0047651D01*
X0173015Y0047574D01*
X0172899Y0047500D01*
X0172781Y0047430D01*
X0172661Y0047363D01*
X0172539Y0047299D01*
X0172415Y0047240D01*
X0172290Y0047183D01*
X0172163Y0047131D01*
X0172035Y0047082D01*
X0171905Y0047037D01*
X0171774Y0046995D01*
X0171642Y0046958D01*
X0171508Y0046924D01*
X0171374Y0046895D01*
X0171239Y0046869D01*
X0171104Y0046847D01*
X0170967Y0046829D01*
X0170831Y0046815D01*
X0170694Y0046805D01*
X0170556Y0046799D01*
X0170419Y0046797D01*
X0170282Y0046799D01*
X0170144Y0046805D01*
X0170007Y0046815D01*
X0169871Y0046829D01*
X0169734Y0046847D01*
X0169599Y0046869D01*
X0169464Y0046895D01*
X0169330Y0046924D01*
X0169196Y0046958D01*
X0169064Y0046995D01*
X0168933Y0047037D01*
X0168803Y0047082D01*
X0168675Y0047131D01*
X0168548Y0047183D01*
X0168423Y0047240D01*
X0168299Y0047299D01*
X0168177Y0047363D01*
X0168057Y0047430D01*
X0167939Y0047500D01*
X0167823Y0047574D01*
X0167709Y0047651D01*
X0167598Y0047732D01*
X0167489Y0047815D01*
X0167382Y0047902D01*
X0167279Y0047992D01*
X0167177Y0048085D01*
X0167079Y0048181D01*
X0166983Y0048279D01*
X0166890Y0048381D01*
X0166800Y0048484D01*
X0166713Y0048591D01*
X0166630Y0048700D01*
X0166549Y0048811D01*
X0166472Y0048925D01*
X0166398Y0049041D01*
X0166328Y0049159D01*
X0166261Y0049279D01*
X0166197Y0049401D01*
X0166138Y0049525D01*
X0166081Y0049650D01*
X0166029Y0049777D01*
X0165980Y0049905D01*
X0165935Y0050035D01*
X0165893Y0050166D01*
X0165856Y0050298D01*
X0165822Y0050432D01*
X0165793Y0050566D01*
X0165767Y0050701D01*
X0165745Y0050836D01*
X0165727Y0050973D01*
X0165713Y0051109D01*
X0165703Y0051246D01*
X0165697Y0051384D01*
X0165695Y0051521D01*
X0181285Y0051521D02*
X0181287Y0051658D01*
X0181293Y0051796D01*
X0181303Y0051933D01*
X0181317Y0052069D01*
X0181335Y0052206D01*
X0181357Y0052341D01*
X0181383Y0052476D01*
X0181412Y0052610D01*
X0181446Y0052744D01*
X0181483Y0052876D01*
X0181525Y0053007D01*
X0181570Y0053137D01*
X0181619Y0053265D01*
X0181671Y0053392D01*
X0181728Y0053517D01*
X0181787Y0053641D01*
X0181851Y0053763D01*
X0181918Y0053883D01*
X0181988Y0054001D01*
X0182062Y0054117D01*
X0182139Y0054231D01*
X0182220Y0054342D01*
X0182303Y0054451D01*
X0182390Y0054558D01*
X0182480Y0054661D01*
X0182573Y0054763D01*
X0182669Y0054861D01*
X0182767Y0054957D01*
X0182869Y0055050D01*
X0182972Y0055140D01*
X0183079Y0055227D01*
X0183188Y0055310D01*
X0183299Y0055391D01*
X0183413Y0055468D01*
X0183529Y0055542D01*
X0183647Y0055612D01*
X0183767Y0055679D01*
X0183889Y0055743D01*
X0184013Y0055802D01*
X0184138Y0055859D01*
X0184265Y0055911D01*
X0184393Y0055960D01*
X0184523Y0056005D01*
X0184654Y0056047D01*
X0184786Y0056084D01*
X0184920Y0056118D01*
X0185054Y0056147D01*
X0185189Y0056173D01*
X0185324Y0056195D01*
X0185461Y0056213D01*
X0185597Y0056227D01*
X0185734Y0056237D01*
X0185872Y0056243D01*
X0186009Y0056245D01*
X0186146Y0056243D01*
X0186284Y0056237D01*
X0186421Y0056227D01*
X0186557Y0056213D01*
X0186694Y0056195D01*
X0186829Y0056173D01*
X0186964Y0056147D01*
X0187098Y0056118D01*
X0187232Y0056084D01*
X0187364Y0056047D01*
X0187495Y0056005D01*
X0187625Y0055960D01*
X0187753Y0055911D01*
X0187880Y0055859D01*
X0188005Y0055802D01*
X0188129Y0055743D01*
X0188251Y0055679D01*
X0188371Y0055612D01*
X0188489Y0055542D01*
X0188605Y0055468D01*
X0188719Y0055391D01*
X0188830Y0055310D01*
X0188939Y0055227D01*
X0189046Y0055140D01*
X0189149Y0055050D01*
X0189251Y0054957D01*
X0189349Y0054861D01*
X0189445Y0054763D01*
X0189538Y0054661D01*
X0189628Y0054558D01*
X0189715Y0054451D01*
X0189798Y0054342D01*
X0189879Y0054231D01*
X0189956Y0054117D01*
X0190030Y0054001D01*
X0190100Y0053883D01*
X0190167Y0053763D01*
X0190231Y0053641D01*
X0190290Y0053517D01*
X0190347Y0053392D01*
X0190399Y0053265D01*
X0190448Y0053137D01*
X0190493Y0053007D01*
X0190535Y0052876D01*
X0190572Y0052744D01*
X0190606Y0052610D01*
X0190635Y0052476D01*
X0190661Y0052341D01*
X0190683Y0052206D01*
X0190701Y0052069D01*
X0190715Y0051933D01*
X0190725Y0051796D01*
X0190731Y0051658D01*
X0190733Y0051521D01*
X0190731Y0051384D01*
X0190725Y0051246D01*
X0190715Y0051109D01*
X0190701Y0050973D01*
X0190683Y0050836D01*
X0190661Y0050701D01*
X0190635Y0050566D01*
X0190606Y0050432D01*
X0190572Y0050298D01*
X0190535Y0050166D01*
X0190493Y0050035D01*
X0190448Y0049905D01*
X0190399Y0049777D01*
X0190347Y0049650D01*
X0190290Y0049525D01*
X0190231Y0049401D01*
X0190167Y0049279D01*
X0190100Y0049159D01*
X0190030Y0049041D01*
X0189956Y0048925D01*
X0189879Y0048811D01*
X0189798Y0048700D01*
X0189715Y0048591D01*
X0189628Y0048484D01*
X0189538Y0048381D01*
X0189445Y0048279D01*
X0189349Y0048181D01*
X0189251Y0048085D01*
X0189149Y0047992D01*
X0189046Y0047902D01*
X0188939Y0047815D01*
X0188830Y0047732D01*
X0188719Y0047651D01*
X0188605Y0047574D01*
X0188489Y0047500D01*
X0188371Y0047430D01*
X0188251Y0047363D01*
X0188129Y0047299D01*
X0188005Y0047240D01*
X0187880Y0047183D01*
X0187753Y0047131D01*
X0187625Y0047082D01*
X0187495Y0047037D01*
X0187364Y0046995D01*
X0187232Y0046958D01*
X0187098Y0046924D01*
X0186964Y0046895D01*
X0186829Y0046869D01*
X0186694Y0046847D01*
X0186557Y0046829D01*
X0186421Y0046815D01*
X0186284Y0046805D01*
X0186146Y0046799D01*
X0186009Y0046797D01*
X0185872Y0046799D01*
X0185734Y0046805D01*
X0185597Y0046815D01*
X0185461Y0046829D01*
X0185324Y0046847D01*
X0185189Y0046869D01*
X0185054Y0046895D01*
X0184920Y0046924D01*
X0184786Y0046958D01*
X0184654Y0046995D01*
X0184523Y0047037D01*
X0184393Y0047082D01*
X0184265Y0047131D01*
X0184138Y0047183D01*
X0184013Y0047240D01*
X0183889Y0047299D01*
X0183767Y0047363D01*
X0183647Y0047430D01*
X0183529Y0047500D01*
X0183413Y0047574D01*
X0183299Y0047651D01*
X0183188Y0047732D01*
X0183079Y0047815D01*
X0182972Y0047902D01*
X0182869Y0047992D01*
X0182767Y0048085D01*
X0182669Y0048181D01*
X0182573Y0048279D01*
X0182480Y0048381D01*
X0182390Y0048484D01*
X0182303Y0048591D01*
X0182220Y0048700D01*
X0182139Y0048811D01*
X0182062Y0048925D01*
X0181988Y0049041D01*
X0181918Y0049159D01*
X0181851Y0049279D01*
X0181787Y0049401D01*
X0181728Y0049525D01*
X0181671Y0049650D01*
X0181619Y0049777D01*
X0181570Y0049905D01*
X0181525Y0050035D01*
X0181483Y0050166D01*
X0181446Y0050298D01*
X0181412Y0050432D01*
X0181383Y0050566D01*
X0181357Y0050701D01*
X0181335Y0050836D01*
X0181317Y0050973D01*
X0181303Y0051109D01*
X0181293Y0051246D01*
X0181287Y0051384D01*
X0181285Y0051521D01*
D12*
X0185970Y0038332D03*
X0170380Y0038332D03*
X0154789Y0038332D03*
X0139238Y0038332D03*
X0123647Y0038332D03*
X0108057Y0038332D03*
D13*
X0188608Y0076757D03*
X0188608Y0086757D03*
X0188608Y0102348D03*
X0188608Y0112348D03*
X0188608Y0127939D03*
X0188608Y0137939D03*
X0188608Y0153529D03*
X0188608Y0163529D03*
D14*
X0100340Y0160261D03*
X0084750Y0160261D03*
X0061624Y0159801D03*
X0030443Y0159801D03*
D15*
X0058687Y0086876D03*
X0058687Y0083923D03*
X0061443Y0083923D03*
X0064198Y0083923D03*
X0064198Y0086876D03*
X0061443Y0086876D03*
X0061443Y0080970D03*
X0064198Y0080970D03*
X0058687Y0080970D03*
X0139789Y0127033D03*
X0142545Y0127033D03*
X0145301Y0127033D03*
X0145301Y0129986D03*
X0142545Y0129986D03*
X0139789Y0129986D03*
X0139789Y0132939D03*
X0142545Y0132939D03*
X0145301Y0132939D03*
D16*
X0162860Y0089474D03*
X0162860Y0083569D03*
X0162860Y0079631D03*
X0162860Y0073726D03*
X0162466Y0061718D03*
X0154986Y0063096D03*
X0146836Y0061797D03*
X0137387Y0065931D03*
X0146836Y0044080D03*
X0146757Y0035222D03*
X0144080Y0028765D03*
X0143332Y0020301D03*
X0129553Y0020301D03*
X0128490Y0028765D03*
X0115773Y0020301D03*
X0114868Y0028765D03*
X0101246Y0028765D03*
X0101994Y0020301D03*
X0088214Y0020301D03*
X0074435Y0020301D03*
X0060655Y0020301D03*
X0046876Y0020301D03*
X0033096Y0020301D03*
X0019513Y0022860D03*
X0019513Y0036639D03*
X0019513Y0050419D03*
X0019513Y0064198D03*
X0019513Y0091757D03*
X0019513Y0105537D03*
X0019513Y0119317D03*
X0019513Y0133096D03*
X0019513Y0146876D03*
X0019513Y0160655D03*
X0019513Y0170498D03*
X0019513Y0180340D03*
X0033293Y0180340D03*
X0047072Y0180340D03*
X0060852Y0180340D03*
X0074631Y0180340D03*
X0088411Y0180340D03*
X0102191Y0180340D03*
X0115970Y0180340D03*
X0129750Y0180340D03*
X0143529Y0180340D03*
X0157309Y0180340D03*
X0171088Y0180340D03*
X0184868Y0180340D03*
X0195301Y0180340D03*
X0198057Y0172860D03*
X0198057Y0164592D03*
X0198057Y0150813D03*
X0198057Y0137033D03*
X0198057Y0123254D03*
X0198057Y0109474D03*
X0198057Y0095694D03*
X0198057Y0081915D03*
X0198057Y0068135D03*
X0198057Y0054356D03*
X0198057Y0040576D03*
X0198057Y0026797D03*
X0184671Y0020301D03*
X0170891Y0020301D03*
X0163450Y0028765D03*
X0162348Y0035143D03*
X0162466Y0044002D03*
X0173923Y0033883D03*
X0157112Y0020301D03*
X0067230Y0105458D03*
X0053175Y0107545D03*
X0049852Y0124734D03*
X0049852Y0129458D03*
X0038041Y0129458D03*
X0038041Y0124734D03*
X0061663Y0124734D03*
X0061663Y0129458D03*
X0073474Y0129458D03*
X0073474Y0124340D03*
X0085285Y0124340D03*
X0085285Y0129458D03*
X0049750Y0155576D03*
D17*
X0047663Y0092151D03*
X0042151Y0092151D03*
X0042151Y0086246D03*
X0047663Y0086246D03*
X0047663Y0080340D03*
X0042151Y0080340D03*
X0036246Y0080340D03*
X0036246Y0074435D03*
X0042151Y0074435D03*
X0047663Y0074435D03*
X0053765Y0078962D03*
X0053765Y0083883D03*
X0053765Y0088805D03*
X0069120Y0088805D03*
X0069120Y0083883D03*
X0069120Y0078962D03*
X0080931Y0086443D03*
X0080931Y0091167D03*
X0086443Y0091167D03*
X0086443Y0086443D03*
X0091561Y0086443D03*
X0091561Y0091167D03*
X0117348Y0119710D03*
X0123254Y0119710D03*
X0128765Y0119710D03*
X0128765Y0125616D03*
X0134671Y0125065D03*
X0134671Y0129986D03*
X0128765Y0131521D03*
X0134671Y0135104D03*
X0128765Y0137427D03*
X0123254Y0137427D03*
X0123254Y0131521D03*
X0123254Y0125616D03*
X0117348Y0125616D03*
X0117348Y0131521D03*
X0117348Y0137427D03*
X0150419Y0135104D03*
X0150419Y0129986D03*
X0150419Y0125065D03*
X0157112Y0134277D03*
X0162624Y0134277D03*
X0162624Y0139002D03*
X0157112Y0139002D03*
X0167742Y0139002D03*
X0167742Y0134277D03*
X0036246Y0092151D03*
X0036246Y0086246D03*
D18*
X0073126Y0097111D03*
X0083096Y0097269D03*
X0115680Y0084277D03*
X0115680Y0079946D03*
X0121679Y0072860D03*
X0120498Y0065773D03*
X0116167Y0065773D03*
X0116167Y0061049D03*
X0120498Y0061049D03*
X0126009Y0061049D03*
X0130340Y0061049D03*
X0130340Y0065773D03*
X0126009Y0065773D03*
X0129553Y0072860D03*
X0130734Y0040970D03*
X0130734Y0036246D03*
X0116561Y0036246D03*
X0116561Y0040970D03*
X0052156Y0041729D03*
X0051959Y0046847D03*
X0046053Y0046847D03*
X0040738Y0046847D03*
X0035423Y0046847D03*
X0030108Y0046847D03*
X0052156Y0036611D03*
X0052156Y0031493D03*
X0166167Y0128372D03*
D19*
X0147269Y0149631D03*
X0134474Y0152191D03*
X0118135Y0146482D03*
X0037820Y0100419D03*
X0069317Y0068135D03*
X0069317Y0064592D03*
X0069317Y0061049D03*
X0069317Y0057506D03*
X0069317Y0053962D03*
X0083096Y0054750D03*
X0083096Y0058293D03*
X0087820Y0058293D03*
X0087820Y0054750D03*
X0092545Y0054750D03*
X0092545Y0058293D03*
X0136443Y0031364D03*
D20*
X0018999Y0020272D02*
X0018495Y0020481D01*
X0020097Y0019079D01*
X0022332Y0018121D01*
X0023460Y0017928D01*
X0032062Y0017928D01*
X0031630Y0018107D01*
X0030903Y0018835D01*
X0030509Y0019786D01*
X0030509Y0020815D01*
X0030903Y0021766D01*
X0031630Y0022494D01*
X0032581Y0022888D01*
X0033611Y0022888D01*
X0034562Y0022494D01*
X0035290Y0021766D01*
X0035683Y0020815D01*
X0035683Y0019786D01*
X0035290Y0018835D01*
X0034562Y0018107D01*
X0034130Y0017928D01*
X0045842Y0017928D01*
X0045410Y0018107D01*
X0044682Y0018835D01*
X0044288Y0019786D01*
X0044288Y0020815D01*
X0044682Y0021766D01*
X0045410Y0022494D01*
X0046361Y0022888D01*
X0047390Y0022888D01*
X0048341Y0022494D01*
X0049069Y0021766D01*
X0049463Y0020815D01*
X0049463Y0019786D01*
X0049069Y0018835D01*
X0048341Y0018107D01*
X0047909Y0017928D01*
X0059622Y0017928D01*
X0059189Y0018107D01*
X0058462Y0018835D01*
X0058068Y0019786D01*
X0058068Y0020815D01*
X0058462Y0021766D01*
X0059189Y0022494D01*
X0060140Y0022888D01*
X0061170Y0022888D01*
X0062121Y0022494D01*
X0062849Y0021766D01*
X0063243Y0020815D01*
X0063243Y0019786D01*
X0062849Y0018835D01*
X0062121Y0018107D01*
X0061689Y0017928D01*
X0073401Y0017928D01*
X0072969Y0018107D01*
X0072241Y0018835D01*
X0071847Y0019786D01*
X0071847Y0020815D01*
X0072241Y0021766D01*
X0072969Y0022494D01*
X0073920Y0022888D01*
X0074949Y0022888D01*
X0075900Y0022494D01*
X0076628Y0021766D01*
X0077022Y0020815D01*
X0077022Y0019786D01*
X0076628Y0018835D01*
X0075900Y0018107D01*
X0075468Y0017928D01*
X0087181Y0017928D01*
X0086749Y0018107D01*
X0086021Y0018835D01*
X0085627Y0019786D01*
X0085627Y0020815D01*
X0086021Y0021766D01*
X0086749Y0022494D01*
X0087699Y0022888D01*
X0088729Y0022888D01*
X0089680Y0022494D01*
X0090408Y0021766D01*
X0090802Y0020815D01*
X0090802Y0019786D01*
X0090408Y0018835D01*
X0089680Y0018107D01*
X0089248Y0017928D01*
X0100960Y0017928D01*
X0100528Y0018107D01*
X0099800Y0018835D01*
X0099406Y0019786D01*
X0099406Y0020815D01*
X0099800Y0021766D01*
X0100528Y0022494D01*
X0101479Y0022888D01*
X0102508Y0022888D01*
X0103459Y0022494D01*
X0104187Y0021766D01*
X0104581Y0020815D01*
X0104581Y0019786D01*
X0104187Y0018835D01*
X0103459Y0018107D01*
X0103027Y0017928D01*
X0114740Y0017928D01*
X0114308Y0018107D01*
X0113580Y0018835D01*
X0113186Y0019786D01*
X0113186Y0020815D01*
X0113580Y0021766D01*
X0114308Y0022494D01*
X0115259Y0022888D01*
X0116288Y0022888D01*
X0117239Y0022494D01*
X0117967Y0021766D01*
X0118361Y0020815D01*
X0118361Y0019786D01*
X0117967Y0018835D01*
X0117239Y0018107D01*
X0116807Y0017928D01*
X0128519Y0017928D01*
X0128087Y0018107D01*
X0127359Y0018835D01*
X0126965Y0019786D01*
X0126965Y0020815D01*
X0127359Y0021766D01*
X0128087Y0022494D01*
X0129038Y0022888D01*
X0130067Y0022888D01*
X0131018Y0022494D01*
X0131746Y0021766D01*
X0132140Y0020815D01*
X0132140Y0019786D01*
X0131746Y0018835D01*
X0131018Y0018107D01*
X0130586Y0017928D01*
X0142299Y0017928D01*
X0141867Y0018107D01*
X0141139Y0018835D01*
X0140745Y0019786D01*
X0140745Y0020815D01*
X0141139Y0021766D01*
X0141867Y0022494D01*
X0142818Y0022888D01*
X0143847Y0022888D01*
X0144798Y0022494D01*
X0145526Y0021766D01*
X0145920Y0020815D01*
X0145920Y0019786D01*
X0145526Y0018835D01*
X0144798Y0018107D01*
X0144366Y0017928D01*
X0156078Y0017928D01*
X0155646Y0018107D01*
X0154918Y0018835D01*
X0154524Y0019786D01*
X0154524Y0020815D01*
X0154918Y0021766D01*
X0155646Y0022494D01*
X0156597Y0022888D01*
X0157626Y0022888D01*
X0158577Y0022494D01*
X0159305Y0021766D01*
X0159699Y0020815D01*
X0159699Y0019786D01*
X0159305Y0018835D01*
X0158577Y0018107D01*
X0158145Y0017928D01*
X0169858Y0017928D01*
X0169426Y0018107D01*
X0168698Y0018835D01*
X0168304Y0019786D01*
X0168304Y0020815D01*
X0168698Y0021766D01*
X0169426Y0022494D01*
X0170377Y0022888D01*
X0171406Y0022888D01*
X0172357Y0022494D01*
X0173085Y0021766D01*
X0173479Y0020815D01*
X0173479Y0019786D01*
X0173085Y0018835D01*
X0172357Y0018107D01*
X0171925Y0017928D01*
X0183637Y0017928D01*
X0183205Y0018107D01*
X0182477Y0018835D01*
X0182083Y0019786D01*
X0182083Y0020815D01*
X0182477Y0021766D01*
X0183205Y0022494D01*
X0184156Y0022888D01*
X0185186Y0022888D01*
X0186137Y0022494D01*
X0186864Y0021766D01*
X0187258Y0020815D01*
X0187258Y0019786D01*
X0186864Y0018835D01*
X0186137Y0018107D01*
X0185704Y0017928D01*
X0192545Y0017928D01*
X0193600Y0018011D01*
X0195606Y0018663D01*
X0197313Y0019903D01*
X0198553Y0021610D01*
X0199204Y0023616D01*
X0199274Y0024501D01*
X0198571Y0024209D01*
X0197542Y0024209D01*
X0196591Y0024603D01*
X0195863Y0025331D01*
X0195469Y0026282D01*
X0195469Y0027312D01*
X0195863Y0028262D01*
X0196591Y0028990D01*
X0197542Y0029384D01*
X0198571Y0029384D01*
X0199287Y0029088D01*
X0199287Y0038286D01*
X0198571Y0037989D01*
X0197542Y0037989D01*
X0196591Y0038383D01*
X0195863Y0039111D01*
X0195469Y0040062D01*
X0195469Y0041091D01*
X0195863Y0042042D01*
X0196591Y0042770D01*
X0197542Y0043164D01*
X0198571Y0043164D01*
X0199287Y0042867D01*
X0199287Y0052065D01*
X0198571Y0051769D01*
X0197542Y0051769D01*
X0196591Y0052162D01*
X0195863Y0052890D01*
X0195469Y0053841D01*
X0195469Y0054871D01*
X0195863Y0055822D01*
X0196591Y0056549D01*
X0197542Y0056943D01*
X0198571Y0056943D01*
X0199287Y0056647D01*
X0199287Y0065845D01*
X0198571Y0065548D01*
X0197542Y0065548D01*
X0196591Y0065942D01*
X0195863Y0066670D01*
X0195469Y0067621D01*
X0195469Y0068650D01*
X0195863Y0069601D01*
X0196591Y0070329D01*
X0197542Y0070723D01*
X0198571Y0070723D01*
X0199287Y0070426D01*
X0199287Y0079624D01*
X0198571Y0079328D01*
X0197542Y0079328D01*
X0196591Y0079721D01*
X0195863Y0080449D01*
X0195469Y0081400D01*
X0195469Y0082430D01*
X0195863Y0083381D01*
X0196591Y0084108D01*
X0197542Y0084502D01*
X0198571Y0084502D01*
X0199287Y0084206D01*
X0199287Y0093404D01*
X0198571Y0093107D01*
X0197542Y0093107D01*
X0196591Y0093501D01*
X0195863Y0094229D01*
X0195469Y0095180D01*
X0195469Y0096209D01*
X0195863Y0097160D01*
X0196591Y0097888D01*
X0197542Y0098282D01*
X0198571Y0098282D01*
X0199287Y0097985D01*
X0199287Y0107183D01*
X0198571Y0106887D01*
X0197542Y0106887D01*
X0196591Y0107281D01*
X0195863Y0108008D01*
X0195469Y0108959D01*
X0195469Y0109989D01*
X0195863Y0110940D01*
X0196591Y0111667D01*
X0197542Y0112061D01*
X0198571Y0112061D01*
X0199287Y0111765D01*
X0199287Y0120963D01*
X0198571Y0120666D01*
X0197542Y0120666D01*
X0196591Y0121060D01*
X0195863Y0121788D01*
X0195469Y0122739D01*
X0195469Y0123768D01*
X0195863Y0124719D01*
X0196591Y0125447D01*
X0197542Y0125841D01*
X0198571Y0125841D01*
X0199287Y0125544D01*
X0199287Y0134742D01*
X0198571Y0134446D01*
X0197542Y0134446D01*
X0196591Y0134840D01*
X0195863Y0135567D01*
X0195469Y0136518D01*
X0195469Y0137548D01*
X0195863Y0138499D01*
X0196591Y0139227D01*
X0197542Y0139620D01*
X0198571Y0139620D01*
X0199287Y0139324D01*
X0199287Y0148522D01*
X0198571Y0148225D01*
X0197542Y0148225D01*
X0196591Y0148619D01*
X0195863Y0149347D01*
X0195469Y0150298D01*
X0195469Y0151327D01*
X0195863Y0152278D01*
X0196591Y0153006D01*
X0197542Y0153400D01*
X0198571Y0153400D01*
X0199287Y0153103D01*
X0199287Y0162301D01*
X0198571Y0162005D01*
X0197542Y0162005D01*
X0196591Y0162399D01*
X0195863Y0163126D01*
X0195469Y0164077D01*
X0195469Y0165107D01*
X0195863Y0166058D01*
X0196591Y0166786D01*
X0197542Y0167180D01*
X0198571Y0167180D01*
X0199287Y0166883D01*
X0199287Y0170569D01*
X0198571Y0170272D01*
X0197542Y0170272D01*
X0196591Y0170666D01*
X0195863Y0171394D01*
X0195469Y0172345D01*
X0195469Y0173375D01*
X0195863Y0174325D01*
X0196591Y0175053D01*
X0197542Y0175447D01*
X0198571Y0175447D01*
X0199287Y0175151D01*
X0199287Y0176246D01*
X0199204Y0177300D01*
X0198553Y0179307D01*
X0197888Y0180221D01*
X0197888Y0179825D01*
X0197494Y0178875D01*
X0196766Y0178147D01*
X0195815Y0177753D01*
X0194786Y0177753D01*
X0193835Y0178147D01*
X0193107Y0178875D01*
X0192713Y0179825D01*
X0192713Y0180855D01*
X0193107Y0181806D01*
X0193835Y0182534D01*
X0194234Y0182699D01*
X0193600Y0182905D01*
X0192545Y0182988D01*
X0023694Y0182988D01*
X0023524Y0182939D01*
X0023082Y0182988D01*
X0022637Y0182988D01*
X0022564Y0183018D01*
X0022000Y0183036D01*
X0020508Y0182729D01*
X0020979Y0182534D01*
X0021707Y0181806D01*
X0022101Y0180855D01*
X0022101Y0179825D01*
X0021707Y0178875D01*
X0020979Y0178147D01*
X0020028Y0177753D01*
X0018999Y0177753D01*
X0018048Y0178147D01*
X0017320Y0178875D01*
X0017029Y0179576D01*
X0016664Y0178768D01*
X0016511Y0177971D01*
X0016511Y0081585D01*
X0017108Y0083025D01*
X0019722Y0085640D01*
X0023137Y0087054D01*
X0026834Y0087054D01*
X0030250Y0085640D01*
X0032864Y0083025D01*
X0033447Y0081618D01*
X0033639Y0082082D01*
X0034504Y0082947D01*
X0035339Y0083293D01*
X0034504Y0083639D01*
X0033639Y0084504D01*
X0033171Y0085634D01*
X0033171Y0086857D01*
X0033639Y0087988D01*
X0034504Y0088853D01*
X0035339Y0089198D01*
X0034504Y0089544D01*
X0033639Y0090409D01*
X0033171Y0091540D01*
X0033171Y0092763D01*
X0033639Y0093893D01*
X0034504Y0094758D01*
X0035634Y0095226D01*
X0036857Y0095226D01*
X0037988Y0094758D01*
X0038853Y0093893D01*
X0039198Y0093058D01*
X0039544Y0093893D01*
X0040409Y0094758D01*
X0041540Y0095226D01*
X0042763Y0095226D01*
X0043893Y0094758D01*
X0044758Y0093893D01*
X0044907Y0093533D01*
X0045056Y0093893D01*
X0045921Y0094758D01*
X0047051Y0095226D01*
X0048275Y0095226D01*
X0049405Y0094758D01*
X0050270Y0093893D01*
X0050738Y0092763D01*
X0050738Y0091540D01*
X0050270Y0090409D01*
X0049405Y0089544D01*
X0048570Y0089198D01*
X0049405Y0088853D01*
X0050270Y0087988D01*
X0050738Y0086857D01*
X0050738Y0085634D01*
X0050270Y0084504D01*
X0049405Y0083639D01*
X0048570Y0083293D01*
X0049405Y0082947D01*
X0050270Y0082082D01*
X0050738Y0080952D01*
X0050738Y0079728D01*
X0050270Y0078598D01*
X0049405Y0077733D01*
X0048570Y0077387D01*
X0049405Y0077041D01*
X0050270Y0076176D01*
X0050738Y0075046D01*
X0050738Y0073823D01*
X0050270Y0072693D01*
X0049405Y0071828D01*
X0048275Y0071360D01*
X0047051Y0071360D01*
X0045921Y0071828D01*
X0045056Y0072693D01*
X0044907Y0073053D01*
X0044758Y0072693D01*
X0043893Y0071828D01*
X0042763Y0071360D01*
X0041540Y0071360D01*
X0040409Y0071828D01*
X0039544Y0072693D01*
X0039198Y0073528D01*
X0038853Y0072693D01*
X0037988Y0071828D01*
X0036857Y0071360D01*
X0035634Y0071360D01*
X0034504Y0071828D01*
X0033639Y0072693D01*
X0033292Y0073530D01*
X0032864Y0072497D01*
X0030250Y0069883D01*
X0026834Y0068469D01*
X0023137Y0068469D01*
X0019722Y0069883D01*
X0017108Y0072497D01*
X0016511Y0073938D01*
X0016511Y0027111D01*
X0016554Y0026973D01*
X0016511Y0026499D01*
X0016511Y0026023D01*
X0016494Y0025981D01*
X0016484Y0025139D01*
X0016926Y0023193D01*
X0016926Y0023375D01*
X0017320Y0024325D01*
X0018048Y0025053D01*
X0018999Y0025447D01*
X0020028Y0025447D01*
X0020979Y0025053D01*
X0021707Y0024325D01*
X0022101Y0023375D01*
X0022101Y0022345D01*
X0021707Y0021394D01*
X0020979Y0020666D01*
X0020028Y0020272D01*
X0018999Y0020272D01*
X0019086Y0019964D02*
X0030509Y0019964D01*
X0030652Y0021162D02*
X0021475Y0021162D01*
X0022101Y0022361D02*
X0031497Y0022361D01*
X0034695Y0022361D02*
X0045277Y0022361D01*
X0044432Y0021162D02*
X0035540Y0021162D01*
X0035683Y0019964D02*
X0044288Y0019964D01*
X0044752Y0018765D02*
X0035220Y0018765D01*
X0030972Y0018765D02*
X0020828Y0018765D01*
X0022024Y0023559D02*
X0199186Y0023559D01*
X0198797Y0022361D02*
X0186270Y0022361D01*
X0187115Y0021162D02*
X0198227Y0021162D01*
X0197357Y0019964D02*
X0187258Y0019964D01*
X0186795Y0018765D02*
X0195746Y0018765D01*
X0196436Y0024758D02*
X0021274Y0024758D01*
X0017752Y0024758D02*
X0016570Y0024758D01*
X0016493Y0025956D02*
X0195604Y0025956D01*
X0195469Y0027155D02*
X0165499Y0027155D01*
X0165644Y0027300D02*
X0164916Y0026572D01*
X0163965Y0026178D01*
X0162936Y0026178D01*
X0161985Y0026572D01*
X0161257Y0027300D01*
X0160863Y0028251D01*
X0160863Y0029280D01*
X0161257Y0030231D01*
X0161985Y0030959D01*
X0162936Y0031353D01*
X0163965Y0031353D01*
X0164916Y0030959D01*
X0165644Y0030231D01*
X0166038Y0029280D01*
X0166038Y0028251D01*
X0165644Y0027300D01*
X0166038Y0028353D02*
X0195954Y0028353D01*
X0199287Y0029552D02*
X0165925Y0029552D01*
X0165124Y0030750D02*
X0199287Y0030750D01*
X0199287Y0031949D02*
X0175647Y0031949D01*
X0175388Y0031690D02*
X0176116Y0032418D01*
X0176510Y0033369D01*
X0176510Y0034398D01*
X0176116Y0035349D01*
X0175388Y0036077D01*
X0174437Y0036471D01*
X0174167Y0036471D01*
X0174591Y0037494D01*
X0174591Y0039170D01*
X0173950Y0040718D01*
X0172765Y0041903D01*
X0171217Y0042544D01*
X0169542Y0042544D01*
X0167994Y0041903D01*
X0166809Y0040718D01*
X0166168Y0039170D01*
X0166168Y0037494D01*
X0166809Y0035946D01*
X0167994Y0034762D01*
X0169542Y0034120D01*
X0171217Y0034120D01*
X0171335Y0034169D01*
X0171335Y0033369D01*
X0171729Y0032418D01*
X0172457Y0031690D01*
X0173408Y0031296D01*
X0174437Y0031296D01*
X0175388Y0031690D01*
X0176419Y0033147D02*
X0199287Y0033147D01*
X0199287Y0034346D02*
X0188305Y0034346D01*
X0188387Y0034388D02*
X0188974Y0034815D01*
X0189488Y0035328D01*
X0189914Y0035915D01*
X0190244Y0036562D01*
X0190468Y0037252D01*
X0190575Y0037928D01*
X0186374Y0037928D01*
X0186374Y0033727D01*
X0187050Y0033834D01*
X0187740Y0034058D01*
X0188387Y0034388D01*
X0189645Y0035545D02*
X0199287Y0035545D01*
X0199287Y0036743D02*
X0190303Y0036743D01*
X0190575Y0038736D02*
X0190468Y0039412D01*
X0190244Y0040103D01*
X0189914Y0040749D01*
X0189488Y0041337D01*
X0188974Y0041850D01*
X0188387Y0042277D01*
X0187740Y0042606D01*
X0187050Y0042831D01*
X0186374Y0042938D01*
X0186374Y0038736D01*
X0190575Y0038736D01*
X0190511Y0039140D02*
X0195851Y0039140D01*
X0195469Y0040339D02*
X0190124Y0040339D01*
X0189287Y0041537D02*
X0195654Y0041537D01*
X0196557Y0042736D02*
X0187342Y0042736D01*
X0186374Y0042736D02*
X0185566Y0042736D01*
X0185566Y0042938D02*
X0184890Y0042831D01*
X0184200Y0042606D01*
X0183553Y0042277D01*
X0182966Y0041850D01*
X0182452Y0041337D01*
X0182026Y0040749D01*
X0181696Y0040103D01*
X0181472Y0039412D01*
X0181365Y0038736D01*
X0185566Y0038736D01*
X0185566Y0037928D01*
X0186374Y0037928D01*
X0186374Y0038736D01*
X0185566Y0038736D01*
X0185566Y0042938D01*
X0184598Y0042736D02*
X0164742Y0042736D01*
X0164660Y0042536D02*
X0165054Y0043487D01*
X0165054Y0044516D01*
X0164660Y0045467D01*
X0163932Y0046195D01*
X0162981Y0046589D01*
X0161951Y0046589D01*
X0161000Y0046195D01*
X0160273Y0045467D01*
X0159879Y0044516D01*
X0159879Y0043487D01*
X0160273Y0042536D01*
X0161000Y0041808D01*
X0161951Y0041414D01*
X0162981Y0041414D01*
X0163932Y0041808D01*
X0164660Y0042536D01*
X0165054Y0043934D02*
X0199287Y0043934D01*
X0199287Y0045133D02*
X0189725Y0045133D01*
X0190158Y0045312D02*
X0192219Y0047372D01*
X0193334Y0050064D01*
X0193334Y0052978D01*
X0192219Y0055670D01*
X0190158Y0057731D01*
X0187466Y0058846D01*
X0184553Y0058846D01*
X0181860Y0057731D01*
X0179800Y0055670D01*
X0178685Y0052978D01*
X0178685Y0050064D01*
X0179800Y0047372D01*
X0181860Y0045312D01*
X0184553Y0044197D01*
X0187466Y0044197D01*
X0190158Y0045312D01*
X0191178Y0046331D02*
X0199287Y0046331D01*
X0199287Y0047530D02*
X0192284Y0047530D01*
X0192780Y0048728D02*
X0199287Y0048728D01*
X0199287Y0049927D02*
X0193277Y0049927D01*
X0193334Y0051125D02*
X0199287Y0051125D01*
X0196430Y0052324D02*
X0193334Y0052324D01*
X0193109Y0053522D02*
X0195601Y0053522D01*
X0195469Y0054721D02*
X0192612Y0054721D01*
X0191970Y0055919D02*
X0195961Y0055919D01*
X0199287Y0057118D02*
X0190771Y0057118D01*
X0188745Y0058316D02*
X0199287Y0058316D01*
X0199287Y0059515D02*
X0163908Y0059515D01*
X0163932Y0059525D02*
X0164660Y0060252D01*
X0165054Y0061203D01*
X0165054Y0062233D01*
X0164660Y0063184D01*
X0163932Y0063912D01*
X0162981Y0064305D01*
X0161951Y0064305D01*
X0161000Y0063912D01*
X0160273Y0063184D01*
X0159879Y0062233D01*
X0159879Y0061203D01*
X0160273Y0060252D01*
X0161000Y0059525D01*
X0161951Y0059131D01*
X0162981Y0059131D01*
X0163932Y0059525D01*
X0164850Y0060713D02*
X0199287Y0060713D01*
X0199287Y0061912D02*
X0165054Y0061912D01*
X0164690Y0063110D02*
X0199287Y0063110D01*
X0199287Y0064309D02*
X0157284Y0064309D01*
X0157179Y0064562D02*
X0156451Y0065290D01*
X0155500Y0065683D01*
X0154471Y0065683D01*
X0153520Y0065290D01*
X0152792Y0064562D01*
X0152398Y0063611D01*
X0152398Y0062581D01*
X0152792Y0061630D01*
X0153520Y0060903D01*
X0154471Y0060509D01*
X0155500Y0060509D01*
X0156451Y0060903D01*
X0157179Y0061630D01*
X0157573Y0062581D01*
X0157573Y0063611D01*
X0157179Y0064562D01*
X0157573Y0063110D02*
X0160242Y0063110D01*
X0159879Y0061912D02*
X0157296Y0061912D01*
X0155994Y0060713D02*
X0160082Y0060713D01*
X0161024Y0059515D02*
X0148088Y0059515D01*
X0148302Y0059603D02*
X0149030Y0060331D01*
X0149424Y0061282D01*
X0149424Y0062312D01*
X0149030Y0063262D01*
X0148302Y0063990D01*
X0147351Y0064384D01*
X0146322Y0064384D01*
X0145371Y0063990D01*
X0144643Y0063262D01*
X0144249Y0062312D01*
X0144249Y0061282D01*
X0144643Y0060331D01*
X0145371Y0059603D01*
X0146322Y0059209D01*
X0147351Y0059209D01*
X0148302Y0059603D01*
X0149188Y0060713D02*
X0153977Y0060713D01*
X0152676Y0061912D02*
X0149424Y0061912D01*
X0149093Y0063110D02*
X0152398Y0063110D01*
X0152688Y0064309D02*
X0147533Y0064309D01*
X0146139Y0064309D02*
X0139425Y0064309D01*
X0139581Y0064465D02*
X0139975Y0065416D01*
X0139975Y0066445D01*
X0139581Y0067396D01*
X0138853Y0068124D01*
X0137902Y0068518D01*
X0136873Y0068518D01*
X0135922Y0068124D01*
X0135194Y0067396D01*
X0134800Y0066445D01*
X0134800Y0065416D01*
X0135194Y0064465D01*
X0135922Y0063737D01*
X0136873Y0063343D01*
X0137902Y0063343D01*
X0138853Y0063737D01*
X0139581Y0064465D01*
X0139975Y0065507D02*
X0154046Y0065507D01*
X0155926Y0065507D02*
X0199287Y0065507D01*
X0195848Y0066706D02*
X0139867Y0066706D01*
X0139073Y0067904D02*
X0195469Y0067904D01*
X0195657Y0069103D02*
X0028366Y0069103D01*
X0030668Y0070301D02*
X0120580Y0070301D01*
X0120102Y0070499D02*
X0121125Y0070076D01*
X0122233Y0070076D01*
X0123256Y0070499D01*
X0124039Y0071283D01*
X0124463Y0072306D01*
X0124463Y0073414D01*
X0124039Y0074437D01*
X0123256Y0075220D01*
X0122233Y0075644D01*
X0121125Y0075644D01*
X0120102Y0075220D01*
X0119318Y0074437D01*
X0118894Y0073414D01*
X0118894Y0072306D01*
X0119318Y0071283D01*
X0120102Y0070499D01*
X0119228Y0071500D02*
X0048613Y0071500D01*
X0046713Y0071500D02*
X0043101Y0071500D01*
X0041201Y0071500D02*
X0037196Y0071500D01*
X0035296Y0071500D02*
X0031866Y0071500D01*
X0032947Y0072698D02*
X0033636Y0072698D01*
X0038855Y0072698D02*
X0039542Y0072698D01*
X0044760Y0072698D02*
X0045054Y0072698D01*
X0048823Y0077492D02*
X0051046Y0077492D01*
X0051158Y0077220D02*
X0052023Y0076355D01*
X0053154Y0075887D01*
X0054377Y0075887D01*
X0055507Y0076355D01*
X0056372Y0077220D01*
X0056840Y0078351D01*
X0056840Y0079352D01*
X0057299Y0078893D01*
X0058199Y0078520D01*
X0059174Y0078520D01*
X0060065Y0078889D01*
X0060955Y0078520D01*
X0061930Y0078520D01*
X0062820Y0078889D01*
X0063711Y0078520D01*
X0064686Y0078520D01*
X0065586Y0078893D01*
X0066045Y0079352D01*
X0066045Y0078351D01*
X0066513Y0077220D01*
X0067378Y0076355D01*
X0068508Y0075887D01*
X0069731Y0075887D01*
X0070862Y0076355D01*
X0071727Y0077220D01*
X0072195Y0078351D01*
X0072195Y0079574D01*
X0071727Y0080704D01*
X0071008Y0081423D01*
X0071727Y0082142D01*
X0072195Y0083272D01*
X0072195Y0084495D01*
X0071727Y0085625D01*
X0071008Y0086344D01*
X0071727Y0087063D01*
X0072195Y0088193D01*
X0072195Y0089416D01*
X0071727Y0090547D01*
X0070862Y0091412D01*
X0069731Y0091880D01*
X0068508Y0091880D01*
X0067378Y0091412D01*
X0066513Y0090547D01*
X0066045Y0089416D01*
X0066045Y0088494D01*
X0065586Y0088953D01*
X0064686Y0089326D01*
X0063711Y0089326D01*
X0062820Y0088957D01*
X0061930Y0089326D01*
X0060955Y0089326D01*
X0060065Y0088957D01*
X0059174Y0089326D01*
X0058199Y0089326D01*
X0057299Y0088953D01*
X0056840Y0088494D01*
X0056840Y0089416D01*
X0056372Y0090547D01*
X0055507Y0091412D01*
X0054377Y0091880D01*
X0053154Y0091880D01*
X0052023Y0091412D01*
X0051158Y0090547D01*
X0050690Y0089416D01*
X0050690Y0088193D01*
X0051158Y0087063D01*
X0051877Y0086344D01*
X0051158Y0085625D01*
X0050690Y0084495D01*
X0050690Y0083272D01*
X0051158Y0082142D01*
X0051877Y0081423D01*
X0051158Y0080704D01*
X0050690Y0079574D01*
X0050690Y0078351D01*
X0051158Y0077220D01*
X0050152Y0076294D02*
X0052172Y0076294D01*
X0050718Y0075095D02*
X0119977Y0075095D01*
X0119095Y0073897D02*
X0050738Y0073897D01*
X0050272Y0072698D02*
X0118894Y0072698D01*
X0119944Y0068557D02*
X0118920Y0068134D01*
X0118332Y0067545D01*
X0117744Y0068134D01*
X0116721Y0068557D01*
X0115613Y0068557D01*
X0114590Y0068134D01*
X0113807Y0067350D01*
X0113383Y0066327D01*
X0113383Y0065219D01*
X0113807Y0064196D01*
X0114590Y0063413D01*
X0114594Y0063411D01*
X0114590Y0063409D01*
X0113807Y0062626D01*
X0113383Y0061603D01*
X0113383Y0060495D01*
X0113807Y0059472D01*
X0114590Y0058688D01*
X0115613Y0058265D01*
X0116721Y0058265D01*
X0117744Y0058688D01*
X0118332Y0059277D01*
X0118920Y0058688D01*
X0119944Y0058265D01*
X0120787Y0058265D01*
X0119498Y0057731D01*
X0117438Y0055670D01*
X0116323Y0052978D01*
X0116323Y0050064D01*
X0117438Y0047372D01*
X0119498Y0045312D01*
X0122190Y0044197D01*
X0125104Y0044197D01*
X0127796Y0045312D01*
X0129857Y0047372D01*
X0130972Y0050064D01*
X0130972Y0052978D01*
X0129857Y0055670D01*
X0127796Y0057731D01*
X0126507Y0058265D01*
X0126563Y0058265D01*
X0127587Y0058688D01*
X0128175Y0059277D01*
X0128763Y0058688D01*
X0129786Y0058265D01*
X0130894Y0058265D01*
X0131917Y0058688D01*
X0132701Y0059472D01*
X0133124Y0060495D01*
X0133124Y0061603D01*
X0132701Y0062626D01*
X0131917Y0063409D01*
X0131913Y0063411D01*
X0131917Y0063413D01*
X0132701Y0064196D01*
X0133124Y0065219D01*
X0133124Y0066327D01*
X0132701Y0067350D01*
X0131917Y0068134D01*
X0130894Y0068557D01*
X0129786Y0068557D01*
X0128763Y0068134D01*
X0128175Y0067545D01*
X0127587Y0068134D01*
X0126563Y0068557D01*
X0125456Y0068557D01*
X0124432Y0068134D01*
X0123649Y0067350D01*
X0123254Y0066395D01*
X0122858Y0067350D01*
X0122075Y0068134D01*
X0121051Y0068557D01*
X0119944Y0068557D01*
X0118691Y0067904D02*
X0117973Y0067904D01*
X0114361Y0067904D02*
X0016511Y0067904D01*
X0016511Y0066706D02*
X0018806Y0066706D01*
X0018999Y0066786D02*
X0018048Y0066392D01*
X0017320Y0065664D01*
X0016926Y0064713D01*
X0016926Y0063684D01*
X0017320Y0062733D01*
X0018048Y0062005D01*
X0018999Y0061611D01*
X0020028Y0061611D01*
X0020979Y0062005D01*
X0021707Y0062733D01*
X0022101Y0063684D01*
X0022101Y0064713D01*
X0021707Y0065664D01*
X0020979Y0066392D01*
X0020028Y0066786D01*
X0018999Y0066786D01*
X0020221Y0066706D02*
X0113540Y0066706D01*
X0113383Y0065507D02*
X0021772Y0065507D01*
X0022101Y0064309D02*
X0113760Y0064309D01*
X0114291Y0063110D02*
X0021863Y0063110D01*
X0020754Y0061912D02*
X0113511Y0061912D01*
X0113383Y0060713D02*
X0016511Y0060713D01*
X0016511Y0059515D02*
X0113789Y0059515D01*
X0115488Y0058316D02*
X0110792Y0058316D01*
X0109514Y0058846D02*
X0106600Y0058846D01*
X0103908Y0057731D01*
X0101847Y0055670D01*
X0100732Y0052978D01*
X0100732Y0050064D01*
X0101847Y0047372D01*
X0103908Y0045312D01*
X0106600Y0044197D01*
X0109514Y0044197D01*
X0112206Y0045312D01*
X0114266Y0047372D01*
X0115381Y0050064D01*
X0115381Y0052978D01*
X0114266Y0055670D01*
X0112206Y0057731D01*
X0109514Y0058846D01*
X0112819Y0057118D02*
X0118885Y0057118D01*
X0119819Y0058316D02*
X0116845Y0058316D01*
X0117687Y0055919D02*
X0114017Y0055919D01*
X0114659Y0054721D02*
X0117045Y0054721D01*
X0116548Y0053522D02*
X0115156Y0053522D01*
X0115381Y0052324D02*
X0116323Y0052324D01*
X0116323Y0051125D02*
X0115381Y0051125D01*
X0115324Y0049927D02*
X0116380Y0049927D01*
X0116876Y0048728D02*
X0114828Y0048728D01*
X0114331Y0047530D02*
X0117373Y0047530D01*
X0118479Y0046331D02*
X0113225Y0046331D01*
X0111773Y0045133D02*
X0119931Y0045133D01*
X0118138Y0043330D02*
X0117114Y0043754D01*
X0116007Y0043754D01*
X0114983Y0043330D01*
X0114200Y0042547D01*
X0113776Y0041524D01*
X0113776Y0040416D01*
X0114200Y0039393D01*
X0114983Y0038610D01*
X0114988Y0038608D01*
X0114983Y0038606D01*
X0114200Y0037823D01*
X0113776Y0036799D01*
X0113776Y0035692D01*
X0114200Y0034669D01*
X0114983Y0033885D01*
X0116007Y0033461D01*
X0117114Y0033461D01*
X0118138Y0033885D01*
X0118921Y0034669D01*
X0119345Y0035692D01*
X0119345Y0036799D01*
X0118921Y0037823D01*
X0118138Y0038606D01*
X0118133Y0038608D01*
X0118138Y0038610D01*
X0118921Y0039393D01*
X0119345Y0040416D01*
X0119345Y0041524D01*
X0118921Y0042547D01*
X0118138Y0043330D01*
X0118733Y0042736D02*
X0128562Y0042736D01*
X0128373Y0042547D02*
X0129157Y0043330D01*
X0130180Y0043754D01*
X0131288Y0043754D01*
X0132311Y0043330D01*
X0133094Y0042547D01*
X0133518Y0041524D01*
X0133518Y0040416D01*
X0133094Y0039393D01*
X0132311Y0038610D01*
X0132307Y0038608D01*
X0132311Y0038606D01*
X0133094Y0037823D01*
X0133518Y0036799D01*
X0133518Y0035692D01*
X0133094Y0034669D01*
X0132311Y0033885D01*
X0131288Y0033461D01*
X0130180Y0033461D01*
X0129157Y0033885D01*
X0128373Y0034669D01*
X0127950Y0035692D01*
X0127950Y0036799D01*
X0128373Y0037823D01*
X0129157Y0038606D01*
X0129161Y0038608D01*
X0129157Y0038610D01*
X0128373Y0039393D01*
X0127950Y0040416D01*
X0127950Y0041524D01*
X0128373Y0042547D01*
X0127955Y0041537D02*
X0126399Y0041537D01*
X0126033Y0041903D02*
X0127218Y0040718D01*
X0127859Y0039170D01*
X0127859Y0037494D01*
X0127218Y0035946D01*
X0126033Y0034762D01*
X0124485Y0034120D01*
X0122809Y0034120D01*
X0121261Y0034762D01*
X0120077Y0035946D01*
X0119435Y0037494D01*
X0119435Y0039170D01*
X0120077Y0040718D01*
X0121261Y0041903D01*
X0122809Y0042544D01*
X0124485Y0042544D01*
X0126033Y0041903D01*
X0127375Y0040339D02*
X0127982Y0040339D01*
X0127859Y0039140D02*
X0128626Y0039140D01*
X0128492Y0037942D02*
X0127859Y0037942D01*
X0127950Y0036743D02*
X0127548Y0036743D01*
X0128011Y0035545D02*
X0126816Y0035545D01*
X0125030Y0034346D02*
X0128696Y0034346D01*
X0129004Y0031353D02*
X0127975Y0031353D01*
X0127024Y0030959D01*
X0126296Y0030231D01*
X0125902Y0029280D01*
X0125902Y0028251D01*
X0126296Y0027300D01*
X0127024Y0026572D01*
X0127975Y0026178D01*
X0129004Y0026178D01*
X0129955Y0026572D01*
X0130683Y0027300D01*
X0131077Y0028251D01*
X0131077Y0029280D01*
X0130683Y0030231D01*
X0129955Y0030959D01*
X0129004Y0031353D01*
X0130164Y0030750D02*
X0142406Y0030750D01*
X0142615Y0030959D02*
X0141887Y0030231D01*
X0141493Y0029280D01*
X0141493Y0028251D01*
X0141887Y0027300D01*
X0142615Y0026572D01*
X0143566Y0026178D01*
X0144595Y0026178D01*
X0145546Y0026572D01*
X0146274Y0027300D01*
X0146668Y0028251D01*
X0146668Y0029280D01*
X0146274Y0030231D01*
X0145546Y0030959D01*
X0144595Y0031353D01*
X0143566Y0031353D01*
X0142615Y0030959D01*
X0141606Y0029552D02*
X0130965Y0029552D01*
X0131077Y0028353D02*
X0141493Y0028353D01*
X0142032Y0027155D02*
X0130538Y0027155D01*
X0126441Y0027155D02*
X0116916Y0027155D01*
X0117061Y0027300D02*
X0117455Y0028251D01*
X0117455Y0029280D01*
X0117061Y0030231D01*
X0116333Y0030959D01*
X0115382Y0031353D01*
X0114353Y0031353D01*
X0113402Y0030959D01*
X0112674Y0030231D01*
X0112280Y0029280D01*
X0112280Y0028251D01*
X0112674Y0027300D01*
X0113402Y0026572D01*
X0114353Y0026178D01*
X0115382Y0026178D01*
X0116333Y0026572D01*
X0117061Y0027300D01*
X0117455Y0028353D02*
X0125902Y0028353D01*
X0126015Y0029552D02*
X0117342Y0029552D01*
X0116542Y0030750D02*
X0126816Y0030750D01*
X0122265Y0034346D02*
X0118598Y0034346D01*
X0119284Y0035545D02*
X0120479Y0035545D01*
X0119747Y0036743D02*
X0119345Y0036743D01*
X0119435Y0037942D02*
X0118802Y0037942D01*
X0118668Y0039140D02*
X0119435Y0039140D01*
X0119313Y0040339D02*
X0119919Y0040339D01*
X0119339Y0041537D02*
X0120896Y0041537D01*
X0114389Y0042736D02*
X0054752Y0042736D01*
X0054940Y0042283D02*
X0054516Y0043306D01*
X0053733Y0044089D01*
X0053155Y0044329D01*
X0053536Y0044486D01*
X0054319Y0045270D01*
X0054743Y0046293D01*
X0054743Y0047401D01*
X0054319Y0048424D01*
X0053536Y0049207D01*
X0052512Y0049631D01*
X0051405Y0049631D01*
X0050382Y0049207D01*
X0049598Y0048424D01*
X0049174Y0047401D01*
X0049174Y0046293D01*
X0049598Y0045270D01*
X0050382Y0044486D01*
X0050960Y0044247D01*
X0050578Y0044089D01*
X0049795Y0043306D01*
X0049371Y0042283D01*
X0049371Y0041175D01*
X0049795Y0040152D01*
X0050578Y0039368D01*
X0051058Y0039170D01*
X0050578Y0038971D01*
X0049795Y0038188D01*
X0049371Y0037164D01*
X0049371Y0036057D01*
X0049795Y0035033D01*
X0050578Y0034250D01*
X0051058Y0034052D01*
X0050578Y0033853D01*
X0049795Y0033070D01*
X0049371Y0032046D01*
X0049371Y0030939D01*
X0049795Y0029915D01*
X0050578Y0029132D01*
X0051602Y0028708D01*
X0052709Y0028708D01*
X0053733Y0029132D01*
X0054516Y0029915D01*
X0054940Y0030939D01*
X0054940Y0032046D01*
X0054516Y0033070D01*
X0053733Y0033853D01*
X0053253Y0034052D01*
X0053733Y0034250D01*
X0054516Y0035033D01*
X0054940Y0036057D01*
X0054940Y0037164D01*
X0054516Y0038188D01*
X0053733Y0038971D01*
X0053253Y0039170D01*
X0053733Y0039368D01*
X0054516Y0040152D01*
X0054940Y0041175D01*
X0054940Y0042283D01*
X0054940Y0041537D02*
X0105305Y0041537D01*
X0105671Y0041903D02*
X0104486Y0040718D01*
X0103845Y0039170D01*
X0103845Y0037494D01*
X0104486Y0035946D01*
X0105671Y0034762D01*
X0107219Y0034120D01*
X0108894Y0034120D01*
X0110442Y0034762D01*
X0111627Y0035946D01*
X0112268Y0037494D01*
X0112268Y0039170D01*
X0111627Y0040718D01*
X0110442Y0041903D01*
X0108894Y0042544D01*
X0107219Y0042544D01*
X0105671Y0041903D01*
X0104329Y0040339D02*
X0054593Y0040339D01*
X0053325Y0039140D02*
X0103845Y0039140D01*
X0103845Y0037942D02*
X0054618Y0037942D01*
X0054940Y0036743D02*
X0104156Y0036743D01*
X0104888Y0035545D02*
X0054728Y0035545D01*
X0053828Y0034346D02*
X0106674Y0034346D01*
X0102920Y0030750D02*
X0113194Y0030750D01*
X0112393Y0029552D02*
X0103720Y0029552D01*
X0103833Y0029280D02*
X0103439Y0030231D01*
X0102711Y0030959D01*
X0101760Y0031353D01*
X0100731Y0031353D01*
X0099780Y0030959D01*
X0099052Y0030231D01*
X0098658Y0029280D01*
X0098658Y0028251D01*
X0099052Y0027300D01*
X0099780Y0026572D01*
X0100731Y0026178D01*
X0101760Y0026178D01*
X0102711Y0026572D01*
X0103439Y0027300D01*
X0103833Y0028251D01*
X0103833Y0029280D01*
X0103833Y0028353D02*
X0112280Y0028353D01*
X0112819Y0027155D02*
X0103294Y0027155D01*
X0099197Y0027155D02*
X0016511Y0027155D01*
X0016511Y0028353D02*
X0098658Y0028353D01*
X0098771Y0029552D02*
X0054152Y0029552D01*
X0054862Y0030750D02*
X0099572Y0030750D01*
X0100395Y0022361D02*
X0089813Y0022361D01*
X0090658Y0021162D02*
X0099550Y0021162D01*
X0099406Y0019964D02*
X0090802Y0019964D01*
X0090338Y0018765D02*
X0099870Y0018765D01*
X0104117Y0018765D02*
X0113650Y0018765D01*
X0113186Y0019964D02*
X0104581Y0019964D01*
X0104437Y0021162D02*
X0113330Y0021162D01*
X0114174Y0022361D02*
X0103593Y0022361D01*
X0109439Y0034346D02*
X0114523Y0034346D01*
X0113837Y0035545D02*
X0111225Y0035545D01*
X0111957Y0036743D02*
X0113776Y0036743D01*
X0114319Y0037942D02*
X0112268Y0037942D01*
X0112268Y0039140D02*
X0114453Y0039140D01*
X0113809Y0040339D02*
X0111784Y0040339D01*
X0110808Y0041537D02*
X0113782Y0041537D01*
X0104341Y0045133D02*
X0054182Y0045133D01*
X0053888Y0043934D02*
X0144249Y0043934D01*
X0144249Y0043566D02*
X0144643Y0042615D01*
X0145371Y0041887D01*
X0146322Y0041493D01*
X0147351Y0041493D01*
X0148302Y0041887D01*
X0149030Y0042615D01*
X0149424Y0043566D01*
X0149424Y0044595D01*
X0149030Y0045546D01*
X0148302Y0046274D01*
X0147351Y0046668D01*
X0146322Y0046668D01*
X0145371Y0046274D01*
X0144643Y0045546D01*
X0144249Y0044595D01*
X0144249Y0043566D01*
X0144593Y0042736D02*
X0132906Y0042736D01*
X0133513Y0041537D02*
X0136486Y0041537D01*
X0136852Y0041903D02*
X0135667Y0040718D01*
X0135026Y0039170D01*
X0135026Y0037494D01*
X0135667Y0035946D01*
X0136852Y0034762D01*
X0138400Y0034120D01*
X0140076Y0034120D01*
X0141624Y0034762D01*
X0142808Y0035946D01*
X0143450Y0037494D01*
X0143450Y0039170D01*
X0142808Y0040718D01*
X0141624Y0041903D01*
X0140076Y0042544D01*
X0138400Y0042544D01*
X0136852Y0041903D01*
X0135510Y0040339D02*
X0133486Y0040339D01*
X0132841Y0039140D02*
X0135026Y0039140D01*
X0135026Y0037942D02*
X0132975Y0037942D01*
X0133518Y0036743D02*
X0135337Y0036743D01*
X0136069Y0035545D02*
X0133457Y0035545D01*
X0132772Y0034346D02*
X0137856Y0034346D01*
X0140620Y0034346D02*
X0144320Y0034346D01*
X0144170Y0034707D02*
X0144564Y0033756D01*
X0145292Y0033029D01*
X0146243Y0032635D01*
X0147272Y0032635D01*
X0148223Y0033029D01*
X0148951Y0033756D01*
X0149345Y0034707D01*
X0149345Y0035737D01*
X0148951Y0036688D01*
X0148223Y0037416D01*
X0147272Y0037809D01*
X0146243Y0037809D01*
X0145292Y0037416D01*
X0144564Y0036688D01*
X0144170Y0035737D01*
X0144170Y0034707D01*
X0144170Y0035545D02*
X0142406Y0035545D01*
X0143138Y0036743D02*
X0144619Y0036743D01*
X0143450Y0037942D02*
X0150577Y0037942D01*
X0150577Y0037494D02*
X0151218Y0035946D01*
X0152403Y0034762D01*
X0153951Y0034120D01*
X0155627Y0034120D01*
X0157175Y0034762D01*
X0158360Y0035946D01*
X0159001Y0037494D01*
X0159001Y0039170D01*
X0158360Y0040718D01*
X0157175Y0041903D01*
X0155627Y0042544D01*
X0153951Y0042544D01*
X0152403Y0041903D01*
X0151218Y0040718D01*
X0150577Y0039170D01*
X0150577Y0037494D01*
X0150888Y0036743D02*
X0148896Y0036743D01*
X0149345Y0035545D02*
X0151620Y0035545D01*
X0153407Y0034346D02*
X0149195Y0034346D01*
X0148342Y0033147D02*
X0160685Y0033147D01*
X0160882Y0032950D02*
X0161833Y0032556D01*
X0162863Y0032556D01*
X0163814Y0032950D01*
X0164542Y0033678D01*
X0164935Y0034629D01*
X0164935Y0035658D01*
X0164542Y0036609D01*
X0163814Y0037337D01*
X0162863Y0037731D01*
X0161833Y0037731D01*
X0160882Y0037337D01*
X0160155Y0036609D01*
X0159761Y0035658D01*
X0159761Y0034629D01*
X0160155Y0033678D01*
X0160882Y0032950D01*
X0159878Y0034346D02*
X0156171Y0034346D01*
X0157958Y0035545D02*
X0159761Y0035545D01*
X0160289Y0036743D02*
X0158690Y0036743D01*
X0159001Y0037942D02*
X0166168Y0037942D01*
X0166168Y0039140D02*
X0159001Y0039140D01*
X0158517Y0040339D02*
X0166652Y0040339D01*
X0167628Y0041537D02*
X0163277Y0041537D01*
X0161655Y0041537D02*
X0157541Y0041537D01*
X0160190Y0042736D02*
X0149080Y0042736D01*
X0149424Y0043934D02*
X0159879Y0043934D01*
X0160134Y0045133D02*
X0158544Y0045133D01*
X0158977Y0045312D02*
X0156285Y0044197D01*
X0153371Y0044197D01*
X0150679Y0045312D01*
X0148619Y0047372D01*
X0147504Y0050064D01*
X0147504Y0052978D01*
X0148619Y0055670D01*
X0150679Y0057731D01*
X0153371Y0058846D01*
X0156285Y0058846D01*
X0158977Y0057731D01*
X0161038Y0055670D01*
X0162153Y0052978D01*
X0162153Y0050064D01*
X0161038Y0047372D01*
X0158977Y0045312D01*
X0159996Y0046331D02*
X0161329Y0046331D01*
X0161103Y0047530D02*
X0164144Y0047530D01*
X0164210Y0047372D02*
X0166270Y0045312D01*
X0168962Y0044197D01*
X0171876Y0044197D01*
X0174568Y0045312D01*
X0176628Y0047372D01*
X0177743Y0050064D01*
X0177743Y0052978D01*
X0176628Y0055670D01*
X0174568Y0057731D01*
X0171876Y0058846D01*
X0168962Y0058846D01*
X0166270Y0057731D01*
X0164210Y0055670D01*
X0163094Y0052978D01*
X0163094Y0050064D01*
X0164210Y0047372D01*
X0163603Y0046331D02*
X0165251Y0046331D01*
X0164798Y0045133D02*
X0166703Y0045133D01*
X0163648Y0048728D02*
X0161599Y0048728D01*
X0162096Y0049927D02*
X0163152Y0049927D01*
X0163094Y0051125D02*
X0162153Y0051125D01*
X0162153Y0052324D02*
X0163094Y0052324D01*
X0163320Y0053522D02*
X0161927Y0053522D01*
X0161431Y0054721D02*
X0163816Y0054721D01*
X0164459Y0055919D02*
X0160789Y0055919D01*
X0159590Y0057118D02*
X0165657Y0057118D01*
X0167684Y0058316D02*
X0157563Y0058316D01*
X0152093Y0058316D02*
X0141973Y0058316D01*
X0140695Y0058846D02*
X0143387Y0057731D01*
X0145447Y0055670D01*
X0146562Y0052978D01*
X0146562Y0050064D01*
X0145447Y0047372D01*
X0143387Y0045312D01*
X0140695Y0044197D01*
X0137781Y0044197D01*
X0135089Y0045312D01*
X0133028Y0047372D01*
X0131913Y0050064D01*
X0131913Y0052978D01*
X0133028Y0055670D01*
X0135089Y0057731D01*
X0137781Y0058846D01*
X0140695Y0058846D01*
X0144000Y0057118D02*
X0150067Y0057118D01*
X0148868Y0055919D02*
X0145198Y0055919D01*
X0145840Y0054721D02*
X0148226Y0054721D01*
X0147729Y0053522D02*
X0146337Y0053522D01*
X0146562Y0052324D02*
X0147504Y0052324D01*
X0147504Y0051125D02*
X0146562Y0051125D01*
X0146505Y0049927D02*
X0147561Y0049927D01*
X0148057Y0048728D02*
X0146009Y0048728D01*
X0145512Y0047530D02*
X0148554Y0047530D01*
X0148163Y0046331D02*
X0149660Y0046331D01*
X0149201Y0045133D02*
X0151112Y0045133D01*
X0152037Y0041537D02*
X0147457Y0041537D01*
X0146215Y0041537D02*
X0141989Y0041537D01*
X0142966Y0040339D02*
X0151061Y0040339D01*
X0150577Y0039140D02*
X0143450Y0039140D01*
X0142954Y0045133D02*
X0144472Y0045133D01*
X0144406Y0046331D02*
X0145509Y0046331D01*
X0135522Y0045133D02*
X0127363Y0045133D01*
X0128815Y0046331D02*
X0134070Y0046331D01*
X0132963Y0047530D02*
X0129922Y0047530D01*
X0130418Y0048728D02*
X0132467Y0048728D01*
X0131970Y0049927D02*
X0130915Y0049927D01*
X0130972Y0051125D02*
X0131913Y0051125D01*
X0131913Y0052324D02*
X0130972Y0052324D01*
X0130746Y0053522D02*
X0132139Y0053522D01*
X0132635Y0054721D02*
X0130250Y0054721D01*
X0129608Y0055919D02*
X0133277Y0055919D01*
X0134476Y0057118D02*
X0128409Y0057118D01*
X0129662Y0058316D02*
X0126688Y0058316D01*
X0131019Y0058316D02*
X0136503Y0058316D01*
X0133124Y0060713D02*
X0144484Y0060713D01*
X0144249Y0061912D02*
X0132996Y0061912D01*
X0132216Y0063110D02*
X0144580Y0063110D01*
X0145585Y0059515D02*
X0132718Y0059515D01*
X0132747Y0064309D02*
X0135350Y0064309D01*
X0134800Y0065507D02*
X0133124Y0065507D01*
X0132968Y0066706D02*
X0134908Y0066706D01*
X0135702Y0067904D02*
X0132147Y0067904D01*
X0131130Y0070499D02*
X0130107Y0070076D01*
X0128999Y0070076D01*
X0127976Y0070499D01*
X0127192Y0071283D01*
X0126769Y0072306D01*
X0126769Y0073414D01*
X0127192Y0074437D01*
X0127976Y0075220D01*
X0128999Y0075644D01*
X0130107Y0075644D01*
X0131130Y0075220D01*
X0131913Y0074437D01*
X0132337Y0073414D01*
X0132337Y0072306D01*
X0131913Y0071283D01*
X0131130Y0070499D01*
X0130652Y0070301D02*
X0196563Y0070301D01*
X0199287Y0071500D02*
X0164247Y0071500D01*
X0164325Y0071532D02*
X0165053Y0072260D01*
X0165447Y0073211D01*
X0165447Y0074241D01*
X0165053Y0075192D01*
X0164325Y0075919D01*
X0163375Y0076313D01*
X0162345Y0076313D01*
X0161394Y0075919D01*
X0160666Y0075192D01*
X0160272Y0074241D01*
X0160272Y0073211D01*
X0160666Y0072260D01*
X0161394Y0071532D01*
X0162345Y0071139D01*
X0163375Y0071139D01*
X0164325Y0071532D01*
X0165235Y0072698D02*
X0186442Y0072698D01*
X0186197Y0072823D02*
X0186842Y0072494D01*
X0187531Y0072271D01*
X0188208Y0072163D01*
X0188208Y0076357D01*
X0189008Y0076357D01*
X0189008Y0072163D01*
X0189685Y0072271D01*
X0190374Y0072494D01*
X0191019Y0072823D01*
X0191605Y0073249D01*
X0192117Y0073761D01*
X0192542Y0074347D01*
X0192871Y0074992D01*
X0193095Y0075680D01*
X0193202Y0076357D01*
X0189008Y0076357D01*
X0189008Y0077157D01*
X0193202Y0077157D01*
X0193095Y0077835D01*
X0192871Y0078523D01*
X0192542Y0079168D01*
X0192117Y0079754D01*
X0191605Y0080266D01*
X0191019Y0080692D01*
X0190374Y0081020D01*
X0189685Y0081244D01*
X0189008Y0081351D01*
X0189008Y0077158D01*
X0188208Y0077158D01*
X0188208Y0081351D01*
X0187531Y0081244D01*
X0186842Y0081020D01*
X0186197Y0080692D01*
X0185611Y0080266D01*
X0185099Y0079754D01*
X0184674Y0079168D01*
X0184345Y0078523D01*
X0184121Y0077835D01*
X0184014Y0077157D01*
X0188208Y0077157D01*
X0188208Y0076357D01*
X0184014Y0076357D01*
X0184121Y0075680D01*
X0184345Y0074992D01*
X0184674Y0074347D01*
X0185099Y0073761D01*
X0185611Y0073249D01*
X0186197Y0072823D01*
X0185000Y0073897D02*
X0165447Y0073897D01*
X0165093Y0075095D02*
X0184311Y0075095D01*
X0184024Y0076294D02*
X0163422Y0076294D01*
X0163375Y0077044D02*
X0164325Y0077438D01*
X0165053Y0078166D01*
X0165447Y0079117D01*
X0165447Y0080146D01*
X0165053Y0081097D01*
X0164550Y0081600D01*
X0165053Y0082103D01*
X0165447Y0083054D01*
X0165447Y0084083D01*
X0165053Y0085034D01*
X0164325Y0085762D01*
X0163375Y0086156D01*
X0162345Y0086156D01*
X0161394Y0085762D01*
X0160666Y0085034D01*
X0160272Y0084083D01*
X0160272Y0083054D01*
X0160666Y0082103D01*
X0161169Y0081600D01*
X0160666Y0081097D01*
X0160272Y0080146D01*
X0160272Y0079117D01*
X0160666Y0078166D01*
X0161394Y0077438D01*
X0162345Y0077044D01*
X0163375Y0077044D01*
X0164380Y0077492D02*
X0184067Y0077492D01*
X0184430Y0078691D02*
X0165271Y0078691D01*
X0165447Y0079889D02*
X0185234Y0079889D01*
X0187050Y0081088D02*
X0165057Y0081088D01*
X0165129Y0082286D02*
X0195469Y0082286D01*
X0195599Y0081088D02*
X0190166Y0081088D01*
X0189008Y0081088D02*
X0188208Y0081088D01*
X0188208Y0079889D02*
X0189008Y0079889D01*
X0189008Y0078691D02*
X0188208Y0078691D01*
X0188208Y0077492D02*
X0189008Y0077492D01*
X0189008Y0076294D02*
X0188208Y0076294D01*
X0188208Y0075095D02*
X0189008Y0075095D01*
X0189008Y0073897D02*
X0188208Y0073897D01*
X0188208Y0072698D02*
X0189008Y0072698D01*
X0190774Y0072698D02*
X0199287Y0072698D01*
X0199287Y0073897D02*
X0192215Y0073897D01*
X0192905Y0075095D02*
X0199287Y0075095D01*
X0199287Y0076294D02*
X0193192Y0076294D01*
X0193149Y0077492D02*
X0199287Y0077492D01*
X0199287Y0078691D02*
X0192785Y0078691D01*
X0191981Y0079889D02*
X0196423Y0079889D01*
X0195968Y0083485D02*
X0191275Y0083485D01*
X0190987Y0083197D02*
X0192168Y0084378D01*
X0192808Y0085922D01*
X0192808Y0087593D01*
X0192168Y0089137D01*
X0190987Y0090318D01*
X0189443Y0090957D01*
X0187772Y0090957D01*
X0186229Y0090318D01*
X0185047Y0089137D01*
X0184408Y0087593D01*
X0184408Y0085922D01*
X0185047Y0084378D01*
X0186229Y0083197D01*
X0187772Y0082557D01*
X0189443Y0082557D01*
X0190987Y0083197D01*
X0192295Y0084683D02*
X0199287Y0084683D01*
X0199287Y0085882D02*
X0192791Y0085882D01*
X0192808Y0087080D02*
X0199287Y0087080D01*
X0199287Y0088279D02*
X0192524Y0088279D01*
X0191828Y0089478D02*
X0199287Y0089478D01*
X0199287Y0090676D02*
X0190123Y0090676D01*
X0187093Y0090676D02*
X0165163Y0090676D01*
X0165053Y0090940D02*
X0164325Y0091667D01*
X0163375Y0092061D01*
X0162345Y0092061D01*
X0161394Y0091667D01*
X0160666Y0090940D01*
X0160272Y0089989D01*
X0160272Y0088959D01*
X0160666Y0088008D01*
X0161394Y0087281D01*
X0162345Y0086887D01*
X0163375Y0086887D01*
X0164325Y0087281D01*
X0165053Y0088008D01*
X0165447Y0088959D01*
X0165447Y0089989D01*
X0165053Y0090940D01*
X0165447Y0089478D02*
X0185388Y0089478D01*
X0184692Y0088279D02*
X0165165Y0088279D01*
X0163843Y0087080D02*
X0184408Y0087080D01*
X0184424Y0085882D02*
X0164036Y0085882D01*
X0165199Y0084683D02*
X0184921Y0084683D01*
X0185941Y0083485D02*
X0165447Y0083485D01*
X0161684Y0085882D02*
X0118012Y0085882D01*
X0118040Y0085854D02*
X0117257Y0086638D01*
X0116233Y0087061D01*
X0115126Y0087061D01*
X0114102Y0086638D01*
X0113319Y0085854D01*
X0112895Y0084831D01*
X0112895Y0083723D01*
X0113319Y0082700D01*
X0113907Y0082112D01*
X0113319Y0081524D01*
X0112895Y0080500D01*
X0112895Y0079393D01*
X0113319Y0078369D01*
X0114102Y0077586D01*
X0115126Y0077162D01*
X0116233Y0077162D01*
X0117257Y0077586D01*
X0118040Y0078369D01*
X0118464Y0079393D01*
X0118464Y0080500D01*
X0118040Y0081524D01*
X0117452Y0082112D01*
X0118040Y0082700D01*
X0118464Y0083723D01*
X0118464Y0084831D01*
X0118040Y0085854D01*
X0118464Y0084683D02*
X0160521Y0084683D01*
X0160272Y0083485D02*
X0118365Y0083485D01*
X0117626Y0082286D02*
X0160590Y0082286D01*
X0160663Y0081088D02*
X0118220Y0081088D01*
X0118464Y0079889D02*
X0160272Y0079889D01*
X0160449Y0078691D02*
X0118173Y0078691D01*
X0117031Y0077492D02*
X0161340Y0077492D01*
X0162298Y0076294D02*
X0070713Y0076294D01*
X0071839Y0077492D02*
X0114329Y0077492D01*
X0113186Y0078691D02*
X0072195Y0078691D01*
X0072064Y0079889D02*
X0112895Y0079889D01*
X0113139Y0081088D02*
X0071343Y0081088D01*
X0071787Y0082286D02*
X0113733Y0082286D01*
X0112994Y0083485D02*
X0092456Y0083485D01*
X0092172Y0083368D02*
X0093302Y0083836D01*
X0094167Y0084701D01*
X0094636Y0085831D01*
X0094636Y0087054D01*
X0094167Y0088184D01*
X0093547Y0088805D01*
X0094167Y0089425D01*
X0094636Y0090555D01*
X0094636Y0091779D01*
X0094167Y0092909D01*
X0093302Y0093774D01*
X0092172Y0094242D01*
X0090949Y0094242D01*
X0089819Y0093774D01*
X0089002Y0092957D01*
X0088184Y0093774D01*
X0087054Y0094242D01*
X0085831Y0094242D01*
X0084701Y0093774D01*
X0083836Y0092909D01*
X0083687Y0092549D01*
X0083538Y0092909D01*
X0082673Y0093774D01*
X0081542Y0094242D01*
X0080319Y0094242D01*
X0079189Y0093774D01*
X0078324Y0092909D01*
X0077856Y0091779D01*
X0077856Y0090555D01*
X0078324Y0089425D01*
X0078944Y0088805D01*
X0078324Y0088184D01*
X0077856Y0087054D01*
X0077856Y0085831D01*
X0078324Y0084701D01*
X0079189Y0083836D01*
X0080319Y0083368D01*
X0081542Y0083368D01*
X0082673Y0083836D01*
X0083538Y0084701D01*
X0083687Y0085061D01*
X0083836Y0084701D01*
X0084701Y0083836D01*
X0085831Y0083368D01*
X0087054Y0083368D01*
X0088184Y0083836D01*
X0089002Y0084653D01*
X0089819Y0083836D01*
X0090949Y0083368D01*
X0092172Y0083368D01*
X0090665Y0083485D02*
X0087338Y0083485D01*
X0085547Y0083485D02*
X0081826Y0083485D01*
X0080035Y0083485D02*
X0072195Y0083485D01*
X0072117Y0084683D02*
X0078341Y0084683D01*
X0077856Y0085882D02*
X0071470Y0085882D01*
X0071734Y0087080D02*
X0077867Y0087080D01*
X0078418Y0088279D02*
X0072195Y0088279D01*
X0072169Y0089478D02*
X0078302Y0089478D01*
X0077856Y0090676D02*
X0071597Y0090676D01*
X0069744Y0091875D02*
X0077895Y0091875D01*
X0078488Y0093073D02*
X0050609Y0093073D01*
X0050738Y0091875D02*
X0053141Y0091875D01*
X0054389Y0091875D02*
X0068496Y0091875D01*
X0066642Y0090676D02*
X0056243Y0090676D01*
X0056815Y0089478D02*
X0066070Y0089478D01*
X0071549Y0094751D02*
X0072572Y0094327D01*
X0073680Y0094327D01*
X0074703Y0094751D01*
X0075486Y0095534D01*
X0075910Y0096558D01*
X0075910Y0097665D01*
X0075486Y0098689D01*
X0074703Y0099472D01*
X0073680Y0099896D01*
X0072572Y0099896D01*
X0071549Y0099472D01*
X0070766Y0098689D01*
X0070342Y0097665D01*
X0070342Y0096558D01*
X0070766Y0095534D01*
X0071549Y0094751D01*
X0070830Y0095470D02*
X0016511Y0095470D01*
X0016511Y0094272D02*
X0018822Y0094272D01*
X0018999Y0094345D02*
X0018048Y0093951D01*
X0017320Y0093223D01*
X0016926Y0092272D01*
X0016926Y0091243D01*
X0017320Y0090292D01*
X0018048Y0089564D01*
X0018999Y0089170D01*
X0020028Y0089170D01*
X0020979Y0089564D01*
X0021707Y0090292D01*
X0022101Y0091243D01*
X0022101Y0092272D01*
X0021707Y0093223D01*
X0020979Y0093951D01*
X0020028Y0094345D01*
X0018999Y0094345D01*
X0020205Y0094272D02*
X0034017Y0094272D01*
X0033299Y0093073D02*
X0021769Y0093073D01*
X0022101Y0091875D02*
X0033171Y0091875D01*
X0033528Y0090676D02*
X0021866Y0090676D01*
X0020770Y0089478D02*
X0034665Y0089478D01*
X0033930Y0088279D02*
X0016511Y0088279D01*
X0016511Y0087080D02*
X0033263Y0087080D01*
X0033171Y0085882D02*
X0029665Y0085882D01*
X0031206Y0084683D02*
X0033564Y0084683D01*
X0032404Y0083485D02*
X0034875Y0083485D01*
X0033843Y0082286D02*
X0033170Y0082286D01*
X0039192Y0093073D02*
X0039205Y0093073D01*
X0039923Y0094272D02*
X0038474Y0094272D01*
X0044379Y0094272D02*
X0045435Y0094272D01*
X0049891Y0094272D02*
X0195845Y0094272D01*
X0195469Y0095470D02*
X0085234Y0095470D01*
X0085456Y0095692D02*
X0085880Y0096715D01*
X0085880Y0097823D01*
X0085456Y0098846D01*
X0084673Y0099630D01*
X0083650Y0100054D01*
X0082542Y0100054D01*
X0081519Y0099630D01*
X0080736Y0098846D01*
X0080312Y0097823D01*
X0080312Y0096715D01*
X0080736Y0095692D01*
X0081519Y0094909D01*
X0082542Y0094485D01*
X0083650Y0094485D01*
X0084673Y0094909D01*
X0085456Y0095692D01*
X0085861Y0096669D02*
X0195660Y0096669D01*
X0196570Y0097867D02*
X0189703Y0097867D01*
X0189685Y0097861D02*
X0190374Y0098085D01*
X0191019Y0098414D01*
X0191605Y0098839D01*
X0192117Y0099351D01*
X0192542Y0099937D01*
X0192871Y0100582D01*
X0193095Y0101271D01*
X0193202Y0101948D01*
X0189008Y0101948D01*
X0189008Y0102748D01*
X0193202Y0102748D01*
X0193095Y0103425D01*
X0192871Y0104114D01*
X0192542Y0104759D01*
X0192117Y0105345D01*
X0191605Y0105857D01*
X0191019Y0106282D01*
X0190374Y0106611D01*
X0189685Y0106835D01*
X0189008Y0106942D01*
X0189008Y0102748D01*
X0188208Y0102748D01*
X0188208Y0106942D01*
X0187531Y0106835D01*
X0186842Y0106611D01*
X0186197Y0106282D01*
X0185611Y0105857D01*
X0185099Y0105345D01*
X0184674Y0104759D01*
X0184345Y0104114D01*
X0184121Y0103425D01*
X0184014Y0102748D01*
X0188208Y0102748D01*
X0188208Y0101948D01*
X0189008Y0101948D01*
X0189008Y0097754D01*
X0189685Y0097861D01*
X0189008Y0097867D02*
X0188208Y0097867D01*
X0188208Y0097754D02*
X0188208Y0101948D01*
X0184014Y0101948D01*
X0184121Y0101271D01*
X0184345Y0100582D01*
X0184674Y0099937D01*
X0185099Y0099351D01*
X0185611Y0098839D01*
X0186197Y0098414D01*
X0186842Y0098085D01*
X0187531Y0097861D01*
X0188208Y0097754D01*
X0187513Y0097867D02*
X0085862Y0097867D01*
X0085237Y0099066D02*
X0185385Y0099066D01*
X0184507Y0100264D02*
X0016511Y0100264D01*
X0016511Y0099066D02*
X0071143Y0099066D01*
X0070425Y0097867D02*
X0016511Y0097867D01*
X0016511Y0096669D02*
X0070342Y0096669D01*
X0075422Y0095470D02*
X0080958Y0095470D01*
X0080331Y0096669D02*
X0075910Y0096669D01*
X0075827Y0097867D02*
X0080330Y0097867D01*
X0080955Y0099066D02*
X0075109Y0099066D01*
X0069423Y0103993D02*
X0069817Y0104944D01*
X0069817Y0105973D01*
X0069423Y0106924D01*
X0068696Y0107652D01*
X0067745Y0108046D01*
X0066715Y0108046D01*
X0065764Y0107652D01*
X0065460Y0107347D01*
X0055762Y0107347D01*
X0055762Y0108060D01*
X0055368Y0109011D01*
X0054640Y0109738D01*
X0053689Y0110132D01*
X0052660Y0110132D01*
X0051709Y0109738D01*
X0050981Y0109011D01*
X0050587Y0108060D01*
X0050587Y0107030D01*
X0050981Y0106079D01*
X0051709Y0105351D01*
X0052656Y0104959D01*
X0054046Y0103569D01*
X0065460Y0103569D01*
X0065764Y0103265D01*
X0066715Y0102871D01*
X0067745Y0102871D01*
X0068696Y0103265D01*
X0069423Y0103993D01*
X0069290Y0103860D02*
X0184262Y0103860D01*
X0184891Y0105058D02*
X0069817Y0105058D01*
X0069700Y0106257D02*
X0186162Y0106257D01*
X0188208Y0106257D02*
X0189008Y0106257D01*
X0189008Y0105058D02*
X0188208Y0105058D01*
X0188208Y0103860D02*
X0189008Y0103860D01*
X0189008Y0102661D02*
X0199287Y0102661D01*
X0199287Y0101463D02*
X0193125Y0101463D01*
X0192709Y0100264D02*
X0199287Y0100264D01*
X0199287Y0099066D02*
X0191831Y0099066D01*
X0189008Y0099066D02*
X0188208Y0099066D01*
X0188208Y0100264D02*
X0189008Y0100264D01*
X0189008Y0101463D02*
X0188208Y0101463D01*
X0188208Y0102661D02*
X0016511Y0102661D01*
X0016511Y0101463D02*
X0184091Y0101463D01*
X0191054Y0106257D02*
X0199287Y0106257D01*
X0199287Y0105058D02*
X0192325Y0105058D01*
X0192953Y0103860D02*
X0199287Y0103860D01*
X0196416Y0107455D02*
X0068892Y0107455D01*
X0065568Y0107455D02*
X0055762Y0107455D01*
X0055516Y0108654D02*
X0186552Y0108654D01*
X0186229Y0108787D02*
X0187772Y0108148D01*
X0189443Y0108148D01*
X0190987Y0108787D01*
X0192168Y0109969D01*
X0192808Y0111513D01*
X0192808Y0113183D01*
X0192168Y0114727D01*
X0190987Y0115909D01*
X0189443Y0116548D01*
X0187772Y0116548D01*
X0186229Y0115909D01*
X0185047Y0114727D01*
X0184408Y0113183D01*
X0184408Y0111513D01*
X0185047Y0109969D01*
X0186229Y0108787D01*
X0185164Y0109852D02*
X0054366Y0109852D01*
X0051984Y0109852D02*
X0016511Y0109852D01*
X0016511Y0108654D02*
X0050834Y0108654D01*
X0050587Y0107455D02*
X0021254Y0107455D01*
X0020979Y0107730D02*
X0020028Y0108124D01*
X0018999Y0108124D01*
X0018048Y0107730D01*
X0017320Y0107003D01*
X0016926Y0106052D01*
X0016926Y0105022D01*
X0017320Y0104071D01*
X0018048Y0103344D01*
X0018999Y0102950D01*
X0020028Y0102950D01*
X0020979Y0103344D01*
X0021707Y0104071D01*
X0022101Y0105022D01*
X0022101Y0106052D01*
X0021707Y0107003D01*
X0020979Y0107730D01*
X0022016Y0106257D02*
X0050908Y0106257D01*
X0052417Y0105058D02*
X0022101Y0105058D01*
X0021495Y0103860D02*
X0053756Y0103860D01*
X0051288Y0090676D02*
X0050380Y0090676D01*
X0050716Y0089478D02*
X0049244Y0089478D01*
X0049978Y0088279D02*
X0050690Y0088279D01*
X0050646Y0087080D02*
X0051151Y0087080D01*
X0051415Y0085882D02*
X0050738Y0085882D01*
X0050768Y0084683D02*
X0050344Y0084683D01*
X0050690Y0083485D02*
X0049033Y0083485D01*
X0050065Y0082286D02*
X0051098Y0082286D01*
X0050682Y0081088D02*
X0051542Y0081088D01*
X0050821Y0079889D02*
X0050738Y0079889D01*
X0050690Y0078691D02*
X0050308Y0078691D01*
X0055359Y0076294D02*
X0067526Y0076294D01*
X0066400Y0077492D02*
X0056485Y0077492D01*
X0056840Y0078691D02*
X0057787Y0078691D01*
X0059586Y0078691D02*
X0060543Y0078691D01*
X0062342Y0078691D02*
X0063299Y0078691D01*
X0065098Y0078691D02*
X0066045Y0078691D01*
X0083520Y0084683D02*
X0083853Y0084683D01*
X0084000Y0093073D02*
X0083373Y0093073D01*
X0088885Y0093073D02*
X0089118Y0093073D01*
X0094003Y0093073D02*
X0199287Y0093073D01*
X0199287Y0091875D02*
X0163826Y0091875D01*
X0161894Y0091875D02*
X0094596Y0091875D01*
X0094636Y0090676D02*
X0160557Y0090676D01*
X0160272Y0089478D02*
X0094189Y0089478D01*
X0094073Y0088279D02*
X0160554Y0088279D01*
X0161877Y0087080D02*
X0094625Y0087080D01*
X0094636Y0085882D02*
X0113347Y0085882D01*
X0112895Y0084683D02*
X0094150Y0084683D01*
X0105322Y0058316D02*
X0016511Y0058316D01*
X0016511Y0057118D02*
X0103295Y0057118D01*
X0102096Y0055919D02*
X0016511Y0055919D01*
X0016511Y0054721D02*
X0101454Y0054721D01*
X0100958Y0053522D02*
X0016511Y0053522D01*
X0016511Y0052324D02*
X0017759Y0052324D01*
X0018048Y0052612D02*
X0017320Y0051885D01*
X0016926Y0050934D01*
X0016926Y0049904D01*
X0017320Y0048953D01*
X0018048Y0048225D01*
X0018999Y0047831D01*
X0020028Y0047831D01*
X0020979Y0048225D01*
X0021707Y0048953D01*
X0022101Y0049904D01*
X0022101Y0050934D01*
X0021707Y0051885D01*
X0020979Y0052612D01*
X0020028Y0053006D01*
X0018999Y0053006D01*
X0018048Y0052612D01*
X0017005Y0051125D02*
X0016511Y0051125D01*
X0016511Y0049927D02*
X0016926Y0049927D01*
X0016511Y0048728D02*
X0017545Y0048728D01*
X0016511Y0047530D02*
X0027377Y0047530D01*
X0027324Y0047401D02*
X0027324Y0046293D01*
X0027748Y0045270D01*
X0028531Y0044486D01*
X0029554Y0044063D01*
X0030662Y0044063D01*
X0031685Y0044486D01*
X0032469Y0045270D01*
X0032766Y0045987D01*
X0033063Y0045270D01*
X0033846Y0044486D01*
X0034869Y0044063D01*
X0035977Y0044063D01*
X0037000Y0044486D01*
X0037784Y0045270D01*
X0038081Y0045987D01*
X0038378Y0045270D01*
X0039161Y0044486D01*
X0040184Y0044063D01*
X0041292Y0044063D01*
X0042315Y0044486D01*
X0043099Y0045270D01*
X0043396Y0045987D01*
X0043693Y0045270D01*
X0044476Y0044486D01*
X0045499Y0044063D01*
X0046607Y0044063D01*
X0047630Y0044486D01*
X0048414Y0045270D01*
X0048837Y0046293D01*
X0048837Y0047401D01*
X0048414Y0048424D01*
X0047630Y0049207D01*
X0046607Y0049631D01*
X0045499Y0049631D01*
X0044476Y0049207D01*
X0043693Y0048424D01*
X0043396Y0047707D01*
X0043099Y0048424D01*
X0042315Y0049207D01*
X0041292Y0049631D01*
X0040184Y0049631D01*
X0039161Y0049207D01*
X0038378Y0048424D01*
X0038081Y0047707D01*
X0037784Y0048424D01*
X0037000Y0049207D01*
X0035977Y0049631D01*
X0034869Y0049631D01*
X0033846Y0049207D01*
X0033063Y0048424D01*
X0032766Y0047707D01*
X0032469Y0048424D01*
X0031685Y0049207D01*
X0030662Y0049631D01*
X0029554Y0049631D01*
X0028531Y0049207D01*
X0027748Y0048424D01*
X0027324Y0047401D01*
X0027324Y0046331D02*
X0016511Y0046331D01*
X0016511Y0045133D02*
X0027885Y0045133D01*
X0028052Y0048728D02*
X0021482Y0048728D01*
X0022101Y0049927D02*
X0100789Y0049927D01*
X0100732Y0051125D02*
X0022021Y0051125D01*
X0021268Y0052324D02*
X0100732Y0052324D01*
X0101286Y0048728D02*
X0054015Y0048728D01*
X0054689Y0047530D02*
X0101782Y0047530D01*
X0102889Y0046331D02*
X0054743Y0046331D01*
X0050423Y0043934D02*
X0016511Y0043934D01*
X0016511Y0042736D02*
X0049559Y0042736D01*
X0049371Y0041537D02*
X0016511Y0041537D01*
X0016511Y0040339D02*
X0049718Y0040339D01*
X0050987Y0039140D02*
X0020237Y0039140D01*
X0020028Y0039227D02*
X0018999Y0039227D01*
X0018048Y0038833D01*
X0017320Y0038105D01*
X0016926Y0037154D01*
X0016926Y0036125D01*
X0017320Y0035174D01*
X0018048Y0034446D01*
X0018999Y0034052D01*
X0020028Y0034052D01*
X0020979Y0034446D01*
X0021707Y0035174D01*
X0022101Y0036125D01*
X0022101Y0037154D01*
X0021707Y0038105D01*
X0020979Y0038833D01*
X0020028Y0039227D01*
X0018789Y0039140D02*
X0016511Y0039140D01*
X0016511Y0037942D02*
X0017252Y0037942D01*
X0016926Y0036743D02*
X0016511Y0036743D01*
X0016511Y0035545D02*
X0017166Y0035545D01*
X0016511Y0034346D02*
X0018289Y0034346D01*
X0016511Y0033147D02*
X0049873Y0033147D01*
X0049371Y0031949D02*
X0016511Y0031949D01*
X0016511Y0030750D02*
X0049449Y0030750D01*
X0050159Y0029552D02*
X0016511Y0029552D01*
X0020738Y0034346D02*
X0050483Y0034346D01*
X0049583Y0035545D02*
X0021860Y0035545D01*
X0022101Y0036743D02*
X0049371Y0036743D01*
X0049693Y0037942D02*
X0021775Y0037942D01*
X0032332Y0045133D02*
X0033200Y0045133D01*
X0033367Y0048728D02*
X0032164Y0048728D01*
X0037479Y0048728D02*
X0038682Y0048728D01*
X0038515Y0045133D02*
X0037646Y0045133D01*
X0042961Y0045133D02*
X0043830Y0045133D01*
X0043997Y0048728D02*
X0042794Y0048728D01*
X0048109Y0048728D02*
X0049902Y0048728D01*
X0049228Y0047530D02*
X0048784Y0047530D01*
X0048837Y0046331D02*
X0049174Y0046331D01*
X0049735Y0045133D02*
X0048276Y0045133D01*
X0054438Y0033147D02*
X0145173Y0033147D01*
X0145754Y0030750D02*
X0161776Y0030750D01*
X0160976Y0029552D02*
X0146555Y0029552D01*
X0146668Y0028353D02*
X0160863Y0028353D01*
X0161402Y0027155D02*
X0146129Y0027155D01*
X0144931Y0022361D02*
X0155513Y0022361D01*
X0154668Y0021162D02*
X0145776Y0021162D01*
X0145920Y0019964D02*
X0154524Y0019964D01*
X0154988Y0018765D02*
X0145456Y0018765D01*
X0141733Y0022361D02*
X0131152Y0022361D01*
X0131996Y0021162D02*
X0140889Y0021162D01*
X0140745Y0019964D02*
X0132140Y0019964D01*
X0131676Y0018765D02*
X0141209Y0018765D01*
X0127954Y0022361D02*
X0117372Y0022361D01*
X0118217Y0021162D02*
X0127109Y0021162D01*
X0126965Y0019964D02*
X0118361Y0019964D01*
X0117897Y0018765D02*
X0127429Y0018765D01*
X0158711Y0022361D02*
X0169292Y0022361D01*
X0168448Y0021162D02*
X0159555Y0021162D01*
X0159699Y0019964D02*
X0168304Y0019964D01*
X0168768Y0018765D02*
X0159236Y0018765D01*
X0172490Y0022361D02*
X0183072Y0022361D01*
X0182227Y0021162D02*
X0173335Y0021162D01*
X0173479Y0019964D02*
X0182083Y0019964D01*
X0182547Y0018765D02*
X0173015Y0018765D01*
X0172198Y0031949D02*
X0054940Y0031949D01*
X0059056Y0022361D02*
X0048475Y0022361D01*
X0049319Y0021162D02*
X0058211Y0021162D01*
X0058068Y0019964D02*
X0049463Y0019964D01*
X0048999Y0018765D02*
X0058531Y0018765D01*
X0062779Y0018765D02*
X0072311Y0018765D01*
X0071847Y0019964D02*
X0063243Y0019964D01*
X0063099Y0021162D02*
X0071991Y0021162D01*
X0072836Y0022361D02*
X0062254Y0022361D01*
X0076034Y0022361D02*
X0086615Y0022361D01*
X0085770Y0021162D02*
X0076878Y0021162D01*
X0077022Y0019964D02*
X0085627Y0019964D01*
X0086090Y0018765D02*
X0076558Y0018765D01*
X0123125Y0066706D02*
X0123382Y0066706D01*
X0124203Y0067904D02*
X0122304Y0067904D01*
X0122778Y0070301D02*
X0128454Y0070301D01*
X0127102Y0071500D02*
X0124129Y0071500D01*
X0124463Y0072698D02*
X0126769Y0072698D01*
X0126969Y0073897D02*
X0124263Y0073897D01*
X0123381Y0075095D02*
X0127851Y0075095D01*
X0131255Y0075095D02*
X0160626Y0075095D01*
X0160272Y0073897D02*
X0132137Y0073897D01*
X0132337Y0072698D02*
X0160485Y0072698D01*
X0161473Y0071500D02*
X0132003Y0071500D01*
X0128534Y0067904D02*
X0127816Y0067904D01*
X0164407Y0036743D02*
X0166479Y0036743D01*
X0167211Y0035545D02*
X0164935Y0035545D01*
X0164818Y0034346D02*
X0168997Y0034346D01*
X0171427Y0033147D02*
X0164011Y0033147D01*
X0173131Y0041537D02*
X0182653Y0041537D01*
X0181816Y0040339D02*
X0174107Y0040339D01*
X0174591Y0039140D02*
X0181429Y0039140D01*
X0181365Y0037928D02*
X0181472Y0037252D01*
X0181696Y0036562D01*
X0182026Y0035915D01*
X0182452Y0035328D01*
X0182966Y0034815D01*
X0183553Y0034388D01*
X0184200Y0034058D01*
X0184890Y0033834D01*
X0185566Y0033727D01*
X0185566Y0037928D01*
X0181365Y0037928D01*
X0181637Y0036743D02*
X0174280Y0036743D01*
X0174591Y0037942D02*
X0185566Y0037942D01*
X0186374Y0037942D02*
X0199287Y0037942D01*
X0186374Y0039140D02*
X0185566Y0039140D01*
X0185566Y0040339D02*
X0186374Y0040339D01*
X0186374Y0041537D02*
X0185566Y0041537D01*
X0185566Y0036743D02*
X0186374Y0036743D01*
X0186374Y0035545D02*
X0185566Y0035545D01*
X0185566Y0034346D02*
X0186374Y0034346D01*
X0183635Y0034346D02*
X0176510Y0034346D01*
X0175921Y0035545D02*
X0182295Y0035545D01*
X0182293Y0045133D02*
X0174135Y0045133D01*
X0175587Y0046331D02*
X0180841Y0046331D01*
X0179735Y0047530D02*
X0176693Y0047530D01*
X0177190Y0048728D02*
X0179238Y0048728D01*
X0178742Y0049927D02*
X0177686Y0049927D01*
X0177743Y0051125D02*
X0178685Y0051125D01*
X0178685Y0052324D02*
X0177743Y0052324D01*
X0177518Y0053522D02*
X0178910Y0053522D01*
X0179407Y0054721D02*
X0177022Y0054721D01*
X0176379Y0055919D02*
X0180049Y0055919D01*
X0181248Y0057118D02*
X0175181Y0057118D01*
X0173154Y0058316D02*
X0183274Y0058316D01*
X0190664Y0108654D02*
X0195596Y0108654D01*
X0195469Y0109852D02*
X0192052Y0109852D01*
X0192617Y0111051D02*
X0195974Y0111051D01*
X0192808Y0112249D02*
X0199287Y0112249D01*
X0199287Y0113448D02*
X0192698Y0113448D01*
X0192202Y0114646D02*
X0199287Y0114646D01*
X0199287Y0115845D02*
X0191051Y0115845D01*
X0186165Y0115845D02*
X0016511Y0115845D01*
X0016511Y0117043D02*
X0018240Y0117043D01*
X0018048Y0117123D02*
X0018999Y0116729D01*
X0020028Y0116729D01*
X0020979Y0117123D01*
X0021707Y0117851D01*
X0022101Y0118802D01*
X0022101Y0119831D01*
X0021707Y0120782D01*
X0020979Y0121510D01*
X0020028Y0121904D01*
X0018999Y0121904D01*
X0018048Y0121510D01*
X0017320Y0120782D01*
X0016926Y0119831D01*
X0016926Y0118802D01*
X0017320Y0117851D01*
X0018048Y0117123D01*
X0017158Y0118242D02*
X0016511Y0118242D01*
X0016511Y0119440D02*
X0016926Y0119440D01*
X0017261Y0120639D02*
X0016511Y0120639D01*
X0016511Y0121837D02*
X0018838Y0121837D01*
X0020189Y0121837D02*
X0072755Y0121837D01*
X0072959Y0121753D02*
X0073989Y0121753D01*
X0074940Y0122147D01*
X0075667Y0122875D01*
X0076061Y0123825D01*
X0076061Y0124855D01*
X0075667Y0125806D01*
X0074940Y0126534D01*
X0074057Y0126899D01*
X0074940Y0127265D01*
X0075667Y0127993D01*
X0076061Y0128944D01*
X0076061Y0129973D01*
X0075667Y0130924D01*
X0074940Y0131652D01*
X0073989Y0132046D01*
X0072959Y0132046D01*
X0072008Y0131652D01*
X0071281Y0130924D01*
X0070887Y0129973D01*
X0070887Y0128944D01*
X0071281Y0127993D01*
X0072008Y0127265D01*
X0072891Y0126899D01*
X0072008Y0126534D01*
X0071281Y0125806D01*
X0070887Y0124855D01*
X0070887Y0123825D01*
X0071281Y0122875D01*
X0072008Y0122147D01*
X0072959Y0121753D01*
X0074193Y0121837D02*
X0084566Y0121837D01*
X0084770Y0121753D02*
X0085800Y0121753D01*
X0086751Y0122147D01*
X0087479Y0122875D01*
X0087872Y0123825D01*
X0087872Y0124855D01*
X0087479Y0125806D01*
X0086751Y0126534D01*
X0085868Y0126899D01*
X0086751Y0127265D01*
X0087479Y0127993D01*
X0087872Y0128944D01*
X0087872Y0129973D01*
X0087479Y0130924D01*
X0086751Y0131652D01*
X0085800Y0132046D01*
X0084770Y0132046D01*
X0083819Y0131652D01*
X0083092Y0130924D01*
X0082698Y0129973D01*
X0082698Y0128944D01*
X0083092Y0127993D01*
X0083819Y0127265D01*
X0084702Y0126899D01*
X0083819Y0126534D01*
X0083092Y0125806D01*
X0082698Y0124855D01*
X0082698Y0123825D01*
X0083092Y0122875D01*
X0083819Y0122147D01*
X0084770Y0121753D01*
X0086004Y0121837D02*
X0115126Y0121837D01*
X0114741Y0121452D02*
X0114273Y0120322D01*
X0114273Y0119099D01*
X0114741Y0117968D01*
X0115606Y0117103D01*
X0116736Y0116635D01*
X0117960Y0116635D01*
X0119090Y0117103D01*
X0119955Y0117968D01*
X0120301Y0118803D01*
X0120647Y0117968D01*
X0121512Y0117103D01*
X0122642Y0116635D01*
X0123865Y0116635D01*
X0124995Y0117103D01*
X0125860Y0117968D01*
X0126009Y0118328D01*
X0126158Y0117968D01*
X0127023Y0117103D01*
X0128154Y0116635D01*
X0129377Y0116635D01*
X0130507Y0117103D01*
X0131372Y0117968D01*
X0131840Y0119099D01*
X0131840Y0120322D01*
X0131372Y0121452D01*
X0130507Y0122317D01*
X0129672Y0122663D01*
X0130507Y0123009D01*
X0131372Y0123874D01*
X0131604Y0124433D01*
X0132064Y0123323D01*
X0132929Y0122458D01*
X0134059Y0121990D01*
X0135283Y0121990D01*
X0136413Y0122458D01*
X0137278Y0123323D01*
X0137746Y0124453D01*
X0137746Y0125611D01*
X0138401Y0124956D01*
X0139302Y0124583D01*
X0140276Y0124583D01*
X0141167Y0124952D01*
X0142058Y0124583D01*
X0143032Y0124583D01*
X0143923Y0124952D01*
X0144813Y0124583D01*
X0145788Y0124583D01*
X0146689Y0124956D01*
X0147344Y0125611D01*
X0147344Y0124453D01*
X0147812Y0123323D01*
X0148677Y0122458D01*
X0149807Y0121990D01*
X0151031Y0121990D01*
X0152161Y0122458D01*
X0153026Y0123323D01*
X0153494Y0124453D01*
X0153494Y0125676D01*
X0153026Y0126806D01*
X0152307Y0127525D01*
X0153026Y0128244D01*
X0153494Y0129374D01*
X0153494Y0130597D01*
X0153026Y0131728D01*
X0152209Y0132545D01*
X0153026Y0133362D01*
X0153494Y0134492D01*
X0153494Y0135716D01*
X0153026Y0136846D01*
X0152161Y0137711D01*
X0151031Y0138179D01*
X0149807Y0138179D01*
X0148677Y0137711D01*
X0147812Y0136846D01*
X0147344Y0135716D01*
X0147344Y0134492D01*
X0147812Y0133362D01*
X0148629Y0132545D01*
X0147812Y0131728D01*
X0147522Y0131026D01*
X0147378Y0131374D01*
X0147289Y0131462D01*
X0147378Y0131551D01*
X0147751Y0132451D01*
X0147751Y0133426D01*
X0147378Y0134326D01*
X0146689Y0135016D01*
X0145788Y0135389D01*
X0144813Y0135389D01*
X0143923Y0135020D01*
X0143032Y0135389D01*
X0142058Y0135389D01*
X0141167Y0135020D01*
X0140276Y0135389D01*
X0139302Y0135389D01*
X0138401Y0135016D01*
X0137712Y0134326D01*
X0137339Y0133426D01*
X0137339Y0132451D01*
X0137712Y0131551D01*
X0137801Y0131462D01*
X0137712Y0131374D01*
X0137568Y0131026D01*
X0137278Y0131728D01*
X0136461Y0132545D01*
X0137278Y0133362D01*
X0137746Y0134492D01*
X0137746Y0135716D01*
X0137278Y0136846D01*
X0136413Y0137711D01*
X0135283Y0138179D01*
X0134059Y0138179D01*
X0132929Y0137711D01*
X0132064Y0136846D01*
X0131596Y0135716D01*
X0131596Y0134492D01*
X0132064Y0133362D01*
X0132881Y0132545D01*
X0132064Y0131728D01*
X0131840Y0131188D01*
X0131840Y0132133D01*
X0131372Y0133263D01*
X0130507Y0134128D01*
X0129672Y0134474D01*
X0130507Y0134820D01*
X0131372Y0135685D01*
X0131840Y0136815D01*
X0131840Y0138038D01*
X0131372Y0139169D01*
X0130507Y0140034D01*
X0129377Y0140502D01*
X0128154Y0140502D01*
X0127023Y0140034D01*
X0126158Y0139169D01*
X0126009Y0138809D01*
X0125860Y0139169D01*
X0124995Y0140034D01*
X0123865Y0140502D01*
X0122642Y0140502D01*
X0121512Y0140034D01*
X0120647Y0139169D01*
X0120301Y0138334D01*
X0119955Y0139169D01*
X0119090Y0140034D01*
X0117960Y0140502D01*
X0116736Y0140502D01*
X0115606Y0140034D01*
X0114741Y0139169D01*
X0114273Y0138038D01*
X0114273Y0136815D01*
X0114741Y0135685D01*
X0115606Y0134820D01*
X0116441Y0134474D01*
X0115606Y0134128D01*
X0114741Y0133263D01*
X0114273Y0132133D01*
X0114273Y0130910D01*
X0114741Y0129779D01*
X0115606Y0128914D01*
X0116441Y0128569D01*
X0115606Y0128223D01*
X0114741Y0127358D01*
X0114273Y0126227D01*
X0114273Y0125004D01*
X0114741Y0123874D01*
X0115606Y0123009D01*
X0116441Y0122663D01*
X0115606Y0122317D01*
X0114741Y0121452D01*
X0114404Y0120639D02*
X0021766Y0120639D01*
X0022101Y0119440D02*
X0114273Y0119440D01*
X0114628Y0118242D02*
X0021869Y0118242D01*
X0020786Y0117043D02*
X0115751Y0117043D01*
X0118945Y0117043D02*
X0121657Y0117043D01*
X0120533Y0118242D02*
X0120068Y0118242D01*
X0124850Y0117043D02*
X0127169Y0117043D01*
X0126045Y0118242D02*
X0125974Y0118242D01*
X0130362Y0117043D02*
X0199287Y0117043D01*
X0199287Y0118242D02*
X0131485Y0118242D01*
X0131840Y0119440D02*
X0199287Y0119440D01*
X0199287Y0120639D02*
X0131709Y0120639D01*
X0130987Y0121837D02*
X0195843Y0121837D01*
X0195469Y0123036D02*
X0152739Y0123036D01*
X0153403Y0124234D02*
X0186576Y0124234D01*
X0186229Y0124378D02*
X0187772Y0123739D01*
X0189443Y0123739D01*
X0190987Y0124378D01*
X0192168Y0125559D01*
X0192808Y0127103D01*
X0192808Y0128774D01*
X0192168Y0130318D01*
X0190987Y0131499D01*
X0189443Y0132139D01*
X0187772Y0132139D01*
X0186229Y0131499D01*
X0185047Y0130318D01*
X0184408Y0128774D01*
X0184408Y0127103D01*
X0185047Y0125559D01*
X0186229Y0124378D01*
X0185174Y0125433D02*
X0153494Y0125433D01*
X0153098Y0126631D02*
X0163970Y0126631D01*
X0163807Y0126795D02*
X0164590Y0126011D01*
X0165613Y0125587D01*
X0166721Y0125587D01*
X0167744Y0126011D01*
X0168527Y0126795D01*
X0168951Y0127818D01*
X0168951Y0128925D01*
X0168527Y0129949D01*
X0167744Y0130732D01*
X0166721Y0131156D01*
X0165613Y0131156D01*
X0164590Y0130732D01*
X0163807Y0129949D01*
X0163383Y0128925D01*
X0163383Y0127818D01*
X0163807Y0126795D01*
X0163383Y0127830D02*
X0152612Y0127830D01*
X0153351Y0129028D02*
X0163425Y0129028D01*
X0164085Y0130227D02*
X0153494Y0130227D01*
X0153151Y0131425D02*
X0155961Y0131425D01*
X0156500Y0131202D02*
X0157723Y0131202D01*
X0158854Y0131670D01*
X0159719Y0132535D01*
X0159868Y0132895D01*
X0160017Y0132535D01*
X0160882Y0131670D01*
X0162012Y0131202D01*
X0163235Y0131202D01*
X0164365Y0131670D01*
X0165183Y0132488D01*
X0166000Y0131670D01*
X0167130Y0131202D01*
X0168353Y0131202D01*
X0169484Y0131670D01*
X0170349Y0132535D01*
X0170817Y0133666D01*
X0170817Y0134889D01*
X0170349Y0136019D01*
X0169728Y0136639D01*
X0170349Y0137260D01*
X0170817Y0138390D01*
X0170817Y0139613D01*
X0170349Y0140743D01*
X0169484Y0141608D01*
X0168353Y0142077D01*
X0167130Y0142077D01*
X0166000Y0141608D01*
X0165183Y0140791D01*
X0164365Y0141608D01*
X0163235Y0142077D01*
X0162012Y0142077D01*
X0160882Y0141608D01*
X0160017Y0140743D01*
X0159868Y0140384D01*
X0159719Y0140743D01*
X0158854Y0141608D01*
X0157723Y0142077D01*
X0156500Y0142077D01*
X0155370Y0141608D01*
X0154505Y0140743D01*
X0154037Y0139613D01*
X0154037Y0138390D01*
X0154505Y0137260D01*
X0155125Y0136639D01*
X0154505Y0136019D01*
X0154037Y0134889D01*
X0154037Y0133666D01*
X0154505Y0132535D01*
X0155370Y0131670D01*
X0156500Y0131202D01*
X0158262Y0131425D02*
X0161473Y0131425D01*
X0159980Y0132624D02*
X0159755Y0132624D01*
X0163774Y0131425D02*
X0166591Y0131425D01*
X0168249Y0130227D02*
X0185010Y0130227D01*
X0184513Y0129028D02*
X0168909Y0129028D01*
X0168951Y0127830D02*
X0184408Y0127830D01*
X0184603Y0126631D02*
X0168364Y0126631D01*
X0168892Y0131425D02*
X0186155Y0131425D01*
X0187570Y0133822D02*
X0170817Y0133822D01*
X0170762Y0135021D02*
X0185586Y0135021D01*
X0185047Y0135559D02*
X0184408Y0137103D01*
X0184408Y0138774D01*
X0185047Y0140318D01*
X0186229Y0141499D01*
X0187772Y0142139D01*
X0189443Y0142139D01*
X0190987Y0141499D01*
X0192168Y0140318D01*
X0192808Y0138774D01*
X0192808Y0137103D01*
X0192168Y0135559D01*
X0190987Y0134378D01*
X0189443Y0133739D01*
X0187772Y0133739D01*
X0186229Y0134378D01*
X0185047Y0135559D01*
X0184774Y0136219D02*
X0170148Y0136219D01*
X0170414Y0137418D02*
X0184408Y0137418D01*
X0184408Y0138616D02*
X0170817Y0138616D01*
X0170733Y0139815D02*
X0184839Y0139815D01*
X0185743Y0141014D02*
X0170078Y0141014D01*
X0165405Y0141014D02*
X0164960Y0141014D01*
X0160287Y0141014D02*
X0159449Y0141014D01*
X0154775Y0141014D02*
X0016511Y0141014D01*
X0016511Y0142212D02*
X0199287Y0142212D01*
X0199287Y0141014D02*
X0191473Y0141014D01*
X0192377Y0139815D02*
X0199287Y0139815D01*
X0195981Y0138616D02*
X0192808Y0138616D01*
X0192808Y0137418D02*
X0195469Y0137418D01*
X0195593Y0136219D02*
X0192442Y0136219D01*
X0191630Y0135021D02*
X0196410Y0135021D01*
X0199287Y0133822D02*
X0189646Y0133822D01*
X0191061Y0131425D02*
X0199287Y0131425D01*
X0199287Y0130227D02*
X0192206Y0130227D01*
X0192702Y0129028D02*
X0199287Y0129028D01*
X0199287Y0127830D02*
X0192808Y0127830D01*
X0192612Y0126631D02*
X0199287Y0126631D01*
X0196577Y0125433D02*
X0192042Y0125433D01*
X0190640Y0124234D02*
X0195662Y0124234D01*
X0199287Y0132624D02*
X0170385Y0132624D01*
X0154705Y0136219D02*
X0153285Y0136219D01*
X0153494Y0135021D02*
X0154092Y0135021D01*
X0154037Y0133822D02*
X0153216Y0133822D01*
X0152288Y0132624D02*
X0154468Y0132624D01*
X0154439Y0137418D02*
X0152454Y0137418D01*
X0154037Y0138616D02*
X0131601Y0138616D01*
X0131840Y0137418D02*
X0132636Y0137418D01*
X0131805Y0136219D02*
X0131594Y0136219D01*
X0131596Y0135021D02*
X0130708Y0135021D01*
X0130813Y0133822D02*
X0131873Y0133822D01*
X0131637Y0132624D02*
X0132802Y0132624D01*
X0131939Y0131425D02*
X0131840Y0131425D01*
X0136540Y0132624D02*
X0137339Y0132624D01*
X0137403Y0131425D02*
X0137764Y0131425D01*
X0137503Y0133822D02*
X0137468Y0133822D01*
X0137746Y0135021D02*
X0138414Y0135021D01*
X0137537Y0136219D02*
X0147553Y0136219D01*
X0147344Y0135021D02*
X0146676Y0135021D01*
X0147587Y0133822D02*
X0147621Y0133822D01*
X0147751Y0132624D02*
X0148550Y0132624D01*
X0147687Y0131425D02*
X0147326Y0131425D01*
X0143926Y0135021D02*
X0143920Y0135021D01*
X0141170Y0135021D02*
X0141164Y0135021D01*
X0136706Y0137418D02*
X0148384Y0137418D01*
X0154120Y0139815D02*
X0130726Y0139815D01*
X0126805Y0139815D02*
X0125214Y0139815D01*
X0121293Y0139815D02*
X0119309Y0139815D01*
X0120184Y0138616D02*
X0120418Y0138616D01*
X0115388Y0139815D02*
X0016511Y0139815D01*
X0016511Y0138616D02*
X0114512Y0138616D01*
X0114273Y0137418D02*
X0016511Y0137418D01*
X0016511Y0136219D02*
X0114520Y0136219D01*
X0115405Y0135021D02*
X0021248Y0135021D01*
X0020979Y0135290D02*
X0020028Y0135683D01*
X0018999Y0135683D01*
X0018048Y0135290D01*
X0017320Y0134562D01*
X0016926Y0133611D01*
X0016926Y0132581D01*
X0017320Y0131630D01*
X0018048Y0130903D01*
X0018999Y0130509D01*
X0020028Y0130509D01*
X0020979Y0130903D01*
X0021707Y0131630D01*
X0022101Y0132581D01*
X0022101Y0133611D01*
X0021707Y0134562D01*
X0020979Y0135290D01*
X0022013Y0133822D02*
X0115301Y0133822D01*
X0114476Y0132624D02*
X0022101Y0132624D01*
X0021502Y0131425D02*
X0036349Y0131425D01*
X0036575Y0131652D02*
X0035847Y0130924D01*
X0035454Y0129973D01*
X0035454Y0128944D01*
X0035847Y0127993D01*
X0036575Y0127265D01*
X0036983Y0127096D01*
X0036575Y0126927D01*
X0035847Y0126199D01*
X0035454Y0125249D01*
X0035454Y0124219D01*
X0035847Y0123268D01*
X0036575Y0122540D01*
X0037526Y0122146D01*
X0038556Y0122146D01*
X0039507Y0122540D01*
X0040234Y0123268D01*
X0040628Y0124219D01*
X0040628Y0125249D01*
X0040234Y0126199D01*
X0039507Y0126927D01*
X0039099Y0127096D01*
X0039507Y0127265D01*
X0040234Y0127993D01*
X0040628Y0128944D01*
X0040628Y0129973D01*
X0040234Y0130924D01*
X0039507Y0131652D01*
X0038556Y0132046D01*
X0037526Y0132046D01*
X0036575Y0131652D01*
X0035559Y0130227D02*
X0016511Y0130227D01*
X0016511Y0131425D02*
X0017525Y0131425D01*
X0016926Y0132624D02*
X0016511Y0132624D01*
X0016511Y0133822D02*
X0017014Y0133822D01*
X0016511Y0135021D02*
X0017779Y0135021D01*
X0016511Y0129028D02*
X0035454Y0129028D01*
X0036010Y0127830D02*
X0016511Y0127830D01*
X0016511Y0126631D02*
X0036279Y0126631D01*
X0035530Y0125433D02*
X0016511Y0125433D01*
X0016511Y0124234D02*
X0035454Y0124234D01*
X0036080Y0123036D02*
X0016511Y0123036D01*
X0016511Y0114646D02*
X0185014Y0114646D01*
X0184517Y0113448D02*
X0016511Y0113448D01*
X0016511Y0112249D02*
X0184408Y0112249D01*
X0184599Y0111051D02*
X0016511Y0111051D01*
X0016511Y0107455D02*
X0017772Y0107455D01*
X0017011Y0106257D02*
X0016511Y0106257D01*
X0016511Y0105058D02*
X0016926Y0105058D01*
X0016511Y0103860D02*
X0017532Y0103860D01*
X0017258Y0093073D02*
X0016511Y0093073D01*
X0016511Y0091875D02*
X0016926Y0091875D01*
X0017161Y0090676D02*
X0016511Y0090676D01*
X0016511Y0089478D02*
X0018256Y0089478D01*
X0016511Y0085882D02*
X0020307Y0085882D01*
X0018766Y0084683D02*
X0016511Y0084683D01*
X0016511Y0083485D02*
X0017567Y0083485D01*
X0016802Y0082286D02*
X0016511Y0082286D01*
X0016511Y0073897D02*
X0016528Y0073897D01*
X0016511Y0072698D02*
X0017024Y0072698D01*
X0016511Y0071500D02*
X0018105Y0071500D01*
X0019304Y0070301D02*
X0016511Y0070301D01*
X0016511Y0069103D02*
X0021606Y0069103D01*
X0017255Y0065507D02*
X0016511Y0065507D01*
X0016511Y0064309D02*
X0016926Y0064309D01*
X0017164Y0063110D02*
X0016511Y0063110D01*
X0016511Y0061912D02*
X0018273Y0061912D01*
X0017003Y0023559D02*
X0016843Y0023559D01*
X0049337Y0122146D02*
X0050367Y0122146D01*
X0051318Y0122540D01*
X0052045Y0123268D01*
X0052439Y0124219D01*
X0052439Y0125249D01*
X0052045Y0126199D01*
X0051318Y0126927D01*
X0050910Y0127096D01*
X0051318Y0127265D01*
X0052045Y0127993D01*
X0052439Y0128944D01*
X0052439Y0129973D01*
X0052045Y0130924D01*
X0051318Y0131652D01*
X0050367Y0132046D01*
X0049337Y0132046D01*
X0048386Y0131652D01*
X0047658Y0130924D01*
X0047265Y0129973D01*
X0047265Y0128944D01*
X0047658Y0127993D01*
X0048386Y0127265D01*
X0048794Y0127096D01*
X0048386Y0126927D01*
X0047658Y0126199D01*
X0047265Y0125249D01*
X0047265Y0124219D01*
X0047658Y0123268D01*
X0048386Y0122540D01*
X0049337Y0122146D01*
X0047891Y0123036D02*
X0040002Y0123036D01*
X0040628Y0124234D02*
X0047265Y0124234D01*
X0047341Y0125433D02*
X0040552Y0125433D01*
X0039803Y0126631D02*
X0048090Y0126631D01*
X0047821Y0127830D02*
X0040072Y0127830D01*
X0040628Y0129028D02*
X0047265Y0129028D01*
X0047370Y0130227D02*
X0040523Y0130227D01*
X0039733Y0131425D02*
X0048160Y0131425D01*
X0051544Y0131425D02*
X0059971Y0131425D01*
X0060197Y0131652D02*
X0059470Y0130924D01*
X0059076Y0129973D01*
X0059076Y0128944D01*
X0059470Y0127993D01*
X0060197Y0127265D01*
X0060605Y0127096D01*
X0060197Y0126927D01*
X0059470Y0126199D01*
X0059076Y0125249D01*
X0059076Y0124219D01*
X0059470Y0123268D01*
X0060197Y0122540D01*
X0061148Y0122146D01*
X0062178Y0122146D01*
X0063129Y0122540D01*
X0063856Y0123268D01*
X0064250Y0124219D01*
X0064250Y0125249D01*
X0063856Y0126199D01*
X0063129Y0126927D01*
X0062721Y0127096D01*
X0063129Y0127265D01*
X0063856Y0127993D01*
X0064250Y0128944D01*
X0064250Y0129973D01*
X0063856Y0130924D01*
X0063129Y0131652D01*
X0062178Y0132046D01*
X0061148Y0132046D01*
X0060197Y0131652D01*
X0059181Y0130227D02*
X0052334Y0130227D01*
X0052439Y0129028D02*
X0059076Y0129028D01*
X0059632Y0127830D02*
X0051883Y0127830D01*
X0051614Y0126631D02*
X0059901Y0126631D01*
X0059152Y0125433D02*
X0052363Y0125433D01*
X0052439Y0124234D02*
X0059076Y0124234D01*
X0059702Y0123036D02*
X0051813Y0123036D01*
X0063624Y0123036D02*
X0071214Y0123036D01*
X0070887Y0124234D02*
X0064250Y0124234D01*
X0064174Y0125433D02*
X0071126Y0125433D01*
X0072244Y0126631D02*
X0063425Y0126631D01*
X0063694Y0127830D02*
X0071443Y0127830D01*
X0070887Y0129028D02*
X0064250Y0129028D01*
X0064145Y0130227D02*
X0070992Y0130227D01*
X0071782Y0131425D02*
X0063355Y0131425D01*
X0075166Y0131425D02*
X0083593Y0131425D01*
X0082803Y0130227D02*
X0075956Y0130227D01*
X0076061Y0129028D02*
X0082698Y0129028D01*
X0083254Y0127830D02*
X0075505Y0127830D01*
X0074704Y0126631D02*
X0084055Y0126631D01*
X0082937Y0125433D02*
X0075822Y0125433D01*
X0076061Y0124234D02*
X0082698Y0124234D01*
X0083025Y0123036D02*
X0075734Y0123036D01*
X0086515Y0126631D02*
X0114440Y0126631D01*
X0114273Y0125433D02*
X0087633Y0125433D01*
X0087872Y0124234D02*
X0114592Y0124234D01*
X0115579Y0123036D02*
X0087545Y0123036D01*
X0087316Y0127830D02*
X0115213Y0127830D01*
X0115492Y0129028D02*
X0087872Y0129028D01*
X0087767Y0130227D02*
X0114556Y0130227D01*
X0114273Y0131425D02*
X0086977Y0131425D01*
X0085910Y0154047D02*
X0065274Y0154289D01*
X0061840Y0153483D01*
X0059406Y0153881D01*
X0057309Y0155180D01*
X0055870Y0157183D01*
X0055306Y0159584D01*
X0055704Y0162019D01*
X0057003Y0164115D01*
X0059006Y0165555D01*
X0062720Y0166427D01*
X0063432Y0166712D01*
X0063910Y0166706D01*
X0064376Y0166815D01*
X0065132Y0166692D01*
X0086055Y0166447D01*
X0088323Y0165476D01*
X0090046Y0163712D01*
X0090964Y0161422D01*
X0090935Y0158956D01*
X0089964Y0156688D01*
X0088200Y0154965D01*
X0085910Y0154047D01*
X0086284Y0154197D02*
X0132961Y0154197D01*
X0133064Y0154301D02*
X0132364Y0153600D01*
X0131985Y0152686D01*
X0131985Y0151695D01*
X0132364Y0150781D01*
X0133064Y0150080D01*
X0133979Y0149702D01*
X0134292Y0149702D01*
X0136251Y0147743D01*
X0145638Y0147743D01*
X0145859Y0147521D01*
X0146774Y0147143D01*
X0147764Y0147143D01*
X0148679Y0147521D01*
X0149379Y0148222D01*
X0149758Y0149136D01*
X0149758Y0150127D01*
X0149379Y0151041D01*
X0148679Y0151742D01*
X0147764Y0152120D01*
X0146774Y0152120D01*
X0145859Y0151742D01*
X0145638Y0151520D01*
X0137816Y0151520D01*
X0136963Y0152373D01*
X0136963Y0152686D01*
X0136584Y0153600D01*
X0135884Y0154301D01*
X0134969Y0154680D01*
X0133979Y0154680D01*
X0133064Y0154301D01*
X0132115Y0152999D02*
X0050288Y0152999D01*
X0050264Y0152989D02*
X0051215Y0153383D01*
X0051943Y0154111D01*
X0052337Y0155062D01*
X0052337Y0156091D01*
X0051943Y0157042D01*
X0051215Y0157770D01*
X0050264Y0158164D01*
X0049235Y0158164D01*
X0048284Y0157770D01*
X0047556Y0157042D01*
X0047162Y0156091D01*
X0047162Y0155062D01*
X0047556Y0154111D01*
X0048284Y0153383D01*
X0049235Y0152989D01*
X0050264Y0152989D01*
X0049212Y0152999D02*
X0016511Y0152999D01*
X0016511Y0154197D02*
X0047520Y0154197D01*
X0047162Y0155396D02*
X0016511Y0155396D01*
X0016511Y0156594D02*
X0047371Y0156594D01*
X0048339Y0157793D02*
X0016511Y0157793D01*
X0016511Y0158991D02*
X0017518Y0158991D01*
X0017320Y0159189D02*
X0018048Y0158462D01*
X0018999Y0158068D01*
X0020028Y0158068D01*
X0020979Y0158462D01*
X0021707Y0159189D01*
X0022101Y0160140D01*
X0022101Y0161170D01*
X0021707Y0162121D01*
X0020979Y0162849D01*
X0020028Y0163243D01*
X0018999Y0163243D01*
X0018048Y0162849D01*
X0017320Y0162121D01*
X0016926Y0161170D01*
X0016926Y0160140D01*
X0017320Y0159189D01*
X0016926Y0160190D02*
X0016511Y0160190D01*
X0016511Y0161388D02*
X0017016Y0161388D01*
X0016511Y0162587D02*
X0017786Y0162587D01*
X0016511Y0163785D02*
X0056799Y0163785D01*
X0056056Y0162587D02*
X0021241Y0162587D01*
X0022010Y0161388D02*
X0055601Y0161388D01*
X0055405Y0160190D02*
X0022101Y0160190D01*
X0021509Y0158991D02*
X0055445Y0158991D01*
X0055726Y0157793D02*
X0051160Y0157793D01*
X0052129Y0156594D02*
X0056293Y0156594D01*
X0057155Y0155396D02*
X0052337Y0155396D01*
X0051979Y0154197D02*
X0058896Y0154197D01*
X0064882Y0154197D02*
X0073132Y0154197D01*
X0061679Y0166182D02*
X0016511Y0166182D01*
X0016511Y0164984D02*
X0058212Y0164984D01*
X0060337Y0177753D02*
X0061367Y0177753D01*
X0062318Y0178147D01*
X0063045Y0178875D01*
X0063439Y0179825D01*
X0063439Y0180855D01*
X0063045Y0181806D01*
X0062318Y0182534D01*
X0061367Y0182928D01*
X0060337Y0182928D01*
X0059386Y0182534D01*
X0058658Y0181806D01*
X0058265Y0180855D01*
X0058265Y0179825D01*
X0058658Y0178875D01*
X0059386Y0178147D01*
X0060337Y0177753D01*
X0059366Y0178167D02*
X0048559Y0178167D01*
X0048538Y0178147D02*
X0049266Y0178875D01*
X0049660Y0179825D01*
X0049660Y0180855D01*
X0049266Y0181806D01*
X0048538Y0182534D01*
X0047587Y0182928D01*
X0046558Y0182928D01*
X0045607Y0182534D01*
X0044879Y0181806D01*
X0044485Y0180855D01*
X0044485Y0179825D01*
X0044879Y0178875D01*
X0045607Y0178147D01*
X0046558Y0177753D01*
X0047587Y0177753D01*
X0048538Y0178147D01*
X0049469Y0179366D02*
X0058455Y0179366D01*
X0058265Y0180564D02*
X0049660Y0180564D01*
X0049284Y0181763D02*
X0058641Y0181763D01*
X0063063Y0181763D02*
X0072420Y0181763D01*
X0072438Y0181806D02*
X0072044Y0180855D01*
X0072044Y0179825D01*
X0072438Y0178875D01*
X0073166Y0178147D01*
X0074117Y0177753D01*
X0075146Y0177753D01*
X0076097Y0178147D01*
X0076825Y0178875D01*
X0077219Y0179825D01*
X0077219Y0180855D01*
X0076825Y0181806D01*
X0076097Y0182534D01*
X0075146Y0182928D01*
X0074117Y0182928D01*
X0073166Y0182534D01*
X0072438Y0181806D01*
X0072044Y0180564D02*
X0063439Y0180564D01*
X0063249Y0179366D02*
X0072234Y0179366D01*
X0073145Y0178167D02*
X0062338Y0178167D01*
X0076118Y0178167D02*
X0086925Y0178167D01*
X0086945Y0178147D02*
X0087896Y0177753D01*
X0088926Y0177753D01*
X0089877Y0178147D01*
X0090605Y0178875D01*
X0090998Y0179825D01*
X0090998Y0180855D01*
X0090605Y0181806D01*
X0089877Y0182534D01*
X0088926Y0182928D01*
X0087896Y0182928D01*
X0086945Y0182534D01*
X0086218Y0181806D01*
X0085824Y0180855D01*
X0085824Y0179825D01*
X0086218Y0178875D01*
X0086945Y0178147D01*
X0086014Y0179366D02*
X0077029Y0179366D01*
X0077219Y0180564D02*
X0085824Y0180564D01*
X0086200Y0181763D02*
X0076843Y0181763D01*
X0089897Y0178167D02*
X0100704Y0178167D01*
X0100725Y0178147D02*
X0101676Y0177753D01*
X0102705Y0177753D01*
X0103656Y0178147D01*
X0104384Y0178875D01*
X0104778Y0179825D01*
X0104778Y0180855D01*
X0104384Y0181806D01*
X0103656Y0182534D01*
X0102705Y0182928D01*
X0101676Y0182928D01*
X0100725Y0182534D01*
X0099997Y0181806D01*
X0099603Y0180855D01*
X0099603Y0179825D01*
X0099997Y0178875D01*
X0100725Y0178147D01*
X0099794Y0179366D02*
X0090808Y0179366D01*
X0090998Y0180564D02*
X0099603Y0180564D01*
X0099979Y0181763D02*
X0090622Y0181763D01*
X0103677Y0178167D02*
X0114484Y0178167D01*
X0114504Y0178147D02*
X0115455Y0177753D01*
X0116485Y0177753D01*
X0117436Y0178147D01*
X0118164Y0178875D01*
X0118557Y0179825D01*
X0118557Y0180855D01*
X0118164Y0181806D01*
X0117436Y0182534D01*
X0116485Y0182928D01*
X0115455Y0182928D01*
X0114504Y0182534D01*
X0113777Y0181806D01*
X0113383Y0180855D01*
X0113383Y0179825D01*
X0113777Y0178875D01*
X0114504Y0178147D01*
X0113573Y0179366D02*
X0104588Y0179366D01*
X0104778Y0180564D02*
X0113383Y0180564D01*
X0113759Y0181763D02*
X0104402Y0181763D01*
X0117456Y0178167D02*
X0128263Y0178167D01*
X0128284Y0178147D02*
X0129235Y0177753D01*
X0130264Y0177753D01*
X0131215Y0178147D01*
X0131943Y0178875D01*
X0132337Y0179825D01*
X0132337Y0180855D01*
X0131943Y0181806D01*
X0131215Y0182534D01*
X0130264Y0182928D01*
X0129235Y0182928D01*
X0128284Y0182534D01*
X0127556Y0181806D01*
X0127162Y0180855D01*
X0127162Y0179825D01*
X0127556Y0178875D01*
X0128284Y0178147D01*
X0127353Y0179366D02*
X0118367Y0179366D01*
X0118557Y0180564D02*
X0127162Y0180564D01*
X0127538Y0181763D02*
X0118181Y0181763D01*
X0131236Y0178167D02*
X0142043Y0178167D01*
X0142063Y0178147D02*
X0143014Y0177753D01*
X0144044Y0177753D01*
X0144995Y0178147D01*
X0145723Y0178875D01*
X0146117Y0179825D01*
X0146117Y0180855D01*
X0145723Y0181806D01*
X0144995Y0182534D01*
X0144044Y0182928D01*
X0143014Y0182928D01*
X0142063Y0182534D01*
X0141336Y0181806D01*
X0140942Y0180855D01*
X0140942Y0179825D01*
X0141336Y0178875D01*
X0142063Y0178147D01*
X0141132Y0179366D02*
X0132147Y0179366D01*
X0132337Y0180564D02*
X0140942Y0180564D01*
X0141318Y0181763D02*
X0131961Y0181763D01*
X0145015Y0178167D02*
X0155822Y0178167D01*
X0155843Y0178147D02*
X0156794Y0177753D01*
X0157823Y0177753D01*
X0158774Y0178147D01*
X0159502Y0178875D01*
X0159896Y0179825D01*
X0159896Y0180855D01*
X0159502Y0181806D01*
X0158774Y0182534D01*
X0157823Y0182928D01*
X0156794Y0182928D01*
X0155843Y0182534D01*
X0155115Y0181806D01*
X0154721Y0180855D01*
X0154721Y0179825D01*
X0155115Y0178875D01*
X0155843Y0178147D01*
X0154912Y0179366D02*
X0145926Y0179366D01*
X0146117Y0180564D02*
X0154721Y0180564D01*
X0155097Y0181763D02*
X0145740Y0181763D01*
X0158795Y0178167D02*
X0169602Y0178167D01*
X0169623Y0178147D02*
X0170574Y0177753D01*
X0171603Y0177753D01*
X0172554Y0178147D01*
X0173282Y0178875D01*
X0173676Y0179825D01*
X0173676Y0180855D01*
X0173282Y0181806D01*
X0172554Y0182534D01*
X0171603Y0182928D01*
X0170574Y0182928D01*
X0169623Y0182534D01*
X0168895Y0181806D01*
X0168501Y0180855D01*
X0168501Y0179825D01*
X0168895Y0178875D01*
X0169623Y0178147D01*
X0168691Y0179366D02*
X0159706Y0179366D01*
X0159896Y0180564D02*
X0168501Y0180564D01*
X0168877Y0181763D02*
X0159520Y0181763D01*
X0172575Y0178167D02*
X0183381Y0178167D01*
X0183402Y0178147D02*
X0184353Y0177753D01*
X0185382Y0177753D01*
X0186333Y0178147D01*
X0187061Y0178875D01*
X0187455Y0179825D01*
X0187455Y0180855D01*
X0187061Y0181806D01*
X0186333Y0182534D01*
X0185382Y0182928D01*
X0184353Y0182928D01*
X0183402Y0182534D01*
X0182674Y0181806D01*
X0182280Y0180855D01*
X0182280Y0179825D01*
X0182674Y0178875D01*
X0183402Y0178147D01*
X0182471Y0179366D02*
X0173485Y0179366D01*
X0173676Y0180564D02*
X0182280Y0180564D01*
X0182656Y0181763D02*
X0173299Y0181763D01*
X0186354Y0178167D02*
X0193814Y0178167D01*
X0192904Y0179366D02*
X0187265Y0179366D01*
X0187455Y0180564D02*
X0192713Y0180564D01*
X0193090Y0181763D02*
X0187079Y0181763D01*
X0192885Y0182961D02*
X0023601Y0182961D01*
X0023323Y0182961D02*
X0021636Y0182961D01*
X0021725Y0181763D02*
X0031082Y0181763D01*
X0031099Y0181806D02*
X0030706Y0180855D01*
X0030706Y0179825D01*
X0031099Y0178875D01*
X0031827Y0178147D01*
X0032778Y0177753D01*
X0033808Y0177753D01*
X0034759Y0178147D01*
X0035486Y0178875D01*
X0035880Y0179825D01*
X0035880Y0180855D01*
X0035486Y0181806D01*
X0034759Y0182534D01*
X0033808Y0182928D01*
X0032778Y0182928D01*
X0031827Y0182534D01*
X0031099Y0181806D01*
X0030706Y0180564D02*
X0022101Y0180564D01*
X0021910Y0179366D02*
X0030896Y0179366D01*
X0031807Y0178167D02*
X0021000Y0178167D01*
X0018027Y0178167D02*
X0016549Y0178167D01*
X0016511Y0176969D02*
X0199230Y0176969D01*
X0199287Y0175770D02*
X0016511Y0175770D01*
X0016511Y0174572D02*
X0196110Y0174572D01*
X0195469Y0173373D02*
X0016511Y0173373D01*
X0016511Y0172175D02*
X0017531Y0172175D01*
X0017320Y0171963D02*
X0018048Y0172691D01*
X0018999Y0173085D01*
X0020028Y0173085D01*
X0020979Y0172691D01*
X0021707Y0171963D01*
X0022101Y0171012D01*
X0022101Y0169983D01*
X0021707Y0169032D01*
X0020979Y0168304D01*
X0020028Y0167910D01*
X0018999Y0167910D01*
X0018048Y0168304D01*
X0017320Y0169032D01*
X0016926Y0169983D01*
X0016926Y0171012D01*
X0017320Y0171963D01*
X0016926Y0170976D02*
X0016511Y0170976D01*
X0016511Y0169778D02*
X0017011Y0169778D01*
X0016511Y0168579D02*
X0017773Y0168579D01*
X0016511Y0167381D02*
X0186931Y0167381D01*
X0186229Y0167090D02*
X0185047Y0165908D01*
X0184408Y0164365D01*
X0184408Y0162694D01*
X0185047Y0161150D01*
X0186229Y0159969D01*
X0187772Y0159329D01*
X0189443Y0159329D01*
X0190987Y0159969D01*
X0192168Y0161150D01*
X0192808Y0162694D01*
X0192808Y0164365D01*
X0192168Y0165908D01*
X0190987Y0167090D01*
X0189443Y0167729D01*
X0187772Y0167729D01*
X0186229Y0167090D01*
X0185321Y0166182D02*
X0101527Y0166182D01*
X0101519Y0166186D02*
X0099162Y0166186D01*
X0096984Y0165284D01*
X0095318Y0163617D01*
X0094416Y0161440D01*
X0094416Y0159083D01*
X0095318Y0156905D01*
X0096984Y0155239D01*
X0099162Y0154337D01*
X0101519Y0154337D01*
X0103696Y0155239D01*
X0105363Y0156905D01*
X0106265Y0159083D01*
X0106265Y0161440D01*
X0105363Y0163617D01*
X0103696Y0165284D01*
X0101519Y0166186D01*
X0099153Y0166182D02*
X0086673Y0166182D01*
X0088804Y0164984D02*
X0096684Y0164984D01*
X0095486Y0163785D02*
X0089975Y0163785D01*
X0090497Y0162587D02*
X0094891Y0162587D01*
X0094416Y0161388D02*
X0090963Y0161388D01*
X0090949Y0160190D02*
X0094416Y0160190D01*
X0094454Y0158991D02*
X0090935Y0158991D01*
X0090437Y0157793D02*
X0094950Y0157793D01*
X0095629Y0156594D02*
X0089868Y0156594D01*
X0088641Y0155396D02*
X0096828Y0155396D01*
X0103853Y0155396D02*
X0184835Y0155396D01*
X0185047Y0155908D02*
X0184408Y0154365D01*
X0184408Y0152694D01*
X0185047Y0151150D01*
X0186229Y0149969D01*
X0187772Y0149329D01*
X0189443Y0149329D01*
X0190987Y0149969D01*
X0192168Y0151150D01*
X0192808Y0152694D01*
X0192808Y0154365D01*
X0192168Y0155908D01*
X0190987Y0157090D01*
X0189443Y0157729D01*
X0187772Y0157729D01*
X0186229Y0157090D01*
X0185047Y0155908D01*
X0185733Y0156594D02*
X0105051Y0156594D01*
X0105730Y0157793D02*
X0199287Y0157793D01*
X0199287Y0158991D02*
X0106227Y0158991D01*
X0106265Y0160190D02*
X0186008Y0160190D01*
X0184949Y0161388D02*
X0106265Y0161388D01*
X0105790Y0162587D02*
X0184452Y0162587D01*
X0184408Y0163785D02*
X0105195Y0163785D01*
X0103996Y0164984D02*
X0184664Y0164984D01*
X0190284Y0167381D02*
X0199287Y0167381D01*
X0199287Y0168579D02*
X0021254Y0168579D01*
X0022016Y0169778D02*
X0199287Y0169778D01*
X0196281Y0170976D02*
X0022101Y0170976D01*
X0021495Y0172175D02*
X0195540Y0172175D01*
X0195988Y0166182D02*
X0191894Y0166182D01*
X0192551Y0164984D02*
X0195469Y0164984D01*
X0195590Y0163785D02*
X0192808Y0163785D01*
X0192764Y0162587D02*
X0196403Y0162587D01*
X0199287Y0161388D02*
X0192267Y0161388D01*
X0191208Y0160190D02*
X0199287Y0160190D01*
X0199287Y0156594D02*
X0191483Y0156594D01*
X0192381Y0155396D02*
X0199287Y0155396D01*
X0199287Y0154197D02*
X0192808Y0154197D01*
X0192808Y0152999D02*
X0196584Y0152999D01*
X0195665Y0151800D02*
X0192438Y0151800D01*
X0191620Y0150602D02*
X0195469Y0150602D01*
X0195840Y0149403D02*
X0189622Y0149403D01*
X0187594Y0149403D02*
X0149758Y0149403D01*
X0149562Y0150602D02*
X0185596Y0150602D01*
X0184778Y0151800D02*
X0148538Y0151800D01*
X0146001Y0151800D02*
X0137536Y0151800D01*
X0136833Y0152999D02*
X0184408Y0152999D01*
X0184408Y0154197D02*
X0135987Y0154197D01*
X0131985Y0151800D02*
X0016511Y0151800D01*
X0016511Y0150602D02*
X0132543Y0150602D01*
X0134590Y0149403D02*
X0020173Y0149403D01*
X0020028Y0149463D02*
X0018999Y0149463D01*
X0018048Y0149069D01*
X0017320Y0148341D01*
X0016926Y0147390D01*
X0016926Y0146361D01*
X0017320Y0145410D01*
X0018048Y0144682D01*
X0018999Y0144288D01*
X0020028Y0144288D01*
X0020979Y0144682D01*
X0021707Y0145410D01*
X0022101Y0146361D01*
X0022101Y0147390D01*
X0021707Y0148341D01*
X0020979Y0149069D01*
X0020028Y0149463D01*
X0018854Y0149403D02*
X0016511Y0149403D01*
X0016511Y0148205D02*
X0017263Y0148205D01*
X0016926Y0147006D02*
X0016511Y0147006D01*
X0016511Y0145808D02*
X0017155Y0145808D01*
X0016511Y0144609D02*
X0018224Y0144609D01*
X0016511Y0143411D02*
X0199287Y0143411D01*
X0199287Y0144609D02*
X0020803Y0144609D01*
X0021872Y0145808D02*
X0199287Y0145808D01*
X0199287Y0147006D02*
X0022101Y0147006D01*
X0021763Y0148205D02*
X0135789Y0148205D01*
X0149362Y0148205D02*
X0199287Y0148205D01*
X0198923Y0178167D02*
X0196787Y0178167D01*
X0197698Y0179366D02*
X0198510Y0179366D01*
X0147344Y0125433D02*
X0147165Y0125433D01*
X0147434Y0124234D02*
X0137655Y0124234D01*
X0137746Y0125433D02*
X0137924Y0125433D01*
X0136991Y0123036D02*
X0148099Y0123036D01*
X0132351Y0123036D02*
X0130534Y0123036D01*
X0131522Y0124234D02*
X0131686Y0124234D01*
X0045586Y0178167D02*
X0034779Y0178167D01*
X0035690Y0179366D02*
X0044675Y0179366D01*
X0044485Y0180564D02*
X0035880Y0180564D01*
X0035504Y0181763D02*
X0044861Y0181763D01*
X0017116Y0179366D02*
X0016934Y0179366D01*
D21*
X0148450Y0113805D03*
X0152387Y0113805D03*
X0152387Y0109868D03*
X0152387Y0105931D03*
X0156718Y0105931D03*
X0156718Y0109868D03*
X0160655Y0109868D03*
X0160655Y0105931D03*
D22*
X0147269Y0149631D02*
X0137033Y0149631D01*
X0134474Y0152191D01*
X0067230Y0105458D02*
X0054828Y0105458D01*
X0053175Y0107112D01*
X0053175Y0107545D01*
D23*
X0061624Y0159801D02*
X0064592Y0160498D01*
X0084750Y0160261D01*
M02*
