%
M48
M72
T01C0.01300
T02C0.01378
T03C0.01575
T04C0.01772
T05C0.01969
T06C0.02500
T07C0.04000
T08C0.04016
T09C0.06299
T10C0.09449
T11C0.13386
%
T01
X58687Y80970
X61443Y80970
X64198Y80970
X64198Y83923
X61443Y83923
X61443Y86876
X64198Y86876
X58687Y86876
X58687Y83923
X139789Y127033
X142545Y127033
X145301Y127033
X145301Y129986
X142545Y129986
X139789Y129986
X139789Y132939
X142545Y132939
X145301Y132939
T02
X147269Y149631
X134474Y152191
X118135Y146482
X37820Y100419
X69317Y68135
X69317Y64592
X69317Y61049
X69317Y57506
X69317Y53962
X83096Y54750
X83096Y58293
X87820Y58293
X87820Y54750
X92545Y54750
X92545Y58293
X136443Y31364
T03
X19513Y22860
X19513Y36639
X19513Y50419
X19513Y64198
X19513Y91757
X19513Y105537
X19513Y119317
X19513Y133096
X19513Y146876
X19513Y160655
X19513Y170498
X19513Y180340
X33293Y180340
X47072Y180340
X60852Y180340
X74631Y180340
X88411Y180340
X102191Y180340
X115970Y180340
X129750Y180340
X143529Y180340
X157309Y180340
X171088Y180340
X184868Y180340
X195301Y180340
X198057Y172860
X198057Y164592
X198057Y150813
X198057Y137033
X198057Y123254
X198057Y109474
X198057Y95694
X198057Y81915
X198057Y68135
X198057Y54356
X198057Y40576
X198057Y26797
X184671Y20301
X170891Y20301
X163450Y28765
X162348Y35143
X162466Y44002
X173923Y33883
X157112Y20301
X144080Y28765
X146757Y35222
X146836Y44080
X128490Y28765
X129553Y20301
X143332Y20301
X115773Y20301
X114868Y28765
X101246Y28765
X101994Y20301
X88214Y20301
X74435Y20301
X60655Y20301
X46876Y20301
X33096Y20301
X67230Y105458
X53175Y107545
X49852Y124734
X49852Y129458
X38041Y129458
X38041Y124734
X61663Y124734
X61663Y129458
X73474Y129458
X73474Y124340
X85285Y124340
X85285Y129458
X49750Y155576
X137387Y65931
X146836Y61797
X154986Y63096
X162466Y61718
X162860Y73726
X162860Y79631
X162860Y83569
X162860Y89474
T04
X160655Y105931
X160655Y109868
X156718Y109868
X156718Y105931
X152387Y105931
X152387Y109868
X152387Y113805
X148450Y113805
T05
X166167Y128372
X115680Y84277
X115680Y79946
X121679Y72860
X120498Y65773
X116167Y65773
X116167Y61049
X120498Y61049
X126009Y61049
X130340Y61049
X130340Y65773
X126009Y65773
X129553Y72860
X130734Y40970
X130734Y36246
X116561Y36246
X116561Y40970
X83096Y97269
X73126Y97111
X51959Y46847
X52156Y41729
X46053Y46847
X40738Y46847
X35423Y46847
X30108Y46847
X52156Y36611
X52156Y31493
T06
X47663Y74435
X42151Y74435
X42151Y80340
X47663Y80340
X47663Y86246
X42151Y86246
X42151Y92151
X47663Y92151
X53765Y88805
X53765Y83883
X53765Y78962
X69120Y78962
X69120Y83883
X69120Y88805
X80931Y91167
X80931Y86443
X86443Y86443
X86443Y91167
X91561Y91167
X91561Y86443
X117348Y119710
X123254Y119710
X128765Y119710
X128765Y125616
X134671Y125065
X134671Y129986
X128765Y131521
X134671Y135104
X128765Y137427
X123254Y137427
X123254Y131521
X123254Y125616
X117348Y125616
X117348Y131521
X117348Y137427
X150419Y135104
X150419Y129986
X150419Y125065
X157112Y134277
X162624Y134277
X162624Y139002
X157112Y139002
X167742Y139002
X167742Y134277
X36246Y92151
X36246Y86246
X36246Y80340
X36246Y74435
T07
X188608Y76757
X188608Y86757
X188608Y102348
X188608Y112348
X188608Y127939
X188608Y137939
X188608Y153529
X188608Y163529
T08
X185970Y38332
X170380Y38332
X154789Y38332
X139238Y38332
X123647Y38332
X108057Y38332
T09
X100340Y160261
X84750Y160261
X61624Y159801
X30443Y159801
T10
X108057Y51521
X123647Y51521
X139238Y51521
X154828Y51521
X170419Y51521
X186009Y51521
T11
X24986Y77761
M30
