G75*
%MOIN*%
%OFA0B0*%
%FSLAX25Y25*%
%IPPOS*%
%LPD*%
%AMOC8*
5,1,8,0,0,1.08239X$1,22.5*
%
%ADD10C,0.01000*%
%ADD11C,0.00000*%
%ADD12R,0.04331X0.03937*%
%ADD13R,0.05906X0.05118*%
%ADD14R,0.07087X0.06299*%
%ADD15R,0.03937X0.04331*%
%ADD16OC8,0.06600*%
%ADD17C,0.06000*%
%ADD18C,0.10000*%
%ADD19R,0.01381X0.05753*%
%ADD20R,0.09094X0.09685*%
%ADD21C,0.05000*%
%ADD22R,0.13780X0.11811*%
%ADD23R,0.05118X0.05906*%
%ADD24C,0.09449*%
%ADD25C,0.00800*%
%ADD26C,0.01600*%
%ADD27C,0.02500*%
%ADD28C,0.02775*%
%ADD29C,0.01200*%
%ADD30C,0.03750*%
%ADD31C,0.03169*%
%ADD32C,0.02578*%
%ADD33C,0.02972*%
%ADD34C,0.03200*%
%ADD35C,0.02400*%
%ADD36C,0.01378*%
%ADD37C,0.05906*%
D10*
X0023254Y0014828D02*
X0192545Y0014828D01*
X0192783Y0014831D01*
X0193021Y0014839D01*
X0193258Y0014854D01*
X0193495Y0014874D01*
X0193731Y0014900D01*
X0193967Y0014931D01*
X0194202Y0014968D01*
X0194436Y0015011D01*
X0194669Y0015060D01*
X0194901Y0015114D01*
X0195131Y0015174D01*
X0195360Y0015239D01*
X0195587Y0015310D01*
X0195812Y0015386D01*
X0196035Y0015468D01*
X0196257Y0015555D01*
X0196476Y0015647D01*
X0196693Y0015745D01*
X0196907Y0015847D01*
X0197119Y0015955D01*
X0197329Y0016069D01*
X0197535Y0016187D01*
X0197739Y0016310D01*
X0197939Y0016438D01*
X0198136Y0016570D01*
X0198331Y0016708D01*
X0198521Y0016850D01*
X0198709Y0016997D01*
X0198892Y0017148D01*
X0199072Y0017303D01*
X0199248Y0017463D01*
X0199420Y0017627D01*
X0199589Y0017796D01*
X0199753Y0017968D01*
X0199913Y0018144D01*
X0200068Y0018324D01*
X0200219Y0018507D01*
X0200366Y0018695D01*
X0200508Y0018885D01*
X0200646Y0019080D01*
X0200778Y0019277D01*
X0200906Y0019477D01*
X0201029Y0019681D01*
X0201147Y0019887D01*
X0201261Y0020097D01*
X0201369Y0020309D01*
X0201471Y0020523D01*
X0201569Y0020740D01*
X0201661Y0020959D01*
X0201748Y0021181D01*
X0201830Y0021404D01*
X0201906Y0021629D01*
X0201977Y0021856D01*
X0202042Y0022085D01*
X0202102Y0022315D01*
X0202156Y0022547D01*
X0202205Y0022780D01*
X0202248Y0023014D01*
X0202285Y0023249D01*
X0202316Y0023485D01*
X0202342Y0023721D01*
X0202362Y0023958D01*
X0202377Y0024195D01*
X0202385Y0024433D01*
X0202388Y0024671D01*
X0202387Y0024671D02*
X0202387Y0176246D01*
X0202388Y0176246D02*
X0202385Y0176484D01*
X0202377Y0176722D01*
X0202362Y0176959D01*
X0202342Y0177196D01*
X0202316Y0177432D01*
X0202285Y0177668D01*
X0202248Y0177903D01*
X0202205Y0178137D01*
X0202156Y0178370D01*
X0202102Y0178602D01*
X0202042Y0178832D01*
X0201977Y0179061D01*
X0201906Y0179288D01*
X0201830Y0179513D01*
X0201748Y0179736D01*
X0201661Y0179958D01*
X0201569Y0180177D01*
X0201471Y0180394D01*
X0201369Y0180608D01*
X0201261Y0180820D01*
X0201147Y0181030D01*
X0201029Y0181236D01*
X0200906Y0181440D01*
X0200778Y0181640D01*
X0200646Y0181837D01*
X0200508Y0182032D01*
X0200366Y0182222D01*
X0200219Y0182410D01*
X0200068Y0182593D01*
X0199913Y0182773D01*
X0199753Y0182949D01*
X0199589Y0183121D01*
X0199420Y0183290D01*
X0199248Y0183454D01*
X0199072Y0183614D01*
X0198892Y0183769D01*
X0198709Y0183920D01*
X0198521Y0184067D01*
X0198331Y0184209D01*
X0198136Y0184347D01*
X0197939Y0184479D01*
X0197739Y0184607D01*
X0197535Y0184730D01*
X0197329Y0184848D01*
X0197119Y0184962D01*
X0196907Y0185070D01*
X0196693Y0185172D01*
X0196476Y0185270D01*
X0196257Y0185362D01*
X0196035Y0185449D01*
X0195812Y0185531D01*
X0195587Y0185607D01*
X0195360Y0185678D01*
X0195131Y0185743D01*
X0194901Y0185803D01*
X0194669Y0185857D01*
X0194436Y0185906D01*
X0194202Y0185949D01*
X0193967Y0185986D01*
X0193731Y0186017D01*
X0193495Y0186043D01*
X0193258Y0186063D01*
X0193021Y0186078D01*
X0192783Y0186086D01*
X0192545Y0186089D01*
X0192545Y0186088D02*
X0023254Y0186088D01*
X0013411Y0178214D02*
X0013411Y0026639D01*
X0013412Y0026639D02*
X0013391Y0026373D01*
X0013376Y0026107D01*
X0013369Y0025840D01*
X0013367Y0025573D01*
X0013373Y0025307D01*
X0013384Y0025040D01*
X0013403Y0024774D01*
X0013428Y0024508D01*
X0013459Y0024243D01*
X0013497Y0023979D01*
X0013541Y0023716D01*
X0013592Y0023454D01*
X0013649Y0023194D01*
X0013713Y0022934D01*
X0013783Y0022677D01*
X0013859Y0022421D01*
X0013942Y0022167D01*
X0014030Y0021916D01*
X0014125Y0021666D01*
X0014226Y0021419D01*
X0014333Y0021175D01*
X0014446Y0020933D01*
X0014565Y0020694D01*
X0014689Y0020459D01*
X0014820Y0020226D01*
X0014956Y0019996D01*
X0015098Y0019770D01*
X0015245Y0019548D01*
X0015397Y0019329D01*
X0015555Y0019114D01*
X0015718Y0018903D01*
X0015887Y0018696D01*
X0016060Y0018493D01*
X0016238Y0018294D01*
X0016421Y0018100D01*
X0016609Y0017910D01*
X0016801Y0017726D01*
X0016998Y0017545D01*
X0017199Y0017370D01*
X0017405Y0017200D01*
X0017614Y0017035D01*
X0017828Y0016875D01*
X0018045Y0016720D01*
X0018266Y0016571D01*
X0018491Y0016427D01*
X0018719Y0016289D01*
X0018951Y0016156D01*
X0019186Y0016029D01*
X0019423Y0015908D01*
X0019664Y0015793D01*
X0019907Y0015684D01*
X0020153Y0015581D01*
X0020402Y0015483D01*
X0020653Y0015392D01*
X0020906Y0015307D01*
X0021161Y0015229D01*
X0021417Y0015156D01*
X0021676Y0015090D01*
X0021936Y0015031D01*
X0022197Y0014977D01*
X0022460Y0014930D01*
X0022724Y0014890D01*
X0022988Y0014856D01*
X0023254Y0014829D01*
X0013411Y0178214D02*
X0013437Y0178428D01*
X0013468Y0178641D01*
X0013505Y0178853D01*
X0013547Y0179065D01*
X0013594Y0179275D01*
X0013646Y0179484D01*
X0013703Y0179692D01*
X0013765Y0179898D01*
X0013832Y0180103D01*
X0013903Y0180306D01*
X0013980Y0180507D01*
X0014062Y0180706D01*
X0014148Y0180904D01*
X0014239Y0181099D01*
X0014335Y0181292D01*
X0014436Y0181482D01*
X0014541Y0181670D01*
X0014650Y0181856D01*
X0014764Y0182038D01*
X0014883Y0182218D01*
X0015005Y0182395D01*
X0015132Y0182569D01*
X0015263Y0182740D01*
X0015399Y0182908D01*
X0015538Y0183072D01*
X0015681Y0183233D01*
X0015828Y0183391D01*
X0015979Y0183544D01*
X0016133Y0183695D01*
X0016291Y0183841D01*
X0016453Y0183984D01*
X0016617Y0184122D01*
X0016786Y0184257D01*
X0016957Y0184387D01*
X0017131Y0184513D01*
X0017309Y0184635D01*
X0017489Y0184753D01*
X0017673Y0184866D01*
X0017858Y0184975D01*
X0018047Y0185080D01*
X0018238Y0185179D01*
X0018431Y0185274D01*
X0018627Y0185365D01*
X0018824Y0185450D01*
X0019024Y0185531D01*
X0019225Y0185607D01*
X0019429Y0185678D01*
X0019634Y0185744D01*
X0019840Y0185806D01*
X0020048Y0185862D01*
X0020257Y0185913D01*
X0020468Y0185959D01*
X0020679Y0186000D01*
X0020892Y0186036D01*
X0021105Y0186067D01*
X0021319Y0186092D01*
X0021533Y0186113D01*
X0021748Y0186128D01*
X0021963Y0186138D01*
X0022178Y0186143D01*
X0022394Y0186142D01*
X0022609Y0186137D01*
X0022824Y0186126D01*
X0023039Y0186110D01*
X0023253Y0186088D01*
D11*
X0018293Y0077761D02*
X0018295Y0077925D01*
X0018301Y0078089D01*
X0018311Y0078253D01*
X0018325Y0078417D01*
X0018343Y0078580D01*
X0018365Y0078743D01*
X0018392Y0078905D01*
X0018422Y0079067D01*
X0018456Y0079227D01*
X0018494Y0079387D01*
X0018535Y0079546D01*
X0018581Y0079704D01*
X0018631Y0079860D01*
X0018684Y0080016D01*
X0018741Y0080170D01*
X0018802Y0080322D01*
X0018867Y0080473D01*
X0018936Y0080623D01*
X0019008Y0080770D01*
X0019083Y0080916D01*
X0019163Y0081060D01*
X0019245Y0081202D01*
X0019331Y0081342D01*
X0019421Y0081479D01*
X0019514Y0081615D01*
X0019610Y0081748D01*
X0019710Y0081879D01*
X0019812Y0082007D01*
X0019918Y0082133D01*
X0020027Y0082256D01*
X0020139Y0082376D01*
X0020253Y0082494D01*
X0020371Y0082608D01*
X0020491Y0082720D01*
X0020614Y0082829D01*
X0020740Y0082935D01*
X0020868Y0083037D01*
X0020999Y0083137D01*
X0021132Y0083233D01*
X0021268Y0083326D01*
X0021405Y0083416D01*
X0021545Y0083502D01*
X0021687Y0083584D01*
X0021831Y0083664D01*
X0021977Y0083739D01*
X0022124Y0083811D01*
X0022274Y0083880D01*
X0022425Y0083945D01*
X0022577Y0084006D01*
X0022731Y0084063D01*
X0022887Y0084116D01*
X0023043Y0084166D01*
X0023201Y0084212D01*
X0023360Y0084253D01*
X0023520Y0084291D01*
X0023680Y0084325D01*
X0023842Y0084355D01*
X0024004Y0084382D01*
X0024167Y0084404D01*
X0024330Y0084422D01*
X0024494Y0084436D01*
X0024658Y0084446D01*
X0024822Y0084452D01*
X0024986Y0084454D01*
X0025150Y0084452D01*
X0025314Y0084446D01*
X0025478Y0084436D01*
X0025642Y0084422D01*
X0025805Y0084404D01*
X0025968Y0084382D01*
X0026130Y0084355D01*
X0026292Y0084325D01*
X0026452Y0084291D01*
X0026612Y0084253D01*
X0026771Y0084212D01*
X0026929Y0084166D01*
X0027085Y0084116D01*
X0027241Y0084063D01*
X0027395Y0084006D01*
X0027547Y0083945D01*
X0027698Y0083880D01*
X0027848Y0083811D01*
X0027995Y0083739D01*
X0028141Y0083664D01*
X0028285Y0083584D01*
X0028427Y0083502D01*
X0028567Y0083416D01*
X0028704Y0083326D01*
X0028840Y0083233D01*
X0028973Y0083137D01*
X0029104Y0083037D01*
X0029232Y0082935D01*
X0029358Y0082829D01*
X0029481Y0082720D01*
X0029601Y0082608D01*
X0029719Y0082494D01*
X0029833Y0082376D01*
X0029945Y0082256D01*
X0030054Y0082133D01*
X0030160Y0082007D01*
X0030262Y0081879D01*
X0030362Y0081748D01*
X0030458Y0081615D01*
X0030551Y0081479D01*
X0030641Y0081342D01*
X0030727Y0081202D01*
X0030809Y0081060D01*
X0030889Y0080916D01*
X0030964Y0080770D01*
X0031036Y0080623D01*
X0031105Y0080473D01*
X0031170Y0080322D01*
X0031231Y0080170D01*
X0031288Y0080016D01*
X0031341Y0079860D01*
X0031391Y0079704D01*
X0031437Y0079546D01*
X0031478Y0079387D01*
X0031516Y0079227D01*
X0031550Y0079067D01*
X0031580Y0078905D01*
X0031607Y0078743D01*
X0031629Y0078580D01*
X0031647Y0078417D01*
X0031661Y0078253D01*
X0031671Y0078089D01*
X0031677Y0077925D01*
X0031679Y0077761D01*
X0031677Y0077597D01*
X0031671Y0077433D01*
X0031661Y0077269D01*
X0031647Y0077105D01*
X0031629Y0076942D01*
X0031607Y0076779D01*
X0031580Y0076617D01*
X0031550Y0076455D01*
X0031516Y0076295D01*
X0031478Y0076135D01*
X0031437Y0075976D01*
X0031391Y0075818D01*
X0031341Y0075662D01*
X0031288Y0075506D01*
X0031231Y0075352D01*
X0031170Y0075200D01*
X0031105Y0075049D01*
X0031036Y0074899D01*
X0030964Y0074752D01*
X0030889Y0074606D01*
X0030809Y0074462D01*
X0030727Y0074320D01*
X0030641Y0074180D01*
X0030551Y0074043D01*
X0030458Y0073907D01*
X0030362Y0073774D01*
X0030262Y0073643D01*
X0030160Y0073515D01*
X0030054Y0073389D01*
X0029945Y0073266D01*
X0029833Y0073146D01*
X0029719Y0073028D01*
X0029601Y0072914D01*
X0029481Y0072802D01*
X0029358Y0072693D01*
X0029232Y0072587D01*
X0029104Y0072485D01*
X0028973Y0072385D01*
X0028840Y0072289D01*
X0028704Y0072196D01*
X0028567Y0072106D01*
X0028427Y0072020D01*
X0028285Y0071938D01*
X0028141Y0071858D01*
X0027995Y0071783D01*
X0027848Y0071711D01*
X0027698Y0071642D01*
X0027547Y0071577D01*
X0027395Y0071516D01*
X0027241Y0071459D01*
X0027085Y0071406D01*
X0026929Y0071356D01*
X0026771Y0071310D01*
X0026612Y0071269D01*
X0026452Y0071231D01*
X0026292Y0071197D01*
X0026130Y0071167D01*
X0025968Y0071140D01*
X0025805Y0071118D01*
X0025642Y0071100D01*
X0025478Y0071086D01*
X0025314Y0071076D01*
X0025150Y0071070D01*
X0024986Y0071068D01*
X0024822Y0071070D01*
X0024658Y0071076D01*
X0024494Y0071086D01*
X0024330Y0071100D01*
X0024167Y0071118D01*
X0024004Y0071140D01*
X0023842Y0071167D01*
X0023680Y0071197D01*
X0023520Y0071231D01*
X0023360Y0071269D01*
X0023201Y0071310D01*
X0023043Y0071356D01*
X0022887Y0071406D01*
X0022731Y0071459D01*
X0022577Y0071516D01*
X0022425Y0071577D01*
X0022274Y0071642D01*
X0022124Y0071711D01*
X0021977Y0071783D01*
X0021831Y0071858D01*
X0021687Y0071938D01*
X0021545Y0072020D01*
X0021405Y0072106D01*
X0021268Y0072196D01*
X0021132Y0072289D01*
X0020999Y0072385D01*
X0020868Y0072485D01*
X0020740Y0072587D01*
X0020614Y0072693D01*
X0020491Y0072802D01*
X0020371Y0072914D01*
X0020253Y0073028D01*
X0020139Y0073146D01*
X0020027Y0073266D01*
X0019918Y0073389D01*
X0019812Y0073515D01*
X0019710Y0073643D01*
X0019610Y0073774D01*
X0019514Y0073907D01*
X0019421Y0074043D01*
X0019331Y0074180D01*
X0019245Y0074320D01*
X0019163Y0074462D01*
X0019083Y0074606D01*
X0019008Y0074752D01*
X0018936Y0074899D01*
X0018867Y0075049D01*
X0018802Y0075200D01*
X0018741Y0075352D01*
X0018684Y0075506D01*
X0018631Y0075662D01*
X0018581Y0075818D01*
X0018535Y0075976D01*
X0018494Y0076135D01*
X0018456Y0076295D01*
X0018422Y0076455D01*
X0018392Y0076617D01*
X0018365Y0076779D01*
X0018343Y0076942D01*
X0018325Y0077105D01*
X0018311Y0077269D01*
X0018301Y0077433D01*
X0018295Y0077597D01*
X0018293Y0077761D01*
X0103333Y0051521D02*
X0103335Y0051658D01*
X0103341Y0051796D01*
X0103351Y0051933D01*
X0103365Y0052069D01*
X0103383Y0052206D01*
X0103405Y0052341D01*
X0103431Y0052476D01*
X0103460Y0052610D01*
X0103494Y0052744D01*
X0103531Y0052876D01*
X0103573Y0053007D01*
X0103618Y0053137D01*
X0103667Y0053265D01*
X0103719Y0053392D01*
X0103776Y0053517D01*
X0103835Y0053641D01*
X0103899Y0053763D01*
X0103966Y0053883D01*
X0104036Y0054001D01*
X0104110Y0054117D01*
X0104187Y0054231D01*
X0104268Y0054342D01*
X0104351Y0054451D01*
X0104438Y0054558D01*
X0104528Y0054661D01*
X0104621Y0054763D01*
X0104717Y0054861D01*
X0104815Y0054957D01*
X0104917Y0055050D01*
X0105020Y0055140D01*
X0105127Y0055227D01*
X0105236Y0055310D01*
X0105347Y0055391D01*
X0105461Y0055468D01*
X0105577Y0055542D01*
X0105695Y0055612D01*
X0105815Y0055679D01*
X0105937Y0055743D01*
X0106061Y0055802D01*
X0106186Y0055859D01*
X0106313Y0055911D01*
X0106441Y0055960D01*
X0106571Y0056005D01*
X0106702Y0056047D01*
X0106834Y0056084D01*
X0106968Y0056118D01*
X0107102Y0056147D01*
X0107237Y0056173D01*
X0107372Y0056195D01*
X0107509Y0056213D01*
X0107645Y0056227D01*
X0107782Y0056237D01*
X0107920Y0056243D01*
X0108057Y0056245D01*
X0108194Y0056243D01*
X0108332Y0056237D01*
X0108469Y0056227D01*
X0108605Y0056213D01*
X0108742Y0056195D01*
X0108877Y0056173D01*
X0109012Y0056147D01*
X0109146Y0056118D01*
X0109280Y0056084D01*
X0109412Y0056047D01*
X0109543Y0056005D01*
X0109673Y0055960D01*
X0109801Y0055911D01*
X0109928Y0055859D01*
X0110053Y0055802D01*
X0110177Y0055743D01*
X0110299Y0055679D01*
X0110419Y0055612D01*
X0110537Y0055542D01*
X0110653Y0055468D01*
X0110767Y0055391D01*
X0110878Y0055310D01*
X0110987Y0055227D01*
X0111094Y0055140D01*
X0111197Y0055050D01*
X0111299Y0054957D01*
X0111397Y0054861D01*
X0111493Y0054763D01*
X0111586Y0054661D01*
X0111676Y0054558D01*
X0111763Y0054451D01*
X0111846Y0054342D01*
X0111927Y0054231D01*
X0112004Y0054117D01*
X0112078Y0054001D01*
X0112148Y0053883D01*
X0112215Y0053763D01*
X0112279Y0053641D01*
X0112338Y0053517D01*
X0112395Y0053392D01*
X0112447Y0053265D01*
X0112496Y0053137D01*
X0112541Y0053007D01*
X0112583Y0052876D01*
X0112620Y0052744D01*
X0112654Y0052610D01*
X0112683Y0052476D01*
X0112709Y0052341D01*
X0112731Y0052206D01*
X0112749Y0052069D01*
X0112763Y0051933D01*
X0112773Y0051796D01*
X0112779Y0051658D01*
X0112781Y0051521D01*
X0112779Y0051384D01*
X0112773Y0051246D01*
X0112763Y0051109D01*
X0112749Y0050973D01*
X0112731Y0050836D01*
X0112709Y0050701D01*
X0112683Y0050566D01*
X0112654Y0050432D01*
X0112620Y0050298D01*
X0112583Y0050166D01*
X0112541Y0050035D01*
X0112496Y0049905D01*
X0112447Y0049777D01*
X0112395Y0049650D01*
X0112338Y0049525D01*
X0112279Y0049401D01*
X0112215Y0049279D01*
X0112148Y0049159D01*
X0112078Y0049041D01*
X0112004Y0048925D01*
X0111927Y0048811D01*
X0111846Y0048700D01*
X0111763Y0048591D01*
X0111676Y0048484D01*
X0111586Y0048381D01*
X0111493Y0048279D01*
X0111397Y0048181D01*
X0111299Y0048085D01*
X0111197Y0047992D01*
X0111094Y0047902D01*
X0110987Y0047815D01*
X0110878Y0047732D01*
X0110767Y0047651D01*
X0110653Y0047574D01*
X0110537Y0047500D01*
X0110419Y0047430D01*
X0110299Y0047363D01*
X0110177Y0047299D01*
X0110053Y0047240D01*
X0109928Y0047183D01*
X0109801Y0047131D01*
X0109673Y0047082D01*
X0109543Y0047037D01*
X0109412Y0046995D01*
X0109280Y0046958D01*
X0109146Y0046924D01*
X0109012Y0046895D01*
X0108877Y0046869D01*
X0108742Y0046847D01*
X0108605Y0046829D01*
X0108469Y0046815D01*
X0108332Y0046805D01*
X0108194Y0046799D01*
X0108057Y0046797D01*
X0107920Y0046799D01*
X0107782Y0046805D01*
X0107645Y0046815D01*
X0107509Y0046829D01*
X0107372Y0046847D01*
X0107237Y0046869D01*
X0107102Y0046895D01*
X0106968Y0046924D01*
X0106834Y0046958D01*
X0106702Y0046995D01*
X0106571Y0047037D01*
X0106441Y0047082D01*
X0106313Y0047131D01*
X0106186Y0047183D01*
X0106061Y0047240D01*
X0105937Y0047299D01*
X0105815Y0047363D01*
X0105695Y0047430D01*
X0105577Y0047500D01*
X0105461Y0047574D01*
X0105347Y0047651D01*
X0105236Y0047732D01*
X0105127Y0047815D01*
X0105020Y0047902D01*
X0104917Y0047992D01*
X0104815Y0048085D01*
X0104717Y0048181D01*
X0104621Y0048279D01*
X0104528Y0048381D01*
X0104438Y0048484D01*
X0104351Y0048591D01*
X0104268Y0048700D01*
X0104187Y0048811D01*
X0104110Y0048925D01*
X0104036Y0049041D01*
X0103966Y0049159D01*
X0103899Y0049279D01*
X0103835Y0049401D01*
X0103776Y0049525D01*
X0103719Y0049650D01*
X0103667Y0049777D01*
X0103618Y0049905D01*
X0103573Y0050035D01*
X0103531Y0050166D01*
X0103494Y0050298D01*
X0103460Y0050432D01*
X0103431Y0050566D01*
X0103405Y0050701D01*
X0103383Y0050836D01*
X0103365Y0050973D01*
X0103351Y0051109D01*
X0103341Y0051246D01*
X0103335Y0051384D01*
X0103333Y0051521D01*
X0118923Y0051521D02*
X0118925Y0051658D01*
X0118931Y0051796D01*
X0118941Y0051933D01*
X0118955Y0052069D01*
X0118973Y0052206D01*
X0118995Y0052341D01*
X0119021Y0052476D01*
X0119050Y0052610D01*
X0119084Y0052744D01*
X0119121Y0052876D01*
X0119163Y0053007D01*
X0119208Y0053137D01*
X0119257Y0053265D01*
X0119309Y0053392D01*
X0119366Y0053517D01*
X0119425Y0053641D01*
X0119489Y0053763D01*
X0119556Y0053883D01*
X0119626Y0054001D01*
X0119700Y0054117D01*
X0119777Y0054231D01*
X0119858Y0054342D01*
X0119941Y0054451D01*
X0120028Y0054558D01*
X0120118Y0054661D01*
X0120211Y0054763D01*
X0120307Y0054861D01*
X0120405Y0054957D01*
X0120507Y0055050D01*
X0120610Y0055140D01*
X0120717Y0055227D01*
X0120826Y0055310D01*
X0120937Y0055391D01*
X0121051Y0055468D01*
X0121167Y0055542D01*
X0121285Y0055612D01*
X0121405Y0055679D01*
X0121527Y0055743D01*
X0121651Y0055802D01*
X0121776Y0055859D01*
X0121903Y0055911D01*
X0122031Y0055960D01*
X0122161Y0056005D01*
X0122292Y0056047D01*
X0122424Y0056084D01*
X0122558Y0056118D01*
X0122692Y0056147D01*
X0122827Y0056173D01*
X0122962Y0056195D01*
X0123099Y0056213D01*
X0123235Y0056227D01*
X0123372Y0056237D01*
X0123510Y0056243D01*
X0123647Y0056245D01*
X0123784Y0056243D01*
X0123922Y0056237D01*
X0124059Y0056227D01*
X0124195Y0056213D01*
X0124332Y0056195D01*
X0124467Y0056173D01*
X0124602Y0056147D01*
X0124736Y0056118D01*
X0124870Y0056084D01*
X0125002Y0056047D01*
X0125133Y0056005D01*
X0125263Y0055960D01*
X0125391Y0055911D01*
X0125518Y0055859D01*
X0125643Y0055802D01*
X0125767Y0055743D01*
X0125889Y0055679D01*
X0126009Y0055612D01*
X0126127Y0055542D01*
X0126243Y0055468D01*
X0126357Y0055391D01*
X0126468Y0055310D01*
X0126577Y0055227D01*
X0126684Y0055140D01*
X0126787Y0055050D01*
X0126889Y0054957D01*
X0126987Y0054861D01*
X0127083Y0054763D01*
X0127176Y0054661D01*
X0127266Y0054558D01*
X0127353Y0054451D01*
X0127436Y0054342D01*
X0127517Y0054231D01*
X0127594Y0054117D01*
X0127668Y0054001D01*
X0127738Y0053883D01*
X0127805Y0053763D01*
X0127869Y0053641D01*
X0127928Y0053517D01*
X0127985Y0053392D01*
X0128037Y0053265D01*
X0128086Y0053137D01*
X0128131Y0053007D01*
X0128173Y0052876D01*
X0128210Y0052744D01*
X0128244Y0052610D01*
X0128273Y0052476D01*
X0128299Y0052341D01*
X0128321Y0052206D01*
X0128339Y0052069D01*
X0128353Y0051933D01*
X0128363Y0051796D01*
X0128369Y0051658D01*
X0128371Y0051521D01*
X0128369Y0051384D01*
X0128363Y0051246D01*
X0128353Y0051109D01*
X0128339Y0050973D01*
X0128321Y0050836D01*
X0128299Y0050701D01*
X0128273Y0050566D01*
X0128244Y0050432D01*
X0128210Y0050298D01*
X0128173Y0050166D01*
X0128131Y0050035D01*
X0128086Y0049905D01*
X0128037Y0049777D01*
X0127985Y0049650D01*
X0127928Y0049525D01*
X0127869Y0049401D01*
X0127805Y0049279D01*
X0127738Y0049159D01*
X0127668Y0049041D01*
X0127594Y0048925D01*
X0127517Y0048811D01*
X0127436Y0048700D01*
X0127353Y0048591D01*
X0127266Y0048484D01*
X0127176Y0048381D01*
X0127083Y0048279D01*
X0126987Y0048181D01*
X0126889Y0048085D01*
X0126787Y0047992D01*
X0126684Y0047902D01*
X0126577Y0047815D01*
X0126468Y0047732D01*
X0126357Y0047651D01*
X0126243Y0047574D01*
X0126127Y0047500D01*
X0126009Y0047430D01*
X0125889Y0047363D01*
X0125767Y0047299D01*
X0125643Y0047240D01*
X0125518Y0047183D01*
X0125391Y0047131D01*
X0125263Y0047082D01*
X0125133Y0047037D01*
X0125002Y0046995D01*
X0124870Y0046958D01*
X0124736Y0046924D01*
X0124602Y0046895D01*
X0124467Y0046869D01*
X0124332Y0046847D01*
X0124195Y0046829D01*
X0124059Y0046815D01*
X0123922Y0046805D01*
X0123784Y0046799D01*
X0123647Y0046797D01*
X0123510Y0046799D01*
X0123372Y0046805D01*
X0123235Y0046815D01*
X0123099Y0046829D01*
X0122962Y0046847D01*
X0122827Y0046869D01*
X0122692Y0046895D01*
X0122558Y0046924D01*
X0122424Y0046958D01*
X0122292Y0046995D01*
X0122161Y0047037D01*
X0122031Y0047082D01*
X0121903Y0047131D01*
X0121776Y0047183D01*
X0121651Y0047240D01*
X0121527Y0047299D01*
X0121405Y0047363D01*
X0121285Y0047430D01*
X0121167Y0047500D01*
X0121051Y0047574D01*
X0120937Y0047651D01*
X0120826Y0047732D01*
X0120717Y0047815D01*
X0120610Y0047902D01*
X0120507Y0047992D01*
X0120405Y0048085D01*
X0120307Y0048181D01*
X0120211Y0048279D01*
X0120118Y0048381D01*
X0120028Y0048484D01*
X0119941Y0048591D01*
X0119858Y0048700D01*
X0119777Y0048811D01*
X0119700Y0048925D01*
X0119626Y0049041D01*
X0119556Y0049159D01*
X0119489Y0049279D01*
X0119425Y0049401D01*
X0119366Y0049525D01*
X0119309Y0049650D01*
X0119257Y0049777D01*
X0119208Y0049905D01*
X0119163Y0050035D01*
X0119121Y0050166D01*
X0119084Y0050298D01*
X0119050Y0050432D01*
X0119021Y0050566D01*
X0118995Y0050701D01*
X0118973Y0050836D01*
X0118955Y0050973D01*
X0118941Y0051109D01*
X0118931Y0051246D01*
X0118925Y0051384D01*
X0118923Y0051521D01*
X0134514Y0051521D02*
X0134516Y0051658D01*
X0134522Y0051796D01*
X0134532Y0051933D01*
X0134546Y0052069D01*
X0134564Y0052206D01*
X0134586Y0052341D01*
X0134612Y0052476D01*
X0134641Y0052610D01*
X0134675Y0052744D01*
X0134712Y0052876D01*
X0134754Y0053007D01*
X0134799Y0053137D01*
X0134848Y0053265D01*
X0134900Y0053392D01*
X0134957Y0053517D01*
X0135016Y0053641D01*
X0135080Y0053763D01*
X0135147Y0053883D01*
X0135217Y0054001D01*
X0135291Y0054117D01*
X0135368Y0054231D01*
X0135449Y0054342D01*
X0135532Y0054451D01*
X0135619Y0054558D01*
X0135709Y0054661D01*
X0135802Y0054763D01*
X0135898Y0054861D01*
X0135996Y0054957D01*
X0136098Y0055050D01*
X0136201Y0055140D01*
X0136308Y0055227D01*
X0136417Y0055310D01*
X0136528Y0055391D01*
X0136642Y0055468D01*
X0136758Y0055542D01*
X0136876Y0055612D01*
X0136996Y0055679D01*
X0137118Y0055743D01*
X0137242Y0055802D01*
X0137367Y0055859D01*
X0137494Y0055911D01*
X0137622Y0055960D01*
X0137752Y0056005D01*
X0137883Y0056047D01*
X0138015Y0056084D01*
X0138149Y0056118D01*
X0138283Y0056147D01*
X0138418Y0056173D01*
X0138553Y0056195D01*
X0138690Y0056213D01*
X0138826Y0056227D01*
X0138963Y0056237D01*
X0139101Y0056243D01*
X0139238Y0056245D01*
X0139375Y0056243D01*
X0139513Y0056237D01*
X0139650Y0056227D01*
X0139786Y0056213D01*
X0139923Y0056195D01*
X0140058Y0056173D01*
X0140193Y0056147D01*
X0140327Y0056118D01*
X0140461Y0056084D01*
X0140593Y0056047D01*
X0140724Y0056005D01*
X0140854Y0055960D01*
X0140982Y0055911D01*
X0141109Y0055859D01*
X0141234Y0055802D01*
X0141358Y0055743D01*
X0141480Y0055679D01*
X0141600Y0055612D01*
X0141718Y0055542D01*
X0141834Y0055468D01*
X0141948Y0055391D01*
X0142059Y0055310D01*
X0142168Y0055227D01*
X0142275Y0055140D01*
X0142378Y0055050D01*
X0142480Y0054957D01*
X0142578Y0054861D01*
X0142674Y0054763D01*
X0142767Y0054661D01*
X0142857Y0054558D01*
X0142944Y0054451D01*
X0143027Y0054342D01*
X0143108Y0054231D01*
X0143185Y0054117D01*
X0143259Y0054001D01*
X0143329Y0053883D01*
X0143396Y0053763D01*
X0143460Y0053641D01*
X0143519Y0053517D01*
X0143576Y0053392D01*
X0143628Y0053265D01*
X0143677Y0053137D01*
X0143722Y0053007D01*
X0143764Y0052876D01*
X0143801Y0052744D01*
X0143835Y0052610D01*
X0143864Y0052476D01*
X0143890Y0052341D01*
X0143912Y0052206D01*
X0143930Y0052069D01*
X0143944Y0051933D01*
X0143954Y0051796D01*
X0143960Y0051658D01*
X0143962Y0051521D01*
X0143960Y0051384D01*
X0143954Y0051246D01*
X0143944Y0051109D01*
X0143930Y0050973D01*
X0143912Y0050836D01*
X0143890Y0050701D01*
X0143864Y0050566D01*
X0143835Y0050432D01*
X0143801Y0050298D01*
X0143764Y0050166D01*
X0143722Y0050035D01*
X0143677Y0049905D01*
X0143628Y0049777D01*
X0143576Y0049650D01*
X0143519Y0049525D01*
X0143460Y0049401D01*
X0143396Y0049279D01*
X0143329Y0049159D01*
X0143259Y0049041D01*
X0143185Y0048925D01*
X0143108Y0048811D01*
X0143027Y0048700D01*
X0142944Y0048591D01*
X0142857Y0048484D01*
X0142767Y0048381D01*
X0142674Y0048279D01*
X0142578Y0048181D01*
X0142480Y0048085D01*
X0142378Y0047992D01*
X0142275Y0047902D01*
X0142168Y0047815D01*
X0142059Y0047732D01*
X0141948Y0047651D01*
X0141834Y0047574D01*
X0141718Y0047500D01*
X0141600Y0047430D01*
X0141480Y0047363D01*
X0141358Y0047299D01*
X0141234Y0047240D01*
X0141109Y0047183D01*
X0140982Y0047131D01*
X0140854Y0047082D01*
X0140724Y0047037D01*
X0140593Y0046995D01*
X0140461Y0046958D01*
X0140327Y0046924D01*
X0140193Y0046895D01*
X0140058Y0046869D01*
X0139923Y0046847D01*
X0139786Y0046829D01*
X0139650Y0046815D01*
X0139513Y0046805D01*
X0139375Y0046799D01*
X0139238Y0046797D01*
X0139101Y0046799D01*
X0138963Y0046805D01*
X0138826Y0046815D01*
X0138690Y0046829D01*
X0138553Y0046847D01*
X0138418Y0046869D01*
X0138283Y0046895D01*
X0138149Y0046924D01*
X0138015Y0046958D01*
X0137883Y0046995D01*
X0137752Y0047037D01*
X0137622Y0047082D01*
X0137494Y0047131D01*
X0137367Y0047183D01*
X0137242Y0047240D01*
X0137118Y0047299D01*
X0136996Y0047363D01*
X0136876Y0047430D01*
X0136758Y0047500D01*
X0136642Y0047574D01*
X0136528Y0047651D01*
X0136417Y0047732D01*
X0136308Y0047815D01*
X0136201Y0047902D01*
X0136098Y0047992D01*
X0135996Y0048085D01*
X0135898Y0048181D01*
X0135802Y0048279D01*
X0135709Y0048381D01*
X0135619Y0048484D01*
X0135532Y0048591D01*
X0135449Y0048700D01*
X0135368Y0048811D01*
X0135291Y0048925D01*
X0135217Y0049041D01*
X0135147Y0049159D01*
X0135080Y0049279D01*
X0135016Y0049401D01*
X0134957Y0049525D01*
X0134900Y0049650D01*
X0134848Y0049777D01*
X0134799Y0049905D01*
X0134754Y0050035D01*
X0134712Y0050166D01*
X0134675Y0050298D01*
X0134641Y0050432D01*
X0134612Y0050566D01*
X0134586Y0050701D01*
X0134564Y0050836D01*
X0134546Y0050973D01*
X0134532Y0051109D01*
X0134522Y0051246D01*
X0134516Y0051384D01*
X0134514Y0051521D01*
X0150104Y0051521D02*
X0150106Y0051658D01*
X0150112Y0051796D01*
X0150122Y0051933D01*
X0150136Y0052069D01*
X0150154Y0052206D01*
X0150176Y0052341D01*
X0150202Y0052476D01*
X0150231Y0052610D01*
X0150265Y0052744D01*
X0150302Y0052876D01*
X0150344Y0053007D01*
X0150389Y0053137D01*
X0150438Y0053265D01*
X0150490Y0053392D01*
X0150547Y0053517D01*
X0150606Y0053641D01*
X0150670Y0053763D01*
X0150737Y0053883D01*
X0150807Y0054001D01*
X0150881Y0054117D01*
X0150958Y0054231D01*
X0151039Y0054342D01*
X0151122Y0054451D01*
X0151209Y0054558D01*
X0151299Y0054661D01*
X0151392Y0054763D01*
X0151488Y0054861D01*
X0151586Y0054957D01*
X0151688Y0055050D01*
X0151791Y0055140D01*
X0151898Y0055227D01*
X0152007Y0055310D01*
X0152118Y0055391D01*
X0152232Y0055468D01*
X0152348Y0055542D01*
X0152466Y0055612D01*
X0152586Y0055679D01*
X0152708Y0055743D01*
X0152832Y0055802D01*
X0152957Y0055859D01*
X0153084Y0055911D01*
X0153212Y0055960D01*
X0153342Y0056005D01*
X0153473Y0056047D01*
X0153605Y0056084D01*
X0153739Y0056118D01*
X0153873Y0056147D01*
X0154008Y0056173D01*
X0154143Y0056195D01*
X0154280Y0056213D01*
X0154416Y0056227D01*
X0154553Y0056237D01*
X0154691Y0056243D01*
X0154828Y0056245D01*
X0154965Y0056243D01*
X0155103Y0056237D01*
X0155240Y0056227D01*
X0155376Y0056213D01*
X0155513Y0056195D01*
X0155648Y0056173D01*
X0155783Y0056147D01*
X0155917Y0056118D01*
X0156051Y0056084D01*
X0156183Y0056047D01*
X0156314Y0056005D01*
X0156444Y0055960D01*
X0156572Y0055911D01*
X0156699Y0055859D01*
X0156824Y0055802D01*
X0156948Y0055743D01*
X0157070Y0055679D01*
X0157190Y0055612D01*
X0157308Y0055542D01*
X0157424Y0055468D01*
X0157538Y0055391D01*
X0157649Y0055310D01*
X0157758Y0055227D01*
X0157865Y0055140D01*
X0157968Y0055050D01*
X0158070Y0054957D01*
X0158168Y0054861D01*
X0158264Y0054763D01*
X0158357Y0054661D01*
X0158447Y0054558D01*
X0158534Y0054451D01*
X0158617Y0054342D01*
X0158698Y0054231D01*
X0158775Y0054117D01*
X0158849Y0054001D01*
X0158919Y0053883D01*
X0158986Y0053763D01*
X0159050Y0053641D01*
X0159109Y0053517D01*
X0159166Y0053392D01*
X0159218Y0053265D01*
X0159267Y0053137D01*
X0159312Y0053007D01*
X0159354Y0052876D01*
X0159391Y0052744D01*
X0159425Y0052610D01*
X0159454Y0052476D01*
X0159480Y0052341D01*
X0159502Y0052206D01*
X0159520Y0052069D01*
X0159534Y0051933D01*
X0159544Y0051796D01*
X0159550Y0051658D01*
X0159552Y0051521D01*
X0159550Y0051384D01*
X0159544Y0051246D01*
X0159534Y0051109D01*
X0159520Y0050973D01*
X0159502Y0050836D01*
X0159480Y0050701D01*
X0159454Y0050566D01*
X0159425Y0050432D01*
X0159391Y0050298D01*
X0159354Y0050166D01*
X0159312Y0050035D01*
X0159267Y0049905D01*
X0159218Y0049777D01*
X0159166Y0049650D01*
X0159109Y0049525D01*
X0159050Y0049401D01*
X0158986Y0049279D01*
X0158919Y0049159D01*
X0158849Y0049041D01*
X0158775Y0048925D01*
X0158698Y0048811D01*
X0158617Y0048700D01*
X0158534Y0048591D01*
X0158447Y0048484D01*
X0158357Y0048381D01*
X0158264Y0048279D01*
X0158168Y0048181D01*
X0158070Y0048085D01*
X0157968Y0047992D01*
X0157865Y0047902D01*
X0157758Y0047815D01*
X0157649Y0047732D01*
X0157538Y0047651D01*
X0157424Y0047574D01*
X0157308Y0047500D01*
X0157190Y0047430D01*
X0157070Y0047363D01*
X0156948Y0047299D01*
X0156824Y0047240D01*
X0156699Y0047183D01*
X0156572Y0047131D01*
X0156444Y0047082D01*
X0156314Y0047037D01*
X0156183Y0046995D01*
X0156051Y0046958D01*
X0155917Y0046924D01*
X0155783Y0046895D01*
X0155648Y0046869D01*
X0155513Y0046847D01*
X0155376Y0046829D01*
X0155240Y0046815D01*
X0155103Y0046805D01*
X0154965Y0046799D01*
X0154828Y0046797D01*
X0154691Y0046799D01*
X0154553Y0046805D01*
X0154416Y0046815D01*
X0154280Y0046829D01*
X0154143Y0046847D01*
X0154008Y0046869D01*
X0153873Y0046895D01*
X0153739Y0046924D01*
X0153605Y0046958D01*
X0153473Y0046995D01*
X0153342Y0047037D01*
X0153212Y0047082D01*
X0153084Y0047131D01*
X0152957Y0047183D01*
X0152832Y0047240D01*
X0152708Y0047299D01*
X0152586Y0047363D01*
X0152466Y0047430D01*
X0152348Y0047500D01*
X0152232Y0047574D01*
X0152118Y0047651D01*
X0152007Y0047732D01*
X0151898Y0047815D01*
X0151791Y0047902D01*
X0151688Y0047992D01*
X0151586Y0048085D01*
X0151488Y0048181D01*
X0151392Y0048279D01*
X0151299Y0048381D01*
X0151209Y0048484D01*
X0151122Y0048591D01*
X0151039Y0048700D01*
X0150958Y0048811D01*
X0150881Y0048925D01*
X0150807Y0049041D01*
X0150737Y0049159D01*
X0150670Y0049279D01*
X0150606Y0049401D01*
X0150547Y0049525D01*
X0150490Y0049650D01*
X0150438Y0049777D01*
X0150389Y0049905D01*
X0150344Y0050035D01*
X0150302Y0050166D01*
X0150265Y0050298D01*
X0150231Y0050432D01*
X0150202Y0050566D01*
X0150176Y0050701D01*
X0150154Y0050836D01*
X0150136Y0050973D01*
X0150122Y0051109D01*
X0150112Y0051246D01*
X0150106Y0051384D01*
X0150104Y0051521D01*
X0165695Y0051521D02*
X0165697Y0051658D01*
X0165703Y0051796D01*
X0165713Y0051933D01*
X0165727Y0052069D01*
X0165745Y0052206D01*
X0165767Y0052341D01*
X0165793Y0052476D01*
X0165822Y0052610D01*
X0165856Y0052744D01*
X0165893Y0052876D01*
X0165935Y0053007D01*
X0165980Y0053137D01*
X0166029Y0053265D01*
X0166081Y0053392D01*
X0166138Y0053517D01*
X0166197Y0053641D01*
X0166261Y0053763D01*
X0166328Y0053883D01*
X0166398Y0054001D01*
X0166472Y0054117D01*
X0166549Y0054231D01*
X0166630Y0054342D01*
X0166713Y0054451D01*
X0166800Y0054558D01*
X0166890Y0054661D01*
X0166983Y0054763D01*
X0167079Y0054861D01*
X0167177Y0054957D01*
X0167279Y0055050D01*
X0167382Y0055140D01*
X0167489Y0055227D01*
X0167598Y0055310D01*
X0167709Y0055391D01*
X0167823Y0055468D01*
X0167939Y0055542D01*
X0168057Y0055612D01*
X0168177Y0055679D01*
X0168299Y0055743D01*
X0168423Y0055802D01*
X0168548Y0055859D01*
X0168675Y0055911D01*
X0168803Y0055960D01*
X0168933Y0056005D01*
X0169064Y0056047D01*
X0169196Y0056084D01*
X0169330Y0056118D01*
X0169464Y0056147D01*
X0169599Y0056173D01*
X0169734Y0056195D01*
X0169871Y0056213D01*
X0170007Y0056227D01*
X0170144Y0056237D01*
X0170282Y0056243D01*
X0170419Y0056245D01*
X0170556Y0056243D01*
X0170694Y0056237D01*
X0170831Y0056227D01*
X0170967Y0056213D01*
X0171104Y0056195D01*
X0171239Y0056173D01*
X0171374Y0056147D01*
X0171508Y0056118D01*
X0171642Y0056084D01*
X0171774Y0056047D01*
X0171905Y0056005D01*
X0172035Y0055960D01*
X0172163Y0055911D01*
X0172290Y0055859D01*
X0172415Y0055802D01*
X0172539Y0055743D01*
X0172661Y0055679D01*
X0172781Y0055612D01*
X0172899Y0055542D01*
X0173015Y0055468D01*
X0173129Y0055391D01*
X0173240Y0055310D01*
X0173349Y0055227D01*
X0173456Y0055140D01*
X0173559Y0055050D01*
X0173661Y0054957D01*
X0173759Y0054861D01*
X0173855Y0054763D01*
X0173948Y0054661D01*
X0174038Y0054558D01*
X0174125Y0054451D01*
X0174208Y0054342D01*
X0174289Y0054231D01*
X0174366Y0054117D01*
X0174440Y0054001D01*
X0174510Y0053883D01*
X0174577Y0053763D01*
X0174641Y0053641D01*
X0174700Y0053517D01*
X0174757Y0053392D01*
X0174809Y0053265D01*
X0174858Y0053137D01*
X0174903Y0053007D01*
X0174945Y0052876D01*
X0174982Y0052744D01*
X0175016Y0052610D01*
X0175045Y0052476D01*
X0175071Y0052341D01*
X0175093Y0052206D01*
X0175111Y0052069D01*
X0175125Y0051933D01*
X0175135Y0051796D01*
X0175141Y0051658D01*
X0175143Y0051521D01*
X0175141Y0051384D01*
X0175135Y0051246D01*
X0175125Y0051109D01*
X0175111Y0050973D01*
X0175093Y0050836D01*
X0175071Y0050701D01*
X0175045Y0050566D01*
X0175016Y0050432D01*
X0174982Y0050298D01*
X0174945Y0050166D01*
X0174903Y0050035D01*
X0174858Y0049905D01*
X0174809Y0049777D01*
X0174757Y0049650D01*
X0174700Y0049525D01*
X0174641Y0049401D01*
X0174577Y0049279D01*
X0174510Y0049159D01*
X0174440Y0049041D01*
X0174366Y0048925D01*
X0174289Y0048811D01*
X0174208Y0048700D01*
X0174125Y0048591D01*
X0174038Y0048484D01*
X0173948Y0048381D01*
X0173855Y0048279D01*
X0173759Y0048181D01*
X0173661Y0048085D01*
X0173559Y0047992D01*
X0173456Y0047902D01*
X0173349Y0047815D01*
X0173240Y0047732D01*
X0173129Y0047651D01*
X0173015Y0047574D01*
X0172899Y0047500D01*
X0172781Y0047430D01*
X0172661Y0047363D01*
X0172539Y0047299D01*
X0172415Y0047240D01*
X0172290Y0047183D01*
X0172163Y0047131D01*
X0172035Y0047082D01*
X0171905Y0047037D01*
X0171774Y0046995D01*
X0171642Y0046958D01*
X0171508Y0046924D01*
X0171374Y0046895D01*
X0171239Y0046869D01*
X0171104Y0046847D01*
X0170967Y0046829D01*
X0170831Y0046815D01*
X0170694Y0046805D01*
X0170556Y0046799D01*
X0170419Y0046797D01*
X0170282Y0046799D01*
X0170144Y0046805D01*
X0170007Y0046815D01*
X0169871Y0046829D01*
X0169734Y0046847D01*
X0169599Y0046869D01*
X0169464Y0046895D01*
X0169330Y0046924D01*
X0169196Y0046958D01*
X0169064Y0046995D01*
X0168933Y0047037D01*
X0168803Y0047082D01*
X0168675Y0047131D01*
X0168548Y0047183D01*
X0168423Y0047240D01*
X0168299Y0047299D01*
X0168177Y0047363D01*
X0168057Y0047430D01*
X0167939Y0047500D01*
X0167823Y0047574D01*
X0167709Y0047651D01*
X0167598Y0047732D01*
X0167489Y0047815D01*
X0167382Y0047902D01*
X0167279Y0047992D01*
X0167177Y0048085D01*
X0167079Y0048181D01*
X0166983Y0048279D01*
X0166890Y0048381D01*
X0166800Y0048484D01*
X0166713Y0048591D01*
X0166630Y0048700D01*
X0166549Y0048811D01*
X0166472Y0048925D01*
X0166398Y0049041D01*
X0166328Y0049159D01*
X0166261Y0049279D01*
X0166197Y0049401D01*
X0166138Y0049525D01*
X0166081Y0049650D01*
X0166029Y0049777D01*
X0165980Y0049905D01*
X0165935Y0050035D01*
X0165893Y0050166D01*
X0165856Y0050298D01*
X0165822Y0050432D01*
X0165793Y0050566D01*
X0165767Y0050701D01*
X0165745Y0050836D01*
X0165727Y0050973D01*
X0165713Y0051109D01*
X0165703Y0051246D01*
X0165697Y0051384D01*
X0165695Y0051521D01*
X0181285Y0051521D02*
X0181287Y0051658D01*
X0181293Y0051796D01*
X0181303Y0051933D01*
X0181317Y0052069D01*
X0181335Y0052206D01*
X0181357Y0052341D01*
X0181383Y0052476D01*
X0181412Y0052610D01*
X0181446Y0052744D01*
X0181483Y0052876D01*
X0181525Y0053007D01*
X0181570Y0053137D01*
X0181619Y0053265D01*
X0181671Y0053392D01*
X0181728Y0053517D01*
X0181787Y0053641D01*
X0181851Y0053763D01*
X0181918Y0053883D01*
X0181988Y0054001D01*
X0182062Y0054117D01*
X0182139Y0054231D01*
X0182220Y0054342D01*
X0182303Y0054451D01*
X0182390Y0054558D01*
X0182480Y0054661D01*
X0182573Y0054763D01*
X0182669Y0054861D01*
X0182767Y0054957D01*
X0182869Y0055050D01*
X0182972Y0055140D01*
X0183079Y0055227D01*
X0183188Y0055310D01*
X0183299Y0055391D01*
X0183413Y0055468D01*
X0183529Y0055542D01*
X0183647Y0055612D01*
X0183767Y0055679D01*
X0183889Y0055743D01*
X0184013Y0055802D01*
X0184138Y0055859D01*
X0184265Y0055911D01*
X0184393Y0055960D01*
X0184523Y0056005D01*
X0184654Y0056047D01*
X0184786Y0056084D01*
X0184920Y0056118D01*
X0185054Y0056147D01*
X0185189Y0056173D01*
X0185324Y0056195D01*
X0185461Y0056213D01*
X0185597Y0056227D01*
X0185734Y0056237D01*
X0185872Y0056243D01*
X0186009Y0056245D01*
X0186146Y0056243D01*
X0186284Y0056237D01*
X0186421Y0056227D01*
X0186557Y0056213D01*
X0186694Y0056195D01*
X0186829Y0056173D01*
X0186964Y0056147D01*
X0187098Y0056118D01*
X0187232Y0056084D01*
X0187364Y0056047D01*
X0187495Y0056005D01*
X0187625Y0055960D01*
X0187753Y0055911D01*
X0187880Y0055859D01*
X0188005Y0055802D01*
X0188129Y0055743D01*
X0188251Y0055679D01*
X0188371Y0055612D01*
X0188489Y0055542D01*
X0188605Y0055468D01*
X0188719Y0055391D01*
X0188830Y0055310D01*
X0188939Y0055227D01*
X0189046Y0055140D01*
X0189149Y0055050D01*
X0189251Y0054957D01*
X0189349Y0054861D01*
X0189445Y0054763D01*
X0189538Y0054661D01*
X0189628Y0054558D01*
X0189715Y0054451D01*
X0189798Y0054342D01*
X0189879Y0054231D01*
X0189956Y0054117D01*
X0190030Y0054001D01*
X0190100Y0053883D01*
X0190167Y0053763D01*
X0190231Y0053641D01*
X0190290Y0053517D01*
X0190347Y0053392D01*
X0190399Y0053265D01*
X0190448Y0053137D01*
X0190493Y0053007D01*
X0190535Y0052876D01*
X0190572Y0052744D01*
X0190606Y0052610D01*
X0190635Y0052476D01*
X0190661Y0052341D01*
X0190683Y0052206D01*
X0190701Y0052069D01*
X0190715Y0051933D01*
X0190725Y0051796D01*
X0190731Y0051658D01*
X0190733Y0051521D01*
X0190731Y0051384D01*
X0190725Y0051246D01*
X0190715Y0051109D01*
X0190701Y0050973D01*
X0190683Y0050836D01*
X0190661Y0050701D01*
X0190635Y0050566D01*
X0190606Y0050432D01*
X0190572Y0050298D01*
X0190535Y0050166D01*
X0190493Y0050035D01*
X0190448Y0049905D01*
X0190399Y0049777D01*
X0190347Y0049650D01*
X0190290Y0049525D01*
X0190231Y0049401D01*
X0190167Y0049279D01*
X0190100Y0049159D01*
X0190030Y0049041D01*
X0189956Y0048925D01*
X0189879Y0048811D01*
X0189798Y0048700D01*
X0189715Y0048591D01*
X0189628Y0048484D01*
X0189538Y0048381D01*
X0189445Y0048279D01*
X0189349Y0048181D01*
X0189251Y0048085D01*
X0189149Y0047992D01*
X0189046Y0047902D01*
X0188939Y0047815D01*
X0188830Y0047732D01*
X0188719Y0047651D01*
X0188605Y0047574D01*
X0188489Y0047500D01*
X0188371Y0047430D01*
X0188251Y0047363D01*
X0188129Y0047299D01*
X0188005Y0047240D01*
X0187880Y0047183D01*
X0187753Y0047131D01*
X0187625Y0047082D01*
X0187495Y0047037D01*
X0187364Y0046995D01*
X0187232Y0046958D01*
X0187098Y0046924D01*
X0186964Y0046895D01*
X0186829Y0046869D01*
X0186694Y0046847D01*
X0186557Y0046829D01*
X0186421Y0046815D01*
X0186284Y0046805D01*
X0186146Y0046799D01*
X0186009Y0046797D01*
X0185872Y0046799D01*
X0185734Y0046805D01*
X0185597Y0046815D01*
X0185461Y0046829D01*
X0185324Y0046847D01*
X0185189Y0046869D01*
X0185054Y0046895D01*
X0184920Y0046924D01*
X0184786Y0046958D01*
X0184654Y0046995D01*
X0184523Y0047037D01*
X0184393Y0047082D01*
X0184265Y0047131D01*
X0184138Y0047183D01*
X0184013Y0047240D01*
X0183889Y0047299D01*
X0183767Y0047363D01*
X0183647Y0047430D01*
X0183529Y0047500D01*
X0183413Y0047574D01*
X0183299Y0047651D01*
X0183188Y0047732D01*
X0183079Y0047815D01*
X0182972Y0047902D01*
X0182869Y0047992D01*
X0182767Y0048085D01*
X0182669Y0048181D01*
X0182573Y0048279D01*
X0182480Y0048381D01*
X0182390Y0048484D01*
X0182303Y0048591D01*
X0182220Y0048700D01*
X0182139Y0048811D01*
X0182062Y0048925D01*
X0181988Y0049041D01*
X0181918Y0049159D01*
X0181851Y0049279D01*
X0181787Y0049401D01*
X0181728Y0049525D01*
X0181671Y0049650D01*
X0181619Y0049777D01*
X0181570Y0049905D01*
X0181525Y0050035D01*
X0181483Y0050166D01*
X0181446Y0050298D01*
X0181412Y0050432D01*
X0181383Y0050566D01*
X0181357Y0050701D01*
X0181335Y0050836D01*
X0181317Y0050973D01*
X0181303Y0051109D01*
X0181293Y0051246D01*
X0181287Y0051384D01*
X0181285Y0051521D01*
D12*
X0083372Y0103883D03*
X0076679Y0103883D03*
X0069710Y0112033D03*
X0069710Y0118726D03*
X0044907Y0118726D03*
X0044907Y0112033D03*
X0126009Y0156128D03*
X0126009Y0162820D03*
X0150813Y0162820D03*
X0150813Y0156128D03*
X0157702Y0148844D03*
X0164395Y0148844D03*
D13*
X0089116Y0033937D03*
X0089116Y0026456D03*
X0077584Y0026403D03*
X0077584Y0033883D03*
D14*
X0079474Y0068096D03*
X0089592Y0067978D03*
X0089592Y0079002D03*
X0079474Y0079120D03*
X0158687Y0116167D03*
X0168135Y0116167D03*
X0168135Y0127191D03*
X0158687Y0127191D03*
D15*
X0146088Y0107309D03*
X0146088Y0100616D03*
X0128175Y0146482D03*
X0121482Y0146482D03*
X0134277Y0156128D03*
X0134277Y0162820D03*
X0142545Y0162820D03*
X0142545Y0156128D03*
X0157702Y0157112D03*
X0164395Y0157112D03*
X0083411Y0112226D03*
X0076718Y0112226D03*
X0061443Y0112033D03*
X0061443Y0118726D03*
X0053175Y0118726D03*
X0053175Y0112033D03*
X0048285Y0100092D03*
X0041592Y0100092D03*
X0064628Y0062998D03*
X0064628Y0056305D03*
D16*
X0108057Y0038332D03*
X0123647Y0038332D03*
X0139238Y0038332D03*
X0154789Y0038332D03*
X0170380Y0038332D03*
X0185970Y0038332D03*
D17*
X0185608Y0076757D02*
X0191608Y0076757D01*
X0191608Y0086757D02*
X0185608Y0086757D01*
X0185608Y0102348D02*
X0191608Y0102348D01*
X0191608Y0112348D02*
X0185608Y0112348D01*
X0185608Y0127939D02*
X0191608Y0127939D01*
X0191608Y0137939D02*
X0185608Y0137939D01*
X0185608Y0153529D02*
X0191608Y0153529D01*
X0191608Y0163529D02*
X0185608Y0163529D01*
D18*
X0084750Y0160261D02*
X0064198Y0160498D01*
X0061624Y0159801D01*
X0061624Y0164801D02*
X0061624Y0154801D01*
X0030443Y0154801D02*
X0030443Y0164801D01*
D19*
X0053805Y0095399D03*
X0056364Y0095399D03*
X0058923Y0095399D03*
X0061482Y0095399D03*
X0064041Y0095399D03*
X0066600Y0095399D03*
X0069159Y0095399D03*
X0069159Y0072368D03*
X0066600Y0072368D03*
X0064041Y0072368D03*
X0061482Y0072368D03*
X0058923Y0072368D03*
X0056364Y0072368D03*
X0053805Y0072368D03*
X0134868Y0118431D03*
X0137427Y0118431D03*
X0139986Y0118431D03*
X0142545Y0118431D03*
X0145104Y0118431D03*
X0147663Y0118431D03*
X0150222Y0118431D03*
X0150222Y0141462D03*
X0147663Y0141462D03*
X0145104Y0141462D03*
X0142545Y0141462D03*
X0139986Y0141462D03*
X0137427Y0141462D03*
X0134868Y0141462D03*
D20*
X0142545Y0129946D03*
X0061482Y0083883D03*
D21*
X0108038Y0026555D03*
X0123608Y0026600D03*
X0139277Y0026639D03*
X0154868Y0026836D03*
X0186128Y0026600D03*
D22*
X0125616Y0081915D03*
X0125616Y0103569D03*
X0040970Y0060891D03*
X0040970Y0039238D03*
D23*
X0148254Y0073844D03*
X0155734Y0073844D03*
X0155734Y0083687D03*
X0148254Y0083687D03*
X0168726Y0026009D03*
X0176206Y0026009D03*
D24*
X0100340Y0155537D02*
X0100340Y0164986D01*
X0084750Y0164986D02*
X0084750Y0155537D01*
D25*
X0139395Y0121128D02*
X0139395Y0111679D01*
X0143135Y0111679D01*
X0143135Y0121128D01*
X0139395Y0121128D01*
X0139395Y0120975D02*
X0143135Y0120975D01*
X0143135Y0120176D02*
X0139395Y0120176D01*
X0139395Y0119378D02*
X0143135Y0119378D01*
X0143135Y0118579D02*
X0139395Y0118579D01*
X0139395Y0117781D02*
X0143135Y0117781D01*
X0143135Y0116982D02*
X0139395Y0116982D01*
X0139395Y0116184D02*
X0143135Y0116184D01*
X0143135Y0115385D02*
X0139395Y0115385D01*
X0139395Y0114587D02*
X0143135Y0114587D01*
X0143135Y0113788D02*
X0139395Y0113788D01*
X0139395Y0112990D02*
X0143135Y0112990D01*
X0143135Y0112191D02*
X0139395Y0112191D01*
X0095301Y0074435D02*
X0095301Y0052683D01*
X0067939Y0052683D01*
X0067939Y0064691D01*
X0067596Y0064855D01*
X0067596Y0065577D01*
X0067010Y0066163D01*
X0066042Y0066163D01*
X0065950Y0074435D01*
X0095301Y0074435D01*
X0095301Y0073863D02*
X0065957Y0073863D01*
X0065872Y0073863D02*
X0070498Y0073863D01*
X0070498Y0074661D02*
X0065872Y0074661D01*
X0065872Y0074828D02*
X0070498Y0074828D01*
X0070498Y0066265D01*
X0065872Y0066265D01*
X0065872Y0074828D01*
X0065872Y0073064D02*
X0070498Y0073064D01*
X0070498Y0072266D02*
X0065872Y0072266D01*
X0065975Y0072266D02*
X0095301Y0072266D01*
X0095301Y0073064D02*
X0065966Y0073064D01*
X0065983Y0071467D02*
X0095301Y0071467D01*
X0095301Y0070669D02*
X0065992Y0070669D01*
X0065872Y0070669D02*
X0070498Y0070669D01*
X0070498Y0071467D02*
X0065872Y0071467D01*
X0065872Y0069870D02*
X0070498Y0069870D01*
X0070498Y0069072D02*
X0065872Y0069072D01*
X0066010Y0069072D02*
X0095301Y0069072D01*
X0095301Y0069870D02*
X0066001Y0069870D01*
X0066019Y0068273D02*
X0095301Y0068273D01*
X0095301Y0067475D02*
X0066028Y0067475D01*
X0065872Y0067475D02*
X0070498Y0067475D01*
X0070498Y0068273D02*
X0065872Y0068273D01*
X0065872Y0066676D02*
X0070498Y0066676D01*
X0067596Y0065079D02*
X0095301Y0065079D01*
X0095301Y0064280D02*
X0067939Y0064280D01*
X0067939Y0063482D02*
X0095301Y0063482D01*
X0095301Y0062683D02*
X0067939Y0062683D01*
X0067939Y0061885D02*
X0095301Y0061885D01*
X0095301Y0061086D02*
X0067939Y0061086D01*
X0067939Y0060288D02*
X0095301Y0060288D01*
X0095301Y0059489D02*
X0067939Y0059489D01*
X0067939Y0058691D02*
X0095301Y0058691D01*
X0095301Y0057892D02*
X0067939Y0057892D01*
X0067939Y0057094D02*
X0095301Y0057094D01*
X0095301Y0056295D02*
X0067939Y0056295D01*
X0067939Y0055497D02*
X0095301Y0055497D01*
X0095301Y0054698D02*
X0067939Y0054698D01*
X0067939Y0053900D02*
X0095301Y0053900D01*
X0095301Y0053101D02*
X0067939Y0053101D01*
X0064986Y0053101D02*
X0027456Y0053101D01*
X0027461Y0052303D02*
X0064986Y0052303D01*
X0064986Y0051600D02*
X0064986Y0059432D01*
X0062079Y0059432D01*
X0061259Y0060252D01*
X0061259Y0065743D01*
X0062041Y0066525D01*
X0062041Y0067348D01*
X0050616Y0067348D01*
X0048844Y0068962D01*
X0032899Y0068962D01*
X0027387Y0063450D01*
X0027466Y0051600D01*
X0064986Y0051600D01*
X0064986Y0053900D02*
X0027451Y0053900D01*
X0027446Y0054698D02*
X0064986Y0054698D01*
X0064986Y0055497D02*
X0027440Y0055497D01*
X0027435Y0056295D02*
X0064986Y0056295D01*
X0064986Y0057094D02*
X0027430Y0057094D01*
X0027424Y0057892D02*
X0064986Y0057892D01*
X0064986Y0058691D02*
X0027419Y0058691D01*
X0027414Y0059489D02*
X0062022Y0059489D01*
X0061259Y0060288D02*
X0027408Y0060288D01*
X0027403Y0061086D02*
X0061259Y0061086D01*
X0061259Y0061885D02*
X0027398Y0061885D01*
X0027393Y0062683D02*
X0061259Y0062683D01*
X0061259Y0063482D02*
X0027419Y0063482D01*
X0028218Y0064280D02*
X0061259Y0064280D01*
X0061259Y0065079D02*
X0029016Y0065079D01*
X0029815Y0065878D02*
X0061394Y0065878D01*
X0061659Y0065577D02*
X0061659Y0065419D01*
X0058490Y0065419D01*
X0058490Y0074868D01*
X0062033Y0074868D01*
X0062033Y0065951D01*
X0061659Y0065577D01*
X0061959Y0065878D02*
X0058490Y0065878D01*
X0058490Y0066676D02*
X0062033Y0066676D01*
X0062041Y0066676D02*
X0030613Y0066676D01*
X0031412Y0067475D02*
X0050477Y0067475D01*
X0049600Y0068273D02*
X0032210Y0068273D01*
X0051600Y0069218D02*
X0051600Y0077584D01*
X0056620Y0077584D01*
X0056620Y0069218D01*
X0051600Y0069218D01*
X0051600Y0069870D02*
X0056620Y0069870D01*
X0056620Y0070669D02*
X0051600Y0070669D01*
X0051600Y0071467D02*
X0056620Y0071467D01*
X0056620Y0072266D02*
X0051600Y0072266D01*
X0051600Y0073064D02*
X0056620Y0073064D01*
X0056620Y0073863D02*
X0051600Y0073863D01*
X0051600Y0074661D02*
X0056620Y0074661D01*
X0056620Y0075460D02*
X0051600Y0075460D01*
X0051600Y0076258D02*
X0056620Y0076258D01*
X0056620Y0077057D02*
X0051600Y0077057D01*
X0058490Y0074661D02*
X0062033Y0074661D01*
X0062033Y0073863D02*
X0058490Y0073863D01*
X0058490Y0073064D02*
X0062033Y0073064D01*
X0062033Y0072266D02*
X0058490Y0072266D01*
X0058490Y0071467D02*
X0062033Y0071467D01*
X0062033Y0070669D02*
X0058490Y0070669D01*
X0058490Y0069870D02*
X0062033Y0069870D01*
X0062033Y0069072D02*
X0058490Y0069072D01*
X0058490Y0068273D02*
X0062033Y0068273D01*
X0062033Y0067475D02*
X0058490Y0067475D01*
X0066037Y0066676D02*
X0095301Y0066676D01*
X0095301Y0065878D02*
X0067296Y0065878D01*
D26*
X0068238Y0066899D02*
X0066694Y0067946D01*
X0066600Y0070155D01*
X0066600Y0072368D01*
X0068285Y0068911D02*
X0069088Y0068167D01*
X0064628Y0062998D02*
X0064041Y0062427D01*
X0061037Y0074446D02*
X0059813Y0074446D01*
X0069159Y0095399D02*
X0070911Y0097151D01*
X0073126Y0097111D01*
X0076679Y0103883D02*
X0077820Y0103844D01*
X0076797Y0104946D02*
X0076797Y0112935D01*
X0076718Y0112226D02*
X0076131Y0112033D01*
X0069710Y0112033D01*
X0083411Y0112226D02*
X0083505Y0113273D01*
X0083505Y0105325D01*
X0083372Y0103883D01*
X0083372Y0097545D01*
X0083096Y0097269D01*
X0053175Y0112033D02*
X0053131Y0113145D01*
X0164395Y0148844D02*
X0176246Y0148844D01*
X0176268Y0148842D01*
X0176290Y0148838D01*
X0176311Y0148830D01*
X0176331Y0148819D01*
X0176349Y0148806D01*
X0176365Y0148790D01*
X0176378Y0148772D01*
X0176389Y0148752D01*
X0176397Y0148731D01*
X0176401Y0148709D01*
X0176403Y0148687D01*
X0176403Y0144058D02*
X0176401Y0144023D01*
X0176396Y0143989D01*
X0176387Y0143955D01*
X0176374Y0143923D01*
X0176359Y0143892D01*
X0176340Y0143863D01*
X0176318Y0143836D01*
X0176293Y0143811D01*
X0176266Y0143789D01*
X0176237Y0143770D01*
X0176206Y0143755D01*
X0176174Y0143742D01*
X0176140Y0143733D01*
X0176106Y0143728D01*
X0176071Y0143726D01*
D27*
X0145301Y0132939D03*
X0142545Y0132939D03*
X0139789Y0132939D03*
X0139789Y0129986D03*
X0142545Y0129986D03*
X0145301Y0129986D03*
X0145301Y0127033D03*
X0142545Y0127033D03*
X0139789Y0127033D03*
X0064198Y0086876D03*
X0061443Y0086876D03*
X0061443Y0083923D03*
X0064198Y0083923D03*
X0064198Y0080970D03*
X0061443Y0080970D03*
X0058687Y0080970D03*
X0058687Y0083923D03*
X0058687Y0086876D03*
D28*
X0067230Y0105458D03*
X0053175Y0107545D03*
X0049852Y0124734D03*
X0049852Y0129458D03*
X0038041Y0129458D03*
X0038041Y0124734D03*
X0019513Y0119317D03*
X0019513Y0133096D03*
X0019513Y0146876D03*
X0019513Y0160655D03*
X0019513Y0170498D03*
X0019513Y0180340D03*
X0033293Y0180340D03*
X0047072Y0180340D03*
X0060852Y0180340D03*
X0074631Y0180340D03*
X0088411Y0180340D03*
X0102191Y0180340D03*
X0115970Y0180340D03*
X0129750Y0180340D03*
X0143529Y0180340D03*
X0157309Y0180340D03*
X0171088Y0180340D03*
X0184868Y0180340D03*
X0195301Y0180340D03*
X0198057Y0172860D03*
X0198057Y0164592D03*
X0198057Y0150813D03*
X0198057Y0137033D03*
X0198057Y0123254D03*
X0198057Y0109474D03*
X0198057Y0095694D03*
X0198057Y0081915D03*
X0198057Y0068135D03*
X0198057Y0054356D03*
X0198057Y0040576D03*
X0198057Y0026797D03*
X0184671Y0020301D03*
X0170891Y0020301D03*
X0163450Y0028765D03*
X0162348Y0035143D03*
X0162466Y0044002D03*
X0173923Y0033883D03*
X0157112Y0020301D03*
X0144080Y0028765D03*
X0146757Y0035222D03*
X0146836Y0044080D03*
X0128490Y0028765D03*
X0129553Y0020301D03*
X0143332Y0020301D03*
X0115773Y0020301D03*
X0114868Y0028765D03*
X0101246Y0028765D03*
X0101994Y0020301D03*
X0088214Y0020301D03*
X0074435Y0020301D03*
X0060655Y0020301D03*
X0046876Y0020301D03*
X0033096Y0020301D03*
X0019513Y0022860D03*
X0019513Y0036639D03*
X0019513Y0050419D03*
X0019513Y0064198D03*
X0019513Y0091757D03*
X0019513Y0105537D03*
X0061663Y0124734D03*
X0061663Y0129458D03*
X0073474Y0129458D03*
X0073474Y0124340D03*
X0085285Y0124340D03*
X0085285Y0129458D03*
X0049750Y0155576D03*
X0137387Y0065931D03*
X0146836Y0061797D03*
X0154986Y0063096D03*
X0162466Y0061718D03*
X0162860Y0073726D03*
X0162860Y0079631D03*
X0162860Y0083569D03*
X0162860Y0089474D03*
D29*
X0020097Y0019079D02*
X0018268Y0020680D01*
X0017022Y0022768D01*
X0016484Y0025139D01*
X0016494Y0025981D01*
X0016511Y0026023D01*
X0016511Y0026499D01*
X0016554Y0026973D01*
X0016511Y0027111D01*
X0016511Y0073938D01*
X0017108Y0072497D01*
X0019722Y0069883D01*
X0023137Y0068469D01*
X0026834Y0068469D01*
X0030250Y0069883D01*
X0032864Y0072497D01*
X0034279Y0075913D01*
X0034279Y0079610D01*
X0032864Y0083025D01*
X0030250Y0085640D01*
X0026834Y0087054D01*
X0023137Y0087054D01*
X0019722Y0085640D01*
X0017108Y0083025D01*
X0016511Y0081585D01*
X0016511Y0177971D01*
X0016664Y0178768D01*
X0017413Y0180425D01*
X0018638Y0181769D01*
X0020218Y0182669D01*
X0022000Y0183036D01*
X0022564Y0183018D01*
X0022637Y0182988D01*
X0023082Y0182988D01*
X0023524Y0182939D01*
X0023694Y0182988D01*
X0192545Y0182988D01*
X0193600Y0182905D01*
X0195606Y0182253D01*
X0197313Y0181013D01*
X0198553Y0179307D01*
X0199204Y0177300D01*
X0199287Y0176246D01*
X0199287Y0024671D01*
X0199204Y0023616D01*
X0198553Y0021610D01*
X0197313Y0019903D01*
X0195606Y0018663D01*
X0193600Y0018011D01*
X0192545Y0017928D01*
X0023460Y0017928D01*
X0022332Y0018121D01*
X0020097Y0019079D01*
X0020828Y0018765D02*
X0195746Y0018765D01*
X0197357Y0019964D02*
X0019086Y0019964D01*
X0017980Y0021162D02*
X0198227Y0021162D01*
X0198797Y0022361D02*
X0187130Y0022361D01*
X0186983Y0022300D02*
X0188563Y0022955D01*
X0189773Y0024164D01*
X0190428Y0025745D01*
X0190428Y0027455D01*
X0189773Y0029036D01*
X0189370Y0029439D01*
X0189370Y0034520D01*
X0191070Y0036220D01*
X0191070Y0040445D01*
X0188083Y0043432D01*
X0183858Y0043432D01*
X0180870Y0040445D01*
X0180870Y0036220D01*
X0182570Y0034520D01*
X0182570Y0029124D01*
X0182482Y0029036D01*
X0182471Y0029009D01*
X0180565Y0029009D01*
X0180565Y0029708D01*
X0179511Y0030762D01*
X0172902Y0030762D01*
X0172325Y0030185D01*
X0172267Y0030243D01*
X0171903Y0030453D01*
X0171496Y0030562D01*
X0169326Y0030562D01*
X0169326Y0026609D01*
X0168126Y0026609D01*
X0168126Y0025409D01*
X0169326Y0025409D01*
X0169326Y0021457D01*
X0171496Y0021457D01*
X0171903Y0021566D01*
X0172267Y0021776D01*
X0172325Y0021834D01*
X0172902Y0021257D01*
X0179511Y0021257D01*
X0180565Y0022311D01*
X0180565Y0023009D01*
X0183637Y0023009D01*
X0183692Y0022955D01*
X0185272Y0022300D01*
X0186983Y0022300D01*
X0185125Y0022361D02*
X0180565Y0022361D01*
X0180565Y0029552D02*
X0182570Y0029552D01*
X0182570Y0030750D02*
X0179523Y0030750D01*
X0182570Y0031949D02*
X0139531Y0031949D01*
X0139531Y0031978D02*
X0139061Y0033114D01*
X0138742Y0033432D01*
X0138834Y0033432D01*
X0138834Y0037928D01*
X0139642Y0037928D01*
X0139642Y0038736D01*
X0144138Y0038736D01*
X0144138Y0040362D01*
X0141267Y0043232D01*
X0139642Y0043232D01*
X0139642Y0038736D01*
X0138834Y0038736D01*
X0138834Y0043232D01*
X0137208Y0043232D01*
X0135102Y0041126D01*
X0135102Y0045306D01*
X0137781Y0044197D01*
X0140695Y0044197D01*
X0143387Y0045312D01*
X0145447Y0047372D01*
X0146562Y0050064D01*
X0146562Y0052978D01*
X0145447Y0055670D01*
X0143387Y0057731D01*
X0140695Y0058846D01*
X0137781Y0058846D01*
X0135102Y0057736D01*
X0135102Y0068491D01*
X0149213Y0068491D01*
X0149666Y0068482D01*
X0149690Y0068491D01*
X0149715Y0068491D01*
X0150134Y0068665D01*
X0150555Y0068829D01*
X0150574Y0068847D01*
X0150597Y0068857D01*
X0150832Y0069091D01*
X0151558Y0069091D01*
X0152135Y0069668D01*
X0152192Y0069611D01*
X0152557Y0069400D01*
X0152964Y0069291D01*
X0155134Y0069291D01*
X0155134Y0073244D01*
X0156334Y0073244D01*
X0156334Y0074444D01*
X0159893Y0074444D01*
X0159893Y0077007D01*
X0159784Y0077414D01*
X0159573Y0077779D01*
X0159275Y0078077D01*
X0158910Y0078288D01*
X0158504Y0078397D01*
X0156334Y0078397D01*
X0156334Y0074444D01*
X0155134Y0074444D01*
X0155134Y0078397D01*
X0152964Y0078397D01*
X0152557Y0078288D01*
X0152192Y0078077D01*
X0152135Y0078020D01*
X0151791Y0078364D01*
X0151808Y0079183D01*
X0152135Y0079511D01*
X0152192Y0079454D01*
X0152557Y0079243D01*
X0152964Y0079134D01*
X0155134Y0079134D01*
X0155134Y0083087D01*
X0156334Y0083087D01*
X0156334Y0084287D01*
X0155134Y0084287D01*
X0155134Y0088239D01*
X0152964Y0088239D01*
X0152557Y0088130D01*
X0152397Y0088038D01*
X0155931Y0091572D01*
X0163687Y0091572D01*
X0163725Y0091557D01*
X0164631Y0091572D01*
X0165538Y0091572D01*
X0165575Y0091587D01*
X0165615Y0091588D01*
X0166447Y0091948D01*
X0167284Y0092295D01*
X0167313Y0092324D01*
X0167350Y0092340D01*
X0167980Y0092991D01*
X0168621Y0093632D01*
X0168637Y0093670D01*
X0179792Y0105196D01*
X0180432Y0105837D01*
X0180448Y0105874D01*
X0180476Y0105903D01*
X0180809Y0106747D01*
X0181156Y0107584D01*
X0181156Y0107624D01*
X0181171Y0107662D01*
X0181156Y0108568D01*
X0181156Y0111164D01*
X0181345Y0110582D01*
X0181674Y0109937D01*
X0182099Y0109351D01*
X0182611Y0108839D01*
X0183197Y0108414D01*
X0183842Y0108085D01*
X0184531Y0107861D01*
X0185246Y0107748D01*
X0188208Y0107748D01*
X0188208Y0111948D01*
X0189008Y0111948D01*
X0189008Y0112748D01*
X0196202Y0112748D01*
X0196095Y0113425D01*
X0195871Y0114114D01*
X0195542Y0114759D01*
X0195117Y0115345D01*
X0194605Y0115857D01*
X0194019Y0116282D01*
X0193374Y0116611D01*
X0192685Y0116835D01*
X0191970Y0116948D01*
X0189008Y0116948D01*
X0189008Y0112748D01*
X0188208Y0112748D01*
X0188208Y0116948D01*
X0185246Y0116948D01*
X0184531Y0116835D01*
X0183842Y0116611D01*
X0183197Y0116282D01*
X0182611Y0115857D01*
X0182099Y0115345D01*
X0181674Y0114759D01*
X0181345Y0114114D01*
X0181156Y0113532D01*
X0181156Y0122001D01*
X0182341Y0123186D01*
X0184539Y0123186D01*
X0184653Y0123139D01*
X0192563Y0123139D01*
X0194327Y0123869D01*
X0195677Y0125220D01*
X0196408Y0126984D01*
X0196408Y0128893D01*
X0195677Y0130658D01*
X0194327Y0132008D01*
X0192563Y0132739D01*
X0184653Y0132739D01*
X0184539Y0132691D01*
X0181156Y0132691D01*
X0181156Y0136754D01*
X0181345Y0136173D01*
X0181674Y0135528D01*
X0182099Y0134942D01*
X0182611Y0134430D01*
X0183197Y0134004D01*
X0183842Y0133676D01*
X0184531Y0133452D01*
X0185246Y0133339D01*
X0188208Y0133339D01*
X0188208Y0137538D01*
X0189008Y0137538D01*
X0189008Y0133339D01*
X0191970Y0133339D01*
X0192685Y0133452D01*
X0193374Y0133676D01*
X0194019Y0134004D01*
X0194605Y0134430D01*
X0195117Y0134942D01*
X0195542Y0135528D01*
X0195871Y0136173D01*
X0196095Y0136861D01*
X0196202Y0137539D01*
X0189008Y0137539D01*
X0189008Y0138339D01*
X0188208Y0138339D01*
X0188208Y0142539D01*
X0185246Y0142539D01*
X0184531Y0142425D01*
X0183842Y0142202D01*
X0183197Y0141873D01*
X0182611Y0141447D01*
X0182099Y0140935D01*
X0181674Y0140349D01*
X0181345Y0139704D01*
X0181156Y0139123D01*
X0181156Y0146718D01*
X0183096Y0148658D01*
X0189435Y0148658D01*
X0189606Y0148729D01*
X0192563Y0148729D01*
X0194327Y0149460D01*
X0195677Y0150810D01*
X0196408Y0152574D01*
X0196408Y0154484D01*
X0195677Y0156248D01*
X0194327Y0157598D01*
X0192563Y0158329D01*
X0184653Y0158329D01*
X0184254Y0158164D01*
X0180182Y0158164D01*
X0178435Y0157440D01*
X0177098Y0156103D01*
X0172439Y0151444D01*
X0168361Y0151444D01*
X0168361Y0151558D01*
X0168248Y0151671D01*
X0168248Y0160634D01*
X0167721Y0161161D01*
X0154578Y0161161D01*
X0154578Y0162436D01*
X0151197Y0162436D01*
X0151197Y0163205D01*
X0150428Y0163205D01*
X0150428Y0162436D01*
X0147047Y0162436D01*
X0147047Y0160641D01*
X0147156Y0160234D01*
X0147367Y0159870D01*
X0147496Y0159741D01*
X0145848Y0159766D01*
X0146004Y0160038D01*
X0146113Y0160444D01*
X0146113Y0162436D01*
X0142929Y0162436D01*
X0142929Y0163205D01*
X0142161Y0163205D01*
X0142161Y0166586D01*
X0140366Y0166586D01*
X0139959Y0166477D01*
X0139594Y0166266D01*
X0139296Y0165968D01*
X0139085Y0165603D01*
X0138976Y0165196D01*
X0138976Y0163205D01*
X0142161Y0163205D01*
X0142161Y0162436D01*
X0138976Y0162436D01*
X0138976Y0160444D01*
X0139085Y0160038D01*
X0139183Y0159869D01*
X0137653Y0159893D01*
X0137737Y0160038D01*
X0137846Y0160444D01*
X0137846Y0162436D01*
X0134661Y0162436D01*
X0134661Y0163205D01*
X0133893Y0163205D01*
X0133893Y0166586D01*
X0132098Y0166586D01*
X0131691Y0166477D01*
X0131326Y0166266D01*
X0131028Y0165968D01*
X0130818Y0165603D01*
X0130709Y0165196D01*
X0130709Y0163205D01*
X0133893Y0163205D01*
X0133893Y0162436D01*
X0130709Y0162436D01*
X0130709Y0162035D01*
X0130370Y0162374D01*
X0130444Y0165628D01*
X0130453Y0165637D01*
X0130453Y0165999D01*
X0130461Y0166362D01*
X0130453Y0166370D01*
X0130453Y0166382D01*
X0130197Y0166638D01*
X0129946Y0166901D01*
X0129934Y0166901D01*
X0129926Y0166909D01*
X0129563Y0166909D01*
X0129201Y0166918D01*
X0129192Y0166909D01*
X0121306Y0166909D01*
X0120779Y0166382D01*
X0120779Y0151949D01*
X0118156Y0151949D01*
X0117629Y0151422D01*
X0117629Y0149571D01*
X0117521Y0149571D01*
X0116386Y0149101D01*
X0115517Y0148232D01*
X0115046Y0147096D01*
X0115046Y0145867D01*
X0115517Y0144732D01*
X0116386Y0143863D01*
X0117521Y0143393D01*
X0117629Y0143393D01*
X0117629Y0142954D01*
X0117627Y0142952D01*
X0117629Y0142582D01*
X0117629Y0142211D01*
X0117631Y0142209D01*
X0117631Y0142206D01*
X0117894Y0141946D01*
X0118156Y0141684D01*
X0118159Y0141684D01*
X0118162Y0141682D01*
X0118532Y0141684D01*
X0118902Y0141684D01*
X0118904Y0141686D01*
X0132377Y0141767D01*
X0132377Y0137840D01*
X0133432Y0136786D01*
X0138863Y0136786D01*
X0139067Y0136990D01*
X0139085Y0136986D01*
X0139986Y0136986D01*
X0140887Y0136986D01*
X0140904Y0136990D01*
X0141109Y0136786D01*
X0151658Y0136786D01*
X0152713Y0137840D01*
X0152713Y0142654D01*
X0171650Y0142654D01*
X0171650Y0131940D01*
X0168735Y0131940D01*
X0168735Y0127791D01*
X0167535Y0127791D01*
X0167535Y0131940D01*
X0164381Y0131940D01*
X0163975Y0131831D01*
X0163610Y0131620D01*
X0163411Y0131422D01*
X0163212Y0131620D01*
X0162847Y0131831D01*
X0162441Y0131940D01*
X0159287Y0131940D01*
X0159287Y0127791D01*
X0158087Y0127791D01*
X0158087Y0131940D01*
X0154933Y0131940D01*
X0154526Y0131831D01*
X0154161Y0131620D01*
X0153863Y0131323D01*
X0153652Y0130958D01*
X0153543Y0130551D01*
X0153543Y0127791D01*
X0158087Y0127791D01*
X0158087Y0126591D01*
X0153543Y0126591D01*
X0153543Y0123830D01*
X0153652Y0123423D01*
X0153729Y0123291D01*
X0146595Y0123291D01*
X0146150Y0123107D01*
X0144267Y0123107D01*
X0144047Y0123328D01*
X0138484Y0123328D01*
X0138064Y0122907D01*
X0137427Y0122907D01*
X0137427Y0122270D01*
X0137427Y0122907D01*
X0136526Y0122907D01*
X0136147Y0122806D01*
X0135769Y0122907D01*
X0134868Y0122907D01*
X0134868Y0118431D01*
X0134868Y0118431D01*
X0137195Y0118431D01*
X0137195Y0118431D01*
X0135136Y0118431D01*
X0134868Y0118431D01*
X0134868Y0118431D01*
X0134868Y0122907D01*
X0133967Y0122907D01*
X0133560Y0122798D01*
X0133195Y0122587D01*
X0132897Y0122290D01*
X0132686Y0121925D01*
X0132577Y0121518D01*
X0132577Y0118431D01*
X0134868Y0118431D01*
X0134868Y0118431D01*
X0132577Y0118431D01*
X0132577Y0115344D01*
X0132663Y0115024D01*
X0113721Y0115024D01*
X0112839Y0114658D01*
X0112164Y0113983D01*
X0111798Y0113101D01*
X0111798Y0095414D01*
X0112164Y0094532D01*
X0112839Y0093857D01*
X0113721Y0093491D01*
X0144408Y0093491D01*
X0143499Y0092583D01*
X0113721Y0092583D01*
X0112839Y0092217D01*
X0112164Y0091542D01*
X0111798Y0090660D01*
X0111798Y0057899D01*
X0109514Y0058846D01*
X0106600Y0058846D01*
X0103908Y0057731D01*
X0101847Y0055670D01*
X0100732Y0052978D01*
X0100732Y0051047D01*
X0096777Y0051047D01*
X0097501Y0051771D01*
X0097501Y0075346D01*
X0096212Y0076635D01*
X0094735Y0076635D01*
X0094735Y0078402D01*
X0090192Y0078402D01*
X0090192Y0079602D01*
X0088992Y0079602D01*
X0088992Y0083751D01*
X0085838Y0083751D01*
X0085431Y0083642D01*
X0085066Y0083431D01*
X0084769Y0083134D01*
X0084558Y0082769D01*
X0084549Y0082735D01*
X0084508Y0082887D01*
X0084298Y0083252D01*
X0084000Y0083550D01*
X0083635Y0083760D01*
X0083228Y0083869D01*
X0080074Y0083869D01*
X0080074Y0079720D01*
X0078874Y0079720D01*
X0078874Y0083869D01*
X0075720Y0083869D01*
X0075313Y0083760D01*
X0074948Y0083550D01*
X0074650Y0083252D01*
X0074440Y0082887D01*
X0074331Y0082480D01*
X0074331Y0079720D01*
X0078874Y0079720D01*
X0078874Y0078520D01*
X0074331Y0078520D01*
X0074331Y0076635D01*
X0071803Y0076635D01*
X0071409Y0077028D01*
X0070611Y0077028D01*
X0070595Y0077044D01*
X0062968Y0077044D01*
X0062944Y0077068D01*
X0057578Y0077068D01*
X0057555Y0077044D01*
X0057487Y0077044D01*
X0057282Y0076840D01*
X0057265Y0076844D01*
X0056364Y0076844D01*
X0056364Y0075853D01*
X0056364Y0075853D01*
X0056364Y0076844D01*
X0055463Y0076844D01*
X0055084Y0076743D01*
X0054706Y0076844D01*
X0053805Y0076844D01*
X0053805Y0072368D01*
X0053805Y0072368D01*
X0056290Y0072368D01*
X0056290Y0072368D01*
X0054073Y0072368D01*
X0053805Y0072368D01*
X0053805Y0072368D01*
X0053805Y0076844D01*
X0052904Y0076844D01*
X0052497Y0076735D01*
X0052132Y0076524D01*
X0051834Y0076227D01*
X0051623Y0075862D01*
X0051514Y0075455D01*
X0051514Y0072368D01*
X0053805Y0072368D01*
X0053805Y0072368D01*
X0051514Y0072368D01*
X0051514Y0069548D01*
X0051468Y0069548D01*
X0050364Y0070554D01*
X0049755Y0071162D01*
X0049696Y0071162D01*
X0049652Y0071202D01*
X0048793Y0071162D01*
X0031988Y0071162D01*
X0026470Y0065644D01*
X0026462Y0065644D01*
X0025827Y0065001D01*
X0025187Y0064362D01*
X0025187Y0064353D01*
X0025181Y0064347D01*
X0025187Y0063443D01*
X0025187Y0062539D01*
X0025193Y0062533D01*
X0025266Y0051592D01*
X0025266Y0050689D01*
X0025272Y0050683D01*
X0025272Y0050674D01*
X0025639Y0050312D01*
X0025333Y0050007D01*
X0025328Y0049995D01*
X0025319Y0049985D01*
X0025146Y0049554D01*
X0024968Y0049125D01*
X0024968Y0049112D01*
X0024963Y0049100D01*
X0024968Y0048634D01*
X0024968Y0048170D01*
X0024973Y0048158D01*
X0025165Y0029737D01*
X0025165Y0029272D01*
X0025170Y0029260D01*
X0025170Y0029247D01*
X0025352Y0028820D01*
X0025530Y0028390D01*
X0025539Y0028381D01*
X0025544Y0028369D01*
X0025876Y0028044D01*
X0026205Y0027715D01*
X0026217Y0027710D01*
X0026226Y0027701D01*
X0026658Y0027527D01*
X0027087Y0027350D01*
X0027100Y0027350D01*
X0027112Y0027345D01*
X0027577Y0027350D01*
X0073031Y0027350D01*
X0073031Y0027003D01*
X0076984Y0027003D01*
X0076984Y0025803D01*
X0073031Y0025803D01*
X0073031Y0023633D01*
X0073141Y0023227D01*
X0073351Y0022862D01*
X0073649Y0022564D01*
X0074014Y0022353D01*
X0074421Y0022244D01*
X0076984Y0022244D01*
X0076984Y0025803D01*
X0078184Y0025803D01*
X0078184Y0022244D01*
X0080748Y0022244D01*
X0081155Y0022353D01*
X0081519Y0022564D01*
X0081817Y0022862D01*
X0082028Y0023227D01*
X0082137Y0023633D01*
X0082137Y0025803D01*
X0078184Y0025803D01*
X0078184Y0027003D01*
X0082137Y0027003D01*
X0082137Y0027350D01*
X0084563Y0027350D01*
X0084563Y0027056D01*
X0088516Y0027056D01*
X0088516Y0025856D01*
X0089716Y0025856D01*
X0089716Y0022297D01*
X0092280Y0022297D01*
X0092686Y0022406D01*
X0093051Y0022617D01*
X0093349Y0022915D01*
X0093560Y0023280D01*
X0093669Y0023687D01*
X0093669Y0025856D01*
X0089716Y0025856D01*
X0089716Y0027056D01*
X0093669Y0027056D01*
X0093669Y0027350D01*
X0103738Y0027350D01*
X0103738Y0025699D01*
X0104392Y0024119D01*
X0105602Y0022909D01*
X0107182Y0022255D01*
X0108893Y0022255D01*
X0110474Y0022909D01*
X0111683Y0024119D01*
X0112338Y0025699D01*
X0112338Y0027350D01*
X0112510Y0027350D01*
X0112522Y0027355D01*
X0112535Y0027355D01*
X0112963Y0027537D01*
X0113393Y0027715D01*
X0113402Y0027724D01*
X0113414Y0027729D01*
X0113739Y0028061D01*
X0114068Y0028390D01*
X0114073Y0028402D01*
X0114082Y0028411D01*
X0114255Y0028843D01*
X0114433Y0029272D01*
X0114433Y0029285D01*
X0114438Y0029297D01*
X0114433Y0029763D01*
X0114433Y0030227D01*
X0114428Y0030239D01*
X0114415Y0031483D01*
X0120247Y0031483D01*
X0120247Y0029320D01*
X0119963Y0029036D01*
X0119308Y0027455D01*
X0119308Y0025745D01*
X0119963Y0024164D01*
X0121172Y0022955D01*
X0122753Y0022300D01*
X0124463Y0022300D01*
X0126044Y0022955D01*
X0127253Y0024164D01*
X0127908Y0025745D01*
X0127908Y0027455D01*
X0127253Y0029036D01*
X0127047Y0029242D01*
X0127047Y0031483D01*
X0133180Y0031483D01*
X0133354Y0031555D01*
X0133354Y0030749D01*
X0133443Y0030535D01*
X0133443Y0028877D01*
X0133899Y0027775D01*
X0134977Y0026697D01*
X0134977Y0025784D01*
X0135632Y0024204D01*
X0136841Y0022994D01*
X0138422Y0022339D01*
X0140132Y0022339D01*
X0141713Y0022994D01*
X0142923Y0024204D01*
X0143577Y0025784D01*
X0143577Y0027495D01*
X0142923Y0029075D01*
X0141713Y0030285D01*
X0140132Y0030939D01*
X0139531Y0030939D01*
X0139531Y0031978D01*
X0139027Y0033147D02*
X0182570Y0033147D01*
X0182570Y0034346D02*
X0173323Y0034346D01*
X0172409Y0033432D02*
X0175280Y0036303D01*
X0175280Y0037928D01*
X0170784Y0037928D01*
X0170784Y0038736D01*
X0175280Y0038736D01*
X0175280Y0040362D01*
X0172409Y0043232D01*
X0170783Y0043232D01*
X0170783Y0038736D01*
X0169976Y0038736D01*
X0169976Y0043232D01*
X0168350Y0043232D01*
X0165480Y0040362D01*
X0165480Y0038736D01*
X0169976Y0038736D01*
X0169976Y0037928D01*
X0170783Y0037928D01*
X0170783Y0033432D01*
X0172409Y0033432D01*
X0170783Y0034346D02*
X0169976Y0034346D01*
X0169976Y0033432D02*
X0169976Y0037928D01*
X0165480Y0037928D01*
X0165480Y0036303D01*
X0168350Y0033432D01*
X0169976Y0033432D01*
X0169976Y0035545D02*
X0170783Y0035545D01*
X0170783Y0036743D02*
X0169976Y0036743D01*
X0169976Y0037942D02*
X0155193Y0037942D01*
X0155193Y0037928D02*
X0155193Y0038736D01*
X0159689Y0038736D01*
X0159689Y0040362D01*
X0156819Y0043232D01*
X0155193Y0043232D01*
X0155193Y0038736D01*
X0154385Y0038736D01*
X0154385Y0037928D01*
X0155193Y0037928D01*
X0155193Y0033432D01*
X0156819Y0033432D01*
X0159689Y0036303D01*
X0159689Y0037928D01*
X0155193Y0037928D01*
X0154385Y0037928D02*
X0154385Y0033432D01*
X0152759Y0033432D01*
X0149889Y0036303D01*
X0149889Y0037928D01*
X0154385Y0037928D01*
X0154385Y0037942D02*
X0139642Y0037942D01*
X0139642Y0037928D02*
X0144138Y0037928D01*
X0144138Y0036303D01*
X0141267Y0033432D01*
X0139642Y0033432D01*
X0139642Y0037928D01*
X0139642Y0036743D02*
X0138834Y0036743D01*
X0138834Y0035545D02*
X0139642Y0035545D01*
X0139642Y0034346D02*
X0138834Y0034346D01*
X0140589Y0030750D02*
X0153647Y0030750D01*
X0153908Y0030835D02*
X0153294Y0030636D01*
X0152719Y0030343D01*
X0152197Y0029964D01*
X0151740Y0029507D01*
X0151361Y0028985D01*
X0151068Y0028410D01*
X0150869Y0027796D01*
X0150812Y0027436D01*
X0154268Y0027436D01*
X0154268Y0026236D01*
X0155468Y0026236D01*
X0155468Y0027436D01*
X0158924Y0027436D01*
X0158867Y0027796D01*
X0158667Y0028410D01*
X0158374Y0028985D01*
X0157995Y0029507D01*
X0157539Y0029964D01*
X0157017Y0030343D01*
X0156442Y0030636D01*
X0155828Y0030835D01*
X0155468Y0030892D01*
X0155468Y0027436D01*
X0154268Y0027436D01*
X0154268Y0030892D01*
X0153908Y0030835D01*
X0154268Y0030750D02*
X0155468Y0030750D01*
X0156089Y0030750D02*
X0172890Y0030750D01*
X0169326Y0029552D02*
X0168126Y0029552D01*
X0168126Y0030562D02*
X0165956Y0030562D01*
X0165549Y0030453D01*
X0165184Y0030243D01*
X0164887Y0029945D01*
X0164676Y0029580D01*
X0164567Y0029173D01*
X0164567Y0026609D01*
X0168126Y0026609D01*
X0168126Y0030562D01*
X0168126Y0028353D02*
X0169326Y0028353D01*
X0169326Y0027155D02*
X0168126Y0027155D01*
X0168126Y0025956D02*
X0158879Y0025956D01*
X0158867Y0025876D02*
X0158924Y0026236D01*
X0155468Y0026236D01*
X0155468Y0022780D01*
X0155828Y0022837D01*
X0156442Y0023037D01*
X0157017Y0023330D01*
X0157539Y0023709D01*
X0157995Y0024165D01*
X0158374Y0024687D01*
X0158667Y0025262D01*
X0158867Y0025876D01*
X0158410Y0024758D02*
X0164567Y0024758D01*
X0164567Y0025409D02*
X0164567Y0022846D01*
X0164676Y0022439D01*
X0164887Y0022074D01*
X0165184Y0021776D01*
X0165549Y0021566D01*
X0165956Y0021457D01*
X0168126Y0021457D01*
X0168126Y0025409D01*
X0164567Y0025409D01*
X0164567Y0027155D02*
X0155468Y0027155D01*
X0155468Y0028353D02*
X0154268Y0028353D01*
X0154268Y0027155D02*
X0143577Y0027155D01*
X0143577Y0025956D02*
X0150856Y0025956D01*
X0150869Y0025876D02*
X0151068Y0025262D01*
X0151361Y0024687D01*
X0151740Y0024165D01*
X0152197Y0023709D01*
X0152719Y0023330D01*
X0153294Y0023037D01*
X0153908Y0022837D01*
X0154268Y0022780D01*
X0154268Y0026236D01*
X0150812Y0026236D01*
X0150869Y0025876D01*
X0151325Y0024758D02*
X0143152Y0024758D01*
X0142278Y0023559D02*
X0152403Y0023559D01*
X0154268Y0023559D02*
X0155468Y0023559D01*
X0155468Y0024758D02*
X0154268Y0024758D01*
X0154268Y0025956D02*
X0155468Y0025956D01*
X0157333Y0023559D02*
X0164567Y0023559D01*
X0164721Y0022361D02*
X0140184Y0022361D01*
X0138370Y0022361D02*
X0124610Y0022361D01*
X0122606Y0022361D02*
X0109149Y0022361D01*
X0106926Y0022361D02*
X0092517Y0022361D01*
X0093635Y0023559D02*
X0104952Y0023559D01*
X0104128Y0024758D02*
X0093669Y0024758D01*
X0093669Y0027155D02*
X0103738Y0027155D01*
X0103738Y0025956D02*
X0089716Y0025956D01*
X0089716Y0024758D02*
X0088516Y0024758D01*
X0088516Y0025856D02*
X0088516Y0022297D01*
X0085953Y0022297D01*
X0085546Y0022406D01*
X0085181Y0022617D01*
X0084883Y0022915D01*
X0084672Y0023280D01*
X0084563Y0023687D01*
X0084563Y0025856D01*
X0088516Y0025856D01*
X0088516Y0025956D02*
X0078184Y0025956D01*
X0078184Y0024758D02*
X0076984Y0024758D01*
X0076984Y0025956D02*
X0016493Y0025956D01*
X0016511Y0027155D02*
X0073031Y0027155D01*
X0073031Y0024758D02*
X0016570Y0024758D01*
X0016843Y0023559D02*
X0073051Y0023559D01*
X0074000Y0022361D02*
X0017265Y0022361D01*
X0016511Y0028353D02*
X0025560Y0028353D01*
X0025165Y0029552D02*
X0016511Y0029552D01*
X0016511Y0030750D02*
X0025154Y0030750D01*
X0025142Y0031949D02*
X0016511Y0031949D01*
X0016511Y0033147D02*
X0025129Y0033147D01*
X0025117Y0034346D02*
X0016511Y0034346D01*
X0016511Y0035545D02*
X0025104Y0035545D01*
X0025092Y0036743D02*
X0016511Y0036743D01*
X0016511Y0037942D02*
X0025079Y0037942D01*
X0025067Y0039140D02*
X0016511Y0039140D01*
X0016511Y0040339D02*
X0025054Y0040339D01*
X0025042Y0041537D02*
X0016511Y0041537D01*
X0016511Y0042736D02*
X0025029Y0042736D01*
X0025017Y0043934D02*
X0016511Y0043934D01*
X0016511Y0045133D02*
X0025004Y0045133D01*
X0024992Y0046331D02*
X0016511Y0046331D01*
X0016511Y0047530D02*
X0024979Y0047530D01*
X0024967Y0048728D02*
X0016511Y0048728D01*
X0016511Y0049927D02*
X0025295Y0049927D01*
X0025266Y0051125D02*
X0016511Y0051125D01*
X0016511Y0052324D02*
X0025261Y0052324D01*
X0025253Y0053522D02*
X0016511Y0053522D01*
X0016511Y0054721D02*
X0025245Y0054721D01*
X0025237Y0055919D02*
X0016511Y0055919D01*
X0016511Y0057118D02*
X0025229Y0057118D01*
X0025221Y0058316D02*
X0016511Y0058316D01*
X0016511Y0059515D02*
X0025213Y0059515D01*
X0025206Y0060713D02*
X0016511Y0060713D01*
X0016511Y0061912D02*
X0025198Y0061912D01*
X0025187Y0063110D02*
X0016511Y0063110D01*
X0016511Y0064309D02*
X0025182Y0064309D01*
X0026326Y0065507D02*
X0016511Y0065507D01*
X0016511Y0066706D02*
X0027532Y0066706D01*
X0028730Y0067904D02*
X0016511Y0067904D01*
X0016511Y0069103D02*
X0021606Y0069103D01*
X0019304Y0070301D02*
X0016511Y0070301D01*
X0016511Y0071500D02*
X0018105Y0071500D01*
X0017024Y0072698D02*
X0016511Y0072698D01*
X0016511Y0073897D02*
X0016528Y0073897D01*
X0016511Y0082286D02*
X0016802Y0082286D01*
X0016511Y0083485D02*
X0017567Y0083485D01*
X0016511Y0084683D02*
X0018766Y0084683D01*
X0020307Y0085882D02*
X0016511Y0085882D01*
X0016511Y0087080D02*
X0055335Y0087080D01*
X0055335Y0085882D02*
X0029665Y0085882D01*
X0031206Y0084683D02*
X0055335Y0084683D01*
X0055335Y0084483D02*
X0060882Y0084483D01*
X0060882Y0083283D01*
X0062082Y0083283D01*
X0062082Y0077441D01*
X0066240Y0077441D01*
X0066647Y0077550D01*
X0067012Y0077761D01*
X0067309Y0078059D01*
X0067520Y0078423D01*
X0067629Y0078830D01*
X0067629Y0083283D01*
X0062082Y0083283D01*
X0062082Y0084483D01*
X0067629Y0084483D01*
X0067629Y0088937D01*
X0067520Y0089344D01*
X0067309Y0089708D01*
X0067012Y0090006D01*
X0066647Y0090217D01*
X0066240Y0090326D01*
X0062082Y0090326D01*
X0062082Y0084484D01*
X0060882Y0084484D01*
X0060882Y0090326D01*
X0056724Y0090326D01*
X0056317Y0090217D01*
X0055952Y0090006D01*
X0055654Y0089708D01*
X0055444Y0089344D01*
X0055335Y0088937D01*
X0055335Y0084483D01*
X0055335Y0083283D02*
X0055335Y0078830D01*
X0055444Y0078423D01*
X0055654Y0078059D01*
X0055952Y0077761D01*
X0056317Y0077550D01*
X0056724Y0077441D01*
X0060882Y0077441D01*
X0060882Y0083283D01*
X0055335Y0083283D01*
X0055335Y0082286D02*
X0033170Y0082286D01*
X0033666Y0081088D02*
X0055335Y0081088D01*
X0055335Y0079889D02*
X0034163Y0079889D01*
X0034279Y0078691D02*
X0055372Y0078691D01*
X0056532Y0077492D02*
X0034279Y0077492D01*
X0034279Y0076294D02*
X0051901Y0076294D01*
X0051514Y0075095D02*
X0033940Y0075095D01*
X0033444Y0073897D02*
X0051514Y0073897D01*
X0051514Y0072698D02*
X0032947Y0072698D01*
X0031866Y0071500D02*
X0051514Y0071500D01*
X0051514Y0070301D02*
X0050641Y0070301D01*
X0053805Y0072698D02*
X0053805Y0072698D01*
X0053805Y0073897D02*
X0053805Y0073897D01*
X0053805Y0075095D02*
X0053805Y0075095D01*
X0053805Y0076294D02*
X0053805Y0076294D01*
X0056364Y0076294D02*
X0056364Y0076294D01*
X0060882Y0077492D02*
X0062082Y0077492D01*
X0062082Y0078691D02*
X0060882Y0078691D01*
X0060882Y0079889D02*
X0062082Y0079889D01*
X0062082Y0081088D02*
X0060882Y0081088D01*
X0060882Y0082286D02*
X0062082Y0082286D01*
X0062082Y0083485D02*
X0074884Y0083485D01*
X0074331Y0082286D02*
X0067629Y0082286D01*
X0067629Y0081088D02*
X0074331Y0081088D01*
X0074331Y0079889D02*
X0067629Y0079889D01*
X0067592Y0078691D02*
X0078874Y0078691D01*
X0078874Y0079889D02*
X0080074Y0079889D01*
X0080074Y0079720D02*
X0084449Y0079720D01*
X0084449Y0079602D01*
X0088992Y0079602D01*
X0088992Y0078402D01*
X0084617Y0078402D01*
X0084617Y0078520D01*
X0080074Y0078520D01*
X0080074Y0079720D01*
X0080074Y0078691D02*
X0088992Y0078691D01*
X0088992Y0079889D02*
X0090192Y0079889D01*
X0090192Y0079602D02*
X0090192Y0083751D01*
X0093346Y0083751D01*
X0093753Y0083642D01*
X0094118Y0083431D01*
X0094416Y0083134D01*
X0094626Y0082769D01*
X0094735Y0082362D01*
X0094735Y0079602D01*
X0090192Y0079602D01*
X0090192Y0078691D02*
X0111798Y0078691D01*
X0111798Y0079889D02*
X0094735Y0079889D01*
X0094735Y0081088D02*
X0111798Y0081088D01*
X0111798Y0082286D02*
X0094735Y0082286D01*
X0094025Y0083485D02*
X0111798Y0083485D01*
X0111798Y0084683D02*
X0067629Y0084683D01*
X0067629Y0085882D02*
X0111798Y0085882D01*
X0111798Y0087080D02*
X0067629Y0087080D01*
X0067629Y0088279D02*
X0111798Y0088279D01*
X0111798Y0089478D02*
X0067443Y0089478D01*
X0070595Y0090723D02*
X0071650Y0091777D01*
X0071650Y0094060D01*
X0072453Y0093727D01*
X0073799Y0093727D01*
X0075043Y0094242D01*
X0075995Y0095194D01*
X0076510Y0096438D01*
X0076510Y0096763D01*
X0079712Y0096763D01*
X0079712Y0096596D01*
X0080227Y0095352D01*
X0081179Y0094400D01*
X0082423Y0093885D01*
X0083769Y0093885D01*
X0085013Y0094400D01*
X0085965Y0095352D01*
X0086480Y0096596D01*
X0086480Y0096763D01*
X0086618Y0096763D01*
X0087146Y0097290D01*
X0087146Y0100978D01*
X0087337Y0101169D01*
X0087337Y0106598D01*
X0087146Y0106789D01*
X0087146Y0109281D01*
X0087180Y0109315D01*
X0087180Y0115137D01*
X0087146Y0115171D01*
X0087146Y0115752D01*
X0086618Y0116280D01*
X0074256Y0116280D01*
X0074217Y0116319D01*
X0074209Y0116319D01*
X0074203Y0116325D01*
X0073837Y0116319D01*
X0073471Y0116319D01*
X0073465Y0116313D01*
X0073413Y0116312D01*
X0073476Y0116547D01*
X0073476Y0118342D01*
X0070095Y0118342D01*
X0070095Y0119110D01*
X0073476Y0119110D01*
X0073476Y0120905D01*
X0073367Y0121312D01*
X0073156Y0121677D01*
X0072858Y0121975D01*
X0072493Y0122185D01*
X0072086Y0122294D01*
X0070094Y0122294D01*
X0070094Y0119110D01*
X0069326Y0119110D01*
X0069326Y0118342D01*
X0065945Y0118342D01*
X0065945Y0116547D01*
X0066039Y0116197D01*
X0064965Y0116180D01*
X0065011Y0116350D01*
X0065011Y0118342D01*
X0061827Y0118342D01*
X0061827Y0119110D01*
X0065011Y0119110D01*
X0065011Y0121102D01*
X0064902Y0121509D01*
X0064691Y0121874D01*
X0064393Y0122172D01*
X0064029Y0122382D01*
X0063622Y0122491D01*
X0061827Y0122491D01*
X0061827Y0119110D01*
X0061058Y0119110D01*
X0061058Y0118342D01*
X0057874Y0118342D01*
X0057874Y0116350D01*
X0057949Y0116070D01*
X0056663Y0116050D01*
X0056743Y0116350D01*
X0056743Y0118342D01*
X0053559Y0118342D01*
X0053559Y0119110D01*
X0056743Y0119110D01*
X0056743Y0121102D01*
X0056634Y0121509D01*
X0056424Y0121874D01*
X0056126Y0122172D01*
X0055761Y0122382D01*
X0055354Y0122491D01*
X0053559Y0122491D01*
X0053559Y0119110D01*
X0052791Y0119110D01*
X0052791Y0122491D01*
X0050996Y0122491D01*
X0050589Y0122382D01*
X0050224Y0122172D01*
X0049926Y0121874D01*
X0049715Y0121509D01*
X0049606Y0121102D01*
X0049606Y0119110D01*
X0052790Y0119110D01*
X0052790Y0118342D01*
X0049606Y0118342D01*
X0049606Y0118075D01*
X0049539Y0118130D01*
X0049476Y0122242D01*
X0049478Y0122606D01*
X0049471Y0122614D01*
X0049471Y0122624D01*
X0049210Y0122877D01*
X0048954Y0123136D01*
X0048943Y0123136D01*
X0048935Y0123143D01*
X0048572Y0123138D01*
X0040981Y0123177D01*
X0040949Y0123209D01*
X0040626Y0123209D01*
X0040305Y0123244D01*
X0040261Y0123209D01*
X0040204Y0123209D01*
X0039975Y0122980D01*
X0039723Y0122779D01*
X0039717Y0122722D01*
X0039676Y0122681D01*
X0039676Y0122358D01*
X0039641Y0122038D01*
X0039676Y0121993D01*
X0039676Y0105886D01*
X0037763Y0105886D01*
X0037235Y0105359D01*
X0037235Y0103508D01*
X0037206Y0103508D01*
X0036071Y0103038D01*
X0035202Y0102169D01*
X0034731Y0101033D01*
X0034731Y0099804D01*
X0035202Y0098669D01*
X0036071Y0097800D01*
X0037206Y0097330D01*
X0037235Y0097330D01*
X0037235Y0096210D01*
X0037232Y0095841D01*
X0037235Y0095838D01*
X0037235Y0095834D01*
X0037496Y0095573D01*
X0037755Y0095309D01*
X0037760Y0095309D01*
X0037763Y0095306D01*
X0038131Y0095306D01*
X0051314Y0095197D01*
X0051314Y0091777D01*
X0052369Y0090723D01*
X0057800Y0090723D01*
X0058005Y0090927D01*
X0058022Y0090923D01*
X0058923Y0090923D01*
X0059824Y0090923D01*
X0059841Y0090927D01*
X0060046Y0090723D01*
X0070595Y0090723D01*
X0071650Y0091875D02*
X0112496Y0091875D01*
X0111805Y0090676D02*
X0016511Y0090676D01*
X0016511Y0089478D02*
X0055521Y0089478D01*
X0055335Y0088279D02*
X0016511Y0088279D01*
X0016511Y0091875D02*
X0051314Y0091875D01*
X0051314Y0093073D02*
X0016511Y0093073D01*
X0016511Y0094272D02*
X0051314Y0094272D01*
X0058923Y0093427D02*
X0058923Y0090923D01*
X0058923Y0093426D01*
X0058923Y0093427D01*
X0058923Y0093073D02*
X0058923Y0093073D01*
X0058923Y0091875D02*
X0058923Y0091875D01*
X0060882Y0089478D02*
X0062082Y0089478D01*
X0062082Y0088279D02*
X0060882Y0088279D01*
X0060882Y0087080D02*
X0062082Y0087080D01*
X0062082Y0085882D02*
X0060882Y0085882D01*
X0060882Y0084683D02*
X0062082Y0084683D01*
X0060882Y0083485D02*
X0032404Y0083485D01*
X0037597Y0095470D02*
X0016511Y0095470D01*
X0016511Y0096669D02*
X0037235Y0096669D01*
X0036004Y0097867D02*
X0016511Y0097867D01*
X0016511Y0099066D02*
X0035038Y0099066D01*
X0034731Y0100264D02*
X0016511Y0100264D01*
X0016511Y0101463D02*
X0034909Y0101463D01*
X0035694Y0102661D02*
X0016511Y0102661D01*
X0016511Y0103860D02*
X0037235Y0103860D01*
X0037235Y0105058D02*
X0016511Y0105058D01*
X0016511Y0106257D02*
X0039676Y0106257D01*
X0039676Y0107455D02*
X0016511Y0107455D01*
X0016511Y0108654D02*
X0039676Y0108654D01*
X0039676Y0109852D02*
X0016511Y0109852D01*
X0016511Y0111051D02*
X0039676Y0111051D01*
X0039676Y0112249D02*
X0016511Y0112249D01*
X0016511Y0113448D02*
X0039676Y0113448D01*
X0039676Y0114646D02*
X0016511Y0114646D01*
X0016511Y0115845D02*
X0039676Y0115845D01*
X0039676Y0117043D02*
X0016511Y0117043D01*
X0016511Y0118242D02*
X0039676Y0118242D01*
X0039676Y0119440D02*
X0016511Y0119440D01*
X0016511Y0120639D02*
X0039676Y0120639D01*
X0039676Y0121837D02*
X0016511Y0121837D01*
X0016511Y0123036D02*
X0040031Y0123036D01*
X0049053Y0123036D02*
X0138192Y0123036D01*
X0137624Y0123036D02*
X0133490Y0123036D01*
X0133490Y0123254D02*
X0133490Y0114986D01*
X0137624Y0114986D01*
X0137624Y0123254D01*
X0133490Y0123254D01*
X0133490Y0121837D02*
X0137624Y0121837D01*
X0137427Y0122270D02*
X0137427Y0122270D01*
X0137787Y0123504D02*
X0141945Y0123504D01*
X0141945Y0129346D01*
X0143145Y0129346D01*
X0143145Y0123504D01*
X0147303Y0123504D01*
X0147710Y0123613D01*
X0148075Y0123824D01*
X0148372Y0124122D01*
X0148583Y0124486D01*
X0148692Y0124893D01*
X0148692Y0129346D01*
X0143145Y0129346D01*
X0143145Y0130546D01*
X0148692Y0130546D01*
X0148692Y0135000D01*
X0148583Y0135407D01*
X0148372Y0135771D01*
X0148075Y0136069D01*
X0147710Y0136280D01*
X0147303Y0136389D01*
X0143145Y0136389D01*
X0143145Y0130546D01*
X0141945Y0130546D01*
X0141945Y0129346D01*
X0136398Y0129346D01*
X0136398Y0124893D01*
X0136507Y0124486D01*
X0136717Y0124122D01*
X0137015Y0123824D01*
X0137380Y0123613D01*
X0137787Y0123504D01*
X0136652Y0124234D02*
X0016511Y0124234D01*
X0016511Y0125433D02*
X0136398Y0125433D01*
X0136398Y0126631D02*
X0016511Y0126631D01*
X0016511Y0127830D02*
X0136398Y0127830D01*
X0136398Y0129028D02*
X0016511Y0129028D01*
X0016511Y0130227D02*
X0141945Y0130227D01*
X0141945Y0130546D02*
X0136398Y0130546D01*
X0136398Y0135000D01*
X0136507Y0135407D01*
X0136717Y0135771D01*
X0137015Y0136069D01*
X0137380Y0136280D01*
X0137787Y0136389D01*
X0141945Y0136389D01*
X0141945Y0130546D01*
X0141945Y0131425D02*
X0143145Y0131425D01*
X0143145Y0130227D02*
X0153543Y0130227D01*
X0153543Y0129028D02*
X0148692Y0129028D01*
X0148692Y0127830D02*
X0153543Y0127830D01*
X0153543Y0125433D02*
X0148692Y0125433D01*
X0148692Y0126631D02*
X0158087Y0126631D01*
X0158087Y0126591D02*
X0159287Y0126591D01*
X0159287Y0127791D01*
X0162992Y0127791D01*
X0167535Y0127791D01*
X0167535Y0126591D01*
X0159287Y0126591D01*
X0159287Y0122441D01*
X0162441Y0122441D01*
X0162847Y0122550D01*
X0163212Y0122761D01*
X0163411Y0122959D01*
X0163610Y0122761D01*
X0163975Y0122550D01*
X0164381Y0122441D01*
X0167535Y0122441D01*
X0167535Y0126591D01*
X0168735Y0126591D01*
X0168735Y0122441D01*
X0171650Y0122441D01*
X0171650Y0121117D01*
X0163847Y0121117D01*
X0163411Y0120681D01*
X0162976Y0121117D01*
X0157740Y0121117D01*
X0157740Y0121369D01*
X0157375Y0122251D01*
X0157185Y0122441D01*
X0158087Y0122441D01*
X0158087Y0126591D01*
X0158087Y0125433D02*
X0159287Y0125433D01*
X0159287Y0126631D02*
X0167535Y0126631D01*
X0167535Y0125433D02*
X0168735Y0125433D01*
X0168735Y0124234D02*
X0167535Y0124234D01*
X0167535Y0123036D02*
X0168735Y0123036D01*
X0171650Y0121837D02*
X0157546Y0121837D01*
X0158087Y0123036D02*
X0159287Y0123036D01*
X0159287Y0124234D02*
X0158087Y0124234D01*
X0155340Y0120891D02*
X0155340Y0115380D01*
X0171285Y0115380D01*
X0171285Y0110891D01*
X0170891Y0110498D01*
X0162033Y0101403D01*
X0149631Y0101403D01*
X0149631Y0111049D01*
X0147072Y0111049D01*
X0147072Y0120891D01*
X0155340Y0120891D01*
X0155340Y0120639D02*
X0147072Y0120639D01*
X0147072Y0119440D02*
X0155340Y0119440D01*
X0155340Y0118242D02*
X0147072Y0118242D01*
X0147072Y0117043D02*
X0155340Y0117043D01*
X0155340Y0115845D02*
X0147072Y0115845D01*
X0147072Y0114646D02*
X0171285Y0114646D01*
X0171285Y0113448D02*
X0147072Y0113448D01*
X0147072Y0112249D02*
X0171285Y0112249D01*
X0171285Y0111051D02*
X0147072Y0111051D01*
X0149631Y0109852D02*
X0170263Y0109852D01*
X0169095Y0108654D02*
X0149631Y0108654D01*
X0149631Y0107455D02*
X0167928Y0107455D01*
X0166761Y0106257D02*
X0149631Y0106257D01*
X0149631Y0105058D02*
X0165593Y0105058D01*
X0164426Y0103860D02*
X0149631Y0103860D01*
X0149631Y0102661D02*
X0163258Y0102661D01*
X0162091Y0101463D02*
X0149631Y0101463D01*
X0147269Y0101463D02*
X0114198Y0101463D01*
X0114198Y0102661D02*
X0147269Y0102661D01*
X0147269Y0103175D02*
X0147269Y0095891D01*
X0114198Y0095891D01*
X0114198Y0112624D01*
X0142939Y0112624D01*
X0142939Y0109990D01*
X0142920Y0109971D01*
X0142920Y0104646D01*
X0142939Y0104627D01*
X0142939Y0103175D01*
X0147269Y0103175D01*
X0147269Y0100264D02*
X0114198Y0100264D01*
X0114198Y0099066D02*
X0147269Y0099066D01*
X0147269Y0097867D02*
X0114198Y0097867D01*
X0114198Y0096669D02*
X0147269Y0096669D01*
X0143989Y0093073D02*
X0071650Y0093073D01*
X0075072Y0094272D02*
X0081490Y0094272D01*
X0080178Y0095470D02*
X0076109Y0095470D01*
X0076510Y0096669D02*
X0079712Y0096669D01*
X0084702Y0094272D02*
X0112424Y0094272D01*
X0111798Y0095470D02*
X0086014Y0095470D01*
X0086480Y0096669D02*
X0111798Y0096669D01*
X0111798Y0097867D02*
X0087146Y0097867D01*
X0087146Y0099066D02*
X0111798Y0099066D01*
X0111798Y0100264D02*
X0087146Y0100264D01*
X0087337Y0101463D02*
X0111798Y0101463D01*
X0111798Y0102661D02*
X0087337Y0102661D01*
X0087337Y0103860D02*
X0111798Y0103860D01*
X0111798Y0105058D02*
X0087337Y0105058D01*
X0087337Y0106257D02*
X0111798Y0106257D01*
X0111798Y0107455D02*
X0087146Y0107455D01*
X0087146Y0108654D02*
X0111798Y0108654D01*
X0111798Y0109852D02*
X0087180Y0109852D01*
X0087180Y0111051D02*
X0111798Y0111051D01*
X0111798Y0112249D02*
X0087180Y0112249D01*
X0087180Y0113448D02*
X0111942Y0113448D01*
X0112827Y0114646D02*
X0087180Y0114646D01*
X0087053Y0115845D02*
X0132577Y0115845D01*
X0133490Y0115845D02*
X0137624Y0115845D01*
X0137624Y0117043D02*
X0133490Y0117043D01*
X0132577Y0117043D02*
X0073476Y0117043D01*
X0073476Y0118242D02*
X0132577Y0118242D01*
X0133490Y0118242D02*
X0137624Y0118242D01*
X0137624Y0119440D02*
X0133490Y0119440D01*
X0132577Y0119440D02*
X0073476Y0119440D01*
X0073476Y0120639D02*
X0132577Y0120639D01*
X0133490Y0120639D02*
X0137624Y0120639D01*
X0134868Y0120639D02*
X0134868Y0120639D01*
X0134868Y0121837D02*
X0134868Y0121837D01*
X0132663Y0121837D02*
X0072995Y0121837D01*
X0070094Y0121837D02*
X0069326Y0121837D01*
X0069326Y0122294D02*
X0067334Y0122294D01*
X0066927Y0122185D01*
X0066562Y0121975D01*
X0066265Y0121677D01*
X0066054Y0121312D01*
X0065945Y0120905D01*
X0065945Y0119110D01*
X0069326Y0119110D01*
X0069326Y0122294D01*
X0069326Y0120639D02*
X0070094Y0120639D01*
X0070094Y0119440D02*
X0069326Y0119440D01*
X0065945Y0119440D02*
X0065011Y0119440D01*
X0065011Y0118242D02*
X0065945Y0118242D01*
X0065945Y0117043D02*
X0065011Y0117043D01*
X0061827Y0119440D02*
X0061058Y0119440D01*
X0061058Y0119110D02*
X0061058Y0122491D01*
X0059263Y0122491D01*
X0058856Y0122382D01*
X0058492Y0122172D01*
X0058194Y0121874D01*
X0057983Y0121509D01*
X0057874Y0121102D01*
X0057874Y0119110D01*
X0061058Y0119110D01*
X0061058Y0120639D02*
X0061827Y0120639D01*
X0061827Y0121837D02*
X0061058Y0121837D01*
X0064712Y0121837D02*
X0066425Y0121837D01*
X0065945Y0120639D02*
X0065011Y0120639D01*
X0058173Y0121837D02*
X0056445Y0121837D01*
X0056743Y0120639D02*
X0057874Y0120639D01*
X0057874Y0119440D02*
X0056743Y0119440D01*
X0056743Y0118242D02*
X0057874Y0118242D01*
X0057874Y0117043D02*
X0056743Y0117043D01*
X0053559Y0119440D02*
X0052791Y0119440D01*
X0052791Y0120639D02*
X0053559Y0120639D01*
X0053559Y0121837D02*
X0052791Y0121837D01*
X0049905Y0121837D02*
X0049483Y0121837D01*
X0049501Y0120639D02*
X0049606Y0120639D01*
X0049606Y0119440D02*
X0049519Y0119440D01*
X0049538Y0118242D02*
X0049606Y0118242D01*
X0060271Y0148001D02*
X0062976Y0148001D01*
X0065476Y0149036D01*
X0067388Y0150949D01*
X0068424Y0153448D01*
X0068424Y0153649D01*
X0078518Y0153533D01*
X0079218Y0151841D01*
X0081054Y0150006D01*
X0083452Y0149013D01*
X0086047Y0149013D01*
X0088445Y0150006D01*
X0090281Y0151841D01*
X0091274Y0154239D01*
X0091274Y0158224D01*
X0091534Y0158831D01*
X0091565Y0161536D01*
X0091274Y0162261D01*
X0091274Y0166284D01*
X0090281Y0168682D01*
X0088445Y0170517D01*
X0086047Y0171510D01*
X0083452Y0171510D01*
X0081054Y0170517D01*
X0079218Y0168682D01*
X0078577Y0167133D01*
X0067967Y0167255D01*
X0067388Y0168653D01*
X0065476Y0170566D01*
X0062976Y0171601D01*
X0060271Y0171601D01*
X0057772Y0170566D01*
X0055859Y0168653D01*
X0054824Y0166153D01*
X0054824Y0160238D01*
X0054706Y0159330D01*
X0054824Y0158897D01*
X0054824Y0153448D01*
X0055859Y0150949D01*
X0057772Y0149036D01*
X0060271Y0148001D01*
X0059779Y0148205D02*
X0032287Y0148205D01*
X0031795Y0148001D02*
X0034294Y0149036D01*
X0036207Y0150949D01*
X0037243Y0153448D01*
X0037243Y0166153D01*
X0036207Y0168653D01*
X0034294Y0170566D01*
X0031795Y0171601D01*
X0029090Y0171601D01*
X0026591Y0170566D01*
X0024678Y0168653D01*
X0023643Y0166153D01*
X0023643Y0153448D01*
X0024678Y0150949D01*
X0026591Y0149036D01*
X0029090Y0148001D01*
X0031795Y0148001D01*
X0034661Y0149403D02*
X0057405Y0149403D01*
X0056206Y0150602D02*
X0035860Y0150602D01*
X0036560Y0151800D02*
X0055506Y0151800D01*
X0055010Y0152999D02*
X0037056Y0152999D01*
X0037243Y0154197D02*
X0054824Y0154197D01*
X0054824Y0155396D02*
X0037243Y0155396D01*
X0037243Y0156594D02*
X0054824Y0156594D01*
X0054824Y0157793D02*
X0037243Y0157793D01*
X0037243Y0158991D02*
X0054798Y0158991D01*
X0054817Y0160190D02*
X0037243Y0160190D01*
X0037243Y0161388D02*
X0054824Y0161388D01*
X0054824Y0162587D02*
X0037243Y0162587D01*
X0037243Y0163785D02*
X0054824Y0163785D01*
X0054824Y0164984D02*
X0037243Y0164984D01*
X0037231Y0166182D02*
X0054836Y0166182D01*
X0055332Y0167381D02*
X0036734Y0167381D01*
X0036238Y0168579D02*
X0055828Y0168579D01*
X0056984Y0169778D02*
X0035082Y0169778D01*
X0033303Y0170976D02*
X0058763Y0170976D01*
X0064484Y0170976D02*
X0082163Y0170976D01*
X0080315Y0169778D02*
X0066263Y0169778D01*
X0067419Y0168579D02*
X0079176Y0168579D01*
X0078680Y0167381D02*
X0067915Y0167381D01*
X0068237Y0152999D02*
X0078739Y0152999D01*
X0079260Y0151800D02*
X0067741Y0151800D01*
X0067041Y0150602D02*
X0080458Y0150602D01*
X0082509Y0149403D02*
X0065843Y0149403D01*
X0063468Y0148205D02*
X0115506Y0148205D01*
X0115046Y0147006D02*
X0016511Y0147006D01*
X0016511Y0145808D02*
X0115071Y0145808D01*
X0115640Y0144609D02*
X0016511Y0144609D01*
X0016511Y0143411D02*
X0117478Y0143411D01*
X0117629Y0142212D02*
X0016511Y0142212D01*
X0016511Y0141014D02*
X0132377Y0141014D01*
X0132377Y0139815D02*
X0016511Y0139815D01*
X0016511Y0138616D02*
X0132377Y0138616D01*
X0132799Y0137418D02*
X0016511Y0137418D01*
X0016511Y0136219D02*
X0137275Y0136219D01*
X0136403Y0135021D02*
X0016511Y0135021D01*
X0016511Y0133822D02*
X0136398Y0133822D01*
X0136398Y0132624D02*
X0016511Y0132624D01*
X0016511Y0131425D02*
X0136398Y0131425D01*
X0141945Y0132624D02*
X0143145Y0132624D01*
X0143145Y0133822D02*
X0141945Y0133822D01*
X0141945Y0135021D02*
X0143145Y0135021D01*
X0143145Y0136219D02*
X0141945Y0136219D01*
X0139986Y0136986D02*
X0139986Y0141462D01*
X0139986Y0141462D01*
X0139986Y0136986D01*
X0139986Y0137418D02*
X0139986Y0137418D01*
X0139986Y0138616D02*
X0139986Y0138616D01*
X0139986Y0139815D02*
X0139986Y0139815D01*
X0139986Y0141014D02*
X0139986Y0141014D01*
X0147814Y0136219D02*
X0171650Y0136219D01*
X0171650Y0135021D02*
X0148686Y0135021D01*
X0148692Y0133822D02*
X0171650Y0133822D01*
X0171650Y0132624D02*
X0148692Y0132624D01*
X0148692Y0131425D02*
X0153966Y0131425D01*
X0158087Y0131425D02*
X0159287Y0131425D01*
X0159287Y0130227D02*
X0158087Y0130227D01*
X0158087Y0129028D02*
X0159287Y0129028D01*
X0159287Y0127830D02*
X0158087Y0127830D01*
X0153543Y0124234D02*
X0148438Y0124234D01*
X0143145Y0124234D02*
X0141945Y0124234D01*
X0141945Y0125433D02*
X0143145Y0125433D01*
X0143145Y0126631D02*
X0141945Y0126631D01*
X0141945Y0127830D02*
X0143145Y0127830D01*
X0143145Y0129028D02*
X0141945Y0129028D01*
X0152290Y0137418D02*
X0171650Y0137418D01*
X0171650Y0138616D02*
X0152713Y0138616D01*
X0152713Y0139815D02*
X0171650Y0139815D01*
X0171650Y0141014D02*
X0152713Y0141014D01*
X0152713Y0142212D02*
X0171650Y0142212D01*
X0181156Y0142212D02*
X0183874Y0142212D01*
X0182177Y0141014D02*
X0181156Y0141014D01*
X0181156Y0139815D02*
X0181401Y0139815D01*
X0181330Y0136219D02*
X0181156Y0136219D01*
X0181156Y0135021D02*
X0182042Y0135021D01*
X0181156Y0133822D02*
X0183554Y0133822D01*
X0188208Y0133822D02*
X0189008Y0133822D01*
X0189008Y0135021D02*
X0188208Y0135021D01*
X0188208Y0136219D02*
X0189008Y0136219D01*
X0189008Y0137418D02*
X0188208Y0137418D01*
X0188208Y0138616D02*
X0189008Y0138616D01*
X0189008Y0138339D02*
X0189008Y0142539D01*
X0191970Y0142539D01*
X0192685Y0142425D01*
X0193374Y0142202D01*
X0194019Y0141873D01*
X0194605Y0141447D01*
X0195117Y0140935D01*
X0195542Y0140349D01*
X0195871Y0139704D01*
X0196095Y0139016D01*
X0196202Y0138339D01*
X0189008Y0138339D01*
X0189008Y0139815D02*
X0188208Y0139815D01*
X0188208Y0141014D02*
X0189008Y0141014D01*
X0189008Y0142212D02*
X0188208Y0142212D01*
X0193341Y0142212D02*
X0199287Y0142212D01*
X0199287Y0141014D02*
X0195038Y0141014D01*
X0195814Y0139815D02*
X0199287Y0139815D01*
X0199287Y0138616D02*
X0196158Y0138616D01*
X0196183Y0137418D02*
X0199287Y0137418D01*
X0199287Y0136219D02*
X0195886Y0136219D01*
X0195174Y0135021D02*
X0199287Y0135021D01*
X0199287Y0133822D02*
X0193662Y0133822D01*
X0192839Y0132624D02*
X0199287Y0132624D01*
X0199287Y0131425D02*
X0194909Y0131425D01*
X0195855Y0130227D02*
X0199287Y0130227D01*
X0199287Y0129028D02*
X0196352Y0129028D01*
X0196408Y0127830D02*
X0199287Y0127830D01*
X0199287Y0126631D02*
X0196262Y0126631D01*
X0195765Y0125433D02*
X0199287Y0125433D01*
X0199287Y0124234D02*
X0194692Y0124234D01*
X0199287Y0123036D02*
X0182191Y0123036D01*
X0181156Y0121837D02*
X0199287Y0121837D01*
X0199287Y0120639D02*
X0181156Y0120639D01*
X0181156Y0119440D02*
X0199287Y0119440D01*
X0199287Y0118242D02*
X0181156Y0118242D01*
X0181156Y0117043D02*
X0199287Y0117043D01*
X0199287Y0115845D02*
X0194616Y0115845D01*
X0195600Y0114646D02*
X0199287Y0114646D01*
X0199287Y0113448D02*
X0196087Y0113448D01*
X0196202Y0111948D02*
X0189008Y0111948D01*
X0189008Y0107748D01*
X0191970Y0107748D01*
X0192685Y0107861D01*
X0193374Y0108085D01*
X0194019Y0108414D01*
X0194605Y0108839D01*
X0195117Y0109351D01*
X0195542Y0109937D01*
X0195871Y0110582D01*
X0196095Y0111271D01*
X0196202Y0111948D01*
X0196023Y0111051D02*
X0199287Y0111051D01*
X0199287Y0112249D02*
X0189008Y0112249D01*
X0189008Y0111051D02*
X0188208Y0111051D01*
X0188208Y0109852D02*
X0189008Y0109852D01*
X0189008Y0108654D02*
X0188208Y0108654D01*
X0184653Y0107148D02*
X0182889Y0106417D01*
X0181539Y0105067D01*
X0180808Y0103303D01*
X0180808Y0101393D01*
X0181539Y0099629D01*
X0182889Y0098279D01*
X0184653Y0097548D01*
X0192563Y0097548D01*
X0194327Y0098279D01*
X0195677Y0099629D01*
X0196408Y0101393D01*
X0196408Y0103303D01*
X0195677Y0105067D01*
X0194327Y0106417D01*
X0192563Y0107148D01*
X0184653Y0107148D01*
X0182728Y0106257D02*
X0180616Y0106257D01*
X0181103Y0107455D02*
X0199287Y0107455D01*
X0199287Y0106257D02*
X0194487Y0106257D01*
X0195681Y0105058D02*
X0199287Y0105058D01*
X0199287Y0103860D02*
X0196177Y0103860D01*
X0196408Y0102661D02*
X0199287Y0102661D01*
X0199287Y0101463D02*
X0196408Y0101463D01*
X0195940Y0100264D02*
X0199287Y0100264D01*
X0199287Y0099066D02*
X0195114Y0099066D01*
X0193333Y0097867D02*
X0199287Y0097867D01*
X0199287Y0096669D02*
X0171539Y0096669D01*
X0172699Y0097867D02*
X0183883Y0097867D01*
X0182102Y0099066D02*
X0173859Y0099066D01*
X0175019Y0100264D02*
X0181276Y0100264D01*
X0180808Y0101463D02*
X0176178Y0101463D01*
X0177338Y0102661D02*
X0180808Y0102661D01*
X0181039Y0103860D02*
X0178498Y0103860D01*
X0179658Y0105058D02*
X0181535Y0105058D01*
X0181156Y0108654D02*
X0182867Y0108654D01*
X0181735Y0109852D02*
X0181156Y0109852D01*
X0181156Y0111051D02*
X0181193Y0111051D01*
X0181156Y0114646D02*
X0181616Y0114646D01*
X0181156Y0115845D02*
X0182599Y0115845D01*
X0188208Y0115845D02*
X0189008Y0115845D01*
X0189008Y0114646D02*
X0188208Y0114646D01*
X0188208Y0113448D02*
X0189008Y0113448D01*
X0194349Y0108654D02*
X0199287Y0108654D01*
X0199287Y0109852D02*
X0195480Y0109852D01*
X0199287Y0095470D02*
X0170379Y0095470D01*
X0169219Y0094272D02*
X0199287Y0094272D01*
X0199287Y0093073D02*
X0168062Y0093073D01*
X0166277Y0091875D02*
X0199287Y0091875D01*
X0199287Y0090676D02*
X0194040Y0090676D01*
X0194019Y0090692D02*
X0193374Y0091020D01*
X0192685Y0091244D01*
X0191970Y0091357D01*
X0189008Y0091357D01*
X0189008Y0087158D01*
X0188208Y0087158D01*
X0188208Y0091357D01*
X0185246Y0091357D01*
X0184531Y0091244D01*
X0183842Y0091020D01*
X0183197Y0090692D01*
X0182611Y0090266D01*
X0182099Y0089754D01*
X0181674Y0089168D01*
X0181345Y0088523D01*
X0181121Y0087835D01*
X0181014Y0087157D01*
X0188208Y0087157D01*
X0188208Y0086357D01*
X0189008Y0086357D01*
X0189008Y0082157D01*
X0191970Y0082157D01*
X0192685Y0082271D01*
X0193374Y0082494D01*
X0194019Y0082823D01*
X0194605Y0083249D01*
X0195117Y0083761D01*
X0195542Y0084347D01*
X0195871Y0084992D01*
X0196095Y0085680D01*
X0196202Y0086357D01*
X0189008Y0086357D01*
X0189008Y0087157D01*
X0196202Y0087157D01*
X0196095Y0087835D01*
X0195871Y0088523D01*
X0195542Y0089168D01*
X0195117Y0089754D01*
X0194605Y0090266D01*
X0194019Y0090692D01*
X0195318Y0089478D02*
X0199287Y0089478D01*
X0199287Y0088279D02*
X0195950Y0088279D01*
X0196127Y0085882D02*
X0199287Y0085882D01*
X0199287Y0087080D02*
X0189008Y0087080D01*
X0188208Y0087080D02*
X0159831Y0087080D01*
X0159784Y0087257D02*
X0159573Y0087622D01*
X0159275Y0087920D01*
X0158910Y0088130D01*
X0158504Y0088239D01*
X0156334Y0088239D01*
X0156334Y0084287D01*
X0159893Y0084287D01*
X0159893Y0086850D01*
X0159784Y0087257D01*
X0159893Y0085882D02*
X0181089Y0085882D01*
X0181121Y0085680D02*
X0181345Y0084992D01*
X0181674Y0084347D01*
X0182099Y0083761D01*
X0182611Y0083249D01*
X0183197Y0082823D01*
X0183842Y0082494D01*
X0184531Y0082271D01*
X0185246Y0082157D01*
X0188208Y0082157D01*
X0188208Y0086357D01*
X0181014Y0086357D01*
X0181121Y0085680D01*
X0181502Y0084683D02*
X0159893Y0084683D01*
X0159893Y0083087D02*
X0156334Y0083087D01*
X0156334Y0079134D01*
X0158504Y0079134D01*
X0158910Y0079243D01*
X0159275Y0079454D01*
X0159573Y0079751D01*
X0159784Y0080116D01*
X0159893Y0080523D01*
X0159893Y0083087D01*
X0159893Y0082286D02*
X0184482Y0082286D01*
X0184653Y0081557D02*
X0182889Y0080827D01*
X0181539Y0079476D01*
X0180808Y0077712D01*
X0180808Y0075803D01*
X0181539Y0074038D01*
X0182889Y0072688D01*
X0184653Y0071957D01*
X0192563Y0071957D01*
X0194327Y0072688D01*
X0195677Y0074038D01*
X0196408Y0075803D01*
X0196408Y0077712D01*
X0195677Y0079476D01*
X0194327Y0080827D01*
X0192563Y0081557D01*
X0184653Y0081557D01*
X0183520Y0081088D02*
X0159893Y0081088D01*
X0159653Y0079889D02*
X0181952Y0079889D01*
X0181213Y0078691D02*
X0151797Y0078691D01*
X0149397Y0078691D02*
X0114198Y0078691D01*
X0114198Y0079889D02*
X0149421Y0079889D01*
X0149446Y0081088D02*
X0114198Y0081088D01*
X0114198Y0082286D02*
X0149470Y0082286D01*
X0149495Y0083485D02*
X0114198Y0083485D01*
X0114198Y0084683D02*
X0149519Y0084683D01*
X0149544Y0085882D02*
X0114198Y0085882D01*
X0114198Y0087080D02*
X0149568Y0087080D01*
X0149593Y0088279D02*
X0114198Y0088279D01*
X0114198Y0089478D02*
X0149617Y0089478D01*
X0149631Y0090183D02*
X0114198Y0090183D01*
X0114198Y0055738D01*
X0114266Y0055670D01*
X0115381Y0052978D01*
X0115381Y0050064D01*
X0114266Y0047372D01*
X0114198Y0047305D01*
X0114198Y0033883D01*
X0132702Y0033883D01*
X0132702Y0048160D01*
X0131913Y0050064D01*
X0131913Y0052978D01*
X0132702Y0054883D01*
X0132702Y0070891D01*
X0149238Y0070891D01*
X0149631Y0090183D01*
X0152638Y0088279D02*
X0181266Y0088279D01*
X0181898Y0089478D02*
X0153837Y0089478D01*
X0155035Y0090676D02*
X0183175Y0090676D01*
X0188208Y0090676D02*
X0189008Y0090676D01*
X0189008Y0089478D02*
X0188208Y0089478D01*
X0188208Y0088279D02*
X0189008Y0088279D01*
X0189008Y0085882D02*
X0188208Y0085882D01*
X0188208Y0084683D02*
X0189008Y0084683D01*
X0189008Y0083485D02*
X0188208Y0083485D01*
X0188208Y0082286D02*
X0189008Y0082286D01*
X0192733Y0082286D02*
X0199287Y0082286D01*
X0199287Y0081088D02*
X0193696Y0081088D01*
X0195264Y0079889D02*
X0199287Y0079889D01*
X0199287Y0078691D02*
X0196002Y0078691D01*
X0196408Y0077492D02*
X0199287Y0077492D01*
X0199287Y0076294D02*
X0196408Y0076294D01*
X0196115Y0075095D02*
X0199287Y0075095D01*
X0199287Y0073897D02*
X0195535Y0073897D01*
X0194337Y0072698D02*
X0199287Y0072698D01*
X0199287Y0071500D02*
X0159893Y0071500D01*
X0159893Y0070681D02*
X0159893Y0073244D01*
X0156334Y0073244D01*
X0156334Y0069291D01*
X0158504Y0069291D01*
X0158910Y0069400D01*
X0159275Y0069611D01*
X0159573Y0069909D01*
X0159784Y0070274D01*
X0159893Y0070681D01*
X0159791Y0070301D02*
X0199287Y0070301D01*
X0199287Y0069103D02*
X0151570Y0069103D01*
X0149250Y0071500D02*
X0114198Y0071500D01*
X0114198Y0072698D02*
X0149275Y0072698D01*
X0149299Y0073897D02*
X0114198Y0073897D01*
X0114198Y0075095D02*
X0149324Y0075095D01*
X0149348Y0076294D02*
X0114198Y0076294D01*
X0114198Y0077492D02*
X0149373Y0077492D01*
X0155134Y0077492D02*
X0156334Y0077492D01*
X0156334Y0076294D02*
X0155134Y0076294D01*
X0155134Y0075095D02*
X0156334Y0075095D01*
X0156334Y0073897D02*
X0181680Y0073897D01*
X0181101Y0075095D02*
X0159893Y0075095D01*
X0159893Y0076294D02*
X0180808Y0076294D01*
X0180808Y0077492D02*
X0159739Y0077492D01*
X0156334Y0079889D02*
X0155134Y0079889D01*
X0155134Y0081088D02*
X0156334Y0081088D01*
X0156334Y0082286D02*
X0155134Y0082286D01*
X0156334Y0083485D02*
X0182375Y0083485D01*
X0182879Y0072698D02*
X0159893Y0072698D01*
X0156334Y0072698D02*
X0155134Y0072698D01*
X0155134Y0071500D02*
X0156334Y0071500D01*
X0156334Y0070301D02*
X0155134Y0070301D01*
X0156285Y0058846D02*
X0153371Y0058846D01*
X0150679Y0057731D01*
X0148619Y0055670D01*
X0147504Y0052978D01*
X0147504Y0050064D01*
X0148619Y0047372D01*
X0150679Y0045312D01*
X0153371Y0044197D01*
X0156285Y0044197D01*
X0158977Y0045312D01*
X0161038Y0047372D01*
X0162153Y0050064D01*
X0162153Y0052978D01*
X0161038Y0055670D01*
X0158977Y0057731D01*
X0156285Y0058846D01*
X0157563Y0058316D02*
X0167684Y0058316D01*
X0168962Y0058846D02*
X0166270Y0057731D01*
X0164210Y0055670D01*
X0163094Y0052978D01*
X0163094Y0050064D01*
X0164210Y0047372D01*
X0166270Y0045312D01*
X0168962Y0044197D01*
X0171876Y0044197D01*
X0174568Y0045312D01*
X0176628Y0047372D01*
X0177743Y0050064D01*
X0177743Y0052978D01*
X0176628Y0055670D01*
X0174568Y0057731D01*
X0171876Y0058846D01*
X0168962Y0058846D01*
X0165657Y0057118D02*
X0159590Y0057118D01*
X0160789Y0055919D02*
X0164459Y0055919D01*
X0163816Y0054721D02*
X0161431Y0054721D01*
X0161927Y0053522D02*
X0163320Y0053522D01*
X0163094Y0052324D02*
X0162153Y0052324D01*
X0162153Y0051125D02*
X0163094Y0051125D01*
X0163152Y0049927D02*
X0162096Y0049927D01*
X0161599Y0048728D02*
X0163648Y0048728D01*
X0164144Y0047530D02*
X0161103Y0047530D01*
X0159996Y0046331D02*
X0165251Y0046331D01*
X0166703Y0045133D02*
X0158544Y0045133D01*
X0157315Y0042736D02*
X0167853Y0042736D01*
X0166655Y0041537D02*
X0158514Y0041537D01*
X0159689Y0040339D02*
X0165480Y0040339D01*
X0165480Y0039140D02*
X0159689Y0039140D01*
X0159689Y0036743D02*
X0165480Y0036743D01*
X0166238Y0035545D02*
X0158931Y0035545D01*
X0157732Y0034346D02*
X0167436Y0034346D01*
X0170784Y0037942D02*
X0180870Y0037942D01*
X0180870Y0039140D02*
X0175280Y0039140D01*
X0175280Y0040339D02*
X0180870Y0040339D01*
X0181962Y0041537D02*
X0174104Y0041537D01*
X0172906Y0042736D02*
X0183161Y0042736D01*
X0184553Y0044197D02*
X0187466Y0044197D01*
X0190158Y0045312D01*
X0192219Y0047372D01*
X0193334Y0050064D01*
X0193334Y0052978D01*
X0192219Y0055670D01*
X0190158Y0057731D01*
X0187466Y0058846D01*
X0184553Y0058846D01*
X0181860Y0057731D01*
X0179800Y0055670D01*
X0178685Y0052978D01*
X0178685Y0050064D01*
X0179800Y0047372D01*
X0181860Y0045312D01*
X0184553Y0044197D01*
X0182293Y0045133D02*
X0174135Y0045133D01*
X0175587Y0046331D02*
X0180841Y0046331D01*
X0179735Y0047530D02*
X0176693Y0047530D01*
X0177190Y0048728D02*
X0179238Y0048728D01*
X0178742Y0049927D02*
X0177686Y0049927D01*
X0177743Y0051125D02*
X0178685Y0051125D01*
X0178685Y0052324D02*
X0177743Y0052324D01*
X0177518Y0053522D02*
X0178910Y0053522D01*
X0179407Y0054721D02*
X0177022Y0054721D01*
X0176379Y0055919D02*
X0180049Y0055919D01*
X0181248Y0057118D02*
X0175181Y0057118D01*
X0173154Y0058316D02*
X0183274Y0058316D01*
X0188745Y0058316D02*
X0199287Y0058316D01*
X0199287Y0057118D02*
X0190771Y0057118D01*
X0191970Y0055919D02*
X0199287Y0055919D01*
X0199287Y0054721D02*
X0192612Y0054721D01*
X0193109Y0053522D02*
X0199287Y0053522D01*
X0199287Y0052324D02*
X0193334Y0052324D01*
X0193334Y0051125D02*
X0199287Y0051125D01*
X0199287Y0049927D02*
X0193277Y0049927D01*
X0192780Y0048728D02*
X0199287Y0048728D01*
X0199287Y0047530D02*
X0192284Y0047530D01*
X0191178Y0046331D02*
X0199287Y0046331D01*
X0199287Y0045133D02*
X0189725Y0045133D01*
X0188779Y0042736D02*
X0199287Y0042736D01*
X0199287Y0043934D02*
X0135102Y0043934D01*
X0135102Y0042736D02*
X0136711Y0042736D01*
X0135513Y0041537D02*
X0135102Y0041537D01*
X0138834Y0041537D02*
X0139642Y0041537D01*
X0139642Y0040339D02*
X0138834Y0040339D01*
X0138834Y0039140D02*
X0139642Y0039140D01*
X0139642Y0042736D02*
X0138834Y0042736D01*
X0141764Y0042736D02*
X0152263Y0042736D01*
X0152759Y0043232D02*
X0149889Y0040362D01*
X0149889Y0038736D01*
X0154385Y0038736D01*
X0154385Y0043232D01*
X0152759Y0043232D01*
X0154385Y0042736D02*
X0155193Y0042736D01*
X0155193Y0041537D02*
X0154385Y0041537D01*
X0154385Y0040339D02*
X0155193Y0040339D01*
X0155193Y0039140D02*
X0154385Y0039140D01*
X0154385Y0036743D02*
X0155193Y0036743D01*
X0155193Y0035545D02*
X0154385Y0035545D01*
X0154385Y0034346D02*
X0155193Y0034346D01*
X0151846Y0034346D02*
X0142181Y0034346D01*
X0143380Y0035545D02*
X0150647Y0035545D01*
X0149889Y0036743D02*
X0144138Y0036743D01*
X0144138Y0039140D02*
X0149889Y0039140D01*
X0149889Y0040339D02*
X0144138Y0040339D01*
X0142963Y0041537D02*
X0151064Y0041537D01*
X0151112Y0045133D02*
X0142954Y0045133D01*
X0144406Y0046331D02*
X0149660Y0046331D01*
X0148554Y0047530D02*
X0145512Y0047530D01*
X0146009Y0048728D02*
X0148057Y0048728D01*
X0147561Y0049927D02*
X0146505Y0049927D01*
X0146562Y0051125D02*
X0147504Y0051125D01*
X0147504Y0052324D02*
X0146562Y0052324D01*
X0146337Y0053522D02*
X0147729Y0053522D01*
X0148226Y0054721D02*
X0145840Y0054721D01*
X0145198Y0055919D02*
X0148868Y0055919D01*
X0150067Y0057118D02*
X0144000Y0057118D01*
X0141973Y0058316D02*
X0152093Y0058316D01*
X0136503Y0058316D02*
X0135102Y0058316D01*
X0135102Y0059515D02*
X0199287Y0059515D01*
X0199287Y0060713D02*
X0135102Y0060713D01*
X0135102Y0061912D02*
X0199287Y0061912D01*
X0199287Y0063110D02*
X0135102Y0063110D01*
X0135102Y0064309D02*
X0199287Y0064309D01*
X0199287Y0065507D02*
X0135102Y0065507D01*
X0135102Y0066706D02*
X0199287Y0066706D01*
X0199287Y0067904D02*
X0135102Y0067904D01*
X0132702Y0067904D02*
X0114198Y0067904D01*
X0114198Y0066706D02*
X0132702Y0066706D01*
X0132702Y0065507D02*
X0114198Y0065507D01*
X0114198Y0064309D02*
X0132702Y0064309D01*
X0132702Y0063110D02*
X0114198Y0063110D01*
X0114198Y0061912D02*
X0132702Y0061912D01*
X0132702Y0060713D02*
X0114198Y0060713D01*
X0114198Y0059515D02*
X0132702Y0059515D01*
X0132702Y0058316D02*
X0126382Y0058316D01*
X0125104Y0058846D02*
X0127796Y0057731D01*
X0129857Y0055670D01*
X0130972Y0052978D01*
X0130972Y0050064D01*
X0129857Y0047372D01*
X0127796Y0045312D01*
X0125104Y0044197D01*
X0122190Y0044197D01*
X0119498Y0045312D01*
X0117438Y0047372D01*
X0116323Y0050064D01*
X0116323Y0052978D01*
X0117438Y0055670D01*
X0119498Y0057731D01*
X0122190Y0058846D01*
X0125104Y0058846D01*
X0128409Y0057118D02*
X0132702Y0057118D01*
X0132702Y0055919D02*
X0129608Y0055919D01*
X0130250Y0054721D02*
X0132635Y0054721D01*
X0132139Y0053522D02*
X0130746Y0053522D01*
X0130972Y0052324D02*
X0131913Y0052324D01*
X0131913Y0051125D02*
X0130972Y0051125D01*
X0130915Y0049927D02*
X0131970Y0049927D01*
X0132467Y0048728D02*
X0130418Y0048728D01*
X0129922Y0047530D02*
X0132702Y0047530D01*
X0132702Y0046331D02*
X0128815Y0046331D01*
X0127363Y0045133D02*
X0132702Y0045133D01*
X0132702Y0043934D02*
X0114198Y0043934D01*
X0114198Y0042736D02*
X0132702Y0042736D01*
X0132702Y0041537D02*
X0114198Y0041537D01*
X0114198Y0040339D02*
X0132702Y0040339D01*
X0132702Y0039140D02*
X0114198Y0039140D01*
X0114198Y0037942D02*
X0132702Y0037942D01*
X0132702Y0036743D02*
X0114198Y0036743D01*
X0114198Y0035545D02*
X0132702Y0035545D01*
X0132702Y0034346D02*
X0114198Y0034346D01*
X0111985Y0034346D02*
X0027517Y0034346D01*
X0027529Y0033147D02*
X0111998Y0033147D01*
X0112010Y0031949D02*
X0027542Y0031949D01*
X0027554Y0030750D02*
X0099006Y0030750D01*
X0098713Y0030458D02*
X0099553Y0031298D01*
X0100651Y0031753D01*
X0101840Y0031753D01*
X0102938Y0031298D01*
X0103778Y0030458D01*
X0104072Y0029750D01*
X0112033Y0029750D01*
X0111872Y0045174D01*
X0109514Y0044197D01*
X0106600Y0044197D01*
X0103908Y0045312D01*
X0101847Y0047372D01*
X0101319Y0048647D01*
X0027368Y0048647D01*
X0027565Y0029750D01*
X0073156Y0029750D01*
X0073969Y0030562D01*
X0081200Y0030562D01*
X0082012Y0029750D01*
X0084635Y0029750D01*
X0085501Y0030615D01*
X0092732Y0030615D01*
X0093597Y0029750D01*
X0098420Y0029750D01*
X0098713Y0030458D01*
X0103485Y0030750D02*
X0112023Y0030750D01*
X0114423Y0030750D02*
X0120247Y0030750D01*
X0120247Y0029552D02*
X0114435Y0029552D01*
X0114031Y0028353D02*
X0119680Y0028353D01*
X0119308Y0027155D02*
X0112338Y0027155D01*
X0112338Y0025956D02*
X0119308Y0025956D01*
X0119717Y0024758D02*
X0111948Y0024758D01*
X0111124Y0023559D02*
X0120567Y0023559D01*
X0126648Y0023559D02*
X0136276Y0023559D01*
X0135402Y0024758D02*
X0127499Y0024758D01*
X0127908Y0025956D02*
X0134977Y0025956D01*
X0134519Y0027155D02*
X0127908Y0027155D01*
X0127536Y0028353D02*
X0133659Y0028353D01*
X0133443Y0029552D02*
X0127047Y0029552D01*
X0127047Y0030750D02*
X0133354Y0030750D01*
X0142446Y0029552D02*
X0151785Y0029552D01*
X0151050Y0028353D02*
X0143221Y0028353D01*
X0154268Y0029552D02*
X0155468Y0029552D01*
X0157950Y0029552D02*
X0164669Y0029552D01*
X0164567Y0028353D02*
X0158686Y0028353D01*
X0168126Y0024758D02*
X0169326Y0024758D01*
X0169326Y0023559D02*
X0168126Y0023559D01*
X0168126Y0022361D02*
X0169326Y0022361D01*
X0174521Y0035545D02*
X0181545Y0035545D01*
X0180870Y0036743D02*
X0175280Y0036743D01*
X0170783Y0039140D02*
X0169976Y0039140D01*
X0169976Y0040339D02*
X0170783Y0040339D01*
X0170783Y0041537D02*
X0169976Y0041537D01*
X0169976Y0042736D02*
X0170783Y0042736D01*
X0189370Y0034346D02*
X0199287Y0034346D01*
X0199287Y0033147D02*
X0189370Y0033147D01*
X0189370Y0031949D02*
X0199287Y0031949D01*
X0199287Y0030750D02*
X0189370Y0030750D01*
X0189370Y0029552D02*
X0199287Y0029552D01*
X0199287Y0028353D02*
X0190056Y0028353D01*
X0190428Y0027155D02*
X0199287Y0027155D01*
X0199287Y0025956D02*
X0190428Y0025956D01*
X0190019Y0024758D02*
X0199287Y0024758D01*
X0199186Y0023559D02*
X0189168Y0023559D01*
X0190395Y0035545D02*
X0199287Y0035545D01*
X0199287Y0036743D02*
X0191070Y0036743D01*
X0191070Y0037942D02*
X0199287Y0037942D01*
X0199287Y0039140D02*
X0191070Y0039140D01*
X0191070Y0040339D02*
X0199287Y0040339D01*
X0199287Y0041537D02*
X0189978Y0041537D01*
X0194841Y0083485D02*
X0199287Y0083485D01*
X0199287Y0084683D02*
X0195714Y0084683D01*
X0156334Y0084683D02*
X0155134Y0084683D01*
X0155134Y0085882D02*
X0156334Y0085882D01*
X0156334Y0087080D02*
X0155134Y0087080D01*
X0142939Y0103860D02*
X0114198Y0103860D01*
X0114198Y0105058D02*
X0142920Y0105058D01*
X0142920Y0106257D02*
X0114198Y0106257D01*
X0114198Y0107455D02*
X0142920Y0107455D01*
X0142920Y0108654D02*
X0114198Y0108654D01*
X0114198Y0109852D02*
X0142920Y0109852D01*
X0142939Y0111051D02*
X0114198Y0111051D01*
X0114198Y0112249D02*
X0142939Y0112249D01*
X0134868Y0119440D02*
X0134868Y0119440D01*
X0163407Y0131425D02*
X0163415Y0131425D01*
X0167535Y0131425D02*
X0168735Y0131425D01*
X0168735Y0130227D02*
X0167535Y0130227D01*
X0167535Y0129028D02*
X0168735Y0129028D01*
X0168735Y0127830D02*
X0167535Y0127830D01*
X0181156Y0143411D02*
X0199287Y0143411D01*
X0199287Y0144609D02*
X0181156Y0144609D01*
X0181156Y0145808D02*
X0199287Y0145808D01*
X0199287Y0147006D02*
X0181444Y0147006D01*
X0182643Y0148205D02*
X0199287Y0148205D01*
X0199287Y0149403D02*
X0194190Y0149403D01*
X0195469Y0150602D02*
X0199287Y0150602D01*
X0199287Y0151800D02*
X0196087Y0151800D01*
X0196408Y0152999D02*
X0199287Y0152999D01*
X0199287Y0154197D02*
X0196408Y0154197D01*
X0196030Y0155396D02*
X0199287Y0155396D01*
X0199287Y0156594D02*
X0195331Y0156594D01*
X0193858Y0157793D02*
X0199287Y0157793D01*
X0199287Y0158991D02*
X0192362Y0158991D01*
X0192685Y0159042D02*
X0193374Y0159266D01*
X0194019Y0159595D01*
X0194605Y0160020D01*
X0195117Y0160532D01*
X0195542Y0161118D01*
X0195871Y0161763D01*
X0196095Y0162452D01*
X0196202Y0163129D01*
X0189008Y0163129D01*
X0189008Y0163929D01*
X0196202Y0163929D01*
X0196095Y0164606D01*
X0195871Y0165295D01*
X0195542Y0165940D01*
X0195117Y0166526D01*
X0194605Y0167038D01*
X0194019Y0167463D01*
X0193374Y0167792D01*
X0192685Y0168016D01*
X0191970Y0168129D01*
X0189008Y0168129D01*
X0189008Y0163929D01*
X0188208Y0163929D01*
X0188208Y0168129D01*
X0185246Y0168129D01*
X0184531Y0168016D01*
X0183842Y0167792D01*
X0183197Y0167463D01*
X0182611Y0167038D01*
X0182099Y0166526D01*
X0181674Y0165940D01*
X0181345Y0165295D01*
X0181121Y0164606D01*
X0181014Y0163929D01*
X0188208Y0163929D01*
X0188208Y0163129D01*
X0189008Y0163129D01*
X0189008Y0158929D01*
X0191970Y0158929D01*
X0192685Y0159042D01*
X0194774Y0160190D02*
X0199287Y0160190D01*
X0199287Y0161388D02*
X0195680Y0161388D01*
X0196116Y0162587D02*
X0199287Y0162587D01*
X0199287Y0163785D02*
X0189008Y0163785D01*
X0188208Y0163785D02*
X0154578Y0163785D01*
X0154578Y0163205D02*
X0154578Y0165000D01*
X0154469Y0165407D01*
X0154258Y0165771D01*
X0153960Y0166069D01*
X0153596Y0166280D01*
X0153189Y0166389D01*
X0151197Y0166389D01*
X0151197Y0163205D01*
X0154578Y0163205D01*
X0154578Y0164984D02*
X0181244Y0164984D01*
X0181850Y0166182D02*
X0153765Y0166182D01*
X0151197Y0166182D02*
X0150428Y0166182D01*
X0150428Y0166389D02*
X0148437Y0166389D01*
X0148030Y0166280D01*
X0147665Y0166069D01*
X0147367Y0165771D01*
X0147156Y0165407D01*
X0147047Y0165000D01*
X0147047Y0163205D01*
X0150428Y0163205D01*
X0150428Y0166389D01*
X0150428Y0164984D02*
X0151197Y0164984D01*
X0151197Y0163785D02*
X0150428Y0163785D01*
X0150428Y0162587D02*
X0142929Y0162587D01*
X0142929Y0163205D02*
X0146113Y0163205D01*
X0146113Y0165196D01*
X0146004Y0165603D01*
X0145794Y0165968D01*
X0145496Y0166266D01*
X0145131Y0166477D01*
X0144724Y0166586D01*
X0142929Y0166586D01*
X0142929Y0163205D01*
X0142929Y0163785D02*
X0142161Y0163785D01*
X0142161Y0162587D02*
X0134661Y0162587D01*
X0134661Y0163205D02*
X0137846Y0163205D01*
X0137846Y0165196D01*
X0137737Y0165603D01*
X0137526Y0165968D01*
X0137228Y0166266D01*
X0136863Y0166477D01*
X0136456Y0166586D01*
X0134661Y0166586D01*
X0134661Y0163205D01*
X0134661Y0163785D02*
X0133893Y0163785D01*
X0133893Y0162587D02*
X0130375Y0162587D01*
X0130402Y0163785D02*
X0130709Y0163785D01*
X0130709Y0164984D02*
X0130430Y0164984D01*
X0130457Y0166182D02*
X0131242Y0166182D01*
X0133893Y0166182D02*
X0134661Y0166182D01*
X0134661Y0164984D02*
X0133893Y0164984D01*
X0137312Y0166182D02*
X0139510Y0166182D01*
X0138976Y0164984D02*
X0137846Y0164984D01*
X0137846Y0163785D02*
X0138976Y0163785D01*
X0138976Y0161388D02*
X0137846Y0161388D01*
X0137777Y0160190D02*
X0139045Y0160190D01*
X0142161Y0164984D02*
X0142929Y0164984D01*
X0142929Y0166182D02*
X0142161Y0166182D01*
X0145580Y0166182D02*
X0147860Y0166182D01*
X0147047Y0164984D02*
X0146113Y0164984D01*
X0146113Y0163785D02*
X0147047Y0163785D01*
X0147047Y0161388D02*
X0146113Y0161388D01*
X0146045Y0160190D02*
X0147182Y0160190D01*
X0151197Y0162587D02*
X0181100Y0162587D01*
X0181121Y0162452D02*
X0181345Y0161763D01*
X0181674Y0161118D01*
X0182099Y0160532D01*
X0182611Y0160020D01*
X0183197Y0159595D01*
X0183842Y0159266D01*
X0184531Y0159042D01*
X0185246Y0158929D01*
X0188208Y0158929D01*
X0188208Y0163129D01*
X0181014Y0163129D01*
X0181121Y0162452D01*
X0181536Y0161388D02*
X0154578Y0161388D01*
X0168248Y0160190D02*
X0182442Y0160190D01*
X0184854Y0158991D02*
X0168248Y0158991D01*
X0168248Y0157793D02*
X0179286Y0157793D01*
X0177589Y0156594D02*
X0168248Y0156594D01*
X0168248Y0155396D02*
X0176391Y0155396D01*
X0175192Y0154197D02*
X0168248Y0154197D01*
X0168248Y0152999D02*
X0173994Y0152999D01*
X0172795Y0151800D02*
X0168248Y0151800D01*
X0183083Y0167381D02*
X0106212Y0167381D01*
X0106201Y0167414D02*
X0105749Y0168301D01*
X0105164Y0169106D01*
X0104460Y0169810D01*
X0103655Y0170395D01*
X0102768Y0170847D01*
X0101821Y0171154D01*
X0100940Y0171294D01*
X0100940Y0160861D01*
X0106665Y0160861D01*
X0106665Y0165484D01*
X0106509Y0166467D01*
X0106201Y0167414D01*
X0106554Y0166182D02*
X0120779Y0166182D01*
X0120779Y0164984D02*
X0106665Y0164984D01*
X0106665Y0163785D02*
X0120779Y0163785D01*
X0120779Y0162587D02*
X0106665Y0162587D01*
X0106665Y0161388D02*
X0120779Y0161388D01*
X0120779Y0160190D02*
X0100940Y0160190D01*
X0100940Y0159661D02*
X0100940Y0160861D01*
X0099740Y0160861D01*
X0099740Y0159661D01*
X0100940Y0159661D01*
X0100940Y0149229D01*
X0101821Y0149368D01*
X0102768Y0149676D01*
X0103655Y0150128D01*
X0104460Y0150713D01*
X0105164Y0151417D01*
X0105749Y0152222D01*
X0106201Y0153109D01*
X0106509Y0154056D01*
X0106665Y0155039D01*
X0106665Y0159661D01*
X0100940Y0159661D01*
X0100940Y0158991D02*
X0099740Y0158991D01*
X0099740Y0159661D02*
X0099740Y0149229D01*
X0098859Y0149368D01*
X0097912Y0149676D01*
X0097025Y0150128D01*
X0096220Y0150713D01*
X0095516Y0151417D01*
X0094931Y0152222D01*
X0094479Y0153109D01*
X0094171Y0154056D01*
X0094016Y0155039D01*
X0094016Y0159661D01*
X0099740Y0159661D01*
X0099740Y0160190D02*
X0091549Y0160190D01*
X0091563Y0161388D02*
X0094016Y0161388D01*
X0094016Y0160861D02*
X0099740Y0160861D01*
X0099740Y0171294D01*
X0098859Y0171154D01*
X0097912Y0170847D01*
X0097025Y0170395D01*
X0096220Y0169810D01*
X0095516Y0169106D01*
X0094931Y0168301D01*
X0094479Y0167414D01*
X0094171Y0166467D01*
X0094016Y0165484D01*
X0094016Y0160861D01*
X0094016Y0162587D02*
X0091274Y0162587D01*
X0091274Y0163785D02*
X0094016Y0163785D01*
X0094016Y0164984D02*
X0091274Y0164984D01*
X0091274Y0166182D02*
X0094126Y0166182D01*
X0094468Y0167381D02*
X0090820Y0167381D01*
X0090323Y0168579D02*
X0095134Y0168579D01*
X0096188Y0169778D02*
X0089185Y0169778D01*
X0087336Y0170976D02*
X0098311Y0170976D01*
X0099740Y0170976D02*
X0100940Y0170976D01*
X0100940Y0169778D02*
X0099740Y0169778D01*
X0099740Y0168579D02*
X0100940Y0168579D01*
X0100940Y0167381D02*
X0099740Y0167381D01*
X0099740Y0166182D02*
X0100940Y0166182D01*
X0100940Y0164984D02*
X0099740Y0164984D01*
X0099740Y0163785D02*
X0100940Y0163785D01*
X0100940Y0162587D02*
X0099740Y0162587D01*
X0099740Y0161388D02*
X0100940Y0161388D01*
X0100940Y0157793D02*
X0099740Y0157793D01*
X0099740Y0156594D02*
X0100940Y0156594D01*
X0100940Y0155396D02*
X0099740Y0155396D01*
X0099740Y0154197D02*
X0100940Y0154197D01*
X0100940Y0152999D02*
X0099740Y0152999D01*
X0099740Y0151800D02*
X0100940Y0151800D01*
X0100940Y0150602D02*
X0099740Y0150602D01*
X0099740Y0149403D02*
X0100940Y0149403D01*
X0101928Y0149403D02*
X0117116Y0149403D01*
X0117629Y0150602D02*
X0104307Y0150602D01*
X0105443Y0151800D02*
X0118008Y0151800D01*
X0120779Y0152999D02*
X0106145Y0152999D01*
X0106531Y0154197D02*
X0120779Y0154197D01*
X0120779Y0155396D02*
X0106665Y0155396D01*
X0106665Y0156594D02*
X0120779Y0156594D01*
X0120779Y0157793D02*
X0106665Y0157793D01*
X0106665Y0158991D02*
X0120779Y0158991D01*
X0133293Y0155931D02*
X0134277Y0156128D01*
X0105547Y0168579D02*
X0199287Y0168579D01*
X0199287Y0167381D02*
X0194133Y0167381D01*
X0195366Y0166182D02*
X0199287Y0166182D01*
X0199287Y0164984D02*
X0195972Y0164984D01*
X0199287Y0169778D02*
X0104492Y0169778D01*
X0102370Y0170976D02*
X0199287Y0170976D01*
X0199287Y0172175D02*
X0016511Y0172175D01*
X0016511Y0173373D02*
X0199287Y0173373D01*
X0199287Y0174572D02*
X0016511Y0174572D01*
X0016511Y0175770D02*
X0199287Y0175770D01*
X0199230Y0176969D02*
X0016511Y0176969D01*
X0016549Y0178167D02*
X0198923Y0178167D01*
X0198510Y0179366D02*
X0016934Y0179366D01*
X0017540Y0180564D02*
X0197639Y0180564D01*
X0196281Y0181763D02*
X0018633Y0181763D01*
X0021636Y0182961D02*
X0023323Y0182961D01*
X0023601Y0182961D02*
X0192885Y0182961D01*
X0189008Y0167381D02*
X0188208Y0167381D01*
X0188208Y0166182D02*
X0189008Y0166182D01*
X0189008Y0164984D02*
X0188208Y0164984D01*
X0188208Y0162587D02*
X0189008Y0162587D01*
X0189008Y0161388D02*
X0188208Y0161388D01*
X0188208Y0160190D02*
X0189008Y0160190D01*
X0189008Y0158991D02*
X0188208Y0158991D01*
X0111798Y0077492D02*
X0094735Y0077492D01*
X0096553Y0076294D02*
X0111798Y0076294D01*
X0111798Y0075095D02*
X0097501Y0075095D01*
X0097501Y0073897D02*
X0111798Y0073897D01*
X0111798Y0072698D02*
X0097501Y0072698D01*
X0097501Y0071500D02*
X0111798Y0071500D01*
X0111798Y0070301D02*
X0097501Y0070301D01*
X0097501Y0069103D02*
X0111798Y0069103D01*
X0111798Y0067904D02*
X0097501Y0067904D01*
X0097501Y0066706D02*
X0111798Y0066706D01*
X0111798Y0065507D02*
X0097501Y0065507D01*
X0097501Y0064309D02*
X0111798Y0064309D01*
X0111798Y0063110D02*
X0097501Y0063110D01*
X0097501Y0061912D02*
X0111798Y0061912D01*
X0111798Y0060713D02*
X0097501Y0060713D01*
X0097501Y0059515D02*
X0111798Y0059515D01*
X0111798Y0058316D02*
X0110792Y0058316D01*
X0114198Y0058316D02*
X0120912Y0058316D01*
X0118885Y0057118D02*
X0114198Y0057118D01*
X0114198Y0055919D02*
X0117687Y0055919D01*
X0117045Y0054721D02*
X0114659Y0054721D01*
X0115156Y0053522D02*
X0116548Y0053522D01*
X0116323Y0052324D02*
X0115381Y0052324D01*
X0115381Y0051125D02*
X0116323Y0051125D01*
X0116380Y0049927D02*
X0115324Y0049927D01*
X0114828Y0048728D02*
X0116876Y0048728D01*
X0117373Y0047530D02*
X0114331Y0047530D01*
X0114198Y0046331D02*
X0118479Y0046331D01*
X0119931Y0045133D02*
X0114198Y0045133D01*
X0111873Y0045133D02*
X0111773Y0045133D01*
X0111885Y0043934D02*
X0027417Y0043934D01*
X0027429Y0042736D02*
X0111898Y0042736D01*
X0111910Y0041537D02*
X0027442Y0041537D01*
X0027454Y0040339D02*
X0111923Y0040339D01*
X0111935Y0039140D02*
X0027467Y0039140D01*
X0027479Y0037942D02*
X0111948Y0037942D01*
X0111960Y0036743D02*
X0027492Y0036743D01*
X0027504Y0035545D02*
X0111973Y0035545D01*
X0104341Y0045133D02*
X0027404Y0045133D01*
X0027392Y0046331D02*
X0102889Y0046331D01*
X0101782Y0047530D02*
X0027379Y0047530D01*
X0028366Y0069103D02*
X0029929Y0069103D01*
X0030668Y0070301D02*
X0031127Y0070301D01*
X0064041Y0072368D02*
X0064041Y0062427D01*
X0066432Y0077492D02*
X0074331Y0077492D01*
X0078874Y0081088D02*
X0080074Y0081088D01*
X0080074Y0082286D02*
X0078874Y0082286D01*
X0078874Y0083485D02*
X0080074Y0083485D01*
X0084064Y0083485D02*
X0085159Y0083485D01*
X0088992Y0083485D02*
X0090192Y0083485D01*
X0090192Y0082286D02*
X0088992Y0082286D01*
X0088992Y0081088D02*
X0090192Y0081088D01*
X0097501Y0058316D02*
X0105322Y0058316D01*
X0103295Y0057118D02*
X0097501Y0057118D01*
X0097501Y0055919D02*
X0102096Y0055919D01*
X0101454Y0054721D02*
X0097501Y0054721D01*
X0097501Y0053522D02*
X0100958Y0053522D01*
X0100732Y0052324D02*
X0097501Y0052324D01*
X0096855Y0051125D02*
X0100732Y0051125D01*
X0114198Y0069103D02*
X0132702Y0069103D01*
X0132702Y0070301D02*
X0114198Y0070301D01*
X0135102Y0045133D02*
X0135522Y0045133D01*
X0089716Y0023559D02*
X0088516Y0023559D01*
X0088516Y0022361D02*
X0089716Y0022361D01*
X0085715Y0022361D02*
X0081168Y0022361D01*
X0082117Y0023559D02*
X0084597Y0023559D01*
X0084563Y0024758D02*
X0082137Y0024758D01*
X0082137Y0027155D02*
X0084563Y0027155D01*
X0078184Y0023559D02*
X0076984Y0023559D01*
X0076984Y0022361D02*
X0078184Y0022361D01*
X0028598Y0148205D02*
X0016511Y0148205D01*
X0016511Y0149403D02*
X0026224Y0149403D01*
X0025025Y0150602D02*
X0016511Y0150602D01*
X0016511Y0151800D02*
X0024325Y0151800D01*
X0023829Y0152999D02*
X0016511Y0152999D01*
X0016511Y0154197D02*
X0023643Y0154197D01*
X0023643Y0155396D02*
X0016511Y0155396D01*
X0016511Y0156594D02*
X0023643Y0156594D01*
X0023643Y0157793D02*
X0016511Y0157793D01*
X0016511Y0158991D02*
X0023643Y0158991D01*
X0023643Y0160190D02*
X0016511Y0160190D01*
X0016511Y0161388D02*
X0023643Y0161388D01*
X0023643Y0162587D02*
X0016511Y0162587D01*
X0016511Y0163785D02*
X0023643Y0163785D01*
X0023643Y0164984D02*
X0016511Y0164984D01*
X0016511Y0166182D02*
X0023654Y0166182D01*
X0024151Y0167381D02*
X0016511Y0167381D01*
X0016511Y0168579D02*
X0024647Y0168579D01*
X0025803Y0169778D02*
X0016511Y0169778D01*
X0016511Y0170976D02*
X0027582Y0170976D01*
X0086990Y0149403D02*
X0098752Y0149403D01*
X0096373Y0150602D02*
X0089041Y0150602D01*
X0090240Y0151800D02*
X0095238Y0151800D01*
X0094535Y0152999D02*
X0090760Y0152999D01*
X0091257Y0154197D02*
X0094149Y0154197D01*
X0094016Y0155396D02*
X0091274Y0155396D01*
X0091274Y0156594D02*
X0094016Y0156594D01*
X0094016Y0157793D02*
X0091274Y0157793D01*
X0091535Y0158991D02*
X0094016Y0158991D01*
D30*
X0117348Y0137427D03*
X0123254Y0137427D03*
X0128765Y0137427D03*
X0134671Y0135104D03*
X0128765Y0131521D03*
X0134671Y0129986D03*
X0134671Y0125065D03*
X0128765Y0125616D03*
X0123254Y0125616D03*
X0123254Y0131521D03*
X0117348Y0131521D03*
X0117348Y0125616D03*
X0117348Y0119710D03*
X0123254Y0119710D03*
X0128765Y0119710D03*
X0150419Y0125065D03*
X0150419Y0129986D03*
X0150419Y0135104D03*
X0157112Y0134277D03*
X0162624Y0134277D03*
X0162624Y0139002D03*
X0157112Y0139002D03*
X0167742Y0139002D03*
X0167742Y0134277D03*
X0091561Y0091167D03*
X0091561Y0086443D03*
X0086443Y0086443D03*
X0086443Y0091167D03*
X0080931Y0091167D03*
X0080931Y0086443D03*
X0069120Y0088805D03*
X0069120Y0083883D03*
X0069120Y0078962D03*
X0053765Y0078962D03*
X0053765Y0083883D03*
X0053765Y0088805D03*
X0047663Y0086246D03*
X0042151Y0086246D03*
X0042151Y0092151D03*
X0047663Y0092151D03*
X0036246Y0092151D03*
X0036246Y0086246D03*
X0036246Y0080340D03*
X0042151Y0080340D03*
X0047663Y0080340D03*
X0047663Y0074435D03*
X0042151Y0074435D03*
X0036246Y0074435D03*
D31*
X0035423Y0046847D03*
X0040738Y0046847D03*
X0046053Y0046847D03*
X0051959Y0046847D03*
X0052156Y0041729D03*
X0052156Y0036611D03*
X0052156Y0031493D03*
X0030108Y0046847D03*
X0073126Y0097111D03*
X0083096Y0097269D03*
X0115680Y0084277D03*
X0115680Y0079946D03*
X0121679Y0072860D03*
X0120498Y0065773D03*
X0116167Y0065773D03*
X0116167Y0061049D03*
X0120498Y0061049D03*
X0126009Y0061049D03*
X0130340Y0061049D03*
X0130340Y0065773D03*
X0126009Y0065773D03*
X0129553Y0072860D03*
X0130734Y0040970D03*
X0130734Y0036246D03*
X0116561Y0036246D03*
X0116561Y0040970D03*
X0166167Y0128372D03*
D32*
X0147269Y0149631D03*
X0134474Y0152191D03*
X0118135Y0146482D03*
X0037820Y0100419D03*
X0069317Y0068135D03*
X0069317Y0064592D03*
X0069317Y0061049D03*
X0069317Y0057506D03*
X0069317Y0053962D03*
X0083096Y0054750D03*
X0083096Y0058293D03*
X0087820Y0058293D03*
X0087820Y0054750D03*
X0092545Y0054750D03*
X0092545Y0058293D03*
X0136443Y0031364D03*
D33*
X0152387Y0105931D03*
X0152387Y0109868D03*
X0152387Y0113805D03*
X0148450Y0113805D03*
X0156718Y0109868D03*
X0160655Y0109868D03*
X0160655Y0105931D03*
X0156718Y0105931D03*
D34*
X0185970Y0038332D02*
X0185970Y0026757D01*
X0186128Y0026600D01*
X0185655Y0038017D02*
X0185970Y0038332D01*
X0123647Y0038332D02*
X0123647Y0026639D01*
X0123608Y0026600D01*
X0108057Y0026574D02*
X0108057Y0038332D01*
X0108057Y0026574D02*
X0108038Y0026555D01*
D35*
X0136443Y0029474D02*
X0139277Y0026639D01*
X0136443Y0029474D02*
X0136443Y0031364D01*
X0176206Y0026009D02*
X0185931Y0026009D01*
X0186128Y0026600D01*
X0148254Y0083687D02*
X0145301Y0086639D01*
X0145301Y0087663D01*
X0121482Y0146482D02*
X0118135Y0146482D01*
X0076797Y0112935D02*
X0076718Y0112226D01*
X0076797Y0104946D02*
X0076679Y0103883D01*
X0041592Y0100092D02*
X0040738Y0100419D01*
X0037820Y0100419D01*
D36*
X0048175Y0101521D02*
X0048285Y0100092D01*
X0048175Y0101521D02*
X0050261Y0101521D01*
X0053805Y0097978D01*
X0053805Y0095399D01*
X0056364Y0095399D02*
X0056364Y0098883D01*
X0044907Y0110340D01*
X0044907Y0112033D01*
X0044907Y0118726D02*
X0051669Y0113145D01*
X0053131Y0113145D01*
X0053175Y0113102D01*
X0053175Y0107545D01*
X0061443Y0107348D02*
X0061403Y0104789D01*
X0061403Y0093943D01*
X0061482Y0095399D01*
X0064041Y0095399D02*
X0064041Y0102269D01*
X0067230Y0105458D01*
X0070931Y0103844D02*
X0077820Y0103844D01*
X0070931Y0103844D02*
X0066600Y0099513D01*
X0066600Y0095399D01*
X0061443Y0107348D02*
X0061443Y0112033D01*
X0126009Y0156128D02*
X0126443Y0155734D01*
X0137427Y0144750D01*
X0137427Y0141462D01*
X0134868Y0141462D02*
X0134868Y0143923D01*
X0132309Y0146482D01*
X0128175Y0146482D01*
X0134277Y0152387D02*
X0134277Y0156128D01*
X0134474Y0155734D01*
X0133293Y0155931D02*
X0126797Y0162427D01*
X0126009Y0162820D01*
X0125419Y0162427D01*
X0134277Y0152387D02*
X0134474Y0152191D01*
X0142545Y0156128D02*
X0142545Y0141462D01*
X0145104Y0141462D02*
X0145104Y0147466D01*
X0147269Y0149631D01*
X0151206Y0148844D02*
X0147663Y0145301D01*
X0147663Y0141462D01*
X0150222Y0141462D02*
X0150222Y0144159D01*
X0151206Y0145143D01*
X0175318Y0145143D01*
X0176403Y0144058D01*
X0164395Y0148844D02*
X0164395Y0157112D01*
X0157702Y0157112D02*
X0157702Y0148844D01*
X0151206Y0148844D01*
X0150813Y0156128D02*
X0156324Y0156128D01*
X0157702Y0157112D01*
X0145104Y0118431D02*
X0145104Y0108293D01*
X0146088Y0107309D01*
D37*
X0153962Y0096324D02*
X0145301Y0087663D01*
X0153962Y0096324D02*
X0164592Y0096324D01*
X0176403Y0108529D01*
X0176403Y0123970D01*
X0180372Y0127939D01*
X0188608Y0127939D01*
X0176403Y0123970D02*
X0176403Y0144058D01*
X0176403Y0148687D01*
X0181128Y0153411D01*
X0188490Y0153411D01*
X0188608Y0153529D01*
M02*
