G75*
%MOIN*%
%OFA0B0*%
%FSLAX25Y25*%
%IPPOS*%
%LPD*%
%AMOC8*
5,1,8,0,0,1.08239X$1,22.5*
%
%ADD10C,0.01000*%
%ADD11C,0.00000*%
%ADD12C,0.13386*%
%ADD13OC8,0.06600*%
%ADD14C,0.09449*%
%ADD15C,0.06000*%
%ADD16C,0.10000*%
%ADD17C,0.09449*%
D10*
X0023254Y0014828D02*
X0192545Y0014828D01*
X0192783Y0014831D01*
X0193021Y0014839D01*
X0193258Y0014854D01*
X0193495Y0014874D01*
X0193731Y0014900D01*
X0193967Y0014931D01*
X0194202Y0014968D01*
X0194436Y0015011D01*
X0194669Y0015060D01*
X0194901Y0015114D01*
X0195131Y0015174D01*
X0195360Y0015239D01*
X0195587Y0015310D01*
X0195812Y0015386D01*
X0196035Y0015468D01*
X0196257Y0015555D01*
X0196476Y0015647D01*
X0196693Y0015745D01*
X0196907Y0015847D01*
X0197119Y0015955D01*
X0197329Y0016069D01*
X0197535Y0016187D01*
X0197739Y0016310D01*
X0197939Y0016438D01*
X0198136Y0016570D01*
X0198331Y0016708D01*
X0198521Y0016850D01*
X0198709Y0016997D01*
X0198892Y0017148D01*
X0199072Y0017303D01*
X0199248Y0017463D01*
X0199420Y0017627D01*
X0199589Y0017796D01*
X0199753Y0017968D01*
X0199913Y0018144D01*
X0200068Y0018324D01*
X0200219Y0018507D01*
X0200366Y0018695D01*
X0200508Y0018885D01*
X0200646Y0019080D01*
X0200778Y0019277D01*
X0200906Y0019477D01*
X0201029Y0019681D01*
X0201147Y0019887D01*
X0201261Y0020097D01*
X0201369Y0020309D01*
X0201471Y0020523D01*
X0201569Y0020740D01*
X0201661Y0020959D01*
X0201748Y0021181D01*
X0201830Y0021404D01*
X0201906Y0021629D01*
X0201977Y0021856D01*
X0202042Y0022085D01*
X0202102Y0022315D01*
X0202156Y0022547D01*
X0202205Y0022780D01*
X0202248Y0023014D01*
X0202285Y0023249D01*
X0202316Y0023485D01*
X0202342Y0023721D01*
X0202362Y0023958D01*
X0202377Y0024195D01*
X0202385Y0024433D01*
X0202388Y0024671D01*
X0202387Y0024671D02*
X0202387Y0176246D01*
X0202388Y0176246D02*
X0202385Y0176484D01*
X0202377Y0176722D01*
X0202362Y0176959D01*
X0202342Y0177196D01*
X0202316Y0177432D01*
X0202285Y0177668D01*
X0202248Y0177903D01*
X0202205Y0178137D01*
X0202156Y0178370D01*
X0202102Y0178602D01*
X0202042Y0178832D01*
X0201977Y0179061D01*
X0201906Y0179288D01*
X0201830Y0179513D01*
X0201748Y0179736D01*
X0201661Y0179958D01*
X0201569Y0180177D01*
X0201471Y0180394D01*
X0201369Y0180608D01*
X0201261Y0180820D01*
X0201147Y0181030D01*
X0201029Y0181236D01*
X0200906Y0181440D01*
X0200778Y0181640D01*
X0200646Y0181837D01*
X0200508Y0182032D01*
X0200366Y0182222D01*
X0200219Y0182410D01*
X0200068Y0182593D01*
X0199913Y0182773D01*
X0199753Y0182949D01*
X0199589Y0183121D01*
X0199420Y0183290D01*
X0199248Y0183454D01*
X0199072Y0183614D01*
X0198892Y0183769D01*
X0198709Y0183920D01*
X0198521Y0184067D01*
X0198331Y0184209D01*
X0198136Y0184347D01*
X0197939Y0184479D01*
X0197739Y0184607D01*
X0197535Y0184730D01*
X0197329Y0184848D01*
X0197119Y0184962D01*
X0196907Y0185070D01*
X0196693Y0185172D01*
X0196476Y0185270D01*
X0196257Y0185362D01*
X0196035Y0185449D01*
X0195812Y0185531D01*
X0195587Y0185607D01*
X0195360Y0185678D01*
X0195131Y0185743D01*
X0194901Y0185803D01*
X0194669Y0185857D01*
X0194436Y0185906D01*
X0194202Y0185949D01*
X0193967Y0185986D01*
X0193731Y0186017D01*
X0193495Y0186043D01*
X0193258Y0186063D01*
X0193021Y0186078D01*
X0192783Y0186086D01*
X0192545Y0186089D01*
X0192545Y0186088D02*
X0023254Y0186088D01*
X0013411Y0178214D02*
X0013411Y0026639D01*
X0013412Y0026639D02*
X0013391Y0026373D01*
X0013376Y0026107D01*
X0013369Y0025840D01*
X0013367Y0025573D01*
X0013373Y0025307D01*
X0013384Y0025040D01*
X0013403Y0024774D01*
X0013428Y0024508D01*
X0013459Y0024243D01*
X0013497Y0023979D01*
X0013541Y0023716D01*
X0013592Y0023454D01*
X0013649Y0023194D01*
X0013713Y0022934D01*
X0013783Y0022677D01*
X0013859Y0022421D01*
X0013942Y0022167D01*
X0014030Y0021916D01*
X0014125Y0021666D01*
X0014226Y0021419D01*
X0014333Y0021175D01*
X0014446Y0020933D01*
X0014565Y0020694D01*
X0014689Y0020459D01*
X0014820Y0020226D01*
X0014956Y0019996D01*
X0015098Y0019770D01*
X0015245Y0019548D01*
X0015397Y0019329D01*
X0015555Y0019114D01*
X0015718Y0018903D01*
X0015887Y0018696D01*
X0016060Y0018493D01*
X0016238Y0018294D01*
X0016421Y0018100D01*
X0016609Y0017910D01*
X0016801Y0017726D01*
X0016998Y0017545D01*
X0017199Y0017370D01*
X0017405Y0017200D01*
X0017614Y0017035D01*
X0017828Y0016875D01*
X0018045Y0016720D01*
X0018266Y0016571D01*
X0018491Y0016427D01*
X0018719Y0016289D01*
X0018951Y0016156D01*
X0019186Y0016029D01*
X0019423Y0015908D01*
X0019664Y0015793D01*
X0019907Y0015684D01*
X0020153Y0015581D01*
X0020402Y0015483D01*
X0020653Y0015392D01*
X0020906Y0015307D01*
X0021161Y0015229D01*
X0021417Y0015156D01*
X0021676Y0015090D01*
X0021936Y0015031D01*
X0022197Y0014977D01*
X0022460Y0014930D01*
X0022724Y0014890D01*
X0022988Y0014856D01*
X0023254Y0014829D01*
X0013411Y0178214D02*
X0013437Y0178428D01*
X0013468Y0178641D01*
X0013505Y0178853D01*
X0013547Y0179065D01*
X0013594Y0179275D01*
X0013646Y0179484D01*
X0013703Y0179692D01*
X0013765Y0179898D01*
X0013832Y0180103D01*
X0013903Y0180306D01*
X0013980Y0180507D01*
X0014062Y0180706D01*
X0014148Y0180904D01*
X0014239Y0181099D01*
X0014335Y0181292D01*
X0014436Y0181482D01*
X0014541Y0181670D01*
X0014650Y0181856D01*
X0014764Y0182038D01*
X0014883Y0182218D01*
X0015005Y0182395D01*
X0015132Y0182569D01*
X0015263Y0182740D01*
X0015399Y0182908D01*
X0015538Y0183072D01*
X0015681Y0183233D01*
X0015828Y0183391D01*
X0015979Y0183544D01*
X0016133Y0183695D01*
X0016291Y0183841D01*
X0016453Y0183984D01*
X0016617Y0184122D01*
X0016786Y0184257D01*
X0016957Y0184387D01*
X0017131Y0184513D01*
X0017309Y0184635D01*
X0017489Y0184753D01*
X0017673Y0184866D01*
X0017858Y0184975D01*
X0018047Y0185080D01*
X0018238Y0185179D01*
X0018431Y0185274D01*
X0018627Y0185365D01*
X0018824Y0185450D01*
X0019024Y0185531D01*
X0019225Y0185607D01*
X0019429Y0185678D01*
X0019634Y0185744D01*
X0019840Y0185806D01*
X0020048Y0185862D01*
X0020257Y0185913D01*
X0020468Y0185959D01*
X0020679Y0186000D01*
X0020892Y0186036D01*
X0021105Y0186067D01*
X0021319Y0186092D01*
X0021533Y0186113D01*
X0021748Y0186128D01*
X0021963Y0186138D01*
X0022178Y0186143D01*
X0022394Y0186142D01*
X0022609Y0186137D01*
X0022824Y0186126D01*
X0023039Y0186110D01*
X0023253Y0186088D01*
D11*
X0018293Y0077761D02*
X0018295Y0077925D01*
X0018301Y0078089D01*
X0018311Y0078253D01*
X0018325Y0078417D01*
X0018343Y0078580D01*
X0018365Y0078743D01*
X0018392Y0078905D01*
X0018422Y0079067D01*
X0018456Y0079227D01*
X0018494Y0079387D01*
X0018535Y0079546D01*
X0018581Y0079704D01*
X0018631Y0079860D01*
X0018684Y0080016D01*
X0018741Y0080170D01*
X0018802Y0080322D01*
X0018867Y0080473D01*
X0018936Y0080623D01*
X0019008Y0080770D01*
X0019083Y0080916D01*
X0019163Y0081060D01*
X0019245Y0081202D01*
X0019331Y0081342D01*
X0019421Y0081479D01*
X0019514Y0081615D01*
X0019610Y0081748D01*
X0019710Y0081879D01*
X0019812Y0082007D01*
X0019918Y0082133D01*
X0020027Y0082256D01*
X0020139Y0082376D01*
X0020253Y0082494D01*
X0020371Y0082608D01*
X0020491Y0082720D01*
X0020614Y0082829D01*
X0020740Y0082935D01*
X0020868Y0083037D01*
X0020999Y0083137D01*
X0021132Y0083233D01*
X0021268Y0083326D01*
X0021405Y0083416D01*
X0021545Y0083502D01*
X0021687Y0083584D01*
X0021831Y0083664D01*
X0021977Y0083739D01*
X0022124Y0083811D01*
X0022274Y0083880D01*
X0022425Y0083945D01*
X0022577Y0084006D01*
X0022731Y0084063D01*
X0022887Y0084116D01*
X0023043Y0084166D01*
X0023201Y0084212D01*
X0023360Y0084253D01*
X0023520Y0084291D01*
X0023680Y0084325D01*
X0023842Y0084355D01*
X0024004Y0084382D01*
X0024167Y0084404D01*
X0024330Y0084422D01*
X0024494Y0084436D01*
X0024658Y0084446D01*
X0024822Y0084452D01*
X0024986Y0084454D01*
X0025150Y0084452D01*
X0025314Y0084446D01*
X0025478Y0084436D01*
X0025642Y0084422D01*
X0025805Y0084404D01*
X0025968Y0084382D01*
X0026130Y0084355D01*
X0026292Y0084325D01*
X0026452Y0084291D01*
X0026612Y0084253D01*
X0026771Y0084212D01*
X0026929Y0084166D01*
X0027085Y0084116D01*
X0027241Y0084063D01*
X0027395Y0084006D01*
X0027547Y0083945D01*
X0027698Y0083880D01*
X0027848Y0083811D01*
X0027995Y0083739D01*
X0028141Y0083664D01*
X0028285Y0083584D01*
X0028427Y0083502D01*
X0028567Y0083416D01*
X0028704Y0083326D01*
X0028840Y0083233D01*
X0028973Y0083137D01*
X0029104Y0083037D01*
X0029232Y0082935D01*
X0029358Y0082829D01*
X0029481Y0082720D01*
X0029601Y0082608D01*
X0029719Y0082494D01*
X0029833Y0082376D01*
X0029945Y0082256D01*
X0030054Y0082133D01*
X0030160Y0082007D01*
X0030262Y0081879D01*
X0030362Y0081748D01*
X0030458Y0081615D01*
X0030551Y0081479D01*
X0030641Y0081342D01*
X0030727Y0081202D01*
X0030809Y0081060D01*
X0030889Y0080916D01*
X0030964Y0080770D01*
X0031036Y0080623D01*
X0031105Y0080473D01*
X0031170Y0080322D01*
X0031231Y0080170D01*
X0031288Y0080016D01*
X0031341Y0079860D01*
X0031391Y0079704D01*
X0031437Y0079546D01*
X0031478Y0079387D01*
X0031516Y0079227D01*
X0031550Y0079067D01*
X0031580Y0078905D01*
X0031607Y0078743D01*
X0031629Y0078580D01*
X0031647Y0078417D01*
X0031661Y0078253D01*
X0031671Y0078089D01*
X0031677Y0077925D01*
X0031679Y0077761D01*
X0031677Y0077597D01*
X0031671Y0077433D01*
X0031661Y0077269D01*
X0031647Y0077105D01*
X0031629Y0076942D01*
X0031607Y0076779D01*
X0031580Y0076617D01*
X0031550Y0076455D01*
X0031516Y0076295D01*
X0031478Y0076135D01*
X0031437Y0075976D01*
X0031391Y0075818D01*
X0031341Y0075662D01*
X0031288Y0075506D01*
X0031231Y0075352D01*
X0031170Y0075200D01*
X0031105Y0075049D01*
X0031036Y0074899D01*
X0030964Y0074752D01*
X0030889Y0074606D01*
X0030809Y0074462D01*
X0030727Y0074320D01*
X0030641Y0074180D01*
X0030551Y0074043D01*
X0030458Y0073907D01*
X0030362Y0073774D01*
X0030262Y0073643D01*
X0030160Y0073515D01*
X0030054Y0073389D01*
X0029945Y0073266D01*
X0029833Y0073146D01*
X0029719Y0073028D01*
X0029601Y0072914D01*
X0029481Y0072802D01*
X0029358Y0072693D01*
X0029232Y0072587D01*
X0029104Y0072485D01*
X0028973Y0072385D01*
X0028840Y0072289D01*
X0028704Y0072196D01*
X0028567Y0072106D01*
X0028427Y0072020D01*
X0028285Y0071938D01*
X0028141Y0071858D01*
X0027995Y0071783D01*
X0027848Y0071711D01*
X0027698Y0071642D01*
X0027547Y0071577D01*
X0027395Y0071516D01*
X0027241Y0071459D01*
X0027085Y0071406D01*
X0026929Y0071356D01*
X0026771Y0071310D01*
X0026612Y0071269D01*
X0026452Y0071231D01*
X0026292Y0071197D01*
X0026130Y0071167D01*
X0025968Y0071140D01*
X0025805Y0071118D01*
X0025642Y0071100D01*
X0025478Y0071086D01*
X0025314Y0071076D01*
X0025150Y0071070D01*
X0024986Y0071068D01*
X0024822Y0071070D01*
X0024658Y0071076D01*
X0024494Y0071086D01*
X0024330Y0071100D01*
X0024167Y0071118D01*
X0024004Y0071140D01*
X0023842Y0071167D01*
X0023680Y0071197D01*
X0023520Y0071231D01*
X0023360Y0071269D01*
X0023201Y0071310D01*
X0023043Y0071356D01*
X0022887Y0071406D01*
X0022731Y0071459D01*
X0022577Y0071516D01*
X0022425Y0071577D01*
X0022274Y0071642D01*
X0022124Y0071711D01*
X0021977Y0071783D01*
X0021831Y0071858D01*
X0021687Y0071938D01*
X0021545Y0072020D01*
X0021405Y0072106D01*
X0021268Y0072196D01*
X0021132Y0072289D01*
X0020999Y0072385D01*
X0020868Y0072485D01*
X0020740Y0072587D01*
X0020614Y0072693D01*
X0020491Y0072802D01*
X0020371Y0072914D01*
X0020253Y0073028D01*
X0020139Y0073146D01*
X0020027Y0073266D01*
X0019918Y0073389D01*
X0019812Y0073515D01*
X0019710Y0073643D01*
X0019610Y0073774D01*
X0019514Y0073907D01*
X0019421Y0074043D01*
X0019331Y0074180D01*
X0019245Y0074320D01*
X0019163Y0074462D01*
X0019083Y0074606D01*
X0019008Y0074752D01*
X0018936Y0074899D01*
X0018867Y0075049D01*
X0018802Y0075200D01*
X0018741Y0075352D01*
X0018684Y0075506D01*
X0018631Y0075662D01*
X0018581Y0075818D01*
X0018535Y0075976D01*
X0018494Y0076135D01*
X0018456Y0076295D01*
X0018422Y0076455D01*
X0018392Y0076617D01*
X0018365Y0076779D01*
X0018343Y0076942D01*
X0018325Y0077105D01*
X0018311Y0077269D01*
X0018301Y0077433D01*
X0018295Y0077597D01*
X0018293Y0077761D01*
X0103333Y0051521D02*
X0103335Y0051658D01*
X0103341Y0051796D01*
X0103351Y0051933D01*
X0103365Y0052069D01*
X0103383Y0052206D01*
X0103405Y0052341D01*
X0103431Y0052476D01*
X0103460Y0052610D01*
X0103494Y0052744D01*
X0103531Y0052876D01*
X0103573Y0053007D01*
X0103618Y0053137D01*
X0103667Y0053265D01*
X0103719Y0053392D01*
X0103776Y0053517D01*
X0103835Y0053641D01*
X0103899Y0053763D01*
X0103966Y0053883D01*
X0104036Y0054001D01*
X0104110Y0054117D01*
X0104187Y0054231D01*
X0104268Y0054342D01*
X0104351Y0054451D01*
X0104438Y0054558D01*
X0104528Y0054661D01*
X0104621Y0054763D01*
X0104717Y0054861D01*
X0104815Y0054957D01*
X0104917Y0055050D01*
X0105020Y0055140D01*
X0105127Y0055227D01*
X0105236Y0055310D01*
X0105347Y0055391D01*
X0105461Y0055468D01*
X0105577Y0055542D01*
X0105695Y0055612D01*
X0105815Y0055679D01*
X0105937Y0055743D01*
X0106061Y0055802D01*
X0106186Y0055859D01*
X0106313Y0055911D01*
X0106441Y0055960D01*
X0106571Y0056005D01*
X0106702Y0056047D01*
X0106834Y0056084D01*
X0106968Y0056118D01*
X0107102Y0056147D01*
X0107237Y0056173D01*
X0107372Y0056195D01*
X0107509Y0056213D01*
X0107645Y0056227D01*
X0107782Y0056237D01*
X0107920Y0056243D01*
X0108057Y0056245D01*
X0108194Y0056243D01*
X0108332Y0056237D01*
X0108469Y0056227D01*
X0108605Y0056213D01*
X0108742Y0056195D01*
X0108877Y0056173D01*
X0109012Y0056147D01*
X0109146Y0056118D01*
X0109280Y0056084D01*
X0109412Y0056047D01*
X0109543Y0056005D01*
X0109673Y0055960D01*
X0109801Y0055911D01*
X0109928Y0055859D01*
X0110053Y0055802D01*
X0110177Y0055743D01*
X0110299Y0055679D01*
X0110419Y0055612D01*
X0110537Y0055542D01*
X0110653Y0055468D01*
X0110767Y0055391D01*
X0110878Y0055310D01*
X0110987Y0055227D01*
X0111094Y0055140D01*
X0111197Y0055050D01*
X0111299Y0054957D01*
X0111397Y0054861D01*
X0111493Y0054763D01*
X0111586Y0054661D01*
X0111676Y0054558D01*
X0111763Y0054451D01*
X0111846Y0054342D01*
X0111927Y0054231D01*
X0112004Y0054117D01*
X0112078Y0054001D01*
X0112148Y0053883D01*
X0112215Y0053763D01*
X0112279Y0053641D01*
X0112338Y0053517D01*
X0112395Y0053392D01*
X0112447Y0053265D01*
X0112496Y0053137D01*
X0112541Y0053007D01*
X0112583Y0052876D01*
X0112620Y0052744D01*
X0112654Y0052610D01*
X0112683Y0052476D01*
X0112709Y0052341D01*
X0112731Y0052206D01*
X0112749Y0052069D01*
X0112763Y0051933D01*
X0112773Y0051796D01*
X0112779Y0051658D01*
X0112781Y0051521D01*
X0112779Y0051384D01*
X0112773Y0051246D01*
X0112763Y0051109D01*
X0112749Y0050973D01*
X0112731Y0050836D01*
X0112709Y0050701D01*
X0112683Y0050566D01*
X0112654Y0050432D01*
X0112620Y0050298D01*
X0112583Y0050166D01*
X0112541Y0050035D01*
X0112496Y0049905D01*
X0112447Y0049777D01*
X0112395Y0049650D01*
X0112338Y0049525D01*
X0112279Y0049401D01*
X0112215Y0049279D01*
X0112148Y0049159D01*
X0112078Y0049041D01*
X0112004Y0048925D01*
X0111927Y0048811D01*
X0111846Y0048700D01*
X0111763Y0048591D01*
X0111676Y0048484D01*
X0111586Y0048381D01*
X0111493Y0048279D01*
X0111397Y0048181D01*
X0111299Y0048085D01*
X0111197Y0047992D01*
X0111094Y0047902D01*
X0110987Y0047815D01*
X0110878Y0047732D01*
X0110767Y0047651D01*
X0110653Y0047574D01*
X0110537Y0047500D01*
X0110419Y0047430D01*
X0110299Y0047363D01*
X0110177Y0047299D01*
X0110053Y0047240D01*
X0109928Y0047183D01*
X0109801Y0047131D01*
X0109673Y0047082D01*
X0109543Y0047037D01*
X0109412Y0046995D01*
X0109280Y0046958D01*
X0109146Y0046924D01*
X0109012Y0046895D01*
X0108877Y0046869D01*
X0108742Y0046847D01*
X0108605Y0046829D01*
X0108469Y0046815D01*
X0108332Y0046805D01*
X0108194Y0046799D01*
X0108057Y0046797D01*
X0107920Y0046799D01*
X0107782Y0046805D01*
X0107645Y0046815D01*
X0107509Y0046829D01*
X0107372Y0046847D01*
X0107237Y0046869D01*
X0107102Y0046895D01*
X0106968Y0046924D01*
X0106834Y0046958D01*
X0106702Y0046995D01*
X0106571Y0047037D01*
X0106441Y0047082D01*
X0106313Y0047131D01*
X0106186Y0047183D01*
X0106061Y0047240D01*
X0105937Y0047299D01*
X0105815Y0047363D01*
X0105695Y0047430D01*
X0105577Y0047500D01*
X0105461Y0047574D01*
X0105347Y0047651D01*
X0105236Y0047732D01*
X0105127Y0047815D01*
X0105020Y0047902D01*
X0104917Y0047992D01*
X0104815Y0048085D01*
X0104717Y0048181D01*
X0104621Y0048279D01*
X0104528Y0048381D01*
X0104438Y0048484D01*
X0104351Y0048591D01*
X0104268Y0048700D01*
X0104187Y0048811D01*
X0104110Y0048925D01*
X0104036Y0049041D01*
X0103966Y0049159D01*
X0103899Y0049279D01*
X0103835Y0049401D01*
X0103776Y0049525D01*
X0103719Y0049650D01*
X0103667Y0049777D01*
X0103618Y0049905D01*
X0103573Y0050035D01*
X0103531Y0050166D01*
X0103494Y0050298D01*
X0103460Y0050432D01*
X0103431Y0050566D01*
X0103405Y0050701D01*
X0103383Y0050836D01*
X0103365Y0050973D01*
X0103351Y0051109D01*
X0103341Y0051246D01*
X0103335Y0051384D01*
X0103333Y0051521D01*
X0118923Y0051521D02*
X0118925Y0051658D01*
X0118931Y0051796D01*
X0118941Y0051933D01*
X0118955Y0052069D01*
X0118973Y0052206D01*
X0118995Y0052341D01*
X0119021Y0052476D01*
X0119050Y0052610D01*
X0119084Y0052744D01*
X0119121Y0052876D01*
X0119163Y0053007D01*
X0119208Y0053137D01*
X0119257Y0053265D01*
X0119309Y0053392D01*
X0119366Y0053517D01*
X0119425Y0053641D01*
X0119489Y0053763D01*
X0119556Y0053883D01*
X0119626Y0054001D01*
X0119700Y0054117D01*
X0119777Y0054231D01*
X0119858Y0054342D01*
X0119941Y0054451D01*
X0120028Y0054558D01*
X0120118Y0054661D01*
X0120211Y0054763D01*
X0120307Y0054861D01*
X0120405Y0054957D01*
X0120507Y0055050D01*
X0120610Y0055140D01*
X0120717Y0055227D01*
X0120826Y0055310D01*
X0120937Y0055391D01*
X0121051Y0055468D01*
X0121167Y0055542D01*
X0121285Y0055612D01*
X0121405Y0055679D01*
X0121527Y0055743D01*
X0121651Y0055802D01*
X0121776Y0055859D01*
X0121903Y0055911D01*
X0122031Y0055960D01*
X0122161Y0056005D01*
X0122292Y0056047D01*
X0122424Y0056084D01*
X0122558Y0056118D01*
X0122692Y0056147D01*
X0122827Y0056173D01*
X0122962Y0056195D01*
X0123099Y0056213D01*
X0123235Y0056227D01*
X0123372Y0056237D01*
X0123510Y0056243D01*
X0123647Y0056245D01*
X0123784Y0056243D01*
X0123922Y0056237D01*
X0124059Y0056227D01*
X0124195Y0056213D01*
X0124332Y0056195D01*
X0124467Y0056173D01*
X0124602Y0056147D01*
X0124736Y0056118D01*
X0124870Y0056084D01*
X0125002Y0056047D01*
X0125133Y0056005D01*
X0125263Y0055960D01*
X0125391Y0055911D01*
X0125518Y0055859D01*
X0125643Y0055802D01*
X0125767Y0055743D01*
X0125889Y0055679D01*
X0126009Y0055612D01*
X0126127Y0055542D01*
X0126243Y0055468D01*
X0126357Y0055391D01*
X0126468Y0055310D01*
X0126577Y0055227D01*
X0126684Y0055140D01*
X0126787Y0055050D01*
X0126889Y0054957D01*
X0126987Y0054861D01*
X0127083Y0054763D01*
X0127176Y0054661D01*
X0127266Y0054558D01*
X0127353Y0054451D01*
X0127436Y0054342D01*
X0127517Y0054231D01*
X0127594Y0054117D01*
X0127668Y0054001D01*
X0127738Y0053883D01*
X0127805Y0053763D01*
X0127869Y0053641D01*
X0127928Y0053517D01*
X0127985Y0053392D01*
X0128037Y0053265D01*
X0128086Y0053137D01*
X0128131Y0053007D01*
X0128173Y0052876D01*
X0128210Y0052744D01*
X0128244Y0052610D01*
X0128273Y0052476D01*
X0128299Y0052341D01*
X0128321Y0052206D01*
X0128339Y0052069D01*
X0128353Y0051933D01*
X0128363Y0051796D01*
X0128369Y0051658D01*
X0128371Y0051521D01*
X0128369Y0051384D01*
X0128363Y0051246D01*
X0128353Y0051109D01*
X0128339Y0050973D01*
X0128321Y0050836D01*
X0128299Y0050701D01*
X0128273Y0050566D01*
X0128244Y0050432D01*
X0128210Y0050298D01*
X0128173Y0050166D01*
X0128131Y0050035D01*
X0128086Y0049905D01*
X0128037Y0049777D01*
X0127985Y0049650D01*
X0127928Y0049525D01*
X0127869Y0049401D01*
X0127805Y0049279D01*
X0127738Y0049159D01*
X0127668Y0049041D01*
X0127594Y0048925D01*
X0127517Y0048811D01*
X0127436Y0048700D01*
X0127353Y0048591D01*
X0127266Y0048484D01*
X0127176Y0048381D01*
X0127083Y0048279D01*
X0126987Y0048181D01*
X0126889Y0048085D01*
X0126787Y0047992D01*
X0126684Y0047902D01*
X0126577Y0047815D01*
X0126468Y0047732D01*
X0126357Y0047651D01*
X0126243Y0047574D01*
X0126127Y0047500D01*
X0126009Y0047430D01*
X0125889Y0047363D01*
X0125767Y0047299D01*
X0125643Y0047240D01*
X0125518Y0047183D01*
X0125391Y0047131D01*
X0125263Y0047082D01*
X0125133Y0047037D01*
X0125002Y0046995D01*
X0124870Y0046958D01*
X0124736Y0046924D01*
X0124602Y0046895D01*
X0124467Y0046869D01*
X0124332Y0046847D01*
X0124195Y0046829D01*
X0124059Y0046815D01*
X0123922Y0046805D01*
X0123784Y0046799D01*
X0123647Y0046797D01*
X0123510Y0046799D01*
X0123372Y0046805D01*
X0123235Y0046815D01*
X0123099Y0046829D01*
X0122962Y0046847D01*
X0122827Y0046869D01*
X0122692Y0046895D01*
X0122558Y0046924D01*
X0122424Y0046958D01*
X0122292Y0046995D01*
X0122161Y0047037D01*
X0122031Y0047082D01*
X0121903Y0047131D01*
X0121776Y0047183D01*
X0121651Y0047240D01*
X0121527Y0047299D01*
X0121405Y0047363D01*
X0121285Y0047430D01*
X0121167Y0047500D01*
X0121051Y0047574D01*
X0120937Y0047651D01*
X0120826Y0047732D01*
X0120717Y0047815D01*
X0120610Y0047902D01*
X0120507Y0047992D01*
X0120405Y0048085D01*
X0120307Y0048181D01*
X0120211Y0048279D01*
X0120118Y0048381D01*
X0120028Y0048484D01*
X0119941Y0048591D01*
X0119858Y0048700D01*
X0119777Y0048811D01*
X0119700Y0048925D01*
X0119626Y0049041D01*
X0119556Y0049159D01*
X0119489Y0049279D01*
X0119425Y0049401D01*
X0119366Y0049525D01*
X0119309Y0049650D01*
X0119257Y0049777D01*
X0119208Y0049905D01*
X0119163Y0050035D01*
X0119121Y0050166D01*
X0119084Y0050298D01*
X0119050Y0050432D01*
X0119021Y0050566D01*
X0118995Y0050701D01*
X0118973Y0050836D01*
X0118955Y0050973D01*
X0118941Y0051109D01*
X0118931Y0051246D01*
X0118925Y0051384D01*
X0118923Y0051521D01*
X0134514Y0051521D02*
X0134516Y0051658D01*
X0134522Y0051796D01*
X0134532Y0051933D01*
X0134546Y0052069D01*
X0134564Y0052206D01*
X0134586Y0052341D01*
X0134612Y0052476D01*
X0134641Y0052610D01*
X0134675Y0052744D01*
X0134712Y0052876D01*
X0134754Y0053007D01*
X0134799Y0053137D01*
X0134848Y0053265D01*
X0134900Y0053392D01*
X0134957Y0053517D01*
X0135016Y0053641D01*
X0135080Y0053763D01*
X0135147Y0053883D01*
X0135217Y0054001D01*
X0135291Y0054117D01*
X0135368Y0054231D01*
X0135449Y0054342D01*
X0135532Y0054451D01*
X0135619Y0054558D01*
X0135709Y0054661D01*
X0135802Y0054763D01*
X0135898Y0054861D01*
X0135996Y0054957D01*
X0136098Y0055050D01*
X0136201Y0055140D01*
X0136308Y0055227D01*
X0136417Y0055310D01*
X0136528Y0055391D01*
X0136642Y0055468D01*
X0136758Y0055542D01*
X0136876Y0055612D01*
X0136996Y0055679D01*
X0137118Y0055743D01*
X0137242Y0055802D01*
X0137367Y0055859D01*
X0137494Y0055911D01*
X0137622Y0055960D01*
X0137752Y0056005D01*
X0137883Y0056047D01*
X0138015Y0056084D01*
X0138149Y0056118D01*
X0138283Y0056147D01*
X0138418Y0056173D01*
X0138553Y0056195D01*
X0138690Y0056213D01*
X0138826Y0056227D01*
X0138963Y0056237D01*
X0139101Y0056243D01*
X0139238Y0056245D01*
X0139375Y0056243D01*
X0139513Y0056237D01*
X0139650Y0056227D01*
X0139786Y0056213D01*
X0139923Y0056195D01*
X0140058Y0056173D01*
X0140193Y0056147D01*
X0140327Y0056118D01*
X0140461Y0056084D01*
X0140593Y0056047D01*
X0140724Y0056005D01*
X0140854Y0055960D01*
X0140982Y0055911D01*
X0141109Y0055859D01*
X0141234Y0055802D01*
X0141358Y0055743D01*
X0141480Y0055679D01*
X0141600Y0055612D01*
X0141718Y0055542D01*
X0141834Y0055468D01*
X0141948Y0055391D01*
X0142059Y0055310D01*
X0142168Y0055227D01*
X0142275Y0055140D01*
X0142378Y0055050D01*
X0142480Y0054957D01*
X0142578Y0054861D01*
X0142674Y0054763D01*
X0142767Y0054661D01*
X0142857Y0054558D01*
X0142944Y0054451D01*
X0143027Y0054342D01*
X0143108Y0054231D01*
X0143185Y0054117D01*
X0143259Y0054001D01*
X0143329Y0053883D01*
X0143396Y0053763D01*
X0143460Y0053641D01*
X0143519Y0053517D01*
X0143576Y0053392D01*
X0143628Y0053265D01*
X0143677Y0053137D01*
X0143722Y0053007D01*
X0143764Y0052876D01*
X0143801Y0052744D01*
X0143835Y0052610D01*
X0143864Y0052476D01*
X0143890Y0052341D01*
X0143912Y0052206D01*
X0143930Y0052069D01*
X0143944Y0051933D01*
X0143954Y0051796D01*
X0143960Y0051658D01*
X0143962Y0051521D01*
X0143960Y0051384D01*
X0143954Y0051246D01*
X0143944Y0051109D01*
X0143930Y0050973D01*
X0143912Y0050836D01*
X0143890Y0050701D01*
X0143864Y0050566D01*
X0143835Y0050432D01*
X0143801Y0050298D01*
X0143764Y0050166D01*
X0143722Y0050035D01*
X0143677Y0049905D01*
X0143628Y0049777D01*
X0143576Y0049650D01*
X0143519Y0049525D01*
X0143460Y0049401D01*
X0143396Y0049279D01*
X0143329Y0049159D01*
X0143259Y0049041D01*
X0143185Y0048925D01*
X0143108Y0048811D01*
X0143027Y0048700D01*
X0142944Y0048591D01*
X0142857Y0048484D01*
X0142767Y0048381D01*
X0142674Y0048279D01*
X0142578Y0048181D01*
X0142480Y0048085D01*
X0142378Y0047992D01*
X0142275Y0047902D01*
X0142168Y0047815D01*
X0142059Y0047732D01*
X0141948Y0047651D01*
X0141834Y0047574D01*
X0141718Y0047500D01*
X0141600Y0047430D01*
X0141480Y0047363D01*
X0141358Y0047299D01*
X0141234Y0047240D01*
X0141109Y0047183D01*
X0140982Y0047131D01*
X0140854Y0047082D01*
X0140724Y0047037D01*
X0140593Y0046995D01*
X0140461Y0046958D01*
X0140327Y0046924D01*
X0140193Y0046895D01*
X0140058Y0046869D01*
X0139923Y0046847D01*
X0139786Y0046829D01*
X0139650Y0046815D01*
X0139513Y0046805D01*
X0139375Y0046799D01*
X0139238Y0046797D01*
X0139101Y0046799D01*
X0138963Y0046805D01*
X0138826Y0046815D01*
X0138690Y0046829D01*
X0138553Y0046847D01*
X0138418Y0046869D01*
X0138283Y0046895D01*
X0138149Y0046924D01*
X0138015Y0046958D01*
X0137883Y0046995D01*
X0137752Y0047037D01*
X0137622Y0047082D01*
X0137494Y0047131D01*
X0137367Y0047183D01*
X0137242Y0047240D01*
X0137118Y0047299D01*
X0136996Y0047363D01*
X0136876Y0047430D01*
X0136758Y0047500D01*
X0136642Y0047574D01*
X0136528Y0047651D01*
X0136417Y0047732D01*
X0136308Y0047815D01*
X0136201Y0047902D01*
X0136098Y0047992D01*
X0135996Y0048085D01*
X0135898Y0048181D01*
X0135802Y0048279D01*
X0135709Y0048381D01*
X0135619Y0048484D01*
X0135532Y0048591D01*
X0135449Y0048700D01*
X0135368Y0048811D01*
X0135291Y0048925D01*
X0135217Y0049041D01*
X0135147Y0049159D01*
X0135080Y0049279D01*
X0135016Y0049401D01*
X0134957Y0049525D01*
X0134900Y0049650D01*
X0134848Y0049777D01*
X0134799Y0049905D01*
X0134754Y0050035D01*
X0134712Y0050166D01*
X0134675Y0050298D01*
X0134641Y0050432D01*
X0134612Y0050566D01*
X0134586Y0050701D01*
X0134564Y0050836D01*
X0134546Y0050973D01*
X0134532Y0051109D01*
X0134522Y0051246D01*
X0134516Y0051384D01*
X0134514Y0051521D01*
X0150104Y0051521D02*
X0150106Y0051658D01*
X0150112Y0051796D01*
X0150122Y0051933D01*
X0150136Y0052069D01*
X0150154Y0052206D01*
X0150176Y0052341D01*
X0150202Y0052476D01*
X0150231Y0052610D01*
X0150265Y0052744D01*
X0150302Y0052876D01*
X0150344Y0053007D01*
X0150389Y0053137D01*
X0150438Y0053265D01*
X0150490Y0053392D01*
X0150547Y0053517D01*
X0150606Y0053641D01*
X0150670Y0053763D01*
X0150737Y0053883D01*
X0150807Y0054001D01*
X0150881Y0054117D01*
X0150958Y0054231D01*
X0151039Y0054342D01*
X0151122Y0054451D01*
X0151209Y0054558D01*
X0151299Y0054661D01*
X0151392Y0054763D01*
X0151488Y0054861D01*
X0151586Y0054957D01*
X0151688Y0055050D01*
X0151791Y0055140D01*
X0151898Y0055227D01*
X0152007Y0055310D01*
X0152118Y0055391D01*
X0152232Y0055468D01*
X0152348Y0055542D01*
X0152466Y0055612D01*
X0152586Y0055679D01*
X0152708Y0055743D01*
X0152832Y0055802D01*
X0152957Y0055859D01*
X0153084Y0055911D01*
X0153212Y0055960D01*
X0153342Y0056005D01*
X0153473Y0056047D01*
X0153605Y0056084D01*
X0153739Y0056118D01*
X0153873Y0056147D01*
X0154008Y0056173D01*
X0154143Y0056195D01*
X0154280Y0056213D01*
X0154416Y0056227D01*
X0154553Y0056237D01*
X0154691Y0056243D01*
X0154828Y0056245D01*
X0154965Y0056243D01*
X0155103Y0056237D01*
X0155240Y0056227D01*
X0155376Y0056213D01*
X0155513Y0056195D01*
X0155648Y0056173D01*
X0155783Y0056147D01*
X0155917Y0056118D01*
X0156051Y0056084D01*
X0156183Y0056047D01*
X0156314Y0056005D01*
X0156444Y0055960D01*
X0156572Y0055911D01*
X0156699Y0055859D01*
X0156824Y0055802D01*
X0156948Y0055743D01*
X0157070Y0055679D01*
X0157190Y0055612D01*
X0157308Y0055542D01*
X0157424Y0055468D01*
X0157538Y0055391D01*
X0157649Y0055310D01*
X0157758Y0055227D01*
X0157865Y0055140D01*
X0157968Y0055050D01*
X0158070Y0054957D01*
X0158168Y0054861D01*
X0158264Y0054763D01*
X0158357Y0054661D01*
X0158447Y0054558D01*
X0158534Y0054451D01*
X0158617Y0054342D01*
X0158698Y0054231D01*
X0158775Y0054117D01*
X0158849Y0054001D01*
X0158919Y0053883D01*
X0158986Y0053763D01*
X0159050Y0053641D01*
X0159109Y0053517D01*
X0159166Y0053392D01*
X0159218Y0053265D01*
X0159267Y0053137D01*
X0159312Y0053007D01*
X0159354Y0052876D01*
X0159391Y0052744D01*
X0159425Y0052610D01*
X0159454Y0052476D01*
X0159480Y0052341D01*
X0159502Y0052206D01*
X0159520Y0052069D01*
X0159534Y0051933D01*
X0159544Y0051796D01*
X0159550Y0051658D01*
X0159552Y0051521D01*
X0159550Y0051384D01*
X0159544Y0051246D01*
X0159534Y0051109D01*
X0159520Y0050973D01*
X0159502Y0050836D01*
X0159480Y0050701D01*
X0159454Y0050566D01*
X0159425Y0050432D01*
X0159391Y0050298D01*
X0159354Y0050166D01*
X0159312Y0050035D01*
X0159267Y0049905D01*
X0159218Y0049777D01*
X0159166Y0049650D01*
X0159109Y0049525D01*
X0159050Y0049401D01*
X0158986Y0049279D01*
X0158919Y0049159D01*
X0158849Y0049041D01*
X0158775Y0048925D01*
X0158698Y0048811D01*
X0158617Y0048700D01*
X0158534Y0048591D01*
X0158447Y0048484D01*
X0158357Y0048381D01*
X0158264Y0048279D01*
X0158168Y0048181D01*
X0158070Y0048085D01*
X0157968Y0047992D01*
X0157865Y0047902D01*
X0157758Y0047815D01*
X0157649Y0047732D01*
X0157538Y0047651D01*
X0157424Y0047574D01*
X0157308Y0047500D01*
X0157190Y0047430D01*
X0157070Y0047363D01*
X0156948Y0047299D01*
X0156824Y0047240D01*
X0156699Y0047183D01*
X0156572Y0047131D01*
X0156444Y0047082D01*
X0156314Y0047037D01*
X0156183Y0046995D01*
X0156051Y0046958D01*
X0155917Y0046924D01*
X0155783Y0046895D01*
X0155648Y0046869D01*
X0155513Y0046847D01*
X0155376Y0046829D01*
X0155240Y0046815D01*
X0155103Y0046805D01*
X0154965Y0046799D01*
X0154828Y0046797D01*
X0154691Y0046799D01*
X0154553Y0046805D01*
X0154416Y0046815D01*
X0154280Y0046829D01*
X0154143Y0046847D01*
X0154008Y0046869D01*
X0153873Y0046895D01*
X0153739Y0046924D01*
X0153605Y0046958D01*
X0153473Y0046995D01*
X0153342Y0047037D01*
X0153212Y0047082D01*
X0153084Y0047131D01*
X0152957Y0047183D01*
X0152832Y0047240D01*
X0152708Y0047299D01*
X0152586Y0047363D01*
X0152466Y0047430D01*
X0152348Y0047500D01*
X0152232Y0047574D01*
X0152118Y0047651D01*
X0152007Y0047732D01*
X0151898Y0047815D01*
X0151791Y0047902D01*
X0151688Y0047992D01*
X0151586Y0048085D01*
X0151488Y0048181D01*
X0151392Y0048279D01*
X0151299Y0048381D01*
X0151209Y0048484D01*
X0151122Y0048591D01*
X0151039Y0048700D01*
X0150958Y0048811D01*
X0150881Y0048925D01*
X0150807Y0049041D01*
X0150737Y0049159D01*
X0150670Y0049279D01*
X0150606Y0049401D01*
X0150547Y0049525D01*
X0150490Y0049650D01*
X0150438Y0049777D01*
X0150389Y0049905D01*
X0150344Y0050035D01*
X0150302Y0050166D01*
X0150265Y0050298D01*
X0150231Y0050432D01*
X0150202Y0050566D01*
X0150176Y0050701D01*
X0150154Y0050836D01*
X0150136Y0050973D01*
X0150122Y0051109D01*
X0150112Y0051246D01*
X0150106Y0051384D01*
X0150104Y0051521D01*
X0165695Y0051521D02*
X0165697Y0051658D01*
X0165703Y0051796D01*
X0165713Y0051933D01*
X0165727Y0052069D01*
X0165745Y0052206D01*
X0165767Y0052341D01*
X0165793Y0052476D01*
X0165822Y0052610D01*
X0165856Y0052744D01*
X0165893Y0052876D01*
X0165935Y0053007D01*
X0165980Y0053137D01*
X0166029Y0053265D01*
X0166081Y0053392D01*
X0166138Y0053517D01*
X0166197Y0053641D01*
X0166261Y0053763D01*
X0166328Y0053883D01*
X0166398Y0054001D01*
X0166472Y0054117D01*
X0166549Y0054231D01*
X0166630Y0054342D01*
X0166713Y0054451D01*
X0166800Y0054558D01*
X0166890Y0054661D01*
X0166983Y0054763D01*
X0167079Y0054861D01*
X0167177Y0054957D01*
X0167279Y0055050D01*
X0167382Y0055140D01*
X0167489Y0055227D01*
X0167598Y0055310D01*
X0167709Y0055391D01*
X0167823Y0055468D01*
X0167939Y0055542D01*
X0168057Y0055612D01*
X0168177Y0055679D01*
X0168299Y0055743D01*
X0168423Y0055802D01*
X0168548Y0055859D01*
X0168675Y0055911D01*
X0168803Y0055960D01*
X0168933Y0056005D01*
X0169064Y0056047D01*
X0169196Y0056084D01*
X0169330Y0056118D01*
X0169464Y0056147D01*
X0169599Y0056173D01*
X0169734Y0056195D01*
X0169871Y0056213D01*
X0170007Y0056227D01*
X0170144Y0056237D01*
X0170282Y0056243D01*
X0170419Y0056245D01*
X0170556Y0056243D01*
X0170694Y0056237D01*
X0170831Y0056227D01*
X0170967Y0056213D01*
X0171104Y0056195D01*
X0171239Y0056173D01*
X0171374Y0056147D01*
X0171508Y0056118D01*
X0171642Y0056084D01*
X0171774Y0056047D01*
X0171905Y0056005D01*
X0172035Y0055960D01*
X0172163Y0055911D01*
X0172290Y0055859D01*
X0172415Y0055802D01*
X0172539Y0055743D01*
X0172661Y0055679D01*
X0172781Y0055612D01*
X0172899Y0055542D01*
X0173015Y0055468D01*
X0173129Y0055391D01*
X0173240Y0055310D01*
X0173349Y0055227D01*
X0173456Y0055140D01*
X0173559Y0055050D01*
X0173661Y0054957D01*
X0173759Y0054861D01*
X0173855Y0054763D01*
X0173948Y0054661D01*
X0174038Y0054558D01*
X0174125Y0054451D01*
X0174208Y0054342D01*
X0174289Y0054231D01*
X0174366Y0054117D01*
X0174440Y0054001D01*
X0174510Y0053883D01*
X0174577Y0053763D01*
X0174641Y0053641D01*
X0174700Y0053517D01*
X0174757Y0053392D01*
X0174809Y0053265D01*
X0174858Y0053137D01*
X0174903Y0053007D01*
X0174945Y0052876D01*
X0174982Y0052744D01*
X0175016Y0052610D01*
X0175045Y0052476D01*
X0175071Y0052341D01*
X0175093Y0052206D01*
X0175111Y0052069D01*
X0175125Y0051933D01*
X0175135Y0051796D01*
X0175141Y0051658D01*
X0175143Y0051521D01*
X0175141Y0051384D01*
X0175135Y0051246D01*
X0175125Y0051109D01*
X0175111Y0050973D01*
X0175093Y0050836D01*
X0175071Y0050701D01*
X0175045Y0050566D01*
X0175016Y0050432D01*
X0174982Y0050298D01*
X0174945Y0050166D01*
X0174903Y0050035D01*
X0174858Y0049905D01*
X0174809Y0049777D01*
X0174757Y0049650D01*
X0174700Y0049525D01*
X0174641Y0049401D01*
X0174577Y0049279D01*
X0174510Y0049159D01*
X0174440Y0049041D01*
X0174366Y0048925D01*
X0174289Y0048811D01*
X0174208Y0048700D01*
X0174125Y0048591D01*
X0174038Y0048484D01*
X0173948Y0048381D01*
X0173855Y0048279D01*
X0173759Y0048181D01*
X0173661Y0048085D01*
X0173559Y0047992D01*
X0173456Y0047902D01*
X0173349Y0047815D01*
X0173240Y0047732D01*
X0173129Y0047651D01*
X0173015Y0047574D01*
X0172899Y0047500D01*
X0172781Y0047430D01*
X0172661Y0047363D01*
X0172539Y0047299D01*
X0172415Y0047240D01*
X0172290Y0047183D01*
X0172163Y0047131D01*
X0172035Y0047082D01*
X0171905Y0047037D01*
X0171774Y0046995D01*
X0171642Y0046958D01*
X0171508Y0046924D01*
X0171374Y0046895D01*
X0171239Y0046869D01*
X0171104Y0046847D01*
X0170967Y0046829D01*
X0170831Y0046815D01*
X0170694Y0046805D01*
X0170556Y0046799D01*
X0170419Y0046797D01*
X0170282Y0046799D01*
X0170144Y0046805D01*
X0170007Y0046815D01*
X0169871Y0046829D01*
X0169734Y0046847D01*
X0169599Y0046869D01*
X0169464Y0046895D01*
X0169330Y0046924D01*
X0169196Y0046958D01*
X0169064Y0046995D01*
X0168933Y0047037D01*
X0168803Y0047082D01*
X0168675Y0047131D01*
X0168548Y0047183D01*
X0168423Y0047240D01*
X0168299Y0047299D01*
X0168177Y0047363D01*
X0168057Y0047430D01*
X0167939Y0047500D01*
X0167823Y0047574D01*
X0167709Y0047651D01*
X0167598Y0047732D01*
X0167489Y0047815D01*
X0167382Y0047902D01*
X0167279Y0047992D01*
X0167177Y0048085D01*
X0167079Y0048181D01*
X0166983Y0048279D01*
X0166890Y0048381D01*
X0166800Y0048484D01*
X0166713Y0048591D01*
X0166630Y0048700D01*
X0166549Y0048811D01*
X0166472Y0048925D01*
X0166398Y0049041D01*
X0166328Y0049159D01*
X0166261Y0049279D01*
X0166197Y0049401D01*
X0166138Y0049525D01*
X0166081Y0049650D01*
X0166029Y0049777D01*
X0165980Y0049905D01*
X0165935Y0050035D01*
X0165893Y0050166D01*
X0165856Y0050298D01*
X0165822Y0050432D01*
X0165793Y0050566D01*
X0165767Y0050701D01*
X0165745Y0050836D01*
X0165727Y0050973D01*
X0165713Y0051109D01*
X0165703Y0051246D01*
X0165697Y0051384D01*
X0165695Y0051521D01*
X0181285Y0051521D02*
X0181287Y0051658D01*
X0181293Y0051796D01*
X0181303Y0051933D01*
X0181317Y0052069D01*
X0181335Y0052206D01*
X0181357Y0052341D01*
X0181383Y0052476D01*
X0181412Y0052610D01*
X0181446Y0052744D01*
X0181483Y0052876D01*
X0181525Y0053007D01*
X0181570Y0053137D01*
X0181619Y0053265D01*
X0181671Y0053392D01*
X0181728Y0053517D01*
X0181787Y0053641D01*
X0181851Y0053763D01*
X0181918Y0053883D01*
X0181988Y0054001D01*
X0182062Y0054117D01*
X0182139Y0054231D01*
X0182220Y0054342D01*
X0182303Y0054451D01*
X0182390Y0054558D01*
X0182480Y0054661D01*
X0182573Y0054763D01*
X0182669Y0054861D01*
X0182767Y0054957D01*
X0182869Y0055050D01*
X0182972Y0055140D01*
X0183079Y0055227D01*
X0183188Y0055310D01*
X0183299Y0055391D01*
X0183413Y0055468D01*
X0183529Y0055542D01*
X0183647Y0055612D01*
X0183767Y0055679D01*
X0183889Y0055743D01*
X0184013Y0055802D01*
X0184138Y0055859D01*
X0184265Y0055911D01*
X0184393Y0055960D01*
X0184523Y0056005D01*
X0184654Y0056047D01*
X0184786Y0056084D01*
X0184920Y0056118D01*
X0185054Y0056147D01*
X0185189Y0056173D01*
X0185324Y0056195D01*
X0185461Y0056213D01*
X0185597Y0056227D01*
X0185734Y0056237D01*
X0185872Y0056243D01*
X0186009Y0056245D01*
X0186146Y0056243D01*
X0186284Y0056237D01*
X0186421Y0056227D01*
X0186557Y0056213D01*
X0186694Y0056195D01*
X0186829Y0056173D01*
X0186964Y0056147D01*
X0187098Y0056118D01*
X0187232Y0056084D01*
X0187364Y0056047D01*
X0187495Y0056005D01*
X0187625Y0055960D01*
X0187753Y0055911D01*
X0187880Y0055859D01*
X0188005Y0055802D01*
X0188129Y0055743D01*
X0188251Y0055679D01*
X0188371Y0055612D01*
X0188489Y0055542D01*
X0188605Y0055468D01*
X0188719Y0055391D01*
X0188830Y0055310D01*
X0188939Y0055227D01*
X0189046Y0055140D01*
X0189149Y0055050D01*
X0189251Y0054957D01*
X0189349Y0054861D01*
X0189445Y0054763D01*
X0189538Y0054661D01*
X0189628Y0054558D01*
X0189715Y0054451D01*
X0189798Y0054342D01*
X0189879Y0054231D01*
X0189956Y0054117D01*
X0190030Y0054001D01*
X0190100Y0053883D01*
X0190167Y0053763D01*
X0190231Y0053641D01*
X0190290Y0053517D01*
X0190347Y0053392D01*
X0190399Y0053265D01*
X0190448Y0053137D01*
X0190493Y0053007D01*
X0190535Y0052876D01*
X0190572Y0052744D01*
X0190606Y0052610D01*
X0190635Y0052476D01*
X0190661Y0052341D01*
X0190683Y0052206D01*
X0190701Y0052069D01*
X0190715Y0051933D01*
X0190725Y0051796D01*
X0190731Y0051658D01*
X0190733Y0051521D01*
X0190731Y0051384D01*
X0190725Y0051246D01*
X0190715Y0051109D01*
X0190701Y0050973D01*
X0190683Y0050836D01*
X0190661Y0050701D01*
X0190635Y0050566D01*
X0190606Y0050432D01*
X0190572Y0050298D01*
X0190535Y0050166D01*
X0190493Y0050035D01*
X0190448Y0049905D01*
X0190399Y0049777D01*
X0190347Y0049650D01*
X0190290Y0049525D01*
X0190231Y0049401D01*
X0190167Y0049279D01*
X0190100Y0049159D01*
X0190030Y0049041D01*
X0189956Y0048925D01*
X0189879Y0048811D01*
X0189798Y0048700D01*
X0189715Y0048591D01*
X0189628Y0048484D01*
X0189538Y0048381D01*
X0189445Y0048279D01*
X0189349Y0048181D01*
X0189251Y0048085D01*
X0189149Y0047992D01*
X0189046Y0047902D01*
X0188939Y0047815D01*
X0188830Y0047732D01*
X0188719Y0047651D01*
X0188605Y0047574D01*
X0188489Y0047500D01*
X0188371Y0047430D01*
X0188251Y0047363D01*
X0188129Y0047299D01*
X0188005Y0047240D01*
X0187880Y0047183D01*
X0187753Y0047131D01*
X0187625Y0047082D01*
X0187495Y0047037D01*
X0187364Y0046995D01*
X0187232Y0046958D01*
X0187098Y0046924D01*
X0186964Y0046895D01*
X0186829Y0046869D01*
X0186694Y0046847D01*
X0186557Y0046829D01*
X0186421Y0046815D01*
X0186284Y0046805D01*
X0186146Y0046799D01*
X0186009Y0046797D01*
X0185872Y0046799D01*
X0185734Y0046805D01*
X0185597Y0046815D01*
X0185461Y0046829D01*
X0185324Y0046847D01*
X0185189Y0046869D01*
X0185054Y0046895D01*
X0184920Y0046924D01*
X0184786Y0046958D01*
X0184654Y0046995D01*
X0184523Y0047037D01*
X0184393Y0047082D01*
X0184265Y0047131D01*
X0184138Y0047183D01*
X0184013Y0047240D01*
X0183889Y0047299D01*
X0183767Y0047363D01*
X0183647Y0047430D01*
X0183529Y0047500D01*
X0183413Y0047574D01*
X0183299Y0047651D01*
X0183188Y0047732D01*
X0183079Y0047815D01*
X0182972Y0047902D01*
X0182869Y0047992D01*
X0182767Y0048085D01*
X0182669Y0048181D01*
X0182573Y0048279D01*
X0182480Y0048381D01*
X0182390Y0048484D01*
X0182303Y0048591D01*
X0182220Y0048700D01*
X0182139Y0048811D01*
X0182062Y0048925D01*
X0181988Y0049041D01*
X0181918Y0049159D01*
X0181851Y0049279D01*
X0181787Y0049401D01*
X0181728Y0049525D01*
X0181671Y0049650D01*
X0181619Y0049777D01*
X0181570Y0049905D01*
X0181525Y0050035D01*
X0181483Y0050166D01*
X0181446Y0050298D01*
X0181412Y0050432D01*
X0181383Y0050566D01*
X0181357Y0050701D01*
X0181335Y0050836D01*
X0181317Y0050973D01*
X0181303Y0051109D01*
X0181293Y0051246D01*
X0181287Y0051384D01*
X0181285Y0051521D01*
D12*
X0024986Y0077761D03*
D13*
X0108057Y0038332D03*
X0123647Y0038332D03*
X0139238Y0038332D03*
X0154789Y0038332D03*
X0170380Y0038332D03*
X0185970Y0038332D03*
D14*
X0186009Y0051521D03*
X0170419Y0051521D03*
X0154828Y0051521D03*
X0139238Y0051521D03*
X0123647Y0051521D03*
X0108057Y0051521D03*
D15*
X0185608Y0076757D02*
X0191608Y0076757D01*
X0191608Y0086757D02*
X0185608Y0086757D01*
X0185608Y0102348D02*
X0191608Y0102348D01*
X0191608Y0112348D02*
X0185608Y0112348D01*
X0185608Y0127939D02*
X0191608Y0127939D01*
X0191608Y0137939D02*
X0185608Y0137939D01*
X0185608Y0153529D02*
X0191608Y0153529D01*
X0191608Y0163529D02*
X0185608Y0163529D01*
D16*
X0061624Y0164801D02*
X0061624Y0154801D01*
X0030443Y0154801D02*
X0030443Y0164801D01*
D17*
X0084750Y0164986D02*
X0084750Y0155537D01*
X0100340Y0155537D02*
X0100340Y0164986D01*
M02*
