G75*
%MOIN*%
%OFA0B0*%
%FSLAX25Y25*%
%IPPOS*%
%LPD*%
%AMOC8*
5,1,8,0,0,1.08239X$1,22.5*
%
%ADD10C,0.00600*%
%ADD11C,0.00900*%
%ADD12C,0.00000*%
%ADD13C,0.01000*%
%ADD14C,0.01200*%
%ADD15C,0.00394*%
%ADD16C,0.01100*%
%ADD17C,0.01300*%
%ADD18C,0.00700*%
%ADD19C,0.00500*%
%ADD20C,0.00197*%
%ADD21C,0.00300*%
%ADD22R,0.02000X0.02000*%
D10*
X0024241Y0016761D02*
X0195894Y0016761D01*
X0209674Y0028572D02*
X0209674Y0184083D01*
X0209646Y0184397D01*
X0209610Y0184710D01*
X0209567Y0185022D01*
X0209516Y0185333D01*
X0209457Y0185642D01*
X0209391Y0185950D01*
X0209318Y0186256D01*
X0209236Y0186561D01*
X0209148Y0186863D01*
X0209052Y0187163D01*
X0208948Y0187460D01*
X0208838Y0187755D01*
X0208720Y0188047D01*
X0208595Y0188336D01*
X0208463Y0188622D01*
X0208324Y0188905D01*
X0208178Y0189184D01*
X0208025Y0189459D01*
X0207865Y0189731D01*
X0207699Y0189999D01*
X0207527Y0190262D01*
X0207348Y0190521D01*
X0207163Y0190776D01*
X0206971Y0191026D01*
X0206773Y0191271D01*
X0206570Y0191512D01*
X0206361Y0191747D01*
X0206145Y0191977D01*
X0205925Y0192202D01*
X0205699Y0192421D01*
X0205467Y0192635D01*
X0205231Y0192843D01*
X0204989Y0193045D01*
X0204742Y0193241D01*
X0204491Y0193431D01*
X0204235Y0193614D01*
X0203975Y0193792D01*
X0203711Y0193963D01*
X0203442Y0194127D01*
X0203169Y0194285D01*
X0202893Y0194436D01*
X0202613Y0194580D01*
X0202329Y0194717D01*
X0202043Y0194847D01*
X0201753Y0194971D01*
X0201460Y0195087D01*
X0201164Y0195195D01*
X0200866Y0195297D01*
X0200566Y0195391D01*
X0200263Y0195478D01*
X0199958Y0195557D01*
X0199651Y0195629D01*
X0199343Y0195693D01*
X0199033Y0195750D01*
X0198722Y0195799D01*
X0198410Y0195840D01*
X0198097Y0195874D01*
X0197783Y0195900D01*
X0197468Y0195918D01*
X0197154Y0195929D01*
X0196839Y0195932D01*
X0196524Y0195927D01*
X0196209Y0195915D01*
X0195895Y0195894D01*
X0195894Y0195894D02*
X0027784Y0195894D01*
X0027475Y0195914D01*
X0027165Y0195927D01*
X0026855Y0195932D01*
X0026545Y0195929D01*
X0026235Y0195920D01*
X0025925Y0195902D01*
X0025616Y0195877D01*
X0025308Y0195845D01*
X0025000Y0195805D01*
X0024694Y0195758D01*
X0024388Y0195703D01*
X0024084Y0195641D01*
X0023782Y0195572D01*
X0023482Y0195496D01*
X0023183Y0195412D01*
X0022887Y0195321D01*
X0022592Y0195223D01*
X0022301Y0195117D01*
X0022012Y0195005D01*
X0021725Y0194886D01*
X0021442Y0194760D01*
X0021162Y0194627D01*
X0020885Y0194487D01*
X0020611Y0194341D01*
X0020342Y0194188D01*
X0020075Y0194029D01*
X0019813Y0193863D01*
X0019555Y0193691D01*
X0019301Y0193513D01*
X0019052Y0193329D01*
X0018807Y0193139D01*
X0018567Y0192943D01*
X0018331Y0192741D01*
X0018101Y0192533D01*
X0017875Y0192321D01*
X0017655Y0192102D01*
X0017440Y0191879D01*
X0017231Y0191650D01*
X0017027Y0191416D01*
X0016829Y0191178D01*
X0016637Y0190934D01*
X0016450Y0190686D01*
X0016270Y0190434D01*
X0016096Y0190177D01*
X0015928Y0189917D01*
X0015766Y0189652D01*
X0015611Y0189383D01*
X0015463Y0189111D01*
X0015321Y0188836D01*
X0015185Y0188557D01*
X0015057Y0188274D01*
X0014935Y0187989D01*
X0014820Y0187701D01*
X0014713Y0187410D01*
X0014612Y0187117D01*
X0014519Y0186821D01*
X0014432Y0186523D01*
X0014353Y0186223D01*
X0014281Y0185922D01*
X0014217Y0185618D01*
X0014160Y0185314D01*
X0014110Y0185007D01*
X0014067Y0184700D01*
X0014032Y0184392D01*
X0014005Y0184083D01*
X0014005Y0028572D01*
X0014004Y0028571D02*
X0013988Y0028305D01*
X0013979Y0028038D01*
X0013976Y0027771D01*
X0013980Y0027504D01*
X0013990Y0027237D01*
X0014006Y0026970D01*
X0014029Y0026704D01*
X0014058Y0026439D01*
X0014094Y0026174D01*
X0014136Y0025910D01*
X0014184Y0025648D01*
X0014239Y0025386D01*
X0014300Y0025126D01*
X0014368Y0024868D01*
X0014441Y0024611D01*
X0014521Y0024356D01*
X0014607Y0024103D01*
X0014699Y0023853D01*
X0014797Y0023604D01*
X0014901Y0023358D01*
X0015011Y0023115D01*
X0015127Y0022874D01*
X0015248Y0022636D01*
X0015375Y0022401D01*
X0015508Y0022170D01*
X0015647Y0021941D01*
X0015791Y0021716D01*
X0015940Y0021495D01*
X0016094Y0021277D01*
X0016254Y0021063D01*
X0016419Y0020853D01*
X0016589Y0020647D01*
X0016764Y0020445D01*
X0016944Y0020248D01*
X0017128Y0020055D01*
X0017317Y0019866D01*
X0017511Y0019682D01*
X0017709Y0019503D01*
X0017911Y0019328D01*
X0018118Y0019159D01*
X0018328Y0018994D01*
X0018542Y0018835D01*
X0018761Y0018681D01*
X0018982Y0018532D01*
X0019208Y0018389D01*
X0019436Y0018251D01*
X0019668Y0018119D01*
X0019904Y0017992D01*
X0020142Y0017871D01*
X0020383Y0017756D01*
X0020626Y0017646D01*
X0020873Y0017543D01*
X0021121Y0017446D01*
X0021372Y0017354D01*
X0021625Y0017269D01*
X0021880Y0017190D01*
X0022137Y0017117D01*
X0022396Y0017050D01*
X0022656Y0016990D01*
X0022918Y0016935D01*
X0023180Y0016888D01*
X0023444Y0016846D01*
X0023709Y0016811D01*
X0023974Y0016782D01*
X0024241Y0016760D01*
X0091076Y0046431D02*
X0091076Y0053231D01*
X0091276Y0052831D02*
X0091276Y0046931D01*
X0091576Y0046631D02*
X0092576Y0046631D01*
X0092576Y0044231D01*
X0094176Y0044231D01*
X0094176Y0046631D01*
X0096376Y0046631D01*
X0096376Y0044231D01*
X0097876Y0044231D01*
X0097876Y0046631D01*
X0100076Y0046631D01*
X0100076Y0044231D01*
X0101676Y0044231D01*
X0101676Y0046631D01*
X0102676Y0046631D01*
X0102976Y0046931D02*
X0102976Y0052831D01*
X0103076Y0053231D02*
X0103076Y0046431D01*
X0101676Y0046631D02*
X0101676Y0046731D01*
X0100076Y0046731D02*
X0100076Y0046631D01*
X0097876Y0046631D02*
X0097876Y0046731D01*
X0096376Y0046731D02*
X0096376Y0046631D01*
X0094176Y0046631D02*
X0094176Y0046731D01*
X0092576Y0046731D02*
X0092576Y0046631D01*
X0092576Y0053031D02*
X0092576Y0053131D01*
X0091576Y0053131D01*
X0092576Y0053131D02*
X0092576Y0055531D01*
X0094176Y0055531D01*
X0094176Y0053131D01*
X0096376Y0053131D01*
X0096376Y0053031D01*
X0096376Y0053131D02*
X0096376Y0055531D01*
X0097876Y0055531D01*
X0097876Y0053131D01*
X0100076Y0053131D01*
X0100076Y0053031D01*
X0100076Y0053131D02*
X0100076Y0055531D01*
X0101676Y0055531D01*
X0101676Y0053131D01*
X0102676Y0053131D01*
X0101676Y0053131D02*
X0101676Y0053031D01*
X0101076Y0052131D02*
X0101124Y0052129D01*
X0101172Y0052123D01*
X0101220Y0052114D01*
X0101266Y0052100D01*
X0101311Y0052083D01*
X0101355Y0052062D01*
X0101397Y0052038D01*
X0101436Y0052011D01*
X0101474Y0051980D01*
X0101509Y0051947D01*
X0101541Y0051910D01*
X0101570Y0051872D01*
X0101596Y0051831D01*
X0101618Y0051788D01*
X0101637Y0051744D01*
X0101652Y0051698D01*
X0101664Y0051651D01*
X0101672Y0051603D01*
X0101676Y0051555D01*
X0101676Y0051507D01*
X0101672Y0051459D01*
X0101664Y0051411D01*
X0101652Y0051364D01*
X0101637Y0051318D01*
X0101618Y0051274D01*
X0101596Y0051231D01*
X0101570Y0051190D01*
X0101541Y0051152D01*
X0101509Y0051115D01*
X0101474Y0051082D01*
X0101436Y0051051D01*
X0101397Y0051024D01*
X0101355Y0051000D01*
X0101311Y0050979D01*
X0101266Y0050962D01*
X0101220Y0050948D01*
X0101172Y0050939D01*
X0101124Y0050933D01*
X0101076Y0050931D01*
X0101028Y0050933D01*
X0100980Y0050939D01*
X0100932Y0050948D01*
X0100886Y0050962D01*
X0100841Y0050979D01*
X0100797Y0051000D01*
X0100755Y0051024D01*
X0100716Y0051051D01*
X0100678Y0051082D01*
X0100643Y0051115D01*
X0100611Y0051152D01*
X0100582Y0051190D01*
X0100556Y0051231D01*
X0100534Y0051274D01*
X0100515Y0051318D01*
X0100500Y0051364D01*
X0100488Y0051411D01*
X0100480Y0051459D01*
X0100476Y0051507D01*
X0100476Y0051555D01*
X0100480Y0051603D01*
X0100488Y0051651D01*
X0100500Y0051698D01*
X0100515Y0051744D01*
X0100534Y0051788D01*
X0100556Y0051831D01*
X0100582Y0051872D01*
X0100611Y0051910D01*
X0100643Y0051947D01*
X0100678Y0051980D01*
X0100716Y0052011D01*
X0100755Y0052038D01*
X0100797Y0052062D01*
X0100841Y0052083D01*
X0100886Y0052100D01*
X0100932Y0052114D01*
X0100980Y0052123D01*
X0101028Y0052129D01*
X0101076Y0052131D01*
X0102076Y0050531D02*
X0102037Y0050475D01*
X0102001Y0050417D01*
X0101969Y0050357D01*
X0101940Y0050295D01*
X0101915Y0050232D01*
X0101894Y0050167D01*
X0101876Y0050101D01*
X0101863Y0050034D01*
X0101853Y0049967D01*
X0101847Y0049899D01*
X0101845Y0049831D01*
X0101847Y0049763D01*
X0101853Y0049695D01*
X0101863Y0049628D01*
X0101876Y0049561D01*
X0101894Y0049495D01*
X0101915Y0049430D01*
X0101940Y0049367D01*
X0101969Y0049305D01*
X0102001Y0049245D01*
X0102037Y0049187D01*
X0102076Y0049131D01*
X0097876Y0053031D02*
X0097876Y0053131D01*
X0094176Y0053131D02*
X0094176Y0053031D01*
X0119817Y0070407D02*
X0119817Y0073807D01*
X0120761Y0073807D01*
X0120821Y0073805D01*
X0120882Y0073799D01*
X0120941Y0073790D01*
X0121000Y0073776D01*
X0121058Y0073759D01*
X0121115Y0073738D01*
X0121171Y0073714D01*
X0121224Y0073686D01*
X0121276Y0073654D01*
X0121326Y0073620D01*
X0121373Y0073582D01*
X0121418Y0073541D01*
X0121460Y0073498D01*
X0121499Y0073452D01*
X0121535Y0073403D01*
X0121568Y0073352D01*
X0121598Y0073300D01*
X0121624Y0073245D01*
X0121647Y0073189D01*
X0121666Y0073132D01*
X0121681Y0073073D01*
X0121693Y0073014D01*
X0121701Y0072954D01*
X0121705Y0072893D01*
X0121705Y0072833D01*
X0121701Y0072772D01*
X0121693Y0072712D01*
X0121681Y0072653D01*
X0121666Y0072594D01*
X0121647Y0072537D01*
X0121624Y0072481D01*
X0121598Y0072426D01*
X0121568Y0072374D01*
X0121535Y0072323D01*
X0121499Y0072274D01*
X0121460Y0072228D01*
X0121418Y0072185D01*
X0121373Y0072144D01*
X0121326Y0072106D01*
X0121276Y0072072D01*
X0121224Y0072040D01*
X0121171Y0072012D01*
X0121115Y0071988D01*
X0121058Y0071967D01*
X0121000Y0071950D01*
X0120941Y0071936D01*
X0120882Y0071927D01*
X0120821Y0071921D01*
X0120761Y0071919D01*
X0120761Y0071918D02*
X0119817Y0071918D01*
X0120950Y0071918D02*
X0121705Y0070407D01*
X0123513Y0070407D02*
X0123513Y0073807D01*
X0125025Y0073807D01*
X0126314Y0073807D02*
X0127448Y0070407D01*
X0128581Y0073807D01*
X0128322Y0076313D02*
X0129266Y0076313D01*
X0129326Y0076315D01*
X0129387Y0076321D01*
X0129446Y0076330D01*
X0129505Y0076344D01*
X0129563Y0076361D01*
X0129620Y0076382D01*
X0129676Y0076406D01*
X0129729Y0076434D01*
X0129781Y0076466D01*
X0129831Y0076500D01*
X0129878Y0076538D01*
X0129923Y0076579D01*
X0129965Y0076622D01*
X0130004Y0076668D01*
X0130040Y0076717D01*
X0130073Y0076768D01*
X0130103Y0076820D01*
X0130129Y0076875D01*
X0130152Y0076931D01*
X0130171Y0076988D01*
X0130186Y0077047D01*
X0130198Y0077106D01*
X0130206Y0077166D01*
X0130210Y0077227D01*
X0130210Y0077287D01*
X0130206Y0077348D01*
X0130198Y0077408D01*
X0130186Y0077467D01*
X0130171Y0077526D01*
X0130152Y0077583D01*
X0130129Y0077639D01*
X0130103Y0077694D01*
X0130073Y0077746D01*
X0130040Y0077797D01*
X0130004Y0077846D01*
X0129965Y0077892D01*
X0129923Y0077935D01*
X0129878Y0077976D01*
X0129831Y0078014D01*
X0129781Y0078048D01*
X0129729Y0078080D01*
X0129676Y0078108D01*
X0129620Y0078132D01*
X0129563Y0078153D01*
X0129505Y0078170D01*
X0129446Y0078184D01*
X0129387Y0078193D01*
X0129326Y0078199D01*
X0129266Y0078201D01*
X0129455Y0078201D02*
X0128699Y0078201D01*
X0129455Y0078201D02*
X0129509Y0078203D01*
X0129563Y0078209D01*
X0129616Y0078218D01*
X0129668Y0078232D01*
X0129719Y0078249D01*
X0129769Y0078269D01*
X0129817Y0078293D01*
X0129864Y0078321D01*
X0129908Y0078352D01*
X0129950Y0078386D01*
X0129990Y0078422D01*
X0130026Y0078462D01*
X0130060Y0078504D01*
X0130091Y0078548D01*
X0130119Y0078595D01*
X0130143Y0078643D01*
X0130163Y0078693D01*
X0130180Y0078744D01*
X0130194Y0078796D01*
X0130203Y0078849D01*
X0130209Y0078903D01*
X0130211Y0078957D01*
X0130209Y0079011D01*
X0130203Y0079065D01*
X0130194Y0079118D01*
X0130180Y0079170D01*
X0130163Y0079221D01*
X0130143Y0079271D01*
X0130119Y0079319D01*
X0130091Y0079366D01*
X0130060Y0079410D01*
X0130026Y0079452D01*
X0129990Y0079492D01*
X0129950Y0079528D01*
X0129908Y0079562D01*
X0129864Y0079593D01*
X0129817Y0079621D01*
X0129769Y0079645D01*
X0129719Y0079665D01*
X0129668Y0079682D01*
X0129616Y0079696D01*
X0129563Y0079705D01*
X0129509Y0079711D01*
X0129455Y0079713D01*
X0128322Y0079713D01*
X0126782Y0080090D02*
X0125271Y0075935D01*
X0123731Y0076313D02*
X0121842Y0076313D01*
X0122786Y0076313D02*
X0122786Y0079713D01*
X0121842Y0078957D01*
X0119186Y0079713D02*
X0119186Y0076313D01*
X0118242Y0076313D02*
X0120131Y0076313D01*
X0118242Y0078957D02*
X0119186Y0079713D01*
X0123513Y0072296D02*
X0124647Y0072296D01*
X0125025Y0070407D02*
X0123513Y0070407D01*
X0132023Y0070407D02*
X0133912Y0070407D01*
X0132968Y0070407D02*
X0132968Y0073807D01*
X0132023Y0073052D01*
X0135393Y0070596D02*
X0135582Y0070596D01*
X0135582Y0070407D01*
X0135393Y0070407D01*
X0135393Y0070596D01*
X0137063Y0070407D02*
X0138196Y0070407D01*
X0138250Y0070409D01*
X0138304Y0070415D01*
X0138357Y0070424D01*
X0138409Y0070438D01*
X0138460Y0070455D01*
X0138510Y0070475D01*
X0138558Y0070499D01*
X0138605Y0070527D01*
X0138649Y0070558D01*
X0138691Y0070592D01*
X0138731Y0070628D01*
X0138767Y0070668D01*
X0138801Y0070710D01*
X0138832Y0070754D01*
X0138860Y0070801D01*
X0138884Y0070849D01*
X0138904Y0070899D01*
X0138921Y0070950D01*
X0138935Y0071002D01*
X0138944Y0071055D01*
X0138950Y0071109D01*
X0138952Y0071163D01*
X0138952Y0071540D01*
X0138950Y0071594D01*
X0138944Y0071648D01*
X0138935Y0071701D01*
X0138921Y0071753D01*
X0138904Y0071804D01*
X0138884Y0071854D01*
X0138860Y0071902D01*
X0138832Y0071949D01*
X0138801Y0071993D01*
X0138767Y0072035D01*
X0138731Y0072075D01*
X0138691Y0072111D01*
X0138649Y0072145D01*
X0138605Y0072176D01*
X0138558Y0072204D01*
X0138510Y0072228D01*
X0138460Y0072248D01*
X0138409Y0072265D01*
X0138357Y0072279D01*
X0138304Y0072288D01*
X0138250Y0072294D01*
X0138196Y0072296D01*
X0137063Y0072296D01*
X0137063Y0073807D01*
X0138952Y0073807D01*
X0136691Y0076313D02*
X0134802Y0076313D01*
X0135746Y0076313D02*
X0135746Y0079713D01*
X0134802Y0078957D01*
X0133262Y0080090D02*
X0131751Y0075935D01*
X0138402Y0077257D02*
X0138404Y0077197D01*
X0138410Y0077136D01*
X0138419Y0077077D01*
X0138433Y0077018D01*
X0138450Y0076960D01*
X0138471Y0076903D01*
X0138495Y0076847D01*
X0138523Y0076794D01*
X0138555Y0076742D01*
X0138589Y0076692D01*
X0138627Y0076645D01*
X0138668Y0076600D01*
X0138711Y0076558D01*
X0138757Y0076519D01*
X0138806Y0076483D01*
X0138857Y0076450D01*
X0138909Y0076420D01*
X0138964Y0076394D01*
X0139020Y0076371D01*
X0139077Y0076352D01*
X0139136Y0076337D01*
X0139195Y0076325D01*
X0139255Y0076317D01*
X0139316Y0076313D01*
X0139376Y0076313D01*
X0139437Y0076317D01*
X0139497Y0076325D01*
X0139556Y0076337D01*
X0139615Y0076352D01*
X0139672Y0076371D01*
X0139728Y0076394D01*
X0139783Y0076420D01*
X0139835Y0076450D01*
X0139886Y0076483D01*
X0139935Y0076519D01*
X0139981Y0076558D01*
X0140024Y0076600D01*
X0140065Y0076645D01*
X0140103Y0076692D01*
X0140137Y0076742D01*
X0140169Y0076794D01*
X0140197Y0076847D01*
X0140221Y0076903D01*
X0140242Y0076960D01*
X0140259Y0077018D01*
X0140273Y0077077D01*
X0140282Y0077136D01*
X0140288Y0077197D01*
X0140290Y0077257D01*
X0140288Y0077317D01*
X0140282Y0077378D01*
X0140273Y0077437D01*
X0140259Y0077496D01*
X0140242Y0077554D01*
X0140221Y0077611D01*
X0140197Y0077667D01*
X0140169Y0077720D01*
X0140137Y0077772D01*
X0140103Y0077822D01*
X0140065Y0077869D01*
X0140024Y0077914D01*
X0139981Y0077956D01*
X0139935Y0077995D01*
X0139886Y0078031D01*
X0139835Y0078064D01*
X0139783Y0078094D01*
X0139728Y0078120D01*
X0139672Y0078143D01*
X0139615Y0078162D01*
X0139556Y0078177D01*
X0139497Y0078189D01*
X0139437Y0078197D01*
X0139376Y0078201D01*
X0139316Y0078201D01*
X0139255Y0078197D01*
X0139195Y0078189D01*
X0139136Y0078177D01*
X0139077Y0078162D01*
X0139020Y0078143D01*
X0138964Y0078120D01*
X0138909Y0078094D01*
X0138857Y0078064D01*
X0138806Y0078031D01*
X0138757Y0077995D01*
X0138711Y0077956D01*
X0138668Y0077914D01*
X0138627Y0077869D01*
X0138589Y0077822D01*
X0138555Y0077772D01*
X0138523Y0077720D01*
X0138495Y0077667D01*
X0138471Y0077611D01*
X0138450Y0077554D01*
X0138433Y0077496D01*
X0138419Y0077437D01*
X0138410Y0077378D01*
X0138404Y0077317D01*
X0138402Y0077257D01*
X0138590Y0078957D02*
X0138592Y0078903D01*
X0138598Y0078849D01*
X0138607Y0078796D01*
X0138621Y0078744D01*
X0138638Y0078693D01*
X0138658Y0078643D01*
X0138682Y0078595D01*
X0138710Y0078548D01*
X0138741Y0078504D01*
X0138775Y0078462D01*
X0138811Y0078422D01*
X0138851Y0078386D01*
X0138893Y0078352D01*
X0138937Y0078321D01*
X0138984Y0078293D01*
X0139032Y0078269D01*
X0139082Y0078249D01*
X0139133Y0078232D01*
X0139185Y0078218D01*
X0139238Y0078209D01*
X0139292Y0078203D01*
X0139346Y0078201D01*
X0139400Y0078203D01*
X0139454Y0078209D01*
X0139507Y0078218D01*
X0139559Y0078232D01*
X0139610Y0078249D01*
X0139660Y0078269D01*
X0139708Y0078293D01*
X0139755Y0078321D01*
X0139799Y0078352D01*
X0139841Y0078386D01*
X0139881Y0078422D01*
X0139917Y0078462D01*
X0139951Y0078504D01*
X0139982Y0078548D01*
X0140010Y0078595D01*
X0140034Y0078643D01*
X0140054Y0078693D01*
X0140071Y0078744D01*
X0140085Y0078796D01*
X0140094Y0078849D01*
X0140100Y0078903D01*
X0140102Y0078957D01*
X0140100Y0079011D01*
X0140094Y0079065D01*
X0140085Y0079118D01*
X0140071Y0079170D01*
X0140054Y0079221D01*
X0140034Y0079271D01*
X0140010Y0079319D01*
X0139982Y0079366D01*
X0139951Y0079410D01*
X0139917Y0079452D01*
X0139881Y0079492D01*
X0139841Y0079528D01*
X0139799Y0079562D01*
X0139755Y0079593D01*
X0139708Y0079621D01*
X0139660Y0079645D01*
X0139610Y0079665D01*
X0139559Y0079682D01*
X0139507Y0079696D01*
X0139454Y0079705D01*
X0139400Y0079711D01*
X0139346Y0079713D01*
X0139292Y0079711D01*
X0139238Y0079705D01*
X0139185Y0079696D01*
X0139133Y0079682D01*
X0139082Y0079665D01*
X0139032Y0079645D01*
X0138984Y0079621D01*
X0138937Y0079593D01*
X0138893Y0079562D01*
X0138851Y0079528D01*
X0138811Y0079492D01*
X0138775Y0079452D01*
X0138741Y0079410D01*
X0138710Y0079366D01*
X0138682Y0079319D01*
X0138658Y0079271D01*
X0138638Y0079221D01*
X0138621Y0079170D01*
X0138607Y0079118D01*
X0138598Y0079065D01*
X0138592Y0079011D01*
X0138590Y0078957D01*
X0156131Y0076997D02*
X0164792Y0076997D01*
X0164398Y0086839D02*
X0156131Y0086839D01*
X0156131Y0097076D02*
X0164398Y0097076D01*
X0164005Y0062036D02*
X0155737Y0062036D01*
X0195895Y0016761D02*
X0196204Y0016741D01*
X0196514Y0016728D01*
X0196824Y0016723D01*
X0197134Y0016726D01*
X0197444Y0016735D01*
X0197754Y0016753D01*
X0198063Y0016778D01*
X0198371Y0016810D01*
X0198679Y0016850D01*
X0198985Y0016897D01*
X0199291Y0016952D01*
X0199595Y0017014D01*
X0199897Y0017083D01*
X0200197Y0017159D01*
X0200496Y0017243D01*
X0200792Y0017334D01*
X0201087Y0017432D01*
X0201378Y0017538D01*
X0201667Y0017650D01*
X0201954Y0017769D01*
X0202237Y0017895D01*
X0202517Y0018028D01*
X0202794Y0018168D01*
X0203068Y0018314D01*
X0203337Y0018467D01*
X0203604Y0018626D01*
X0203866Y0018792D01*
X0204124Y0018964D01*
X0204378Y0019142D01*
X0204627Y0019326D01*
X0204872Y0019516D01*
X0205112Y0019712D01*
X0205348Y0019914D01*
X0205578Y0020122D01*
X0205804Y0020334D01*
X0206024Y0020553D01*
X0206239Y0020776D01*
X0206448Y0021005D01*
X0206652Y0021239D01*
X0206850Y0021477D01*
X0207042Y0021721D01*
X0207229Y0021969D01*
X0207409Y0022221D01*
X0207583Y0022478D01*
X0207751Y0022738D01*
X0207913Y0023003D01*
X0208068Y0023272D01*
X0208216Y0023544D01*
X0208358Y0023819D01*
X0208494Y0024098D01*
X0208622Y0024381D01*
X0208744Y0024666D01*
X0208859Y0024954D01*
X0208966Y0025245D01*
X0209067Y0025538D01*
X0209160Y0025834D01*
X0209247Y0026132D01*
X0209326Y0026432D01*
X0209398Y0026733D01*
X0209462Y0027037D01*
X0209519Y0027341D01*
X0209569Y0027648D01*
X0209612Y0027955D01*
X0209647Y0028263D01*
X0209674Y0028572D01*
X0152863Y0154792D02*
X0142863Y0154792D01*
X0142863Y0174792D01*
X0152863Y0174792D01*
X0152863Y0154792D01*
X0138296Y0154792D02*
X0138296Y0174792D01*
X0128296Y0174792D01*
X0128296Y0154792D01*
X0138296Y0154792D01*
X0120580Y0154792D02*
X0120580Y0174792D01*
X0110580Y0174792D01*
X0110580Y0154792D01*
X0120580Y0154792D01*
X0073728Y0144992D02*
X0056328Y0144992D01*
X0056328Y0164592D01*
X0063828Y0164592D01*
X0066228Y0164592D01*
X0073728Y0164592D01*
X0066228Y0164592D01*
X0063828Y0164592D01*
X0056328Y0164592D01*
X0063828Y0164592D02*
X0063830Y0164523D01*
X0063836Y0164455D01*
X0063846Y0164387D01*
X0063859Y0164320D01*
X0063877Y0164254D01*
X0063898Y0164189D01*
X0063923Y0164125D01*
X0063951Y0164063D01*
X0063983Y0164002D01*
X0064018Y0163943D01*
X0064057Y0163887D01*
X0064099Y0163832D01*
X0064144Y0163781D01*
X0064192Y0163731D01*
X0064242Y0163685D01*
X0064295Y0163642D01*
X0064351Y0163601D01*
X0064408Y0163564D01*
X0064468Y0163531D01*
X0064530Y0163500D01*
X0064593Y0163474D01*
X0064657Y0163451D01*
X0064723Y0163431D01*
X0064790Y0163416D01*
X0064857Y0163404D01*
X0064925Y0163396D01*
X0064994Y0163392D01*
X0065062Y0163392D01*
X0065131Y0163396D01*
X0065199Y0163404D01*
X0065266Y0163416D01*
X0065333Y0163431D01*
X0065399Y0163451D01*
X0065463Y0163474D01*
X0065526Y0163500D01*
X0065588Y0163531D01*
X0065648Y0163564D01*
X0065705Y0163601D01*
X0065761Y0163642D01*
X0065814Y0163685D01*
X0065864Y0163731D01*
X0065912Y0163781D01*
X0065957Y0163832D01*
X0065999Y0163887D01*
X0066038Y0163943D01*
X0066073Y0164002D01*
X0066105Y0164063D01*
X0066133Y0164125D01*
X0066158Y0164189D01*
X0066179Y0164254D01*
X0066197Y0164320D01*
X0066210Y0164387D01*
X0066220Y0164455D01*
X0066226Y0164523D01*
X0066228Y0164592D01*
X0066226Y0164523D01*
X0066220Y0164455D01*
X0066210Y0164387D01*
X0066197Y0164320D01*
X0066179Y0164254D01*
X0066158Y0164189D01*
X0066133Y0164125D01*
X0066105Y0164063D01*
X0066073Y0164002D01*
X0066038Y0163943D01*
X0065999Y0163887D01*
X0065957Y0163832D01*
X0065912Y0163781D01*
X0065864Y0163731D01*
X0065814Y0163685D01*
X0065761Y0163642D01*
X0065705Y0163601D01*
X0065648Y0163564D01*
X0065588Y0163531D01*
X0065526Y0163500D01*
X0065463Y0163474D01*
X0065399Y0163451D01*
X0065333Y0163431D01*
X0065266Y0163416D01*
X0065199Y0163404D01*
X0065131Y0163396D01*
X0065062Y0163392D01*
X0064994Y0163392D01*
X0064925Y0163396D01*
X0064857Y0163404D01*
X0064790Y0163416D01*
X0064723Y0163431D01*
X0064657Y0163451D01*
X0064593Y0163474D01*
X0064530Y0163500D01*
X0064468Y0163531D01*
X0064408Y0163564D01*
X0064351Y0163601D01*
X0064295Y0163642D01*
X0064242Y0163685D01*
X0064192Y0163731D01*
X0064144Y0163781D01*
X0064099Y0163832D01*
X0064057Y0163887D01*
X0064018Y0163943D01*
X0063983Y0164002D01*
X0063951Y0164063D01*
X0063923Y0164125D01*
X0063898Y0164189D01*
X0063877Y0164254D01*
X0063859Y0164320D01*
X0063846Y0164387D01*
X0063836Y0164455D01*
X0063830Y0164523D01*
X0063828Y0164592D01*
X0073728Y0164592D02*
X0073728Y0144992D01*
X0056328Y0144992D01*
D11*
X0190526Y0149859D02*
X0195609Y0149859D01*
X0195670Y0149861D01*
X0195732Y0149866D01*
X0195792Y0149876D01*
X0195852Y0149889D01*
X0195912Y0149905D01*
X0195970Y0149925D01*
X0196026Y0149949D01*
X0196082Y0149975D01*
X0196135Y0150006D01*
X0196187Y0150039D01*
X0196236Y0150075D01*
X0196283Y0150115D01*
X0196328Y0150157D01*
X0196370Y0150202D01*
X0196410Y0150249D01*
X0196446Y0150298D01*
X0196479Y0150350D01*
X0196510Y0150403D01*
X0196536Y0150459D01*
X0196560Y0150515D01*
X0196580Y0150573D01*
X0196596Y0150633D01*
X0196609Y0150693D01*
X0196619Y0150753D01*
X0196624Y0150815D01*
X0196626Y0150876D01*
X0196626Y0151215D01*
X0192559Y0151215D02*
X0192559Y0149181D01*
X0193576Y0146857D02*
X0196626Y0146857D01*
X0196626Y0145332D01*
X0196625Y0145332D02*
X0196623Y0145264D01*
X0196617Y0145197D01*
X0196608Y0145130D01*
X0196594Y0145063D01*
X0196577Y0144998D01*
X0196556Y0144933D01*
X0196531Y0144870D01*
X0196503Y0144809D01*
X0196472Y0144749D01*
X0196437Y0144691D01*
X0196398Y0144635D01*
X0196357Y0144581D01*
X0196313Y0144530D01*
X0196266Y0144481D01*
X0196216Y0144436D01*
X0196163Y0144393D01*
X0196108Y0144353D01*
X0196051Y0144316D01*
X0195992Y0144283D01*
X0195932Y0144253D01*
X0195869Y0144227D01*
X0195805Y0144204D01*
X0195741Y0144185D01*
X0195675Y0144170D01*
X0195608Y0144158D01*
X0195540Y0144150D01*
X0195473Y0144146D01*
X0195405Y0144146D01*
X0195338Y0144150D01*
X0195270Y0144158D01*
X0195203Y0144170D01*
X0195137Y0144185D01*
X0195073Y0144204D01*
X0195009Y0144227D01*
X0194946Y0144253D01*
X0194886Y0144283D01*
X0194827Y0144316D01*
X0194770Y0144353D01*
X0194715Y0144393D01*
X0194662Y0144436D01*
X0194612Y0144481D01*
X0194565Y0144530D01*
X0194521Y0144581D01*
X0194480Y0144635D01*
X0194441Y0144691D01*
X0194406Y0144749D01*
X0194375Y0144809D01*
X0194347Y0144870D01*
X0194322Y0144933D01*
X0194301Y0144998D01*
X0194284Y0145063D01*
X0194270Y0145130D01*
X0194261Y0145197D01*
X0194255Y0145264D01*
X0194253Y0145332D01*
X0194253Y0146857D01*
X0193576Y0146858D02*
X0193515Y0146856D01*
X0193453Y0146851D01*
X0193393Y0146841D01*
X0193333Y0146828D01*
X0193273Y0146812D01*
X0193215Y0146792D01*
X0193159Y0146768D01*
X0193103Y0146742D01*
X0193050Y0146711D01*
X0192998Y0146678D01*
X0192949Y0146642D01*
X0192902Y0146602D01*
X0192857Y0146560D01*
X0192815Y0146515D01*
X0192775Y0146468D01*
X0192739Y0146419D01*
X0192706Y0146367D01*
X0192675Y0146314D01*
X0192649Y0146258D01*
X0192625Y0146202D01*
X0192605Y0146144D01*
X0192589Y0146084D01*
X0192576Y0146024D01*
X0192566Y0145964D01*
X0192561Y0145902D01*
X0192559Y0145841D01*
X0192559Y0144485D01*
X0194084Y0141018D02*
X0193067Y0139154D01*
X0190525Y0139831D02*
X0190527Y0139927D01*
X0190532Y0140023D01*
X0190541Y0140119D01*
X0190554Y0140214D01*
X0190570Y0140309D01*
X0190590Y0140403D01*
X0190614Y0140497D01*
X0190641Y0140589D01*
X0190671Y0140680D01*
X0190705Y0140770D01*
X0190742Y0140859D01*
X0190783Y0140946D01*
X0190827Y0141032D01*
X0190874Y0141116D01*
X0190924Y0141198D01*
X0190977Y0141278D01*
X0191033Y0141356D01*
X0193067Y0139154D02*
X0193029Y0139093D01*
X0192989Y0139035D01*
X0192945Y0138978D01*
X0192898Y0138924D01*
X0192848Y0138873D01*
X0192796Y0138824D01*
X0192741Y0138778D01*
X0192684Y0138735D01*
X0192625Y0138694D01*
X0192564Y0138657D01*
X0192501Y0138624D01*
X0192437Y0138593D01*
X0192370Y0138566D01*
X0192303Y0138542D01*
X0192234Y0138522D01*
X0192165Y0138506D01*
X0192095Y0138493D01*
X0192024Y0138483D01*
X0191952Y0138478D01*
X0191881Y0138476D01*
X0191881Y0138475D02*
X0191810Y0138477D01*
X0191739Y0138482D01*
X0191669Y0138492D01*
X0191599Y0138505D01*
X0191530Y0138521D01*
X0191462Y0138541D01*
X0191395Y0138565D01*
X0191329Y0138592D01*
X0191265Y0138623D01*
X0191203Y0138657D01*
X0191142Y0138694D01*
X0191084Y0138734D01*
X0191028Y0138777D01*
X0190974Y0138823D01*
X0190922Y0138872D01*
X0190873Y0138924D01*
X0190827Y0138978D01*
X0190784Y0139034D01*
X0190744Y0139092D01*
X0190707Y0139153D01*
X0190673Y0139215D01*
X0190642Y0139279D01*
X0190615Y0139345D01*
X0190591Y0139412D01*
X0190571Y0139480D01*
X0190555Y0139549D01*
X0190542Y0139619D01*
X0190532Y0139689D01*
X0190527Y0139760D01*
X0190525Y0139831D01*
X0195779Y0138306D02*
X0195850Y0138380D01*
X0195919Y0138456D01*
X0195986Y0138535D01*
X0196049Y0138616D01*
X0196109Y0138699D01*
X0196167Y0138784D01*
X0196221Y0138872D01*
X0196272Y0138961D01*
X0196320Y0139052D01*
X0196364Y0139144D01*
X0196406Y0139238D01*
X0196444Y0139334D01*
X0196478Y0139431D01*
X0196509Y0139529D01*
X0196536Y0139628D01*
X0196560Y0139728D01*
X0196580Y0139829D01*
X0196597Y0139930D01*
X0196609Y0140032D01*
X0196619Y0140135D01*
X0196624Y0140237D01*
X0196626Y0140340D01*
X0196624Y0140411D01*
X0196619Y0140482D01*
X0196609Y0140552D01*
X0196596Y0140622D01*
X0196580Y0140691D01*
X0196560Y0140759D01*
X0196536Y0140826D01*
X0196509Y0140892D01*
X0196478Y0140956D01*
X0196444Y0141018D01*
X0196407Y0141079D01*
X0196367Y0141137D01*
X0196324Y0141193D01*
X0196278Y0141247D01*
X0196229Y0141299D01*
X0196177Y0141348D01*
X0196123Y0141394D01*
X0196067Y0141437D01*
X0196009Y0141477D01*
X0195948Y0141514D01*
X0195886Y0141548D01*
X0195822Y0141579D01*
X0195756Y0141606D01*
X0195689Y0141630D01*
X0195621Y0141650D01*
X0195552Y0141666D01*
X0195482Y0141679D01*
X0195412Y0141689D01*
X0195341Y0141694D01*
X0195270Y0141696D01*
X0195199Y0141694D01*
X0195127Y0141689D01*
X0195056Y0141679D01*
X0194986Y0141666D01*
X0194917Y0141650D01*
X0194848Y0141630D01*
X0194781Y0141606D01*
X0194714Y0141579D01*
X0194650Y0141548D01*
X0194587Y0141515D01*
X0194526Y0141478D01*
X0194467Y0141437D01*
X0194410Y0141394D01*
X0194355Y0141348D01*
X0194303Y0141299D01*
X0194253Y0141248D01*
X0194206Y0141194D01*
X0194163Y0141137D01*
X0194122Y0141079D01*
X0194084Y0141018D01*
X0192559Y0153825D02*
X0195609Y0153825D01*
X0195670Y0153827D01*
X0195732Y0153832D01*
X0195792Y0153842D01*
X0195852Y0153855D01*
X0195912Y0153871D01*
X0195970Y0153891D01*
X0196026Y0153915D01*
X0196082Y0153941D01*
X0196135Y0153972D01*
X0196187Y0154005D01*
X0196236Y0154041D01*
X0196283Y0154081D01*
X0196328Y0154123D01*
X0196370Y0154168D01*
X0196410Y0154215D01*
X0196446Y0154264D01*
X0196479Y0154316D01*
X0196510Y0154369D01*
X0196536Y0154425D01*
X0196560Y0154481D01*
X0196580Y0154539D01*
X0196596Y0154599D01*
X0196609Y0154659D01*
X0196619Y0154719D01*
X0196624Y0154781D01*
X0196626Y0154842D01*
X0196626Y0156536D01*
X0192559Y0156536D01*
X0192559Y0159613D02*
X0192559Y0161646D01*
X0193237Y0161646D01*
X0192559Y0159613D02*
X0196626Y0159613D01*
X0196626Y0163877D02*
X0192559Y0163877D01*
X0192559Y0165571D01*
X0192561Y0165632D01*
X0192566Y0165694D01*
X0192576Y0165754D01*
X0192589Y0165814D01*
X0192605Y0165874D01*
X0192625Y0165932D01*
X0192649Y0165988D01*
X0192675Y0166044D01*
X0192706Y0166097D01*
X0192739Y0166149D01*
X0192775Y0166198D01*
X0192815Y0166245D01*
X0192857Y0166290D01*
X0192902Y0166332D01*
X0192949Y0166372D01*
X0192998Y0166408D01*
X0193050Y0166441D01*
X0193103Y0166472D01*
X0193159Y0166498D01*
X0193215Y0166522D01*
X0193273Y0166542D01*
X0193333Y0166558D01*
X0193393Y0166571D01*
X0193453Y0166581D01*
X0193515Y0166586D01*
X0193576Y0166588D01*
X0196626Y0166588D01*
X0196626Y0169800D02*
X0190526Y0169800D01*
X0190526Y0171495D01*
X0190528Y0171576D01*
X0190534Y0171656D01*
X0190543Y0171736D01*
X0190557Y0171816D01*
X0190574Y0171894D01*
X0190595Y0171972D01*
X0190619Y0172049D01*
X0190647Y0172125D01*
X0190679Y0172199D01*
X0190714Y0172271D01*
X0190753Y0172342D01*
X0190795Y0172411D01*
X0190840Y0172478D01*
X0190888Y0172542D01*
X0190940Y0172604D01*
X0190994Y0172664D01*
X0191051Y0172721D01*
X0191111Y0172775D01*
X0191173Y0172827D01*
X0191237Y0172875D01*
X0191304Y0172920D01*
X0191373Y0172962D01*
X0191444Y0173001D01*
X0191516Y0173036D01*
X0191590Y0173068D01*
X0191666Y0173096D01*
X0191743Y0173120D01*
X0191821Y0173141D01*
X0191899Y0173158D01*
X0191979Y0173172D01*
X0192059Y0173181D01*
X0192139Y0173187D01*
X0192220Y0173189D01*
X0192301Y0173187D01*
X0192381Y0173181D01*
X0192461Y0173172D01*
X0192541Y0173158D01*
X0192619Y0173141D01*
X0192697Y0173120D01*
X0192774Y0173096D01*
X0192850Y0173068D01*
X0192924Y0173036D01*
X0192996Y0173001D01*
X0193067Y0172962D01*
X0193136Y0172920D01*
X0193203Y0172875D01*
X0193267Y0172827D01*
X0193329Y0172775D01*
X0193389Y0172721D01*
X0193446Y0172664D01*
X0193500Y0172604D01*
X0193552Y0172542D01*
X0193600Y0172478D01*
X0193645Y0172411D01*
X0193687Y0172342D01*
X0193726Y0172271D01*
X0193761Y0172199D01*
X0193793Y0172125D01*
X0193821Y0172049D01*
X0193845Y0171972D01*
X0193866Y0171894D01*
X0193883Y0171816D01*
X0193897Y0171736D01*
X0193906Y0171656D01*
X0193912Y0171576D01*
X0193914Y0171495D01*
X0193914Y0169800D01*
X0193067Y0176283D02*
X0194084Y0178147D01*
X0196626Y0177469D02*
X0196624Y0177366D01*
X0196619Y0177264D01*
X0196609Y0177161D01*
X0196597Y0177059D01*
X0196580Y0176958D01*
X0196560Y0176857D01*
X0196536Y0176757D01*
X0196509Y0176658D01*
X0196478Y0176560D01*
X0196444Y0176463D01*
X0196406Y0176367D01*
X0196364Y0176273D01*
X0196320Y0176181D01*
X0196272Y0176090D01*
X0196221Y0176001D01*
X0196167Y0175913D01*
X0196109Y0175828D01*
X0196049Y0175745D01*
X0195986Y0175664D01*
X0195919Y0175585D01*
X0195850Y0175509D01*
X0195779Y0175435D01*
X0194084Y0178147D02*
X0194122Y0178208D01*
X0194163Y0178266D01*
X0194206Y0178323D01*
X0194253Y0178377D01*
X0194303Y0178428D01*
X0194355Y0178477D01*
X0194410Y0178523D01*
X0194467Y0178566D01*
X0194526Y0178607D01*
X0194587Y0178644D01*
X0194650Y0178677D01*
X0194714Y0178708D01*
X0194781Y0178735D01*
X0194848Y0178759D01*
X0194917Y0178779D01*
X0194986Y0178795D01*
X0195056Y0178808D01*
X0195127Y0178818D01*
X0195199Y0178823D01*
X0195270Y0178825D01*
X0195341Y0178823D01*
X0195412Y0178818D01*
X0195482Y0178808D01*
X0195552Y0178795D01*
X0195621Y0178779D01*
X0195689Y0178759D01*
X0195756Y0178735D01*
X0195822Y0178708D01*
X0195886Y0178677D01*
X0195948Y0178643D01*
X0196009Y0178606D01*
X0196067Y0178566D01*
X0196123Y0178523D01*
X0196177Y0178477D01*
X0196229Y0178428D01*
X0196278Y0178376D01*
X0196324Y0178322D01*
X0196367Y0178266D01*
X0196407Y0178208D01*
X0196444Y0178147D01*
X0196478Y0178085D01*
X0196509Y0178021D01*
X0196536Y0177955D01*
X0196560Y0177888D01*
X0196580Y0177820D01*
X0196596Y0177751D01*
X0196609Y0177681D01*
X0196619Y0177611D01*
X0196624Y0177540D01*
X0196626Y0177469D01*
X0191033Y0178486D02*
X0190977Y0178408D01*
X0190924Y0178328D01*
X0190874Y0178246D01*
X0190827Y0178162D01*
X0190783Y0178076D01*
X0190742Y0177989D01*
X0190705Y0177900D01*
X0190671Y0177810D01*
X0190641Y0177719D01*
X0190614Y0177627D01*
X0190590Y0177533D01*
X0190570Y0177439D01*
X0190554Y0177344D01*
X0190541Y0177249D01*
X0190532Y0177153D01*
X0190527Y0177057D01*
X0190525Y0176961D01*
X0190527Y0176890D01*
X0190532Y0176819D01*
X0190542Y0176749D01*
X0190555Y0176679D01*
X0190571Y0176610D01*
X0190591Y0176542D01*
X0190615Y0176475D01*
X0190642Y0176409D01*
X0190673Y0176345D01*
X0190707Y0176283D01*
X0190744Y0176222D01*
X0190784Y0176164D01*
X0190827Y0176108D01*
X0190873Y0176054D01*
X0190922Y0176002D01*
X0190974Y0175953D01*
X0191028Y0175907D01*
X0191084Y0175864D01*
X0191142Y0175824D01*
X0191203Y0175787D01*
X0191265Y0175753D01*
X0191329Y0175722D01*
X0191395Y0175695D01*
X0191462Y0175671D01*
X0191530Y0175651D01*
X0191599Y0175635D01*
X0191669Y0175622D01*
X0191739Y0175612D01*
X0191810Y0175607D01*
X0191881Y0175605D01*
X0191952Y0175607D01*
X0192024Y0175612D01*
X0192095Y0175622D01*
X0192165Y0175635D01*
X0192234Y0175651D01*
X0192303Y0175671D01*
X0192370Y0175695D01*
X0192437Y0175722D01*
X0192501Y0175753D01*
X0192564Y0175786D01*
X0192625Y0175823D01*
X0192684Y0175864D01*
X0192741Y0175907D01*
X0192796Y0175953D01*
X0192848Y0176002D01*
X0192898Y0176053D01*
X0192945Y0176107D01*
X0192989Y0176164D01*
X0193029Y0176222D01*
X0193067Y0176283D01*
X0194931Y0181590D02*
X0190526Y0181590D01*
X0190526Y0184979D02*
X0194931Y0184979D01*
X0194931Y0184978D02*
X0195012Y0184976D01*
X0195092Y0184970D01*
X0195172Y0184961D01*
X0195252Y0184947D01*
X0195330Y0184930D01*
X0195408Y0184909D01*
X0195485Y0184885D01*
X0195561Y0184857D01*
X0195635Y0184825D01*
X0195707Y0184790D01*
X0195778Y0184751D01*
X0195847Y0184709D01*
X0195914Y0184664D01*
X0195978Y0184616D01*
X0196040Y0184564D01*
X0196100Y0184510D01*
X0196157Y0184453D01*
X0196211Y0184393D01*
X0196263Y0184331D01*
X0196311Y0184267D01*
X0196356Y0184200D01*
X0196398Y0184131D01*
X0196437Y0184060D01*
X0196472Y0183988D01*
X0196504Y0183914D01*
X0196532Y0183838D01*
X0196556Y0183761D01*
X0196577Y0183683D01*
X0196594Y0183605D01*
X0196608Y0183525D01*
X0196617Y0183445D01*
X0196623Y0183365D01*
X0196625Y0183284D01*
X0196623Y0183203D01*
X0196617Y0183123D01*
X0196608Y0183043D01*
X0196594Y0182963D01*
X0196577Y0182885D01*
X0196556Y0182807D01*
X0196532Y0182730D01*
X0196504Y0182654D01*
X0196472Y0182580D01*
X0196437Y0182508D01*
X0196398Y0182437D01*
X0196356Y0182368D01*
X0196311Y0182301D01*
X0196263Y0182237D01*
X0196211Y0182175D01*
X0196157Y0182115D01*
X0196100Y0182058D01*
X0196040Y0182004D01*
X0195978Y0181952D01*
X0195914Y0181904D01*
X0195847Y0181859D01*
X0195778Y0181817D01*
X0195707Y0181778D01*
X0195635Y0181743D01*
X0195561Y0181711D01*
X0195485Y0181683D01*
X0195408Y0181659D01*
X0195330Y0181638D01*
X0195252Y0181621D01*
X0195172Y0181607D01*
X0195092Y0181598D01*
X0195012Y0181592D01*
X0194931Y0181590D01*
D12*
X0153965Y0135265D02*
X0153967Y0135416D01*
X0153973Y0135566D01*
X0153983Y0135717D01*
X0153997Y0135867D01*
X0154015Y0136016D01*
X0154036Y0136166D01*
X0154062Y0136314D01*
X0154092Y0136462D01*
X0154125Y0136609D01*
X0154163Y0136755D01*
X0154204Y0136900D01*
X0154249Y0137044D01*
X0154298Y0137186D01*
X0154351Y0137327D01*
X0154407Y0137467D01*
X0154467Y0137605D01*
X0154530Y0137742D01*
X0154598Y0137877D01*
X0154668Y0138010D01*
X0154742Y0138141D01*
X0154820Y0138270D01*
X0154901Y0138397D01*
X0154985Y0138522D01*
X0155073Y0138645D01*
X0155164Y0138765D01*
X0155258Y0138883D01*
X0155355Y0138998D01*
X0155455Y0139111D01*
X0155558Y0139221D01*
X0155664Y0139328D01*
X0155773Y0139433D01*
X0155884Y0139534D01*
X0155998Y0139633D01*
X0156114Y0139728D01*
X0156234Y0139821D01*
X0156355Y0139910D01*
X0156479Y0139996D01*
X0156605Y0140079D01*
X0156733Y0140158D01*
X0156863Y0140234D01*
X0156995Y0140307D01*
X0157129Y0140375D01*
X0157265Y0140441D01*
X0157403Y0140503D01*
X0157542Y0140561D01*
X0157682Y0140615D01*
X0157824Y0140666D01*
X0157967Y0140713D01*
X0158112Y0140756D01*
X0158257Y0140795D01*
X0158404Y0140831D01*
X0158551Y0140862D01*
X0158699Y0140890D01*
X0158848Y0140914D01*
X0158997Y0140934D01*
X0159147Y0140950D01*
X0159297Y0140962D01*
X0159448Y0140970D01*
X0159599Y0140974D01*
X0159749Y0140974D01*
X0159900Y0140970D01*
X0160051Y0140962D01*
X0160201Y0140950D01*
X0160351Y0140934D01*
X0160500Y0140914D01*
X0160649Y0140890D01*
X0160797Y0140862D01*
X0160944Y0140831D01*
X0161091Y0140795D01*
X0161236Y0140756D01*
X0161381Y0140713D01*
X0161524Y0140666D01*
X0161666Y0140615D01*
X0161806Y0140561D01*
X0161945Y0140503D01*
X0162083Y0140441D01*
X0162219Y0140375D01*
X0162353Y0140307D01*
X0162485Y0140234D01*
X0162615Y0140158D01*
X0162743Y0140079D01*
X0162869Y0139996D01*
X0162993Y0139910D01*
X0163114Y0139821D01*
X0163234Y0139728D01*
X0163350Y0139633D01*
X0163464Y0139534D01*
X0163575Y0139433D01*
X0163684Y0139328D01*
X0163790Y0139221D01*
X0163893Y0139111D01*
X0163993Y0138998D01*
X0164090Y0138883D01*
X0164184Y0138765D01*
X0164275Y0138645D01*
X0164363Y0138522D01*
X0164447Y0138397D01*
X0164528Y0138270D01*
X0164606Y0138141D01*
X0164680Y0138010D01*
X0164750Y0137877D01*
X0164818Y0137742D01*
X0164881Y0137605D01*
X0164941Y0137467D01*
X0164997Y0137327D01*
X0165050Y0137186D01*
X0165099Y0137044D01*
X0165144Y0136900D01*
X0165185Y0136755D01*
X0165223Y0136609D01*
X0165256Y0136462D01*
X0165286Y0136314D01*
X0165312Y0136166D01*
X0165333Y0136016D01*
X0165351Y0135867D01*
X0165365Y0135717D01*
X0165375Y0135566D01*
X0165381Y0135416D01*
X0165383Y0135265D01*
X0165381Y0135114D01*
X0165375Y0134964D01*
X0165365Y0134813D01*
X0165351Y0134663D01*
X0165333Y0134514D01*
X0165312Y0134364D01*
X0165286Y0134216D01*
X0165256Y0134068D01*
X0165223Y0133921D01*
X0165185Y0133775D01*
X0165144Y0133630D01*
X0165099Y0133486D01*
X0165050Y0133344D01*
X0164997Y0133203D01*
X0164941Y0133063D01*
X0164881Y0132925D01*
X0164818Y0132788D01*
X0164750Y0132653D01*
X0164680Y0132520D01*
X0164606Y0132389D01*
X0164528Y0132260D01*
X0164447Y0132133D01*
X0164363Y0132008D01*
X0164275Y0131885D01*
X0164184Y0131765D01*
X0164090Y0131647D01*
X0163993Y0131532D01*
X0163893Y0131419D01*
X0163790Y0131309D01*
X0163684Y0131202D01*
X0163575Y0131097D01*
X0163464Y0130996D01*
X0163350Y0130897D01*
X0163234Y0130802D01*
X0163114Y0130709D01*
X0162993Y0130620D01*
X0162869Y0130534D01*
X0162743Y0130451D01*
X0162615Y0130372D01*
X0162485Y0130296D01*
X0162353Y0130223D01*
X0162219Y0130155D01*
X0162083Y0130089D01*
X0161945Y0130027D01*
X0161806Y0129969D01*
X0161666Y0129915D01*
X0161524Y0129864D01*
X0161381Y0129817D01*
X0161236Y0129774D01*
X0161091Y0129735D01*
X0160944Y0129699D01*
X0160797Y0129668D01*
X0160649Y0129640D01*
X0160500Y0129616D01*
X0160351Y0129596D01*
X0160201Y0129580D01*
X0160051Y0129568D01*
X0159900Y0129560D01*
X0159749Y0129556D01*
X0159599Y0129556D01*
X0159448Y0129560D01*
X0159297Y0129568D01*
X0159147Y0129580D01*
X0158997Y0129596D01*
X0158848Y0129616D01*
X0158699Y0129640D01*
X0158551Y0129668D01*
X0158404Y0129699D01*
X0158257Y0129735D01*
X0158112Y0129774D01*
X0157967Y0129817D01*
X0157824Y0129864D01*
X0157682Y0129915D01*
X0157542Y0129969D01*
X0157403Y0130027D01*
X0157265Y0130089D01*
X0157129Y0130155D01*
X0156995Y0130223D01*
X0156863Y0130296D01*
X0156733Y0130372D01*
X0156605Y0130451D01*
X0156479Y0130534D01*
X0156355Y0130620D01*
X0156234Y0130709D01*
X0156114Y0130802D01*
X0155998Y0130897D01*
X0155884Y0130996D01*
X0155773Y0131097D01*
X0155664Y0131202D01*
X0155558Y0131309D01*
X0155455Y0131419D01*
X0155355Y0131532D01*
X0155258Y0131647D01*
X0155164Y0131765D01*
X0155073Y0131885D01*
X0154985Y0132008D01*
X0154901Y0132133D01*
X0154820Y0132260D01*
X0154742Y0132389D01*
X0154668Y0132520D01*
X0154598Y0132653D01*
X0154530Y0132788D01*
X0154467Y0132925D01*
X0154407Y0133063D01*
X0154351Y0133203D01*
X0154298Y0133344D01*
X0154249Y0133486D01*
X0154204Y0133630D01*
X0154163Y0133775D01*
X0154125Y0133921D01*
X0154092Y0134068D01*
X0154062Y0134216D01*
X0154036Y0134364D01*
X0154015Y0134514D01*
X0153997Y0134663D01*
X0153983Y0134813D01*
X0153973Y0134964D01*
X0153967Y0135114D01*
X0153965Y0135265D01*
X0135363Y0102056D02*
X0135365Y0102193D01*
X0135371Y0102331D01*
X0135381Y0102468D01*
X0135395Y0102604D01*
X0135413Y0102741D01*
X0135435Y0102876D01*
X0135461Y0103011D01*
X0135490Y0103145D01*
X0135524Y0103279D01*
X0135561Y0103411D01*
X0135603Y0103542D01*
X0135648Y0103672D01*
X0135697Y0103800D01*
X0135749Y0103927D01*
X0135806Y0104052D01*
X0135865Y0104176D01*
X0135929Y0104298D01*
X0135996Y0104418D01*
X0136066Y0104536D01*
X0136140Y0104652D01*
X0136217Y0104766D01*
X0136298Y0104877D01*
X0136381Y0104986D01*
X0136468Y0105093D01*
X0136558Y0105196D01*
X0136651Y0105298D01*
X0136747Y0105396D01*
X0136845Y0105492D01*
X0136947Y0105585D01*
X0137050Y0105675D01*
X0137157Y0105762D01*
X0137266Y0105845D01*
X0137377Y0105926D01*
X0137491Y0106003D01*
X0137607Y0106077D01*
X0137725Y0106147D01*
X0137845Y0106214D01*
X0137967Y0106278D01*
X0138091Y0106337D01*
X0138216Y0106394D01*
X0138343Y0106446D01*
X0138471Y0106495D01*
X0138601Y0106540D01*
X0138732Y0106582D01*
X0138864Y0106619D01*
X0138998Y0106653D01*
X0139132Y0106682D01*
X0139267Y0106708D01*
X0139402Y0106730D01*
X0139539Y0106748D01*
X0139675Y0106762D01*
X0139812Y0106772D01*
X0139950Y0106778D01*
X0140087Y0106780D01*
X0140224Y0106778D01*
X0140362Y0106772D01*
X0140499Y0106762D01*
X0140635Y0106748D01*
X0140772Y0106730D01*
X0140907Y0106708D01*
X0141042Y0106682D01*
X0141176Y0106653D01*
X0141310Y0106619D01*
X0141442Y0106582D01*
X0141573Y0106540D01*
X0141703Y0106495D01*
X0141831Y0106446D01*
X0141958Y0106394D01*
X0142083Y0106337D01*
X0142207Y0106278D01*
X0142329Y0106214D01*
X0142449Y0106147D01*
X0142567Y0106077D01*
X0142683Y0106003D01*
X0142797Y0105926D01*
X0142908Y0105845D01*
X0143017Y0105762D01*
X0143124Y0105675D01*
X0143227Y0105585D01*
X0143329Y0105492D01*
X0143427Y0105396D01*
X0143523Y0105298D01*
X0143616Y0105196D01*
X0143706Y0105093D01*
X0143793Y0104986D01*
X0143876Y0104877D01*
X0143957Y0104766D01*
X0144034Y0104652D01*
X0144108Y0104536D01*
X0144178Y0104418D01*
X0144245Y0104298D01*
X0144309Y0104176D01*
X0144368Y0104052D01*
X0144425Y0103927D01*
X0144477Y0103800D01*
X0144526Y0103672D01*
X0144571Y0103542D01*
X0144613Y0103411D01*
X0144650Y0103279D01*
X0144684Y0103145D01*
X0144713Y0103011D01*
X0144739Y0102876D01*
X0144761Y0102741D01*
X0144779Y0102604D01*
X0144793Y0102468D01*
X0144803Y0102331D01*
X0144809Y0102193D01*
X0144811Y0102056D01*
X0144809Y0101919D01*
X0144803Y0101781D01*
X0144793Y0101644D01*
X0144779Y0101508D01*
X0144761Y0101371D01*
X0144739Y0101236D01*
X0144713Y0101101D01*
X0144684Y0100967D01*
X0144650Y0100833D01*
X0144613Y0100701D01*
X0144571Y0100570D01*
X0144526Y0100440D01*
X0144477Y0100312D01*
X0144425Y0100185D01*
X0144368Y0100060D01*
X0144309Y0099936D01*
X0144245Y0099814D01*
X0144178Y0099694D01*
X0144108Y0099576D01*
X0144034Y0099460D01*
X0143957Y0099346D01*
X0143876Y0099235D01*
X0143793Y0099126D01*
X0143706Y0099019D01*
X0143616Y0098916D01*
X0143523Y0098814D01*
X0143427Y0098716D01*
X0143329Y0098620D01*
X0143227Y0098527D01*
X0143124Y0098437D01*
X0143017Y0098350D01*
X0142908Y0098267D01*
X0142797Y0098186D01*
X0142683Y0098109D01*
X0142567Y0098035D01*
X0142449Y0097965D01*
X0142329Y0097898D01*
X0142207Y0097834D01*
X0142083Y0097775D01*
X0141958Y0097718D01*
X0141831Y0097666D01*
X0141703Y0097617D01*
X0141573Y0097572D01*
X0141442Y0097530D01*
X0141310Y0097493D01*
X0141176Y0097459D01*
X0141042Y0097430D01*
X0140907Y0097404D01*
X0140772Y0097382D01*
X0140635Y0097364D01*
X0140499Y0097350D01*
X0140362Y0097340D01*
X0140224Y0097334D01*
X0140087Y0097332D01*
X0139950Y0097334D01*
X0139812Y0097340D01*
X0139675Y0097350D01*
X0139539Y0097364D01*
X0139402Y0097382D01*
X0139267Y0097404D01*
X0139132Y0097430D01*
X0138998Y0097459D01*
X0138864Y0097493D01*
X0138732Y0097530D01*
X0138601Y0097572D01*
X0138471Y0097617D01*
X0138343Y0097666D01*
X0138216Y0097718D01*
X0138091Y0097775D01*
X0137967Y0097834D01*
X0137845Y0097898D01*
X0137725Y0097965D01*
X0137607Y0098035D01*
X0137491Y0098109D01*
X0137377Y0098186D01*
X0137266Y0098267D01*
X0137157Y0098350D01*
X0137050Y0098437D01*
X0136947Y0098527D01*
X0136845Y0098620D01*
X0136747Y0098716D01*
X0136651Y0098814D01*
X0136558Y0098916D01*
X0136468Y0099019D01*
X0136381Y0099126D01*
X0136298Y0099235D01*
X0136217Y0099346D01*
X0136140Y0099460D01*
X0136066Y0099576D01*
X0135996Y0099694D01*
X0135929Y0099814D01*
X0135865Y0099936D01*
X0135806Y0100060D01*
X0135749Y0100185D01*
X0135697Y0100312D01*
X0135648Y0100440D01*
X0135603Y0100570D01*
X0135561Y0100701D01*
X0135524Y0100833D01*
X0135490Y0100967D01*
X0135461Y0101101D01*
X0135435Y0101236D01*
X0135413Y0101371D01*
X0135395Y0101508D01*
X0135381Y0101644D01*
X0135371Y0101781D01*
X0135365Y0101919D01*
X0135363Y0102056D01*
X0119773Y0102056D02*
X0119775Y0102193D01*
X0119781Y0102331D01*
X0119791Y0102468D01*
X0119805Y0102604D01*
X0119823Y0102741D01*
X0119845Y0102876D01*
X0119871Y0103011D01*
X0119900Y0103145D01*
X0119934Y0103279D01*
X0119971Y0103411D01*
X0120013Y0103542D01*
X0120058Y0103672D01*
X0120107Y0103800D01*
X0120159Y0103927D01*
X0120216Y0104052D01*
X0120275Y0104176D01*
X0120339Y0104298D01*
X0120406Y0104418D01*
X0120476Y0104536D01*
X0120550Y0104652D01*
X0120627Y0104766D01*
X0120708Y0104877D01*
X0120791Y0104986D01*
X0120878Y0105093D01*
X0120968Y0105196D01*
X0121061Y0105298D01*
X0121157Y0105396D01*
X0121255Y0105492D01*
X0121357Y0105585D01*
X0121460Y0105675D01*
X0121567Y0105762D01*
X0121676Y0105845D01*
X0121787Y0105926D01*
X0121901Y0106003D01*
X0122017Y0106077D01*
X0122135Y0106147D01*
X0122255Y0106214D01*
X0122377Y0106278D01*
X0122501Y0106337D01*
X0122626Y0106394D01*
X0122753Y0106446D01*
X0122881Y0106495D01*
X0123011Y0106540D01*
X0123142Y0106582D01*
X0123274Y0106619D01*
X0123408Y0106653D01*
X0123542Y0106682D01*
X0123677Y0106708D01*
X0123812Y0106730D01*
X0123949Y0106748D01*
X0124085Y0106762D01*
X0124222Y0106772D01*
X0124360Y0106778D01*
X0124497Y0106780D01*
X0124634Y0106778D01*
X0124772Y0106772D01*
X0124909Y0106762D01*
X0125045Y0106748D01*
X0125182Y0106730D01*
X0125317Y0106708D01*
X0125452Y0106682D01*
X0125586Y0106653D01*
X0125720Y0106619D01*
X0125852Y0106582D01*
X0125983Y0106540D01*
X0126113Y0106495D01*
X0126241Y0106446D01*
X0126368Y0106394D01*
X0126493Y0106337D01*
X0126617Y0106278D01*
X0126739Y0106214D01*
X0126859Y0106147D01*
X0126977Y0106077D01*
X0127093Y0106003D01*
X0127207Y0105926D01*
X0127318Y0105845D01*
X0127427Y0105762D01*
X0127534Y0105675D01*
X0127637Y0105585D01*
X0127739Y0105492D01*
X0127837Y0105396D01*
X0127933Y0105298D01*
X0128026Y0105196D01*
X0128116Y0105093D01*
X0128203Y0104986D01*
X0128286Y0104877D01*
X0128367Y0104766D01*
X0128444Y0104652D01*
X0128518Y0104536D01*
X0128588Y0104418D01*
X0128655Y0104298D01*
X0128719Y0104176D01*
X0128778Y0104052D01*
X0128835Y0103927D01*
X0128887Y0103800D01*
X0128936Y0103672D01*
X0128981Y0103542D01*
X0129023Y0103411D01*
X0129060Y0103279D01*
X0129094Y0103145D01*
X0129123Y0103011D01*
X0129149Y0102876D01*
X0129171Y0102741D01*
X0129189Y0102604D01*
X0129203Y0102468D01*
X0129213Y0102331D01*
X0129219Y0102193D01*
X0129221Y0102056D01*
X0129219Y0101919D01*
X0129213Y0101781D01*
X0129203Y0101644D01*
X0129189Y0101508D01*
X0129171Y0101371D01*
X0129149Y0101236D01*
X0129123Y0101101D01*
X0129094Y0100967D01*
X0129060Y0100833D01*
X0129023Y0100701D01*
X0128981Y0100570D01*
X0128936Y0100440D01*
X0128887Y0100312D01*
X0128835Y0100185D01*
X0128778Y0100060D01*
X0128719Y0099936D01*
X0128655Y0099814D01*
X0128588Y0099694D01*
X0128518Y0099576D01*
X0128444Y0099460D01*
X0128367Y0099346D01*
X0128286Y0099235D01*
X0128203Y0099126D01*
X0128116Y0099019D01*
X0128026Y0098916D01*
X0127933Y0098814D01*
X0127837Y0098716D01*
X0127739Y0098620D01*
X0127637Y0098527D01*
X0127534Y0098437D01*
X0127427Y0098350D01*
X0127318Y0098267D01*
X0127207Y0098186D01*
X0127093Y0098109D01*
X0126977Y0098035D01*
X0126859Y0097965D01*
X0126739Y0097898D01*
X0126617Y0097834D01*
X0126493Y0097775D01*
X0126368Y0097718D01*
X0126241Y0097666D01*
X0126113Y0097617D01*
X0125983Y0097572D01*
X0125852Y0097530D01*
X0125720Y0097493D01*
X0125586Y0097459D01*
X0125452Y0097430D01*
X0125317Y0097404D01*
X0125182Y0097382D01*
X0125045Y0097364D01*
X0124909Y0097350D01*
X0124772Y0097340D01*
X0124634Y0097334D01*
X0124497Y0097332D01*
X0124360Y0097334D01*
X0124222Y0097340D01*
X0124085Y0097350D01*
X0123949Y0097364D01*
X0123812Y0097382D01*
X0123677Y0097404D01*
X0123542Y0097430D01*
X0123408Y0097459D01*
X0123274Y0097493D01*
X0123142Y0097530D01*
X0123011Y0097572D01*
X0122881Y0097617D01*
X0122753Y0097666D01*
X0122626Y0097718D01*
X0122501Y0097775D01*
X0122377Y0097834D01*
X0122255Y0097898D01*
X0122135Y0097965D01*
X0122017Y0098035D01*
X0121901Y0098109D01*
X0121787Y0098186D01*
X0121676Y0098267D01*
X0121567Y0098350D01*
X0121460Y0098437D01*
X0121357Y0098527D01*
X0121255Y0098620D01*
X0121157Y0098716D01*
X0121061Y0098814D01*
X0120968Y0098916D01*
X0120878Y0099019D01*
X0120791Y0099126D01*
X0120708Y0099235D01*
X0120627Y0099346D01*
X0120550Y0099460D01*
X0120476Y0099576D01*
X0120406Y0099694D01*
X0120339Y0099814D01*
X0120275Y0099936D01*
X0120216Y0100060D01*
X0120159Y0100185D01*
X0120107Y0100312D01*
X0120058Y0100440D01*
X0120013Y0100570D01*
X0119971Y0100701D01*
X0119934Y0100833D01*
X0119900Y0100967D01*
X0119871Y0101101D01*
X0119845Y0101236D01*
X0119823Y0101371D01*
X0119805Y0101508D01*
X0119791Y0101644D01*
X0119781Y0101781D01*
X0119775Y0101919D01*
X0119773Y0102056D01*
X0104182Y0102056D02*
X0104184Y0102193D01*
X0104190Y0102331D01*
X0104200Y0102468D01*
X0104214Y0102604D01*
X0104232Y0102741D01*
X0104254Y0102876D01*
X0104280Y0103011D01*
X0104309Y0103145D01*
X0104343Y0103279D01*
X0104380Y0103411D01*
X0104422Y0103542D01*
X0104467Y0103672D01*
X0104516Y0103800D01*
X0104568Y0103927D01*
X0104625Y0104052D01*
X0104684Y0104176D01*
X0104748Y0104298D01*
X0104815Y0104418D01*
X0104885Y0104536D01*
X0104959Y0104652D01*
X0105036Y0104766D01*
X0105117Y0104877D01*
X0105200Y0104986D01*
X0105287Y0105093D01*
X0105377Y0105196D01*
X0105470Y0105298D01*
X0105566Y0105396D01*
X0105664Y0105492D01*
X0105766Y0105585D01*
X0105869Y0105675D01*
X0105976Y0105762D01*
X0106085Y0105845D01*
X0106196Y0105926D01*
X0106310Y0106003D01*
X0106426Y0106077D01*
X0106544Y0106147D01*
X0106664Y0106214D01*
X0106786Y0106278D01*
X0106910Y0106337D01*
X0107035Y0106394D01*
X0107162Y0106446D01*
X0107290Y0106495D01*
X0107420Y0106540D01*
X0107551Y0106582D01*
X0107683Y0106619D01*
X0107817Y0106653D01*
X0107951Y0106682D01*
X0108086Y0106708D01*
X0108221Y0106730D01*
X0108358Y0106748D01*
X0108494Y0106762D01*
X0108631Y0106772D01*
X0108769Y0106778D01*
X0108906Y0106780D01*
X0109043Y0106778D01*
X0109181Y0106772D01*
X0109318Y0106762D01*
X0109454Y0106748D01*
X0109591Y0106730D01*
X0109726Y0106708D01*
X0109861Y0106682D01*
X0109995Y0106653D01*
X0110129Y0106619D01*
X0110261Y0106582D01*
X0110392Y0106540D01*
X0110522Y0106495D01*
X0110650Y0106446D01*
X0110777Y0106394D01*
X0110902Y0106337D01*
X0111026Y0106278D01*
X0111148Y0106214D01*
X0111268Y0106147D01*
X0111386Y0106077D01*
X0111502Y0106003D01*
X0111616Y0105926D01*
X0111727Y0105845D01*
X0111836Y0105762D01*
X0111943Y0105675D01*
X0112046Y0105585D01*
X0112148Y0105492D01*
X0112246Y0105396D01*
X0112342Y0105298D01*
X0112435Y0105196D01*
X0112525Y0105093D01*
X0112612Y0104986D01*
X0112695Y0104877D01*
X0112776Y0104766D01*
X0112853Y0104652D01*
X0112927Y0104536D01*
X0112997Y0104418D01*
X0113064Y0104298D01*
X0113128Y0104176D01*
X0113187Y0104052D01*
X0113244Y0103927D01*
X0113296Y0103800D01*
X0113345Y0103672D01*
X0113390Y0103542D01*
X0113432Y0103411D01*
X0113469Y0103279D01*
X0113503Y0103145D01*
X0113532Y0103011D01*
X0113558Y0102876D01*
X0113580Y0102741D01*
X0113598Y0102604D01*
X0113612Y0102468D01*
X0113622Y0102331D01*
X0113628Y0102193D01*
X0113630Y0102056D01*
X0113628Y0101919D01*
X0113622Y0101781D01*
X0113612Y0101644D01*
X0113598Y0101508D01*
X0113580Y0101371D01*
X0113558Y0101236D01*
X0113532Y0101101D01*
X0113503Y0100967D01*
X0113469Y0100833D01*
X0113432Y0100701D01*
X0113390Y0100570D01*
X0113345Y0100440D01*
X0113296Y0100312D01*
X0113244Y0100185D01*
X0113187Y0100060D01*
X0113128Y0099936D01*
X0113064Y0099814D01*
X0112997Y0099694D01*
X0112927Y0099576D01*
X0112853Y0099460D01*
X0112776Y0099346D01*
X0112695Y0099235D01*
X0112612Y0099126D01*
X0112525Y0099019D01*
X0112435Y0098916D01*
X0112342Y0098814D01*
X0112246Y0098716D01*
X0112148Y0098620D01*
X0112046Y0098527D01*
X0111943Y0098437D01*
X0111836Y0098350D01*
X0111727Y0098267D01*
X0111616Y0098186D01*
X0111502Y0098109D01*
X0111386Y0098035D01*
X0111268Y0097965D01*
X0111148Y0097898D01*
X0111026Y0097834D01*
X0110902Y0097775D01*
X0110777Y0097718D01*
X0110650Y0097666D01*
X0110522Y0097617D01*
X0110392Y0097572D01*
X0110261Y0097530D01*
X0110129Y0097493D01*
X0109995Y0097459D01*
X0109861Y0097430D01*
X0109726Y0097404D01*
X0109591Y0097382D01*
X0109454Y0097364D01*
X0109318Y0097350D01*
X0109181Y0097340D01*
X0109043Y0097334D01*
X0108906Y0097332D01*
X0108769Y0097334D01*
X0108631Y0097340D01*
X0108494Y0097350D01*
X0108358Y0097364D01*
X0108221Y0097382D01*
X0108086Y0097404D01*
X0107951Y0097430D01*
X0107817Y0097459D01*
X0107683Y0097493D01*
X0107551Y0097530D01*
X0107420Y0097572D01*
X0107290Y0097617D01*
X0107162Y0097666D01*
X0107035Y0097718D01*
X0106910Y0097775D01*
X0106786Y0097834D01*
X0106664Y0097898D01*
X0106544Y0097965D01*
X0106426Y0098035D01*
X0106310Y0098109D01*
X0106196Y0098186D01*
X0106085Y0098267D01*
X0105976Y0098350D01*
X0105869Y0098437D01*
X0105766Y0098527D01*
X0105664Y0098620D01*
X0105566Y0098716D01*
X0105470Y0098814D01*
X0105377Y0098916D01*
X0105287Y0099019D01*
X0105200Y0099126D01*
X0105117Y0099235D01*
X0105036Y0099346D01*
X0104959Y0099460D01*
X0104885Y0099576D01*
X0104815Y0099694D01*
X0104748Y0099814D01*
X0104684Y0099936D01*
X0104625Y0100060D01*
X0104568Y0100185D01*
X0104516Y0100312D01*
X0104467Y0100440D01*
X0104422Y0100570D01*
X0104380Y0100701D01*
X0104343Y0100833D01*
X0104309Y0100967D01*
X0104280Y0101101D01*
X0104254Y0101236D01*
X0104232Y0101371D01*
X0104214Y0101508D01*
X0104200Y0101644D01*
X0104190Y0101781D01*
X0104184Y0101919D01*
X0104182Y0102056D01*
X0088592Y0102056D02*
X0088594Y0102193D01*
X0088600Y0102331D01*
X0088610Y0102468D01*
X0088624Y0102604D01*
X0088642Y0102741D01*
X0088664Y0102876D01*
X0088690Y0103011D01*
X0088719Y0103145D01*
X0088753Y0103279D01*
X0088790Y0103411D01*
X0088832Y0103542D01*
X0088877Y0103672D01*
X0088926Y0103800D01*
X0088978Y0103927D01*
X0089035Y0104052D01*
X0089094Y0104176D01*
X0089158Y0104298D01*
X0089225Y0104418D01*
X0089295Y0104536D01*
X0089369Y0104652D01*
X0089446Y0104766D01*
X0089527Y0104877D01*
X0089610Y0104986D01*
X0089697Y0105093D01*
X0089787Y0105196D01*
X0089880Y0105298D01*
X0089976Y0105396D01*
X0090074Y0105492D01*
X0090176Y0105585D01*
X0090279Y0105675D01*
X0090386Y0105762D01*
X0090495Y0105845D01*
X0090606Y0105926D01*
X0090720Y0106003D01*
X0090836Y0106077D01*
X0090954Y0106147D01*
X0091074Y0106214D01*
X0091196Y0106278D01*
X0091320Y0106337D01*
X0091445Y0106394D01*
X0091572Y0106446D01*
X0091700Y0106495D01*
X0091830Y0106540D01*
X0091961Y0106582D01*
X0092093Y0106619D01*
X0092227Y0106653D01*
X0092361Y0106682D01*
X0092496Y0106708D01*
X0092631Y0106730D01*
X0092768Y0106748D01*
X0092904Y0106762D01*
X0093041Y0106772D01*
X0093179Y0106778D01*
X0093316Y0106780D01*
X0093453Y0106778D01*
X0093591Y0106772D01*
X0093728Y0106762D01*
X0093864Y0106748D01*
X0094001Y0106730D01*
X0094136Y0106708D01*
X0094271Y0106682D01*
X0094405Y0106653D01*
X0094539Y0106619D01*
X0094671Y0106582D01*
X0094802Y0106540D01*
X0094932Y0106495D01*
X0095060Y0106446D01*
X0095187Y0106394D01*
X0095312Y0106337D01*
X0095436Y0106278D01*
X0095558Y0106214D01*
X0095678Y0106147D01*
X0095796Y0106077D01*
X0095912Y0106003D01*
X0096026Y0105926D01*
X0096137Y0105845D01*
X0096246Y0105762D01*
X0096353Y0105675D01*
X0096456Y0105585D01*
X0096558Y0105492D01*
X0096656Y0105396D01*
X0096752Y0105298D01*
X0096845Y0105196D01*
X0096935Y0105093D01*
X0097022Y0104986D01*
X0097105Y0104877D01*
X0097186Y0104766D01*
X0097263Y0104652D01*
X0097337Y0104536D01*
X0097407Y0104418D01*
X0097474Y0104298D01*
X0097538Y0104176D01*
X0097597Y0104052D01*
X0097654Y0103927D01*
X0097706Y0103800D01*
X0097755Y0103672D01*
X0097800Y0103542D01*
X0097842Y0103411D01*
X0097879Y0103279D01*
X0097913Y0103145D01*
X0097942Y0103011D01*
X0097968Y0102876D01*
X0097990Y0102741D01*
X0098008Y0102604D01*
X0098022Y0102468D01*
X0098032Y0102331D01*
X0098038Y0102193D01*
X0098040Y0102056D01*
X0098038Y0101919D01*
X0098032Y0101781D01*
X0098022Y0101644D01*
X0098008Y0101508D01*
X0097990Y0101371D01*
X0097968Y0101236D01*
X0097942Y0101101D01*
X0097913Y0100967D01*
X0097879Y0100833D01*
X0097842Y0100701D01*
X0097800Y0100570D01*
X0097755Y0100440D01*
X0097706Y0100312D01*
X0097654Y0100185D01*
X0097597Y0100060D01*
X0097538Y0099936D01*
X0097474Y0099814D01*
X0097407Y0099694D01*
X0097337Y0099576D01*
X0097263Y0099460D01*
X0097186Y0099346D01*
X0097105Y0099235D01*
X0097022Y0099126D01*
X0096935Y0099019D01*
X0096845Y0098916D01*
X0096752Y0098814D01*
X0096656Y0098716D01*
X0096558Y0098620D01*
X0096456Y0098527D01*
X0096353Y0098437D01*
X0096246Y0098350D01*
X0096137Y0098267D01*
X0096026Y0098186D01*
X0095912Y0098109D01*
X0095796Y0098035D01*
X0095678Y0097965D01*
X0095558Y0097898D01*
X0095436Y0097834D01*
X0095312Y0097775D01*
X0095187Y0097718D01*
X0095060Y0097666D01*
X0094932Y0097617D01*
X0094802Y0097572D01*
X0094671Y0097530D01*
X0094539Y0097493D01*
X0094405Y0097459D01*
X0094271Y0097430D01*
X0094136Y0097404D01*
X0094001Y0097382D01*
X0093864Y0097364D01*
X0093728Y0097350D01*
X0093591Y0097340D01*
X0093453Y0097334D01*
X0093316Y0097332D01*
X0093179Y0097334D01*
X0093041Y0097340D01*
X0092904Y0097350D01*
X0092768Y0097364D01*
X0092631Y0097382D01*
X0092496Y0097404D01*
X0092361Y0097430D01*
X0092227Y0097459D01*
X0092093Y0097493D01*
X0091961Y0097530D01*
X0091830Y0097572D01*
X0091700Y0097617D01*
X0091572Y0097666D01*
X0091445Y0097718D01*
X0091320Y0097775D01*
X0091196Y0097834D01*
X0091074Y0097898D01*
X0090954Y0097965D01*
X0090836Y0098035D01*
X0090720Y0098109D01*
X0090606Y0098186D01*
X0090495Y0098267D01*
X0090386Y0098350D01*
X0090279Y0098437D01*
X0090176Y0098527D01*
X0090074Y0098620D01*
X0089976Y0098716D01*
X0089880Y0098814D01*
X0089787Y0098916D01*
X0089697Y0099019D01*
X0089610Y0099126D01*
X0089527Y0099235D01*
X0089446Y0099346D01*
X0089369Y0099460D01*
X0089295Y0099576D01*
X0089225Y0099694D01*
X0089158Y0099814D01*
X0089094Y0099936D01*
X0089035Y0100060D01*
X0088978Y0100185D01*
X0088926Y0100312D01*
X0088877Y0100440D01*
X0088832Y0100570D01*
X0088790Y0100701D01*
X0088753Y0100833D01*
X0088719Y0100967D01*
X0088690Y0101101D01*
X0088664Y0101236D01*
X0088642Y0101371D01*
X0088624Y0101508D01*
X0088610Y0101644D01*
X0088600Y0101781D01*
X0088594Y0101919D01*
X0088592Y0102056D01*
X0073001Y0102056D02*
X0073003Y0102193D01*
X0073009Y0102331D01*
X0073019Y0102468D01*
X0073033Y0102604D01*
X0073051Y0102741D01*
X0073073Y0102876D01*
X0073099Y0103011D01*
X0073128Y0103145D01*
X0073162Y0103279D01*
X0073199Y0103411D01*
X0073241Y0103542D01*
X0073286Y0103672D01*
X0073335Y0103800D01*
X0073387Y0103927D01*
X0073444Y0104052D01*
X0073503Y0104176D01*
X0073567Y0104298D01*
X0073634Y0104418D01*
X0073704Y0104536D01*
X0073778Y0104652D01*
X0073855Y0104766D01*
X0073936Y0104877D01*
X0074019Y0104986D01*
X0074106Y0105093D01*
X0074196Y0105196D01*
X0074289Y0105298D01*
X0074385Y0105396D01*
X0074483Y0105492D01*
X0074585Y0105585D01*
X0074688Y0105675D01*
X0074795Y0105762D01*
X0074904Y0105845D01*
X0075015Y0105926D01*
X0075129Y0106003D01*
X0075245Y0106077D01*
X0075363Y0106147D01*
X0075483Y0106214D01*
X0075605Y0106278D01*
X0075729Y0106337D01*
X0075854Y0106394D01*
X0075981Y0106446D01*
X0076109Y0106495D01*
X0076239Y0106540D01*
X0076370Y0106582D01*
X0076502Y0106619D01*
X0076636Y0106653D01*
X0076770Y0106682D01*
X0076905Y0106708D01*
X0077040Y0106730D01*
X0077177Y0106748D01*
X0077313Y0106762D01*
X0077450Y0106772D01*
X0077588Y0106778D01*
X0077725Y0106780D01*
X0077862Y0106778D01*
X0078000Y0106772D01*
X0078137Y0106762D01*
X0078273Y0106748D01*
X0078410Y0106730D01*
X0078545Y0106708D01*
X0078680Y0106682D01*
X0078814Y0106653D01*
X0078948Y0106619D01*
X0079080Y0106582D01*
X0079211Y0106540D01*
X0079341Y0106495D01*
X0079469Y0106446D01*
X0079596Y0106394D01*
X0079721Y0106337D01*
X0079845Y0106278D01*
X0079967Y0106214D01*
X0080087Y0106147D01*
X0080205Y0106077D01*
X0080321Y0106003D01*
X0080435Y0105926D01*
X0080546Y0105845D01*
X0080655Y0105762D01*
X0080762Y0105675D01*
X0080865Y0105585D01*
X0080967Y0105492D01*
X0081065Y0105396D01*
X0081161Y0105298D01*
X0081254Y0105196D01*
X0081344Y0105093D01*
X0081431Y0104986D01*
X0081514Y0104877D01*
X0081595Y0104766D01*
X0081672Y0104652D01*
X0081746Y0104536D01*
X0081816Y0104418D01*
X0081883Y0104298D01*
X0081947Y0104176D01*
X0082006Y0104052D01*
X0082063Y0103927D01*
X0082115Y0103800D01*
X0082164Y0103672D01*
X0082209Y0103542D01*
X0082251Y0103411D01*
X0082288Y0103279D01*
X0082322Y0103145D01*
X0082351Y0103011D01*
X0082377Y0102876D01*
X0082399Y0102741D01*
X0082417Y0102604D01*
X0082431Y0102468D01*
X0082441Y0102331D01*
X0082447Y0102193D01*
X0082449Y0102056D01*
X0082447Y0101919D01*
X0082441Y0101781D01*
X0082431Y0101644D01*
X0082417Y0101508D01*
X0082399Y0101371D01*
X0082377Y0101236D01*
X0082351Y0101101D01*
X0082322Y0100967D01*
X0082288Y0100833D01*
X0082251Y0100701D01*
X0082209Y0100570D01*
X0082164Y0100440D01*
X0082115Y0100312D01*
X0082063Y0100185D01*
X0082006Y0100060D01*
X0081947Y0099936D01*
X0081883Y0099814D01*
X0081816Y0099694D01*
X0081746Y0099576D01*
X0081672Y0099460D01*
X0081595Y0099346D01*
X0081514Y0099235D01*
X0081431Y0099126D01*
X0081344Y0099019D01*
X0081254Y0098916D01*
X0081161Y0098814D01*
X0081065Y0098716D01*
X0080967Y0098620D01*
X0080865Y0098527D01*
X0080762Y0098437D01*
X0080655Y0098350D01*
X0080546Y0098267D01*
X0080435Y0098186D01*
X0080321Y0098109D01*
X0080205Y0098035D01*
X0080087Y0097965D01*
X0079967Y0097898D01*
X0079845Y0097834D01*
X0079721Y0097775D01*
X0079596Y0097718D01*
X0079469Y0097666D01*
X0079341Y0097617D01*
X0079211Y0097572D01*
X0079080Y0097530D01*
X0078948Y0097493D01*
X0078814Y0097459D01*
X0078680Y0097430D01*
X0078545Y0097404D01*
X0078410Y0097382D01*
X0078273Y0097364D01*
X0078137Y0097350D01*
X0078000Y0097340D01*
X0077862Y0097334D01*
X0077725Y0097332D01*
X0077588Y0097334D01*
X0077450Y0097340D01*
X0077313Y0097350D01*
X0077177Y0097364D01*
X0077040Y0097382D01*
X0076905Y0097404D01*
X0076770Y0097430D01*
X0076636Y0097459D01*
X0076502Y0097493D01*
X0076370Y0097530D01*
X0076239Y0097572D01*
X0076109Y0097617D01*
X0075981Y0097666D01*
X0075854Y0097718D01*
X0075729Y0097775D01*
X0075605Y0097834D01*
X0075483Y0097898D01*
X0075363Y0097965D01*
X0075245Y0098035D01*
X0075129Y0098109D01*
X0075015Y0098186D01*
X0074904Y0098267D01*
X0074795Y0098350D01*
X0074688Y0098437D01*
X0074585Y0098527D01*
X0074483Y0098620D01*
X0074385Y0098716D01*
X0074289Y0098814D01*
X0074196Y0098916D01*
X0074106Y0099019D01*
X0074019Y0099126D01*
X0073936Y0099235D01*
X0073855Y0099346D01*
X0073778Y0099460D01*
X0073704Y0099576D01*
X0073634Y0099694D01*
X0073567Y0099814D01*
X0073503Y0099936D01*
X0073444Y0100060D01*
X0073387Y0100185D01*
X0073335Y0100312D01*
X0073286Y0100440D01*
X0073241Y0100570D01*
X0073199Y0100701D01*
X0073162Y0100833D01*
X0073128Y0100967D01*
X0073099Y0101101D01*
X0073073Y0101236D01*
X0073051Y0101371D01*
X0073033Y0101508D01*
X0073019Y0101644D01*
X0073009Y0101781D01*
X0073003Y0101919D01*
X0073001Y0102056D01*
X0080836Y0023422D02*
X0080838Y0023503D01*
X0080844Y0023585D01*
X0080854Y0023666D01*
X0080868Y0023746D01*
X0080885Y0023825D01*
X0080907Y0023904D01*
X0080932Y0023981D01*
X0080961Y0024058D01*
X0080994Y0024132D01*
X0081031Y0024205D01*
X0081070Y0024276D01*
X0081114Y0024345D01*
X0081160Y0024412D01*
X0081210Y0024476D01*
X0081263Y0024538D01*
X0081319Y0024598D01*
X0081377Y0024654D01*
X0081439Y0024708D01*
X0081503Y0024759D01*
X0081569Y0024806D01*
X0081637Y0024850D01*
X0081708Y0024891D01*
X0081780Y0024928D01*
X0081855Y0024962D01*
X0081930Y0024992D01*
X0082008Y0025018D01*
X0082086Y0025041D01*
X0082165Y0025059D01*
X0082245Y0025074D01*
X0082326Y0025085D01*
X0082407Y0025092D01*
X0082489Y0025095D01*
X0082570Y0025094D01*
X0082651Y0025089D01*
X0082732Y0025080D01*
X0082813Y0025067D01*
X0082893Y0025050D01*
X0082971Y0025030D01*
X0083049Y0025005D01*
X0083126Y0024977D01*
X0083201Y0024945D01*
X0083274Y0024910D01*
X0083345Y0024871D01*
X0083415Y0024828D01*
X0083482Y0024783D01*
X0083548Y0024734D01*
X0083610Y0024682D01*
X0083670Y0024626D01*
X0083727Y0024568D01*
X0083782Y0024508D01*
X0083833Y0024444D01*
X0083881Y0024379D01*
X0083926Y0024311D01*
X0083968Y0024241D01*
X0084006Y0024169D01*
X0084041Y0024095D01*
X0084072Y0024020D01*
X0084099Y0023943D01*
X0084122Y0023865D01*
X0084142Y0023786D01*
X0084158Y0023706D01*
X0084170Y0023625D01*
X0084178Y0023544D01*
X0084182Y0023463D01*
X0084182Y0023381D01*
X0084178Y0023300D01*
X0084170Y0023219D01*
X0084158Y0023138D01*
X0084142Y0023058D01*
X0084122Y0022979D01*
X0084099Y0022901D01*
X0084072Y0022824D01*
X0084041Y0022749D01*
X0084006Y0022675D01*
X0083968Y0022603D01*
X0083926Y0022533D01*
X0083881Y0022465D01*
X0083833Y0022400D01*
X0083782Y0022336D01*
X0083727Y0022276D01*
X0083670Y0022218D01*
X0083610Y0022162D01*
X0083548Y0022110D01*
X0083482Y0022061D01*
X0083415Y0022016D01*
X0083346Y0021973D01*
X0083274Y0021934D01*
X0083201Y0021899D01*
X0083126Y0021867D01*
X0083049Y0021839D01*
X0082971Y0021814D01*
X0082893Y0021794D01*
X0082813Y0021777D01*
X0082732Y0021764D01*
X0082651Y0021755D01*
X0082570Y0021750D01*
X0082489Y0021749D01*
X0082407Y0021752D01*
X0082326Y0021759D01*
X0082245Y0021770D01*
X0082165Y0021785D01*
X0082086Y0021803D01*
X0082008Y0021826D01*
X0081930Y0021852D01*
X0081855Y0021882D01*
X0081780Y0021916D01*
X0081708Y0021953D01*
X0081637Y0021994D01*
X0081569Y0022038D01*
X0081503Y0022085D01*
X0081439Y0022136D01*
X0081377Y0022190D01*
X0081319Y0022246D01*
X0081263Y0022306D01*
X0081210Y0022368D01*
X0081160Y0022432D01*
X0081114Y0022499D01*
X0081070Y0022568D01*
X0081031Y0022639D01*
X0080994Y0022712D01*
X0080961Y0022786D01*
X0080932Y0022863D01*
X0080907Y0022940D01*
X0080885Y0023019D01*
X0080868Y0023098D01*
X0080854Y0023178D01*
X0080844Y0023259D01*
X0080838Y0023341D01*
X0080836Y0023422D01*
X0092647Y0023422D02*
X0092649Y0023503D01*
X0092655Y0023585D01*
X0092665Y0023666D01*
X0092679Y0023746D01*
X0092696Y0023825D01*
X0092718Y0023904D01*
X0092743Y0023981D01*
X0092772Y0024058D01*
X0092805Y0024132D01*
X0092842Y0024205D01*
X0092881Y0024276D01*
X0092925Y0024345D01*
X0092971Y0024412D01*
X0093021Y0024476D01*
X0093074Y0024538D01*
X0093130Y0024598D01*
X0093188Y0024654D01*
X0093250Y0024708D01*
X0093314Y0024759D01*
X0093380Y0024806D01*
X0093448Y0024850D01*
X0093519Y0024891D01*
X0093591Y0024928D01*
X0093666Y0024962D01*
X0093741Y0024992D01*
X0093819Y0025018D01*
X0093897Y0025041D01*
X0093976Y0025059D01*
X0094056Y0025074D01*
X0094137Y0025085D01*
X0094218Y0025092D01*
X0094300Y0025095D01*
X0094381Y0025094D01*
X0094462Y0025089D01*
X0094543Y0025080D01*
X0094624Y0025067D01*
X0094704Y0025050D01*
X0094782Y0025030D01*
X0094860Y0025005D01*
X0094937Y0024977D01*
X0095012Y0024945D01*
X0095085Y0024910D01*
X0095156Y0024871D01*
X0095226Y0024828D01*
X0095293Y0024783D01*
X0095359Y0024734D01*
X0095421Y0024682D01*
X0095481Y0024626D01*
X0095538Y0024568D01*
X0095593Y0024508D01*
X0095644Y0024444D01*
X0095692Y0024379D01*
X0095737Y0024311D01*
X0095779Y0024241D01*
X0095817Y0024169D01*
X0095852Y0024095D01*
X0095883Y0024020D01*
X0095910Y0023943D01*
X0095933Y0023865D01*
X0095953Y0023786D01*
X0095969Y0023706D01*
X0095981Y0023625D01*
X0095989Y0023544D01*
X0095993Y0023463D01*
X0095993Y0023381D01*
X0095989Y0023300D01*
X0095981Y0023219D01*
X0095969Y0023138D01*
X0095953Y0023058D01*
X0095933Y0022979D01*
X0095910Y0022901D01*
X0095883Y0022824D01*
X0095852Y0022749D01*
X0095817Y0022675D01*
X0095779Y0022603D01*
X0095737Y0022533D01*
X0095692Y0022465D01*
X0095644Y0022400D01*
X0095593Y0022336D01*
X0095538Y0022276D01*
X0095481Y0022218D01*
X0095421Y0022162D01*
X0095359Y0022110D01*
X0095293Y0022061D01*
X0095226Y0022016D01*
X0095157Y0021973D01*
X0095085Y0021934D01*
X0095012Y0021899D01*
X0094937Y0021867D01*
X0094860Y0021839D01*
X0094782Y0021814D01*
X0094704Y0021794D01*
X0094624Y0021777D01*
X0094543Y0021764D01*
X0094462Y0021755D01*
X0094381Y0021750D01*
X0094300Y0021749D01*
X0094218Y0021752D01*
X0094137Y0021759D01*
X0094056Y0021770D01*
X0093976Y0021785D01*
X0093897Y0021803D01*
X0093819Y0021826D01*
X0093741Y0021852D01*
X0093666Y0021882D01*
X0093591Y0021916D01*
X0093519Y0021953D01*
X0093448Y0021994D01*
X0093380Y0022038D01*
X0093314Y0022085D01*
X0093250Y0022136D01*
X0093188Y0022190D01*
X0093130Y0022246D01*
X0093074Y0022306D01*
X0093021Y0022368D01*
X0092971Y0022432D01*
X0092925Y0022499D01*
X0092881Y0022568D01*
X0092842Y0022639D01*
X0092805Y0022712D01*
X0092772Y0022786D01*
X0092743Y0022863D01*
X0092718Y0022940D01*
X0092696Y0023019D01*
X0092679Y0023098D01*
X0092665Y0023178D01*
X0092655Y0023259D01*
X0092649Y0023341D01*
X0092647Y0023422D01*
X0191761Y0127391D02*
X0191763Y0127536D01*
X0191769Y0127681D01*
X0191779Y0127826D01*
X0191793Y0127971D01*
X0191811Y0128115D01*
X0191832Y0128258D01*
X0191858Y0128401D01*
X0191887Y0128543D01*
X0191921Y0128685D01*
X0191958Y0128825D01*
X0191999Y0128964D01*
X0192044Y0129102D01*
X0192093Y0129239D01*
X0192145Y0129375D01*
X0192201Y0129509D01*
X0192261Y0129641D01*
X0192324Y0129772D01*
X0192391Y0129900D01*
X0192461Y0130028D01*
X0192535Y0130153D01*
X0192612Y0130276D01*
X0192692Y0130396D01*
X0192776Y0130515D01*
X0192863Y0130631D01*
X0192953Y0130745D01*
X0193046Y0130857D01*
X0193142Y0130965D01*
X0193242Y0131071D01*
X0193343Y0131175D01*
X0193448Y0131275D01*
X0193556Y0131373D01*
X0193666Y0131468D01*
X0193778Y0131559D01*
X0193893Y0131648D01*
X0194011Y0131733D01*
X0194131Y0131815D01*
X0194253Y0131894D01*
X0194377Y0131970D01*
X0194503Y0132042D01*
X0194631Y0132110D01*
X0194761Y0132175D01*
X0194892Y0132237D01*
X0195025Y0132294D01*
X0195160Y0132349D01*
X0195296Y0132399D01*
X0195434Y0132446D01*
X0195572Y0132489D01*
X0195712Y0132528D01*
X0195853Y0132563D01*
X0195995Y0132595D01*
X0196137Y0132622D01*
X0196280Y0132646D01*
X0196424Y0132666D01*
X0196569Y0132682D01*
X0196713Y0132694D01*
X0196858Y0132702D01*
X0197003Y0132706D01*
X0197149Y0132706D01*
X0197294Y0132702D01*
X0197439Y0132694D01*
X0197583Y0132682D01*
X0197728Y0132666D01*
X0197872Y0132646D01*
X0198015Y0132622D01*
X0198157Y0132595D01*
X0198299Y0132563D01*
X0198440Y0132528D01*
X0198580Y0132489D01*
X0198718Y0132446D01*
X0198856Y0132399D01*
X0198992Y0132349D01*
X0199127Y0132294D01*
X0199260Y0132237D01*
X0199391Y0132175D01*
X0199521Y0132110D01*
X0199649Y0132042D01*
X0199775Y0131970D01*
X0199899Y0131894D01*
X0200021Y0131815D01*
X0200141Y0131733D01*
X0200259Y0131648D01*
X0200374Y0131559D01*
X0200486Y0131468D01*
X0200596Y0131373D01*
X0200704Y0131275D01*
X0200809Y0131175D01*
X0200910Y0131071D01*
X0201010Y0130965D01*
X0201106Y0130857D01*
X0201199Y0130745D01*
X0201289Y0130631D01*
X0201376Y0130515D01*
X0201460Y0130396D01*
X0201540Y0130276D01*
X0201617Y0130153D01*
X0201691Y0130028D01*
X0201761Y0129900D01*
X0201828Y0129772D01*
X0201891Y0129641D01*
X0201951Y0129509D01*
X0202007Y0129375D01*
X0202059Y0129239D01*
X0202108Y0129102D01*
X0202153Y0128964D01*
X0202194Y0128825D01*
X0202231Y0128685D01*
X0202265Y0128543D01*
X0202294Y0128401D01*
X0202320Y0128258D01*
X0202341Y0128115D01*
X0202359Y0127971D01*
X0202373Y0127826D01*
X0202383Y0127681D01*
X0202389Y0127536D01*
X0202391Y0127391D01*
X0202389Y0127246D01*
X0202383Y0127101D01*
X0202373Y0126956D01*
X0202359Y0126811D01*
X0202341Y0126667D01*
X0202320Y0126524D01*
X0202294Y0126381D01*
X0202265Y0126239D01*
X0202231Y0126097D01*
X0202194Y0125957D01*
X0202153Y0125818D01*
X0202108Y0125680D01*
X0202059Y0125543D01*
X0202007Y0125407D01*
X0201951Y0125273D01*
X0201891Y0125141D01*
X0201828Y0125010D01*
X0201761Y0124882D01*
X0201691Y0124754D01*
X0201617Y0124629D01*
X0201540Y0124506D01*
X0201460Y0124386D01*
X0201376Y0124267D01*
X0201289Y0124151D01*
X0201199Y0124037D01*
X0201106Y0123925D01*
X0201010Y0123817D01*
X0200910Y0123711D01*
X0200809Y0123607D01*
X0200704Y0123507D01*
X0200596Y0123409D01*
X0200486Y0123314D01*
X0200374Y0123223D01*
X0200259Y0123134D01*
X0200141Y0123049D01*
X0200021Y0122967D01*
X0199899Y0122888D01*
X0199775Y0122812D01*
X0199649Y0122740D01*
X0199521Y0122672D01*
X0199391Y0122607D01*
X0199260Y0122545D01*
X0199127Y0122488D01*
X0198992Y0122433D01*
X0198856Y0122383D01*
X0198718Y0122336D01*
X0198580Y0122293D01*
X0198440Y0122254D01*
X0198299Y0122219D01*
X0198157Y0122187D01*
X0198015Y0122160D01*
X0197872Y0122136D01*
X0197728Y0122116D01*
X0197583Y0122100D01*
X0197439Y0122088D01*
X0197294Y0122080D01*
X0197149Y0122076D01*
X0197003Y0122076D01*
X0196858Y0122080D01*
X0196713Y0122088D01*
X0196569Y0122100D01*
X0196424Y0122116D01*
X0196280Y0122136D01*
X0196137Y0122160D01*
X0195995Y0122187D01*
X0195853Y0122219D01*
X0195712Y0122254D01*
X0195572Y0122293D01*
X0195434Y0122336D01*
X0195296Y0122383D01*
X0195160Y0122433D01*
X0195025Y0122488D01*
X0194892Y0122545D01*
X0194761Y0122607D01*
X0194631Y0122672D01*
X0194503Y0122740D01*
X0194377Y0122812D01*
X0194253Y0122888D01*
X0194131Y0122967D01*
X0194011Y0123049D01*
X0193893Y0123134D01*
X0193778Y0123223D01*
X0193666Y0123314D01*
X0193556Y0123409D01*
X0193448Y0123507D01*
X0193343Y0123607D01*
X0193242Y0123711D01*
X0193142Y0123817D01*
X0193046Y0123925D01*
X0192953Y0124037D01*
X0192863Y0124151D01*
X0192776Y0124267D01*
X0192692Y0124386D01*
X0192612Y0124506D01*
X0192535Y0124629D01*
X0192461Y0124754D01*
X0192391Y0124882D01*
X0192324Y0125010D01*
X0192261Y0125141D01*
X0192201Y0125273D01*
X0192145Y0125407D01*
X0192093Y0125543D01*
X0192044Y0125680D01*
X0191999Y0125818D01*
X0191958Y0125957D01*
X0191921Y0126097D01*
X0191887Y0126239D01*
X0191858Y0126381D01*
X0191832Y0126524D01*
X0191811Y0126667D01*
X0191793Y0126811D01*
X0191779Y0126956D01*
X0191769Y0127101D01*
X0191763Y0127246D01*
X0191761Y0127391D01*
D13*
X0164835Y0181434D02*
X0161901Y0181434D01*
X0161901Y0188034D01*
X0164835Y0188034D01*
X0164101Y0185101D02*
X0161901Y0185101D01*
X0159104Y0188034D02*
X0156904Y0181434D01*
X0154704Y0188034D01*
X0152361Y0188034D02*
X0150895Y0188034D01*
X0151628Y0188034D02*
X0151628Y0181434D01*
X0150895Y0181434D02*
X0152361Y0181434D01*
X0148234Y0181434D02*
X0146767Y0184367D01*
X0146401Y0184367D02*
X0144567Y0184367D01*
X0146401Y0184368D02*
X0146486Y0184370D01*
X0146570Y0184376D01*
X0146654Y0184386D01*
X0146738Y0184399D01*
X0146821Y0184417D01*
X0146903Y0184438D01*
X0146984Y0184463D01*
X0147063Y0184492D01*
X0147141Y0184524D01*
X0147218Y0184560D01*
X0147293Y0184600D01*
X0147366Y0184643D01*
X0147437Y0184689D01*
X0147506Y0184738D01*
X0147572Y0184791D01*
X0147636Y0184846D01*
X0147697Y0184905D01*
X0147756Y0184966D01*
X0147811Y0185030D01*
X0147864Y0185096D01*
X0147913Y0185165D01*
X0147959Y0185236D01*
X0148002Y0185309D01*
X0148042Y0185384D01*
X0148078Y0185461D01*
X0148110Y0185539D01*
X0148139Y0185618D01*
X0148164Y0185699D01*
X0148185Y0185781D01*
X0148203Y0185864D01*
X0148216Y0185948D01*
X0148226Y0186032D01*
X0148232Y0186116D01*
X0148234Y0186201D01*
X0148232Y0186286D01*
X0148226Y0186370D01*
X0148216Y0186454D01*
X0148203Y0186538D01*
X0148185Y0186621D01*
X0148164Y0186703D01*
X0148139Y0186784D01*
X0148110Y0186863D01*
X0148078Y0186941D01*
X0148042Y0187018D01*
X0148002Y0187093D01*
X0147959Y0187166D01*
X0147913Y0187237D01*
X0147864Y0187306D01*
X0147811Y0187372D01*
X0147756Y0187436D01*
X0147697Y0187497D01*
X0147636Y0187556D01*
X0147572Y0187611D01*
X0147506Y0187664D01*
X0147437Y0187713D01*
X0147366Y0187759D01*
X0147293Y0187802D01*
X0147218Y0187842D01*
X0147141Y0187878D01*
X0147063Y0187910D01*
X0146984Y0187939D01*
X0146903Y0187964D01*
X0146821Y0187985D01*
X0146738Y0188003D01*
X0146654Y0188016D01*
X0146570Y0188026D01*
X0146486Y0188032D01*
X0146401Y0188034D01*
X0144567Y0188034D01*
X0144567Y0181434D01*
X0141151Y0183267D02*
X0141151Y0186201D01*
X0141149Y0186286D01*
X0141143Y0186370D01*
X0141133Y0186454D01*
X0141120Y0186538D01*
X0141102Y0186621D01*
X0141081Y0186703D01*
X0141056Y0186784D01*
X0141027Y0186863D01*
X0140995Y0186941D01*
X0140959Y0187018D01*
X0140919Y0187093D01*
X0140876Y0187166D01*
X0140830Y0187237D01*
X0140781Y0187306D01*
X0140728Y0187372D01*
X0140673Y0187436D01*
X0140614Y0187497D01*
X0140553Y0187556D01*
X0140489Y0187611D01*
X0140423Y0187664D01*
X0140354Y0187713D01*
X0140283Y0187759D01*
X0140210Y0187802D01*
X0140135Y0187842D01*
X0140058Y0187878D01*
X0139980Y0187910D01*
X0139901Y0187939D01*
X0139820Y0187964D01*
X0139738Y0187985D01*
X0139655Y0188003D01*
X0139571Y0188016D01*
X0139487Y0188026D01*
X0139403Y0188032D01*
X0139318Y0188034D01*
X0137485Y0188034D01*
X0137485Y0181434D01*
X0139318Y0181434D01*
X0139403Y0181436D01*
X0139487Y0181442D01*
X0139571Y0181452D01*
X0139655Y0181465D01*
X0139738Y0181483D01*
X0139820Y0181504D01*
X0139901Y0181529D01*
X0139980Y0181558D01*
X0140058Y0181590D01*
X0140135Y0181626D01*
X0140210Y0181666D01*
X0140283Y0181709D01*
X0140354Y0181755D01*
X0140423Y0181804D01*
X0140489Y0181857D01*
X0140553Y0181912D01*
X0140614Y0181971D01*
X0140673Y0182032D01*
X0140728Y0182096D01*
X0140781Y0182162D01*
X0140830Y0182231D01*
X0140876Y0182302D01*
X0140919Y0182375D01*
X0140959Y0182450D01*
X0140995Y0182527D01*
X0141027Y0182605D01*
X0141056Y0182684D01*
X0141081Y0182765D01*
X0141102Y0182847D01*
X0141120Y0182930D01*
X0141133Y0183014D01*
X0141143Y0183098D01*
X0141149Y0183182D01*
X0141151Y0183267D01*
X0130600Y0183267D02*
X0130600Y0186201D01*
X0130598Y0186286D01*
X0130592Y0186370D01*
X0130582Y0186454D01*
X0130569Y0186538D01*
X0130551Y0186621D01*
X0130530Y0186703D01*
X0130505Y0186784D01*
X0130476Y0186863D01*
X0130444Y0186941D01*
X0130408Y0187018D01*
X0130368Y0187093D01*
X0130325Y0187166D01*
X0130279Y0187237D01*
X0130230Y0187306D01*
X0130177Y0187372D01*
X0130122Y0187436D01*
X0130063Y0187497D01*
X0130002Y0187556D01*
X0129938Y0187611D01*
X0129872Y0187664D01*
X0129803Y0187713D01*
X0129732Y0187759D01*
X0129659Y0187802D01*
X0129584Y0187842D01*
X0129507Y0187878D01*
X0129429Y0187910D01*
X0129350Y0187939D01*
X0129269Y0187964D01*
X0129187Y0187985D01*
X0129104Y0188003D01*
X0129020Y0188016D01*
X0128936Y0188026D01*
X0128852Y0188032D01*
X0128767Y0188034D01*
X0126933Y0188034D01*
X0126933Y0181434D01*
X0128767Y0181434D01*
X0128852Y0181436D01*
X0128936Y0181442D01*
X0129020Y0181452D01*
X0129104Y0181465D01*
X0129187Y0181483D01*
X0129269Y0181504D01*
X0129350Y0181529D01*
X0129429Y0181558D01*
X0129507Y0181590D01*
X0129584Y0181626D01*
X0129659Y0181666D01*
X0129732Y0181709D01*
X0129803Y0181755D01*
X0129872Y0181804D01*
X0129938Y0181857D01*
X0130002Y0181912D01*
X0130063Y0181971D01*
X0130122Y0182032D01*
X0130177Y0182096D01*
X0130230Y0182162D01*
X0130279Y0182231D01*
X0130325Y0182302D01*
X0130368Y0182375D01*
X0130408Y0182450D01*
X0130444Y0182527D01*
X0130476Y0182605D01*
X0130505Y0182684D01*
X0130530Y0182765D01*
X0130551Y0182847D01*
X0130569Y0182930D01*
X0130582Y0183014D01*
X0130592Y0183098D01*
X0130598Y0183182D01*
X0130600Y0183267D01*
X0124131Y0181434D02*
X0122664Y0181434D01*
X0122590Y0181436D01*
X0122516Y0181442D01*
X0122442Y0181451D01*
X0122369Y0181464D01*
X0122296Y0181481D01*
X0122225Y0181501D01*
X0122155Y0181525D01*
X0122085Y0181553D01*
X0122018Y0181584D01*
X0121952Y0181618D01*
X0121888Y0181656D01*
X0121826Y0181697D01*
X0121766Y0181741D01*
X0121708Y0181788D01*
X0121653Y0181838D01*
X0121601Y0181890D01*
X0121551Y0181945D01*
X0121504Y0182003D01*
X0121460Y0182063D01*
X0121419Y0182125D01*
X0121381Y0182189D01*
X0121347Y0182255D01*
X0121316Y0182322D01*
X0121288Y0182392D01*
X0121264Y0182462D01*
X0121244Y0182533D01*
X0121227Y0182606D01*
X0121214Y0182679D01*
X0121205Y0182753D01*
X0121199Y0182827D01*
X0121197Y0182901D01*
X0121198Y0182901D02*
X0121198Y0186567D01*
X0121197Y0186567D02*
X0121199Y0186641D01*
X0121205Y0186715D01*
X0121214Y0186789D01*
X0121227Y0186862D01*
X0121244Y0186935D01*
X0121264Y0187006D01*
X0121288Y0187076D01*
X0121316Y0187146D01*
X0121347Y0187213D01*
X0121381Y0187279D01*
X0121419Y0187343D01*
X0121460Y0187405D01*
X0121504Y0187465D01*
X0121551Y0187523D01*
X0121601Y0187578D01*
X0121653Y0187630D01*
X0121708Y0187680D01*
X0121766Y0187727D01*
X0121826Y0187771D01*
X0121888Y0187812D01*
X0121952Y0187850D01*
X0122018Y0187884D01*
X0122085Y0187915D01*
X0122154Y0187943D01*
X0122225Y0187967D01*
X0122296Y0187987D01*
X0122369Y0188004D01*
X0122442Y0188017D01*
X0122516Y0188026D01*
X0122590Y0188032D01*
X0122664Y0188034D01*
X0124131Y0188034D01*
D14*
X0119123Y0186052D02*
X0117154Y0188020D01*
X0115186Y0186052D01*
X0117154Y0188020D02*
X0117154Y0182115D01*
X0167154Y0186052D02*
X0169123Y0188020D01*
X0171091Y0186052D01*
X0169123Y0188020D02*
X0169123Y0182115D01*
D15*
X0174008Y0172352D02*
X0174399Y0172497D01*
X0174790Y0172643D01*
X0175191Y0172766D01*
X0175602Y0172866D01*
X0176014Y0172966D01*
X0176434Y0173043D01*
X0176863Y0173094D01*
X0177292Y0173146D01*
X0177729Y0173172D01*
X0178961Y0173172D01*
X0179727Y0173085D01*
X0181201Y0172755D01*
X0181908Y0172512D01*
X0182580Y0172201D01*
X0183252Y0171889D01*
X0183889Y0171510D01*
X0184483Y0171072D01*
X0185077Y0170633D01*
X0185628Y0170136D01*
X0186130Y0169590D01*
X0186632Y0169044D01*
X0187085Y0168448D01*
X0187879Y0167178D01*
X0188220Y0166503D01*
X0188498Y0165798D01*
X0188776Y0165092D01*
X0188991Y0164357D01*
X0189137Y0163601D01*
X0189283Y0162844D01*
X0189359Y0162068D01*
X0189359Y0160492D01*
X0189283Y0159720D01*
X0189137Y0158972D01*
X0188991Y0158224D01*
X0188776Y0157500D01*
X0188498Y0156808D01*
X0188220Y0156116D01*
X0187879Y0155457D01*
X0187482Y0154838D01*
X0187085Y0154219D01*
X0186632Y0153642D01*
X0186130Y0153113D01*
X0185628Y0152584D01*
X0185077Y0152105D01*
X0184483Y0151683D01*
X0183889Y0151262D01*
X0183252Y0150897D01*
X0182580Y0150599D01*
X0181908Y0150301D01*
X0181201Y0150070D01*
X0180464Y0149912D01*
X0179727Y0149755D01*
X0178961Y0149672D01*
X0177726Y0149672D01*
X0177286Y0149700D01*
X0176855Y0149755D01*
X0176423Y0149810D01*
X0176000Y0149891D01*
X0175587Y0149997D01*
X0175173Y0150103D01*
X0174769Y0150234D01*
X0174376Y0150388D01*
X0173983Y0150542D01*
X0173601Y0150719D01*
X0173231Y0150917D01*
X0172861Y0151115D01*
X0172503Y0151334D01*
X0171814Y0151812D01*
X0171482Y0152070D01*
X0171166Y0152346D01*
X0170849Y0152621D01*
X0170546Y0152915D01*
X0170260Y0153224D01*
X0169973Y0153534D01*
X0169702Y0153859D01*
X0169449Y0154198D01*
X0169389Y0154278D01*
X0169333Y0154369D01*
X0169283Y0154466D01*
X0169232Y0154564D01*
X0169187Y0154669D01*
X0169148Y0154778D01*
X0169109Y0154888D01*
X0169077Y0155002D01*
X0169052Y0155117D01*
X0169027Y0155233D01*
X0169009Y0155351D01*
X0169000Y0155467D01*
X0168991Y0155584D01*
X0168991Y0155699D01*
X0169000Y0155811D01*
X0169009Y0155923D01*
X0169028Y0156031D01*
X0169086Y0156234D01*
X0169127Y0156329D01*
X0169178Y0156415D01*
X0169230Y0156501D01*
X0169294Y0156577D01*
X0169371Y0156642D01*
X0169418Y0156682D01*
X0169466Y0156718D01*
X0169565Y0156786D01*
X0169616Y0156816D01*
X0169667Y0156844D01*
X0169718Y0156872D01*
X0169770Y0156897D01*
X0169823Y0156920D01*
X0169876Y0156942D01*
X0169929Y0156962D01*
X0169983Y0156980D01*
X0170036Y0156997D01*
X0170091Y0157012D01*
X0170145Y0157025D01*
X0170199Y0157038D01*
X0170254Y0157049D01*
X0170309Y0157058D01*
X0170363Y0157067D01*
X0170418Y0157073D01*
X0170527Y0157083D01*
X0170581Y0157086D01*
X0170635Y0157088D01*
X0170735Y0157091D01*
X0170838Y0157081D01*
X0170943Y0157059D01*
X0171047Y0157038D01*
X0171153Y0157005D01*
X0171366Y0156922D01*
X0171472Y0156872D01*
X0171578Y0156814D01*
X0171684Y0156757D01*
X0171790Y0156693D01*
X0171893Y0156624D01*
X0171996Y0156555D01*
X0172098Y0156481D01*
X0172196Y0156405D01*
X0172295Y0156329D01*
X0172390Y0156251D01*
X0172481Y0156172D01*
X0172573Y0156093D01*
X0172660Y0156014D01*
X0172742Y0155937D01*
X0172823Y0155859D01*
X0172900Y0155784D01*
X0172970Y0155713D01*
X0173138Y0155542D01*
X0173313Y0155380D01*
X0173496Y0155226D01*
X0173678Y0155073D01*
X0173867Y0154928D01*
X0174063Y0154792D01*
X0174258Y0154656D01*
X0174460Y0154529D01*
X0174877Y0154295D01*
X0175091Y0154189D01*
X0175531Y0153996D01*
X0175756Y0153911D01*
X0176217Y0153762D01*
X0176453Y0153699D01*
X0176693Y0153648D01*
X0176933Y0153597D01*
X0177178Y0153559D01*
X0177427Y0153532D01*
X0177676Y0153506D01*
X0177929Y0153493D01*
X0178723Y0153493D01*
X0179244Y0153547D01*
X0179745Y0153651D01*
X0180246Y0153755D01*
X0180726Y0153908D01*
X0181181Y0154104D01*
X0181636Y0154301D01*
X0182066Y0154542D01*
X0182467Y0154822D01*
X0182868Y0155102D01*
X0183240Y0155420D01*
X0183578Y0155772D01*
X0183916Y0156125D01*
X0184221Y0156510D01*
X0184487Y0156924D01*
X0184754Y0157339D01*
X0184982Y0157781D01*
X0185169Y0158247D01*
X0185355Y0158712D01*
X0185499Y0159201D01*
X0185694Y0160215D01*
X0185745Y0160740D01*
X0185745Y0161815D01*
X0185694Y0162340D01*
X0185499Y0163354D01*
X0185355Y0163843D01*
X0185169Y0164309D01*
X0184982Y0164775D01*
X0184754Y0165218D01*
X0184487Y0165632D01*
X0184221Y0166046D01*
X0183916Y0166432D01*
X0183578Y0166785D01*
X0183240Y0167137D01*
X0182868Y0167456D01*
X0182467Y0167736D01*
X0182066Y0168015D01*
X0181636Y0168256D01*
X0181181Y0168454D01*
X0180726Y0168651D01*
X0180246Y0168804D01*
X0179244Y0169011D01*
X0178723Y0169065D01*
X0177912Y0169065D01*
X0177642Y0169052D01*
X0177377Y0169027D01*
X0177112Y0169001D01*
X0176852Y0168963D01*
X0176342Y0168863D01*
X0176092Y0168801D01*
X0175848Y0168727D01*
X0175605Y0168654D01*
X0175367Y0168569D01*
X0174904Y0168377D01*
X0174680Y0168271D01*
X0174462Y0168154D01*
X0174244Y0168037D01*
X0174033Y0167910D01*
X0173627Y0167636D01*
X0173432Y0167489D01*
X0173058Y0167178D01*
X0172879Y0167013D01*
X0172709Y0166839D01*
X0172639Y0166768D01*
X0172562Y0166693D01*
X0172480Y0166617D01*
X0172398Y0166542D01*
X0172310Y0166465D01*
X0172218Y0166390D01*
X0172126Y0166314D01*
X0172030Y0166240D01*
X0171832Y0166097D01*
X0171729Y0166029D01*
X0171521Y0165904D01*
X0171415Y0165847D01*
X0171309Y0165798D01*
X0171202Y0165749D01*
X0171095Y0165707D01*
X0170989Y0165675D01*
X0170883Y0165643D01*
X0170777Y0165620D01*
X0170673Y0165610D01*
X0170570Y0165600D01*
X0170468Y0165601D01*
X0170369Y0165617D01*
X0170312Y0165626D01*
X0170255Y0165637D01*
X0170141Y0165663D01*
X0170084Y0165678D01*
X0170028Y0165696D01*
X0169972Y0165713D01*
X0169917Y0165733D01*
X0169862Y0165756D01*
X0169808Y0165779D01*
X0169754Y0165804D01*
X0169701Y0165832D01*
X0169648Y0165860D01*
X0169597Y0165891D01*
X0169546Y0165925D01*
X0169496Y0165959D01*
X0169447Y0165996D01*
X0169399Y0166036D01*
X0169351Y0166076D01*
X0169305Y0166120D01*
X0169261Y0166166D01*
X0169216Y0166213D01*
X0169174Y0166263D01*
X0169133Y0166317D01*
X0169073Y0166397D01*
X0169025Y0166487D01*
X0168954Y0166682D01*
X0168930Y0166787D01*
X0168916Y0166897D01*
X0168902Y0167006D01*
X0168899Y0167121D01*
X0168904Y0167239D01*
X0168909Y0167356D01*
X0168923Y0167475D01*
X0168967Y0167715D01*
X0168996Y0167834D01*
X0169032Y0167951D01*
X0169068Y0168068D01*
X0169110Y0168183D01*
X0169157Y0168292D01*
X0169204Y0168402D01*
X0169255Y0168506D01*
X0169311Y0168603D01*
X0169366Y0168699D01*
X0169425Y0168788D01*
X0169487Y0168867D01*
X0169741Y0169193D01*
X0170011Y0169505D01*
X0170583Y0170096D01*
X0170885Y0170377D01*
X0171201Y0170639D01*
X0171517Y0170902D01*
X0171847Y0171148D01*
X0172191Y0171375D01*
X0172534Y0171602D01*
X0172890Y0171809D01*
X0173259Y0171997D01*
X0173627Y0172185D01*
X0174008Y0172352D01*
X0174314Y0172466D02*
X0182007Y0172466D01*
X0182854Y0172074D02*
X0173409Y0172074D01*
X0172671Y0171681D02*
X0183601Y0171681D01*
X0184188Y0171289D02*
X0172061Y0171289D01*
X0171510Y0170897D02*
X0184719Y0170897D01*
X0185219Y0170505D02*
X0171039Y0170505D01*
X0170601Y0170113D02*
X0185650Y0170113D01*
X0186010Y0169720D02*
X0170220Y0169720D01*
X0169858Y0169328D02*
X0186371Y0169328D01*
X0186714Y0168936D02*
X0179606Y0168936D01*
X0180972Y0168544D02*
X0187012Y0168544D01*
X0187270Y0168152D02*
X0181823Y0168152D01*
X0182433Y0167759D02*
X0187515Y0167759D01*
X0187761Y0167367D02*
X0182971Y0167367D01*
X0183395Y0166975D02*
X0187981Y0166975D01*
X0188179Y0166583D02*
X0183772Y0166583D01*
X0184107Y0166190D02*
X0188343Y0166190D01*
X0188498Y0165798D02*
X0184380Y0165798D01*
X0184633Y0165406D02*
X0188652Y0165406D01*
X0188799Y0165014D02*
X0184859Y0165014D01*
X0185044Y0164622D02*
X0188914Y0164622D01*
X0189016Y0164229D02*
X0185201Y0164229D01*
X0185357Y0163837D02*
X0189091Y0163837D01*
X0189167Y0163445D02*
X0185472Y0163445D01*
X0185557Y0163053D02*
X0189243Y0163053D01*
X0189301Y0162661D02*
X0185633Y0162661D01*
X0185701Y0162268D02*
X0189339Y0162268D01*
X0189359Y0161876D02*
X0185739Y0161876D01*
X0185745Y0161484D02*
X0189359Y0161484D01*
X0189359Y0161092D02*
X0185745Y0161092D01*
X0185741Y0160699D02*
X0189359Y0160699D01*
X0189341Y0160307D02*
X0185703Y0160307D01*
X0185637Y0159915D02*
X0189302Y0159915D01*
X0189245Y0159523D02*
X0185561Y0159523D01*
X0185478Y0159131D02*
X0189168Y0159131D01*
X0189092Y0158738D02*
X0185363Y0158738D01*
X0185209Y0158346D02*
X0189015Y0158346D01*
X0188911Y0157954D02*
X0185052Y0157954D01*
X0184869Y0157562D02*
X0188794Y0157562D01*
X0188643Y0157170D02*
X0184645Y0157170D01*
X0184392Y0156777D02*
X0188486Y0156777D01*
X0188328Y0156385D02*
X0184122Y0156385D01*
X0183790Y0155993D02*
X0188156Y0155993D01*
X0187953Y0155601D02*
X0183413Y0155601D01*
X0182993Y0155209D02*
X0187720Y0155209D01*
X0187468Y0154816D02*
X0182459Y0154816D01*
X0181855Y0154424D02*
X0187216Y0154424D01*
X0186938Y0154032D02*
X0181013Y0154032D01*
X0179690Y0153640D02*
X0186630Y0153640D01*
X0186258Y0153247D02*
X0170238Y0153247D01*
X0169885Y0153640D02*
X0176734Y0153640D01*
X0175449Y0154032D02*
X0169573Y0154032D01*
X0169304Y0154424D02*
X0174647Y0154424D01*
X0174027Y0154816D02*
X0169135Y0154816D01*
X0169032Y0155209D02*
X0173517Y0155209D01*
X0173081Y0155601D02*
X0168991Y0155601D01*
X0169021Y0155993D02*
X0172682Y0155993D01*
X0172222Y0156385D02*
X0169160Y0156385D01*
X0169553Y0156777D02*
X0171647Y0156777D01*
X0170589Y0159523D02*
X0166013Y0159523D01*
X0165989Y0159538D02*
X0166155Y0159434D01*
X0166321Y0159347D01*
X0166655Y0159210D01*
X0166823Y0159160D01*
X0166991Y0159128D01*
X0167153Y0159087D01*
X0167325Y0159057D01*
X0167508Y0159037D01*
X0167690Y0159017D01*
X0167882Y0159007D01*
X0168084Y0159006D01*
X0168285Y0159006D01*
X0168497Y0159016D01*
X0168717Y0159036D01*
X0168937Y0159056D01*
X0169167Y0159085D01*
X0169405Y0159125D01*
X0169411Y0159126D01*
X0169416Y0159127D01*
X0169422Y0159128D01*
X0169428Y0159129D01*
X0169439Y0159132D01*
X0169444Y0159134D01*
X0169449Y0159136D01*
X0171065Y0159684D01*
X0171872Y0159958D01*
X0172680Y0160232D01*
X0172683Y0160233D01*
X0172686Y0160234D01*
X0172689Y0160235D01*
X0172692Y0160236D01*
X0172695Y0160238D01*
X0172698Y0160239D01*
X0172701Y0160240D01*
X0172704Y0160242D01*
X0173078Y0160409D01*
X0173431Y0160553D01*
X0173761Y0160675D01*
X0174091Y0160796D01*
X0174398Y0160894D01*
X0174969Y0161044D01*
X0175231Y0161096D01*
X0175470Y0161125D01*
X0175709Y0161154D01*
X0175925Y0161159D01*
X0176118Y0161141D01*
X0176305Y0161124D01*
X0176506Y0161072D01*
X0176932Y0160902D01*
X0177158Y0160783D01*
X0177396Y0160631D01*
X0177634Y0160479D01*
X0177884Y0160293D01*
X0178407Y0159856D01*
X0178681Y0159604D01*
X0178965Y0159319D01*
X0179032Y0159253D01*
X0179055Y0159249D01*
X0179079Y0159246D01*
X0179102Y0159243D01*
X0179125Y0159239D01*
X0179169Y0159233D01*
X0179209Y0159232D01*
X0179245Y0159235D01*
X0179282Y0159238D01*
X0179314Y0159246D01*
X0179373Y0159265D01*
X0179399Y0159277D01*
X0179421Y0159290D01*
X0179444Y0159304D01*
X0179463Y0159318D01*
X0179479Y0159332D01*
X0179496Y0159346D01*
X0179513Y0159364D01*
X0179530Y0159385D01*
X0179547Y0159407D01*
X0179563Y0159432D01*
X0179577Y0159461D01*
X0179591Y0159490D01*
X0179603Y0159523D01*
X0179611Y0159561D01*
X0179620Y0159599D01*
X0179625Y0159642D01*
X0179625Y0159697D01*
X0179625Y0159704D01*
X0179624Y0159719D01*
X0179624Y0159727D01*
X0179623Y0159742D01*
X0179622Y0159750D01*
X0179622Y0159758D01*
X0179621Y0159765D01*
X0179620Y0159773D01*
X0179619Y0159781D01*
X0179618Y0159790D01*
X0179617Y0159799D01*
X0179616Y0159808D01*
X0179616Y0159817D01*
X0179612Y0159825D01*
X0179609Y0159833D01*
X0179606Y0159842D01*
X0179603Y0159850D01*
X0179476Y0160185D01*
X0179335Y0160503D01*
X0179022Y0161105D01*
X0178850Y0161388D01*
X0178479Y0161919D01*
X0178279Y0162167D01*
X0178065Y0162396D01*
X0177850Y0162626D01*
X0177622Y0162837D01*
X0177380Y0163029D01*
X0177373Y0163034D01*
X0177370Y0163037D01*
X0177366Y0163040D01*
X0177363Y0163042D01*
X0177359Y0163044D01*
X0177355Y0163046D01*
X0177352Y0163049D01*
X0176960Y0163289D01*
X0176564Y0163474D01*
X0176164Y0163604D01*
X0175764Y0163735D01*
X0175360Y0163811D01*
X0174953Y0163831D01*
X0174545Y0163852D01*
X0174135Y0163818D01*
X0173310Y0163641D01*
X0172895Y0163497D01*
X0172478Y0163299D01*
X0171562Y0162955D01*
X0170646Y0162611D01*
X0168813Y0161924D01*
X0168588Y0161868D01*
X0168363Y0161812D01*
X0168137Y0161755D01*
X0167912Y0161699D01*
X0167737Y0161664D01*
X0167566Y0161643D01*
X0167400Y0161634D01*
X0167233Y0161625D01*
X0167071Y0161630D01*
X0166913Y0161647D01*
X0166755Y0161664D01*
X0166602Y0161695D01*
X0166306Y0161781D01*
X0166162Y0161838D01*
X0166024Y0161907D01*
X0165882Y0161977D01*
X0165744Y0162062D01*
X0165609Y0162159D01*
X0165474Y0162257D01*
X0165342Y0162368D01*
X0165086Y0162616D01*
X0164962Y0162754D01*
X0164841Y0162904D01*
X0164721Y0163054D01*
X0164604Y0163217D01*
X0164491Y0163393D01*
X0164474Y0163420D01*
X0164457Y0163447D01*
X0164422Y0163502D01*
X0164293Y0163520D01*
X0164246Y0163527D01*
X0164203Y0163528D01*
X0164164Y0163525D01*
X0164125Y0163522D01*
X0164090Y0163514D01*
X0164059Y0163504D01*
X0164028Y0163494D01*
X0164001Y0163482D01*
X0163977Y0163468D01*
X0163953Y0163454D01*
X0163933Y0163439D01*
X0163916Y0163424D01*
X0163899Y0163410D01*
X0163882Y0163392D01*
X0163848Y0163349D01*
X0163831Y0163324D01*
X0163817Y0163295D01*
X0163803Y0163266D01*
X0163791Y0163232D01*
X0163782Y0163195D01*
X0163774Y0163157D01*
X0163769Y0163114D01*
X0163769Y0163044D01*
X0163770Y0163038D01*
X0163771Y0163033D01*
X0163771Y0163027D01*
X0163772Y0163021D01*
X0163815Y0162759D01*
X0163873Y0162506D01*
X0163947Y0162264D01*
X0164020Y0162022D01*
X0164108Y0161791D01*
X0164314Y0161350D01*
X0164431Y0161140D01*
X0164564Y0160941D01*
X0164696Y0160743D01*
X0164843Y0160556D01*
X0165004Y0160381D01*
X0165166Y0160205D01*
X0165329Y0160047D01*
X0165493Y0159906D01*
X0165658Y0159766D01*
X0165823Y0159643D01*
X0165989Y0159538D01*
X0165483Y0159915D02*
X0171745Y0159915D01*
X0172851Y0160307D02*
X0165072Y0160307D01*
X0164730Y0160699D02*
X0173828Y0160699D01*
X0175207Y0161092D02*
X0164463Y0161092D01*
X0164251Y0161484D02*
X0178783Y0161484D01*
X0179028Y0161092D02*
X0176430Y0161092D01*
X0177289Y0160699D02*
X0179233Y0160699D01*
X0179422Y0160307D02*
X0177865Y0160307D01*
X0178336Y0159915D02*
X0179578Y0159915D01*
X0179603Y0159523D02*
X0178762Y0159523D01*
X0178509Y0161876D02*
X0168621Y0161876D01*
X0169731Y0162268D02*
X0178184Y0162268D01*
X0177813Y0162661D02*
X0170777Y0162661D01*
X0171823Y0163053D02*
X0177345Y0163053D01*
X0176626Y0163445D02*
X0172785Y0163445D01*
X0174362Y0163837D02*
X0174842Y0163837D01*
X0172442Y0166583D02*
X0168990Y0166583D01*
X0168906Y0166975D02*
X0172842Y0166975D01*
X0173285Y0167367D02*
X0168910Y0167367D01*
X0168978Y0167759D02*
X0173810Y0167759D01*
X0174458Y0168152D02*
X0169098Y0168152D01*
X0169277Y0168544D02*
X0175306Y0168544D01*
X0176714Y0168936D02*
X0169540Y0168936D01*
X0169238Y0166190D02*
X0171962Y0166190D01*
X0171309Y0165798D02*
X0169766Y0165798D01*
X0165461Y0162268D02*
X0163945Y0162268D01*
X0163838Y0162661D02*
X0165046Y0162661D01*
X0164722Y0163053D02*
X0163769Y0163053D01*
X0163941Y0163445D02*
X0164458Y0163445D01*
X0164075Y0161876D02*
X0166085Y0161876D01*
X0166974Y0159131D02*
X0169433Y0159131D01*
X0170608Y0152855D02*
X0185885Y0152855D01*
X0185488Y0152463D02*
X0171031Y0152463D01*
X0171481Y0152071D02*
X0185028Y0152071D01*
X0184476Y0151679D02*
X0172006Y0151679D01*
X0172581Y0151286D02*
X0183924Y0151286D01*
X0183245Y0150894D02*
X0173273Y0150894D01*
X0174085Y0150502D02*
X0182361Y0150502D01*
X0181323Y0150110D02*
X0175153Y0150110D01*
X0177149Y0149718D02*
X0179384Y0149718D01*
X0180739Y0172858D02*
X0175570Y0172858D01*
D16*
X0066651Y0027148D02*
X0063374Y0027148D01*
X0063374Y0024525D01*
X0065340Y0024525D01*
X0065411Y0024523D01*
X0065482Y0024517D01*
X0065552Y0024508D01*
X0065622Y0024494D01*
X0065691Y0024477D01*
X0065759Y0024456D01*
X0065825Y0024432D01*
X0065890Y0024404D01*
X0065954Y0024372D01*
X0066016Y0024337D01*
X0066076Y0024299D01*
X0066133Y0024258D01*
X0066189Y0024213D01*
X0066242Y0024166D01*
X0066292Y0024116D01*
X0066339Y0024063D01*
X0066384Y0024007D01*
X0066425Y0023950D01*
X0066463Y0023890D01*
X0066498Y0023828D01*
X0066530Y0023764D01*
X0066558Y0023699D01*
X0066582Y0023633D01*
X0066603Y0023565D01*
X0066620Y0023496D01*
X0066634Y0023426D01*
X0066643Y0023356D01*
X0066649Y0023285D01*
X0066651Y0023214D01*
X0066651Y0022559D01*
X0066649Y0022488D01*
X0066643Y0022417D01*
X0066634Y0022347D01*
X0066620Y0022277D01*
X0066603Y0022208D01*
X0066582Y0022140D01*
X0066558Y0022074D01*
X0066530Y0022009D01*
X0066498Y0021945D01*
X0066463Y0021883D01*
X0066425Y0021823D01*
X0066384Y0021766D01*
X0066339Y0021710D01*
X0066292Y0021657D01*
X0066242Y0021607D01*
X0066189Y0021560D01*
X0066133Y0021515D01*
X0066076Y0021474D01*
X0066016Y0021436D01*
X0065954Y0021401D01*
X0065890Y0021369D01*
X0065825Y0021341D01*
X0065759Y0021317D01*
X0065691Y0021296D01*
X0065622Y0021279D01*
X0065552Y0021265D01*
X0065482Y0021256D01*
X0065411Y0021250D01*
X0065340Y0021248D01*
X0063374Y0021248D01*
X0069240Y0025181D02*
X0070551Y0021248D01*
X0071862Y0025181D01*
D17*
X0106387Y0027048D02*
X0108287Y0027048D01*
X0108357Y0027046D01*
X0108426Y0027040D01*
X0108496Y0027031D01*
X0108564Y0027017D01*
X0108632Y0027000D01*
X0108698Y0026979D01*
X0108764Y0026955D01*
X0108828Y0026927D01*
X0108890Y0026895D01*
X0108950Y0026860D01*
X0109009Y0026822D01*
X0109065Y0026781D01*
X0109119Y0026736D01*
X0109170Y0026689D01*
X0109219Y0026639D01*
X0109265Y0026586D01*
X0109308Y0026531D01*
X0109348Y0026474D01*
X0109384Y0026414D01*
X0109417Y0026353D01*
X0109447Y0026290D01*
X0109474Y0026225D01*
X0109496Y0026159D01*
X0109515Y0026092D01*
X0109530Y0026024D01*
X0109542Y0025955D01*
X0109550Y0025886D01*
X0109554Y0025816D01*
X0109554Y0025746D01*
X0109550Y0025676D01*
X0109542Y0025607D01*
X0109530Y0025538D01*
X0109515Y0025470D01*
X0109496Y0025403D01*
X0109474Y0025337D01*
X0109447Y0025272D01*
X0109417Y0025209D01*
X0109384Y0025147D01*
X0109348Y0025088D01*
X0109308Y0025031D01*
X0109265Y0024976D01*
X0109219Y0024923D01*
X0109170Y0024873D01*
X0109119Y0024826D01*
X0109065Y0024781D01*
X0109009Y0024740D01*
X0108950Y0024702D01*
X0108890Y0024667D01*
X0108828Y0024635D01*
X0108764Y0024607D01*
X0108698Y0024583D01*
X0108632Y0024562D01*
X0108564Y0024545D01*
X0108496Y0024531D01*
X0108426Y0024522D01*
X0108357Y0024516D01*
X0108287Y0024514D01*
X0107020Y0024514D01*
X0107970Y0024514D02*
X0108048Y0024512D01*
X0108125Y0024506D01*
X0108202Y0024497D01*
X0108279Y0024484D01*
X0108355Y0024467D01*
X0108430Y0024446D01*
X0108503Y0024421D01*
X0108576Y0024394D01*
X0108647Y0024362D01*
X0108716Y0024327D01*
X0108784Y0024289D01*
X0108849Y0024247D01*
X0108913Y0024202D01*
X0108974Y0024155D01*
X0109033Y0024104D01*
X0109089Y0024050D01*
X0109143Y0023994D01*
X0109194Y0023935D01*
X0109241Y0023874D01*
X0109286Y0023810D01*
X0109328Y0023745D01*
X0109366Y0023677D01*
X0109401Y0023608D01*
X0109433Y0023537D01*
X0109460Y0023464D01*
X0109485Y0023391D01*
X0109506Y0023316D01*
X0109523Y0023240D01*
X0109536Y0023163D01*
X0109545Y0023086D01*
X0109551Y0023009D01*
X0109553Y0022931D01*
X0109551Y0022853D01*
X0109545Y0022776D01*
X0109536Y0022699D01*
X0109523Y0022622D01*
X0109506Y0022546D01*
X0109485Y0022471D01*
X0109460Y0022398D01*
X0109433Y0022325D01*
X0109401Y0022254D01*
X0109366Y0022185D01*
X0109328Y0022117D01*
X0109286Y0022052D01*
X0109241Y0021988D01*
X0109194Y0021927D01*
X0109143Y0021868D01*
X0109089Y0021812D01*
X0109033Y0021758D01*
X0108974Y0021707D01*
X0108913Y0021660D01*
X0108849Y0021615D01*
X0108784Y0021573D01*
X0108716Y0021535D01*
X0108647Y0021500D01*
X0108576Y0021468D01*
X0108503Y0021441D01*
X0108430Y0021416D01*
X0108355Y0021395D01*
X0108279Y0021378D01*
X0108202Y0021365D01*
X0108125Y0021356D01*
X0108048Y0021350D01*
X0107970Y0021348D01*
X0106387Y0021348D01*
X0112120Y0021348D02*
X0112436Y0021348D01*
X0112436Y0021664D01*
X0112120Y0021664D01*
X0112120Y0021348D01*
X0115003Y0021348D02*
X0116586Y0021348D01*
X0116664Y0021350D01*
X0116741Y0021356D01*
X0116818Y0021365D01*
X0116895Y0021378D01*
X0116971Y0021395D01*
X0117046Y0021416D01*
X0117119Y0021441D01*
X0117192Y0021468D01*
X0117263Y0021500D01*
X0117332Y0021535D01*
X0117400Y0021573D01*
X0117465Y0021615D01*
X0117529Y0021660D01*
X0117590Y0021707D01*
X0117649Y0021758D01*
X0117705Y0021812D01*
X0117759Y0021868D01*
X0117810Y0021927D01*
X0117857Y0021988D01*
X0117902Y0022052D01*
X0117944Y0022117D01*
X0117982Y0022185D01*
X0118017Y0022254D01*
X0118049Y0022325D01*
X0118076Y0022398D01*
X0118101Y0022471D01*
X0118122Y0022546D01*
X0118139Y0022622D01*
X0118152Y0022699D01*
X0118161Y0022776D01*
X0118167Y0022853D01*
X0118169Y0022931D01*
X0118167Y0023009D01*
X0118161Y0023086D01*
X0118152Y0023163D01*
X0118139Y0023240D01*
X0118122Y0023316D01*
X0118101Y0023391D01*
X0118076Y0023464D01*
X0118049Y0023537D01*
X0118017Y0023608D01*
X0117982Y0023677D01*
X0117944Y0023745D01*
X0117902Y0023810D01*
X0117857Y0023874D01*
X0117810Y0023935D01*
X0117759Y0023994D01*
X0117705Y0024050D01*
X0117649Y0024104D01*
X0117590Y0024155D01*
X0117529Y0024202D01*
X0117465Y0024247D01*
X0117400Y0024289D01*
X0117332Y0024327D01*
X0117263Y0024362D01*
X0117192Y0024394D01*
X0117119Y0024421D01*
X0117046Y0024446D01*
X0116971Y0024467D01*
X0116895Y0024484D01*
X0116818Y0024497D01*
X0116741Y0024506D01*
X0116664Y0024512D01*
X0116586Y0024514D01*
X0116903Y0024514D02*
X0115636Y0024514D01*
X0116903Y0024514D02*
X0116973Y0024516D01*
X0117042Y0024522D01*
X0117112Y0024531D01*
X0117180Y0024545D01*
X0117248Y0024562D01*
X0117314Y0024583D01*
X0117380Y0024607D01*
X0117444Y0024635D01*
X0117506Y0024667D01*
X0117566Y0024702D01*
X0117625Y0024740D01*
X0117681Y0024781D01*
X0117735Y0024826D01*
X0117786Y0024873D01*
X0117835Y0024923D01*
X0117881Y0024976D01*
X0117924Y0025031D01*
X0117964Y0025088D01*
X0118000Y0025147D01*
X0118033Y0025209D01*
X0118063Y0025272D01*
X0118090Y0025337D01*
X0118112Y0025403D01*
X0118131Y0025470D01*
X0118146Y0025538D01*
X0118158Y0025607D01*
X0118166Y0025676D01*
X0118170Y0025746D01*
X0118170Y0025816D01*
X0118166Y0025886D01*
X0118158Y0025955D01*
X0118146Y0026024D01*
X0118131Y0026092D01*
X0118112Y0026159D01*
X0118090Y0026225D01*
X0118063Y0026290D01*
X0118033Y0026353D01*
X0118000Y0026414D01*
X0117964Y0026474D01*
X0117924Y0026531D01*
X0117881Y0026586D01*
X0117835Y0026639D01*
X0117786Y0026689D01*
X0117735Y0026736D01*
X0117681Y0026781D01*
X0117625Y0026822D01*
X0117566Y0026860D01*
X0117506Y0026895D01*
X0117444Y0026927D01*
X0117380Y0026955D01*
X0117314Y0026979D01*
X0117248Y0027000D01*
X0117180Y0027017D01*
X0117112Y0027031D01*
X0117042Y0027040D01*
X0116973Y0027046D01*
X0116903Y0027048D01*
X0115003Y0027048D01*
X0120858Y0025148D02*
X0122125Y0021348D01*
X0123391Y0025148D01*
X0190088Y0030796D02*
X0190088Y0033213D01*
X0190088Y0030796D02*
X0198788Y0030796D01*
X0194921Y0030796D02*
X0194921Y0033213D01*
X0194921Y0033696D02*
X0198788Y0035630D01*
X0197338Y0038908D02*
X0194921Y0038908D01*
X0195888Y0038908D02*
X0195888Y0042774D01*
X0194921Y0042774D01*
X0194834Y0042772D01*
X0194748Y0042766D01*
X0194662Y0042757D01*
X0194576Y0042743D01*
X0194491Y0042726D01*
X0194407Y0042704D01*
X0194324Y0042679D01*
X0194242Y0042651D01*
X0194161Y0042618D01*
X0194082Y0042583D01*
X0194005Y0042543D01*
X0193930Y0042500D01*
X0193856Y0042454D01*
X0193785Y0042405D01*
X0193716Y0042352D01*
X0193649Y0042297D01*
X0193585Y0042238D01*
X0193524Y0042177D01*
X0193465Y0042113D01*
X0193410Y0042046D01*
X0193357Y0041977D01*
X0193308Y0041906D01*
X0193262Y0041832D01*
X0193219Y0041757D01*
X0193179Y0041680D01*
X0193144Y0041601D01*
X0193111Y0041520D01*
X0193083Y0041438D01*
X0193058Y0041355D01*
X0193036Y0041271D01*
X0193019Y0041186D01*
X0193005Y0041100D01*
X0192996Y0041014D01*
X0192990Y0040928D01*
X0192988Y0040841D01*
X0192990Y0040754D01*
X0192996Y0040668D01*
X0193005Y0040582D01*
X0193019Y0040496D01*
X0193036Y0040411D01*
X0193058Y0040327D01*
X0193083Y0040244D01*
X0193111Y0040162D01*
X0193144Y0040081D01*
X0193179Y0040002D01*
X0193219Y0039925D01*
X0193262Y0039850D01*
X0193308Y0039776D01*
X0193357Y0039705D01*
X0193410Y0039636D01*
X0193465Y0039569D01*
X0193524Y0039505D01*
X0193585Y0039444D01*
X0193649Y0039385D01*
X0193716Y0039330D01*
X0193785Y0039277D01*
X0193856Y0039228D01*
X0193930Y0039182D01*
X0194005Y0039139D01*
X0194082Y0039099D01*
X0194161Y0039064D01*
X0194242Y0039031D01*
X0194324Y0039003D01*
X0194407Y0038978D01*
X0194491Y0038956D01*
X0194576Y0038939D01*
X0194662Y0038925D01*
X0194748Y0038916D01*
X0194834Y0038910D01*
X0194921Y0038908D01*
X0197338Y0038908D02*
X0197414Y0038910D01*
X0197490Y0038916D01*
X0197565Y0038926D01*
X0197639Y0038940D01*
X0197713Y0038957D01*
X0197786Y0038979D01*
X0197858Y0039004D01*
X0197928Y0039033D01*
X0197996Y0039066D01*
X0198063Y0039102D01*
X0198128Y0039142D01*
X0198190Y0039185D01*
X0198251Y0039231D01*
X0198308Y0039280D01*
X0198363Y0039333D01*
X0198416Y0039388D01*
X0198465Y0039445D01*
X0198511Y0039506D01*
X0198554Y0039568D01*
X0198594Y0039633D01*
X0198630Y0039700D01*
X0198663Y0039768D01*
X0198692Y0039838D01*
X0198717Y0039910D01*
X0198739Y0039983D01*
X0198756Y0040057D01*
X0198770Y0040131D01*
X0198780Y0040206D01*
X0198786Y0040282D01*
X0198788Y0040358D01*
X0198788Y0042774D01*
X0197338Y0046328D02*
X0190088Y0046328D01*
X0192988Y0045361D02*
X0192988Y0048261D01*
X0192988Y0051556D02*
X0192988Y0054456D01*
X0193954Y0054456D01*
X0192988Y0051556D02*
X0198788Y0051556D01*
X0198788Y0048261D02*
X0198788Y0047778D01*
X0198786Y0047702D01*
X0198780Y0047626D01*
X0198770Y0047551D01*
X0198756Y0047477D01*
X0198739Y0047403D01*
X0198717Y0047330D01*
X0198692Y0047258D01*
X0198663Y0047188D01*
X0198630Y0047120D01*
X0198594Y0047053D01*
X0198554Y0046988D01*
X0198511Y0046926D01*
X0198465Y0046865D01*
X0198416Y0046808D01*
X0198363Y0046753D01*
X0198308Y0046700D01*
X0198251Y0046651D01*
X0198190Y0046605D01*
X0198128Y0046562D01*
X0198063Y0046522D01*
X0197996Y0046486D01*
X0197928Y0046453D01*
X0197858Y0046424D01*
X0197786Y0046399D01*
X0197713Y0046377D01*
X0197639Y0046360D01*
X0197565Y0046346D01*
X0197490Y0046336D01*
X0197414Y0046330D01*
X0197338Y0046328D01*
X0196854Y0056992D02*
X0194921Y0056992D01*
X0194834Y0056994D01*
X0194748Y0057000D01*
X0194662Y0057009D01*
X0194576Y0057023D01*
X0194491Y0057040D01*
X0194407Y0057062D01*
X0194324Y0057087D01*
X0194242Y0057115D01*
X0194161Y0057148D01*
X0194082Y0057183D01*
X0194005Y0057223D01*
X0193930Y0057266D01*
X0193856Y0057312D01*
X0193785Y0057361D01*
X0193716Y0057414D01*
X0193649Y0057469D01*
X0193585Y0057528D01*
X0193524Y0057589D01*
X0193465Y0057653D01*
X0193410Y0057720D01*
X0193357Y0057789D01*
X0193308Y0057860D01*
X0193262Y0057934D01*
X0193219Y0058009D01*
X0193179Y0058086D01*
X0193144Y0058165D01*
X0193111Y0058246D01*
X0193083Y0058328D01*
X0193058Y0058411D01*
X0193036Y0058495D01*
X0193019Y0058580D01*
X0193005Y0058666D01*
X0192996Y0058752D01*
X0192990Y0058838D01*
X0192988Y0058925D01*
X0192990Y0059012D01*
X0192996Y0059098D01*
X0193005Y0059184D01*
X0193019Y0059270D01*
X0193036Y0059355D01*
X0193058Y0059439D01*
X0193083Y0059522D01*
X0193111Y0059604D01*
X0193144Y0059685D01*
X0193179Y0059764D01*
X0193219Y0059841D01*
X0193262Y0059916D01*
X0193308Y0059990D01*
X0193357Y0060061D01*
X0193410Y0060130D01*
X0193465Y0060197D01*
X0193524Y0060261D01*
X0193585Y0060322D01*
X0193649Y0060381D01*
X0193716Y0060436D01*
X0193785Y0060489D01*
X0193856Y0060538D01*
X0193930Y0060584D01*
X0194005Y0060627D01*
X0194082Y0060667D01*
X0194161Y0060702D01*
X0194242Y0060735D01*
X0194324Y0060763D01*
X0194407Y0060788D01*
X0194491Y0060810D01*
X0194576Y0060827D01*
X0194662Y0060841D01*
X0194748Y0060850D01*
X0194834Y0060856D01*
X0194921Y0060858D01*
X0196854Y0060858D01*
X0196941Y0060856D01*
X0197027Y0060850D01*
X0197113Y0060841D01*
X0197199Y0060827D01*
X0197284Y0060810D01*
X0197368Y0060788D01*
X0197451Y0060763D01*
X0197533Y0060735D01*
X0197614Y0060702D01*
X0197693Y0060667D01*
X0197770Y0060627D01*
X0197845Y0060584D01*
X0197919Y0060538D01*
X0197990Y0060489D01*
X0198059Y0060436D01*
X0198126Y0060381D01*
X0198190Y0060322D01*
X0198251Y0060261D01*
X0198310Y0060197D01*
X0198365Y0060130D01*
X0198418Y0060061D01*
X0198467Y0059990D01*
X0198513Y0059916D01*
X0198556Y0059841D01*
X0198596Y0059764D01*
X0198631Y0059685D01*
X0198664Y0059604D01*
X0198692Y0059522D01*
X0198717Y0059439D01*
X0198739Y0059355D01*
X0198756Y0059270D01*
X0198770Y0059184D01*
X0198779Y0059098D01*
X0198785Y0059012D01*
X0198787Y0058925D01*
X0198785Y0058838D01*
X0198779Y0058752D01*
X0198770Y0058666D01*
X0198756Y0058580D01*
X0198739Y0058495D01*
X0198717Y0058411D01*
X0198692Y0058328D01*
X0198664Y0058246D01*
X0198631Y0058165D01*
X0198596Y0058086D01*
X0198556Y0058009D01*
X0198513Y0057934D01*
X0198467Y0057860D01*
X0198418Y0057789D01*
X0198365Y0057720D01*
X0198310Y0057653D01*
X0198251Y0057589D01*
X0198190Y0057528D01*
X0198126Y0057469D01*
X0198059Y0057414D01*
X0197990Y0057361D01*
X0197919Y0057312D01*
X0197845Y0057266D01*
X0197770Y0057223D01*
X0197693Y0057183D01*
X0197614Y0057148D01*
X0197533Y0057115D01*
X0197451Y0057087D01*
X0197368Y0057062D01*
X0197284Y0057040D01*
X0197199Y0057023D01*
X0197113Y0057009D01*
X0197027Y0057000D01*
X0196941Y0056994D01*
X0196854Y0056992D01*
X0194921Y0064556D02*
X0194921Y0066973D01*
X0194919Y0067070D01*
X0194913Y0067167D01*
X0194903Y0067264D01*
X0194890Y0067361D01*
X0194872Y0067456D01*
X0194851Y0067551D01*
X0194826Y0067645D01*
X0194797Y0067738D01*
X0194764Y0067830D01*
X0194728Y0067920D01*
X0194688Y0068009D01*
X0194644Y0068096D01*
X0194597Y0068182D01*
X0194547Y0068265D01*
X0194493Y0068346D01*
X0194436Y0068425D01*
X0194376Y0068502D01*
X0194313Y0068576D01*
X0194247Y0068647D01*
X0194178Y0068716D01*
X0194107Y0068782D01*
X0194033Y0068845D01*
X0193956Y0068905D01*
X0193877Y0068962D01*
X0193796Y0069016D01*
X0193713Y0069066D01*
X0193627Y0069113D01*
X0193540Y0069157D01*
X0193451Y0069197D01*
X0193361Y0069233D01*
X0193269Y0069266D01*
X0193176Y0069295D01*
X0193082Y0069320D01*
X0192987Y0069341D01*
X0192892Y0069359D01*
X0192795Y0069372D01*
X0192698Y0069382D01*
X0192601Y0069388D01*
X0192504Y0069390D01*
X0192407Y0069388D01*
X0192310Y0069382D01*
X0192213Y0069372D01*
X0192116Y0069359D01*
X0192021Y0069341D01*
X0191926Y0069320D01*
X0191832Y0069295D01*
X0191739Y0069266D01*
X0191647Y0069233D01*
X0191557Y0069197D01*
X0191468Y0069157D01*
X0191381Y0069113D01*
X0191296Y0069066D01*
X0191212Y0069016D01*
X0191131Y0068962D01*
X0191052Y0068905D01*
X0190975Y0068845D01*
X0190901Y0068782D01*
X0190830Y0068716D01*
X0190761Y0068647D01*
X0190695Y0068576D01*
X0190632Y0068502D01*
X0190572Y0068425D01*
X0190515Y0068346D01*
X0190461Y0068265D01*
X0190411Y0068182D01*
X0190364Y0068096D01*
X0190320Y0068009D01*
X0190280Y0067920D01*
X0190244Y0067830D01*
X0190211Y0067738D01*
X0190182Y0067645D01*
X0190157Y0067551D01*
X0190136Y0067456D01*
X0190118Y0067361D01*
X0190105Y0067264D01*
X0190095Y0067167D01*
X0190089Y0067070D01*
X0190087Y0066973D01*
X0190088Y0066973D02*
X0190088Y0064556D01*
X0198788Y0064556D01*
X0193713Y0073335D02*
X0195163Y0075993D01*
X0198788Y0075026D02*
X0198786Y0074902D01*
X0198780Y0074778D01*
X0198771Y0074654D01*
X0198758Y0074531D01*
X0198741Y0074408D01*
X0198720Y0074286D01*
X0198696Y0074164D01*
X0198668Y0074044D01*
X0198636Y0073924D01*
X0198601Y0073805D01*
X0198562Y0073687D01*
X0198520Y0073570D01*
X0198474Y0073455D01*
X0198424Y0073341D01*
X0198372Y0073229D01*
X0198315Y0073119D01*
X0198256Y0073010D01*
X0198193Y0072903D01*
X0198127Y0072798D01*
X0198058Y0072695D01*
X0197985Y0072594D01*
X0197910Y0072496D01*
X0197832Y0072400D01*
X0197750Y0072306D01*
X0197666Y0072215D01*
X0197580Y0072126D01*
X0195162Y0075993D02*
X0195207Y0076065D01*
X0195254Y0076136D01*
X0195305Y0076204D01*
X0195359Y0076270D01*
X0195415Y0076333D01*
X0195475Y0076394D01*
X0195536Y0076452D01*
X0195601Y0076508D01*
X0195667Y0076561D01*
X0195736Y0076611D01*
X0195807Y0076657D01*
X0195880Y0076701D01*
X0195954Y0076742D01*
X0196031Y0076779D01*
X0196108Y0076813D01*
X0196188Y0076844D01*
X0196268Y0076871D01*
X0196350Y0076894D01*
X0196432Y0076914D01*
X0196516Y0076931D01*
X0196600Y0076943D01*
X0196684Y0076953D01*
X0196769Y0076958D01*
X0196854Y0076960D01*
X0196854Y0076959D02*
X0196941Y0076957D01*
X0197027Y0076951D01*
X0197113Y0076942D01*
X0197199Y0076928D01*
X0197284Y0076911D01*
X0197368Y0076889D01*
X0197451Y0076864D01*
X0197533Y0076836D01*
X0197614Y0076803D01*
X0197693Y0076768D01*
X0197770Y0076728D01*
X0197845Y0076685D01*
X0197919Y0076639D01*
X0197990Y0076590D01*
X0198059Y0076537D01*
X0198126Y0076482D01*
X0198190Y0076423D01*
X0198251Y0076362D01*
X0198310Y0076298D01*
X0198365Y0076231D01*
X0198418Y0076162D01*
X0198467Y0076091D01*
X0198513Y0076017D01*
X0198556Y0075942D01*
X0198596Y0075865D01*
X0198631Y0075786D01*
X0198664Y0075705D01*
X0198692Y0075623D01*
X0198717Y0075540D01*
X0198739Y0075456D01*
X0198756Y0075371D01*
X0198770Y0075285D01*
X0198779Y0075199D01*
X0198785Y0075113D01*
X0198787Y0075026D01*
X0190813Y0076476D02*
X0190745Y0076382D01*
X0190679Y0076285D01*
X0190617Y0076186D01*
X0190558Y0076086D01*
X0190502Y0075983D01*
X0190450Y0075879D01*
X0190401Y0075773D01*
X0190355Y0075666D01*
X0190313Y0075557D01*
X0190274Y0075447D01*
X0190239Y0075336D01*
X0190207Y0075224D01*
X0190180Y0075111D01*
X0190155Y0074996D01*
X0190135Y0074882D01*
X0190118Y0074766D01*
X0190105Y0074650D01*
X0190096Y0074534D01*
X0190090Y0074418D01*
X0190088Y0074301D01*
X0190090Y0074214D01*
X0190096Y0074128D01*
X0190105Y0074042D01*
X0190119Y0073956D01*
X0190136Y0073871D01*
X0190158Y0073787D01*
X0190183Y0073704D01*
X0190211Y0073622D01*
X0190244Y0073541D01*
X0190279Y0073462D01*
X0190319Y0073385D01*
X0190362Y0073310D01*
X0190408Y0073236D01*
X0190457Y0073165D01*
X0190510Y0073096D01*
X0190565Y0073029D01*
X0190624Y0072965D01*
X0190685Y0072904D01*
X0190749Y0072845D01*
X0190816Y0072790D01*
X0190885Y0072737D01*
X0190956Y0072688D01*
X0191030Y0072642D01*
X0191105Y0072599D01*
X0191182Y0072559D01*
X0191261Y0072524D01*
X0191342Y0072491D01*
X0191424Y0072463D01*
X0191507Y0072438D01*
X0191591Y0072416D01*
X0191676Y0072399D01*
X0191762Y0072385D01*
X0191848Y0072376D01*
X0191934Y0072370D01*
X0192021Y0072368D01*
X0192106Y0072370D01*
X0192191Y0072375D01*
X0192275Y0072385D01*
X0192359Y0072397D01*
X0192443Y0072414D01*
X0192525Y0072434D01*
X0192607Y0072457D01*
X0192687Y0072484D01*
X0192767Y0072515D01*
X0192844Y0072549D01*
X0192921Y0072586D01*
X0192995Y0072627D01*
X0193068Y0072671D01*
X0193139Y0072717D01*
X0193208Y0072767D01*
X0193274Y0072820D01*
X0193339Y0072876D01*
X0193400Y0072934D01*
X0193460Y0072995D01*
X0193516Y0073058D01*
X0193570Y0073124D01*
X0193621Y0073192D01*
X0193668Y0073263D01*
X0193713Y0073335D01*
X0196371Y0080346D02*
X0190088Y0080346D01*
X0190088Y0085180D02*
X0196371Y0085180D01*
X0196468Y0085178D01*
X0196565Y0085172D01*
X0196662Y0085162D01*
X0196759Y0085149D01*
X0196854Y0085131D01*
X0196949Y0085110D01*
X0197043Y0085085D01*
X0197136Y0085056D01*
X0197228Y0085023D01*
X0197318Y0084987D01*
X0197407Y0084947D01*
X0197494Y0084903D01*
X0197580Y0084856D01*
X0197663Y0084806D01*
X0197744Y0084752D01*
X0197823Y0084695D01*
X0197900Y0084635D01*
X0197974Y0084572D01*
X0198045Y0084506D01*
X0198114Y0084437D01*
X0198180Y0084366D01*
X0198243Y0084292D01*
X0198303Y0084215D01*
X0198360Y0084136D01*
X0198414Y0084055D01*
X0198464Y0083971D01*
X0198511Y0083886D01*
X0198555Y0083799D01*
X0198595Y0083710D01*
X0198631Y0083620D01*
X0198664Y0083528D01*
X0198693Y0083435D01*
X0198718Y0083341D01*
X0198739Y0083246D01*
X0198757Y0083151D01*
X0198770Y0083054D01*
X0198780Y0082957D01*
X0198786Y0082860D01*
X0198788Y0082763D01*
X0198786Y0082666D01*
X0198780Y0082569D01*
X0198770Y0082472D01*
X0198757Y0082375D01*
X0198739Y0082280D01*
X0198718Y0082185D01*
X0198693Y0082091D01*
X0198664Y0081998D01*
X0198631Y0081906D01*
X0198595Y0081816D01*
X0198555Y0081727D01*
X0198511Y0081640D01*
X0198464Y0081554D01*
X0198414Y0081471D01*
X0198360Y0081390D01*
X0198303Y0081311D01*
X0198243Y0081234D01*
X0198180Y0081160D01*
X0198114Y0081089D01*
X0198045Y0081020D01*
X0197974Y0080954D01*
X0197900Y0080891D01*
X0197823Y0080831D01*
X0197744Y0080774D01*
X0197663Y0080720D01*
X0197580Y0080670D01*
X0197494Y0080623D01*
X0197407Y0080579D01*
X0197318Y0080539D01*
X0197228Y0080503D01*
X0197136Y0080470D01*
X0197043Y0080441D01*
X0196949Y0080416D01*
X0196854Y0080395D01*
X0196759Y0080377D01*
X0196662Y0080364D01*
X0196565Y0080354D01*
X0196468Y0080348D01*
X0196371Y0080346D01*
X0198304Y0088549D02*
X0198304Y0089033D01*
X0198788Y0089033D01*
X0198788Y0088549D01*
X0198304Y0088549D01*
X0197338Y0092074D02*
X0194438Y0092074D01*
X0194362Y0092076D01*
X0194286Y0092082D01*
X0194211Y0092092D01*
X0194137Y0092106D01*
X0194063Y0092123D01*
X0193990Y0092145D01*
X0193918Y0092170D01*
X0193848Y0092199D01*
X0193780Y0092232D01*
X0193713Y0092268D01*
X0193648Y0092308D01*
X0193586Y0092351D01*
X0193525Y0092397D01*
X0193468Y0092446D01*
X0193413Y0092499D01*
X0193360Y0092554D01*
X0193311Y0092611D01*
X0193265Y0092672D01*
X0193222Y0092734D01*
X0193182Y0092799D01*
X0193146Y0092866D01*
X0193113Y0092934D01*
X0193084Y0093004D01*
X0193059Y0093076D01*
X0193037Y0093149D01*
X0193020Y0093223D01*
X0193006Y0093297D01*
X0192996Y0093372D01*
X0192990Y0093448D01*
X0192988Y0093524D01*
X0192988Y0095457D01*
X0194921Y0098366D02*
X0196854Y0098366D01*
X0196941Y0098368D01*
X0197027Y0098374D01*
X0197113Y0098383D01*
X0197199Y0098397D01*
X0197284Y0098414D01*
X0197368Y0098436D01*
X0197451Y0098461D01*
X0197533Y0098489D01*
X0197614Y0098522D01*
X0197693Y0098557D01*
X0197770Y0098597D01*
X0197845Y0098640D01*
X0197919Y0098686D01*
X0197990Y0098735D01*
X0198059Y0098788D01*
X0198126Y0098843D01*
X0198190Y0098902D01*
X0198251Y0098963D01*
X0198310Y0099027D01*
X0198365Y0099094D01*
X0198418Y0099163D01*
X0198467Y0099234D01*
X0198513Y0099308D01*
X0198556Y0099383D01*
X0198596Y0099460D01*
X0198631Y0099539D01*
X0198664Y0099620D01*
X0198692Y0099702D01*
X0198717Y0099785D01*
X0198739Y0099869D01*
X0198756Y0099954D01*
X0198770Y0100040D01*
X0198779Y0100126D01*
X0198785Y0100212D01*
X0198787Y0100299D01*
X0198785Y0100386D01*
X0198779Y0100472D01*
X0198770Y0100558D01*
X0198756Y0100644D01*
X0198739Y0100729D01*
X0198717Y0100813D01*
X0198692Y0100896D01*
X0198664Y0100978D01*
X0198631Y0101059D01*
X0198596Y0101138D01*
X0198556Y0101215D01*
X0198513Y0101290D01*
X0198467Y0101364D01*
X0198418Y0101435D01*
X0198365Y0101504D01*
X0198310Y0101571D01*
X0198251Y0101635D01*
X0198190Y0101696D01*
X0198126Y0101755D01*
X0198059Y0101810D01*
X0197990Y0101863D01*
X0197919Y0101912D01*
X0197845Y0101958D01*
X0197770Y0102001D01*
X0197693Y0102041D01*
X0197614Y0102076D01*
X0197533Y0102109D01*
X0197451Y0102137D01*
X0197368Y0102162D01*
X0197284Y0102184D01*
X0197199Y0102201D01*
X0197113Y0102215D01*
X0197027Y0102224D01*
X0196941Y0102230D01*
X0196854Y0102232D01*
X0194921Y0102232D01*
X0194834Y0102230D01*
X0194748Y0102224D01*
X0194662Y0102215D01*
X0194576Y0102201D01*
X0194491Y0102184D01*
X0194407Y0102162D01*
X0194324Y0102137D01*
X0194242Y0102109D01*
X0194161Y0102076D01*
X0194082Y0102041D01*
X0194005Y0102001D01*
X0193930Y0101958D01*
X0193856Y0101912D01*
X0193785Y0101863D01*
X0193716Y0101810D01*
X0193649Y0101755D01*
X0193585Y0101696D01*
X0193524Y0101635D01*
X0193465Y0101571D01*
X0193410Y0101504D01*
X0193357Y0101435D01*
X0193308Y0101364D01*
X0193262Y0101290D01*
X0193219Y0101215D01*
X0193179Y0101138D01*
X0193144Y0101059D01*
X0193111Y0100978D01*
X0193083Y0100896D01*
X0193058Y0100813D01*
X0193036Y0100729D01*
X0193019Y0100644D01*
X0193005Y0100558D01*
X0192996Y0100472D01*
X0192990Y0100386D01*
X0192988Y0100299D01*
X0192990Y0100212D01*
X0192996Y0100126D01*
X0193005Y0100040D01*
X0193019Y0099954D01*
X0193036Y0099869D01*
X0193058Y0099785D01*
X0193083Y0099702D01*
X0193111Y0099620D01*
X0193144Y0099539D01*
X0193179Y0099460D01*
X0193219Y0099383D01*
X0193262Y0099308D01*
X0193308Y0099234D01*
X0193357Y0099163D01*
X0193410Y0099094D01*
X0193465Y0099027D01*
X0193524Y0098963D01*
X0193585Y0098902D01*
X0193649Y0098843D01*
X0193716Y0098788D01*
X0193785Y0098735D01*
X0193856Y0098686D01*
X0193930Y0098640D01*
X0194005Y0098597D01*
X0194082Y0098557D01*
X0194161Y0098522D01*
X0194242Y0098489D01*
X0194324Y0098461D01*
X0194407Y0098436D01*
X0194491Y0098414D01*
X0194576Y0098397D01*
X0194662Y0098383D01*
X0194748Y0098374D01*
X0194834Y0098368D01*
X0194921Y0098366D01*
X0198788Y0095457D02*
X0198788Y0093524D01*
X0198786Y0093448D01*
X0198780Y0093372D01*
X0198770Y0093297D01*
X0198756Y0093223D01*
X0198739Y0093149D01*
X0198717Y0093076D01*
X0198692Y0093004D01*
X0198663Y0092934D01*
X0198630Y0092866D01*
X0198594Y0092799D01*
X0198554Y0092734D01*
X0198511Y0092672D01*
X0198465Y0092611D01*
X0198416Y0092554D01*
X0198363Y0092499D01*
X0198308Y0092446D01*
X0198251Y0092397D01*
X0198190Y0092351D01*
X0198128Y0092308D01*
X0198063Y0092268D01*
X0197996Y0092232D01*
X0197928Y0092199D01*
X0197858Y0092170D01*
X0197786Y0092145D01*
X0197713Y0092123D01*
X0197639Y0092106D01*
X0197565Y0092092D01*
X0197490Y0092082D01*
X0197414Y0092076D01*
X0197338Y0092074D01*
X0198788Y0105893D02*
X0192988Y0105893D01*
X0192988Y0110243D01*
X0192990Y0110319D01*
X0192996Y0110395D01*
X0193006Y0110470D01*
X0193020Y0110544D01*
X0193037Y0110618D01*
X0193059Y0110691D01*
X0193084Y0110763D01*
X0193113Y0110833D01*
X0193146Y0110901D01*
X0193182Y0110968D01*
X0193222Y0111033D01*
X0193265Y0111095D01*
X0193311Y0111156D01*
X0193360Y0111213D01*
X0193413Y0111268D01*
X0193468Y0111321D01*
X0193525Y0111370D01*
X0193586Y0111416D01*
X0193648Y0111459D01*
X0193713Y0111499D01*
X0193780Y0111535D01*
X0193848Y0111568D01*
X0193918Y0111597D01*
X0193990Y0111622D01*
X0194063Y0111644D01*
X0194137Y0111661D01*
X0194211Y0111675D01*
X0194286Y0111685D01*
X0194362Y0111691D01*
X0194438Y0111693D01*
X0198788Y0111693D01*
X0198788Y0108793D02*
X0192988Y0108793D01*
X0194921Y0033213D02*
X0194919Y0033310D01*
X0194913Y0033407D01*
X0194903Y0033504D01*
X0194890Y0033601D01*
X0194872Y0033696D01*
X0194851Y0033791D01*
X0194826Y0033885D01*
X0194797Y0033978D01*
X0194764Y0034070D01*
X0194728Y0034160D01*
X0194688Y0034249D01*
X0194644Y0034336D01*
X0194597Y0034422D01*
X0194547Y0034505D01*
X0194493Y0034586D01*
X0194436Y0034665D01*
X0194376Y0034742D01*
X0194313Y0034816D01*
X0194247Y0034887D01*
X0194178Y0034956D01*
X0194107Y0035022D01*
X0194033Y0035085D01*
X0193956Y0035145D01*
X0193877Y0035202D01*
X0193796Y0035256D01*
X0193713Y0035306D01*
X0193627Y0035353D01*
X0193540Y0035397D01*
X0193451Y0035437D01*
X0193361Y0035473D01*
X0193269Y0035506D01*
X0193176Y0035535D01*
X0193082Y0035560D01*
X0192987Y0035581D01*
X0192892Y0035599D01*
X0192795Y0035612D01*
X0192698Y0035622D01*
X0192601Y0035628D01*
X0192504Y0035630D01*
X0192407Y0035628D01*
X0192310Y0035622D01*
X0192213Y0035612D01*
X0192116Y0035599D01*
X0192021Y0035581D01*
X0191926Y0035560D01*
X0191832Y0035535D01*
X0191739Y0035506D01*
X0191647Y0035473D01*
X0191557Y0035437D01*
X0191468Y0035397D01*
X0191381Y0035353D01*
X0191296Y0035306D01*
X0191212Y0035256D01*
X0191131Y0035202D01*
X0191052Y0035145D01*
X0190975Y0035085D01*
X0190901Y0035022D01*
X0190830Y0034956D01*
X0190761Y0034887D01*
X0190695Y0034816D01*
X0190632Y0034742D01*
X0190572Y0034665D01*
X0190515Y0034586D01*
X0190461Y0034505D01*
X0190411Y0034422D01*
X0190364Y0034336D01*
X0190320Y0034249D01*
X0190280Y0034160D01*
X0190244Y0034070D01*
X0190211Y0033978D01*
X0190182Y0033885D01*
X0190157Y0033791D01*
X0190136Y0033696D01*
X0190118Y0033601D01*
X0190105Y0033504D01*
X0190095Y0033407D01*
X0190089Y0033310D01*
X0190087Y0033213D01*
D18*
X0179403Y0044788D02*
X0177969Y0047416D01*
X0177014Y0046460D02*
X0179403Y0049088D01*
X0177014Y0049088D02*
X0177014Y0044788D01*
X0174915Y0044788D02*
X0173960Y0044788D01*
X0173960Y0044787D02*
X0173900Y0044789D01*
X0173840Y0044795D01*
X0173781Y0044804D01*
X0173722Y0044817D01*
X0173665Y0044834D01*
X0173608Y0044854D01*
X0173553Y0044878D01*
X0173499Y0044905D01*
X0173448Y0044936D01*
X0173398Y0044970D01*
X0173351Y0045006D01*
X0173306Y0045046D01*
X0173263Y0045089D01*
X0173223Y0045134D01*
X0173187Y0045181D01*
X0173153Y0045231D01*
X0173122Y0045282D01*
X0173095Y0045336D01*
X0173071Y0045391D01*
X0173051Y0045448D01*
X0173034Y0045505D01*
X0173021Y0045564D01*
X0173012Y0045623D01*
X0173006Y0045683D01*
X0173004Y0045743D01*
X0173004Y0048132D01*
X0173006Y0048192D01*
X0173012Y0048252D01*
X0173021Y0048311D01*
X0173034Y0048370D01*
X0173051Y0048427D01*
X0173071Y0048484D01*
X0173095Y0048539D01*
X0173122Y0048593D01*
X0173153Y0048644D01*
X0173187Y0048694D01*
X0173223Y0048741D01*
X0173263Y0048786D01*
X0173306Y0048829D01*
X0173351Y0048869D01*
X0173398Y0048905D01*
X0173448Y0048939D01*
X0173499Y0048970D01*
X0173553Y0048997D01*
X0173608Y0049021D01*
X0173665Y0049041D01*
X0173722Y0049058D01*
X0173781Y0049071D01*
X0173840Y0049080D01*
X0173900Y0049086D01*
X0173960Y0049088D01*
X0174915Y0049088D01*
X0169717Y0049088D02*
X0171150Y0044788D01*
X0170792Y0045863D02*
X0168642Y0045863D01*
X0168283Y0044788D02*
X0169717Y0049088D01*
X0164784Y0049088D02*
X0164784Y0044788D01*
X0166696Y0044788D01*
X0161558Y0044788D02*
X0160364Y0044788D01*
X0160364Y0049088D01*
X0161558Y0049088D01*
X0161618Y0049086D01*
X0161678Y0049080D01*
X0161737Y0049071D01*
X0161796Y0049058D01*
X0161853Y0049041D01*
X0161910Y0049021D01*
X0161965Y0048997D01*
X0162019Y0048970D01*
X0162070Y0048939D01*
X0162120Y0048905D01*
X0162167Y0048869D01*
X0162212Y0048829D01*
X0162255Y0048786D01*
X0162295Y0048741D01*
X0162331Y0048694D01*
X0162365Y0048644D01*
X0162396Y0048593D01*
X0162423Y0048539D01*
X0162447Y0048484D01*
X0162467Y0048427D01*
X0162484Y0048370D01*
X0162497Y0048311D01*
X0162506Y0048252D01*
X0162512Y0048192D01*
X0162514Y0048132D01*
X0162512Y0048072D01*
X0162506Y0048012D01*
X0162497Y0047953D01*
X0162484Y0047894D01*
X0162467Y0047837D01*
X0162447Y0047780D01*
X0162423Y0047725D01*
X0162396Y0047671D01*
X0162365Y0047620D01*
X0162331Y0047570D01*
X0162295Y0047523D01*
X0162255Y0047478D01*
X0162212Y0047435D01*
X0162167Y0047395D01*
X0162120Y0047359D01*
X0162070Y0047325D01*
X0162019Y0047294D01*
X0161965Y0047267D01*
X0161910Y0047243D01*
X0161853Y0047223D01*
X0161796Y0047206D01*
X0161737Y0047193D01*
X0161678Y0047184D01*
X0161618Y0047178D01*
X0161558Y0047176D01*
X0161558Y0047177D02*
X0160364Y0047177D01*
X0161558Y0047176D02*
X0161626Y0047174D01*
X0161694Y0047168D01*
X0161762Y0047159D01*
X0161828Y0047145D01*
X0161894Y0047128D01*
X0161959Y0047107D01*
X0162023Y0047082D01*
X0162085Y0047053D01*
X0162145Y0047022D01*
X0162204Y0046986D01*
X0162260Y0046948D01*
X0162314Y0046906D01*
X0162365Y0046862D01*
X0162414Y0046814D01*
X0162460Y0046764D01*
X0162504Y0046711D01*
X0162544Y0046656D01*
X0162580Y0046599D01*
X0162614Y0046539D01*
X0162644Y0046478D01*
X0162671Y0046415D01*
X0162694Y0046351D01*
X0162713Y0046286D01*
X0162728Y0046219D01*
X0162740Y0046152D01*
X0162748Y0046084D01*
X0162752Y0046016D01*
X0162752Y0045948D01*
X0162748Y0045880D01*
X0162740Y0045812D01*
X0162728Y0045745D01*
X0162713Y0045678D01*
X0162694Y0045613D01*
X0162671Y0045549D01*
X0162644Y0045486D01*
X0162614Y0045425D01*
X0162580Y0045365D01*
X0162544Y0045308D01*
X0162504Y0045253D01*
X0162460Y0045200D01*
X0162414Y0045150D01*
X0162365Y0045102D01*
X0162314Y0045058D01*
X0162260Y0045016D01*
X0162204Y0044978D01*
X0162145Y0044942D01*
X0162085Y0044911D01*
X0162023Y0044882D01*
X0161959Y0044857D01*
X0161894Y0044836D01*
X0161828Y0044819D01*
X0161762Y0044805D01*
X0161694Y0044796D01*
X0161626Y0044790D01*
X0161558Y0044788D01*
X0161767Y0104119D02*
X0162723Y0106985D01*
X0163678Y0104119D01*
X0164634Y0108419D01*
X0166778Y0108419D02*
X0166778Y0104119D01*
X0166778Y0106507D02*
X0169167Y0106507D01*
X0169167Y0108419D02*
X0169167Y0104119D01*
X0171245Y0104119D02*
X0172200Y0104119D01*
X0171723Y0104119D02*
X0171723Y0108419D01*
X0172200Y0108419D02*
X0171245Y0108419D01*
X0173828Y0108419D02*
X0176217Y0108419D01*
X0175023Y0108419D02*
X0175023Y0104119D01*
X0178190Y0104119D02*
X0178190Y0108419D01*
X0180101Y0108419D01*
X0179624Y0106507D02*
X0178190Y0106507D01*
X0178190Y0104119D02*
X0180101Y0104119D01*
X0161767Y0104119D02*
X0160811Y0108419D01*
D19*
X0154893Y0098423D02*
X0152560Y0099201D01*
X0152560Y0097645D02*
X0154893Y0098423D01*
X0153337Y0096155D02*
X0152365Y0096155D01*
X0152304Y0096153D01*
X0152243Y0096147D01*
X0152183Y0096138D01*
X0152123Y0096124D01*
X0152065Y0096107D01*
X0152007Y0096087D01*
X0151951Y0096062D01*
X0151897Y0096035D01*
X0151844Y0096004D01*
X0151794Y0095969D01*
X0151745Y0095932D01*
X0151700Y0095892D01*
X0151656Y0095848D01*
X0151616Y0095803D01*
X0151579Y0095754D01*
X0151544Y0095704D01*
X0151513Y0095651D01*
X0151486Y0095597D01*
X0151461Y0095541D01*
X0151441Y0095483D01*
X0151424Y0095425D01*
X0151410Y0095365D01*
X0151401Y0095305D01*
X0151395Y0095244D01*
X0151393Y0095183D01*
X0151395Y0095122D01*
X0151401Y0095061D01*
X0151410Y0095001D01*
X0151424Y0094941D01*
X0151441Y0094883D01*
X0151461Y0094825D01*
X0151486Y0094769D01*
X0151513Y0094715D01*
X0151544Y0094662D01*
X0151579Y0094612D01*
X0151616Y0094563D01*
X0151656Y0094518D01*
X0151700Y0094474D01*
X0151745Y0094434D01*
X0151794Y0094397D01*
X0151844Y0094362D01*
X0151897Y0094331D01*
X0151951Y0094304D01*
X0152007Y0094279D01*
X0152065Y0094259D01*
X0152123Y0094242D01*
X0152183Y0094228D01*
X0152243Y0094219D01*
X0152304Y0094213D01*
X0152365Y0094211D01*
X0152560Y0094211D01*
X0152613Y0094213D01*
X0152666Y0094218D01*
X0152718Y0094227D01*
X0152770Y0094240D01*
X0152821Y0094256D01*
X0152870Y0094275D01*
X0152918Y0094298D01*
X0152964Y0094324D01*
X0153009Y0094353D01*
X0153051Y0094385D01*
X0153091Y0094420D01*
X0153129Y0094458D01*
X0153164Y0094498D01*
X0153196Y0094540D01*
X0153225Y0094585D01*
X0153251Y0094631D01*
X0153274Y0094679D01*
X0153293Y0094728D01*
X0153309Y0094779D01*
X0153322Y0094831D01*
X0153331Y0094883D01*
X0153336Y0094936D01*
X0153338Y0094989D01*
X0153337Y0094989D02*
X0153337Y0096155D01*
X0153337Y0096156D02*
X0153413Y0096154D01*
X0153490Y0096149D01*
X0153565Y0096139D01*
X0153641Y0096126D01*
X0153715Y0096109D01*
X0153789Y0096089D01*
X0153861Y0096065D01*
X0153932Y0096038D01*
X0154002Y0096007D01*
X0154070Y0095972D01*
X0154137Y0095935D01*
X0154201Y0095894D01*
X0154264Y0095850D01*
X0154324Y0095803D01*
X0154382Y0095753D01*
X0154437Y0095700D01*
X0154490Y0095645D01*
X0154540Y0095587D01*
X0154587Y0095527D01*
X0154631Y0095464D01*
X0154672Y0095400D01*
X0154709Y0095333D01*
X0154744Y0095265D01*
X0154775Y0095195D01*
X0154802Y0095124D01*
X0154826Y0095052D01*
X0154846Y0094978D01*
X0154863Y0094904D01*
X0154876Y0094828D01*
X0154886Y0094753D01*
X0154891Y0094676D01*
X0154893Y0094600D01*
X0152560Y0089358D02*
X0154893Y0088581D01*
X0152560Y0087803D01*
X0153726Y0086313D02*
X0154115Y0086313D01*
X0154171Y0086311D01*
X0154226Y0086305D01*
X0154280Y0086295D01*
X0154334Y0086281D01*
X0154387Y0086264D01*
X0154438Y0086243D01*
X0154488Y0086218D01*
X0154536Y0086189D01*
X0154581Y0086158D01*
X0154624Y0086123D01*
X0154665Y0086085D01*
X0154703Y0086044D01*
X0154738Y0086001D01*
X0154770Y0085956D01*
X0154798Y0085908D01*
X0154823Y0085858D01*
X0154844Y0085807D01*
X0154861Y0085754D01*
X0154875Y0085700D01*
X0154885Y0085646D01*
X0154891Y0085591D01*
X0154893Y0085535D01*
X0154893Y0084369D01*
X0153726Y0086313D02*
X0153670Y0086311D01*
X0153615Y0086305D01*
X0153561Y0086295D01*
X0153507Y0086281D01*
X0153454Y0086264D01*
X0153403Y0086243D01*
X0153353Y0086218D01*
X0153305Y0086189D01*
X0153260Y0086158D01*
X0153217Y0086123D01*
X0153176Y0086085D01*
X0153138Y0086044D01*
X0153103Y0086001D01*
X0153072Y0085956D01*
X0153043Y0085908D01*
X0153018Y0085858D01*
X0152997Y0085807D01*
X0152980Y0085754D01*
X0152966Y0085700D01*
X0152956Y0085646D01*
X0152950Y0085591D01*
X0152948Y0085535D01*
X0152948Y0084369D01*
X0151393Y0084369D01*
X0151393Y0086313D01*
X0151393Y0079810D02*
X0151393Y0078644D01*
X0151393Y0079810D02*
X0151395Y0079866D01*
X0151401Y0079921D01*
X0151411Y0079975D01*
X0151425Y0080029D01*
X0151442Y0080082D01*
X0151463Y0080133D01*
X0151488Y0080183D01*
X0151517Y0080231D01*
X0151548Y0080276D01*
X0151583Y0080319D01*
X0151621Y0080360D01*
X0151662Y0080398D01*
X0151705Y0080433D01*
X0151750Y0080464D01*
X0151798Y0080493D01*
X0151848Y0080518D01*
X0151899Y0080539D01*
X0151952Y0080556D01*
X0152006Y0080570D01*
X0152060Y0080580D01*
X0152115Y0080586D01*
X0152171Y0080588D01*
X0152227Y0080586D01*
X0152282Y0080580D01*
X0152336Y0080570D01*
X0152390Y0080556D01*
X0152443Y0080539D01*
X0152494Y0080518D01*
X0152544Y0080493D01*
X0152592Y0080464D01*
X0152637Y0080433D01*
X0152680Y0080398D01*
X0152721Y0080360D01*
X0152759Y0080319D01*
X0152794Y0080276D01*
X0152825Y0080231D01*
X0152854Y0080183D01*
X0152879Y0080133D01*
X0152900Y0080082D01*
X0152917Y0080029D01*
X0152931Y0079975D01*
X0152941Y0079921D01*
X0152947Y0079866D01*
X0152949Y0079810D01*
X0152948Y0079810D02*
X0152948Y0079033D01*
X0152949Y0079616D02*
X0152951Y0079677D01*
X0152957Y0079738D01*
X0152966Y0079798D01*
X0152980Y0079858D01*
X0152997Y0079916D01*
X0153017Y0079974D01*
X0153042Y0080030D01*
X0153069Y0080084D01*
X0153100Y0080137D01*
X0153135Y0080187D01*
X0153172Y0080236D01*
X0153212Y0080281D01*
X0153256Y0080325D01*
X0153301Y0080365D01*
X0153350Y0080402D01*
X0153400Y0080437D01*
X0153453Y0080468D01*
X0153507Y0080495D01*
X0153563Y0080520D01*
X0153621Y0080540D01*
X0153679Y0080557D01*
X0153739Y0080571D01*
X0153799Y0080580D01*
X0153860Y0080586D01*
X0153921Y0080588D01*
X0153982Y0080586D01*
X0154043Y0080580D01*
X0154103Y0080571D01*
X0154163Y0080557D01*
X0154221Y0080540D01*
X0154279Y0080520D01*
X0154335Y0080495D01*
X0154389Y0080468D01*
X0154442Y0080437D01*
X0154492Y0080402D01*
X0154541Y0080365D01*
X0154586Y0080325D01*
X0154630Y0080281D01*
X0154670Y0080236D01*
X0154707Y0080187D01*
X0154742Y0080137D01*
X0154773Y0080084D01*
X0154800Y0080030D01*
X0154825Y0079974D01*
X0154845Y0079916D01*
X0154862Y0079858D01*
X0154876Y0079798D01*
X0154885Y0079738D01*
X0154891Y0079677D01*
X0154893Y0079616D01*
X0154893Y0078644D01*
X0154893Y0076376D02*
X0152560Y0077154D01*
X0152560Y0075598D02*
X0154893Y0076376D01*
X0154893Y0073136D02*
X0154893Y0072164D01*
X0154893Y0073136D02*
X0154891Y0073197D01*
X0154885Y0073258D01*
X0154876Y0073318D01*
X0154862Y0073378D01*
X0154845Y0073436D01*
X0154825Y0073494D01*
X0154800Y0073550D01*
X0154773Y0073604D01*
X0154742Y0073657D01*
X0154707Y0073707D01*
X0154670Y0073756D01*
X0154630Y0073801D01*
X0154586Y0073845D01*
X0154541Y0073885D01*
X0154492Y0073922D01*
X0154442Y0073957D01*
X0154389Y0073988D01*
X0154335Y0074015D01*
X0154279Y0074040D01*
X0154221Y0074060D01*
X0154163Y0074077D01*
X0154103Y0074091D01*
X0154043Y0074100D01*
X0153982Y0074106D01*
X0153921Y0074108D01*
X0153860Y0074106D01*
X0153799Y0074100D01*
X0153739Y0074091D01*
X0153679Y0074077D01*
X0153621Y0074060D01*
X0153563Y0074040D01*
X0153507Y0074015D01*
X0153453Y0073988D01*
X0153400Y0073957D01*
X0153350Y0073922D01*
X0153301Y0073885D01*
X0153256Y0073845D01*
X0153212Y0073801D01*
X0153172Y0073756D01*
X0153135Y0073707D01*
X0153100Y0073657D01*
X0153069Y0073604D01*
X0153042Y0073550D01*
X0153017Y0073494D01*
X0152997Y0073436D01*
X0152980Y0073378D01*
X0152966Y0073318D01*
X0152957Y0073258D01*
X0152951Y0073197D01*
X0152949Y0073136D01*
X0152948Y0073330D02*
X0152948Y0072553D01*
X0152949Y0073330D02*
X0152947Y0073386D01*
X0152941Y0073441D01*
X0152931Y0073495D01*
X0152917Y0073549D01*
X0152900Y0073602D01*
X0152879Y0073653D01*
X0152854Y0073703D01*
X0152825Y0073751D01*
X0152794Y0073796D01*
X0152759Y0073839D01*
X0152721Y0073880D01*
X0152680Y0073918D01*
X0152637Y0073953D01*
X0152592Y0073984D01*
X0152544Y0074013D01*
X0152494Y0074038D01*
X0152443Y0074059D01*
X0152390Y0074076D01*
X0152336Y0074090D01*
X0152282Y0074100D01*
X0152227Y0074106D01*
X0152171Y0074108D01*
X0152115Y0074106D01*
X0152060Y0074100D01*
X0152006Y0074090D01*
X0151952Y0074076D01*
X0151899Y0074059D01*
X0151848Y0074038D01*
X0151798Y0074013D01*
X0151750Y0073984D01*
X0151705Y0073953D01*
X0151662Y0073918D01*
X0151621Y0073880D01*
X0151583Y0073839D01*
X0151548Y0073796D01*
X0151517Y0073751D01*
X0151488Y0073703D01*
X0151463Y0073653D01*
X0151442Y0073602D01*
X0151425Y0073549D01*
X0151411Y0073495D01*
X0151401Y0073441D01*
X0151395Y0073386D01*
X0151393Y0073330D01*
X0151393Y0072164D01*
X0151971Y0066434D02*
X0153527Y0066434D01*
X0153588Y0066432D01*
X0153649Y0066426D01*
X0153709Y0066417D01*
X0153769Y0066403D01*
X0153827Y0066386D01*
X0153885Y0066366D01*
X0153941Y0066341D01*
X0153995Y0066314D01*
X0154048Y0066283D01*
X0154098Y0066248D01*
X0154147Y0066211D01*
X0154192Y0066171D01*
X0154236Y0066127D01*
X0154276Y0066082D01*
X0154313Y0066033D01*
X0154348Y0065983D01*
X0154379Y0065930D01*
X0154406Y0065876D01*
X0154431Y0065820D01*
X0154451Y0065762D01*
X0154468Y0065704D01*
X0154482Y0065644D01*
X0154491Y0065584D01*
X0154497Y0065523D01*
X0154499Y0065462D01*
X0154499Y0064489D01*
X0150999Y0064489D01*
X0150999Y0065462D01*
X0151001Y0065523D01*
X0151007Y0065584D01*
X0151016Y0065644D01*
X0151030Y0065704D01*
X0151047Y0065762D01*
X0151067Y0065820D01*
X0151092Y0065876D01*
X0151119Y0065930D01*
X0151150Y0065983D01*
X0151185Y0066033D01*
X0151222Y0066082D01*
X0151262Y0066127D01*
X0151306Y0066171D01*
X0151351Y0066211D01*
X0151400Y0066248D01*
X0151450Y0066283D01*
X0151503Y0066314D01*
X0151557Y0066341D01*
X0151613Y0066366D01*
X0151671Y0066386D01*
X0151729Y0066403D01*
X0151789Y0066417D01*
X0151849Y0066426D01*
X0151910Y0066432D01*
X0151971Y0066434D01*
X0150999Y0062594D02*
X0154499Y0062594D01*
X0150999Y0060649D01*
X0154499Y0060649D01*
X0154499Y0058754D02*
X0152555Y0058754D01*
X0152555Y0058171D01*
X0151777Y0056809D02*
X0151721Y0056811D01*
X0151666Y0056817D01*
X0151612Y0056827D01*
X0151558Y0056841D01*
X0151505Y0056858D01*
X0151454Y0056879D01*
X0151404Y0056904D01*
X0151356Y0056933D01*
X0151311Y0056964D01*
X0151268Y0056999D01*
X0151227Y0057037D01*
X0151189Y0057078D01*
X0151154Y0057121D01*
X0151123Y0057166D01*
X0151094Y0057214D01*
X0151069Y0057264D01*
X0151048Y0057315D01*
X0151031Y0057368D01*
X0151017Y0057422D01*
X0151007Y0057476D01*
X0151001Y0057531D01*
X0150999Y0057587D01*
X0150999Y0058754D01*
X0151777Y0056809D02*
X0153721Y0056809D01*
X0153777Y0056811D01*
X0153832Y0056817D01*
X0153886Y0056827D01*
X0153940Y0056841D01*
X0153993Y0056858D01*
X0154044Y0056879D01*
X0154094Y0056904D01*
X0154142Y0056933D01*
X0154187Y0056964D01*
X0154230Y0056999D01*
X0154271Y0057037D01*
X0154309Y0057078D01*
X0154344Y0057121D01*
X0154375Y0057166D01*
X0154404Y0057214D01*
X0154429Y0057264D01*
X0154450Y0057315D01*
X0154467Y0057368D01*
X0154481Y0057422D01*
X0154491Y0057476D01*
X0154497Y0057531D01*
X0154499Y0057587D01*
X0154499Y0058754D01*
X0132576Y0108942D02*
X0132576Y0115741D01*
X0132138Y0116885D02*
X0132138Y0120385D01*
X0134082Y0116885D01*
X0134082Y0120385D01*
X0135978Y0120385D02*
X0136950Y0120385D01*
X0135978Y0120385D02*
X0135978Y0116885D01*
X0136950Y0116885D01*
X0137011Y0116887D01*
X0137072Y0116893D01*
X0137132Y0116902D01*
X0137192Y0116916D01*
X0137250Y0116933D01*
X0137308Y0116953D01*
X0137364Y0116978D01*
X0137418Y0117005D01*
X0137471Y0117036D01*
X0137521Y0117071D01*
X0137570Y0117108D01*
X0137615Y0117148D01*
X0137659Y0117192D01*
X0137699Y0117237D01*
X0137736Y0117286D01*
X0137771Y0117336D01*
X0137802Y0117389D01*
X0137829Y0117443D01*
X0137854Y0117499D01*
X0137874Y0117557D01*
X0137891Y0117615D01*
X0137905Y0117675D01*
X0137914Y0117735D01*
X0137920Y0117796D01*
X0137922Y0117857D01*
X0137922Y0119412D01*
X0137920Y0119473D01*
X0137914Y0119534D01*
X0137905Y0119594D01*
X0137891Y0119654D01*
X0137874Y0119712D01*
X0137854Y0119770D01*
X0137829Y0119826D01*
X0137802Y0119880D01*
X0137771Y0119933D01*
X0137736Y0119983D01*
X0137699Y0120032D01*
X0137659Y0120077D01*
X0137615Y0120121D01*
X0137570Y0120161D01*
X0137521Y0120198D01*
X0137471Y0120233D01*
X0137418Y0120264D01*
X0137364Y0120291D01*
X0137308Y0120316D01*
X0137250Y0120336D01*
X0137192Y0120353D01*
X0137132Y0120367D01*
X0137072Y0120376D01*
X0137011Y0120382D01*
X0136950Y0120384D01*
X0130242Y0120385D02*
X0129076Y0120385D01*
X0129020Y0120383D01*
X0128965Y0120377D01*
X0128911Y0120367D01*
X0128857Y0120353D01*
X0128804Y0120336D01*
X0128753Y0120315D01*
X0128703Y0120290D01*
X0128655Y0120261D01*
X0128610Y0120230D01*
X0128567Y0120195D01*
X0128526Y0120157D01*
X0128488Y0120116D01*
X0128453Y0120073D01*
X0128422Y0120028D01*
X0128393Y0119980D01*
X0128368Y0119930D01*
X0128347Y0119879D01*
X0128330Y0119826D01*
X0128316Y0119772D01*
X0128306Y0119718D01*
X0128300Y0119663D01*
X0128298Y0119607D01*
X0128298Y0117662D01*
X0128300Y0117606D01*
X0128306Y0117551D01*
X0128316Y0117497D01*
X0128330Y0117443D01*
X0128347Y0117390D01*
X0128368Y0117339D01*
X0128393Y0117289D01*
X0128422Y0117241D01*
X0128453Y0117196D01*
X0128488Y0117153D01*
X0128526Y0117112D01*
X0128567Y0117074D01*
X0128610Y0117039D01*
X0128655Y0117008D01*
X0128703Y0116979D01*
X0128753Y0116954D01*
X0128804Y0116933D01*
X0128857Y0116916D01*
X0128911Y0116902D01*
X0128965Y0116892D01*
X0129020Y0116886D01*
X0129076Y0116884D01*
X0129076Y0116885D02*
X0130242Y0116885D01*
X0130242Y0118829D01*
X0129659Y0118829D01*
X0117217Y0120278D02*
X0116051Y0116778D01*
X0114884Y0120278D01*
X0113423Y0120278D02*
X0111478Y0120278D01*
X0111478Y0118723D01*
X0112645Y0118723D01*
X0112701Y0118721D01*
X0112756Y0118715D01*
X0112810Y0118705D01*
X0112864Y0118691D01*
X0112917Y0118674D01*
X0112968Y0118653D01*
X0113018Y0118628D01*
X0113066Y0118599D01*
X0113111Y0118568D01*
X0113154Y0118533D01*
X0113195Y0118495D01*
X0113233Y0118454D01*
X0113268Y0118411D01*
X0113299Y0118366D01*
X0113328Y0118318D01*
X0113353Y0118268D01*
X0113374Y0118217D01*
X0113391Y0118164D01*
X0113405Y0118110D01*
X0113415Y0118056D01*
X0113421Y0118001D01*
X0113423Y0117945D01*
X0113423Y0117556D01*
X0113421Y0117500D01*
X0113415Y0117445D01*
X0113405Y0117391D01*
X0113391Y0117337D01*
X0113374Y0117284D01*
X0113353Y0117233D01*
X0113328Y0117183D01*
X0113299Y0117135D01*
X0113268Y0117090D01*
X0113233Y0117047D01*
X0113195Y0117006D01*
X0113154Y0116968D01*
X0113111Y0116933D01*
X0113066Y0116902D01*
X0113018Y0116873D01*
X0112968Y0116848D01*
X0112917Y0116827D01*
X0112864Y0116810D01*
X0112810Y0116796D01*
X0112756Y0116786D01*
X0112701Y0116780D01*
X0112645Y0116778D01*
X0111478Y0116778D01*
X0109072Y0115528D02*
X0109072Y0107961D01*
X0108433Y0116389D02*
X0109988Y0120667D01*
X0107137Y0120278D02*
X0105971Y0116778D01*
X0104804Y0120278D01*
X0102565Y0120278D02*
X0101398Y0120278D01*
X0102565Y0120279D02*
X0102621Y0120277D01*
X0102676Y0120271D01*
X0102730Y0120261D01*
X0102784Y0120247D01*
X0102837Y0120230D01*
X0102888Y0120209D01*
X0102938Y0120184D01*
X0102986Y0120155D01*
X0103031Y0120124D01*
X0103074Y0120089D01*
X0103115Y0120051D01*
X0103153Y0120010D01*
X0103188Y0119967D01*
X0103219Y0119922D01*
X0103248Y0119874D01*
X0103273Y0119824D01*
X0103294Y0119773D01*
X0103311Y0119720D01*
X0103325Y0119666D01*
X0103335Y0119612D01*
X0103341Y0119557D01*
X0103343Y0119501D01*
X0103341Y0119445D01*
X0103335Y0119390D01*
X0103325Y0119336D01*
X0103311Y0119282D01*
X0103294Y0119229D01*
X0103273Y0119178D01*
X0103248Y0119128D01*
X0103219Y0119080D01*
X0103188Y0119035D01*
X0103153Y0118992D01*
X0103115Y0118951D01*
X0103074Y0118913D01*
X0103031Y0118878D01*
X0102986Y0118847D01*
X0102938Y0118818D01*
X0102888Y0118793D01*
X0102837Y0118772D01*
X0102784Y0118755D01*
X0102730Y0118741D01*
X0102676Y0118731D01*
X0102621Y0118725D01*
X0102565Y0118723D01*
X0101787Y0118723D01*
X0102371Y0118723D02*
X0102432Y0118721D01*
X0102493Y0118715D01*
X0102553Y0118706D01*
X0102613Y0118692D01*
X0102671Y0118675D01*
X0102729Y0118655D01*
X0102785Y0118630D01*
X0102839Y0118603D01*
X0102892Y0118572D01*
X0102942Y0118537D01*
X0102991Y0118500D01*
X0103036Y0118460D01*
X0103080Y0118416D01*
X0103120Y0118371D01*
X0103157Y0118322D01*
X0103192Y0118272D01*
X0103223Y0118219D01*
X0103250Y0118165D01*
X0103275Y0118109D01*
X0103295Y0118051D01*
X0103312Y0117993D01*
X0103326Y0117933D01*
X0103335Y0117873D01*
X0103341Y0117812D01*
X0103343Y0117751D01*
X0103341Y0117690D01*
X0103335Y0117629D01*
X0103326Y0117569D01*
X0103312Y0117509D01*
X0103295Y0117451D01*
X0103275Y0117393D01*
X0103250Y0117337D01*
X0103223Y0117283D01*
X0103192Y0117230D01*
X0103157Y0117180D01*
X0103120Y0117131D01*
X0103080Y0117086D01*
X0103036Y0117042D01*
X0102991Y0117002D01*
X0102942Y0116965D01*
X0102892Y0116930D01*
X0102839Y0116899D01*
X0102785Y0116872D01*
X0102729Y0116847D01*
X0102671Y0116827D01*
X0102613Y0116810D01*
X0102553Y0116796D01*
X0102493Y0116787D01*
X0102432Y0116781D01*
X0102371Y0116779D01*
X0102371Y0116778D02*
X0101398Y0116778D01*
X0096517Y0120172D02*
X0095351Y0116672D01*
X0094184Y0120172D01*
X0092723Y0120172D02*
X0090778Y0120172D01*
X0090778Y0118616D01*
X0091945Y0118616D01*
X0091945Y0118617D02*
X0092001Y0118615D01*
X0092056Y0118609D01*
X0092110Y0118599D01*
X0092164Y0118585D01*
X0092217Y0118568D01*
X0092268Y0118547D01*
X0092318Y0118522D01*
X0092366Y0118493D01*
X0092411Y0118462D01*
X0092454Y0118427D01*
X0092495Y0118389D01*
X0092533Y0118348D01*
X0092568Y0118305D01*
X0092599Y0118260D01*
X0092628Y0118212D01*
X0092653Y0118162D01*
X0092674Y0118111D01*
X0092691Y0118058D01*
X0092705Y0118004D01*
X0092715Y0117950D01*
X0092721Y0117895D01*
X0092723Y0117839D01*
X0092723Y0117450D01*
X0092721Y0117394D01*
X0092715Y0117339D01*
X0092705Y0117285D01*
X0092691Y0117231D01*
X0092674Y0117178D01*
X0092653Y0117127D01*
X0092628Y0117077D01*
X0092599Y0117029D01*
X0092568Y0116984D01*
X0092533Y0116941D01*
X0092495Y0116900D01*
X0092454Y0116862D01*
X0092411Y0116827D01*
X0092366Y0116796D01*
X0092318Y0116767D01*
X0092268Y0116742D01*
X0092217Y0116721D01*
X0092164Y0116704D01*
X0092110Y0116690D01*
X0092056Y0116680D01*
X0092001Y0116674D01*
X0091945Y0116672D01*
X0090778Y0116672D01*
X0093080Y0115528D02*
X0093080Y0107961D01*
X0078794Y0116869D02*
X0079961Y0120369D01*
X0077627Y0120369D02*
X0078794Y0116869D01*
X0077331Y0115528D02*
X0077331Y0107961D01*
X0076166Y0118424D02*
X0076166Y0119397D01*
X0076164Y0119458D01*
X0076158Y0119519D01*
X0076149Y0119579D01*
X0076135Y0119639D01*
X0076118Y0119697D01*
X0076098Y0119755D01*
X0076073Y0119811D01*
X0076046Y0119865D01*
X0076015Y0119918D01*
X0075980Y0119968D01*
X0075943Y0120017D01*
X0075903Y0120062D01*
X0075859Y0120106D01*
X0075814Y0120146D01*
X0075765Y0120183D01*
X0075715Y0120218D01*
X0075662Y0120249D01*
X0075608Y0120276D01*
X0075552Y0120301D01*
X0075494Y0120321D01*
X0075436Y0120338D01*
X0075376Y0120352D01*
X0075316Y0120361D01*
X0075255Y0120367D01*
X0075194Y0120369D01*
X0075133Y0120367D01*
X0075072Y0120361D01*
X0075012Y0120352D01*
X0074952Y0120338D01*
X0074894Y0120321D01*
X0074836Y0120301D01*
X0074780Y0120276D01*
X0074726Y0120249D01*
X0074673Y0120218D01*
X0074623Y0120183D01*
X0074574Y0120146D01*
X0074529Y0120106D01*
X0074485Y0120062D01*
X0074445Y0120017D01*
X0074408Y0119968D01*
X0074373Y0119918D01*
X0074342Y0119865D01*
X0074315Y0119811D01*
X0074290Y0119755D01*
X0074270Y0119697D01*
X0074253Y0119639D01*
X0074239Y0119579D01*
X0074230Y0119519D01*
X0074224Y0119458D01*
X0074222Y0119397D01*
X0074222Y0119202D01*
X0074224Y0119146D01*
X0074230Y0119091D01*
X0074240Y0119037D01*
X0074254Y0118983D01*
X0074271Y0118930D01*
X0074292Y0118879D01*
X0074317Y0118829D01*
X0074346Y0118781D01*
X0074377Y0118736D01*
X0074412Y0118693D01*
X0074450Y0118652D01*
X0074491Y0118614D01*
X0074534Y0118579D01*
X0074579Y0118548D01*
X0074627Y0118519D01*
X0074677Y0118494D01*
X0074728Y0118473D01*
X0074781Y0118456D01*
X0074835Y0118442D01*
X0074889Y0118432D01*
X0074944Y0118426D01*
X0075000Y0118424D01*
X0076166Y0118424D01*
X0076167Y0118424D02*
X0076165Y0118348D01*
X0076160Y0118271D01*
X0076150Y0118196D01*
X0076137Y0118120D01*
X0076120Y0118046D01*
X0076100Y0117972D01*
X0076076Y0117900D01*
X0076049Y0117829D01*
X0076018Y0117759D01*
X0075983Y0117691D01*
X0075946Y0117624D01*
X0075905Y0117560D01*
X0075861Y0117497D01*
X0075814Y0117437D01*
X0075764Y0117379D01*
X0075711Y0117324D01*
X0075656Y0117271D01*
X0075598Y0117221D01*
X0075538Y0117174D01*
X0075475Y0117130D01*
X0075411Y0117089D01*
X0075344Y0117052D01*
X0075276Y0117017D01*
X0075206Y0116986D01*
X0075135Y0116959D01*
X0075063Y0116935D01*
X0074989Y0116915D01*
X0074915Y0116898D01*
X0074839Y0116885D01*
X0074764Y0116875D01*
X0074687Y0116870D01*
X0074611Y0116868D01*
X0105346Y0157203D02*
X0105346Y0159148D01*
X0105346Y0160609D02*
X0108846Y0161775D01*
X0105346Y0162942D01*
X0106108Y0165668D02*
X0108052Y0165668D01*
X0108052Y0165667D02*
X0108108Y0165669D01*
X0108163Y0165675D01*
X0108217Y0165685D01*
X0108271Y0165699D01*
X0108324Y0165716D01*
X0108375Y0165737D01*
X0108425Y0165762D01*
X0108473Y0165791D01*
X0108518Y0165822D01*
X0108561Y0165857D01*
X0108602Y0165895D01*
X0108640Y0165936D01*
X0108675Y0165979D01*
X0108706Y0166024D01*
X0108735Y0166072D01*
X0108760Y0166122D01*
X0108781Y0166173D01*
X0108798Y0166226D01*
X0108812Y0166280D01*
X0108822Y0166334D01*
X0108828Y0166389D01*
X0108830Y0166445D01*
X0108830Y0167612D01*
X0106885Y0167612D01*
X0106885Y0167029D01*
X0106108Y0165667D02*
X0106052Y0165669D01*
X0105997Y0165675D01*
X0105943Y0165685D01*
X0105889Y0165699D01*
X0105836Y0165716D01*
X0105785Y0165737D01*
X0105735Y0165762D01*
X0105687Y0165791D01*
X0105642Y0165822D01*
X0105599Y0165857D01*
X0105558Y0165895D01*
X0105520Y0165936D01*
X0105485Y0165979D01*
X0105454Y0166024D01*
X0105425Y0166072D01*
X0105400Y0166122D01*
X0105379Y0166173D01*
X0105362Y0166226D01*
X0105348Y0166280D01*
X0105338Y0166334D01*
X0105332Y0166389D01*
X0105330Y0166445D01*
X0105330Y0167612D01*
X0105330Y0169508D02*
X0108830Y0171452D01*
X0105330Y0171452D01*
X0105330Y0173348D02*
X0105330Y0174320D01*
X0105332Y0174381D01*
X0105338Y0174442D01*
X0105347Y0174502D01*
X0105361Y0174562D01*
X0105378Y0174620D01*
X0105398Y0174678D01*
X0105423Y0174734D01*
X0105450Y0174788D01*
X0105481Y0174841D01*
X0105516Y0174891D01*
X0105553Y0174940D01*
X0105593Y0174985D01*
X0105637Y0175029D01*
X0105682Y0175069D01*
X0105731Y0175106D01*
X0105781Y0175141D01*
X0105834Y0175172D01*
X0105888Y0175199D01*
X0105944Y0175224D01*
X0106002Y0175244D01*
X0106060Y0175261D01*
X0106120Y0175275D01*
X0106180Y0175284D01*
X0106241Y0175290D01*
X0106302Y0175292D01*
X0107858Y0175292D01*
X0107919Y0175290D01*
X0107980Y0175284D01*
X0108040Y0175275D01*
X0108100Y0175261D01*
X0108158Y0175244D01*
X0108216Y0175224D01*
X0108272Y0175199D01*
X0108326Y0175172D01*
X0108379Y0175141D01*
X0108429Y0175106D01*
X0108478Y0175069D01*
X0108523Y0175029D01*
X0108567Y0174985D01*
X0108607Y0174940D01*
X0108644Y0174891D01*
X0108679Y0174841D01*
X0108710Y0174788D01*
X0108737Y0174734D01*
X0108762Y0174678D01*
X0108782Y0174620D01*
X0108799Y0174562D01*
X0108813Y0174502D01*
X0108822Y0174442D01*
X0108828Y0174381D01*
X0108830Y0174320D01*
X0108830Y0173348D01*
X0105330Y0173348D01*
X0105330Y0169508D02*
X0108830Y0169508D01*
X0108068Y0159148D02*
X0107679Y0159148D01*
X0107623Y0159146D01*
X0107568Y0159140D01*
X0107514Y0159130D01*
X0107460Y0159116D01*
X0107407Y0159099D01*
X0107356Y0159078D01*
X0107306Y0159053D01*
X0107258Y0159024D01*
X0107213Y0158993D01*
X0107170Y0158958D01*
X0107129Y0158920D01*
X0107091Y0158879D01*
X0107056Y0158836D01*
X0107025Y0158791D01*
X0106996Y0158743D01*
X0106971Y0158693D01*
X0106950Y0158642D01*
X0106933Y0158589D01*
X0106919Y0158535D01*
X0106909Y0158481D01*
X0106903Y0158426D01*
X0106901Y0158370D01*
X0106901Y0157203D01*
X0105346Y0157203D01*
X0108068Y0159148D02*
X0108124Y0159146D01*
X0108179Y0159140D01*
X0108233Y0159130D01*
X0108287Y0159116D01*
X0108340Y0159099D01*
X0108391Y0159078D01*
X0108441Y0159053D01*
X0108489Y0159024D01*
X0108534Y0158993D01*
X0108577Y0158958D01*
X0108618Y0158920D01*
X0108656Y0158879D01*
X0108691Y0158836D01*
X0108723Y0158791D01*
X0108751Y0158743D01*
X0108776Y0158693D01*
X0108797Y0158642D01*
X0108814Y0158589D01*
X0108828Y0158535D01*
X0108838Y0158481D01*
X0108844Y0158426D01*
X0108846Y0158370D01*
X0108846Y0157203D01*
X0123046Y0157124D02*
X0123046Y0159069D01*
X0123046Y0160530D02*
X0126546Y0161697D01*
X0123046Y0162863D01*
X0123824Y0165668D02*
X0125769Y0165668D01*
X0125769Y0165667D02*
X0125825Y0165669D01*
X0125880Y0165675D01*
X0125934Y0165685D01*
X0125988Y0165699D01*
X0126041Y0165716D01*
X0126092Y0165737D01*
X0126142Y0165762D01*
X0126190Y0165791D01*
X0126235Y0165822D01*
X0126278Y0165857D01*
X0126319Y0165895D01*
X0126357Y0165936D01*
X0126392Y0165979D01*
X0126423Y0166024D01*
X0126452Y0166072D01*
X0126477Y0166122D01*
X0126498Y0166173D01*
X0126515Y0166226D01*
X0126529Y0166280D01*
X0126539Y0166334D01*
X0126545Y0166389D01*
X0126547Y0166445D01*
X0126546Y0166445D02*
X0126546Y0167612D01*
X0124602Y0167612D01*
X0124602Y0167029D01*
X0123824Y0165667D02*
X0123768Y0165669D01*
X0123713Y0165675D01*
X0123659Y0165685D01*
X0123605Y0165699D01*
X0123552Y0165716D01*
X0123501Y0165737D01*
X0123451Y0165762D01*
X0123403Y0165791D01*
X0123358Y0165822D01*
X0123315Y0165857D01*
X0123274Y0165895D01*
X0123236Y0165936D01*
X0123201Y0165979D01*
X0123170Y0166024D01*
X0123141Y0166072D01*
X0123116Y0166122D01*
X0123095Y0166173D01*
X0123078Y0166226D01*
X0123064Y0166280D01*
X0123054Y0166334D01*
X0123048Y0166389D01*
X0123046Y0166445D01*
X0123046Y0167612D01*
X0123046Y0169508D02*
X0126546Y0171452D01*
X0123046Y0171452D01*
X0123046Y0173348D02*
X0123046Y0174320D01*
X0123046Y0173348D02*
X0126546Y0173348D01*
X0126546Y0174320D01*
X0126544Y0174381D01*
X0126538Y0174442D01*
X0126529Y0174502D01*
X0126515Y0174562D01*
X0126498Y0174620D01*
X0126478Y0174678D01*
X0126453Y0174734D01*
X0126426Y0174788D01*
X0126395Y0174841D01*
X0126360Y0174891D01*
X0126323Y0174940D01*
X0126283Y0174985D01*
X0126239Y0175029D01*
X0126194Y0175069D01*
X0126145Y0175106D01*
X0126095Y0175141D01*
X0126042Y0175172D01*
X0125988Y0175199D01*
X0125932Y0175224D01*
X0125874Y0175244D01*
X0125816Y0175261D01*
X0125756Y0175275D01*
X0125696Y0175284D01*
X0125635Y0175290D01*
X0125574Y0175292D01*
X0124019Y0175292D01*
X0123958Y0175290D01*
X0123897Y0175284D01*
X0123837Y0175275D01*
X0123777Y0175261D01*
X0123719Y0175244D01*
X0123661Y0175224D01*
X0123605Y0175199D01*
X0123551Y0175172D01*
X0123498Y0175141D01*
X0123448Y0175106D01*
X0123399Y0175069D01*
X0123354Y0175029D01*
X0123310Y0174985D01*
X0123270Y0174940D01*
X0123233Y0174891D01*
X0123198Y0174841D01*
X0123167Y0174788D01*
X0123140Y0174734D01*
X0123115Y0174678D01*
X0123095Y0174620D01*
X0123078Y0174562D01*
X0123064Y0174502D01*
X0123055Y0174442D01*
X0123049Y0174381D01*
X0123047Y0174320D01*
X0123046Y0169508D02*
X0126546Y0169508D01*
X0125769Y0159069D02*
X0125380Y0159069D01*
X0125324Y0159067D01*
X0125269Y0159061D01*
X0125215Y0159051D01*
X0125161Y0159037D01*
X0125108Y0159020D01*
X0125057Y0158999D01*
X0125007Y0158974D01*
X0124959Y0158945D01*
X0124914Y0158914D01*
X0124871Y0158879D01*
X0124830Y0158841D01*
X0124792Y0158800D01*
X0124757Y0158757D01*
X0124726Y0158712D01*
X0124697Y0158664D01*
X0124672Y0158614D01*
X0124651Y0158563D01*
X0124634Y0158510D01*
X0124620Y0158456D01*
X0124610Y0158402D01*
X0124604Y0158347D01*
X0124602Y0158291D01*
X0124602Y0157124D01*
X0123046Y0157124D01*
X0125769Y0159069D02*
X0125825Y0159067D01*
X0125880Y0159061D01*
X0125934Y0159051D01*
X0125988Y0159037D01*
X0126041Y0159020D01*
X0126092Y0158999D01*
X0126142Y0158974D01*
X0126190Y0158945D01*
X0126235Y0158914D01*
X0126278Y0158879D01*
X0126319Y0158841D01*
X0126357Y0158800D01*
X0126392Y0158757D01*
X0126424Y0158712D01*
X0126452Y0158664D01*
X0126477Y0158614D01*
X0126498Y0158563D01*
X0126515Y0158510D01*
X0126529Y0158456D01*
X0126539Y0158402D01*
X0126545Y0158347D01*
X0126547Y0158291D01*
X0126546Y0158291D02*
X0126546Y0157124D01*
X0154613Y0156237D02*
X0154613Y0155070D01*
X0154612Y0155070D02*
X0154614Y0155014D01*
X0154620Y0154959D01*
X0154630Y0154905D01*
X0154644Y0154851D01*
X0154661Y0154798D01*
X0154682Y0154747D01*
X0154707Y0154697D01*
X0154736Y0154649D01*
X0154767Y0154604D01*
X0154802Y0154561D01*
X0154840Y0154520D01*
X0154881Y0154482D01*
X0154924Y0154447D01*
X0154969Y0154416D01*
X0155017Y0154387D01*
X0155067Y0154362D01*
X0155118Y0154341D01*
X0155171Y0154324D01*
X0155225Y0154310D01*
X0155279Y0154300D01*
X0155334Y0154294D01*
X0155390Y0154292D01*
X0157335Y0154292D01*
X0157391Y0154294D01*
X0157446Y0154300D01*
X0157500Y0154310D01*
X0157554Y0154324D01*
X0157607Y0154341D01*
X0157658Y0154362D01*
X0157708Y0154387D01*
X0157756Y0154416D01*
X0157801Y0154447D01*
X0157844Y0154482D01*
X0157885Y0154520D01*
X0157923Y0154561D01*
X0157958Y0154604D01*
X0157989Y0154649D01*
X0158018Y0154697D01*
X0158043Y0154747D01*
X0158064Y0154798D01*
X0158081Y0154851D01*
X0158095Y0154905D01*
X0158105Y0154959D01*
X0158111Y0155014D01*
X0158113Y0155070D01*
X0158113Y0156237D01*
X0156168Y0156237D01*
X0156168Y0155653D01*
X0154613Y0158132D02*
X0158113Y0160077D01*
X0154613Y0160077D01*
X0154613Y0161972D02*
X0154613Y0162944D01*
X0154615Y0163005D01*
X0154621Y0163066D01*
X0154630Y0163126D01*
X0154644Y0163186D01*
X0154661Y0163244D01*
X0154681Y0163302D01*
X0154706Y0163358D01*
X0154733Y0163412D01*
X0154764Y0163465D01*
X0154799Y0163515D01*
X0154836Y0163564D01*
X0154876Y0163609D01*
X0154920Y0163653D01*
X0154965Y0163693D01*
X0155014Y0163730D01*
X0155064Y0163765D01*
X0155117Y0163796D01*
X0155171Y0163823D01*
X0155227Y0163848D01*
X0155285Y0163868D01*
X0155343Y0163885D01*
X0155403Y0163899D01*
X0155463Y0163908D01*
X0155524Y0163914D01*
X0155585Y0163916D01*
X0155585Y0163917D02*
X0157140Y0163917D01*
X0157140Y0163916D02*
X0157201Y0163914D01*
X0157262Y0163908D01*
X0157322Y0163899D01*
X0157382Y0163885D01*
X0157440Y0163868D01*
X0157498Y0163848D01*
X0157554Y0163823D01*
X0157608Y0163796D01*
X0157661Y0163765D01*
X0157711Y0163730D01*
X0157760Y0163693D01*
X0157805Y0163653D01*
X0157849Y0163609D01*
X0157889Y0163564D01*
X0157926Y0163515D01*
X0157961Y0163465D01*
X0157992Y0163412D01*
X0158019Y0163358D01*
X0158044Y0163302D01*
X0158064Y0163244D01*
X0158081Y0163186D01*
X0158095Y0163126D01*
X0158104Y0163066D01*
X0158110Y0163005D01*
X0158112Y0162944D01*
X0158113Y0162944D02*
X0158113Y0161972D01*
X0154613Y0161972D01*
X0155300Y0165936D02*
X0154522Y0166908D01*
X0158022Y0166908D01*
X0158022Y0165936D02*
X0158022Y0167880D01*
X0158022Y0169536D02*
X0158022Y0171480D01*
X0158022Y0169536D02*
X0156078Y0171189D01*
X0154522Y0170605D02*
X0154524Y0170541D01*
X0154529Y0170477D01*
X0154538Y0170413D01*
X0154551Y0170350D01*
X0154568Y0170288D01*
X0154587Y0170227D01*
X0154611Y0170167D01*
X0154637Y0170109D01*
X0154667Y0170052D01*
X0154701Y0169997D01*
X0154737Y0169944D01*
X0154776Y0169893D01*
X0154818Y0169845D01*
X0154863Y0169798D01*
X0154910Y0169755D01*
X0154960Y0169714D01*
X0155012Y0169677D01*
X0155066Y0169642D01*
X0155122Y0169610D01*
X0155180Y0169582D01*
X0155239Y0169557D01*
X0155300Y0169536D01*
X0156078Y0171189D02*
X0156036Y0171230D01*
X0155992Y0171269D01*
X0155945Y0171304D01*
X0155897Y0171337D01*
X0155846Y0171367D01*
X0155794Y0171393D01*
X0155740Y0171416D01*
X0155685Y0171436D01*
X0155629Y0171452D01*
X0155572Y0171465D01*
X0155514Y0171474D01*
X0155456Y0171479D01*
X0155397Y0171481D01*
X0155397Y0171480D02*
X0155340Y0171478D01*
X0155283Y0171473D01*
X0155226Y0171463D01*
X0155171Y0171450D01*
X0155116Y0171434D01*
X0155062Y0171413D01*
X0155010Y0171390D01*
X0154960Y0171363D01*
X0154911Y0171333D01*
X0154864Y0171299D01*
X0154820Y0171263D01*
X0154778Y0171224D01*
X0154739Y0171182D01*
X0154703Y0171138D01*
X0154669Y0171091D01*
X0154639Y0171043D01*
X0154612Y0170992D01*
X0154589Y0170940D01*
X0154568Y0170886D01*
X0154552Y0170831D01*
X0154539Y0170776D01*
X0154529Y0170719D01*
X0154524Y0170662D01*
X0154522Y0170605D01*
X0154522Y0172941D02*
X0158022Y0174108D01*
X0154522Y0175275D01*
X0154613Y0158132D02*
X0158113Y0158132D01*
D20*
X0073728Y0157892D02*
X0073728Y0156792D01*
X0073728Y0155392D02*
X0073728Y0154192D01*
X0073728Y0152792D02*
X0073728Y0151692D01*
X0073728Y0150292D02*
X0073728Y0149092D01*
X0073728Y0147692D02*
X0073728Y0146492D01*
X0073728Y0159292D02*
X0073728Y0160492D01*
X0073728Y0161892D02*
X0073728Y0163092D01*
X0056328Y0163092D02*
X0056328Y0161892D01*
X0056328Y0160492D02*
X0056328Y0159292D01*
X0056328Y0157892D02*
X0056328Y0156792D01*
X0056328Y0155392D02*
X0056328Y0154192D01*
X0056328Y0152792D02*
X0056328Y0151692D01*
X0056328Y0150292D02*
X0056328Y0149092D01*
X0056328Y0147692D02*
X0056328Y0146492D01*
D21*
X0056491Y0163644D02*
X0057405Y0164819D01*
X0055969Y0165341D01*
X0057405Y0164819D02*
X0058319Y0163644D01*
X0057405Y0164819D02*
X0058841Y0165341D01*
X0057405Y0164819D02*
X0057405Y0166385D01*
X0176904Y0071940D02*
X0177549Y0071134D01*
X0176904Y0071940D02*
X0179804Y0071940D01*
X0179804Y0072745D02*
X0179804Y0071134D01*
X0179160Y0069782D02*
X0176904Y0069782D01*
X0179160Y0069782D02*
X0179208Y0069780D01*
X0179256Y0069775D01*
X0179303Y0069766D01*
X0179350Y0069753D01*
X0179395Y0069737D01*
X0179439Y0069718D01*
X0179482Y0069696D01*
X0179523Y0069670D01*
X0179562Y0069641D01*
X0179598Y0069610D01*
X0179632Y0069576D01*
X0179663Y0069540D01*
X0179692Y0069501D01*
X0179718Y0069460D01*
X0179740Y0069417D01*
X0179759Y0069373D01*
X0179775Y0069328D01*
X0179788Y0069281D01*
X0179797Y0069234D01*
X0179802Y0069186D01*
X0179804Y0069138D01*
X0179804Y0068815D01*
D22*
X0147863Y0159792D03*
X0147863Y0169792D03*
X0133296Y0169792D03*
X0133296Y0159792D03*
X0115580Y0159792D03*
X0115580Y0169792D03*
M02*
