%
M48
M72
T01C0.01300
T02C0.01378
T03C0.01575
T04C0.01969
T05C0.02165
T06C0.03346
T07C0.04000
T08C0.04016
T09C0.04331
T10C0.06299
T11C0.09449
T12C0.10630
T13C0.11417
%
T01
X62036Y151997
X62036Y154753
X62036Y157509
X64989Y157509
X64989Y154753
X64989Y151997
X67942Y151997
X67942Y154753
X67942Y157509
T02
X27784Y21485
X19517Y27391
X19517Y41170
X19517Y54950
X19517Y68729
X19517Y82509
X19517Y96288
X19517Y110068
X19517Y123847
X19517Y137627
X19517Y151406
X19517Y165186
X19517Y178965
X27784Y190776
X41564Y190776
X55343Y190776
X69123Y190776
X82902Y190776
X88650Y183099
X92194Y183099
X92194Y178375
X88650Y178375
X88650Y173650
X92194Y173650
X91406Y162627
X94950Y162627
X87863Y162627
X84320Y162627
X80776Y162627
X96682Y190776
X110461Y190776
X124241Y190776
X138020Y190776
X151800Y190776
X165580Y190776
X179359Y190776
X193139Y190776
X202981Y178965
X202981Y165186
X202981Y151406
X202981Y137627
X202981Y120698
X202981Y108493
X202981Y96288
X202981Y84083
X202981Y71879
X202981Y59674
X202981Y47469
X202981Y35265
X202981Y27391
X193139Y21485
X179359Y21485
X165580Y21485
X151800Y21485
X141170Y21485
X117154Y21485
X104162Y21485
X87233Y21485
X67942Y21485
X55343Y21485
X41564Y21485
X73454Y54556
X77391Y54556
X77391Y58887
X73454Y58887
X73454Y63217
X77391Y63217
X77391Y67548
X73454Y67548
X61249Y68335
X89989Y62430
X89989Y59280
X89989Y56131
X93139Y59280
X93139Y62430
X97076Y62430
X97076Y59280
X98257Y66367
X103375Y66367
X108493Y66367
X108099Y62430
X108099Y59280
X111249Y59280
X111249Y62430
X113611Y66367
X117154Y68335
X125422Y68335
X132509Y89595
X132509Y92745
X132509Y96288
X136052Y92745
X128965Y92745
X93139Y66367
X48650Y131328
X176997Y52981
X186839Y56131
X186839Y68729
X186839Y82509
X186839Y94320
T03
X43454Y160540
X41367Y146485
T04
X51800Y166436
X51643Y176406
X102981Y145107
X102852Y139363
X102852Y134048
X102852Y128733
X102852Y125387
X108887Y143139
X108887Y146682
X114005Y146682
X114005Y143139
X137627Y59674
X142351Y59674
X147076Y59674
X147076Y41170
X142351Y41170
T05
X74477Y129556
X68572Y129556
X68572Y135461
X74477Y135461
X74477Y140973
X68572Y140973
X69950Y147076
X65028Y147076
X60107Y147076
X62666Y140973
X56761Y140973
X56761Y135461
X62666Y135461
X62666Y129556
X56761Y129556
X60107Y162430
X65028Y162430
X69950Y162430
X62076Y173454
X62076Y178178
X62076Y182509
X57351Y182509
X57351Y178178
X57351Y173454
X99871Y175028
X99871Y180146
X99871Y185265
X123454Y169556
X141643Y169635
T06
X94320Y23422
X82509Y23422
T07
X115580Y159792
X115580Y169792
X133296Y169792
X133296Y159792
X147863Y159792
X147863Y169792
T08
X140048Y88867
X124457Y88867
X108906Y88867
X93316Y88867
X77725Y88867
T09
X169123Y86997
X169123Y96997
X169123Y76997
X169123Y66997
X169123Y56997
T10
X41800Y93020
X41800Y108611
X32024Y69501
X32024Y38320
T11
X77725Y102056
X93316Y102056
X108906Y102056
X124497Y102056
X140087Y102056
T12
X197076Y127391
T13
X159674Y135265
M30
