G75*
%MOIN*%
%OFA0B0*%
%FSLAX25Y25*%
%IPPOS*%
%LPD*%
%AMOC8*
5,1,8,0,0,1.08239X$1,22.5*
%
%ADD10C,0.00600*%
%ADD11C,0.00000*%
%ADD12C,0.06024*%
%ADD13C,0.06000*%
%ADD14C,0.09449*%
%ADD15C,0.06496*%
%ADD16C,0.02500*%
%ADD17C,0.03365*%
%ADD18C,0.02578*%
%ADD19C,0.01600*%
%ADD20C,0.03169*%
%ADD21C,0.02775*%
%ADD22C,0.10000*%
%ADD23C,0.02000*%
%ADD24C,0.04000*%
D10*
X0024241Y0016761D02*
X0195894Y0016761D01*
X0209674Y0028572D02*
X0209674Y0184083D01*
X0209646Y0184397D01*
X0209610Y0184710D01*
X0209567Y0185022D01*
X0209516Y0185333D01*
X0209457Y0185642D01*
X0209391Y0185950D01*
X0209318Y0186256D01*
X0209236Y0186561D01*
X0209148Y0186863D01*
X0209052Y0187163D01*
X0208948Y0187460D01*
X0208838Y0187755D01*
X0208720Y0188047D01*
X0208595Y0188336D01*
X0208463Y0188622D01*
X0208324Y0188905D01*
X0208178Y0189184D01*
X0208025Y0189459D01*
X0207865Y0189731D01*
X0207699Y0189999D01*
X0207527Y0190262D01*
X0207348Y0190521D01*
X0207163Y0190776D01*
X0206971Y0191026D01*
X0206773Y0191271D01*
X0206570Y0191512D01*
X0206361Y0191747D01*
X0206145Y0191977D01*
X0205925Y0192202D01*
X0205699Y0192421D01*
X0205467Y0192635D01*
X0205231Y0192843D01*
X0204989Y0193045D01*
X0204742Y0193241D01*
X0204491Y0193431D01*
X0204235Y0193614D01*
X0203975Y0193792D01*
X0203711Y0193963D01*
X0203442Y0194127D01*
X0203169Y0194285D01*
X0202893Y0194436D01*
X0202613Y0194580D01*
X0202329Y0194717D01*
X0202043Y0194847D01*
X0201753Y0194971D01*
X0201460Y0195087D01*
X0201164Y0195195D01*
X0200866Y0195297D01*
X0200566Y0195391D01*
X0200263Y0195478D01*
X0199958Y0195557D01*
X0199651Y0195629D01*
X0199343Y0195693D01*
X0199033Y0195750D01*
X0198722Y0195799D01*
X0198410Y0195840D01*
X0198097Y0195874D01*
X0197783Y0195900D01*
X0197468Y0195918D01*
X0197154Y0195929D01*
X0196839Y0195932D01*
X0196524Y0195927D01*
X0196209Y0195915D01*
X0195895Y0195894D01*
X0195894Y0195894D02*
X0027784Y0195894D01*
X0027475Y0195914D01*
X0027165Y0195927D01*
X0026855Y0195932D01*
X0026545Y0195929D01*
X0026235Y0195920D01*
X0025925Y0195902D01*
X0025616Y0195877D01*
X0025308Y0195845D01*
X0025000Y0195805D01*
X0024694Y0195758D01*
X0024388Y0195703D01*
X0024084Y0195641D01*
X0023782Y0195572D01*
X0023482Y0195496D01*
X0023183Y0195412D01*
X0022887Y0195321D01*
X0022592Y0195223D01*
X0022301Y0195117D01*
X0022012Y0195005D01*
X0021725Y0194886D01*
X0021442Y0194760D01*
X0021162Y0194627D01*
X0020885Y0194487D01*
X0020611Y0194341D01*
X0020342Y0194188D01*
X0020075Y0194029D01*
X0019813Y0193863D01*
X0019555Y0193691D01*
X0019301Y0193513D01*
X0019052Y0193329D01*
X0018807Y0193139D01*
X0018567Y0192943D01*
X0018331Y0192741D01*
X0018101Y0192533D01*
X0017875Y0192321D01*
X0017655Y0192102D01*
X0017440Y0191879D01*
X0017231Y0191650D01*
X0017027Y0191416D01*
X0016829Y0191178D01*
X0016637Y0190934D01*
X0016450Y0190686D01*
X0016270Y0190434D01*
X0016096Y0190177D01*
X0015928Y0189917D01*
X0015766Y0189652D01*
X0015611Y0189383D01*
X0015463Y0189111D01*
X0015321Y0188836D01*
X0015185Y0188557D01*
X0015057Y0188274D01*
X0014935Y0187989D01*
X0014820Y0187701D01*
X0014713Y0187410D01*
X0014612Y0187117D01*
X0014519Y0186821D01*
X0014432Y0186523D01*
X0014353Y0186223D01*
X0014281Y0185922D01*
X0014217Y0185618D01*
X0014160Y0185314D01*
X0014110Y0185007D01*
X0014067Y0184700D01*
X0014032Y0184392D01*
X0014005Y0184083D01*
X0014005Y0028572D01*
X0014004Y0028571D02*
X0013988Y0028305D01*
X0013979Y0028038D01*
X0013976Y0027771D01*
X0013980Y0027504D01*
X0013990Y0027237D01*
X0014006Y0026970D01*
X0014029Y0026704D01*
X0014058Y0026439D01*
X0014094Y0026174D01*
X0014136Y0025910D01*
X0014184Y0025648D01*
X0014239Y0025386D01*
X0014300Y0025126D01*
X0014368Y0024868D01*
X0014441Y0024611D01*
X0014521Y0024356D01*
X0014607Y0024103D01*
X0014699Y0023853D01*
X0014797Y0023604D01*
X0014901Y0023358D01*
X0015011Y0023115D01*
X0015127Y0022874D01*
X0015248Y0022636D01*
X0015375Y0022401D01*
X0015508Y0022170D01*
X0015647Y0021941D01*
X0015791Y0021716D01*
X0015940Y0021495D01*
X0016094Y0021277D01*
X0016254Y0021063D01*
X0016419Y0020853D01*
X0016589Y0020647D01*
X0016764Y0020445D01*
X0016944Y0020248D01*
X0017128Y0020055D01*
X0017317Y0019866D01*
X0017511Y0019682D01*
X0017709Y0019503D01*
X0017911Y0019328D01*
X0018118Y0019159D01*
X0018328Y0018994D01*
X0018542Y0018835D01*
X0018761Y0018681D01*
X0018982Y0018532D01*
X0019208Y0018389D01*
X0019436Y0018251D01*
X0019668Y0018119D01*
X0019904Y0017992D01*
X0020142Y0017871D01*
X0020383Y0017756D01*
X0020626Y0017646D01*
X0020873Y0017543D01*
X0021121Y0017446D01*
X0021372Y0017354D01*
X0021625Y0017269D01*
X0021880Y0017190D01*
X0022137Y0017117D01*
X0022396Y0017050D01*
X0022656Y0016990D01*
X0022918Y0016935D01*
X0023180Y0016888D01*
X0023444Y0016846D01*
X0023709Y0016811D01*
X0023974Y0016782D01*
X0024241Y0016760D01*
X0195895Y0016761D02*
X0196204Y0016741D01*
X0196514Y0016728D01*
X0196824Y0016723D01*
X0197134Y0016726D01*
X0197444Y0016735D01*
X0197754Y0016753D01*
X0198063Y0016778D01*
X0198371Y0016810D01*
X0198679Y0016850D01*
X0198985Y0016897D01*
X0199291Y0016952D01*
X0199595Y0017014D01*
X0199897Y0017083D01*
X0200197Y0017159D01*
X0200496Y0017243D01*
X0200792Y0017334D01*
X0201087Y0017432D01*
X0201378Y0017538D01*
X0201667Y0017650D01*
X0201954Y0017769D01*
X0202237Y0017895D01*
X0202517Y0018028D01*
X0202794Y0018168D01*
X0203068Y0018314D01*
X0203337Y0018467D01*
X0203604Y0018626D01*
X0203866Y0018792D01*
X0204124Y0018964D01*
X0204378Y0019142D01*
X0204627Y0019326D01*
X0204872Y0019516D01*
X0205112Y0019712D01*
X0205348Y0019914D01*
X0205578Y0020122D01*
X0205804Y0020334D01*
X0206024Y0020553D01*
X0206239Y0020776D01*
X0206448Y0021005D01*
X0206652Y0021239D01*
X0206850Y0021477D01*
X0207042Y0021721D01*
X0207229Y0021969D01*
X0207409Y0022221D01*
X0207583Y0022478D01*
X0207751Y0022738D01*
X0207913Y0023003D01*
X0208068Y0023272D01*
X0208216Y0023544D01*
X0208358Y0023819D01*
X0208494Y0024098D01*
X0208622Y0024381D01*
X0208744Y0024666D01*
X0208859Y0024954D01*
X0208966Y0025245D01*
X0209067Y0025538D01*
X0209160Y0025834D01*
X0209247Y0026132D01*
X0209326Y0026432D01*
X0209398Y0026733D01*
X0209462Y0027037D01*
X0209519Y0027341D01*
X0209569Y0027648D01*
X0209612Y0027955D01*
X0209647Y0028263D01*
X0209674Y0028572D01*
D11*
X0135363Y0102056D02*
X0135365Y0102193D01*
X0135371Y0102331D01*
X0135381Y0102468D01*
X0135395Y0102604D01*
X0135413Y0102741D01*
X0135435Y0102876D01*
X0135461Y0103011D01*
X0135490Y0103145D01*
X0135524Y0103279D01*
X0135561Y0103411D01*
X0135603Y0103542D01*
X0135648Y0103672D01*
X0135697Y0103800D01*
X0135749Y0103927D01*
X0135806Y0104052D01*
X0135865Y0104176D01*
X0135929Y0104298D01*
X0135996Y0104418D01*
X0136066Y0104536D01*
X0136140Y0104652D01*
X0136217Y0104766D01*
X0136298Y0104877D01*
X0136381Y0104986D01*
X0136468Y0105093D01*
X0136558Y0105196D01*
X0136651Y0105298D01*
X0136747Y0105396D01*
X0136845Y0105492D01*
X0136947Y0105585D01*
X0137050Y0105675D01*
X0137157Y0105762D01*
X0137266Y0105845D01*
X0137377Y0105926D01*
X0137491Y0106003D01*
X0137607Y0106077D01*
X0137725Y0106147D01*
X0137845Y0106214D01*
X0137967Y0106278D01*
X0138091Y0106337D01*
X0138216Y0106394D01*
X0138343Y0106446D01*
X0138471Y0106495D01*
X0138601Y0106540D01*
X0138732Y0106582D01*
X0138864Y0106619D01*
X0138998Y0106653D01*
X0139132Y0106682D01*
X0139267Y0106708D01*
X0139402Y0106730D01*
X0139539Y0106748D01*
X0139675Y0106762D01*
X0139812Y0106772D01*
X0139950Y0106778D01*
X0140087Y0106780D01*
X0140224Y0106778D01*
X0140362Y0106772D01*
X0140499Y0106762D01*
X0140635Y0106748D01*
X0140772Y0106730D01*
X0140907Y0106708D01*
X0141042Y0106682D01*
X0141176Y0106653D01*
X0141310Y0106619D01*
X0141442Y0106582D01*
X0141573Y0106540D01*
X0141703Y0106495D01*
X0141831Y0106446D01*
X0141958Y0106394D01*
X0142083Y0106337D01*
X0142207Y0106278D01*
X0142329Y0106214D01*
X0142449Y0106147D01*
X0142567Y0106077D01*
X0142683Y0106003D01*
X0142797Y0105926D01*
X0142908Y0105845D01*
X0143017Y0105762D01*
X0143124Y0105675D01*
X0143227Y0105585D01*
X0143329Y0105492D01*
X0143427Y0105396D01*
X0143523Y0105298D01*
X0143616Y0105196D01*
X0143706Y0105093D01*
X0143793Y0104986D01*
X0143876Y0104877D01*
X0143957Y0104766D01*
X0144034Y0104652D01*
X0144108Y0104536D01*
X0144178Y0104418D01*
X0144245Y0104298D01*
X0144309Y0104176D01*
X0144368Y0104052D01*
X0144425Y0103927D01*
X0144477Y0103800D01*
X0144526Y0103672D01*
X0144571Y0103542D01*
X0144613Y0103411D01*
X0144650Y0103279D01*
X0144684Y0103145D01*
X0144713Y0103011D01*
X0144739Y0102876D01*
X0144761Y0102741D01*
X0144779Y0102604D01*
X0144793Y0102468D01*
X0144803Y0102331D01*
X0144809Y0102193D01*
X0144811Y0102056D01*
X0144809Y0101919D01*
X0144803Y0101781D01*
X0144793Y0101644D01*
X0144779Y0101508D01*
X0144761Y0101371D01*
X0144739Y0101236D01*
X0144713Y0101101D01*
X0144684Y0100967D01*
X0144650Y0100833D01*
X0144613Y0100701D01*
X0144571Y0100570D01*
X0144526Y0100440D01*
X0144477Y0100312D01*
X0144425Y0100185D01*
X0144368Y0100060D01*
X0144309Y0099936D01*
X0144245Y0099814D01*
X0144178Y0099694D01*
X0144108Y0099576D01*
X0144034Y0099460D01*
X0143957Y0099346D01*
X0143876Y0099235D01*
X0143793Y0099126D01*
X0143706Y0099019D01*
X0143616Y0098916D01*
X0143523Y0098814D01*
X0143427Y0098716D01*
X0143329Y0098620D01*
X0143227Y0098527D01*
X0143124Y0098437D01*
X0143017Y0098350D01*
X0142908Y0098267D01*
X0142797Y0098186D01*
X0142683Y0098109D01*
X0142567Y0098035D01*
X0142449Y0097965D01*
X0142329Y0097898D01*
X0142207Y0097834D01*
X0142083Y0097775D01*
X0141958Y0097718D01*
X0141831Y0097666D01*
X0141703Y0097617D01*
X0141573Y0097572D01*
X0141442Y0097530D01*
X0141310Y0097493D01*
X0141176Y0097459D01*
X0141042Y0097430D01*
X0140907Y0097404D01*
X0140772Y0097382D01*
X0140635Y0097364D01*
X0140499Y0097350D01*
X0140362Y0097340D01*
X0140224Y0097334D01*
X0140087Y0097332D01*
X0139950Y0097334D01*
X0139812Y0097340D01*
X0139675Y0097350D01*
X0139539Y0097364D01*
X0139402Y0097382D01*
X0139267Y0097404D01*
X0139132Y0097430D01*
X0138998Y0097459D01*
X0138864Y0097493D01*
X0138732Y0097530D01*
X0138601Y0097572D01*
X0138471Y0097617D01*
X0138343Y0097666D01*
X0138216Y0097718D01*
X0138091Y0097775D01*
X0137967Y0097834D01*
X0137845Y0097898D01*
X0137725Y0097965D01*
X0137607Y0098035D01*
X0137491Y0098109D01*
X0137377Y0098186D01*
X0137266Y0098267D01*
X0137157Y0098350D01*
X0137050Y0098437D01*
X0136947Y0098527D01*
X0136845Y0098620D01*
X0136747Y0098716D01*
X0136651Y0098814D01*
X0136558Y0098916D01*
X0136468Y0099019D01*
X0136381Y0099126D01*
X0136298Y0099235D01*
X0136217Y0099346D01*
X0136140Y0099460D01*
X0136066Y0099576D01*
X0135996Y0099694D01*
X0135929Y0099814D01*
X0135865Y0099936D01*
X0135806Y0100060D01*
X0135749Y0100185D01*
X0135697Y0100312D01*
X0135648Y0100440D01*
X0135603Y0100570D01*
X0135561Y0100701D01*
X0135524Y0100833D01*
X0135490Y0100967D01*
X0135461Y0101101D01*
X0135435Y0101236D01*
X0135413Y0101371D01*
X0135395Y0101508D01*
X0135381Y0101644D01*
X0135371Y0101781D01*
X0135365Y0101919D01*
X0135363Y0102056D01*
X0119773Y0102056D02*
X0119775Y0102193D01*
X0119781Y0102331D01*
X0119791Y0102468D01*
X0119805Y0102604D01*
X0119823Y0102741D01*
X0119845Y0102876D01*
X0119871Y0103011D01*
X0119900Y0103145D01*
X0119934Y0103279D01*
X0119971Y0103411D01*
X0120013Y0103542D01*
X0120058Y0103672D01*
X0120107Y0103800D01*
X0120159Y0103927D01*
X0120216Y0104052D01*
X0120275Y0104176D01*
X0120339Y0104298D01*
X0120406Y0104418D01*
X0120476Y0104536D01*
X0120550Y0104652D01*
X0120627Y0104766D01*
X0120708Y0104877D01*
X0120791Y0104986D01*
X0120878Y0105093D01*
X0120968Y0105196D01*
X0121061Y0105298D01*
X0121157Y0105396D01*
X0121255Y0105492D01*
X0121357Y0105585D01*
X0121460Y0105675D01*
X0121567Y0105762D01*
X0121676Y0105845D01*
X0121787Y0105926D01*
X0121901Y0106003D01*
X0122017Y0106077D01*
X0122135Y0106147D01*
X0122255Y0106214D01*
X0122377Y0106278D01*
X0122501Y0106337D01*
X0122626Y0106394D01*
X0122753Y0106446D01*
X0122881Y0106495D01*
X0123011Y0106540D01*
X0123142Y0106582D01*
X0123274Y0106619D01*
X0123408Y0106653D01*
X0123542Y0106682D01*
X0123677Y0106708D01*
X0123812Y0106730D01*
X0123949Y0106748D01*
X0124085Y0106762D01*
X0124222Y0106772D01*
X0124360Y0106778D01*
X0124497Y0106780D01*
X0124634Y0106778D01*
X0124772Y0106772D01*
X0124909Y0106762D01*
X0125045Y0106748D01*
X0125182Y0106730D01*
X0125317Y0106708D01*
X0125452Y0106682D01*
X0125586Y0106653D01*
X0125720Y0106619D01*
X0125852Y0106582D01*
X0125983Y0106540D01*
X0126113Y0106495D01*
X0126241Y0106446D01*
X0126368Y0106394D01*
X0126493Y0106337D01*
X0126617Y0106278D01*
X0126739Y0106214D01*
X0126859Y0106147D01*
X0126977Y0106077D01*
X0127093Y0106003D01*
X0127207Y0105926D01*
X0127318Y0105845D01*
X0127427Y0105762D01*
X0127534Y0105675D01*
X0127637Y0105585D01*
X0127739Y0105492D01*
X0127837Y0105396D01*
X0127933Y0105298D01*
X0128026Y0105196D01*
X0128116Y0105093D01*
X0128203Y0104986D01*
X0128286Y0104877D01*
X0128367Y0104766D01*
X0128444Y0104652D01*
X0128518Y0104536D01*
X0128588Y0104418D01*
X0128655Y0104298D01*
X0128719Y0104176D01*
X0128778Y0104052D01*
X0128835Y0103927D01*
X0128887Y0103800D01*
X0128936Y0103672D01*
X0128981Y0103542D01*
X0129023Y0103411D01*
X0129060Y0103279D01*
X0129094Y0103145D01*
X0129123Y0103011D01*
X0129149Y0102876D01*
X0129171Y0102741D01*
X0129189Y0102604D01*
X0129203Y0102468D01*
X0129213Y0102331D01*
X0129219Y0102193D01*
X0129221Y0102056D01*
X0129219Y0101919D01*
X0129213Y0101781D01*
X0129203Y0101644D01*
X0129189Y0101508D01*
X0129171Y0101371D01*
X0129149Y0101236D01*
X0129123Y0101101D01*
X0129094Y0100967D01*
X0129060Y0100833D01*
X0129023Y0100701D01*
X0128981Y0100570D01*
X0128936Y0100440D01*
X0128887Y0100312D01*
X0128835Y0100185D01*
X0128778Y0100060D01*
X0128719Y0099936D01*
X0128655Y0099814D01*
X0128588Y0099694D01*
X0128518Y0099576D01*
X0128444Y0099460D01*
X0128367Y0099346D01*
X0128286Y0099235D01*
X0128203Y0099126D01*
X0128116Y0099019D01*
X0128026Y0098916D01*
X0127933Y0098814D01*
X0127837Y0098716D01*
X0127739Y0098620D01*
X0127637Y0098527D01*
X0127534Y0098437D01*
X0127427Y0098350D01*
X0127318Y0098267D01*
X0127207Y0098186D01*
X0127093Y0098109D01*
X0126977Y0098035D01*
X0126859Y0097965D01*
X0126739Y0097898D01*
X0126617Y0097834D01*
X0126493Y0097775D01*
X0126368Y0097718D01*
X0126241Y0097666D01*
X0126113Y0097617D01*
X0125983Y0097572D01*
X0125852Y0097530D01*
X0125720Y0097493D01*
X0125586Y0097459D01*
X0125452Y0097430D01*
X0125317Y0097404D01*
X0125182Y0097382D01*
X0125045Y0097364D01*
X0124909Y0097350D01*
X0124772Y0097340D01*
X0124634Y0097334D01*
X0124497Y0097332D01*
X0124360Y0097334D01*
X0124222Y0097340D01*
X0124085Y0097350D01*
X0123949Y0097364D01*
X0123812Y0097382D01*
X0123677Y0097404D01*
X0123542Y0097430D01*
X0123408Y0097459D01*
X0123274Y0097493D01*
X0123142Y0097530D01*
X0123011Y0097572D01*
X0122881Y0097617D01*
X0122753Y0097666D01*
X0122626Y0097718D01*
X0122501Y0097775D01*
X0122377Y0097834D01*
X0122255Y0097898D01*
X0122135Y0097965D01*
X0122017Y0098035D01*
X0121901Y0098109D01*
X0121787Y0098186D01*
X0121676Y0098267D01*
X0121567Y0098350D01*
X0121460Y0098437D01*
X0121357Y0098527D01*
X0121255Y0098620D01*
X0121157Y0098716D01*
X0121061Y0098814D01*
X0120968Y0098916D01*
X0120878Y0099019D01*
X0120791Y0099126D01*
X0120708Y0099235D01*
X0120627Y0099346D01*
X0120550Y0099460D01*
X0120476Y0099576D01*
X0120406Y0099694D01*
X0120339Y0099814D01*
X0120275Y0099936D01*
X0120216Y0100060D01*
X0120159Y0100185D01*
X0120107Y0100312D01*
X0120058Y0100440D01*
X0120013Y0100570D01*
X0119971Y0100701D01*
X0119934Y0100833D01*
X0119900Y0100967D01*
X0119871Y0101101D01*
X0119845Y0101236D01*
X0119823Y0101371D01*
X0119805Y0101508D01*
X0119791Y0101644D01*
X0119781Y0101781D01*
X0119775Y0101919D01*
X0119773Y0102056D01*
X0104182Y0102056D02*
X0104184Y0102193D01*
X0104190Y0102331D01*
X0104200Y0102468D01*
X0104214Y0102604D01*
X0104232Y0102741D01*
X0104254Y0102876D01*
X0104280Y0103011D01*
X0104309Y0103145D01*
X0104343Y0103279D01*
X0104380Y0103411D01*
X0104422Y0103542D01*
X0104467Y0103672D01*
X0104516Y0103800D01*
X0104568Y0103927D01*
X0104625Y0104052D01*
X0104684Y0104176D01*
X0104748Y0104298D01*
X0104815Y0104418D01*
X0104885Y0104536D01*
X0104959Y0104652D01*
X0105036Y0104766D01*
X0105117Y0104877D01*
X0105200Y0104986D01*
X0105287Y0105093D01*
X0105377Y0105196D01*
X0105470Y0105298D01*
X0105566Y0105396D01*
X0105664Y0105492D01*
X0105766Y0105585D01*
X0105869Y0105675D01*
X0105976Y0105762D01*
X0106085Y0105845D01*
X0106196Y0105926D01*
X0106310Y0106003D01*
X0106426Y0106077D01*
X0106544Y0106147D01*
X0106664Y0106214D01*
X0106786Y0106278D01*
X0106910Y0106337D01*
X0107035Y0106394D01*
X0107162Y0106446D01*
X0107290Y0106495D01*
X0107420Y0106540D01*
X0107551Y0106582D01*
X0107683Y0106619D01*
X0107817Y0106653D01*
X0107951Y0106682D01*
X0108086Y0106708D01*
X0108221Y0106730D01*
X0108358Y0106748D01*
X0108494Y0106762D01*
X0108631Y0106772D01*
X0108769Y0106778D01*
X0108906Y0106780D01*
X0109043Y0106778D01*
X0109181Y0106772D01*
X0109318Y0106762D01*
X0109454Y0106748D01*
X0109591Y0106730D01*
X0109726Y0106708D01*
X0109861Y0106682D01*
X0109995Y0106653D01*
X0110129Y0106619D01*
X0110261Y0106582D01*
X0110392Y0106540D01*
X0110522Y0106495D01*
X0110650Y0106446D01*
X0110777Y0106394D01*
X0110902Y0106337D01*
X0111026Y0106278D01*
X0111148Y0106214D01*
X0111268Y0106147D01*
X0111386Y0106077D01*
X0111502Y0106003D01*
X0111616Y0105926D01*
X0111727Y0105845D01*
X0111836Y0105762D01*
X0111943Y0105675D01*
X0112046Y0105585D01*
X0112148Y0105492D01*
X0112246Y0105396D01*
X0112342Y0105298D01*
X0112435Y0105196D01*
X0112525Y0105093D01*
X0112612Y0104986D01*
X0112695Y0104877D01*
X0112776Y0104766D01*
X0112853Y0104652D01*
X0112927Y0104536D01*
X0112997Y0104418D01*
X0113064Y0104298D01*
X0113128Y0104176D01*
X0113187Y0104052D01*
X0113244Y0103927D01*
X0113296Y0103800D01*
X0113345Y0103672D01*
X0113390Y0103542D01*
X0113432Y0103411D01*
X0113469Y0103279D01*
X0113503Y0103145D01*
X0113532Y0103011D01*
X0113558Y0102876D01*
X0113580Y0102741D01*
X0113598Y0102604D01*
X0113612Y0102468D01*
X0113622Y0102331D01*
X0113628Y0102193D01*
X0113630Y0102056D01*
X0113628Y0101919D01*
X0113622Y0101781D01*
X0113612Y0101644D01*
X0113598Y0101508D01*
X0113580Y0101371D01*
X0113558Y0101236D01*
X0113532Y0101101D01*
X0113503Y0100967D01*
X0113469Y0100833D01*
X0113432Y0100701D01*
X0113390Y0100570D01*
X0113345Y0100440D01*
X0113296Y0100312D01*
X0113244Y0100185D01*
X0113187Y0100060D01*
X0113128Y0099936D01*
X0113064Y0099814D01*
X0112997Y0099694D01*
X0112927Y0099576D01*
X0112853Y0099460D01*
X0112776Y0099346D01*
X0112695Y0099235D01*
X0112612Y0099126D01*
X0112525Y0099019D01*
X0112435Y0098916D01*
X0112342Y0098814D01*
X0112246Y0098716D01*
X0112148Y0098620D01*
X0112046Y0098527D01*
X0111943Y0098437D01*
X0111836Y0098350D01*
X0111727Y0098267D01*
X0111616Y0098186D01*
X0111502Y0098109D01*
X0111386Y0098035D01*
X0111268Y0097965D01*
X0111148Y0097898D01*
X0111026Y0097834D01*
X0110902Y0097775D01*
X0110777Y0097718D01*
X0110650Y0097666D01*
X0110522Y0097617D01*
X0110392Y0097572D01*
X0110261Y0097530D01*
X0110129Y0097493D01*
X0109995Y0097459D01*
X0109861Y0097430D01*
X0109726Y0097404D01*
X0109591Y0097382D01*
X0109454Y0097364D01*
X0109318Y0097350D01*
X0109181Y0097340D01*
X0109043Y0097334D01*
X0108906Y0097332D01*
X0108769Y0097334D01*
X0108631Y0097340D01*
X0108494Y0097350D01*
X0108358Y0097364D01*
X0108221Y0097382D01*
X0108086Y0097404D01*
X0107951Y0097430D01*
X0107817Y0097459D01*
X0107683Y0097493D01*
X0107551Y0097530D01*
X0107420Y0097572D01*
X0107290Y0097617D01*
X0107162Y0097666D01*
X0107035Y0097718D01*
X0106910Y0097775D01*
X0106786Y0097834D01*
X0106664Y0097898D01*
X0106544Y0097965D01*
X0106426Y0098035D01*
X0106310Y0098109D01*
X0106196Y0098186D01*
X0106085Y0098267D01*
X0105976Y0098350D01*
X0105869Y0098437D01*
X0105766Y0098527D01*
X0105664Y0098620D01*
X0105566Y0098716D01*
X0105470Y0098814D01*
X0105377Y0098916D01*
X0105287Y0099019D01*
X0105200Y0099126D01*
X0105117Y0099235D01*
X0105036Y0099346D01*
X0104959Y0099460D01*
X0104885Y0099576D01*
X0104815Y0099694D01*
X0104748Y0099814D01*
X0104684Y0099936D01*
X0104625Y0100060D01*
X0104568Y0100185D01*
X0104516Y0100312D01*
X0104467Y0100440D01*
X0104422Y0100570D01*
X0104380Y0100701D01*
X0104343Y0100833D01*
X0104309Y0100967D01*
X0104280Y0101101D01*
X0104254Y0101236D01*
X0104232Y0101371D01*
X0104214Y0101508D01*
X0104200Y0101644D01*
X0104190Y0101781D01*
X0104184Y0101919D01*
X0104182Y0102056D01*
X0088592Y0102056D02*
X0088594Y0102193D01*
X0088600Y0102331D01*
X0088610Y0102468D01*
X0088624Y0102604D01*
X0088642Y0102741D01*
X0088664Y0102876D01*
X0088690Y0103011D01*
X0088719Y0103145D01*
X0088753Y0103279D01*
X0088790Y0103411D01*
X0088832Y0103542D01*
X0088877Y0103672D01*
X0088926Y0103800D01*
X0088978Y0103927D01*
X0089035Y0104052D01*
X0089094Y0104176D01*
X0089158Y0104298D01*
X0089225Y0104418D01*
X0089295Y0104536D01*
X0089369Y0104652D01*
X0089446Y0104766D01*
X0089527Y0104877D01*
X0089610Y0104986D01*
X0089697Y0105093D01*
X0089787Y0105196D01*
X0089880Y0105298D01*
X0089976Y0105396D01*
X0090074Y0105492D01*
X0090176Y0105585D01*
X0090279Y0105675D01*
X0090386Y0105762D01*
X0090495Y0105845D01*
X0090606Y0105926D01*
X0090720Y0106003D01*
X0090836Y0106077D01*
X0090954Y0106147D01*
X0091074Y0106214D01*
X0091196Y0106278D01*
X0091320Y0106337D01*
X0091445Y0106394D01*
X0091572Y0106446D01*
X0091700Y0106495D01*
X0091830Y0106540D01*
X0091961Y0106582D01*
X0092093Y0106619D01*
X0092227Y0106653D01*
X0092361Y0106682D01*
X0092496Y0106708D01*
X0092631Y0106730D01*
X0092768Y0106748D01*
X0092904Y0106762D01*
X0093041Y0106772D01*
X0093179Y0106778D01*
X0093316Y0106780D01*
X0093453Y0106778D01*
X0093591Y0106772D01*
X0093728Y0106762D01*
X0093864Y0106748D01*
X0094001Y0106730D01*
X0094136Y0106708D01*
X0094271Y0106682D01*
X0094405Y0106653D01*
X0094539Y0106619D01*
X0094671Y0106582D01*
X0094802Y0106540D01*
X0094932Y0106495D01*
X0095060Y0106446D01*
X0095187Y0106394D01*
X0095312Y0106337D01*
X0095436Y0106278D01*
X0095558Y0106214D01*
X0095678Y0106147D01*
X0095796Y0106077D01*
X0095912Y0106003D01*
X0096026Y0105926D01*
X0096137Y0105845D01*
X0096246Y0105762D01*
X0096353Y0105675D01*
X0096456Y0105585D01*
X0096558Y0105492D01*
X0096656Y0105396D01*
X0096752Y0105298D01*
X0096845Y0105196D01*
X0096935Y0105093D01*
X0097022Y0104986D01*
X0097105Y0104877D01*
X0097186Y0104766D01*
X0097263Y0104652D01*
X0097337Y0104536D01*
X0097407Y0104418D01*
X0097474Y0104298D01*
X0097538Y0104176D01*
X0097597Y0104052D01*
X0097654Y0103927D01*
X0097706Y0103800D01*
X0097755Y0103672D01*
X0097800Y0103542D01*
X0097842Y0103411D01*
X0097879Y0103279D01*
X0097913Y0103145D01*
X0097942Y0103011D01*
X0097968Y0102876D01*
X0097990Y0102741D01*
X0098008Y0102604D01*
X0098022Y0102468D01*
X0098032Y0102331D01*
X0098038Y0102193D01*
X0098040Y0102056D01*
X0098038Y0101919D01*
X0098032Y0101781D01*
X0098022Y0101644D01*
X0098008Y0101508D01*
X0097990Y0101371D01*
X0097968Y0101236D01*
X0097942Y0101101D01*
X0097913Y0100967D01*
X0097879Y0100833D01*
X0097842Y0100701D01*
X0097800Y0100570D01*
X0097755Y0100440D01*
X0097706Y0100312D01*
X0097654Y0100185D01*
X0097597Y0100060D01*
X0097538Y0099936D01*
X0097474Y0099814D01*
X0097407Y0099694D01*
X0097337Y0099576D01*
X0097263Y0099460D01*
X0097186Y0099346D01*
X0097105Y0099235D01*
X0097022Y0099126D01*
X0096935Y0099019D01*
X0096845Y0098916D01*
X0096752Y0098814D01*
X0096656Y0098716D01*
X0096558Y0098620D01*
X0096456Y0098527D01*
X0096353Y0098437D01*
X0096246Y0098350D01*
X0096137Y0098267D01*
X0096026Y0098186D01*
X0095912Y0098109D01*
X0095796Y0098035D01*
X0095678Y0097965D01*
X0095558Y0097898D01*
X0095436Y0097834D01*
X0095312Y0097775D01*
X0095187Y0097718D01*
X0095060Y0097666D01*
X0094932Y0097617D01*
X0094802Y0097572D01*
X0094671Y0097530D01*
X0094539Y0097493D01*
X0094405Y0097459D01*
X0094271Y0097430D01*
X0094136Y0097404D01*
X0094001Y0097382D01*
X0093864Y0097364D01*
X0093728Y0097350D01*
X0093591Y0097340D01*
X0093453Y0097334D01*
X0093316Y0097332D01*
X0093179Y0097334D01*
X0093041Y0097340D01*
X0092904Y0097350D01*
X0092768Y0097364D01*
X0092631Y0097382D01*
X0092496Y0097404D01*
X0092361Y0097430D01*
X0092227Y0097459D01*
X0092093Y0097493D01*
X0091961Y0097530D01*
X0091830Y0097572D01*
X0091700Y0097617D01*
X0091572Y0097666D01*
X0091445Y0097718D01*
X0091320Y0097775D01*
X0091196Y0097834D01*
X0091074Y0097898D01*
X0090954Y0097965D01*
X0090836Y0098035D01*
X0090720Y0098109D01*
X0090606Y0098186D01*
X0090495Y0098267D01*
X0090386Y0098350D01*
X0090279Y0098437D01*
X0090176Y0098527D01*
X0090074Y0098620D01*
X0089976Y0098716D01*
X0089880Y0098814D01*
X0089787Y0098916D01*
X0089697Y0099019D01*
X0089610Y0099126D01*
X0089527Y0099235D01*
X0089446Y0099346D01*
X0089369Y0099460D01*
X0089295Y0099576D01*
X0089225Y0099694D01*
X0089158Y0099814D01*
X0089094Y0099936D01*
X0089035Y0100060D01*
X0088978Y0100185D01*
X0088926Y0100312D01*
X0088877Y0100440D01*
X0088832Y0100570D01*
X0088790Y0100701D01*
X0088753Y0100833D01*
X0088719Y0100967D01*
X0088690Y0101101D01*
X0088664Y0101236D01*
X0088642Y0101371D01*
X0088624Y0101508D01*
X0088610Y0101644D01*
X0088600Y0101781D01*
X0088594Y0101919D01*
X0088592Y0102056D01*
X0073001Y0102056D02*
X0073003Y0102193D01*
X0073009Y0102331D01*
X0073019Y0102468D01*
X0073033Y0102604D01*
X0073051Y0102741D01*
X0073073Y0102876D01*
X0073099Y0103011D01*
X0073128Y0103145D01*
X0073162Y0103279D01*
X0073199Y0103411D01*
X0073241Y0103542D01*
X0073286Y0103672D01*
X0073335Y0103800D01*
X0073387Y0103927D01*
X0073444Y0104052D01*
X0073503Y0104176D01*
X0073567Y0104298D01*
X0073634Y0104418D01*
X0073704Y0104536D01*
X0073778Y0104652D01*
X0073855Y0104766D01*
X0073936Y0104877D01*
X0074019Y0104986D01*
X0074106Y0105093D01*
X0074196Y0105196D01*
X0074289Y0105298D01*
X0074385Y0105396D01*
X0074483Y0105492D01*
X0074585Y0105585D01*
X0074688Y0105675D01*
X0074795Y0105762D01*
X0074904Y0105845D01*
X0075015Y0105926D01*
X0075129Y0106003D01*
X0075245Y0106077D01*
X0075363Y0106147D01*
X0075483Y0106214D01*
X0075605Y0106278D01*
X0075729Y0106337D01*
X0075854Y0106394D01*
X0075981Y0106446D01*
X0076109Y0106495D01*
X0076239Y0106540D01*
X0076370Y0106582D01*
X0076502Y0106619D01*
X0076636Y0106653D01*
X0076770Y0106682D01*
X0076905Y0106708D01*
X0077040Y0106730D01*
X0077177Y0106748D01*
X0077313Y0106762D01*
X0077450Y0106772D01*
X0077588Y0106778D01*
X0077725Y0106780D01*
X0077862Y0106778D01*
X0078000Y0106772D01*
X0078137Y0106762D01*
X0078273Y0106748D01*
X0078410Y0106730D01*
X0078545Y0106708D01*
X0078680Y0106682D01*
X0078814Y0106653D01*
X0078948Y0106619D01*
X0079080Y0106582D01*
X0079211Y0106540D01*
X0079341Y0106495D01*
X0079469Y0106446D01*
X0079596Y0106394D01*
X0079721Y0106337D01*
X0079845Y0106278D01*
X0079967Y0106214D01*
X0080087Y0106147D01*
X0080205Y0106077D01*
X0080321Y0106003D01*
X0080435Y0105926D01*
X0080546Y0105845D01*
X0080655Y0105762D01*
X0080762Y0105675D01*
X0080865Y0105585D01*
X0080967Y0105492D01*
X0081065Y0105396D01*
X0081161Y0105298D01*
X0081254Y0105196D01*
X0081344Y0105093D01*
X0081431Y0104986D01*
X0081514Y0104877D01*
X0081595Y0104766D01*
X0081672Y0104652D01*
X0081746Y0104536D01*
X0081816Y0104418D01*
X0081883Y0104298D01*
X0081947Y0104176D01*
X0082006Y0104052D01*
X0082063Y0103927D01*
X0082115Y0103800D01*
X0082164Y0103672D01*
X0082209Y0103542D01*
X0082251Y0103411D01*
X0082288Y0103279D01*
X0082322Y0103145D01*
X0082351Y0103011D01*
X0082377Y0102876D01*
X0082399Y0102741D01*
X0082417Y0102604D01*
X0082431Y0102468D01*
X0082441Y0102331D01*
X0082447Y0102193D01*
X0082449Y0102056D01*
X0082447Y0101919D01*
X0082441Y0101781D01*
X0082431Y0101644D01*
X0082417Y0101508D01*
X0082399Y0101371D01*
X0082377Y0101236D01*
X0082351Y0101101D01*
X0082322Y0100967D01*
X0082288Y0100833D01*
X0082251Y0100701D01*
X0082209Y0100570D01*
X0082164Y0100440D01*
X0082115Y0100312D01*
X0082063Y0100185D01*
X0082006Y0100060D01*
X0081947Y0099936D01*
X0081883Y0099814D01*
X0081816Y0099694D01*
X0081746Y0099576D01*
X0081672Y0099460D01*
X0081595Y0099346D01*
X0081514Y0099235D01*
X0081431Y0099126D01*
X0081344Y0099019D01*
X0081254Y0098916D01*
X0081161Y0098814D01*
X0081065Y0098716D01*
X0080967Y0098620D01*
X0080865Y0098527D01*
X0080762Y0098437D01*
X0080655Y0098350D01*
X0080546Y0098267D01*
X0080435Y0098186D01*
X0080321Y0098109D01*
X0080205Y0098035D01*
X0080087Y0097965D01*
X0079967Y0097898D01*
X0079845Y0097834D01*
X0079721Y0097775D01*
X0079596Y0097718D01*
X0079469Y0097666D01*
X0079341Y0097617D01*
X0079211Y0097572D01*
X0079080Y0097530D01*
X0078948Y0097493D01*
X0078814Y0097459D01*
X0078680Y0097430D01*
X0078545Y0097404D01*
X0078410Y0097382D01*
X0078273Y0097364D01*
X0078137Y0097350D01*
X0078000Y0097340D01*
X0077862Y0097334D01*
X0077725Y0097332D01*
X0077588Y0097334D01*
X0077450Y0097340D01*
X0077313Y0097350D01*
X0077177Y0097364D01*
X0077040Y0097382D01*
X0076905Y0097404D01*
X0076770Y0097430D01*
X0076636Y0097459D01*
X0076502Y0097493D01*
X0076370Y0097530D01*
X0076239Y0097572D01*
X0076109Y0097617D01*
X0075981Y0097666D01*
X0075854Y0097718D01*
X0075729Y0097775D01*
X0075605Y0097834D01*
X0075483Y0097898D01*
X0075363Y0097965D01*
X0075245Y0098035D01*
X0075129Y0098109D01*
X0075015Y0098186D01*
X0074904Y0098267D01*
X0074795Y0098350D01*
X0074688Y0098437D01*
X0074585Y0098527D01*
X0074483Y0098620D01*
X0074385Y0098716D01*
X0074289Y0098814D01*
X0074196Y0098916D01*
X0074106Y0099019D01*
X0074019Y0099126D01*
X0073936Y0099235D01*
X0073855Y0099346D01*
X0073778Y0099460D01*
X0073704Y0099576D01*
X0073634Y0099694D01*
X0073567Y0099814D01*
X0073503Y0099936D01*
X0073444Y0100060D01*
X0073387Y0100185D01*
X0073335Y0100312D01*
X0073286Y0100440D01*
X0073241Y0100570D01*
X0073199Y0100701D01*
X0073162Y0100833D01*
X0073128Y0100967D01*
X0073099Y0101101D01*
X0073073Y0101236D01*
X0073051Y0101371D01*
X0073033Y0101508D01*
X0073019Y0101644D01*
X0073009Y0101781D01*
X0073003Y0101919D01*
X0073001Y0102056D01*
X0080836Y0023422D02*
X0080838Y0023503D01*
X0080844Y0023585D01*
X0080854Y0023666D01*
X0080868Y0023746D01*
X0080885Y0023825D01*
X0080907Y0023904D01*
X0080932Y0023981D01*
X0080961Y0024058D01*
X0080994Y0024132D01*
X0081031Y0024205D01*
X0081070Y0024276D01*
X0081114Y0024345D01*
X0081160Y0024412D01*
X0081210Y0024476D01*
X0081263Y0024538D01*
X0081319Y0024598D01*
X0081377Y0024654D01*
X0081439Y0024708D01*
X0081503Y0024759D01*
X0081569Y0024806D01*
X0081637Y0024850D01*
X0081708Y0024891D01*
X0081780Y0024928D01*
X0081855Y0024962D01*
X0081930Y0024992D01*
X0082008Y0025018D01*
X0082086Y0025041D01*
X0082165Y0025059D01*
X0082245Y0025074D01*
X0082326Y0025085D01*
X0082407Y0025092D01*
X0082489Y0025095D01*
X0082570Y0025094D01*
X0082651Y0025089D01*
X0082732Y0025080D01*
X0082813Y0025067D01*
X0082893Y0025050D01*
X0082971Y0025030D01*
X0083049Y0025005D01*
X0083126Y0024977D01*
X0083201Y0024945D01*
X0083274Y0024910D01*
X0083345Y0024871D01*
X0083415Y0024828D01*
X0083482Y0024783D01*
X0083548Y0024734D01*
X0083610Y0024682D01*
X0083670Y0024626D01*
X0083727Y0024568D01*
X0083782Y0024508D01*
X0083833Y0024444D01*
X0083881Y0024379D01*
X0083926Y0024311D01*
X0083968Y0024241D01*
X0084006Y0024169D01*
X0084041Y0024095D01*
X0084072Y0024020D01*
X0084099Y0023943D01*
X0084122Y0023865D01*
X0084142Y0023786D01*
X0084158Y0023706D01*
X0084170Y0023625D01*
X0084178Y0023544D01*
X0084182Y0023463D01*
X0084182Y0023381D01*
X0084178Y0023300D01*
X0084170Y0023219D01*
X0084158Y0023138D01*
X0084142Y0023058D01*
X0084122Y0022979D01*
X0084099Y0022901D01*
X0084072Y0022824D01*
X0084041Y0022749D01*
X0084006Y0022675D01*
X0083968Y0022603D01*
X0083926Y0022533D01*
X0083881Y0022465D01*
X0083833Y0022400D01*
X0083782Y0022336D01*
X0083727Y0022276D01*
X0083670Y0022218D01*
X0083610Y0022162D01*
X0083548Y0022110D01*
X0083482Y0022061D01*
X0083415Y0022016D01*
X0083346Y0021973D01*
X0083274Y0021934D01*
X0083201Y0021899D01*
X0083126Y0021867D01*
X0083049Y0021839D01*
X0082971Y0021814D01*
X0082893Y0021794D01*
X0082813Y0021777D01*
X0082732Y0021764D01*
X0082651Y0021755D01*
X0082570Y0021750D01*
X0082489Y0021749D01*
X0082407Y0021752D01*
X0082326Y0021759D01*
X0082245Y0021770D01*
X0082165Y0021785D01*
X0082086Y0021803D01*
X0082008Y0021826D01*
X0081930Y0021852D01*
X0081855Y0021882D01*
X0081780Y0021916D01*
X0081708Y0021953D01*
X0081637Y0021994D01*
X0081569Y0022038D01*
X0081503Y0022085D01*
X0081439Y0022136D01*
X0081377Y0022190D01*
X0081319Y0022246D01*
X0081263Y0022306D01*
X0081210Y0022368D01*
X0081160Y0022432D01*
X0081114Y0022499D01*
X0081070Y0022568D01*
X0081031Y0022639D01*
X0080994Y0022712D01*
X0080961Y0022786D01*
X0080932Y0022863D01*
X0080907Y0022940D01*
X0080885Y0023019D01*
X0080868Y0023098D01*
X0080854Y0023178D01*
X0080844Y0023259D01*
X0080838Y0023341D01*
X0080836Y0023422D01*
X0092647Y0023422D02*
X0092649Y0023503D01*
X0092655Y0023585D01*
X0092665Y0023666D01*
X0092679Y0023746D01*
X0092696Y0023825D01*
X0092718Y0023904D01*
X0092743Y0023981D01*
X0092772Y0024058D01*
X0092805Y0024132D01*
X0092842Y0024205D01*
X0092881Y0024276D01*
X0092925Y0024345D01*
X0092971Y0024412D01*
X0093021Y0024476D01*
X0093074Y0024538D01*
X0093130Y0024598D01*
X0093188Y0024654D01*
X0093250Y0024708D01*
X0093314Y0024759D01*
X0093380Y0024806D01*
X0093448Y0024850D01*
X0093519Y0024891D01*
X0093591Y0024928D01*
X0093666Y0024962D01*
X0093741Y0024992D01*
X0093819Y0025018D01*
X0093897Y0025041D01*
X0093976Y0025059D01*
X0094056Y0025074D01*
X0094137Y0025085D01*
X0094218Y0025092D01*
X0094300Y0025095D01*
X0094381Y0025094D01*
X0094462Y0025089D01*
X0094543Y0025080D01*
X0094624Y0025067D01*
X0094704Y0025050D01*
X0094782Y0025030D01*
X0094860Y0025005D01*
X0094937Y0024977D01*
X0095012Y0024945D01*
X0095085Y0024910D01*
X0095156Y0024871D01*
X0095226Y0024828D01*
X0095293Y0024783D01*
X0095359Y0024734D01*
X0095421Y0024682D01*
X0095481Y0024626D01*
X0095538Y0024568D01*
X0095593Y0024508D01*
X0095644Y0024444D01*
X0095692Y0024379D01*
X0095737Y0024311D01*
X0095779Y0024241D01*
X0095817Y0024169D01*
X0095852Y0024095D01*
X0095883Y0024020D01*
X0095910Y0023943D01*
X0095933Y0023865D01*
X0095953Y0023786D01*
X0095969Y0023706D01*
X0095981Y0023625D01*
X0095989Y0023544D01*
X0095993Y0023463D01*
X0095993Y0023381D01*
X0095989Y0023300D01*
X0095981Y0023219D01*
X0095969Y0023138D01*
X0095953Y0023058D01*
X0095933Y0022979D01*
X0095910Y0022901D01*
X0095883Y0022824D01*
X0095852Y0022749D01*
X0095817Y0022675D01*
X0095779Y0022603D01*
X0095737Y0022533D01*
X0095692Y0022465D01*
X0095644Y0022400D01*
X0095593Y0022336D01*
X0095538Y0022276D01*
X0095481Y0022218D01*
X0095421Y0022162D01*
X0095359Y0022110D01*
X0095293Y0022061D01*
X0095226Y0022016D01*
X0095157Y0021973D01*
X0095085Y0021934D01*
X0095012Y0021899D01*
X0094937Y0021867D01*
X0094860Y0021839D01*
X0094782Y0021814D01*
X0094704Y0021794D01*
X0094624Y0021777D01*
X0094543Y0021764D01*
X0094462Y0021755D01*
X0094381Y0021750D01*
X0094300Y0021749D01*
X0094218Y0021752D01*
X0094137Y0021759D01*
X0094056Y0021770D01*
X0093976Y0021785D01*
X0093897Y0021803D01*
X0093819Y0021826D01*
X0093741Y0021852D01*
X0093666Y0021882D01*
X0093591Y0021916D01*
X0093519Y0021953D01*
X0093448Y0021994D01*
X0093380Y0022038D01*
X0093314Y0022085D01*
X0093250Y0022136D01*
X0093188Y0022190D01*
X0093130Y0022246D01*
X0093074Y0022306D01*
X0093021Y0022368D01*
X0092971Y0022432D01*
X0092925Y0022499D01*
X0092881Y0022568D01*
X0092842Y0022639D01*
X0092805Y0022712D01*
X0092772Y0022786D01*
X0092743Y0022863D01*
X0092718Y0022940D01*
X0092696Y0023019D01*
X0092679Y0023098D01*
X0092665Y0023178D01*
X0092655Y0023259D01*
X0092649Y0023341D01*
X0092647Y0023422D01*
X0191761Y0127391D02*
X0191763Y0127536D01*
X0191769Y0127681D01*
X0191779Y0127826D01*
X0191793Y0127971D01*
X0191811Y0128115D01*
X0191832Y0128258D01*
X0191858Y0128401D01*
X0191887Y0128543D01*
X0191921Y0128685D01*
X0191958Y0128825D01*
X0191999Y0128964D01*
X0192044Y0129102D01*
X0192093Y0129239D01*
X0192145Y0129375D01*
X0192201Y0129509D01*
X0192261Y0129641D01*
X0192324Y0129772D01*
X0192391Y0129900D01*
X0192461Y0130028D01*
X0192535Y0130153D01*
X0192612Y0130276D01*
X0192692Y0130396D01*
X0192776Y0130515D01*
X0192863Y0130631D01*
X0192953Y0130745D01*
X0193046Y0130857D01*
X0193142Y0130965D01*
X0193242Y0131071D01*
X0193343Y0131175D01*
X0193448Y0131275D01*
X0193556Y0131373D01*
X0193666Y0131468D01*
X0193778Y0131559D01*
X0193893Y0131648D01*
X0194011Y0131733D01*
X0194131Y0131815D01*
X0194253Y0131894D01*
X0194377Y0131970D01*
X0194503Y0132042D01*
X0194631Y0132110D01*
X0194761Y0132175D01*
X0194892Y0132237D01*
X0195025Y0132294D01*
X0195160Y0132349D01*
X0195296Y0132399D01*
X0195434Y0132446D01*
X0195572Y0132489D01*
X0195712Y0132528D01*
X0195853Y0132563D01*
X0195995Y0132595D01*
X0196137Y0132622D01*
X0196280Y0132646D01*
X0196424Y0132666D01*
X0196569Y0132682D01*
X0196713Y0132694D01*
X0196858Y0132702D01*
X0197003Y0132706D01*
X0197149Y0132706D01*
X0197294Y0132702D01*
X0197439Y0132694D01*
X0197583Y0132682D01*
X0197728Y0132666D01*
X0197872Y0132646D01*
X0198015Y0132622D01*
X0198157Y0132595D01*
X0198299Y0132563D01*
X0198440Y0132528D01*
X0198580Y0132489D01*
X0198718Y0132446D01*
X0198856Y0132399D01*
X0198992Y0132349D01*
X0199127Y0132294D01*
X0199260Y0132237D01*
X0199391Y0132175D01*
X0199521Y0132110D01*
X0199649Y0132042D01*
X0199775Y0131970D01*
X0199899Y0131894D01*
X0200021Y0131815D01*
X0200141Y0131733D01*
X0200259Y0131648D01*
X0200374Y0131559D01*
X0200486Y0131468D01*
X0200596Y0131373D01*
X0200704Y0131275D01*
X0200809Y0131175D01*
X0200910Y0131071D01*
X0201010Y0130965D01*
X0201106Y0130857D01*
X0201199Y0130745D01*
X0201289Y0130631D01*
X0201376Y0130515D01*
X0201460Y0130396D01*
X0201540Y0130276D01*
X0201617Y0130153D01*
X0201691Y0130028D01*
X0201761Y0129900D01*
X0201828Y0129772D01*
X0201891Y0129641D01*
X0201951Y0129509D01*
X0202007Y0129375D01*
X0202059Y0129239D01*
X0202108Y0129102D01*
X0202153Y0128964D01*
X0202194Y0128825D01*
X0202231Y0128685D01*
X0202265Y0128543D01*
X0202294Y0128401D01*
X0202320Y0128258D01*
X0202341Y0128115D01*
X0202359Y0127971D01*
X0202373Y0127826D01*
X0202383Y0127681D01*
X0202389Y0127536D01*
X0202391Y0127391D01*
X0202389Y0127246D01*
X0202383Y0127101D01*
X0202373Y0126956D01*
X0202359Y0126811D01*
X0202341Y0126667D01*
X0202320Y0126524D01*
X0202294Y0126381D01*
X0202265Y0126239D01*
X0202231Y0126097D01*
X0202194Y0125957D01*
X0202153Y0125818D01*
X0202108Y0125680D01*
X0202059Y0125543D01*
X0202007Y0125407D01*
X0201951Y0125273D01*
X0201891Y0125141D01*
X0201828Y0125010D01*
X0201761Y0124882D01*
X0201691Y0124754D01*
X0201617Y0124629D01*
X0201540Y0124506D01*
X0201460Y0124386D01*
X0201376Y0124267D01*
X0201289Y0124151D01*
X0201199Y0124037D01*
X0201106Y0123925D01*
X0201010Y0123817D01*
X0200910Y0123711D01*
X0200809Y0123607D01*
X0200704Y0123507D01*
X0200596Y0123409D01*
X0200486Y0123314D01*
X0200374Y0123223D01*
X0200259Y0123134D01*
X0200141Y0123049D01*
X0200021Y0122967D01*
X0199899Y0122888D01*
X0199775Y0122812D01*
X0199649Y0122740D01*
X0199521Y0122672D01*
X0199391Y0122607D01*
X0199260Y0122545D01*
X0199127Y0122488D01*
X0198992Y0122433D01*
X0198856Y0122383D01*
X0198718Y0122336D01*
X0198580Y0122293D01*
X0198440Y0122254D01*
X0198299Y0122219D01*
X0198157Y0122187D01*
X0198015Y0122160D01*
X0197872Y0122136D01*
X0197728Y0122116D01*
X0197583Y0122100D01*
X0197439Y0122088D01*
X0197294Y0122080D01*
X0197149Y0122076D01*
X0197003Y0122076D01*
X0196858Y0122080D01*
X0196713Y0122088D01*
X0196569Y0122100D01*
X0196424Y0122116D01*
X0196280Y0122136D01*
X0196137Y0122160D01*
X0195995Y0122187D01*
X0195853Y0122219D01*
X0195712Y0122254D01*
X0195572Y0122293D01*
X0195434Y0122336D01*
X0195296Y0122383D01*
X0195160Y0122433D01*
X0195025Y0122488D01*
X0194892Y0122545D01*
X0194761Y0122607D01*
X0194631Y0122672D01*
X0194503Y0122740D01*
X0194377Y0122812D01*
X0194253Y0122888D01*
X0194131Y0122967D01*
X0194011Y0123049D01*
X0193893Y0123134D01*
X0193778Y0123223D01*
X0193666Y0123314D01*
X0193556Y0123409D01*
X0193448Y0123507D01*
X0193343Y0123607D01*
X0193242Y0123711D01*
X0193142Y0123817D01*
X0193046Y0123925D01*
X0192953Y0124037D01*
X0192863Y0124151D01*
X0192776Y0124267D01*
X0192692Y0124386D01*
X0192612Y0124506D01*
X0192535Y0124629D01*
X0192461Y0124754D01*
X0192391Y0124882D01*
X0192324Y0125010D01*
X0192261Y0125141D01*
X0192201Y0125273D01*
X0192145Y0125407D01*
X0192093Y0125543D01*
X0192044Y0125680D01*
X0191999Y0125818D01*
X0191958Y0125957D01*
X0191921Y0126097D01*
X0191887Y0126239D01*
X0191858Y0126381D01*
X0191832Y0126524D01*
X0191811Y0126667D01*
X0191793Y0126811D01*
X0191779Y0126956D01*
X0191769Y0127101D01*
X0191763Y0127246D01*
X0191761Y0127391D01*
X0153965Y0135265D02*
X0153967Y0135416D01*
X0153973Y0135566D01*
X0153983Y0135717D01*
X0153997Y0135867D01*
X0154015Y0136016D01*
X0154036Y0136166D01*
X0154062Y0136314D01*
X0154092Y0136462D01*
X0154125Y0136609D01*
X0154163Y0136755D01*
X0154204Y0136900D01*
X0154249Y0137044D01*
X0154298Y0137186D01*
X0154351Y0137327D01*
X0154407Y0137467D01*
X0154467Y0137605D01*
X0154530Y0137742D01*
X0154598Y0137877D01*
X0154668Y0138010D01*
X0154742Y0138141D01*
X0154820Y0138270D01*
X0154901Y0138397D01*
X0154985Y0138522D01*
X0155073Y0138645D01*
X0155164Y0138765D01*
X0155258Y0138883D01*
X0155355Y0138998D01*
X0155455Y0139111D01*
X0155558Y0139221D01*
X0155664Y0139328D01*
X0155773Y0139433D01*
X0155884Y0139534D01*
X0155998Y0139633D01*
X0156114Y0139728D01*
X0156234Y0139821D01*
X0156355Y0139910D01*
X0156479Y0139996D01*
X0156605Y0140079D01*
X0156733Y0140158D01*
X0156863Y0140234D01*
X0156995Y0140307D01*
X0157129Y0140375D01*
X0157265Y0140441D01*
X0157403Y0140503D01*
X0157542Y0140561D01*
X0157682Y0140615D01*
X0157824Y0140666D01*
X0157967Y0140713D01*
X0158112Y0140756D01*
X0158257Y0140795D01*
X0158404Y0140831D01*
X0158551Y0140862D01*
X0158699Y0140890D01*
X0158848Y0140914D01*
X0158997Y0140934D01*
X0159147Y0140950D01*
X0159297Y0140962D01*
X0159448Y0140970D01*
X0159599Y0140974D01*
X0159749Y0140974D01*
X0159900Y0140970D01*
X0160051Y0140962D01*
X0160201Y0140950D01*
X0160351Y0140934D01*
X0160500Y0140914D01*
X0160649Y0140890D01*
X0160797Y0140862D01*
X0160944Y0140831D01*
X0161091Y0140795D01*
X0161236Y0140756D01*
X0161381Y0140713D01*
X0161524Y0140666D01*
X0161666Y0140615D01*
X0161806Y0140561D01*
X0161945Y0140503D01*
X0162083Y0140441D01*
X0162219Y0140375D01*
X0162353Y0140307D01*
X0162485Y0140234D01*
X0162615Y0140158D01*
X0162743Y0140079D01*
X0162869Y0139996D01*
X0162993Y0139910D01*
X0163114Y0139821D01*
X0163234Y0139728D01*
X0163350Y0139633D01*
X0163464Y0139534D01*
X0163575Y0139433D01*
X0163684Y0139328D01*
X0163790Y0139221D01*
X0163893Y0139111D01*
X0163993Y0138998D01*
X0164090Y0138883D01*
X0164184Y0138765D01*
X0164275Y0138645D01*
X0164363Y0138522D01*
X0164447Y0138397D01*
X0164528Y0138270D01*
X0164606Y0138141D01*
X0164680Y0138010D01*
X0164750Y0137877D01*
X0164818Y0137742D01*
X0164881Y0137605D01*
X0164941Y0137467D01*
X0164997Y0137327D01*
X0165050Y0137186D01*
X0165099Y0137044D01*
X0165144Y0136900D01*
X0165185Y0136755D01*
X0165223Y0136609D01*
X0165256Y0136462D01*
X0165286Y0136314D01*
X0165312Y0136166D01*
X0165333Y0136016D01*
X0165351Y0135867D01*
X0165365Y0135717D01*
X0165375Y0135566D01*
X0165381Y0135416D01*
X0165383Y0135265D01*
X0165381Y0135114D01*
X0165375Y0134964D01*
X0165365Y0134813D01*
X0165351Y0134663D01*
X0165333Y0134514D01*
X0165312Y0134364D01*
X0165286Y0134216D01*
X0165256Y0134068D01*
X0165223Y0133921D01*
X0165185Y0133775D01*
X0165144Y0133630D01*
X0165099Y0133486D01*
X0165050Y0133344D01*
X0164997Y0133203D01*
X0164941Y0133063D01*
X0164881Y0132925D01*
X0164818Y0132788D01*
X0164750Y0132653D01*
X0164680Y0132520D01*
X0164606Y0132389D01*
X0164528Y0132260D01*
X0164447Y0132133D01*
X0164363Y0132008D01*
X0164275Y0131885D01*
X0164184Y0131765D01*
X0164090Y0131647D01*
X0163993Y0131532D01*
X0163893Y0131419D01*
X0163790Y0131309D01*
X0163684Y0131202D01*
X0163575Y0131097D01*
X0163464Y0130996D01*
X0163350Y0130897D01*
X0163234Y0130802D01*
X0163114Y0130709D01*
X0162993Y0130620D01*
X0162869Y0130534D01*
X0162743Y0130451D01*
X0162615Y0130372D01*
X0162485Y0130296D01*
X0162353Y0130223D01*
X0162219Y0130155D01*
X0162083Y0130089D01*
X0161945Y0130027D01*
X0161806Y0129969D01*
X0161666Y0129915D01*
X0161524Y0129864D01*
X0161381Y0129817D01*
X0161236Y0129774D01*
X0161091Y0129735D01*
X0160944Y0129699D01*
X0160797Y0129668D01*
X0160649Y0129640D01*
X0160500Y0129616D01*
X0160351Y0129596D01*
X0160201Y0129580D01*
X0160051Y0129568D01*
X0159900Y0129560D01*
X0159749Y0129556D01*
X0159599Y0129556D01*
X0159448Y0129560D01*
X0159297Y0129568D01*
X0159147Y0129580D01*
X0158997Y0129596D01*
X0158848Y0129616D01*
X0158699Y0129640D01*
X0158551Y0129668D01*
X0158404Y0129699D01*
X0158257Y0129735D01*
X0158112Y0129774D01*
X0157967Y0129817D01*
X0157824Y0129864D01*
X0157682Y0129915D01*
X0157542Y0129969D01*
X0157403Y0130027D01*
X0157265Y0130089D01*
X0157129Y0130155D01*
X0156995Y0130223D01*
X0156863Y0130296D01*
X0156733Y0130372D01*
X0156605Y0130451D01*
X0156479Y0130534D01*
X0156355Y0130620D01*
X0156234Y0130709D01*
X0156114Y0130802D01*
X0155998Y0130897D01*
X0155884Y0130996D01*
X0155773Y0131097D01*
X0155664Y0131202D01*
X0155558Y0131309D01*
X0155455Y0131419D01*
X0155355Y0131532D01*
X0155258Y0131647D01*
X0155164Y0131765D01*
X0155073Y0131885D01*
X0154985Y0132008D01*
X0154901Y0132133D01*
X0154820Y0132260D01*
X0154742Y0132389D01*
X0154668Y0132520D01*
X0154598Y0132653D01*
X0154530Y0132788D01*
X0154467Y0132925D01*
X0154407Y0133063D01*
X0154351Y0133203D01*
X0154298Y0133344D01*
X0154249Y0133486D01*
X0154204Y0133630D01*
X0154163Y0133775D01*
X0154125Y0133921D01*
X0154092Y0134068D01*
X0154062Y0134216D01*
X0154036Y0134364D01*
X0154015Y0134514D01*
X0153997Y0134663D01*
X0153983Y0134813D01*
X0153973Y0134964D01*
X0153967Y0135114D01*
X0153965Y0135265D01*
D12*
X0140048Y0088867D03*
X0124457Y0088867D03*
X0108906Y0088867D03*
X0093316Y0088867D03*
X0077725Y0088867D03*
D13*
X0115580Y0159792D03*
X0115580Y0169792D03*
X0133296Y0169792D03*
X0133296Y0159792D03*
X0147863Y0159792D03*
X0147863Y0169792D03*
D14*
X0041800Y0108611D03*
X0041800Y0093020D03*
X0032024Y0069501D03*
X0032024Y0038320D03*
D15*
X0169123Y0056997D03*
X0169123Y0066997D03*
X0169123Y0076997D03*
X0169123Y0086997D03*
X0169123Y0096997D03*
D16*
X0067942Y0151997D03*
X0067942Y0154753D03*
X0067942Y0157509D03*
X0064989Y0157509D03*
X0064989Y0154753D03*
X0064989Y0151997D03*
X0062036Y0151997D03*
X0062036Y0154753D03*
X0062036Y0157509D03*
D17*
X0060107Y0162430D03*
X0065028Y0162430D03*
X0069950Y0162430D03*
X0062076Y0173454D03*
X0062076Y0178178D03*
X0062076Y0182509D03*
X0057351Y0182509D03*
X0057351Y0178178D03*
X0057351Y0173454D03*
X0060107Y0147076D03*
X0065028Y0147076D03*
X0069950Y0147076D03*
X0068572Y0140973D03*
X0074477Y0140973D03*
X0074477Y0135461D03*
X0068572Y0135461D03*
X0068572Y0129556D03*
X0074477Y0129556D03*
X0062666Y0129556D03*
X0056761Y0129556D03*
X0056761Y0135461D03*
X0062666Y0135461D03*
X0062666Y0140973D03*
X0056761Y0140973D03*
X0099871Y0175028D03*
X0099871Y0180146D03*
X0099871Y0185265D03*
X0123454Y0169556D03*
X0141643Y0169635D03*
D18*
X0138020Y0190776D03*
X0124241Y0190776D03*
X0110461Y0190776D03*
X0096682Y0190776D03*
X0092194Y0183099D03*
X0088650Y0183099D03*
X0088650Y0178375D03*
X0092194Y0178375D03*
X0092194Y0173650D03*
X0088650Y0173650D03*
X0087863Y0162627D03*
X0084320Y0162627D03*
X0080776Y0162627D03*
X0091406Y0162627D03*
X0094950Y0162627D03*
X0082902Y0190776D03*
X0069123Y0190776D03*
X0055343Y0190776D03*
X0041564Y0190776D03*
X0027784Y0190776D03*
X0019517Y0178965D03*
X0019517Y0165186D03*
X0019517Y0151406D03*
X0019517Y0137627D03*
X0019517Y0123847D03*
X0019517Y0110068D03*
X0019517Y0096288D03*
X0019517Y0082509D03*
X0019517Y0068729D03*
X0019517Y0054950D03*
X0019517Y0041170D03*
X0019517Y0027391D03*
X0027784Y0021485D03*
X0041564Y0021485D03*
X0055343Y0021485D03*
X0067942Y0021485D03*
X0087233Y0021485D03*
X0104162Y0021485D03*
X0117154Y0021485D03*
X0141170Y0021485D03*
X0151800Y0021485D03*
X0165580Y0021485D03*
X0179359Y0021485D03*
X0193139Y0021485D03*
X0202981Y0027391D03*
X0202981Y0035265D03*
X0202981Y0047469D03*
X0202981Y0059674D03*
X0202981Y0071879D03*
X0202981Y0084083D03*
X0202981Y0096288D03*
X0202981Y0108493D03*
X0202981Y0120698D03*
X0202981Y0137627D03*
X0202981Y0151406D03*
X0202981Y0165186D03*
X0202981Y0178965D03*
X0193139Y0190776D03*
X0179359Y0190776D03*
X0165580Y0190776D03*
X0151800Y0190776D03*
X0132509Y0096288D03*
X0132509Y0092745D03*
X0132509Y0089595D03*
X0136052Y0092745D03*
X0128965Y0092745D03*
X0125422Y0068335D03*
X0117154Y0068335D03*
X0113611Y0066367D03*
X0111249Y0062430D03*
X0111249Y0059280D03*
X0108099Y0059280D03*
X0108099Y0062430D03*
X0108493Y0066367D03*
X0103375Y0066367D03*
X0098257Y0066367D03*
X0097076Y0062430D03*
X0097076Y0059280D03*
X0093139Y0059280D03*
X0093139Y0062430D03*
X0089989Y0062430D03*
X0089989Y0059280D03*
X0089989Y0056131D03*
X0093139Y0066367D03*
X0077391Y0067548D03*
X0073454Y0067548D03*
X0073454Y0063217D03*
X0077391Y0063217D03*
X0077391Y0058887D03*
X0073454Y0058887D03*
X0073454Y0054556D03*
X0077391Y0054556D03*
X0061249Y0068335D03*
X0048650Y0131328D03*
X0176997Y0052981D03*
X0186839Y0056131D03*
X0186839Y0068729D03*
X0186839Y0082509D03*
X0186839Y0094320D03*
D19*
X0020923Y0020974D02*
X0019019Y0022576D01*
X0017704Y0024688D01*
X0017470Y0025635D01*
X0017993Y0025111D01*
X0018982Y0024702D01*
X0020051Y0024702D01*
X0021040Y0025111D01*
X0021796Y0025867D01*
X0022205Y0026856D01*
X0022205Y0027925D01*
X0021796Y0028914D01*
X0021040Y0029670D01*
X0020051Y0030080D01*
X0018982Y0030080D01*
X0017993Y0029670D01*
X0017237Y0028914D01*
X0017116Y0028622D01*
X0017141Y0028966D01*
X0017105Y0029074D01*
X0017105Y0039966D01*
X0017237Y0039647D01*
X0017993Y0038890D01*
X0018982Y0038481D01*
X0020051Y0038481D01*
X0021040Y0038890D01*
X0021796Y0039647D01*
X0022205Y0040635D01*
X0022205Y0041705D01*
X0021796Y0042693D01*
X0021040Y0043450D01*
X0020051Y0043859D01*
X0018982Y0043859D01*
X0017993Y0043450D01*
X0017237Y0042693D01*
X0017105Y0042374D01*
X0017105Y0053746D01*
X0017237Y0053426D01*
X0017993Y0052670D01*
X0018982Y0052261D01*
X0020051Y0052261D01*
X0021040Y0052670D01*
X0021796Y0053426D01*
X0022205Y0054415D01*
X0022205Y0055484D01*
X0021796Y0056473D01*
X0021040Y0057229D01*
X0020051Y0057639D01*
X0018982Y0057639D01*
X0017993Y0057229D01*
X0017237Y0056473D01*
X0017105Y0056154D01*
X0017105Y0067525D01*
X0017237Y0067206D01*
X0017993Y0066450D01*
X0018982Y0066040D01*
X0020051Y0066040D01*
X0021040Y0066450D01*
X0021796Y0067206D01*
X0022205Y0068194D01*
X0022205Y0069264D01*
X0021796Y0070252D01*
X0021040Y0071009D01*
X0020051Y0071418D01*
X0018982Y0071418D01*
X0017993Y0071009D01*
X0017237Y0070252D01*
X0017105Y0069933D01*
X0017105Y0081305D01*
X0017237Y0080985D01*
X0017993Y0080229D01*
X0018982Y0079820D01*
X0020051Y0079820D01*
X0021040Y0080229D01*
X0021796Y0080985D01*
X0022205Y0081974D01*
X0022205Y0083044D01*
X0021796Y0084032D01*
X0021040Y0084788D01*
X0020051Y0085198D01*
X0018982Y0085198D01*
X0017993Y0084788D01*
X0017237Y0084032D01*
X0017105Y0083713D01*
X0017105Y0095084D01*
X0017237Y0094765D01*
X0017993Y0094009D01*
X0018982Y0093599D01*
X0020051Y0093599D01*
X0021040Y0094009D01*
X0021796Y0094765D01*
X0022205Y0095753D01*
X0022205Y0096823D01*
X0021796Y0097811D01*
X0021040Y0098568D01*
X0020051Y0098977D01*
X0018982Y0098977D01*
X0017993Y0098568D01*
X0017237Y0097811D01*
X0017105Y0097492D01*
X0017105Y0108864D01*
X0017237Y0108545D01*
X0017993Y0107788D01*
X0018982Y0107379D01*
X0020051Y0107379D01*
X0021040Y0107788D01*
X0021796Y0108545D01*
X0022205Y0109533D01*
X0022205Y0110603D01*
X0021796Y0111591D01*
X0021040Y0112347D01*
X0020051Y0112757D01*
X0018982Y0112757D01*
X0017993Y0112347D01*
X0017237Y0111591D01*
X0017105Y0111272D01*
X0017105Y0122643D01*
X0017237Y0122324D01*
X0017993Y0121568D01*
X0018982Y0121158D01*
X0020051Y0121158D01*
X0021040Y0121568D01*
X0021796Y0122324D01*
X0022205Y0123312D01*
X0022205Y0124382D01*
X0021796Y0125370D01*
X0021040Y0126127D01*
X0020051Y0126536D01*
X0018982Y0126536D01*
X0017993Y0126127D01*
X0017237Y0125370D01*
X0017105Y0125051D01*
X0017105Y0136423D01*
X0017237Y0136104D01*
X0017993Y0135347D01*
X0018982Y0134938D01*
X0020051Y0134938D01*
X0021040Y0135347D01*
X0021796Y0136104D01*
X0022205Y0137092D01*
X0022205Y0138162D01*
X0021796Y0139150D01*
X0021040Y0139906D01*
X0020051Y0140316D01*
X0018982Y0140316D01*
X0017993Y0139906D01*
X0017237Y0139150D01*
X0017105Y0138831D01*
X0017105Y0150202D01*
X0017237Y0149883D01*
X0017993Y0149127D01*
X0018982Y0148717D01*
X0020051Y0148717D01*
X0021040Y0149127D01*
X0021796Y0149883D01*
X0022205Y0150871D01*
X0022205Y0151941D01*
X0021796Y0152929D01*
X0021040Y0153686D01*
X0020051Y0154095D01*
X0018982Y0154095D01*
X0017993Y0153686D01*
X0017237Y0152929D01*
X0017105Y0152610D01*
X0017105Y0163982D01*
X0017237Y0163663D01*
X0017993Y0162906D01*
X0018982Y0162497D01*
X0020051Y0162497D01*
X0021040Y0162906D01*
X0021796Y0163663D01*
X0022205Y0164651D01*
X0022205Y0165721D01*
X0021796Y0166709D01*
X0021040Y0167465D01*
X0020051Y0167875D01*
X0018982Y0167875D01*
X0017993Y0167465D01*
X0017237Y0166709D01*
X0017105Y0166390D01*
X0017105Y0177761D01*
X0017237Y0177442D01*
X0017993Y0176686D01*
X0018982Y0176276D01*
X0020051Y0176276D01*
X0021040Y0176686D01*
X0021796Y0177442D01*
X0022205Y0178430D01*
X0022205Y0179500D01*
X0021796Y0180489D01*
X0021040Y0181245D01*
X0020051Y0181654D01*
X0018982Y0181654D01*
X0017993Y0181245D01*
X0017237Y0180489D01*
X0017105Y0180169D01*
X0017105Y0183909D01*
X0017276Y0185106D01*
X0017276Y0185106D01*
X0018120Y0187503D01*
X0019555Y0189599D01*
X0021485Y0191253D01*
X0023776Y0192351D01*
X0025966Y0192760D01*
X0025505Y0192300D01*
X0025095Y0191311D01*
X0025095Y0190241D01*
X0025505Y0189253D01*
X0026261Y0188497D01*
X0027249Y0188087D01*
X0028319Y0188087D01*
X0029307Y0188497D01*
X0030064Y0189253D01*
X0030473Y0190241D01*
X0030473Y0191311D01*
X0030064Y0192300D01*
X0029569Y0192794D01*
X0039779Y0192794D01*
X0039284Y0192300D01*
X0038875Y0191311D01*
X0038875Y0190241D01*
X0039284Y0189253D01*
X0040041Y0188497D01*
X0041029Y0188087D01*
X0042099Y0188087D01*
X0043087Y0188497D01*
X0043843Y0189253D01*
X0044253Y0190241D01*
X0044253Y0191311D01*
X0043843Y0192300D01*
X0043348Y0192794D01*
X0053559Y0192794D01*
X0053064Y0192300D01*
X0052654Y0191311D01*
X0052654Y0190241D01*
X0053064Y0189253D01*
X0053820Y0188497D01*
X0054808Y0188087D01*
X0055878Y0188087D01*
X0056866Y0188497D01*
X0057623Y0189253D01*
X0058032Y0190241D01*
X0058032Y0191311D01*
X0057623Y0192300D01*
X0057128Y0192794D01*
X0067338Y0192794D01*
X0066843Y0192300D01*
X0066434Y0191311D01*
X0066434Y0190241D01*
X0066843Y0189253D01*
X0067600Y0188497D01*
X0068588Y0188087D01*
X0069658Y0188087D01*
X0070646Y0188497D01*
X0071402Y0189253D01*
X0071812Y0190241D01*
X0071812Y0191311D01*
X0071402Y0192300D01*
X0070907Y0192794D01*
X0081118Y0192794D01*
X0080623Y0192300D01*
X0080213Y0191311D01*
X0080213Y0190241D01*
X0080623Y0189253D01*
X0081379Y0188497D01*
X0082367Y0188087D01*
X0083437Y0188087D01*
X0084426Y0188497D01*
X0085182Y0189253D01*
X0085591Y0190241D01*
X0085591Y0191311D01*
X0085182Y0192300D01*
X0084687Y0192794D01*
X0094897Y0192794D01*
X0094402Y0192300D01*
X0093993Y0191311D01*
X0093993Y0190241D01*
X0094402Y0189253D01*
X0095159Y0188497D01*
X0096147Y0188087D01*
X0097217Y0188087D01*
X0098205Y0188497D01*
X0098961Y0189253D01*
X0099371Y0190241D01*
X0099371Y0191311D01*
X0098961Y0192300D01*
X0098467Y0192794D01*
X0108677Y0192794D01*
X0108182Y0192300D01*
X0107772Y0191311D01*
X0107772Y0190241D01*
X0108182Y0189253D01*
X0108938Y0188497D01*
X0109927Y0188087D01*
X0110996Y0188087D01*
X0111985Y0188497D01*
X0112741Y0189253D01*
X0113150Y0190241D01*
X0113150Y0191311D01*
X0112741Y0192300D01*
X0112246Y0192794D01*
X0122456Y0192794D01*
X0121961Y0192300D01*
X0121552Y0191311D01*
X0121552Y0190241D01*
X0121961Y0189253D01*
X0122718Y0188497D01*
X0123706Y0188087D01*
X0124776Y0188087D01*
X0125764Y0188497D01*
X0126521Y0189253D01*
X0126930Y0190241D01*
X0126930Y0191311D01*
X0126521Y0192300D01*
X0126026Y0192794D01*
X0136236Y0192794D01*
X0135741Y0192300D01*
X0135331Y0191311D01*
X0135331Y0190241D01*
X0135741Y0189253D01*
X0136497Y0188497D01*
X0137486Y0188087D01*
X0138555Y0188087D01*
X0139544Y0188497D01*
X0140300Y0189253D01*
X0140709Y0190241D01*
X0140709Y0191311D01*
X0140300Y0192300D01*
X0139805Y0192794D01*
X0150015Y0192794D01*
X0149520Y0192300D01*
X0149111Y0191311D01*
X0149111Y0190241D01*
X0149520Y0189253D01*
X0150277Y0188497D01*
X0151265Y0188087D01*
X0152335Y0188087D01*
X0153323Y0188497D01*
X0154080Y0189253D01*
X0154489Y0190241D01*
X0154489Y0191311D01*
X0154080Y0192300D01*
X0153585Y0192794D01*
X0163795Y0192794D01*
X0163300Y0192300D01*
X0162891Y0191311D01*
X0162891Y0190241D01*
X0163300Y0189253D01*
X0164056Y0188497D01*
X0165045Y0188087D01*
X0166114Y0188087D01*
X0167103Y0188497D01*
X0167859Y0189253D01*
X0168268Y0190241D01*
X0168268Y0191311D01*
X0167859Y0192300D01*
X0167364Y0192794D01*
X0177574Y0192794D01*
X0177079Y0192300D01*
X0176670Y0191311D01*
X0176670Y0190241D01*
X0177079Y0189253D01*
X0177836Y0188497D01*
X0178824Y0188087D01*
X0179894Y0188087D01*
X0180882Y0188497D01*
X0181639Y0189253D01*
X0182048Y0190241D01*
X0182048Y0191311D01*
X0181639Y0192300D01*
X0181144Y0192794D01*
X0191354Y0192794D01*
X0190859Y0192300D01*
X0190450Y0191311D01*
X0190450Y0190241D01*
X0190859Y0189253D01*
X0191615Y0188497D01*
X0192604Y0188087D01*
X0193673Y0188087D01*
X0194662Y0188497D01*
X0195418Y0189253D01*
X0195828Y0190241D01*
X0195828Y0191311D01*
X0195418Y0192300D01*
X0194923Y0192794D01*
X0195401Y0192794D01*
X0195517Y0192756D01*
X0196014Y0192794D01*
X0196511Y0192794D01*
X0196544Y0192808D01*
X0197405Y0192818D01*
X0199903Y0192351D01*
X0202194Y0191253D01*
X0204123Y0189599D01*
X0205559Y0187503D01*
X0206403Y0185106D01*
X0206574Y0183909D01*
X0206574Y0028746D01*
X0206403Y0027549D01*
X0205559Y0025153D01*
X0204123Y0023056D01*
X0202194Y0021402D01*
X0199903Y0020305D01*
X0197405Y0019837D01*
X0196544Y0019847D01*
X0196511Y0019861D01*
X0196014Y0019861D01*
X0195517Y0019899D01*
X0195401Y0019861D01*
X0195317Y0019861D01*
X0195418Y0019962D01*
X0195828Y0020950D01*
X0195828Y0022020D01*
X0195418Y0023008D01*
X0194662Y0023765D01*
X0193673Y0024174D01*
X0192604Y0024174D01*
X0191615Y0023765D01*
X0190859Y0023008D01*
X0190450Y0022020D01*
X0190450Y0020950D01*
X0190859Y0019962D01*
X0190960Y0019861D01*
X0181537Y0019861D01*
X0181639Y0019962D01*
X0182048Y0020950D01*
X0182048Y0022020D01*
X0181639Y0023008D01*
X0180882Y0023765D01*
X0179894Y0024174D01*
X0178824Y0024174D01*
X0177836Y0023765D01*
X0177079Y0023008D01*
X0176670Y0022020D01*
X0176670Y0020950D01*
X0177079Y0019962D01*
X0177181Y0019861D01*
X0167758Y0019861D01*
X0167859Y0019962D01*
X0168268Y0020950D01*
X0168268Y0022020D01*
X0167859Y0023008D01*
X0167103Y0023765D01*
X0166114Y0024174D01*
X0165045Y0024174D01*
X0164056Y0023765D01*
X0163300Y0023008D01*
X0162891Y0022020D01*
X0162891Y0020950D01*
X0163300Y0019962D01*
X0163401Y0019861D01*
X0153978Y0019861D01*
X0154080Y0019962D01*
X0154489Y0020950D01*
X0154489Y0022020D01*
X0154080Y0023008D01*
X0153323Y0023765D01*
X0152335Y0024174D01*
X0151265Y0024174D01*
X0150277Y0023765D01*
X0149520Y0023008D01*
X0149111Y0022020D01*
X0149111Y0020950D01*
X0149520Y0019962D01*
X0149622Y0019861D01*
X0143348Y0019861D01*
X0143450Y0019962D01*
X0143859Y0020950D01*
X0143859Y0022020D01*
X0143450Y0023008D01*
X0142693Y0023765D01*
X0141705Y0024174D01*
X0140635Y0024174D01*
X0139647Y0023765D01*
X0138890Y0023008D01*
X0138481Y0022020D01*
X0138481Y0020950D01*
X0138890Y0019962D01*
X0138992Y0019861D01*
X0119333Y0019861D01*
X0119434Y0019962D01*
X0119843Y0020950D01*
X0119843Y0022020D01*
X0119434Y0023008D01*
X0118678Y0023765D01*
X0117689Y0024174D01*
X0116619Y0024174D01*
X0115631Y0023765D01*
X0114875Y0023008D01*
X0114465Y0022020D01*
X0114465Y0020950D01*
X0114875Y0019962D01*
X0114976Y0019861D01*
X0106341Y0019861D01*
X0106442Y0019962D01*
X0106851Y0020950D01*
X0106851Y0022020D01*
X0106442Y0023008D01*
X0105685Y0023765D01*
X0104697Y0024174D01*
X0103627Y0024174D01*
X0102639Y0023765D01*
X0101883Y0023008D01*
X0101473Y0022020D01*
X0101473Y0020950D01*
X0101883Y0019962D01*
X0101984Y0019861D01*
X0097084Y0019861D01*
X0098112Y0020888D01*
X0098793Y0022532D01*
X0098793Y0024312D01*
X0098112Y0025956D01*
X0097321Y0026746D01*
X0142645Y0026746D01*
X0142821Y0026694D01*
X0143317Y0026746D01*
X0143815Y0026746D01*
X0143984Y0026817D01*
X0144166Y0026836D01*
X0144604Y0027073D01*
X0145065Y0027264D01*
X0145194Y0027394D01*
X0158384Y0034554D01*
X0158844Y0034744D01*
X0158974Y0034874D01*
X0159135Y0034961D01*
X0159448Y0035349D01*
X0159800Y0035701D01*
X0159871Y0035870D01*
X0159986Y0036012D01*
X0160127Y0036490D01*
X0160318Y0036950D01*
X0160318Y0037134D01*
X0160370Y0037309D01*
X0160318Y0037805D01*
X0160318Y0090155D01*
X0163759Y0093597D01*
X0165950Y0093597D01*
X0166490Y0093056D01*
X0168198Y0092349D01*
X0170047Y0092349D01*
X0171756Y0093056D01*
X0173063Y0094364D01*
X0173771Y0096072D01*
X0173771Y0097921D01*
X0173063Y0099630D01*
X0171756Y0100937D01*
X0170047Y0101645D01*
X0168198Y0101645D01*
X0166490Y0100937D01*
X0165950Y0100397D01*
X0161675Y0100397D01*
X0160425Y0099879D01*
X0154992Y0094446D01*
X0154036Y0093490D01*
X0153518Y0092240D01*
X0153518Y0039650D01*
X0142275Y0033546D01*
X0087067Y0033546D01*
X0071342Y0049271D01*
X0071342Y0052865D01*
X0071930Y0052276D01*
X0072919Y0051867D01*
X0073988Y0051867D01*
X0074977Y0052276D01*
X0075422Y0052722D01*
X0075867Y0052276D01*
X0076856Y0051867D01*
X0077925Y0051867D01*
X0078914Y0052276D01*
X0079670Y0053033D01*
X0080080Y0054021D01*
X0080080Y0055091D01*
X0079670Y0056079D01*
X0079028Y0056721D01*
X0079670Y0057363D01*
X0080080Y0058352D01*
X0080080Y0059421D01*
X0079670Y0060410D01*
X0079028Y0061052D01*
X0079670Y0061694D01*
X0080080Y0062682D01*
X0080080Y0063752D01*
X0079670Y0064741D01*
X0079028Y0065383D01*
X0079670Y0066025D01*
X0080080Y0067013D01*
X0080080Y0068083D01*
X0079670Y0069071D01*
X0078914Y0069828D01*
X0077925Y0070237D01*
X0076856Y0070237D01*
X0075867Y0069828D01*
X0075422Y0069382D01*
X0074977Y0069828D01*
X0073988Y0070237D01*
X0072919Y0070237D01*
X0071930Y0069828D01*
X0071174Y0069071D01*
X0070765Y0068083D01*
X0070765Y0067171D01*
X0067899Y0070037D01*
X0066650Y0070554D01*
X0062833Y0070554D01*
X0062772Y0070615D01*
X0061784Y0071024D01*
X0060714Y0071024D01*
X0059726Y0070615D01*
X0058969Y0069859D01*
X0058560Y0068870D01*
X0058560Y0068597D01*
X0058243Y0067831D01*
X0058243Y0066478D01*
X0058760Y0065228D01*
X0059717Y0064272D01*
X0060966Y0063754D01*
X0064542Y0063754D01*
X0064542Y0047187D01*
X0065059Y0045937D01*
X0066016Y0044981D01*
X0083101Y0027895D01*
X0081619Y0027895D01*
X0079975Y0027214D01*
X0078716Y0025956D01*
X0078035Y0024312D01*
X0078035Y0022532D01*
X0078716Y0020888D01*
X0079744Y0019861D01*
X0070120Y0019861D01*
X0070221Y0019962D01*
X0070631Y0020950D01*
X0070631Y0022020D01*
X0070221Y0023008D01*
X0069465Y0023765D01*
X0068477Y0024174D01*
X0067407Y0024174D01*
X0066419Y0023765D01*
X0065662Y0023008D01*
X0065253Y0022020D01*
X0065253Y0020950D01*
X0065662Y0019962D01*
X0065763Y0019861D01*
X0057522Y0019861D01*
X0057623Y0019962D01*
X0058032Y0020950D01*
X0058032Y0022020D01*
X0057623Y0023008D01*
X0056866Y0023765D01*
X0055878Y0024174D01*
X0054808Y0024174D01*
X0053820Y0023765D01*
X0053064Y0023008D01*
X0052654Y0022020D01*
X0052654Y0020950D01*
X0053064Y0019962D01*
X0053165Y0019861D01*
X0043742Y0019861D01*
X0043843Y0019962D01*
X0044253Y0020950D01*
X0044253Y0022020D01*
X0043843Y0023008D01*
X0043087Y0023765D01*
X0042099Y0024174D01*
X0041029Y0024174D01*
X0040041Y0023765D01*
X0039284Y0023008D01*
X0038875Y0022020D01*
X0038875Y0020950D01*
X0039284Y0019962D01*
X0039385Y0019861D01*
X0029963Y0019861D01*
X0030064Y0019962D01*
X0030473Y0020950D01*
X0030473Y0022020D01*
X0030064Y0023008D01*
X0029307Y0023765D01*
X0028319Y0024174D01*
X0027249Y0024174D01*
X0026261Y0023765D01*
X0025505Y0023008D01*
X0025095Y0022020D01*
X0025095Y0020950D01*
X0025505Y0019962D01*
X0025606Y0019861D01*
X0024410Y0019861D01*
X0023228Y0020039D01*
X0020923Y0020974D01*
X0021430Y0020769D02*
X0025170Y0020769D01*
X0025239Y0022367D02*
X0019268Y0022367D01*
X0018154Y0023966D02*
X0026747Y0023966D01*
X0028822Y0023966D02*
X0040526Y0023966D01*
X0042601Y0023966D02*
X0054306Y0023966D01*
X0056381Y0023966D02*
X0066904Y0023966D01*
X0068979Y0023966D02*
X0078035Y0023966D01*
X0078104Y0022367D02*
X0070487Y0022367D01*
X0070556Y0020769D02*
X0078836Y0020769D01*
X0078554Y0025564D02*
X0021493Y0025564D01*
X0022205Y0027163D02*
X0079923Y0027163D01*
X0082235Y0028761D02*
X0021859Y0028761D01*
X0017174Y0028761D02*
X0017126Y0028761D01*
X0017105Y0030360D02*
X0080637Y0030360D01*
X0079038Y0031958D02*
X0017105Y0031958D01*
X0017105Y0033557D02*
X0077440Y0033557D01*
X0075841Y0035155D02*
X0017105Y0035155D01*
X0017105Y0036754D02*
X0074243Y0036754D01*
X0072644Y0038352D02*
X0017105Y0038352D01*
X0017105Y0039951D02*
X0017111Y0039951D01*
X0017105Y0043148D02*
X0017692Y0043148D01*
X0017105Y0044746D02*
X0066250Y0044746D01*
X0064890Y0046345D02*
X0017105Y0046345D01*
X0017105Y0047943D02*
X0064542Y0047943D01*
X0064542Y0049542D02*
X0017105Y0049542D01*
X0017105Y0051140D02*
X0064542Y0051140D01*
X0064542Y0052739D02*
X0021109Y0052739D01*
X0022173Y0054337D02*
X0064542Y0054337D01*
X0064542Y0055936D02*
X0022018Y0055936D01*
X0020303Y0057535D02*
X0064542Y0057535D01*
X0064542Y0059133D02*
X0017105Y0059133D01*
X0017105Y0057535D02*
X0018730Y0057535D01*
X0017105Y0060732D02*
X0064542Y0060732D01*
X0064542Y0062330D02*
X0017105Y0062330D01*
X0017105Y0063929D02*
X0029473Y0063929D01*
X0028555Y0064309D02*
X0030806Y0063376D01*
X0033243Y0063376D01*
X0035494Y0064309D01*
X0037216Y0066032D01*
X0038149Y0068283D01*
X0038149Y0070719D01*
X0037216Y0072970D01*
X0035494Y0074693D01*
X0033243Y0075625D01*
X0030806Y0075625D01*
X0028555Y0074693D01*
X0026832Y0072970D01*
X0025900Y0070719D01*
X0025900Y0068283D01*
X0026832Y0066032D01*
X0028555Y0064309D01*
X0027337Y0065527D02*
X0017105Y0065527D01*
X0017105Y0067126D02*
X0017317Y0067126D01*
X0017307Y0070323D02*
X0017105Y0070323D01*
X0017105Y0071921D02*
X0026398Y0071921D01*
X0025900Y0070323D02*
X0021726Y0070323D01*
X0022205Y0068724D02*
X0025900Y0068724D01*
X0026379Y0067126D02*
X0021716Y0067126D01*
X0017105Y0073520D02*
X0027382Y0073520D01*
X0029582Y0075118D02*
X0017105Y0075118D01*
X0017105Y0076717D02*
X0153518Y0076717D01*
X0153518Y0078315D02*
X0017105Y0078315D01*
X0017105Y0079914D02*
X0018755Y0079914D01*
X0020278Y0079914D02*
X0153518Y0079914D01*
X0153518Y0081512D02*
X0022014Y0081512D01*
X0022178Y0083111D02*
X0153518Y0083111D01*
X0153518Y0084709D02*
X0141539Y0084709D01*
X0140926Y0084455D02*
X0142547Y0085127D01*
X0143788Y0086368D01*
X0144460Y0087989D01*
X0144460Y0089744D01*
X0143788Y0091366D01*
X0142547Y0092607D01*
X0140926Y0093279D01*
X0139170Y0093279D01*
X0138741Y0093101D01*
X0138741Y0093280D01*
X0138332Y0094268D01*
X0137699Y0094901D01*
X0138591Y0094531D01*
X0141584Y0094531D01*
X0144350Y0095677D01*
X0146466Y0097794D01*
X0147612Y0100559D01*
X0147612Y0103553D01*
X0146466Y0106318D01*
X0144350Y0108435D01*
X0141584Y0109580D01*
X0138591Y0109580D01*
X0135825Y0108435D01*
X0133709Y0106318D01*
X0132563Y0103553D01*
X0132563Y0100559D01*
X0133255Y0098890D01*
X0133044Y0098977D01*
X0131974Y0098977D01*
X0131240Y0098673D01*
X0132021Y0100559D01*
X0132021Y0103553D01*
X0130876Y0106318D01*
X0128759Y0108435D01*
X0125994Y0109580D01*
X0123000Y0109580D01*
X0120235Y0108435D01*
X0118118Y0106318D01*
X0116972Y0103553D01*
X0116972Y0100559D01*
X0118118Y0097794D01*
X0120235Y0095677D01*
X0123000Y0094531D01*
X0125994Y0094531D01*
X0128759Y0095677D01*
X0129820Y0096738D01*
X0129820Y0095753D01*
X0130046Y0095208D01*
X0129500Y0095434D01*
X0128430Y0095434D01*
X0127442Y0095024D01*
X0126686Y0094268D01*
X0126276Y0093280D01*
X0126276Y0092889D01*
X0125335Y0093279D01*
X0123580Y0093279D01*
X0121958Y0092607D01*
X0120717Y0091366D01*
X0120046Y0089744D01*
X0120046Y0087989D01*
X0120717Y0086368D01*
X0121958Y0085127D01*
X0123580Y0084455D01*
X0125335Y0084455D01*
X0126957Y0085127D01*
X0128198Y0086368D01*
X0128869Y0087989D01*
X0128869Y0089744D01*
X0128740Y0090056D01*
X0129500Y0090056D01*
X0129849Y0090200D01*
X0129820Y0090130D01*
X0129820Y0089060D01*
X0130229Y0088072D01*
X0130985Y0087316D01*
X0131974Y0086906D01*
X0133044Y0086906D01*
X0134032Y0087316D01*
X0134788Y0088072D01*
X0135198Y0089060D01*
X0135198Y0090130D01*
X0135169Y0090200D01*
X0135517Y0090056D01*
X0135765Y0090056D01*
X0135636Y0089744D01*
X0135636Y0087989D01*
X0136308Y0086368D01*
X0137549Y0085127D01*
X0139170Y0084455D01*
X0140926Y0084455D01*
X0138557Y0084709D02*
X0125948Y0084709D01*
X0128138Y0086308D02*
X0136368Y0086308D01*
X0135671Y0087906D02*
X0134622Y0087906D01*
X0135198Y0089505D02*
X0135636Y0089505D01*
X0130395Y0087906D02*
X0128835Y0087906D01*
X0128869Y0089505D02*
X0129820Y0089505D01*
X0126718Y0094300D02*
X0047899Y0094300D01*
X0047924Y0094239D02*
X0046992Y0096490D01*
X0045269Y0098212D01*
X0043018Y0099145D01*
X0040582Y0099145D01*
X0038331Y0098212D01*
X0036608Y0096490D01*
X0035676Y0094239D01*
X0035676Y0091802D01*
X0036608Y0089551D01*
X0038331Y0087828D01*
X0040582Y0086896D01*
X0043018Y0086896D01*
X0045269Y0087828D01*
X0046992Y0089551D01*
X0047924Y0091802D01*
X0047924Y0094239D01*
X0047924Y0092702D02*
X0075455Y0092702D01*
X0075226Y0092607D02*
X0073985Y0091366D01*
X0073313Y0089744D01*
X0073313Y0087989D01*
X0073985Y0086368D01*
X0075226Y0085127D01*
X0076848Y0084455D01*
X0078603Y0084455D01*
X0080224Y0085127D01*
X0081465Y0086368D01*
X0082137Y0087989D01*
X0082137Y0089744D01*
X0081465Y0091366D01*
X0080224Y0092607D01*
X0078603Y0093279D01*
X0076848Y0093279D01*
X0075226Y0092607D01*
X0073876Y0091103D02*
X0047635Y0091103D01*
X0046945Y0089505D02*
X0073313Y0089505D01*
X0073348Y0087906D02*
X0045347Y0087906D01*
X0038253Y0087906D02*
X0017105Y0087906D01*
X0017105Y0086308D02*
X0074045Y0086308D01*
X0076234Y0084709D02*
X0021119Y0084709D01*
X0017914Y0084709D02*
X0017105Y0084709D01*
X0017105Y0089505D02*
X0036654Y0089505D01*
X0035965Y0091103D02*
X0017105Y0091103D01*
X0017105Y0092702D02*
X0035676Y0092702D01*
X0035701Y0094300D02*
X0021331Y0094300D01*
X0022205Y0095899D02*
X0036363Y0095899D01*
X0037616Y0097497D02*
X0021926Y0097497D01*
X0017107Y0097497D02*
X0017105Y0097497D01*
X0017105Y0099096D02*
X0040463Y0099096D01*
X0040582Y0102487D02*
X0043018Y0102487D01*
X0045269Y0103419D01*
X0046992Y0105142D01*
X0047924Y0107393D01*
X0047924Y0109829D01*
X0046992Y0112080D01*
X0045269Y0113803D01*
X0043018Y0114735D01*
X0040582Y0114735D01*
X0038331Y0113803D01*
X0036608Y0112080D01*
X0035676Y0109829D01*
X0035676Y0107393D01*
X0036608Y0105142D01*
X0038331Y0103419D01*
X0040582Y0102487D01*
X0037858Y0103891D02*
X0017105Y0103891D01*
X0017105Y0102293D02*
X0070201Y0102293D01*
X0070201Y0103553D02*
X0070201Y0100559D01*
X0071346Y0097794D01*
X0073463Y0095677D01*
X0076228Y0094531D01*
X0079222Y0094531D01*
X0081987Y0095677D01*
X0084104Y0097794D01*
X0085250Y0100559D01*
X0085250Y0103553D01*
X0084104Y0106318D01*
X0081987Y0108435D01*
X0079222Y0109580D01*
X0076228Y0109580D01*
X0073463Y0108435D01*
X0071346Y0106318D01*
X0070201Y0103553D01*
X0070341Y0103891D02*
X0045742Y0103891D01*
X0047136Y0105490D02*
X0071003Y0105490D01*
X0072117Y0107088D02*
X0047798Y0107088D01*
X0047924Y0108687D02*
X0074072Y0108687D01*
X0081379Y0108687D02*
X0089662Y0108687D01*
X0089054Y0108435D02*
X0086937Y0106318D01*
X0085791Y0103553D01*
X0085791Y0100559D01*
X0086937Y0097794D01*
X0089054Y0095677D01*
X0091819Y0094531D01*
X0094812Y0094531D01*
X0097578Y0095677D01*
X0099695Y0097794D01*
X0100840Y0100559D01*
X0100840Y0103553D01*
X0099695Y0106318D01*
X0097578Y0108435D01*
X0094812Y0109580D01*
X0091819Y0109580D01*
X0089054Y0108435D01*
X0087707Y0107088D02*
X0083334Y0107088D01*
X0084447Y0105490D02*
X0086594Y0105490D01*
X0085932Y0103891D02*
X0085109Y0103891D01*
X0085250Y0102293D02*
X0085791Y0102293D01*
X0085791Y0100694D02*
X0085250Y0100694D01*
X0084643Y0099096D02*
X0086397Y0099096D01*
X0087233Y0097497D02*
X0083808Y0097497D01*
X0082209Y0095899D02*
X0088832Y0095899D01*
X0090817Y0092607D02*
X0089576Y0091366D01*
X0088904Y0089744D01*
X0088904Y0087989D01*
X0089576Y0086368D01*
X0090817Y0085127D01*
X0092438Y0084455D01*
X0094193Y0084455D01*
X0095815Y0085127D01*
X0097056Y0086368D01*
X0097728Y0087989D01*
X0097728Y0089744D01*
X0097056Y0091366D01*
X0095815Y0092607D01*
X0094193Y0093279D01*
X0092438Y0093279D01*
X0090817Y0092607D01*
X0091045Y0092702D02*
X0079996Y0092702D01*
X0081574Y0091103D02*
X0089467Y0091103D01*
X0088904Y0089505D02*
X0082137Y0089505D01*
X0082103Y0087906D02*
X0088938Y0087906D01*
X0089636Y0086308D02*
X0081405Y0086308D01*
X0079216Y0084709D02*
X0091825Y0084709D01*
X0094807Y0084709D02*
X0107415Y0084709D01*
X0108029Y0084455D02*
X0109784Y0084455D01*
X0111405Y0085127D01*
X0112646Y0086368D01*
X0113318Y0087989D01*
X0113318Y0089744D01*
X0112646Y0091366D01*
X0111405Y0092607D01*
X0109784Y0093279D01*
X0108029Y0093279D01*
X0106407Y0092607D01*
X0105166Y0091366D01*
X0104494Y0089744D01*
X0104494Y0087989D01*
X0105166Y0086368D01*
X0106407Y0085127D01*
X0108029Y0084455D01*
X0110397Y0084709D02*
X0122966Y0084709D01*
X0120777Y0086308D02*
X0112586Y0086308D01*
X0113284Y0087906D02*
X0120080Y0087906D01*
X0120046Y0089505D02*
X0113318Y0089505D01*
X0112755Y0091103D02*
X0120609Y0091103D01*
X0122187Y0092702D02*
X0111177Y0092702D01*
X0110403Y0094531D02*
X0113169Y0095677D01*
X0115285Y0097794D01*
X0116431Y0100559D01*
X0116431Y0103553D01*
X0115285Y0106318D01*
X0113169Y0108435D01*
X0110403Y0109580D01*
X0107410Y0109580D01*
X0104644Y0108435D01*
X0102527Y0106318D01*
X0101382Y0103553D01*
X0101382Y0100559D01*
X0102527Y0097794D01*
X0104644Y0095677D01*
X0107410Y0094531D01*
X0110403Y0094531D01*
X0106636Y0092702D02*
X0095586Y0092702D01*
X0097165Y0091103D02*
X0105057Y0091103D01*
X0104494Y0089505D02*
X0097728Y0089505D01*
X0097693Y0087906D02*
X0104529Y0087906D01*
X0105226Y0086308D02*
X0096996Y0086308D01*
X0097800Y0095899D02*
X0104422Y0095899D01*
X0102824Y0097497D02*
X0099398Y0097497D01*
X0100234Y0099096D02*
X0101988Y0099096D01*
X0101382Y0100694D02*
X0100840Y0100694D01*
X0100840Y0102293D02*
X0101382Y0102293D01*
X0101522Y0103891D02*
X0100700Y0103891D01*
X0100038Y0105490D02*
X0102184Y0105490D01*
X0103298Y0107088D02*
X0098924Y0107088D01*
X0096969Y0108687D02*
X0105253Y0108687D01*
X0112560Y0108687D02*
X0120843Y0108687D01*
X0118888Y0107088D02*
X0114515Y0107088D01*
X0115628Y0105490D02*
X0117775Y0105490D01*
X0117113Y0103891D02*
X0116290Y0103891D01*
X0116431Y0102293D02*
X0116972Y0102293D01*
X0116972Y0100694D02*
X0116431Y0100694D01*
X0115825Y0099096D02*
X0117579Y0099096D01*
X0118414Y0097497D02*
X0114989Y0097497D01*
X0113390Y0095899D02*
X0120013Y0095899D01*
X0128981Y0095899D02*
X0129820Y0095899D01*
X0131415Y0099096D02*
X0133169Y0099096D01*
X0132563Y0100694D02*
X0132021Y0100694D01*
X0132021Y0102293D02*
X0132563Y0102293D01*
X0132703Y0103891D02*
X0131881Y0103891D01*
X0131219Y0105490D02*
X0133365Y0105490D01*
X0134479Y0107088D02*
X0130105Y0107088D01*
X0128150Y0108687D02*
X0136434Y0108687D01*
X0143741Y0108687D02*
X0200292Y0108687D01*
X0200292Y0109028D02*
X0200292Y0107958D01*
X0200702Y0106970D01*
X0201458Y0106213D01*
X0202446Y0105804D01*
X0203516Y0105804D01*
X0204504Y0106213D01*
X0205261Y0106970D01*
X0205670Y0107958D01*
X0205670Y0109028D01*
X0205261Y0110016D01*
X0204504Y0110773D01*
X0203516Y0111182D01*
X0202446Y0111182D01*
X0201458Y0110773D01*
X0200702Y0110016D01*
X0200292Y0109028D01*
X0200971Y0110285D02*
X0047735Y0110285D01*
X0047073Y0111884D02*
X0206574Y0111884D01*
X0206574Y0113482D02*
X0045590Y0113482D01*
X0038010Y0113482D02*
X0017105Y0113482D01*
X0017105Y0111884D02*
X0017530Y0111884D01*
X0017105Y0115081D02*
X0206574Y0115081D01*
X0206574Y0116679D02*
X0017105Y0116679D01*
X0017105Y0118278D02*
X0201796Y0118278D01*
X0201458Y0118418D02*
X0202446Y0118009D01*
X0203516Y0118009D01*
X0204504Y0118418D01*
X0205261Y0119174D01*
X0205670Y0120163D01*
X0205670Y0121233D01*
X0205261Y0122221D01*
X0204504Y0122977D01*
X0204100Y0123145D01*
X0205191Y0125776D01*
X0205191Y0129005D01*
X0203955Y0131987D01*
X0201672Y0134270D01*
X0198690Y0135505D01*
X0195461Y0135505D01*
X0192479Y0134270D01*
X0190196Y0131987D01*
X0188961Y0129005D01*
X0188961Y0125776D01*
X0190196Y0122794D01*
X0192479Y0120511D01*
X0195461Y0119276D01*
X0198690Y0119276D01*
X0200371Y0119972D01*
X0200702Y0119174D01*
X0201458Y0118418D01*
X0200411Y0119876D02*
X0200140Y0119876D01*
X0204166Y0118278D02*
X0206574Y0118278D01*
X0206574Y0119876D02*
X0205551Y0119876D01*
X0205570Y0121475D02*
X0206574Y0121475D01*
X0206574Y0123073D02*
X0204272Y0123073D01*
X0204733Y0124672D02*
X0206574Y0124672D01*
X0206574Y0126271D02*
X0205191Y0126271D01*
X0205191Y0127869D02*
X0206574Y0127869D01*
X0206574Y0129468D02*
X0204999Y0129468D01*
X0204337Y0131066D02*
X0206574Y0131066D01*
X0206574Y0132665D02*
X0203278Y0132665D01*
X0201679Y0134263D02*
X0206574Y0134263D01*
X0206574Y0135862D02*
X0205019Y0135862D01*
X0205261Y0136104D02*
X0205670Y0137092D01*
X0205670Y0138162D01*
X0205261Y0139150D01*
X0204504Y0139906D01*
X0203516Y0140316D01*
X0202446Y0140316D01*
X0201458Y0139906D01*
X0200702Y0139150D01*
X0200292Y0138162D01*
X0200292Y0137092D01*
X0200702Y0136104D01*
X0201458Y0135347D01*
X0202446Y0134938D01*
X0203516Y0134938D01*
X0204504Y0135347D01*
X0205261Y0136104D01*
X0205670Y0137460D02*
X0206574Y0137460D01*
X0206574Y0139059D02*
X0205299Y0139059D01*
X0206574Y0140657D02*
X0166315Y0140657D01*
X0166887Y0140084D02*
X0164494Y0142478D01*
X0161366Y0143773D01*
X0157982Y0143773D01*
X0154854Y0142478D01*
X0152461Y0140084D01*
X0151165Y0136957D01*
X0151165Y0133572D01*
X0152461Y0130445D01*
X0154854Y0128051D01*
X0157982Y0126756D01*
X0161366Y0126756D01*
X0164494Y0128051D01*
X0166887Y0130445D01*
X0168183Y0133572D01*
X0168183Y0136957D01*
X0166887Y0140084D01*
X0167312Y0139059D02*
X0200664Y0139059D01*
X0200292Y0137460D02*
X0167974Y0137460D01*
X0168183Y0135862D02*
X0200944Y0135862D01*
X0206574Y0142256D02*
X0164716Y0142256D01*
X0168183Y0134263D02*
X0192472Y0134263D01*
X0190873Y0132665D02*
X0167807Y0132665D01*
X0167145Y0131066D02*
X0189814Y0131066D01*
X0189152Y0129468D02*
X0165910Y0129468D01*
X0164054Y0127869D02*
X0188961Y0127869D01*
X0188961Y0126271D02*
X0105717Y0126271D01*
X0105837Y0125981D02*
X0105389Y0127060D01*
X0105837Y0128140D01*
X0105837Y0129327D01*
X0105382Y0130424D01*
X0104543Y0131263D01*
X0104235Y0131391D01*
X0104543Y0131518D01*
X0105382Y0132358D01*
X0105837Y0133455D01*
X0105837Y0134642D01*
X0105382Y0135739D01*
X0104543Y0136578D01*
X0104235Y0136706D01*
X0104543Y0136833D01*
X0105000Y0137290D01*
X0105351Y0136442D01*
X0107151Y0134642D01*
X0109503Y0133668D01*
X0112049Y0133668D01*
X0114402Y0134642D01*
X0116202Y0136442D01*
X0117176Y0138795D01*
X0117176Y0151511D01*
X0119057Y0153392D01*
X0134569Y0153392D01*
X0136921Y0154366D01*
X0138722Y0156167D01*
X0139696Y0158519D01*
X0139696Y0161065D01*
X0138722Y0163417D01*
X0136921Y0165218D01*
X0135336Y0165875D01*
X0135788Y0166062D01*
X0137026Y0167300D01*
X0137696Y0168917D01*
X0137696Y0170667D01*
X0137026Y0172285D01*
X0135788Y0173522D01*
X0134171Y0174192D01*
X0132421Y0174192D01*
X0130804Y0173522D01*
X0129566Y0172285D01*
X0128896Y0170667D01*
X0128896Y0168917D01*
X0129566Y0167300D01*
X0130674Y0166192D01*
X0118202Y0166192D01*
X0119310Y0167300D01*
X0119980Y0168917D01*
X0119980Y0170667D01*
X0119310Y0172285D01*
X0118072Y0173522D01*
X0116455Y0174192D01*
X0114704Y0174192D01*
X0113087Y0173522D01*
X0111849Y0172285D01*
X0111180Y0170667D01*
X0111180Y0168917D01*
X0111849Y0167300D01*
X0113087Y0166062D01*
X0113540Y0165875D01*
X0111954Y0165218D01*
X0110154Y0163417D01*
X0109569Y0162006D01*
X0107151Y0159588D01*
X0105351Y0157788D01*
X0104376Y0155435D01*
X0104376Y0147759D01*
X0103575Y0148091D01*
X0102387Y0148091D01*
X0101291Y0147637D01*
X0100451Y0146798D01*
X0099997Y0145701D01*
X0099997Y0144513D01*
X0100451Y0143417D01*
X0101291Y0142577D01*
X0102052Y0142262D01*
X0101162Y0141893D01*
X0100322Y0141054D01*
X0099868Y0139957D01*
X0099868Y0138770D01*
X0100322Y0137673D01*
X0101162Y0136833D01*
X0101470Y0136706D01*
X0101162Y0136578D01*
X0100322Y0135739D01*
X0099868Y0134642D01*
X0099868Y0133455D01*
X0100322Y0132358D01*
X0101162Y0131518D01*
X0101470Y0131391D01*
X0101162Y0131263D01*
X0100322Y0130424D01*
X0099868Y0129327D01*
X0099868Y0128140D01*
X0100315Y0127060D01*
X0099868Y0125981D01*
X0099868Y0124793D01*
X0100322Y0123697D01*
X0101162Y0122857D01*
X0102259Y0122403D01*
X0103446Y0122403D01*
X0104543Y0122857D01*
X0105382Y0123697D01*
X0105837Y0124793D01*
X0105837Y0125981D01*
X0105786Y0124672D02*
X0189418Y0124672D01*
X0190080Y0123073D02*
X0104759Y0123073D01*
X0100945Y0123073D02*
X0022107Y0123073D01*
X0022085Y0124672D02*
X0099918Y0124672D01*
X0099988Y0126271D02*
X0020693Y0126271D01*
X0018340Y0126271D02*
X0017105Y0126271D01*
X0017105Y0127869D02*
X0054123Y0127869D01*
X0054147Y0127810D02*
X0055014Y0126943D01*
X0056147Y0126473D01*
X0057374Y0126473D01*
X0058507Y0126943D01*
X0059374Y0127810D01*
X0059713Y0128629D01*
X0060053Y0127810D01*
X0060920Y0126943D01*
X0062053Y0126473D01*
X0063279Y0126473D01*
X0064412Y0126943D01*
X0065280Y0127810D01*
X0065619Y0128629D01*
X0065958Y0127810D01*
X0066825Y0126943D01*
X0067958Y0126473D01*
X0069185Y0126473D01*
X0070318Y0126943D01*
X0071185Y0127810D01*
X0071524Y0128629D01*
X0071864Y0127810D01*
X0072731Y0126943D01*
X0073864Y0126473D01*
X0075090Y0126473D01*
X0076223Y0126943D01*
X0077091Y0127810D01*
X0077560Y0128943D01*
X0077560Y0130169D01*
X0077091Y0131302D01*
X0076223Y0132169D01*
X0075404Y0132509D01*
X0076223Y0132848D01*
X0077091Y0133715D01*
X0077560Y0134848D01*
X0077560Y0136075D01*
X0077091Y0137208D01*
X0076223Y0138075D01*
X0075879Y0138217D01*
X0076223Y0138360D01*
X0077091Y0139227D01*
X0077560Y0140360D01*
X0077560Y0141586D01*
X0077091Y0142719D01*
X0076223Y0143587D01*
X0075090Y0144056D01*
X0073864Y0144056D01*
X0072731Y0143587D01*
X0071864Y0142719D01*
X0071524Y0141900D01*
X0071185Y0142719D01*
X0070318Y0143587D01*
X0069337Y0143993D01*
X0070563Y0143993D01*
X0071696Y0144462D01*
X0072563Y0145329D01*
X0073032Y0146462D01*
X0073032Y0147689D01*
X0072563Y0148822D01*
X0071696Y0149689D01*
X0070563Y0150158D01*
X0069851Y0150158D01*
X0070188Y0150496D01*
X0070592Y0151470D01*
X0070592Y0152524D01*
X0070239Y0153375D01*
X0070592Y0154226D01*
X0070592Y0155280D01*
X0070239Y0156131D01*
X0070592Y0156982D01*
X0070592Y0158036D01*
X0070188Y0159010D01*
X0069851Y0159347D01*
X0070563Y0159347D01*
X0071696Y0159817D01*
X0072563Y0160684D01*
X0073032Y0161817D01*
X0073032Y0163043D01*
X0072563Y0164176D01*
X0071696Y0165043D01*
X0070563Y0165513D01*
X0069336Y0165513D01*
X0068203Y0165043D01*
X0067489Y0164329D01*
X0066775Y0165043D01*
X0065642Y0165513D01*
X0064415Y0165513D01*
X0063282Y0165043D01*
X0062568Y0164329D01*
X0061853Y0165043D01*
X0060720Y0165513D01*
X0059494Y0165513D01*
X0058361Y0165043D01*
X0057494Y0164176D01*
X0057024Y0163043D01*
X0057024Y0161817D01*
X0057494Y0160684D01*
X0058361Y0159817D01*
X0059494Y0159347D01*
X0060127Y0159347D01*
X0059790Y0159010D01*
X0059386Y0158036D01*
X0059386Y0156982D01*
X0059739Y0156131D01*
X0059386Y0155280D01*
X0059386Y0154226D01*
X0059739Y0153375D01*
X0059386Y0152524D01*
X0059386Y0151470D01*
X0059790Y0150496D01*
X0060127Y0150158D01*
X0059494Y0150158D01*
X0058361Y0149689D01*
X0057494Y0148822D01*
X0057024Y0147689D01*
X0057024Y0146462D01*
X0057494Y0145329D01*
X0058361Y0144462D01*
X0059494Y0143993D01*
X0060720Y0143993D01*
X0061853Y0144462D01*
X0062568Y0145177D01*
X0063282Y0144462D01*
X0064415Y0143993D01*
X0065642Y0143993D01*
X0066775Y0144462D01*
X0067489Y0145177D01*
X0068203Y0144462D01*
X0069184Y0144056D01*
X0067958Y0144056D01*
X0066825Y0143587D01*
X0065958Y0142719D01*
X0065619Y0141900D01*
X0065280Y0142719D01*
X0064412Y0143587D01*
X0063279Y0144056D01*
X0062053Y0144056D01*
X0060920Y0143587D01*
X0060053Y0142719D01*
X0059713Y0141900D01*
X0059374Y0142719D01*
X0058507Y0143587D01*
X0057374Y0144056D01*
X0056147Y0144056D01*
X0055014Y0143587D01*
X0054147Y0142719D01*
X0053678Y0141586D01*
X0053678Y0140360D01*
X0054147Y0139227D01*
X0055014Y0138360D01*
X0055359Y0138217D01*
X0055014Y0138075D01*
X0054147Y0137208D01*
X0053678Y0136075D01*
X0053678Y0134848D01*
X0054147Y0133715D01*
X0055014Y0132848D01*
X0055834Y0132509D01*
X0055014Y0132169D01*
X0054147Y0131302D01*
X0053678Y0130169D01*
X0053678Y0128943D01*
X0054147Y0127810D01*
X0053678Y0129468D02*
X0017105Y0129468D01*
X0017105Y0131066D02*
X0054049Y0131066D01*
X0055457Y0132665D02*
X0017105Y0132665D01*
X0017105Y0134263D02*
X0053920Y0134263D01*
X0053678Y0135862D02*
X0021554Y0135862D01*
X0022205Y0137460D02*
X0054400Y0137460D01*
X0054316Y0139059D02*
X0021834Y0139059D01*
X0017199Y0139059D02*
X0017105Y0139059D01*
X0017105Y0140657D02*
X0053678Y0140657D01*
X0053955Y0142256D02*
X0017105Y0142256D01*
X0017105Y0143854D02*
X0040435Y0143854D01*
X0040812Y0143698D02*
X0039788Y0144122D01*
X0039004Y0144906D01*
X0038580Y0145931D01*
X0038580Y0147039D01*
X0039004Y0148064D01*
X0039788Y0148848D01*
X0040812Y0149272D01*
X0041043Y0149272D01*
X0041254Y0149483D01*
X0041254Y0158798D01*
X0041091Y0158961D01*
X0040666Y0159986D01*
X0040666Y0161095D01*
X0041091Y0162119D01*
X0041875Y0162903D01*
X0042899Y0163328D01*
X0044008Y0163328D01*
X0045032Y0162903D01*
X0045817Y0162119D01*
X0046241Y0161095D01*
X0046241Y0159986D01*
X0045817Y0158961D01*
X0045654Y0158798D01*
X0045654Y0147660D01*
X0044365Y0146372D01*
X0044154Y0146161D01*
X0044154Y0145931D01*
X0043730Y0144906D01*
X0042946Y0144122D01*
X0041921Y0143698D01*
X0040812Y0143698D01*
X0042299Y0143854D02*
X0055660Y0143854D01*
X0057861Y0143854D02*
X0061566Y0143854D01*
X0063766Y0143854D02*
X0067471Y0143854D01*
X0069672Y0143854D02*
X0073377Y0143854D01*
X0072614Y0145453D02*
X0099997Y0145453D01*
X0100270Y0143854D02*
X0075577Y0143854D01*
X0077283Y0142256D02*
X0102037Y0142256D01*
X0100158Y0140657D02*
X0077560Y0140657D01*
X0076922Y0139059D02*
X0099868Y0139059D01*
X0100535Y0137460D02*
X0076838Y0137460D01*
X0077560Y0135862D02*
X0100445Y0135862D01*
X0099868Y0134263D02*
X0077317Y0134263D01*
X0075780Y0132665D02*
X0100195Y0132665D01*
X0100965Y0131066D02*
X0077188Y0131066D01*
X0077560Y0129468D02*
X0099926Y0129468D01*
X0099980Y0127869D02*
X0077115Y0127869D01*
X0071839Y0127869D02*
X0071210Y0127869D01*
X0065934Y0127869D02*
X0065304Y0127869D01*
X0060028Y0127869D02*
X0059399Y0127869D01*
X0059566Y0142256D02*
X0059861Y0142256D01*
X0057443Y0145453D02*
X0043956Y0145453D01*
X0045044Y0147051D02*
X0057024Y0147051D01*
X0057422Y0148650D02*
X0045654Y0148650D01*
X0045654Y0150248D02*
X0060037Y0150248D01*
X0059386Y0151847D02*
X0045654Y0151847D01*
X0045654Y0153445D02*
X0059709Y0153445D01*
X0059386Y0155044D02*
X0045654Y0155044D01*
X0045654Y0156642D02*
X0059527Y0156642D01*
X0059471Y0158241D02*
X0045654Y0158241D01*
X0046180Y0159839D02*
X0058338Y0159839D01*
X0057181Y0161438D02*
X0046099Y0161438D01*
X0044711Y0163036D02*
X0057024Y0163036D01*
X0057952Y0164635D02*
X0054219Y0164635D01*
X0054330Y0164746D02*
X0054785Y0165843D01*
X0054785Y0167030D01*
X0054330Y0168127D01*
X0053491Y0168966D01*
X0052394Y0169420D01*
X0051207Y0169420D01*
X0050110Y0168966D01*
X0049270Y0168127D01*
X0048816Y0167030D01*
X0048816Y0165843D01*
X0049270Y0164746D01*
X0050110Y0163906D01*
X0051207Y0163452D01*
X0052394Y0163452D01*
X0053491Y0163906D01*
X0054330Y0164746D01*
X0054785Y0166233D02*
X0112916Y0166233D01*
X0111629Y0167832D02*
X0054452Y0167832D01*
X0055605Y0170840D02*
X0056738Y0170371D01*
X0057964Y0170371D01*
X0059097Y0170840D01*
X0059713Y0171456D01*
X0060329Y0170840D01*
X0061462Y0170371D01*
X0062689Y0170371D01*
X0063822Y0170840D01*
X0064689Y0171707D01*
X0065158Y0172840D01*
X0065158Y0174067D01*
X0064689Y0175200D01*
X0064073Y0175816D01*
X0064689Y0176432D01*
X0065158Y0177565D01*
X0065158Y0178791D01*
X0064689Y0179924D01*
X0064270Y0180343D01*
X0064689Y0180762D01*
X0065158Y0181895D01*
X0065158Y0183122D01*
X0064689Y0184255D01*
X0063822Y0185122D01*
X0062689Y0185591D01*
X0061462Y0185591D01*
X0060329Y0185122D01*
X0059713Y0184506D01*
X0059097Y0185122D01*
X0057964Y0185591D01*
X0056738Y0185591D01*
X0055605Y0185122D01*
X0054738Y0184255D01*
X0054269Y0183122D01*
X0054269Y0181895D01*
X0054738Y0180762D01*
X0055157Y0180343D01*
X0054738Y0179924D01*
X0054269Y0178791D01*
X0054269Y0177865D01*
X0054172Y0178097D01*
X0053333Y0178936D01*
X0052236Y0179391D01*
X0051049Y0179391D01*
X0049952Y0178936D01*
X0049113Y0178097D01*
X0048658Y0177000D01*
X0048658Y0175813D01*
X0049113Y0174716D01*
X0049952Y0173876D01*
X0051049Y0173422D01*
X0052236Y0173422D01*
X0053333Y0173876D01*
X0054172Y0174716D01*
X0054627Y0175813D01*
X0054627Y0176700D01*
X0054738Y0176432D01*
X0055354Y0175816D01*
X0054738Y0175200D01*
X0054269Y0174067D01*
X0054269Y0172840D01*
X0054738Y0171707D01*
X0055605Y0170840D01*
X0055416Y0171029D02*
X0017105Y0171029D01*
X0017105Y0172627D02*
X0054357Y0172627D01*
X0054334Y0174226D02*
X0053682Y0174226D01*
X0054627Y0175824D02*
X0055345Y0175824D01*
X0054364Y0179021D02*
X0053127Y0179021D01*
X0054880Y0180620D02*
X0021665Y0180620D01*
X0022205Y0179021D02*
X0050158Y0179021D01*
X0048833Y0177423D02*
X0021777Y0177423D01*
X0017256Y0177423D02*
X0017105Y0177423D01*
X0017105Y0175824D02*
X0048658Y0175824D01*
X0049603Y0174226D02*
X0017105Y0174226D01*
X0017105Y0169430D02*
X0111180Y0169430D01*
X0111329Y0171029D02*
X0064010Y0171029D01*
X0065070Y0172627D02*
X0097912Y0172627D01*
X0098125Y0172415D02*
X0099258Y0171946D01*
X0100484Y0171946D01*
X0101617Y0172415D01*
X0102484Y0173282D01*
X0102954Y0174415D01*
X0102954Y0175642D01*
X0102484Y0176775D01*
X0101671Y0177587D01*
X0102484Y0178400D01*
X0102954Y0179533D01*
X0102954Y0180760D01*
X0102484Y0181893D01*
X0101671Y0182706D01*
X0102484Y0183518D01*
X0102954Y0184651D01*
X0102954Y0185878D01*
X0102484Y0187011D01*
X0101617Y0187878D01*
X0100484Y0188347D01*
X0099258Y0188347D01*
X0098125Y0187878D01*
X0097257Y0187011D01*
X0096788Y0185878D01*
X0096788Y0184651D01*
X0097257Y0183518D01*
X0098070Y0182706D01*
X0097257Y0181893D01*
X0096788Y0180760D01*
X0096788Y0179533D01*
X0097257Y0178400D01*
X0098070Y0177587D01*
X0097257Y0176775D01*
X0096788Y0175642D01*
X0096788Y0174415D01*
X0097257Y0173282D01*
X0098125Y0172415D01*
X0096867Y0174226D02*
X0065092Y0174226D01*
X0064082Y0175824D02*
X0096864Y0175824D01*
X0097906Y0177423D02*
X0065099Y0177423D01*
X0065063Y0179021D02*
X0097000Y0179021D01*
X0096788Y0180620D02*
X0064546Y0180620D01*
X0065158Y0182218D02*
X0097583Y0182218D01*
X0097134Y0183817D02*
X0064870Y0183817D01*
X0063113Y0185415D02*
X0096788Y0185415D01*
X0097261Y0187014D02*
X0017948Y0187014D01*
X0017385Y0185415D02*
X0056313Y0185415D01*
X0058389Y0185415D02*
X0061038Y0185415D01*
X0056982Y0188612D02*
X0067484Y0188612D01*
X0066447Y0190211D02*
X0058020Y0190211D01*
X0057826Y0191809D02*
X0066640Y0191809D01*
X0071605Y0191809D02*
X0080420Y0191809D01*
X0080226Y0190211D02*
X0071799Y0190211D01*
X0070762Y0188612D02*
X0081263Y0188612D01*
X0084541Y0188612D02*
X0095043Y0188612D01*
X0094006Y0190211D02*
X0085579Y0190211D01*
X0085385Y0191809D02*
X0094199Y0191809D01*
X0099164Y0191809D02*
X0107979Y0191809D01*
X0107785Y0190211D02*
X0099358Y0190211D01*
X0098321Y0188612D02*
X0108823Y0188612D01*
X0112100Y0188612D02*
X0122602Y0188612D01*
X0121565Y0190211D02*
X0113138Y0190211D01*
X0112944Y0191809D02*
X0121758Y0191809D01*
X0126724Y0191809D02*
X0135538Y0191809D01*
X0135344Y0190211D02*
X0126917Y0190211D01*
X0125880Y0188612D02*
X0136382Y0188612D01*
X0139659Y0188612D02*
X0150161Y0188612D01*
X0149124Y0190211D02*
X0140697Y0190211D01*
X0140503Y0191809D02*
X0149317Y0191809D01*
X0153439Y0188612D02*
X0163941Y0188612D01*
X0162903Y0190211D02*
X0154476Y0190211D01*
X0154283Y0191809D02*
X0163097Y0191809D01*
X0168062Y0191809D02*
X0176876Y0191809D01*
X0176683Y0190211D02*
X0168256Y0190211D01*
X0167218Y0188612D02*
X0177720Y0188612D01*
X0180998Y0188612D02*
X0191500Y0188612D01*
X0190462Y0190211D02*
X0182035Y0190211D01*
X0181842Y0191809D02*
X0190656Y0191809D01*
X0195621Y0191809D02*
X0201032Y0191809D01*
X0203409Y0190211D02*
X0195815Y0190211D01*
X0194777Y0188612D02*
X0204799Y0188612D01*
X0205731Y0187014D02*
X0102481Y0187014D01*
X0102954Y0185415D02*
X0206294Y0185415D01*
X0206574Y0183817D02*
X0102608Y0183817D01*
X0102158Y0182218D02*
X0206574Y0182218D01*
X0206574Y0180620D02*
X0205129Y0180620D01*
X0205261Y0180489D02*
X0204504Y0181245D01*
X0203516Y0181654D01*
X0202446Y0181654D01*
X0201458Y0181245D01*
X0200702Y0180489D01*
X0200292Y0179500D01*
X0200292Y0178430D01*
X0200702Y0177442D01*
X0201458Y0176686D01*
X0202446Y0176276D01*
X0203516Y0176276D01*
X0204504Y0176686D01*
X0205261Y0177442D01*
X0205670Y0178430D01*
X0205670Y0179500D01*
X0205261Y0180489D01*
X0205670Y0179021D02*
X0206574Y0179021D01*
X0206574Y0177423D02*
X0205241Y0177423D01*
X0206574Y0175824D02*
X0102878Y0175824D01*
X0102875Y0174226D02*
X0145992Y0174226D01*
X0146020Y0174240D02*
X0145347Y0173897D01*
X0144736Y0173453D01*
X0144202Y0172919D01*
X0143758Y0172308D01*
X0143613Y0172024D01*
X0143389Y0172248D01*
X0142256Y0172717D01*
X0141029Y0172717D01*
X0139896Y0172248D01*
X0139029Y0171381D01*
X0138560Y0170248D01*
X0138560Y0169021D01*
X0139029Y0167888D01*
X0139896Y0167021D01*
X0141029Y0166552D01*
X0142256Y0166552D01*
X0143389Y0167021D01*
X0143719Y0167352D01*
X0143758Y0167276D01*
X0144202Y0166665D01*
X0144736Y0166131D01*
X0145347Y0165687D01*
X0146020Y0165344D01*
X0146739Y0165110D01*
X0147485Y0164992D01*
X0147663Y0164992D01*
X0147663Y0169592D01*
X0148063Y0169592D01*
X0148063Y0164992D01*
X0148241Y0164992D01*
X0148987Y0165110D01*
X0149706Y0165344D01*
X0150379Y0165687D01*
X0150990Y0166131D01*
X0151524Y0166665D01*
X0151968Y0167276D01*
X0152311Y0167950D01*
X0152545Y0168668D01*
X0152663Y0169414D01*
X0152663Y0169592D01*
X0148063Y0169592D01*
X0148063Y0169992D01*
X0152663Y0169992D01*
X0152663Y0170170D01*
X0152545Y0170916D01*
X0152311Y0171635D01*
X0151968Y0172308D01*
X0151524Y0172919D01*
X0150990Y0173453D01*
X0150379Y0173897D01*
X0149706Y0174240D01*
X0148987Y0174474D01*
X0148241Y0174592D01*
X0148063Y0174592D01*
X0148063Y0169992D01*
X0147663Y0169992D01*
X0147663Y0174592D01*
X0147485Y0174592D01*
X0146739Y0174474D01*
X0146020Y0174240D01*
X0147663Y0174226D02*
X0148063Y0174226D01*
X0148063Y0172627D02*
X0147663Y0172627D01*
X0147663Y0171029D02*
X0148063Y0171029D01*
X0148063Y0169430D02*
X0147663Y0169430D01*
X0147663Y0167832D02*
X0148063Y0167832D01*
X0148063Y0166233D02*
X0147663Y0166233D01*
X0146988Y0164192D02*
X0145371Y0163522D01*
X0144133Y0162285D01*
X0143463Y0160667D01*
X0143463Y0158917D01*
X0144133Y0157300D01*
X0145371Y0156062D01*
X0146988Y0155392D01*
X0148738Y0155392D01*
X0150355Y0156062D01*
X0151593Y0157300D01*
X0152263Y0158917D01*
X0152263Y0160667D01*
X0151593Y0162285D01*
X0150355Y0163522D01*
X0148738Y0164192D01*
X0146988Y0164192D01*
X0144885Y0163036D02*
X0138880Y0163036D01*
X0139542Y0161438D02*
X0143782Y0161438D01*
X0143463Y0159839D02*
X0139696Y0159839D01*
X0139581Y0158241D02*
X0143743Y0158241D01*
X0144790Y0156642D02*
X0138919Y0156642D01*
X0137599Y0155044D02*
X0206574Y0155044D01*
X0206574Y0156642D02*
X0150936Y0156642D01*
X0151983Y0158241D02*
X0206574Y0158241D01*
X0206574Y0159839D02*
X0152263Y0159839D01*
X0151944Y0161438D02*
X0206574Y0161438D01*
X0206574Y0163036D02*
X0204634Y0163036D01*
X0204504Y0162906D02*
X0205261Y0163663D01*
X0205670Y0164651D01*
X0205670Y0165721D01*
X0205261Y0166709D01*
X0204504Y0167465D01*
X0203516Y0167875D01*
X0202446Y0167875D01*
X0201458Y0167465D01*
X0200702Y0166709D01*
X0200292Y0165721D01*
X0200292Y0164651D01*
X0200702Y0163663D01*
X0201458Y0162906D01*
X0202446Y0162497D01*
X0203516Y0162497D01*
X0204504Y0162906D01*
X0205663Y0164635D02*
X0206574Y0164635D01*
X0206574Y0166233D02*
X0205458Y0166233D01*
X0206574Y0167832D02*
X0203620Y0167832D01*
X0202342Y0167832D02*
X0152251Y0167832D01*
X0152663Y0169430D02*
X0206574Y0169430D01*
X0206574Y0171029D02*
X0152508Y0171029D01*
X0151736Y0172627D02*
X0206574Y0172627D01*
X0206574Y0174226D02*
X0149734Y0174226D01*
X0143990Y0172627D02*
X0142473Y0172627D01*
X0140812Y0172627D02*
X0136683Y0172627D01*
X0137546Y0171029D02*
X0138883Y0171029D01*
X0138560Y0169430D02*
X0137696Y0169430D01*
X0137247Y0167832D02*
X0139086Y0167832D01*
X0135960Y0166233D02*
X0144634Y0166233D01*
X0151092Y0166233D02*
X0200504Y0166233D01*
X0200299Y0164635D02*
X0137504Y0164635D01*
X0130632Y0166233D02*
X0118243Y0166233D01*
X0119530Y0167832D02*
X0120831Y0167832D01*
X0120840Y0167810D02*
X0121707Y0166943D01*
X0122840Y0166473D01*
X0124067Y0166473D01*
X0125200Y0166943D01*
X0126067Y0167810D01*
X0126536Y0168943D01*
X0126536Y0170169D01*
X0126067Y0171302D01*
X0125200Y0172169D01*
X0124067Y0172639D01*
X0122840Y0172639D01*
X0121707Y0172169D01*
X0120840Y0171302D01*
X0120371Y0170169D01*
X0120371Y0168943D01*
X0120840Y0167810D01*
X0120371Y0169430D02*
X0119980Y0169430D01*
X0119830Y0171029D02*
X0120727Y0171029D01*
X0118967Y0172627D02*
X0122813Y0172627D01*
X0124094Y0172627D02*
X0129909Y0172627D01*
X0129046Y0171029D02*
X0126180Y0171029D01*
X0126536Y0169430D02*
X0128896Y0169430D01*
X0129346Y0167832D02*
X0126076Y0167832D01*
X0112192Y0172627D02*
X0101829Y0172627D01*
X0101836Y0177423D02*
X0200721Y0177423D01*
X0200292Y0179021D02*
X0102741Y0179021D01*
X0102954Y0180620D02*
X0200833Y0180620D01*
X0201328Y0163036D02*
X0150841Y0163036D01*
X0134697Y0153445D02*
X0201217Y0153445D01*
X0201458Y0153686D02*
X0200702Y0152929D01*
X0200292Y0151941D01*
X0200292Y0150871D01*
X0200702Y0149883D01*
X0201458Y0149127D01*
X0202446Y0148717D01*
X0203516Y0148717D01*
X0204504Y0149127D01*
X0205261Y0149883D01*
X0205670Y0150871D01*
X0205670Y0151941D01*
X0205261Y0152929D01*
X0204504Y0153686D01*
X0203516Y0154095D01*
X0202446Y0154095D01*
X0201458Y0153686D01*
X0200292Y0151847D02*
X0117512Y0151847D01*
X0117176Y0150248D02*
X0200550Y0150248D01*
X0205412Y0150248D02*
X0206574Y0150248D01*
X0206574Y0148650D02*
X0117176Y0148650D01*
X0117176Y0147051D02*
X0206574Y0147051D01*
X0206574Y0145453D02*
X0117176Y0145453D01*
X0117176Y0143854D02*
X0206574Y0143854D01*
X0206574Y0151847D02*
X0205670Y0151847D01*
X0206574Y0153445D02*
X0204745Y0153445D01*
X0191515Y0121475D02*
X0020816Y0121475D01*
X0018217Y0121475D02*
X0017105Y0121475D01*
X0017105Y0119876D02*
X0194011Y0119876D01*
X0204991Y0110285D02*
X0206574Y0110285D01*
X0206574Y0108687D02*
X0205670Y0108687D01*
X0205310Y0107088D02*
X0206574Y0107088D01*
X0206574Y0105490D02*
X0146809Y0105490D01*
X0147471Y0103891D02*
X0206574Y0103891D01*
X0206574Y0102293D02*
X0147612Y0102293D01*
X0147612Y0100694D02*
X0166247Y0100694D01*
X0171999Y0100694D02*
X0206574Y0100694D01*
X0206574Y0099096D02*
X0173284Y0099096D01*
X0173771Y0097497D02*
X0200571Y0097497D01*
X0200702Y0097811D02*
X0200292Y0096823D01*
X0200292Y0095753D01*
X0200702Y0094765D01*
X0201458Y0094009D01*
X0202446Y0093599D01*
X0203516Y0093599D01*
X0204504Y0094009D01*
X0205261Y0094765D01*
X0205670Y0095753D01*
X0205670Y0096823D01*
X0205261Y0097811D01*
X0204504Y0098568D01*
X0203516Y0098977D01*
X0202446Y0098977D01*
X0201458Y0098568D01*
X0200702Y0097811D01*
X0200292Y0095899D02*
X0189063Y0095899D01*
X0189119Y0095843D02*
X0188363Y0096599D01*
X0187374Y0097009D01*
X0186304Y0097009D01*
X0185316Y0096599D01*
X0184560Y0095843D01*
X0184150Y0094855D01*
X0184150Y0093785D01*
X0184560Y0092796D01*
X0185316Y0092040D01*
X0186304Y0091631D01*
X0187374Y0091631D01*
X0188363Y0092040D01*
X0189119Y0092796D01*
X0189528Y0093785D01*
X0189528Y0094855D01*
X0189119Y0095843D01*
X0189528Y0094300D02*
X0201166Y0094300D01*
X0204796Y0094300D02*
X0206574Y0094300D01*
X0206574Y0092702D02*
X0189024Y0092702D01*
X0184654Y0092702D02*
X0170899Y0092702D01*
X0170047Y0091645D02*
X0168198Y0091645D01*
X0166490Y0090937D01*
X0165182Y0089630D01*
X0164475Y0087921D01*
X0164475Y0086072D01*
X0165182Y0084364D01*
X0166490Y0083056D01*
X0168198Y0082349D01*
X0170047Y0082349D01*
X0171756Y0083056D01*
X0173063Y0084364D01*
X0173771Y0086072D01*
X0173771Y0087921D01*
X0173063Y0089630D01*
X0171756Y0090937D01*
X0170047Y0091645D01*
X0171355Y0091103D02*
X0206574Y0091103D01*
X0206574Y0089505D02*
X0173115Y0089505D01*
X0173771Y0087906D02*
X0206574Y0087906D01*
X0206574Y0086308D02*
X0204560Y0086308D01*
X0204504Y0086363D02*
X0203516Y0086772D01*
X0202446Y0086772D01*
X0201458Y0086363D01*
X0200702Y0085607D01*
X0200292Y0084618D01*
X0200292Y0083549D01*
X0200702Y0082560D01*
X0201458Y0081804D01*
X0202446Y0081394D01*
X0203516Y0081394D01*
X0204504Y0081804D01*
X0205261Y0082560D01*
X0205670Y0083549D01*
X0205670Y0084618D01*
X0205261Y0085607D01*
X0204504Y0086363D01*
X0205632Y0084709D02*
X0206574Y0084709D01*
X0206574Y0083111D02*
X0205489Y0083111D01*
X0206574Y0081512D02*
X0203800Y0081512D01*
X0202162Y0081512D02*
X0189337Y0081512D01*
X0189528Y0081974D02*
X0189119Y0080985D01*
X0188363Y0080229D01*
X0187374Y0079820D01*
X0186304Y0079820D01*
X0185316Y0080229D01*
X0184560Y0080985D01*
X0184150Y0081974D01*
X0184150Y0083044D01*
X0184560Y0084032D01*
X0185316Y0084788D01*
X0186304Y0085198D01*
X0187374Y0085198D01*
X0188363Y0084788D01*
X0189119Y0084032D01*
X0189528Y0083044D01*
X0189528Y0081974D01*
X0189501Y0083111D02*
X0200473Y0083111D01*
X0200330Y0084709D02*
X0188442Y0084709D01*
X0185237Y0084709D02*
X0173206Y0084709D01*
X0173771Y0086308D02*
X0201403Y0086308D01*
X0206574Y0079914D02*
X0187601Y0079914D01*
X0186078Y0079914D02*
X0172779Y0079914D01*
X0173063Y0079630D02*
X0171756Y0080937D01*
X0170047Y0081645D01*
X0168198Y0081645D01*
X0166490Y0080937D01*
X0165182Y0079630D01*
X0164475Y0077921D01*
X0164475Y0076072D01*
X0165182Y0074364D01*
X0166490Y0073056D01*
X0168198Y0072349D01*
X0170047Y0072349D01*
X0171756Y0073056D01*
X0173063Y0074364D01*
X0173771Y0076072D01*
X0173771Y0077921D01*
X0173063Y0079630D01*
X0173608Y0078315D02*
X0206574Y0078315D01*
X0206574Y0076717D02*
X0173771Y0076717D01*
X0173376Y0075118D02*
X0206574Y0075118D01*
X0206574Y0073520D02*
X0205143Y0073520D01*
X0205261Y0073402D02*
X0204504Y0074158D01*
X0203516Y0074568D01*
X0202446Y0074568D01*
X0201458Y0074158D01*
X0200702Y0073402D01*
X0200292Y0072414D01*
X0200292Y0071344D01*
X0200702Y0070356D01*
X0201458Y0069599D01*
X0202446Y0069190D01*
X0203516Y0069190D01*
X0204504Y0069599D01*
X0205261Y0070356D01*
X0205670Y0071344D01*
X0205670Y0072414D01*
X0205261Y0073402D01*
X0205670Y0071921D02*
X0206574Y0071921D01*
X0206574Y0070323D02*
X0205228Y0070323D01*
X0206574Y0068724D02*
X0189528Y0068724D01*
X0189528Y0068194D02*
X0189119Y0067206D01*
X0188363Y0066450D01*
X0187374Y0066040D01*
X0186304Y0066040D01*
X0185316Y0066450D01*
X0184560Y0067206D01*
X0184150Y0068194D01*
X0184150Y0069264D01*
X0184560Y0070252D01*
X0185316Y0071009D01*
X0186304Y0071418D01*
X0187374Y0071418D01*
X0188363Y0071009D01*
X0189119Y0070252D01*
X0189528Y0069264D01*
X0189528Y0068194D01*
X0189039Y0067126D02*
X0206574Y0067126D01*
X0206574Y0065527D02*
X0173545Y0065527D01*
X0173771Y0066072D02*
X0173063Y0064364D01*
X0171756Y0063056D01*
X0170047Y0062349D01*
X0168198Y0062349D01*
X0166490Y0063056D01*
X0165182Y0064364D01*
X0164475Y0066072D01*
X0164475Y0067921D01*
X0165182Y0069630D01*
X0166490Y0070937D01*
X0168198Y0071645D01*
X0170047Y0071645D01*
X0171756Y0070937D01*
X0173063Y0069630D01*
X0173771Y0067921D01*
X0173771Y0066072D01*
X0173771Y0067126D02*
X0184640Y0067126D01*
X0184150Y0068724D02*
X0173438Y0068724D01*
X0172370Y0070323D02*
X0184630Y0070323D01*
X0189049Y0070323D02*
X0200734Y0070323D01*
X0200292Y0071921D02*
X0160318Y0071921D01*
X0160318Y0070323D02*
X0165875Y0070323D01*
X0164807Y0068724D02*
X0160318Y0068724D01*
X0160318Y0067126D02*
X0164475Y0067126D01*
X0164701Y0065527D02*
X0160318Y0065527D01*
X0160318Y0063929D02*
X0165618Y0063929D01*
X0166490Y0060937D02*
X0168198Y0061645D01*
X0170047Y0061645D01*
X0171756Y0060937D01*
X0173063Y0059630D01*
X0173771Y0057921D01*
X0173771Y0056072D01*
X0173063Y0054364D01*
X0171756Y0053056D01*
X0170047Y0052349D01*
X0168198Y0052349D01*
X0166490Y0053056D01*
X0165182Y0054364D01*
X0164475Y0056072D01*
X0164475Y0057921D01*
X0165182Y0059630D01*
X0166490Y0060937D01*
X0166284Y0060732D02*
X0160318Y0060732D01*
X0160318Y0062330D02*
X0202367Y0062330D01*
X0202446Y0062363D02*
X0201458Y0061954D01*
X0200702Y0061197D01*
X0200292Y0060209D01*
X0200292Y0059139D01*
X0200702Y0058151D01*
X0201458Y0057394D01*
X0202446Y0056985D01*
X0203516Y0056985D01*
X0204504Y0057394D01*
X0205261Y0058151D01*
X0205670Y0059139D01*
X0205670Y0060209D01*
X0205261Y0061197D01*
X0204504Y0061954D01*
X0203516Y0062363D01*
X0202446Y0062363D01*
X0203595Y0062330D02*
X0206574Y0062330D01*
X0206574Y0060732D02*
X0205454Y0060732D01*
X0205668Y0059133D02*
X0206574Y0059133D01*
X0206574Y0057535D02*
X0204644Y0057535D01*
X0206574Y0055936D02*
X0189528Y0055936D01*
X0189528Y0055596D02*
X0189119Y0054608D01*
X0188363Y0053851D01*
X0187374Y0053442D01*
X0186304Y0053442D01*
X0185316Y0053851D01*
X0184560Y0054608D01*
X0184150Y0055596D01*
X0184150Y0056666D01*
X0184560Y0057654D01*
X0185316Y0058410D01*
X0186304Y0058820D01*
X0187374Y0058820D01*
X0188363Y0058410D01*
X0189119Y0057654D01*
X0189528Y0056666D01*
X0189528Y0055596D01*
X0188849Y0054337D02*
X0206574Y0054337D01*
X0206574Y0052739D02*
X0170989Y0052739D01*
X0173037Y0054337D02*
X0184830Y0054337D01*
X0184150Y0055936D02*
X0173714Y0055936D01*
X0173771Y0057535D02*
X0184510Y0057535D01*
X0189168Y0057535D02*
X0201318Y0057535D01*
X0200295Y0059133D02*
X0173269Y0059133D01*
X0171961Y0060732D02*
X0200509Y0060732D01*
X0206574Y0063929D02*
X0172628Y0063929D01*
X0164977Y0059133D02*
X0160318Y0059133D01*
X0160318Y0057535D02*
X0164475Y0057535D01*
X0164531Y0055936D02*
X0160318Y0055936D01*
X0160318Y0054337D02*
X0165209Y0054337D01*
X0167256Y0052739D02*
X0160318Y0052739D01*
X0160318Y0051140D02*
X0206574Y0051140D01*
X0206574Y0049542D02*
X0204711Y0049542D01*
X0204504Y0049749D02*
X0203516Y0050158D01*
X0202446Y0050158D01*
X0201458Y0049749D01*
X0200702Y0048992D01*
X0200292Y0048004D01*
X0200292Y0046934D01*
X0200702Y0045946D01*
X0201458Y0045190D01*
X0202446Y0044780D01*
X0203516Y0044780D01*
X0204504Y0045190D01*
X0205261Y0045946D01*
X0205670Y0046934D01*
X0205670Y0048004D01*
X0205261Y0048992D01*
X0204504Y0049749D01*
X0205670Y0047943D02*
X0206574Y0047943D01*
X0206574Y0046345D02*
X0205426Y0046345D01*
X0206574Y0044746D02*
X0160318Y0044746D01*
X0160318Y0043148D02*
X0206574Y0043148D01*
X0206574Y0041549D02*
X0160318Y0041549D01*
X0160318Y0039951D02*
X0206574Y0039951D01*
X0206574Y0038352D02*
X0160318Y0038352D01*
X0160237Y0036754D02*
X0200687Y0036754D01*
X0200702Y0036788D02*
X0200292Y0035799D01*
X0200292Y0034730D01*
X0200702Y0033741D01*
X0201458Y0032985D01*
X0202446Y0032576D01*
X0203516Y0032576D01*
X0204504Y0032985D01*
X0205261Y0033741D01*
X0205670Y0034730D01*
X0205670Y0035799D01*
X0205261Y0036788D01*
X0204504Y0037544D01*
X0203516Y0037954D01*
X0202446Y0037954D01*
X0201458Y0037544D01*
X0200702Y0036788D01*
X0200292Y0035155D02*
X0159292Y0035155D01*
X0156547Y0033557D02*
X0200886Y0033557D01*
X0202446Y0030080D02*
X0201458Y0029670D01*
X0200702Y0028914D01*
X0200292Y0027925D01*
X0200292Y0026856D01*
X0200702Y0025867D01*
X0201458Y0025111D01*
X0202446Y0024702D01*
X0203516Y0024702D01*
X0204504Y0025111D01*
X0205261Y0025867D01*
X0205670Y0026856D01*
X0205670Y0027925D01*
X0205261Y0028914D01*
X0204504Y0029670D01*
X0203516Y0030080D01*
X0202446Y0030080D01*
X0200638Y0028761D02*
X0147714Y0028761D01*
X0150658Y0030360D02*
X0206574Y0030360D01*
X0206574Y0031958D02*
X0153603Y0031958D01*
X0148184Y0036754D02*
X0083859Y0036754D01*
X0082261Y0038352D02*
X0141355Y0038352D01*
X0141758Y0038186D02*
X0142945Y0038186D01*
X0144042Y0038640D01*
X0144713Y0039312D01*
X0145385Y0038640D01*
X0146482Y0038186D01*
X0147669Y0038186D01*
X0148766Y0038640D01*
X0149606Y0039480D01*
X0150060Y0040576D01*
X0150060Y0041764D01*
X0149606Y0042861D01*
X0148766Y0043700D01*
X0147669Y0044154D01*
X0146482Y0044154D01*
X0145385Y0043700D01*
X0144713Y0043028D01*
X0144042Y0043700D01*
X0142945Y0044154D01*
X0141758Y0044154D01*
X0140661Y0043700D01*
X0139821Y0042861D01*
X0139367Y0041764D01*
X0139367Y0040576D01*
X0139821Y0039480D01*
X0140661Y0038640D01*
X0141758Y0038186D01*
X0143347Y0038352D02*
X0146080Y0038352D01*
X0148071Y0038352D02*
X0151128Y0038352D01*
X0149801Y0039951D02*
X0153518Y0039951D01*
X0153518Y0041549D02*
X0150060Y0041549D01*
X0149318Y0043148D02*
X0153518Y0043148D01*
X0153518Y0044746D02*
X0075867Y0044746D01*
X0077465Y0043148D02*
X0140109Y0043148D01*
X0139367Y0041549D02*
X0079064Y0041549D01*
X0080662Y0039951D02*
X0139626Y0039951D01*
X0144594Y0043148D02*
X0144833Y0043148D01*
X0145239Y0035155D02*
X0085458Y0035155D01*
X0087056Y0033557D02*
X0142294Y0033557D01*
X0144820Y0027163D02*
X0200292Y0027163D01*
X0201005Y0025564D02*
X0098274Y0025564D01*
X0098793Y0023966D02*
X0103125Y0023966D01*
X0105200Y0023966D02*
X0116117Y0023966D01*
X0118192Y0023966D02*
X0140133Y0023966D01*
X0142208Y0023966D02*
X0150762Y0023966D01*
X0152838Y0023966D02*
X0164542Y0023966D01*
X0166617Y0023966D02*
X0178322Y0023966D01*
X0180397Y0023966D02*
X0192101Y0023966D01*
X0194176Y0023966D02*
X0204746Y0023966D01*
X0204958Y0025564D02*
X0205704Y0025564D01*
X0205670Y0027163D02*
X0206267Y0027163D01*
X0206574Y0028761D02*
X0205324Y0028761D01*
X0205076Y0033557D02*
X0206574Y0033557D01*
X0206574Y0035155D02*
X0205670Y0035155D01*
X0205275Y0036754D02*
X0206574Y0036754D01*
X0200536Y0046345D02*
X0160318Y0046345D01*
X0160318Y0047943D02*
X0200292Y0047943D01*
X0201251Y0049542D02*
X0160318Y0049542D01*
X0153518Y0049542D02*
X0071342Y0049542D01*
X0071342Y0051140D02*
X0153518Y0051140D01*
X0153518Y0052739D02*
X0079376Y0052739D01*
X0080080Y0054337D02*
X0153518Y0054337D01*
X0153518Y0055936D02*
X0079729Y0055936D01*
X0079741Y0057535D02*
X0095019Y0057535D01*
X0094796Y0057757D02*
X0095552Y0057001D01*
X0096541Y0056591D01*
X0097610Y0056591D01*
X0098599Y0057001D01*
X0099355Y0057757D01*
X0099765Y0058745D01*
X0099765Y0059815D01*
X0099355Y0060803D01*
X0099304Y0060855D01*
X0099355Y0060907D01*
X0099765Y0061895D01*
X0099765Y0062965D01*
X0099370Y0063918D01*
X0099780Y0064087D01*
X0100536Y0064844D01*
X0100816Y0065518D01*
X0101095Y0064844D01*
X0101852Y0064087D01*
X0102840Y0063678D01*
X0103910Y0063678D01*
X0104898Y0064087D01*
X0105654Y0064844D01*
X0105934Y0065518D01*
X0106213Y0064844D01*
X0106462Y0064595D01*
X0105820Y0063953D01*
X0105410Y0062965D01*
X0105410Y0061895D01*
X0105820Y0060907D01*
X0105871Y0060855D01*
X0105820Y0060803D01*
X0105410Y0059815D01*
X0105410Y0058745D01*
X0105820Y0057757D01*
X0106576Y0057001D01*
X0107564Y0056591D01*
X0108634Y0056591D01*
X0109622Y0057001D01*
X0109674Y0057052D01*
X0109726Y0057001D01*
X0110714Y0056591D01*
X0111784Y0056591D01*
X0112772Y0057001D01*
X0113528Y0057757D01*
X0113938Y0058745D01*
X0113938Y0059815D01*
X0113528Y0060803D01*
X0113477Y0060855D01*
X0113528Y0060907D01*
X0113938Y0061895D01*
X0113938Y0062965D01*
X0113642Y0063678D01*
X0114146Y0063678D01*
X0115134Y0064087D01*
X0115891Y0064844D01*
X0116281Y0065787D01*
X0116619Y0065646D01*
X0117689Y0065646D01*
X0118678Y0066056D01*
X0119434Y0066812D01*
X0119843Y0067801D01*
X0119843Y0068870D01*
X0119434Y0069859D01*
X0118678Y0070615D01*
X0117689Y0071024D01*
X0116619Y0071024D01*
X0115631Y0070615D01*
X0114875Y0069859D01*
X0114484Y0068916D01*
X0114146Y0069056D01*
X0113076Y0069056D01*
X0112088Y0068647D01*
X0111331Y0067890D01*
X0111052Y0067215D01*
X0110773Y0067890D01*
X0110016Y0068647D01*
X0109028Y0069056D01*
X0107958Y0069056D01*
X0106970Y0068647D01*
X0106213Y0067890D01*
X0105934Y0067215D01*
X0105654Y0067890D01*
X0104898Y0068647D01*
X0103910Y0069056D01*
X0102840Y0069056D01*
X0101852Y0068647D01*
X0101095Y0067890D01*
X0100816Y0067215D01*
X0100536Y0067890D01*
X0099780Y0068647D01*
X0098792Y0069056D01*
X0097722Y0069056D01*
X0096734Y0068647D01*
X0095977Y0067890D01*
X0095698Y0067215D01*
X0095418Y0067890D01*
X0094662Y0068647D01*
X0093673Y0069056D01*
X0092604Y0069056D01*
X0091615Y0068647D01*
X0090859Y0067890D01*
X0090450Y0066902D01*
X0090450Y0065832D01*
X0090859Y0064844D01*
X0091615Y0064087D01*
X0092604Y0063678D01*
X0093673Y0063678D01*
X0094662Y0064087D01*
X0095418Y0064844D01*
X0095698Y0065518D01*
X0095962Y0064879D01*
X0095552Y0064710D01*
X0094796Y0063953D01*
X0094387Y0062965D01*
X0094387Y0061895D01*
X0094796Y0060907D01*
X0094848Y0060855D01*
X0094796Y0060803D01*
X0094387Y0059815D01*
X0094387Y0058745D01*
X0094796Y0057757D01*
X0094387Y0059133D02*
X0080080Y0059133D01*
X0079348Y0060732D02*
X0094766Y0060732D01*
X0094387Y0062330D02*
X0079934Y0062330D01*
X0080006Y0063929D02*
X0091999Y0063929D01*
X0090576Y0065527D02*
X0079172Y0065527D01*
X0080080Y0067126D02*
X0090542Y0067126D01*
X0091803Y0068724D02*
X0079814Y0068724D01*
X0071030Y0068724D02*
X0069212Y0068724D01*
X0067209Y0070323D02*
X0115339Y0070323D01*
X0112275Y0068724D02*
X0109829Y0068724D01*
X0107157Y0068724D02*
X0104711Y0068724D01*
X0102039Y0068724D02*
X0099593Y0068724D01*
X0096921Y0068724D02*
X0094474Y0068724D01*
X0094278Y0063929D02*
X0094786Y0063929D01*
X0099397Y0063929D02*
X0102235Y0063929D01*
X0104515Y0063929D02*
X0105809Y0063929D01*
X0105410Y0062330D02*
X0099765Y0062330D01*
X0099385Y0060732D02*
X0105790Y0060732D01*
X0105410Y0059133D02*
X0099765Y0059133D01*
X0099133Y0057535D02*
X0106042Y0057535D01*
X0113306Y0057535D02*
X0135546Y0057535D01*
X0135936Y0057144D02*
X0135097Y0057984D01*
X0134643Y0059080D01*
X0134643Y0060268D01*
X0135097Y0061364D01*
X0135936Y0062204D01*
X0137033Y0062658D01*
X0138220Y0062658D01*
X0139317Y0062204D01*
X0139989Y0061532D01*
X0140661Y0062204D01*
X0141758Y0062658D01*
X0142945Y0062658D01*
X0144042Y0062204D01*
X0144713Y0061532D01*
X0145385Y0062204D01*
X0146482Y0062658D01*
X0147669Y0062658D01*
X0148766Y0062204D01*
X0149606Y0061364D01*
X0150060Y0060268D01*
X0150060Y0059080D01*
X0149606Y0057984D01*
X0148766Y0057144D01*
X0147669Y0056690D01*
X0146482Y0056690D01*
X0145385Y0057144D01*
X0144713Y0057816D01*
X0144042Y0057144D01*
X0142945Y0056690D01*
X0141758Y0056690D01*
X0140661Y0057144D01*
X0139989Y0057816D01*
X0139317Y0057144D01*
X0138220Y0056690D01*
X0137033Y0056690D01*
X0135936Y0057144D01*
X0134643Y0059133D02*
X0113938Y0059133D01*
X0113558Y0060732D02*
X0134835Y0060732D01*
X0136241Y0062330D02*
X0113938Y0062330D01*
X0114751Y0063929D02*
X0153518Y0063929D01*
X0153518Y0065527D02*
X0116174Y0065527D01*
X0119564Y0067126D02*
X0123013Y0067126D01*
X0123142Y0066812D02*
X0123899Y0066056D01*
X0124887Y0065646D01*
X0125957Y0065646D01*
X0126945Y0066056D01*
X0127702Y0066812D01*
X0128111Y0067801D01*
X0128111Y0068870D01*
X0127702Y0069859D01*
X0126945Y0070615D01*
X0125957Y0071024D01*
X0124887Y0071024D01*
X0123899Y0070615D01*
X0123142Y0069859D01*
X0122733Y0068870D01*
X0122733Y0067801D01*
X0123142Y0066812D01*
X0122733Y0068724D02*
X0119843Y0068724D01*
X0118970Y0070323D02*
X0123606Y0070323D01*
X0127238Y0070323D02*
X0153518Y0070323D01*
X0153518Y0071921D02*
X0037651Y0071921D01*
X0038149Y0070323D02*
X0059433Y0070323D01*
X0058560Y0068724D02*
X0038149Y0068724D01*
X0037670Y0067126D02*
X0058243Y0067126D01*
X0058636Y0065527D02*
X0036712Y0065527D01*
X0034576Y0063929D02*
X0060546Y0063929D01*
X0061249Y0068335D02*
X0064792Y0068335D01*
X0065973Y0067154D01*
X0071342Y0052739D02*
X0071468Y0052739D01*
X0072670Y0047943D02*
X0153518Y0047943D01*
X0153518Y0046345D02*
X0074268Y0046345D01*
X0069447Y0041549D02*
X0022205Y0041549D01*
X0021922Y0039951D02*
X0071045Y0039951D01*
X0067848Y0043148D02*
X0021341Y0043148D01*
X0017924Y0052739D02*
X0017105Y0052739D01*
X0036667Y0073520D02*
X0153518Y0073520D01*
X0153518Y0075118D02*
X0034467Y0075118D01*
X0017702Y0094300D02*
X0017105Y0094300D01*
X0017105Y0100694D02*
X0070201Y0100694D01*
X0070807Y0099096D02*
X0043137Y0099096D01*
X0045984Y0097497D02*
X0071643Y0097497D01*
X0073241Y0095899D02*
X0047237Y0095899D01*
X0036464Y0105490D02*
X0017105Y0105490D01*
X0017105Y0107088D02*
X0035802Y0107088D01*
X0035676Y0108687D02*
X0021855Y0108687D01*
X0022205Y0110285D02*
X0035865Y0110285D01*
X0036527Y0111884D02*
X0021503Y0111884D01*
X0017178Y0108687D02*
X0017105Y0108687D01*
X0017105Y0135862D02*
X0017479Y0135862D01*
X0017105Y0145453D02*
X0038777Y0145453D01*
X0038584Y0147051D02*
X0017105Y0147051D01*
X0017105Y0148650D02*
X0039590Y0148650D01*
X0041254Y0150248D02*
X0021947Y0150248D01*
X0022205Y0151847D02*
X0041254Y0151847D01*
X0041254Y0153445D02*
X0021280Y0153445D01*
X0017753Y0153445D02*
X0017105Y0153445D01*
X0017105Y0155044D02*
X0041254Y0155044D01*
X0041254Y0156642D02*
X0017105Y0156642D01*
X0017105Y0158241D02*
X0041254Y0158241D01*
X0040727Y0159839D02*
X0017105Y0159839D01*
X0017105Y0161438D02*
X0040808Y0161438D01*
X0042196Y0163036D02*
X0021170Y0163036D01*
X0022199Y0164635D02*
X0049381Y0164635D01*
X0048816Y0166233D02*
X0021993Y0166233D01*
X0020155Y0167832D02*
X0049148Y0167832D01*
X0043454Y0160540D02*
X0043454Y0148572D01*
X0041367Y0146485D01*
X0062262Y0164635D02*
X0062874Y0164635D01*
X0067183Y0164635D02*
X0067795Y0164635D01*
X0072104Y0164635D02*
X0111371Y0164635D01*
X0109996Y0163036D02*
X0073032Y0163036D01*
X0072875Y0161438D02*
X0109001Y0161438D01*
X0107402Y0159839D02*
X0071718Y0159839D01*
X0070507Y0158241D02*
X0105804Y0158241D01*
X0104876Y0156642D02*
X0070451Y0156642D01*
X0070592Y0155044D02*
X0104376Y0155044D01*
X0104376Y0153445D02*
X0070268Y0153445D01*
X0070592Y0151847D02*
X0104376Y0151847D01*
X0104376Y0150248D02*
X0069941Y0150248D01*
X0072634Y0148650D02*
X0104376Y0148650D01*
X0100705Y0147051D02*
X0073032Y0147051D01*
X0071672Y0142256D02*
X0071377Y0142256D01*
X0065766Y0142256D02*
X0065472Y0142256D01*
X0060141Y0171029D02*
X0059286Y0171029D01*
X0054269Y0182218D02*
X0017105Y0182218D01*
X0017105Y0180620D02*
X0017368Y0180620D01*
X0017105Y0183817D02*
X0054556Y0183817D01*
X0053704Y0188612D02*
X0043203Y0188612D01*
X0044240Y0190211D02*
X0052667Y0190211D01*
X0052861Y0191809D02*
X0044046Y0191809D01*
X0039081Y0191809D02*
X0030267Y0191809D01*
X0030461Y0190211D02*
X0038887Y0190211D01*
X0039925Y0188612D02*
X0029423Y0188612D01*
X0026145Y0188612D02*
X0018880Y0188612D01*
X0020269Y0190211D02*
X0025108Y0190211D01*
X0025302Y0191809D02*
X0022647Y0191809D01*
X0018878Y0167832D02*
X0017105Y0167832D01*
X0017105Y0163036D02*
X0017863Y0163036D01*
X0105260Y0135862D02*
X0105932Y0135862D01*
X0105837Y0134263D02*
X0108066Y0134263D01*
X0105509Y0132665D02*
X0151541Y0132665D01*
X0151165Y0134263D02*
X0113487Y0134263D01*
X0115621Y0135862D02*
X0151165Y0135862D01*
X0151374Y0137460D02*
X0116624Y0137460D01*
X0117176Y0139059D02*
X0152036Y0139059D01*
X0153034Y0140657D02*
X0117176Y0140657D01*
X0117176Y0142256D02*
X0154632Y0142256D01*
X0152203Y0131066D02*
X0104740Y0131066D01*
X0105778Y0129468D02*
X0153438Y0129468D01*
X0155294Y0127869D02*
X0105724Y0127869D01*
X0138299Y0094300D02*
X0154846Y0094300D01*
X0153709Y0092702D02*
X0142318Y0092702D01*
X0143897Y0091103D02*
X0153518Y0091103D01*
X0153518Y0089505D02*
X0144460Y0089505D01*
X0144425Y0087906D02*
X0153518Y0087906D01*
X0153518Y0086308D02*
X0143728Y0086308D01*
X0144571Y0095899D02*
X0156445Y0095899D01*
X0158043Y0097497D02*
X0146170Y0097497D01*
X0147006Y0099096D02*
X0159642Y0099096D01*
X0162864Y0092702D02*
X0167346Y0092702D01*
X0166891Y0091103D02*
X0161266Y0091103D01*
X0160318Y0089505D02*
X0165131Y0089505D01*
X0164475Y0087906D02*
X0160318Y0087906D01*
X0160318Y0086308D02*
X0164475Y0086308D01*
X0165039Y0084709D02*
X0160318Y0084709D01*
X0160318Y0083111D02*
X0166436Y0083111D01*
X0167878Y0081512D02*
X0160318Y0081512D01*
X0160318Y0079914D02*
X0165466Y0079914D01*
X0164638Y0078315D02*
X0160318Y0078315D01*
X0160318Y0076717D02*
X0164475Y0076717D01*
X0164870Y0075118D02*
X0160318Y0075118D01*
X0160318Y0073520D02*
X0166027Y0073520D01*
X0172219Y0073520D02*
X0200819Y0073520D01*
X0184342Y0081512D02*
X0170368Y0081512D01*
X0171810Y0083111D02*
X0184178Y0083111D01*
X0184150Y0094300D02*
X0173000Y0094300D01*
X0173699Y0095899D02*
X0184616Y0095899D01*
X0200652Y0107088D02*
X0145696Y0107088D01*
X0153518Y0068724D02*
X0128111Y0068724D01*
X0127831Y0067126D02*
X0153518Y0067126D01*
X0153518Y0062330D02*
X0148462Y0062330D01*
X0149868Y0060732D02*
X0153518Y0060732D01*
X0153518Y0059133D02*
X0150060Y0059133D01*
X0149156Y0057535D02*
X0153518Y0057535D01*
X0144995Y0057535D02*
X0144432Y0057535D01*
X0140270Y0057535D02*
X0139708Y0057535D01*
X0139013Y0062330D02*
X0140965Y0062330D01*
X0143737Y0062330D02*
X0145690Y0062330D01*
X0143715Y0022367D02*
X0149255Y0022367D01*
X0149186Y0020769D02*
X0143784Y0020769D01*
X0138556Y0020769D02*
X0119768Y0020769D01*
X0119699Y0022367D02*
X0138625Y0022367D01*
X0154345Y0022367D02*
X0163034Y0022367D01*
X0162966Y0020769D02*
X0154414Y0020769D01*
X0168193Y0020769D02*
X0176745Y0020769D01*
X0176814Y0022367D02*
X0168125Y0022367D01*
X0181904Y0022367D02*
X0190593Y0022367D01*
X0190525Y0020769D02*
X0181973Y0020769D01*
X0195752Y0020769D02*
X0200872Y0020769D01*
X0203320Y0022367D02*
X0195684Y0022367D01*
X0205670Y0095899D02*
X0206574Y0095899D01*
X0206574Y0097497D02*
X0205391Y0097497D01*
X0114609Y0022367D02*
X0106707Y0022367D01*
X0106776Y0020769D02*
X0114540Y0020769D01*
X0101548Y0020769D02*
X0097992Y0020769D01*
X0098725Y0022367D02*
X0101617Y0022367D01*
X0065397Y0022367D02*
X0057888Y0022367D01*
X0057957Y0020769D02*
X0065328Y0020769D01*
X0052729Y0020769D02*
X0044178Y0020769D01*
X0044109Y0022367D02*
X0052798Y0022367D01*
X0039019Y0022367D02*
X0030329Y0022367D01*
X0030398Y0020769D02*
X0038950Y0020769D01*
X0017540Y0025564D02*
X0017487Y0025564D01*
D20*
X0102852Y0125387D03*
X0102852Y0128733D03*
X0102852Y0134048D03*
X0102852Y0139363D03*
X0102981Y0145107D03*
X0108887Y0146682D03*
X0108887Y0143139D03*
X0114005Y0143139D03*
X0114005Y0146682D03*
X0051800Y0166436D03*
X0051643Y0176406D03*
X0137627Y0059674D03*
X0142351Y0059674D03*
X0147076Y0059674D03*
X0147076Y0041170D03*
X0142351Y0041170D03*
D21*
X0041367Y0146485D03*
X0043454Y0160540D03*
D22*
X0110776Y0154162D02*
X0110776Y0140068D01*
X0110776Y0154162D02*
X0116406Y0159792D01*
X0115580Y0159792D01*
X0133296Y0159792D01*
D23*
X0110776Y0154162D02*
X0109595Y0143926D01*
X0108887Y0143139D01*
D24*
X0156918Y0091564D02*
X0162351Y0096997D01*
X0169123Y0096997D01*
X0156918Y0091564D02*
X0156918Y0037627D01*
X0143139Y0030146D01*
X0085658Y0030146D01*
X0067942Y0047863D01*
X0067942Y0065186D01*
X0065973Y0067154D01*
X0061643Y0067154D01*
M02*
